<svg width="151" height="40" viewBox="0 0 151 40" fill="none" xmlns="http://www.w3.org/2000/svg">
<rect x="0.5" y="0.5" width="149.759" height="38.8096" rx="6.5" fill="black" stroke="black"/>
<path d="M69.3268 30H61.8388V29.744C61.8388 28.5707 62.3081 27.9413 63.2468 27.856L64.1748 27.792H64.2068L62.9268 23.152H57.1668L55.8228 27.728L58.4148 27.92C58.4788 28.048 58.4681 28.336 58.3828 28.784C58.1908 29.5947 57.7214 30 56.9748 30H50.5428V29.744C50.5428 28.5707 51.0121 27.9413 51.9508 27.856L53.1348 27.792L59.2788 8.08C60.1961 7.99467 61.2734 7.99467 62.5108 8.08L68.5268 27.728L70.7668 27.92C70.8308 28.048 70.8201 28.336 70.7348 28.784C70.5428 29.5947 70.0734 30 69.3268 30ZM57.7748 21.008H62.3508L60.1428 12.912L57.7748 21.008ZM79.0038 30H71.8678V29.744C71.8678 28.5707 72.3371 27.9413 73.2758 27.856L74.2678 27.792V9.936L73.0198 9.808C72.1451 9.72267 71.7504 9.06133 71.8358 7.824L78.1718 7.12V27.728L80.4438 27.92C80.5718 29.3067 80.0918 30 79.0038 30ZM88.8145 30H81.6785V29.744C81.6785 28.5707 82.1478 27.9413 83.0865 27.856L84.0785 27.792V9.936L82.8305 9.808C81.9558 9.72267 81.5612 9.06133 81.6465 7.824L87.9825 7.12V27.728L90.2545 27.92C90.3825 29.3067 89.9025 30 88.8145 30Z" fill="white"/>
</svg>
