<svg width="151" height="41" viewBox="0 0 151 41" fill="none" xmlns="http://www.w3.org/2000/svg">
<rect x="0.741211" y="0.5" width="149.759" height="38.8096" rx="6.5" fill="black" stroke="black"/>
<path d="M28.483 10.56H33.019C33.019 10.56 33.019 10.624 33.019 10.752C33.019 11.632 32.667 12.104 31.963 12.168L31.387 12.216L26.323 27H23.899L19.099 12.264L17.563 12.12C17.515 12.024 17.523 11.808 17.587 11.472C17.731 10.864 18.083 10.56 18.643 10.56H24.163C24.131 11.184 24.059 11.568 23.947 11.712C23.739 11.984 23.459 12.136 23.107 12.168L22.387 12.216L25.699 23.328L29.299 12.264L27.403 12.12C27.355 12.024 27.363 11.808 27.427 11.472C27.571 10.864 27.923 10.56 28.483 10.56ZM36.5346 21.12V21.384C36.5346 22.68 36.7666 23.648 37.2306 24.288C37.7106 24.912 38.5266 25.224 39.6786 25.224C40.8466 25.224 41.9906 24.784 43.1106 23.904C43.4306 24.144 43.5906 24.52 43.5906 25.032C43.5906 25.528 43.1426 26.04 42.2466 26.568C41.3666 27.096 40.2626 27.36 38.9346 27.36C37.2066 27.36 35.8626 26.856 34.9026 25.848C33.9586 24.824 33.4866 23.28 33.4866 21.216C33.4866 19.136 33.9986 17.504 35.0226 16.32C36.0626 15.12 37.4866 14.52 39.2946 14.52C40.8306 14.52 41.9746 15 42.7266 15.96C43.4946 16.92 43.8626 18.184 43.8306 19.752V21.12H36.5346ZM39.0306 16.44C37.7186 16.44 36.9266 17.448 36.6546 19.464H41.0226C40.9906 18.376 40.8066 17.6 40.4706 17.136C40.1346 16.672 39.6546 16.44 39.0306 16.44ZM49.4963 23.496C49.0963 23.496 48.6963 23.456 48.2963 23.376C48.0723 23.776 47.9603 24.064 47.9603 24.24C47.9603 24.416 48.1443 24.536 48.5123 24.6C48.8803 24.648 49.7523 24.696 51.1283 24.744C52.5043 24.792 53.5683 25.04 54.3203 25.488C55.0883 25.92 55.4723 26.672 55.4723 27.744C55.4723 29.216 54.9043 30.392 53.7683 31.272C52.6323 32.152 51.2323 32.592 49.5683 32.592C47.9203 32.592 46.6803 32.288 45.8483 31.68C45.0323 31.072 44.6243 30.288 44.6243 29.328C44.6243 28.368 45.0883 27.456 46.0163 26.592C45.7763 26.304 45.6563 25.92 45.6563 25.44C45.6563 24.592 46.0563 23.704 46.8563 22.776C45.6243 21.976 45.0083 20.76 45.0083 19.128C45.0083 17.8 45.4323 16.704 46.2803 15.84C47.1443 14.96 48.2963 14.52 49.7363 14.52C50.6803 14.52 51.5123 14.712 52.2323 15.096L55.4483 14.232C55.5923 14.408 55.6723 14.736 55.6883 15.216C55.7043 15.696 55.6243 16.016 55.4483 16.176C55.2083 16.304 54.5843 16.352 53.5763 16.32C54.0403 17.008 54.2403 17.968 54.1763 19.2C54.1123 20.416 53.6563 21.44 52.8083 22.272C51.9603 23.088 50.8563 23.496 49.4963 23.496ZM53.4323 28.488C53.4323 28.12 53.1603 27.88 52.6163 27.768C52.0723 27.656 51.1523 27.568 49.8563 27.504C48.5603 27.44 47.7283 27.368 47.3603 27.288C46.9603 27.768 46.7603 28.256 46.7603 28.752C46.7603 29.248 47.0163 29.656 47.5283 29.976C48.0403 30.296 48.8083 30.456 49.8323 30.456C50.8563 30.456 51.7123 30.264 52.4003 29.88C53.0883 29.512 53.4323 29.048 53.4323 28.488ZM49.5443 21.744C50.1203 21.744 50.5763 21.512 50.9123 21.048C51.2483 20.568 51.4163 19.904 51.4163 19.056C51.4163 18.192 51.2563 17.528 50.9363 17.064C50.6163 16.584 50.1603 16.344 49.5683 16.344C48.9763 16.344 48.5203 16.584 48.2003 17.064C47.8963 17.544 47.7443 18.216 47.7443 19.08C47.7443 20.856 48.3443 21.744 49.5443 21.744ZM59.2499 21.12V21.384C59.2499 22.68 59.4819 23.648 59.9459 24.288C60.4259 24.912 61.2419 25.224 62.3939 25.224C63.5619 25.224 64.7059 24.784 65.8259 23.904C66.1459 24.144 66.3059 24.52 66.3059 25.032C66.3059 25.528 65.8579 26.04 64.9619 26.568C64.0819 27.096 62.9779 27.36 61.6499 27.36C59.9219 27.36 58.5779 26.856 57.6179 25.848C56.6739 24.824 56.2019 23.28 56.2019 21.216C56.2019 19.136 56.7139 17.504 57.7379 16.32C58.7779 15.12 60.2019 14.52 62.0099 14.52C63.5459 14.52 64.6899 15 65.4419 15.96C66.2099 16.92 66.5779 18.184 66.5459 19.752V21.12H59.2499ZM61.7459 16.44C60.4339 16.44 59.6419 17.448 59.3699 19.464H63.7379C63.7059 18.376 63.5219 17.6 63.1859 17.136C62.8499 16.672 62.3699 16.44 61.7459 16.44ZM71.8755 16.56V23.208C71.8755 24.504 72.2915 25.152 73.1235 25.152C73.7315 25.152 74.2355 25.072 74.6355 24.912C75.0515 24.752 75.4915 24.48 75.9555 24.096C76.0355 24.096 76.1395 24.2 76.2675 24.408C76.3955 24.616 76.4595 24.84 76.4595 25.08C76.4595 25.704 76.0195 26.24 75.1395 26.688C74.2595 27.136 73.4035 27.36 72.5715 27.36C71.7395 27.36 71.0835 27.24 70.6035 27C70.1235 26.776 69.7635 26.44 69.5235 25.992C69.1395 25.256 68.9475 24.28 68.9475 23.064V16.56H66.9555C66.9555 15.44 67.3475 14.88 68.1315 14.88H68.9475V11.808L71.8755 11.496V14.88H76.1955C76.2275 15.12 76.2035 15.392 76.1235 15.696C75.9795 16.272 75.6115 16.56 75.0195 16.56H71.8755ZM88.5833 25.92C88.5833 26.88 87.9593 27.36 86.7113 27.36C85.4633 27.36 84.6553 26.944 84.2873 26.112C83.2793 26.944 82.1673 27.36 80.9513 27.36C79.7353 27.36 78.7753 27.064 78.0713 26.472C77.3833 25.864 77.0393 25.04 77.0393 24C77.0393 22.944 77.4473 22.08 78.2633 21.408C79.0793 20.736 80.3673 20.4 82.1273 20.4C82.8153 20.4 83.4713 20.448 84.0953 20.544V19.488C84.0953 18.384 83.9113 17.6 83.5433 17.136C83.1913 16.672 82.7033 16.44 82.0793 16.44C81.4553 16.44 80.9513 16.64 80.5673 17.04C80.1993 17.44 80.0153 17.984 80.0153 18.672C79.3753 18.736 78.8393 18.64 78.4073 18.384C77.9913 18.112 77.7833 17.704 77.7833 17.16C77.7833 16.392 78.1833 15.76 78.9833 15.264C79.7833 14.768 80.8153 14.52 82.0793 14.52C85.3753 14.52 87.0233 16.12 87.0233 19.32V25.728L88.5833 25.92ZM84.0953 22.344C83.5193 22.136 82.9113 22.032 82.2713 22.032C81.6473 22.032 81.1273 22.184 80.7113 22.488C80.2953 22.776 80.0873 23.192 80.0873 23.736C80.0873 24.856 80.6633 25.416 81.8153 25.416C82.6313 25.416 83.3913 25.184 84.0953 24.72V22.344ZM93.7789 16.632C94.1629 16.12 94.7069 15.64 95.4109 15.192C96.1309 14.744 96.7469 14.52 97.2589 14.52C97.7869 14.52 98.2269 14.688 98.5789 15.024C98.9309 15.36 99.1069 15.92 99.1069 16.704C99.1069 17.472 98.8429 18.088 98.3149 18.552C98.0429 18.76 97.5869 18.824 96.9469 18.744C96.9469 18.216 96.8989 17.816 96.8029 17.544C96.7069 17.256 96.6029 17.088 96.4909 17.04C96.3789 16.976 96.2269 16.944 96.0349 16.944C95.2349 16.944 94.5149 17.464 93.8749 18.504V25.296L95.8189 25.44C95.9149 26.48 95.5549 27 94.7389 27H89.1949C89.1949 27 89.1949 26.936 89.1949 26.808C89.1949 25.928 89.5469 25.456 90.2509 25.392L90.9469 25.344V16.752L89.8909 16.632C89.3949 16.584 89.1469 16.104 89.1469 15.192L93.4909 14.64L93.7069 16.632H93.7789ZM104.873 27H99.5213V26.808C99.5213 25.928 99.8733 25.456 100.577 25.392L101.321 25.344V16.632L100.385 16.536C99.7293 16.472 99.4333 15.976 99.4973 15.048L104.249 14.52V25.296L105.953 25.44C106.049 26.48 105.689 27 104.873 27ZM104.369 11.664C104.369 12.16 104.201 12.584 103.865 12.936C103.529 13.272 103.105 13.44 102.593 13.44C102.097 13.44 101.673 13.272 101.321 12.936C100.985 12.584 100.817 12.16 100.817 11.664C100.817 11.168 100.985 10.752 101.321 10.416C101.673 10.064 102.097 9.888 102.593 9.888C103.089 9.888 103.505 10.064 103.841 10.416C104.193 10.752 104.369 11.168 104.369 11.664ZM118.273 25.92C118.273 26.88 117.649 27.36 116.401 27.36C115.153 27.36 114.345 26.944 113.977 26.112C112.969 26.944 111.857 27.36 110.641 27.36C109.425 27.36 108.465 27.064 107.761 26.472C107.073 25.864 106.729 25.04 106.729 24C106.729 22.944 107.137 22.08 107.953 21.408C108.769 20.736 110.057 20.4 111.817 20.4C112.505 20.4 113.161 20.448 113.785 20.544V19.488C113.785 18.384 113.601 17.6 113.233 17.136C112.881 16.672 112.393 16.44 111.769 16.44C111.145 16.44 110.641 16.64 110.257 17.04C109.889 17.44 109.705 17.984 109.705 18.672C109.065 18.736 108.529 18.64 108.097 18.384C107.681 18.112 107.473 17.704 107.473 17.16C107.473 16.392 107.873 15.76 108.673 15.264C109.473 14.768 110.505 14.52 111.769 14.52C115.065 14.52 116.713 16.12 116.713 19.32V25.728L118.273 25.92ZM113.785 22.344C113.209 22.136 112.601 22.032 111.961 22.032C111.337 22.032 110.817 22.184 110.401 22.488C109.985 22.776 109.777 23.192 109.777 23.736C109.777 24.856 110.353 25.416 111.505 25.416C112.321 25.416 113.081 25.184 113.785 24.72V22.344ZM132.157 27H126.853V26.808C126.853 25.928 127.205 25.456 127.909 25.392L128.605 25.344V19.44C128.605 18.512 128.421 17.864 128.053 17.496C127.685 17.112 127.173 16.92 126.517 16.92C125.861 16.92 125.325 17.008 124.909 17.184C124.493 17.36 124.061 17.64 123.613 18.024V25.296L125.317 25.44C125.413 26.48 125.053 27 124.237 27H118.885V26.808C118.885 25.928 119.237 25.456 119.941 25.392L120.685 25.344V16.776L119.749 16.68C119.093 16.616 118.797 16.12 118.861 15.192L123.205 14.664L123.373 16.128H123.445C124.037 15.616 124.605 15.224 125.149 14.952C125.709 14.664 126.365 14.52 127.117 14.52C128.349 14.52 129.389 14.936 130.237 15.768C131.101 16.584 131.533 17.848 131.533 19.56V25.296L133.237 25.44C133.333 26.48 132.973 27 132.157 27Z" fill="white"/>
</svg>
