<svg width="151" height="41" viewBox="0 0 151 41" fill="none" xmlns="http://www.w3.org/2000/svg">
<rect x="0.5" y="0.5" width="149.759" height="38.8096" rx="6.5" fill="black" stroke="black"/>
<path d="M28.2623 19.84H26.8223V25.728L29.5423 25.92C29.6063 26.048 29.5956 26.336 29.5103 26.784C29.3183 27.5947 28.8489 28 28.1023 28H20.4863V27.744C20.4863 26.5707 20.9556 25.9413 21.8943 25.856L22.8223 25.792V8.288L20.4863 8.096C20.4649 7.56267 20.5609 7.09333 20.7743 6.688C20.9876 6.28267 21.3076 6.08 21.7343 6.08H29.2223C31.8249 6.08 33.8516 6.63467 35.3023 7.744C36.7529 8.832 37.4783 10.3573 37.4783 12.32C37.4783 14.688 36.6676 16.5333 35.0463 17.856C33.4249 19.1787 31.1636 19.84 28.2623 19.84ZM26.8223 17.856H27.8463C29.5529 17.856 30.8863 17.3867 31.8463 16.448C32.8276 15.5093 33.3183 14.2613 33.3183 12.704C33.3183 11.1253 32.9343 9.94133 32.1663 9.152C31.3983 8.36267 30.3209 7.98933 28.9343 8.032L26.8223 8.096V17.856ZM48.9365 15.52C48.3392 14.3893 47.4859 13.824 46.3765 13.824C45.2672 13.824 44.4032 14.3787 43.7845 15.488C43.1872 16.5973 42.8885 18.112 42.8885 20.032C42.8885 21.9307 43.1872 23.4133 43.7845 24.48C44.4032 25.5253 45.2672 26.048 46.3765 26.048C47.4859 26.048 48.3392 25.536 48.9365 24.512C49.5552 23.4667 49.8645 21.9947 49.8645 20.096C49.8645 18.176 49.5552 16.6507 48.9365 15.52ZM38.8245 20.192C38.8245 17.4613 39.4965 15.3067 40.8405 13.728C42.2059 12.1493 44.0939 11.36 46.5045 11.36C48.9152 11.36 50.7499 12.1173 52.0085 13.632C53.2885 15.1467 53.9285 17.248 53.9285 19.936C53.9285 22.6027 53.2459 24.6933 51.8805 26.208C50.5152 27.7227 48.6059 28.48 46.1525 28.48C43.7205 28.48 41.8859 27.776 40.6485 26.368C39.4325 24.96 38.8245 22.9013 38.8245 20.192ZM61.1043 13.216C62.4909 11.9787 64.0589 11.36 65.8083 11.36C67.5789 11.36 69.0936 11.9893 70.3523 13.248C71.6109 14.4853 72.2616 16.4693 72.3043 19.2C72.3469 21.9307 71.6856 24.16 70.3203 25.888C68.9763 27.616 66.9923 28.48 64.3683 28.48C63.1949 28.48 62.1816 28.2987 61.3283 27.936V32.704H61.3603L63.6003 32.896C63.7283 34.2827 63.2483 34.976 62.1603 34.976H55.0243V34.72C55.0243 33.5467 55.4936 32.9173 56.4323 32.832L57.4243 32.768V14.368L56.0483 14.208C55.3869 14.1227 55.0563 13.4827 55.0563 12.288L60.8163 11.552L61.1043 13.216ZM64.6243 25.888C67.0349 25.888 68.2403 23.8933 68.2403 19.904C68.2403 18.0693 67.9203 16.6507 67.2803 15.648C66.6616 14.6453 65.7763 14.144 64.6243 14.144C63.4723 14.144 62.3736 14.624 61.3283 15.584V24.608C62.3523 25.4613 63.4509 25.888 64.6243 25.888ZM83.2535 13.856C83.2535 12.512 83.7229 11.84 84.6615 11.84H89.6535V25.856H90.3575C91.0829 25.8773 91.4455 26.5493 91.4455 27.872L86.9015 28.32L86.2295 26.528C84.7149 27.8293 83.1469 28.48 81.5255 28.48C79.9255 28.48 78.5495 27.936 77.3975 26.848C76.2455 25.7387 75.6695 24.0427 75.6695 21.76V14.112H73.3335V13.856C73.3335 12.512 73.8029 11.84 74.7415 11.84H79.5735V21.92C79.5735 23.2427 79.8295 24.1813 80.3415 24.736C80.8535 25.2907 81.6429 25.568 82.7095 25.568C83.7762 25.568 84.7895 25.2053 85.7495 24.48V14.112H83.2535V13.856ZM99.9843 28H92.8483V27.744C92.8483 26.5707 93.3176 25.9413 94.2563 25.856L95.2483 25.792V7.936L94.0003 7.808C93.1256 7.72267 92.7309 7.06133 92.8163 5.824L99.1523 5.12V25.728L101.424 25.92C101.552 27.3067 101.072 28 99.9843 28ZM117.987 26.56C117.987 27.84 117.155 28.48 115.491 28.48C113.827 28.48 112.75 27.9253 112.259 26.816C110.915 27.9253 109.432 28.48 107.811 28.48C106.19 28.48 104.91 28.0853 103.971 27.296C103.054 26.4853 102.595 25.3867 102.595 24C102.595 22.592 103.139 21.44 104.227 20.544C105.315 19.648 107.032 19.2 109.379 19.2C110.296 19.2 111.171 19.264 112.003 19.392V17.984C112.003 16.512 111.758 15.4667 111.267 14.848C110.798 14.2293 110.147 13.92 109.315 13.92C108.483 13.92 107.811 14.1867 107.299 14.72C106.808 15.2533 106.563 15.9787 106.563 16.896C105.71 16.9813 104.995 16.8533 104.419 16.512C103.864 16.1493 103.587 15.6053 103.587 14.88C103.587 13.856 104.12 13.0133 105.187 12.352C106.254 11.6907 107.63 11.36 109.315 11.36C113.71 11.36 115.907 13.4933 115.907 17.76V26.304L117.987 26.56ZM112.003 21.792C111.235 21.5147 110.424 21.376 109.571 21.376C108.739 21.376 108.046 21.5787 107.491 21.984C106.936 22.368 106.659 22.9227 106.659 23.648C106.659 25.1413 107.427 25.888 108.963 25.888C110.051 25.888 111.064 25.5787 112.003 24.96V21.792ZM125.051 14.176C125.563 13.4933 126.288 12.8533 127.227 12.256C128.187 11.6587 129.008 11.36 129.691 11.36C130.395 11.36 130.981 11.584 131.451 12.032C131.92 12.48 132.155 13.2267 132.155 14.272C132.155 15.296 131.803 16.1173 131.099 16.736C130.736 17.0133 130.128 17.0987 129.275 16.992C129.275 16.288 129.211 15.7547 129.083 15.392C128.955 15.008 128.816 14.784 128.667 14.72C128.517 14.6347 128.315 14.592 128.059 14.592C126.992 14.592 126.032 15.2853 125.179 16.672V25.728L127.771 25.92C127.899 27.3067 127.419 28 126.331 28H118.939C118.939 28 118.939 27.9147 118.939 27.744C118.939 26.5707 119.408 25.9413 120.347 25.856L121.275 25.792V14.336L119.867 14.176C119.205 14.112 118.875 13.472 118.875 12.256L124.667 11.52L124.955 14.176H125.051Z" fill="white"/>
</svg>
