<svg width="152" height="40" viewBox="0 0 152 40" fill="none" xmlns="http://www.w3.org/2000/svg">
<rect x="1.18066" y="0.5" width="149.759" height="38.8096" rx="6.5" fill="black" stroke="black"/>
<path d="M66.1631 27H58.8991V26.744C58.8991 25.5707 59.3685 24.9413 60.3071 24.856L61.2031 24.792L60.0511 9.272L54.3231 23.544C53.5551 23.7787 52.8725 23.832 52.2751 23.704L46.0991 9.88L45.1711 24.728L47.7631 24.92C47.8271 25.048 47.8165 25.336 47.7311 25.784C47.5391 26.5947 47.0698 27 46.3231 27H39.7951V26.744C39.7951 25.5707 40.2645 24.9413 41.2031 24.856L42.4831 24.792L43.6351 7.352L41.4271 7.16C41.3631 7.032 41.3738 6.744 41.4591 6.296C41.6511 5.48533 42.1205 5.08 42.8671 5.08H48.3391L53.9711 17.816L58.8991 5.08H64.7551C65.1178 5.08 65.4165 5.176 65.6511 5.368C65.8858 5.53867 66.0351 5.752 66.0991 6.008C66.2271 6.648 66.2591 7.032 66.1951 7.16L63.9551 7.352L65.2671 24.728L67.6031 24.92C67.6671 25.048 67.6565 25.336 67.5711 25.784C67.3791 26.5947 66.9098 27 66.1631 27ZM72.7199 19.16V19.512C72.7199 21.24 73.0292 22.5307 73.6479 23.384C74.2879 24.216 75.3759 24.632 76.9119 24.632C78.4692 24.632 79.9946 24.0453 81.4879 22.872C81.9146 23.192 82.1279 23.6933 82.1279 24.376C82.1279 25.0373 81.5306 25.72 80.3359 26.424C79.1626 27.128 77.6906 27.48 75.9199 27.48C73.6159 27.48 71.8239 26.808 70.5439 25.464C69.2852 24.0987 68.6559 22.04 68.6559 19.288C68.6559 16.5147 69.3386 14.3387 70.7039 12.76C72.0906 11.16 73.9892 10.36 76.3999 10.36C78.4479 10.36 79.9732 11 80.9759 12.28C81.9999 13.56 82.4906 15.2453 82.4479 17.336V19.16H72.7199ZM76.0479 12.92C74.2986 12.92 73.2426 14.264 72.8799 16.952H78.7039C78.6612 15.5013 78.4159 14.4667 77.9679 13.848C77.5199 13.2293 76.8799 12.92 76.0479 12.92ZM99.3861 25.56C99.3861 26.84 98.5541 27.48 96.8901 27.48C95.2261 27.48 94.1488 26.9253 93.6581 25.816C92.3141 26.9253 90.8315 27.48 89.2101 27.48C87.5888 27.48 86.3088 27.0853 85.3701 26.296C84.4528 25.4853 83.9941 24.3867 83.9941 23C83.9941 21.592 84.5381 20.44 85.6261 19.544C86.7141 18.648 88.4315 18.2 90.7781 18.2C91.6955 18.2 92.5701 18.264 93.4021 18.392V16.984C93.4021 15.512 93.1568 14.4667 92.6661 13.848C92.1968 13.2293 91.5461 12.92 90.7141 12.92C89.8821 12.92 89.2101 13.1867 88.6981 13.72C88.2075 14.2533 87.9621 14.9787 87.9621 15.896C87.1088 15.9813 86.3941 15.8533 85.8181 15.512C85.2635 15.1493 84.9861 14.6053 84.9861 13.88C84.9861 12.856 85.5195 12.0133 86.5861 11.352C87.6528 10.6907 89.0288 10.36 90.7141 10.36C95.1088 10.36 97.3061 12.4933 97.3061 16.76V25.304L99.3861 25.56ZM93.4021 20.792C92.6341 20.5147 91.8235 20.376 90.9701 20.376C90.1381 20.376 89.4448 20.5787 88.8901 20.984C88.3355 21.368 88.0581 21.9227 88.0581 22.648C88.0581 24.1413 88.8261 24.888 90.3621 24.888C91.4501 24.888 92.4635 24.5787 93.4021 23.96V20.792ZM105.97 13.08V21.944C105.97 23.672 106.524 24.536 107.634 24.536C108.444 24.536 109.116 24.4293 109.65 24.216C110.204 24.0027 110.791 23.64 111.41 23.128C111.516 23.128 111.655 23.2667 111.826 23.544C111.996 23.8213 112.082 24.12 112.082 24.44C112.082 25.272 111.495 25.9867 110.322 26.584C109.148 27.1813 108.007 27.48 106.898 27.48C105.788 27.48 104.914 27.32 104.274 27C103.634 26.7013 103.154 26.2533 102.834 25.656C102.322 24.6747 102.066 23.3733 102.066 21.752V13.08H99.4096C99.4096 11.5867 99.9323 10.84 100.978 10.84H102.066V6.744L105.97 6.328V10.84H111.73C111.772 11.16 111.74 11.5227 111.634 11.928C111.442 12.696 110.951 13.08 110.162 13.08H105.97Z" fill="white"/>
</svg>
