<svg width="152" height="40" viewBox="0 0 152 40" fill="none" xmlns="http://www.w3.org/2000/svg">
<rect x="1.06055" y="0.5" width="149.759" height="38.8096" rx="6.5" fill="black" stroke="black"/>
<path d="M52.5881 31.728C53.1428 31.728 53.6868 31.5573 54.2201 31.216C54.3908 31.4293 54.4761 31.8133 54.4761 32.368C54.4761 32.944 54.1988 33.4453 53.6441 33.872C53.1108 34.2987 52.4388 34.512 51.6281 34.512C50.8175 34.512 49.7081 34.224 48.3001 33.648C46.8921 33.072 45.7828 32.56 44.9721 32.112C44.1615 31.664 43.0521 31.0347 41.6441 30.224C39.4468 29.6907 37.7508 28.4853 36.5561 26.608C35.3615 24.7093 34.7641 22.2667 34.7641 19.28C34.7641 15.6107 35.6815 12.752 37.5161 10.704C39.3508 8.63467 41.8255 7.6 44.9401 7.6C48.0548 7.6 50.4335 8.592 52.0761 10.576C53.7401 12.5387 54.5721 15.2053 54.5721 18.576C54.5721 21.9467 53.8575 24.6347 52.4281 26.64C50.9988 28.624 48.9828 29.84 46.3801 30.288C49.1108 31.248 51.1801 31.728 52.5881 31.728ZM38.9241 18.896C38.9241 21.8187 39.3935 24.048 40.3321 25.584C41.2921 27.12 42.6895 27.8987 44.5241 27.92C46.4655 27.8987 47.9268 27.152 48.9081 25.68C49.9108 24.1867 50.4121 21.9893 50.4121 19.088C50.4121 16.1867 49.9215 13.9787 48.9401 12.464C47.9801 10.928 46.5508 10.16 44.6521 10.16C40.8335 10.16 38.9241 13.072 38.9241 18.896ZM65.5386 15.856C65.5386 14.512 66.008 13.84 66.9466 13.84H71.9386V27.856H72.6426C73.368 27.8773 73.7306 28.5493 73.7306 29.872L69.1866 30.32L68.5146 28.528C67 29.8293 65.432 30.48 63.8106 30.48C62.2106 30.48 60.8346 29.936 59.6826 28.848C58.5306 27.7387 57.9546 26.0427 57.9546 23.76V16.112H55.6186V15.856C55.6186 14.512 56.088 13.84 57.0266 13.84H61.8586V23.92C61.8586 25.2427 62.1146 26.1813 62.6266 26.736C63.1386 27.2907 63.928 27.568 64.9946 27.568C66.0613 27.568 67.0746 27.2053 68.0346 26.48V16.112H65.5386V15.856ZM82.2694 30H75.1334V29.744C75.1334 28.5707 75.6027 27.9413 76.5414 27.856L77.5334 27.792V16.176L76.2854 16.048C75.4107 15.9627 75.016 15.3013 75.1014 14.064L81.4374 13.36V27.728L83.7094 27.92C83.8374 29.3067 83.3574 30 82.2694 30ZM81.5974 9.552C81.5974 10.2133 81.3734 10.7787 80.9254 11.248C80.4774 11.696 79.912 11.92 79.2294 11.92C78.568 11.92 78.0027 11.696 77.5334 11.248C77.0854 10.7787 76.8614 10.2133 76.8614 9.552C76.8614 8.89067 77.0854 8.336 77.5334 7.888C78.0027 7.41866 78.568 7.184 79.2294 7.184C79.8907 7.184 80.4454 7.41866 80.8934 7.888C81.3627 8.336 81.5974 8.89067 81.5974 9.552ZM93.0081 13.36C94.5441 13.36 95.7921 13.6907 96.7521 14.352C97.7335 14.992 98.2241 15.8133 98.2241 16.816C98.2241 17.8187 97.9255 18.5227 97.3281 18.928C96.7308 19.3333 96.1015 19.4933 95.4401 19.408C95.4188 18.4907 95.1735 17.6907 94.7041 17.008C94.2348 16.3253 93.4775 15.984 92.4321 15.984C91.4081 15.984 90.5975 16.4853 90.0001 17.488C89.4028 18.4693 89.1041 19.856 89.1041 21.648C89.1041 25.616 90.6295 27.6 93.6801 27.6C95.1095 27.6 96.4748 27.024 97.7761 25.872C97.9895 26 98.1601 26.2133 98.2881 26.512C98.4161 26.8107 98.4801 27.0667 98.4801 27.28C98.4801 27.9627 97.8508 28.6667 96.5921 29.392C95.3548 30.1173 93.9255 30.48 92.3041 30.48C90.0428 30.48 88.2615 29.7547 86.9601 28.304C85.6801 26.832 85.0401 24.7733 85.0401 22.128C85.0401 19.4827 85.7655 17.36 87.2161 15.76C88.6668 14.16 90.5975 13.36 93.0081 13.36ZM110.062 13.84H115.79V14.096C115.79 15.2693 115.321 15.8987 114.382 15.984L113.678 16.016L109.774 20.432L115.022 27.728L117.166 27.92C117.23 28.5173 117.102 29.0187 116.782 29.424C116.462 29.808 116.057 30 115.566 30H112.142L107.342 23.184L105.934 24.752V27.728L108.238 27.92C108.302 28.048 108.291 28.336 108.206 28.784C108.014 29.5947 107.545 30 106.798 30H99.6619V29.744C99.6619 28.5707 100.131 27.9413 101.07 27.856L102.03 27.792V9.936L100.782 9.808C99.9072 9.72267 99.5125 9.06133 99.5979 7.824L105.934 7.12V21.456L110.446 16.112L108.622 15.92C108.558 15.792 108.569 15.504 108.654 15.056C108.846 14.2453 109.315 13.84 110.062 13.84Z" fill="white"/>
</svg>
