<svg width="1440" height="117" viewBox="0 0 1440 117" fill="none" xmlns="http://www.w3.org/2000/svg">
<line y1="111.5" x2="1440" y2="111.5" stroke="black"/>
<line y1="5.5" x2="1440" y2="5.5" stroke="black"/>
<mask id="path-3-inside-1_677_1716" fill="white">
<path d="M0 116H1440V117H0V116Z"/>
</mask>
<path d="M1440 116H0V118H1440V116Z" fill="black" mask="url(#path-3-inside-1_677_1716)"/>
<mask id="path-5-inside-2_677_1716" fill="white">
<path d="M0 1H1440V0H0V1Z"/>
</mask>
<path d="M1440 1H0V-1H1440V1Z" fill="black" mask="url(#path-5-inside-2_677_1716)"/>
<line x1="1208.5" y1="1" x2="1208.5" y2="117" stroke="black"/>
<line x1="1200.5" y1="1" x2="1200.5" y2="117" stroke="black"/>
<path d="M1358 42.6542V25.1613C1358 23.237 1357.21 21.3922 1355.8 20.0316C1354.39 18.6709 1352.49 17.9055 1350.5 17.9032H1339.72C1339.42 17.0566 1338.84 16.3229 1338.09 15.8031C1337.33 15.2833 1336.43 15.0028 1335.5 15H1311.5C1310.57 15.0028 1309.67 15.2833 1308.91 15.8031C1308.16 16.3229 1307.58 17.0566 1307.28 17.9032H1296.5C1294.51 17.9055 1292.61 18.6709 1291.2 20.0316C1289.79 21.3922 1289 23.237 1289 25.1613V97.7419C1289 99.6662 1289.79 101.511 1291.2 102.872C1292.61 104.232 1294.51 104.998 1296.5 105H1350.5C1352.49 104.998 1354.39 104.232 1355.8 102.872C1357.21 101.511 1358 99.6662 1358 97.7419V96.1592C1360.09 95.8152 1362 94.7655 1363.37 93.1957C1364.74 91.6258 1365.5 89.637 1365.5 87.5806V78.871C1365.5 78.6803 1365.46 78.4915 1365.39 78.3154C1365.31 78.1393 1365.2 77.9792 1365.06 77.8444C1364.92 77.7096 1364.76 77.6027 1364.57 77.5298C1364.39 77.4568 1364.2 77.4193 1364 77.4194H1358V74.4426C1362.1 74.0824 1365.91 72.252 1368.69 69.3111C1371.46 66.3702 1373 62.5313 1373 58.5484C1373 54.5655 1371.46 50.7266 1368.69 47.7857C1365.91 44.8447 1362.1 43.0144 1358 42.6542ZM1355 25.1613V42.6542C1353.46 42.7912 1351.94 43.1398 1350.5 43.6897V25.1613C1350.5 24.9706 1350.46 24.7819 1350.39 24.6057C1350.31 24.4296 1350.2 24.2695 1350.06 24.1347C1349.92 23.9999 1349.76 23.893 1349.57 23.8201C1349.39 23.7471 1349.2 23.7096 1349 23.7097H1340V20.8065H1350.5C1351.69 20.8077 1352.84 21.2669 1353.68 22.0833C1354.52 22.8998 1355 24.0067 1355 25.1613ZM1313 77.4194C1312.8 77.4193 1312.61 77.4568 1312.43 77.5298C1312.24 77.6027 1312.08 77.7096 1311.94 77.8444C1311.8 77.9792 1311.69 78.1393 1311.61 78.3154C1311.54 78.4915 1311.5 78.6803 1311.5 78.871V87.5806C1311.5 89.1206 1310.87 90.5975 1309.74 91.6864C1308.62 92.7753 1307.09 93.3871 1305.5 93.3871C1303.91 93.3871 1302.38 92.7753 1301.26 91.6864C1300.13 90.5975 1299.5 89.1206 1299.5 87.5806V26.6129H1307V28.0645C1307 29.2191 1307.48 30.326 1308.32 31.1425C1309.16 31.9589 1310.31 32.4181 1311.5 32.4194H1335.5C1336.69 32.4181 1337.84 31.9589 1338.68 31.1425C1339.52 30.326 1340 29.2191 1340 28.0645V26.6129H1347.5V45.1825C1345.2 46.629 1343.31 48.6094 1342 50.9437C1340.69 53.278 1340 55.8921 1340 58.5484C1340 61.2046 1340.69 63.8188 1342 66.1531C1343.31 68.4874 1345.2 70.4678 1347.5 71.9142V77.4194H1313ZM1311.5 17.9032H1335.5C1335.9 17.9036 1336.28 18.0567 1336.56 18.3288C1336.84 18.601 1337 18.97 1337 19.3548V28.0645C1337 28.4494 1336.84 28.8184 1336.56 29.0905C1336.28 29.3627 1335.9 29.5157 1335.5 29.5161H1311.5C1311.1 29.5157 1310.72 29.3627 1310.44 29.0905C1310.16 28.8184 1310 28.4494 1310 28.0645V19.3548C1310 18.97 1310.16 18.601 1310.44 18.3288C1310.72 18.0567 1311.1 17.9036 1311.5 17.9032ZM1350.5 102.097H1296.5C1295.31 102.096 1294.16 101.636 1293.32 100.82C1292.48 100.003 1292 98.8965 1292 97.7419V25.1613C1292 24.0067 1292.48 22.8998 1293.32 22.0833C1294.16 21.2669 1295.31 20.8077 1296.5 20.8065H1307V23.7097H1298C1297.8 23.7096 1297.61 23.7471 1297.43 23.8201C1297.24 23.893 1297.08 23.9999 1296.94 24.1347C1296.8 24.2695 1296.69 24.4296 1296.61 24.6057C1296.54 24.7819 1296.5 24.9706 1296.5 25.1613V87.5806C1296.5 89.8898 1297.45 92.1037 1299.14 93.7365C1300.83 95.3694 1303.11 96.2878 1305.5 96.2903H1355V97.7419C1355 98.8965 1354.52 100.003 1353.68 100.82C1352.84 101.636 1351.69 102.096 1350.5 102.097ZM1362.5 87.5806C1362.5 89.1201 1361.87 90.5961 1360.74 91.6846C1359.62 92.7732 1358.09 93.3855 1356.5 93.3871H1312.2C1313.68 91.7924 1314.5 89.7242 1314.5 87.5806V80.3226H1362.5V87.5806ZM1350.5 77.4194V73.4071C1351.94 73.9569 1353.46 74.3056 1355 74.4426V77.4194H1350.5ZM1356.5 71.6129C1353.83 71.6129 1351.22 70.8467 1349 69.4111C1346.78 67.9756 1345.05 65.9352 1344.03 63.548C1343.01 61.1607 1342.74 58.5339 1343.26 55.9996C1343.78 53.4654 1345.07 51.1375 1346.95 49.3104C1348.84 47.4833 1351.25 46.239 1353.87 45.7349C1356.49 45.2308 1359.2 45.4895 1361.67 46.4783C1364.13 47.4672 1366.24 49.1417 1367.72 51.2901C1369.21 53.4386 1370 55.9645 1370 58.5484C1370 62.0121 1368.57 65.3329 1366.04 67.7821C1363.51 70.2313 1360.08 71.609 1356.5 71.6129Z" fill="black"/>
<path d="M1374.5 22.2581C1372.42 22.2581 1370.39 22.854 1368.67 23.9705C1366.94 25.0871 1365.59 26.6741 1364.8 28.5308C1364 30.3875 1363.8 32.4306 1364.2 34.4017C1364.61 36.3728 1365.61 38.1834 1367.08 39.6045C1368.54 41.0255 1370.41 41.9933 1372.45 42.3854C1374.49 42.7775 1376.6 42.5762 1378.52 41.8072C1380.44 41.0381 1382.08 39.7357 1383.23 38.0647C1384.38 36.3936 1385 34.4291 1385 32.4193C1385 29.7254 1383.89 27.1426 1381.92 25.2377C1379.95 23.3328 1377.28 22.2612 1374.5 22.2581ZM1374.5 39.6774C1373.02 39.6774 1371.57 39.2517 1370.33 38.4542C1369.1 37.6567 1368.14 36.5231 1367.57 35.1969C1367 33.8707 1366.85 32.4113 1367.14 31.0034C1367.43 29.5954 1368.15 28.3022 1369.2 27.2871C1370.25 26.2721 1371.58 25.5808 1373.04 25.3007C1374.49 25.0207 1376 25.1644 1377.37 25.7138C1378.74 26.2631 1379.91 27.1934 1380.74 28.387C1381.56 29.5806 1382 30.9838 1382 32.4193C1382 34.3436 1381.21 36.1884 1379.8 37.5491C1378.39 38.9097 1376.49 39.6752 1374.5 39.6774Z" fill="black"/>
<path d="M1356.5 54.1935H1359.5C1359.9 54.1935 1360.28 54.0405 1360.56 53.7683C1360.84 53.4961 1361 53.1268 1361 52.7418C1361 52.3569 1360.84 51.9876 1360.56 51.7154C1360.28 51.4432 1359.9 51.2902 1359.5 51.2902H1358C1358 50.9052 1357.84 50.536 1357.56 50.2638C1357.28 49.9916 1356.9 49.8386 1356.5 49.8386C1356.1 49.8386 1355.72 49.9916 1355.44 50.2638C1355.16 50.536 1355 50.9052 1355 51.2902V51.5577C1354 51.8981 1353.16 52.5704 1352.62 53.4553C1352.08 54.3401 1351.89 55.3805 1352.06 56.392C1352.24 57.4035 1352.79 58.3207 1353.6 58.9811C1354.41 59.6415 1355.44 60.0025 1356.5 59.9999C1356.9 59.9999 1357.28 60.1528 1357.56 60.4251C1357.84 60.6973 1358 61.0665 1358 61.4515C1358 61.8365 1357.84 62.2057 1357.56 62.478C1357.28 62.7502 1356.9 62.9031 1356.5 62.9031H1353.5C1353.1 62.9031 1352.72 63.0561 1352.44 63.3283C1352.16 63.6005 1352 63.9698 1352 64.3548C1352 64.7397 1352.16 65.109 1352.44 65.3812C1352.72 65.6534 1353.1 65.8064 1353.5 65.8064H1355C1355 66.1914 1355.16 66.5606 1355.44 66.8328C1355.72 67.105 1356.1 67.258 1356.5 67.258C1356.9 67.258 1357.28 67.105 1357.56 66.8328C1357.84 66.5606 1358 66.1914 1358 65.8064V65.5389C1359 65.1985 1359.84 64.5262 1360.38 63.6413C1360.92 62.7565 1361.11 61.7161 1360.94 60.7046C1360.76 59.6931 1360.21 58.7759 1359.4 58.1155C1358.59 57.4551 1357.56 57.0941 1356.5 57.0967C1356.1 57.0967 1355.72 56.9438 1355.44 56.6715C1355.16 56.3993 1355 56.0301 1355 55.6451C1355 55.2601 1355.16 54.8909 1355.44 54.6186C1355.72 54.3464 1356.1 54.1935 1356.5 54.1935Z" fill="black"/>
<path d="M1374.5 28.0645C1374.3 28.0644 1374.11 28.1019 1373.93 28.1748C1373.74 28.2478 1373.58 28.3547 1373.44 28.4895C1373.3 28.6243 1373.19 28.7844 1373.11 28.9605C1373.04 29.1366 1373 29.3254 1373 29.5161V35.3225C1373 35.7075 1373.16 36.0767 1373.44 36.349C1373.72 36.6212 1374.1 36.7741 1374.5 36.7741C1374.9 36.7741 1375.28 36.6212 1375.56 36.349C1375.84 36.0767 1376 35.7075 1376 35.3225V29.5161C1376 29.3254 1375.96 29.1366 1375.89 28.9605C1375.81 28.7844 1375.7 28.6243 1375.56 28.4895C1375.42 28.3547 1375.26 28.2478 1375.07 28.1748C1374.89 28.1019 1374.7 28.0644 1374.5 28.0645Z" fill="black"/>
<path d="M1305.5 45.4838H1341.5C1341.7 45.4839 1341.89 45.4463 1342.07 45.3734C1342.26 45.3005 1342.42 45.1936 1342.56 45.0587C1342.7 44.9239 1342.81 44.7639 1342.89 44.5878C1342.96 44.4116 1343 44.2228 1343 44.0322V36.7741C1343 36.5835 1342.96 36.3947 1342.89 36.2186C1342.81 36.0424 1342.7 35.8824 1342.56 35.7476C1342.42 35.6128 1342.26 35.5058 1342.07 35.4329C1341.89 35.36 1341.7 35.3225 1341.5 35.3225H1305.5C1305.3 35.3225 1305.11 35.36 1304.93 35.4329C1304.74 35.5058 1304.58 35.6128 1304.44 35.7476C1304.3 35.8824 1304.19 36.0424 1304.11 36.2186C1304.04 36.3947 1304 36.5835 1304 36.7741V44.0322C1304 44.2228 1304.04 44.4116 1304.11 44.5878C1304.19 44.7639 1304.3 44.9239 1304.44 45.0587C1304.58 45.1936 1304.74 45.3005 1304.93 45.3734C1305.11 45.4463 1305.3 45.4839 1305.5 45.4838ZM1307 38.2257H1340V42.5806H1307V38.2257Z" fill="black"/>
<path d="M1305.5 51.2904H1310C1310.4 51.2904 1310.78 51.1375 1311.06 50.8653C1311.34 50.593 1311.5 50.2238 1311.5 49.8388C1311.5 49.4538 1311.34 49.0846 1311.06 48.8124C1310.78 48.5401 1310.4 48.3872 1310 48.3872H1305.5C1305.1 48.3872 1304.72 48.5401 1304.44 48.8124C1304.16 49.0846 1304 49.4538 1304 49.8388C1304 50.2238 1304.16 50.593 1304.44 50.8653C1304.72 51.1375 1305.1 51.2904 1305.5 51.2904Z" fill="black"/>
<path d="M1337 48.3872H1316C1315.6 48.3872 1315.22 48.5401 1314.94 48.8124C1314.66 49.0846 1314.5 49.4538 1314.5 49.8388C1314.5 50.2238 1314.66 50.593 1314.94 50.8653C1315.22 51.1375 1315.6 51.2904 1316 51.2904H1337C1337.4 51.2904 1337.78 51.1375 1338.06 50.8653C1338.34 50.593 1338.5 50.2238 1338.5 49.8388C1338.5 49.4538 1338.34 49.0846 1338.06 48.8124C1337.78 48.5401 1337.4 48.3872 1337 48.3872Z" fill="black"/>
<path d="M1305.5 58.5485H1310C1310.4 58.5485 1310.78 58.3956 1311.06 58.1233C1311.34 57.8511 1311.5 57.4819 1311.5 57.0969C1311.5 56.7119 1311.34 56.3427 1311.06 56.0704C1310.78 55.7982 1310.4 55.6453 1310 55.6453H1305.5C1305.1 55.6453 1304.72 55.7982 1304.44 56.0704C1304.16 56.3427 1304 56.7119 1304 57.0969C1304 57.4819 1304.16 57.8511 1304.44 58.1233C1304.72 58.3956 1305.1 58.5485 1305.5 58.5485Z" fill="black"/>
<path d="M1337 55.6453H1316C1315.6 55.6453 1315.22 55.7982 1314.94 56.0704C1314.66 56.3427 1314.5 56.7119 1314.5 57.0969C1314.5 57.4819 1314.66 57.8511 1314.94 58.1233C1315.22 58.3956 1315.6 58.5485 1316 58.5485H1337C1337.4 58.5485 1337.78 58.3956 1338.06 58.1233C1338.34 57.8511 1338.5 57.4819 1338.5 57.0969C1338.5 56.7119 1338.34 56.3427 1338.06 56.0704C1337.78 55.7982 1337.4 55.6453 1337 55.6453Z" fill="black"/>
<path d="M1305.5 65.8065H1310C1310.4 65.8065 1310.78 65.6536 1311.06 65.3814C1311.34 65.1091 1311.5 64.7399 1311.5 64.3549C1311.5 63.9699 1311.34 63.6007 1311.06 63.3285C1310.78 63.0563 1310.4 62.9033 1310 62.9033H1305.5C1305.1 62.9033 1304.72 63.0563 1304.44 63.3285C1304.16 63.6007 1304 63.9699 1304 64.3549C1304 64.7399 1304.16 65.1091 1304.44 65.3814C1304.72 65.6536 1305.1 65.8065 1305.5 65.8065Z" fill="black"/>
<path d="M1337 62.9033H1316C1315.6 62.9033 1315.22 63.0563 1314.94 63.3285C1314.66 63.6007 1314.5 63.9699 1314.5 64.3549C1314.5 64.7399 1314.66 65.1091 1314.94 65.3814C1315.22 65.6536 1315.6 65.8065 1316 65.8065H1337C1337.4 65.8065 1337.78 65.6536 1338.06 65.3814C1338.34 65.1091 1338.5 64.7399 1338.5 64.3549C1338.5 63.9699 1338.34 63.6007 1338.06 63.3285C1337.78 63.0563 1337.4 62.9033 1337 62.9033Z" fill="black"/>
<path d="M1326.5 70.1614H1305.5C1305.1 70.1614 1304.72 70.3143 1304.44 70.5865C1304.16 70.8588 1304 71.228 1304 71.613C1304 71.998 1304.16 72.3672 1304.44 72.6394C1304.72 72.9117 1305.1 73.0646 1305.5 73.0646H1326.5C1326.9 73.0646 1327.28 72.9117 1327.56 72.6394C1327.84 72.3672 1328 71.998 1328 71.613C1328 71.228 1327.84 70.8588 1327.56 70.5865C1327.28 70.3143 1326.9 70.1614 1326.5 70.1614Z" fill="black"/>
</svg>
