<svg width="21" height="28" viewBox="0 0 21 28" fill="none" xmlns="http://www.w3.org/2000/svg">
<path fill-rule="evenodd" clip-rule="evenodd" d="M20.566 20.594L20.8847 22.19C21.1867 23.5698 20.8885 25.0198 20.0715 26.1438C19.2545 27.2678 18.0041 27.9485 16.6618 28H4.33824C2.9959 27.9485 1.74548 27.2678 0.928486 26.1438C0.111494 25.0198 -0.186713 23.5698 0.115311 22.19L0.434022 20.594C0.800587 18.4335 2.56225 16.8458 4.64367 16.8H16.3563C18.4378 16.8458 20.1994 18.4335 20.566 20.594ZM16.6618 25.886C17.3361 25.8778 17.9707 25.5484 18.3881 24.99V25.004C18.9003 24.3267 19.0998 23.4441 18.9326 22.596L18.6139 21C18.437 19.8173 17.4913 18.9316 16.3563 18.886H4.64368C3.50875 18.9316 2.56297 19.8173 2.38614 21L2.06742 22.596C1.90429 23.4396 2.10363 24.3161 2.61189 24.99C3.02931 25.5484 3.66392 25.8778 4.33824 25.886H16.6618Z" fill="black"/>
<path fill-rule="evenodd" clip-rule="evenodd" d="M11.164 14H9.836C6.90234 14 4.52414 11.4928 4.52414 8.40001V4.70401C4.52059 3.4553 4.98956 2.25665 5.82711 1.37367C6.66465 0.490687 7.80163 -0.00371212 8.9861 2.09883e-05H12.0139C13.1983 -0.00371212 14.3353 0.490687 15.1729 1.37367C16.0104 2.25665 16.4794 3.4553 16.4758 4.70401V8.40001C16.4758 11.4928 14.0976 14 11.164 14ZM8.9861 2.10002C7.62195 2.10002 6.51608 3.26587 6.51608 4.70401V8.40001C6.51608 10.333 8.00246 11.9 9.836 11.9H11.164C12.9975 11.9 14.4839 10.333 14.4839 8.40001V4.70401C14.4839 4.01339 14.2236 3.35105 13.7604 2.86271C13.2972 2.37437 12.6689 2.10002 12.0139 2.10002H8.9861Z" fill="black"/>
</svg>
