<svg width="232" height="179" viewBox="0 0 232 179" fill="none" xmlns="http://www.w3.org/2000/svg">
<g id="chat">
<path id="Vector" d="M83.7487 134.576L82.7258 134.376L81.8598 134.965C68.4513 144.075 53.4398 148.867 41.7119 151.374C36.9863 152.384 32.8139 153.019 29.5229 153.417C46.3561 138.616 49.5596 128.44 49.9999 123.681L50.1435 122.129L48.8153 121.326C32.8224 111.651 23.3283 98.5603 23.0807 84.369C22.8239 69.6435 32.5107 55.6532 49.2248 45.0406C65.8904 34.4588 89.1691 27.5198 115.026 26.889C140.884 26.2581 164.385 32.0559 181.405 41.816C198.475 51.6043 208.642 65.1103 208.899 79.8358C209.155 94.5614 199.469 108.552 182.755 119.164C166.089 129.746 142.81 136.685 116.953 137.316C105.304 137.6 94.1077 136.594 83.7487 134.576Z" fill="white" stroke="black" stroke-width="5"/>
</g>
</svg>