<svg width="220" height="49" viewBox="0 0 220 49" fill="none" xmlns="http://www.w3.org/2000/svg">
<path d="M0.5 13.5C0.5 6.3203 6.3203 0.5 13.5 0.5L206.5 0.5C213.68 0.5 219.5 6.3203 219.5 13.5L219.5 35.5C219.5 42.6797 213.68 48.5 206.5 48.5L13.5 48.5C6.3203 48.5 0.5 42.6797 0.5 35.5L0.5 13.5Z" fill="#D764D7" stroke="black"/>
<path d="M65.6513 33.5527C66.0875 33.5527 66.4651 33.5039 66.7841 33.4063C66.8818 33.3086 66.9502 33.1947 66.9892 33.0645C67.0283 32.9408 67.0478 32.8236 67.0478 32.7129C67.0478 32.5957 67.038 32.5078 67.0185 32.4492C66.999 32.3971 66.9664 32.3483 66.9209 32.3027C66.6474 32.2572 66.3252 32.2246 65.9541 32.2051C65.5895 32.1921 65.3714 32.1823 65.2998 32.1758C64.3948 32.1367 63.6591 32.0716 63.0927 31.9805C62.5263 31.8828 62.0413 31.6745 61.6377 31.3555C61.234 31.0299 61.0322 30.5417 61.0322 29.8906C61.0322 29.5391 61.1461 29.2103 61.374 28.9043C61.6018 28.5918 61.8981 28.3184 62.2627 28.084C61.5205 27.778 60.9248 27.319 60.4755 26.707C60.0328 26.0885 59.8115 25.291 59.8115 24.3145C59.8115 23.3444 60.0589 22.5664 60.5537 21.9805C61.055 21.388 61.6702 20.9714 62.3994 20.7305C63.1285 20.4896 63.8707 20.3691 64.6259 20.3691C65.1012 20.3691 65.5667 20.4147 66.0224 20.5059C66.4782 20.597 66.9013 20.7272 67.292 20.8965L66.872 18.416C67.2692 18.1751 67.764 18.0547 68.3564 18.0547C68.7861 18.0547 69.1865 18.1263 69.5576 18.2695C69.9287 18.4128 70.2119 18.6178 70.4072 18.8848C70.4202 18.9499 70.4267 19.054 70.4267 19.1973C70.4267 19.7311 70.3291 20.3268 70.1338 20.9844C69.9449 21.6354 69.6162 22.1595 69.1474 22.5566C69.3818 23.0254 69.499 23.5299 69.499 24.0703C69.499 24.8646 69.346 25.597 69.04 26.2676C68.7405 26.9382 68.2392 27.485 67.5361 27.9082C66.833 28.3249 65.9183 28.5332 64.792 28.5332C64.4664 28.5332 64.1279 28.5137 63.7763 28.4746C63.7568 28.8001 63.8349 29.1257 64.0107 29.4512C64.8896 29.2819 65.5992 29.194 66.1396 29.1875L66.8037 29.1777C67.7021 29.1777 68.3824 29.2331 68.8447 29.3438C69.3525 29.4674 69.7301 29.7474 69.9775 30.1836C70.2314 30.6198 70.3584 31.1504 70.3584 31.7754C70.3584 32.752 70.0589 33.5723 69.4599 34.2363C68.8675 34.9069 68.096 35.4049 67.1455 35.7305C66.2015 36.056 65.1989 36.2188 64.1377 36.2188C63.1546 36.2188 62.2789 36.0527 61.5107 35.7207C60.7425 35.3887 60.2574 34.7799 60.0556 33.8945C60.2705 33.1458 60.6806 32.5794 61.2861 32.1953C62.0999 32.6836 62.8779 33.0319 63.6201 33.2402C64.3688 33.4486 65.0459 33.5527 65.6513 33.5527ZM65.0556 26.1211C65.5244 26.1211 65.7978 26.0918 65.8759 26.0332C66.0517 25.6816 66.1396 25.3203 66.1396 24.9492C66.1396 24.5651 66.0517 24.2038 65.8759 23.8652C65.7913 23.7936 65.6025 23.7383 65.3095 23.6992C65.0231 23.6602 64.7106 23.6406 64.372 23.6406C63.9489 23.6406 63.6657 23.6667 63.5224 23.7188C63.3206 24.0768 63.2197 24.4382 63.2197 24.8027C63.2197 25.1738 63.3141 25.5254 63.5029 25.8574C63.6461 25.9486 63.861 26.0169 64.1474 26.0625C64.4404 26.1016 64.7431 26.1211 65.0556 26.1211ZM70.8488 26.3262C70.8488 25.1999 71.0376 24.194 71.4152 23.3086C71.7928 22.4232 72.3755 21.7233 73.1632 21.209C73.9575 20.6882 74.9471 20.4277 76.132 20.4277C76.7505 20.4277 77.369 20.5026 77.9875 20.6523C78.606 20.7956 79.13 21.0365 79.5597 21.375C79.9569 21.694 80.2433 22.1172 80.4191 22.6445C80.6014 23.1654 80.6925 23.7448 80.6925 24.3828C80.6925 24.806 80.6567 25.2389 80.5851 25.6816C80.507 25.8118 80.354 25.9844 80.1261 26.1992C79.8983 26.4076 79.6313 26.6126 79.3254 26.8145C79.0194 27.0163 78.7231 27.1725 78.4367 27.2832C78.1632 27.3027 77.88 27.3125 77.5871 27.3125C77.0728 27.3125 76.5519 27.2897 76.0246 27.2441C75.4972 27.1986 75.035 27.1465 74.6379 27.0879C74.6899 27.6413 74.8592 28.123 75.1457 28.5332C75.4321 28.9434 75.8879 29.1484 76.5129 29.1484C76.5715 29.1484 76.6659 29.1419 76.7961 29.1289C77.1932 29.0898 77.6554 28.9857 78.1828 28.8164C78.7166 28.6406 79.2472 28.4388 79.7746 28.2109C80.022 28.4583 80.2043 28.7057 80.3215 28.9531C80.4386 29.2005 80.52 29.5553 80.5656 30.0176C80.3638 30.252 80.035 30.5384 79.5793 30.877C79.13 31.2155 78.5799 31.5215 77.9289 31.7949C77.2778 32.0618 76.5975 32.1953 75.8879 32.1953C74.8202 32.1953 73.9054 31.9382 73.1437 31.4238C72.3885 30.903 71.8156 30.1999 71.425 29.3145C71.0409 28.4225 70.8488 27.4264 70.8488 26.3262ZM77.1379 24.0801C77.0467 23.9824 76.8937 23.9076 76.6789 23.8555C76.464 23.7969 76.2394 23.7676 76.005 23.7676C75.8162 23.7676 75.6242 23.7839 75.4289 23.8164C75.2401 23.849 75.1261 23.8848 75.0871 23.9238C74.8657 24.36 74.7257 24.8548 74.6672 25.4082L77.2746 25.1543L77.1379 24.0801ZM82.3744 26.6094C82.3744 25.5482 82.3907 24.5814 82.4232 23.709L81.3588 23.5234C81.2741 23.1979 81.2155 22.9115 81.183 22.6641C81.1504 22.4167 81.1342 22.153 81.1342 21.873L81.1537 21.6777C81.1732 21.5866 81.183 21.5117 81.183 21.4531L82.599 21.1406C82.6316 20.737 82.7064 20.2813 82.8236 19.7734C82.9408 19.2656 83.0645 18.8913 83.1947 18.6504C83.403 18.4941 83.6537 18.377 83.9467 18.2988C84.2396 18.2207 84.5554 18.1816 84.8939 18.1816C85.1804 18.1816 85.4571 18.2109 85.724 18.2695C85.9974 18.3216 86.2351 18.3932 86.4369 18.4844C86.4564 18.7057 86.4662 18.9596 86.4662 19.2461C86.4662 19.7148 86.4434 20.2454 86.3978 20.8379L88.1166 20.5254C88.3575 20.9421 88.4779 21.3945 88.4779 21.8828C88.4779 22.2214 88.4356 22.5273 88.351 22.8008C88.2728 23.0742 88.1622 23.3835 88.0189 23.7285C87.5892 23.8001 87 23.8457 86.2513 23.8652C86.1602 24.9264 85.9584 26.4857 85.6459 28.543L85.597 28.875L85.6166 28.8945L87.9115 28.1816C88.3868 28.5788 88.6765 29.1908 88.7806 30.0176C88.7806 30.0632 88.5691 30.278 88.1459 30.6621C87.7292 31.0397 87.2051 31.3913 86.5736 31.7168C85.9421 32.0358 85.2552 32.1953 84.5131 32.1953C83.2175 32.1953 82.5274 31.4043 82.4427 29.8223C82.3972 29.0215 82.3744 27.9505 82.3744 26.6094ZM93.9803 28.5527C94.5532 28.7806 95.0122 28.9564 95.3572 29.0801C95.7023 29.2038 96.0799 29.3112 96.49 29.4023C96.9067 29.4935 97.3201 29.5391 97.7303 29.5391C97.9126 29.5391 98.0428 29.5228 98.1209 29.4902C98.1404 29.4642 98.1567 29.4251 98.1697 29.373C98.1893 29.3145 98.199 29.2559 98.199 29.1973C98.199 29.0671 98.1242 28.9596 97.9744 28.875C97.74 28.7448 97.3234 28.5397 96.7244 28.2598C95.9041 27.8691 95.2531 27.5208 94.7713 27.2148C94.296 26.9089 93.8924 26.502 93.5603 25.9941C93.2348 25.4863 93.0721 24.8483 93.0721 24.0801C93.0721 22.9798 93.4008 22.0977 94.0584 21.4336C94.7159 20.763 95.7576 20.4277 97.1834 20.4277C98.8826 20.4277 100.204 20.6491 101.148 21.0918C101.194 21.2806 101.217 21.5182 101.217 21.8047C101.217 22.3516 101.132 22.9115 100.963 23.4844C100.793 24.0508 100.572 24.4707 100.299 24.7441C99.9275 24.6204 99.4034 24.4219 98.7264 24.1484C98.2316 23.9531 97.8377 23.8034 97.5447 23.6992C97.2583 23.5885 96.9946 23.5104 96.7537 23.4648C96.6235 23.4974 96.5193 23.5755 96.4412 23.6992C96.3631 23.8164 96.324 23.9564 96.324 24.1191C96.324 24.2624 96.3663 24.3828 96.451 24.4805C96.5356 24.5781 96.63 24.6563 96.7342 24.7148C96.8449 24.7669 97.0011 24.8385 97.2029 24.9297C97.3071 24.9753 97.4047 25.0176 97.4959 25.0566C97.587 25.0892 97.6717 25.1217 97.7498 25.1543C98.2576 25.3691 98.658 25.5449 98.951 25.6816C99.2439 25.8184 99.5271 25.9811 99.8006 26.1699C100.302 26.515 100.696 26.9089 100.982 27.3516C101.269 27.7943 101.412 28.2793 101.412 28.8066C101.412 29.5358 101.204 30.1673 100.787 30.7012C100.377 31.2285 99.8494 31.6126 99.2049 31.8535C98.8663 31.9772 98.4952 32.0651 98.0916 32.1172C97.6945 32.1758 97.229 32.2051 96.6951 32.2051C96.0636 32.2051 95.4126 32.0846 94.742 31.8438C94.0779 31.5964 93.5701 31.1862 93.2186 30.6133C93.2251 30.2161 93.2771 29.8711 93.3748 29.5781C93.479 29.2786 93.6808 28.9368 93.9803 28.5527ZM102.889 26.6094C102.889 25.5482 102.905 24.5814 102.937 23.709L101.873 23.5234C101.788 23.1979 101.73 22.9115 101.697 22.6641C101.665 22.4167 101.648 22.153 101.648 21.873L101.668 21.6777C101.687 21.5866 101.697 21.5117 101.697 21.4531L103.113 21.1406C103.146 20.737 103.221 20.2813 103.338 19.7734C103.455 19.2656 103.579 18.8913 103.709 18.6504C103.917 18.4941 104.168 18.377 104.461 18.2988C104.754 18.2207 105.07 18.1816 105.408 18.1816C105.695 18.1816 105.971 18.2109 106.238 18.2695C106.512 18.3216 106.749 18.3932 106.951 18.4844C106.971 18.7057 106.98 18.9596 106.98 19.2461C106.98 19.7148 106.958 20.2454 106.912 20.8379L108.631 20.5254C108.872 20.9421 108.992 21.3945 108.992 21.8828C108.992 22.2214 108.95 22.5273 108.865 22.8008C108.787 23.0742 108.676 23.3835 108.533 23.7285C108.104 23.8001 107.514 23.8457 106.766 23.8652C106.674 24.9264 106.473 26.4857 106.16 28.543L106.111 28.875L106.131 28.8945L108.426 28.1816C108.901 28.5788 109.191 29.1908 109.295 30.0176C109.295 30.0632 109.083 30.278 108.66 30.6621C108.243 31.0397 107.719 31.3913 107.088 31.7168C106.456 32.0358 105.77 32.1953 105.027 32.1953C103.732 32.1953 103.042 31.4043 102.957 29.8223C102.911 29.0215 102.889 27.9505 102.889 26.6094ZM112.696 25.5645C113.08 25.5645 113.503 25.6035 113.965 25.6816C114.434 25.7598 114.863 25.8542 115.254 25.9648L115.254 25.6621C115.254 25.4603 115.248 25.2357 115.235 24.9883C115.228 24.7409 115.215 24.5781 115.196 24.5C115.137 24.3893 114.968 24.2754 114.688 24.1582C114.414 24.041 113.965 23.9824 113.34 23.9824C112.956 23.9824 112.559 24.0313 112.149 24.1289C111.745 24.2201 111.296 24.3438 110.801 24.5C110.534 24.0573 110.319 23.6374 110.156 23.2402C110 22.8366 109.922 22.4329 109.922 22.0293C109.922 21.9056 109.932 21.7819 109.951 21.6582C111.006 20.8379 112.37 20.4277 114.043 20.4277C114.968 20.4277 115.788 20.5319 116.504 20.7402C117.22 20.9486 117.809 21.3522 118.272 21.9512C118.734 22.5501 118.965 23.3997 118.965 24.5C118.965 25.5742 118.838 26.6159 118.584 27.625C118.337 28.6276 118.21 29.1387 118.203 29.1582L119.619 28.5527C119.808 28.7546 119.974 29.002 120.117 29.2949C120.267 29.5814 120.362 29.9134 120.401 30.291C120.309 30.4863 120.111 30.737 119.805 31.043C119.499 31.3424 119.125 31.6094 118.682 31.8438C118.239 32.0781 117.777 32.1953 117.295 32.1953C116.755 32.1953 116.345 32.0358 116.065 31.7168C115.791 31.3978 115.655 30.9844 115.655 30.4766C115.655 30.1901 115.697 29.9004 115.781 29.6074L115.488 29.5195C115.306 30.5482 114.919 31.2513 114.326 31.6289C113.734 32.0065 113.08 32.1953 112.363 32.1953C111.895 32.1953 111.442 32.0651 111.006 31.8047C110.57 31.5378 110.215 31.1536 109.942 30.6523C109.668 30.1445 109.531 29.5521 109.531 28.875C109.531 27.7943 109.802 26.974 110.342 26.4141C110.882 25.8477 111.667 25.5645 112.696 25.5645ZM113.809 29.2852C113.972 29.2526 114.164 29.1615 114.385 29.0117C114.613 28.862 114.815 28.6829 114.99 28.4746C115.166 28.2663 115.27 28.0677 115.303 27.8789L115.244 27.6445C114.899 27.599 114.531 27.5762 114.141 27.5762C113.809 27.5762 113.581 27.6022 113.457 27.6543C113.249 27.8887 113.145 28.1491 113.145 28.4355C113.145 28.6439 113.197 28.8327 113.301 29.002C113.412 29.1712 113.581 29.2656 113.809 29.2852ZM121.467 29.3828C121.467 29.1029 121.474 28.416 121.487 27.3223C121.506 25.1738 121.516 23.9987 121.516 23.7969L120.618 23.6504C120.494 23.2793 120.406 22.931 120.354 22.6055C120.302 22.2799 120.276 21.9512 120.276 21.6191C120.276 21.4824 120.279 21.3783 120.286 21.3066C120.396 21.209 120.569 21.0918 120.803 20.9551C121.038 20.8184 121.314 20.6979 121.633 20.5938C121.952 20.4831 122.278 20.4277 122.61 20.4277C123.385 20.4277 123.944 20.6003 124.289 20.9453C124.641 21.2904 124.817 21.7949 124.817 22.459C124.817 22.8626 124.765 23.3802 124.661 24.0117C124.563 24.6367 124.462 25.0827 124.358 25.3496L124.709 25.4082L125.295 23.2012C125.556 22.2051 125.881 21.4954 126.272 21.0723C126.663 20.6426 127.102 20.4277 127.59 20.4277C127.909 20.4277 128.225 20.4766 128.538 20.5742C128.857 20.6719 129.101 20.7923 129.27 20.9355C129.452 21.3392 129.543 21.8763 129.543 22.5469C129.543 23.0156 129.498 23.4811 129.407 23.9434C129.316 24.3991 129.198 24.7669 129.055 25.0469L127.004 24.7734C126.588 25.2161 126.145 25.8314 125.676 26.6191C125.207 27.4004 124.833 28.1198 124.553 28.7773L124.543 29.2852L126.438 28.8359C126.757 29.3242 126.942 29.9036 126.995 30.5742C126.995 30.6133 126.848 30.7728 126.555 31.0527C126.262 31.3327 125.875 31.5931 125.393 31.834C124.918 32.0684 124.371 32.1855 123.752 32.1855C123.114 32.1855 122.58 32.0163 122.151 31.6777C121.728 31.3327 121.503 30.7533 121.477 29.9395C121.47 29.8418 121.467 29.6563 121.467 29.3828ZM130.649 26.6094C130.649 25.5482 130.665 24.5814 130.698 23.709L129.633 23.5234C129.549 23.1979 129.49 22.9115 129.458 22.6641C129.425 22.4167 129.409 22.153 129.409 21.873L129.428 21.6777C129.448 21.5866 129.458 21.5117 129.458 21.4531L130.874 21.1406C130.906 20.737 130.981 20.2813 131.098 19.7734C131.215 19.2656 131.339 18.8913 131.469 18.6504C131.678 18.4941 131.928 18.377 132.221 18.2988C132.514 18.2207 132.83 18.1816 133.169 18.1816C133.455 18.1816 133.732 18.2109 133.999 18.2695C134.272 18.3216 134.51 18.3932 134.712 18.4844C134.731 18.7057 134.741 18.9596 134.741 19.2461C134.741 19.7148 134.718 20.2454 134.672 20.8379L136.391 20.5254C136.632 20.9421 136.753 21.3945 136.753 21.8828C136.753 22.2214 136.71 22.5273 136.626 22.8008C136.547 23.0742 136.437 23.3835 136.294 23.7285C135.864 23.8001 135.275 23.8457 134.526 23.8652C134.435 24.9264 134.233 26.4857 133.921 28.543L133.872 28.875L133.891 28.8945L136.186 28.1816C136.661 28.5788 136.951 29.1908 137.055 30.0176C137.055 30.0632 136.844 30.278 136.421 30.6621C136.004 31.0397 135.48 31.3913 134.848 31.7168C134.217 32.0358 133.53 32.1953 132.788 32.1953C131.492 32.1953 130.802 31.4043 130.717 29.8223C130.672 29.0215 130.649 27.9505 130.649 26.6094ZM137.311 26.3262C137.311 25.1999 137.5 24.194 137.878 23.3086C138.255 22.4232 138.838 21.7233 139.626 21.209C140.42 20.6882 141.41 20.4277 142.595 20.4277C143.213 20.4277 143.832 20.5026 144.45 20.6523C145.069 20.7956 145.593 21.0365 146.022 21.375C146.419 21.694 146.706 22.1172 146.882 22.6445C147.064 23.1654 147.155 23.7448 147.155 24.3828C147.155 24.806 147.119 25.2389 147.048 25.6816C146.97 25.8118 146.817 25.9844 146.589 26.1992C146.361 26.4076 146.094 26.6126 145.788 26.8145C145.482 27.0163 145.186 27.1725 144.899 27.2832C144.626 27.3027 144.343 27.3125 144.05 27.3125C143.535 27.3125 143.014 27.2897 142.487 27.2441C141.96 27.1986 141.498 27.1465 141.1 27.0879C141.153 27.6413 141.322 28.123 141.608 28.5332C141.895 28.9434 142.35 29.1484 142.975 29.1484C143.034 29.1484 143.128 29.1419 143.259 29.1289C143.656 29.0898 144.118 28.9857 144.645 28.8164C145.179 28.6406 145.71 28.4388 146.237 28.2109C146.485 28.4583 146.667 28.7057 146.784 28.9531C146.901 29.2005 146.983 29.5553 147.028 30.0176C146.826 30.252 146.498 30.5384 146.042 30.877C145.593 31.2155 145.042 31.5215 144.391 31.7949C143.74 32.0618 143.06 32.1953 142.35 32.1953C141.283 32.1953 140.368 31.9382 139.606 31.4238C138.851 30.903 138.278 30.1999 137.888 29.3145C137.503 28.4225 137.311 27.4264 137.311 26.3262ZM143.6 24.0801C143.509 23.9824 143.356 23.9076 143.141 23.8555C142.927 23.7969 142.702 23.7676 142.468 23.7676C142.279 23.7676 142.087 23.7839 141.891 23.8164C141.703 23.849 141.589 23.8848 141.55 23.9238C141.328 24.36 141.188 24.8548 141.13 25.4082L143.737 25.1543L143.6 24.0801ZM148.085 26.3652C148.085 25.3757 148.222 24.4284 148.495 23.5234C148.775 22.6185 149.211 21.8763 149.804 21.2969C150.403 20.7174 151.155 20.4277 152.06 20.4277C153.075 20.4277 154.045 20.75 154.97 21.3945L155.126 21.2969C155.106 20.5352 155.012 19.8451 154.843 19.2266L152.86 19.0996C152.769 18.9824 152.698 18.8099 152.646 18.582C152.593 18.3477 152.567 18.1068 152.567 17.8594C152.567 17.5273 152.606 17.2409 152.685 17C153.075 16.7201 153.577 16.5085 154.189 16.3652C154.8 16.222 155.412 16.1504 156.024 16.1504C156.702 16.1504 157.213 16.2936 157.558 16.5801C157.903 16.86 158.134 17.2865 158.251 17.8594C158.375 18.4258 158.437 19.2135 158.437 20.2227C158.437 21.5508 158.381 23.0579 158.271 24.7441C158.16 26.4303 158.017 27.8073 157.841 28.875L157.802 29.041L158.935 28.5527C159.123 28.7546 159.289 29.002 159.433 29.2949C159.582 29.5814 159.677 29.9134 159.716 30.291C159.625 30.4863 159.426 30.737 159.12 31.043C158.814 31.3424 158.44 31.6094 157.997 31.8438C157.554 32.0781 157.092 32.1953 156.61 32.1953C156.07 32.1953 155.653 32.0358 155.36 31.7168C155.074 31.3913 154.931 30.9779 154.931 30.4766C154.931 30.3464 154.963 30.0794 155.028 29.6758C155.1 29.2721 155.159 28.9922 155.204 28.8359L154.911 28.748C154.579 29.9134 154.14 30.7793 153.593 31.3457C153.046 31.9121 152.369 32.1953 151.562 32.1953C150.696 32.1953 150.002 31.9089 149.481 31.3359C148.967 30.7565 148.606 30.0306 148.397 29.1582C148.189 28.2858 148.085 27.3548 148.085 26.3652ZM154.784 26.1895C154.823 25.9551 154.843 25.6816 154.843 25.3691C154.843 25.1673 154.833 24.9753 154.814 24.793C154.8 24.6107 154.784 24.4805 154.765 24.4023C154.504 24.2135 154.208 24.0801 153.876 24.002C153.55 23.9238 153.251 23.8848 152.978 23.8848C152.808 23.8848 152.626 23.901 152.431 23.9336C152.3 24.0638 152.196 24.347 152.118 24.7832C152.04 25.2129 152.001 25.6979 152.001 26.2383C152.001 26.8177 152.04 27.3809 152.118 27.9277C152.203 28.4681 152.32 28.8913 152.47 29.1973C152.574 29.1973 152.776 29.0378 153.075 28.7188C153.381 28.3932 153.697 27.9961 154.022 27.5273C154.348 27.0521 154.602 26.6061 154.784 26.1895Z" fill="white"/>
</svg>
