<svg width="29" height="27" viewBox="0 0 29 27" fill="none" xmlns="http://www.w3.org/2000/svg">
<path fill-rule="evenodd" clip-rule="evenodd" d="M14.5 24C21.0568 24 26 19.1007 26 13.5C26 7.89931 21.0568 3 14.5 3C7.94322 3 3 7.89931 3 13.5C3 19.1007 7.94322 24 14.5 24ZM14.5 27C22.5081 27 29 20.9558 29 13.5C29 6.04416 22.5081 0 14.5 0C6.49187 0 0 6.04416 0 13.5C0 20.9558 6.49187 27 14.5 27ZM11.4653 19.7279C11.0191 19.4169 10.9815 18.8659 11.3813 18.4971L16.3182 13.9446L11.3676 9.37954C10.9677 9.01069 11.0053 8.45952 11.4517 8.14845C11.8981 7.83739 12.5842 7.88423 12.9842 8.25307L18.43 13.2749C18.6187 13.4488 18.71 13.6633 18.707 13.8741C18.7567 14.1236 18.6707 14.3917 18.4437 14.6011L12.9974 19.6233C12.5976 19.992 11.9116 20.0388 11.4653 19.7279Z" fill="black"/>
</svg>
