<svg width="201" height="54" viewBox="0 0 201 54" fill="none" xmlns="http://www.w3.org/2000/svg">
<rect width="201" height="54" rx="27" fill="#D764D7"/>
<path d="M36.7891 29.0278C37.2656 29.1841 37.6992 29.3091 38.0898 29.4028C38.8477 26.356 39.7109 22.7583 40.6797 18.6099L37.8555 18.3052C37.6758 17.813 37.5859 17.2544 37.5859 16.6294C37.5859 16.1528 37.6406 15.688 37.75 15.2349C38.8828 15.0161 40.1875 14.8599 41.6641 14.7661C43.1484 14.6646 44.4219 14.6138 45.4844 14.6138C46.25 14.6138 46.8242 14.6177 47.207 14.6255L47.9453 15.0474C49.2578 18.6489 50.5898 23.52 51.9414 29.6606C51.957 29.7231 51.9844 29.8481 52.0234 30.0356C52.0703 30.2231 52.1055 30.4028 52.1289 30.5747C52.1523 30.7388 52.1641 30.895 52.1641 31.0435C52.1641 31.6997 51.9297 32.231 51.4609 32.6372C50.8047 32.895 50.0117 33.0239 49.082 33.0239C48.6445 33.0239 48.2031 32.9771 47.7578 32.8833C47.3125 32.7896 47.0117 32.645 46.8555 32.4497L46.9961 29.4263L46.7031 27.856C46.1953 27.8872 45.5977 27.9028 44.9102 27.9028C44.1758 27.9028 43.4883 27.8794 42.8477 27.8325L42.707 28.4653C42.4023 29.8247 42.1523 30.7896 41.957 31.3599C41.7695 31.9302 41.4883 32.3521 41.1133 32.6255C40.7461 32.8989 40.1953 33.0356 39.4609 33.0356C38.9844 33.0356 38.5039 32.9731 38.0195 32.8481C37.5352 32.731 37.0977 32.5708 36.707 32.3677C36.3164 32.1646 36.0234 31.9458 35.8281 31.7114C35.8281 31.1489 35.9141 30.6138 36.0859 30.106C36.2578 29.5981 36.4922 29.2388 36.7891 29.0278ZM45.0039 18.7153H44.4648L43.6211 24.4927H46.2461L45.0039 18.7153ZM52.9865 26.0278C52.9865 24.8403 53.1506 23.7036 53.4787 22.6177C53.8147 21.5317 54.3381 20.6411 55.049 19.9458C55.7678 19.2505 56.6701 18.9028 57.7561 18.9028C58.9748 18.9028 60.1389 19.2896 61.2482 20.063L61.4357 19.9458C61.4123 19.0317 61.299 18.2036 61.0959 17.4614L58.717 17.3091C58.6076 17.1685 58.5217 16.9614 58.4592 16.688C58.3967 16.4067 58.3654 16.1177 58.3654 15.8208C58.3654 15.4224 58.4123 15.0786 58.5061 14.7896C58.9748 14.4536 59.5764 14.1997 60.3107 14.0278C61.0451 13.856 61.7795 13.77 62.5139 13.77C63.3264 13.77 63.9397 13.9419 64.3537 14.2856C64.7678 14.6216 65.0451 15.1333 65.1857 15.8208C65.3342 16.5005 65.4084 17.4458 65.4084 18.6567C65.4084 20.2505 65.342 22.0591 65.2092 24.0825C65.0764 26.106 64.9045 27.7583 64.6936 29.0396L64.6467 29.2388L66.0061 28.6528C66.2326 28.895 66.4318 29.1919 66.6037 29.5435C66.7834 29.8872 66.8967 30.2856 66.9436 30.7388C66.8342 30.9731 66.5959 31.2739 66.2287 31.6411C65.8615 32.0005 65.4123 32.3208 64.8811 32.6021C64.3498 32.8833 63.7951 33.0239 63.217 33.0239C62.5686 33.0239 62.0686 32.8325 61.717 32.4497C61.3732 32.0591 61.2014 31.563 61.2014 30.9614C61.2014 30.8052 61.2404 30.4849 61.3186 30.0005C61.4045 29.5161 61.4748 29.1802 61.5295 28.9927L61.1779 28.8872C60.7795 30.2856 60.2522 31.3247 59.5959 32.0044C58.9397 32.6841 58.1272 33.0239 57.1584 33.0239C56.1193 33.0239 55.2873 32.6802 54.6623 31.9927C54.0451 31.2974 53.6115 30.4263 53.3615 29.3794C53.1115 28.3325 52.9865 27.2153 52.9865 26.0278ZM61.0256 25.8169C61.0725 25.5356 61.0959 25.2075 61.0959 24.8325C61.0959 24.5903 61.0842 24.3599 61.0607 24.1411C61.0451 23.9224 61.0256 23.7661 61.0022 23.6724C60.6897 23.4458 60.3342 23.2856 59.9357 23.1919C59.5451 23.0981 59.1857 23.0513 58.8576 23.0513C58.6545 23.0513 58.4357 23.0708 58.2014 23.1099C58.0451 23.2661 57.9201 23.606 57.8264 24.1294C57.7326 24.645 57.6857 25.2271 57.6857 25.8755C57.6857 26.5708 57.7326 27.2466 57.8264 27.9028C57.9279 28.5513 58.0686 29.0591 58.2482 29.4263C58.3732 29.4263 58.6154 29.2349 58.9748 28.8521C59.342 28.4614 59.7209 27.9849 60.1115 27.4224C60.5022 26.8521 60.8068 26.3169 61.0256 25.8169ZM67.391 26.0278C67.391 24.8403 67.5551 23.7036 67.8832 22.6177C68.2192 21.5317 68.7426 20.6411 69.4535 19.9458C70.1723 19.2505 71.0746 18.9028 72.1606 18.9028C73.3793 18.9028 74.5434 19.2896 75.6528 20.063L75.8403 19.9458C75.8168 19.0317 75.7035 18.2036 75.5004 17.4614L73.1215 17.3091C73.0121 17.1685 72.9262 16.9614 72.8637 16.688C72.8012 16.4067 72.7699 16.1177 72.7699 15.8208C72.7699 15.4224 72.8168 15.0786 72.9106 14.7896C73.3793 14.4536 73.9809 14.1997 74.7153 14.0278C75.4496 13.856 76.184 13.77 76.9184 13.77C77.7309 13.77 78.3442 13.9419 78.7582 14.2856C79.1723 14.6216 79.4496 15.1333 79.5903 15.8208C79.7387 16.5005 79.8129 17.4458 79.8129 18.6567C79.8129 20.2505 79.7465 22.0591 79.6137 24.0825C79.4809 26.106 79.309 27.7583 79.0981 29.0396L79.0512 29.2388L80.4106 28.6528C80.6371 28.895 80.8363 29.1919 81.0082 29.5435C81.1879 29.8872 81.3012 30.2856 81.3481 30.7388C81.2387 30.9731 81.0004 31.2739 80.6332 31.6411C80.266 32.0005 79.8168 32.3208 79.2856 32.6021C78.7543 32.8833 78.1996 33.0239 77.6215 33.0239C76.9731 33.0239 76.4731 32.8325 76.1215 32.4497C75.7778 32.0591 75.6059 31.563 75.6059 30.9614C75.6059 30.8052 75.6449 30.4849 75.7231 30.0005C75.809 29.5161 75.8793 29.1802 75.934 28.9927L75.5824 28.8872C75.184 30.2856 74.6567 31.3247 74.0004 32.0044C73.3442 32.6841 72.5317 33.0239 71.5629 33.0239C70.5238 33.0239 69.6918 32.6802 69.0668 31.9927C68.4496 31.2974 68.016 30.4263 67.766 29.3794C67.516 28.3325 67.391 27.2153 67.391 26.0278ZM75.4301 25.8169C75.477 25.5356 75.5004 25.2075 75.5004 24.8325C75.5004 24.5903 75.4887 24.3599 75.4653 24.1411C75.4496 23.9224 75.4301 23.7661 75.4067 23.6724C75.0942 23.4458 74.7387 23.2856 74.3403 23.1919C73.9496 23.0981 73.5903 23.0513 73.2621 23.0513C73.059 23.0513 72.8403 23.0708 72.6059 23.1099C72.4496 23.2661 72.3246 23.606 72.2309 24.1294C72.1371 24.645 72.0903 25.2271 72.0903 25.8755C72.0903 26.5708 72.1371 27.2466 72.2309 27.9028C72.3324 28.5513 72.4731 29.0591 72.6528 29.4263C72.7778 29.4263 73.0199 29.2349 73.3793 28.8521C73.7465 28.4614 74.1254 27.9849 74.516 27.4224C74.9067 26.8521 75.2113 26.3169 75.4301 25.8169ZM89.3563 28.8052C89.9266 29.0317 90.3758 29.2075 90.7039 29.3325C91.0321 29.4575 91.3758 29.5669 91.7352 29.6606C91.8368 29.4028 91.8875 29.0513 91.8875 28.606C91.8875 28.0044 91.8446 26.9028 91.7586 25.3013C91.6336 23.1606 91.5711 21.52 91.5711 20.3794C91.5711 19.5903 91.5946 18.9106 91.6414 18.3403L89.7078 18.2231L89.6727 21.9146C89.0868 22.1099 88.4266 22.2075 87.6922 22.2075C87.5047 22.2075 87.3641 22.2036 87.2703 22.1958C87.0125 21.9927 86.743 21.6724 86.4618 21.2349C86.1883 20.7974 85.9618 20.3052 85.7821 19.7583C85.6024 19.2114 85.5125 18.6841 85.5125 18.1763C85.5125 17.3013 85.6571 16.6333 85.9461 16.1724C86.2352 15.7114 86.6414 15.395 87.1649 15.2231C87.6883 15.0435 88.3875 14.9263 89.2625 14.8716C90.6219 14.7935 92.2196 14.7349 94.0555 14.6958C95.8993 14.6489 97.661 14.6255 99.3407 14.6255C99.5672 14.9146 99.7352 15.2388 99.8446 15.5981C99.9618 15.9575 100.02 16.3169 100.02 16.6763C100.02 17.3481 99.8485 17.9106 99.5047 18.3638C99.161 18.8169 98.6532 19.0435 97.9813 19.0435C97.5438 19.0435 97.0164 18.9653 96.3993 18.8091C96.2586 22.481 96.0555 25.8716 95.7899 28.981C95.7352 29.5825 95.6453 30.1138 95.5203 30.5747C95.3953 31.0356 95.2039 31.438 94.9461 31.7817C94.6258 32.2036 94.1844 32.5161 93.6219 32.7192C93.0594 32.9224 92.4383 33.0239 91.7586 33.0239C91.118 33.0239 90.4852 32.9106 89.8602 32.6841C89.243 32.4575 88.7782 32.0396 88.4657 31.4302C88.4735 30.9224 88.536 30.4731 88.6532 30.0825C88.7703 29.6841 89.0047 29.2583 89.3563 28.8052ZM99.4366 25.8638C99.4366 24.4497 99.6631 23.2231 100.116 22.1841C100.569 21.145 101.265 20.3403 102.202 19.77C103.14 19.1919 104.315 18.9028 105.73 18.9028C107.292 18.9028 108.519 19.1958 109.409 19.7817C110.3 20.3599 110.921 21.1646 111.272 22.1958C111.632 23.2271 111.812 24.4888 111.812 25.981C111.812 27.3325 111.573 28.5396 111.097 29.6021C110.628 30.6567 109.917 31.4927 108.964 32.1099C108.019 32.7192 106.858 33.0239 105.483 33.0239C103.358 33.0239 101.819 32.3716 100.866 31.0669C99.9131 29.7544 99.4366 28.02 99.4366 25.8638ZM105.964 29.5903C106.362 29.5903 106.605 29.5591 106.69 29.4966C106.87 29.1841 107.007 28.7427 107.101 28.1724C107.194 27.6021 107.241 26.9849 107.241 26.3208C107.241 25.7114 107.202 25.1411 107.124 24.6099C107.046 24.0708 106.937 23.6489 106.796 23.3442C106.71 23.2427 106.538 23.1685 106.28 23.1216C106.022 23.0669 105.741 23.0396 105.437 23.0396C105.038 23.0396 104.765 23.0825 104.616 23.1685C104.226 23.8403 104.03 24.7739 104.03 25.9692C104.03 26.5317 104.073 27.106 104.159 27.6919C104.245 28.2778 104.355 28.8091 104.487 29.2856C104.581 29.3872 104.772 29.4653 105.062 29.52C105.351 29.5669 105.651 29.5903 105.964 29.5903ZM117.734 23.8364C117.734 22.063 117.996 20.4849 118.519 19.1021C119.05 17.7114 119.878 16.6138 121.003 15.8091C122.128 15.0044 123.55 14.6021 125.269 14.6021C126.441 14.6021 127.679 14.7544 128.984 15.0591C129.406 15.3091 129.773 15.5708 130.085 15.8442C130.406 16.1099 130.71 16.4341 130.999 16.8169C130.999 17.3716 130.925 18.1099 130.777 19.0317C130.628 19.9458 130.441 20.8013 130.214 21.5981C129.996 22.3872 129.785 22.8989 129.581 23.1333C129.378 23.2349 129.206 23.3052 129.066 23.3442C128.925 23.3755 128.706 23.3911 128.41 23.3911C128.042 23.3911 127.699 23.3638 127.378 23.3091C127.058 23.2544 126.816 23.1802 126.652 23.0864L126.242 19.1372C125.687 18.981 124.917 18.9028 123.933 18.9028C123.667 18.9028 123.472 18.9067 123.347 18.9146C123.011 19.9927 122.824 21.4419 122.785 23.2622C122.777 23.481 122.773 23.813 122.773 24.2583C122.773 25.3052 122.828 26.1528 122.937 26.8013C123.039 27.4106 123.148 27.8677 123.265 28.1724C123.382 28.4771 123.585 28.7114 123.874 28.8755C124.171 29.0396 124.613 29.1216 125.199 29.1216C125.988 29.1216 126.714 29.0083 127.378 28.7817C128.05 28.5474 128.781 28.2075 129.57 27.7622C129.867 28.0825 130.093 28.3442 130.249 28.5474C130.414 28.7505 130.562 29.0005 130.695 29.2974C130.835 29.5942 130.929 29.9341 130.976 30.3169C130.851 30.5747 130.519 30.9185 129.98 31.3481C129.441 31.7778 128.734 32.1646 127.859 32.5083C126.984 32.8521 126.003 33.0239 124.917 33.0239C122.378 33.0239 120.546 32.231 119.421 30.645C118.296 29.0591 117.734 26.7896 117.734 23.8364ZM135.525 25.0669C135.986 25.0669 136.494 25.1138 137.049 25.2075C137.611 25.3013 138.127 25.4146 138.595 25.5474V25.1841C138.595 24.9419 138.588 24.6724 138.572 24.3755C138.564 24.0786 138.549 23.8833 138.525 23.7896C138.455 23.6567 138.252 23.52 137.916 23.3794C137.588 23.2388 137.049 23.1685 136.299 23.1685C135.838 23.1685 135.361 23.2271 134.869 23.3442C134.384 23.4536 133.845 23.6021 133.252 23.7896C132.931 23.2583 132.674 22.7544 132.478 22.2778C132.291 21.7935 132.197 21.3091 132.197 20.8247C132.197 20.6763 132.209 20.5278 132.232 20.3794C133.498 19.395 135.134 18.9028 137.142 18.9028C138.252 18.9028 139.236 19.0278 140.095 19.2778C140.955 19.5278 141.662 20.0122 142.216 20.731C142.771 21.4497 143.049 22.4692 143.049 23.7896C143.049 25.0786 142.896 26.3286 142.591 27.5396C142.295 28.7427 142.142 29.356 142.134 29.3794L143.834 28.6528C144.06 28.895 144.259 29.1919 144.431 29.5435C144.611 29.8872 144.724 30.2856 144.771 30.7388C144.662 30.9731 144.424 31.2739 144.056 31.6411C143.689 32.0005 143.24 32.3208 142.709 32.6021C142.177 32.8833 141.623 33.0239 141.045 33.0239C140.396 33.0239 139.904 32.8325 139.568 32.4497C139.24 32.0669 139.076 31.5708 139.076 30.9614C139.076 30.6177 139.127 30.27 139.228 29.9185L138.877 29.813C138.658 31.0474 138.193 31.8911 137.482 32.3442C136.771 32.7974 135.986 33.0239 135.127 33.0239C134.564 33.0239 134.021 32.8677 133.498 32.5552C132.974 32.2349 132.549 31.7739 132.22 31.1724C131.892 30.563 131.728 29.8521 131.728 29.0396C131.728 27.7427 132.052 26.7583 132.701 26.0864C133.349 25.4067 134.291 25.0669 135.525 25.0669ZM136.861 29.5317C137.056 29.4927 137.287 29.3833 137.552 29.2036C137.826 29.0239 138.068 28.8091 138.279 28.5591C138.49 28.3091 138.615 28.0708 138.654 27.8442L138.584 27.563C138.17 27.5083 137.728 27.481 137.259 27.481C136.861 27.481 136.588 27.5122 136.439 27.5747C136.189 27.856 136.064 28.1685 136.064 28.5122C136.064 28.7622 136.127 28.9888 136.252 29.1919C136.384 29.395 136.588 29.5083 136.861 29.5317ZM146.133 29.6489C146.133 29.313 146.141 28.4888 146.156 27.1763C146.18 24.5981 146.191 23.188 146.191 22.9458L145.113 22.77C144.965 22.3247 144.859 21.9067 144.797 21.5161C144.734 21.1255 144.703 20.731 144.703 20.3325C144.703 20.1685 144.707 20.0435 144.715 19.9575C144.848 19.8403 145.055 19.6997 145.336 19.5356C145.617 19.3716 145.949 19.2271 146.332 19.1021C146.715 18.9692 147.105 18.9028 147.504 18.9028C148.433 18.9028 149.105 19.1099 149.519 19.5239C149.941 19.938 150.152 20.5435 150.152 21.3403C150.152 21.8247 150.09 22.4458 149.965 23.2036C149.848 23.9536 149.726 24.4888 149.601 24.8091L150.023 24.8794L150.726 22.231C151.039 21.0356 151.43 20.1841 151.898 19.6763C152.367 19.1606 152.894 18.9028 153.48 18.9028C153.863 18.9028 154.242 18.9614 154.617 19.0786C155 19.1958 155.293 19.3403 155.496 19.5122C155.715 19.9966 155.824 20.6411 155.824 21.4458C155.824 22.0083 155.769 22.5669 155.66 23.1216C155.551 23.6685 155.41 24.1099 155.238 24.4458L152.777 24.1177C152.277 24.6489 151.746 25.3872 151.183 26.3325C150.621 27.27 150.172 28.1333 149.836 28.9224L149.824 29.5317L152.098 28.9927C152.48 29.5786 152.703 30.2739 152.766 31.0786C152.766 31.1255 152.59 31.3169 152.238 31.6528C151.887 31.9888 151.422 32.3013 150.844 32.5903C150.273 32.8716 149.617 33.0122 148.875 33.0122C148.109 33.0122 147.469 32.8091 146.953 32.4028C146.445 31.9888 146.176 31.2935 146.144 30.3169C146.137 30.1997 146.133 29.9771 146.133 29.6489ZM157.232 26.3208C157.232 25.0474 157.252 23.8872 157.291 22.8403L156.014 22.6177C155.912 22.2271 155.842 21.8833 155.803 21.5864C155.764 21.2896 155.744 20.9731 155.744 20.6372L155.768 20.4028C155.791 20.2935 155.803 20.2036 155.803 20.1333L157.502 19.7583C157.541 19.2739 157.631 18.7271 157.772 18.1177C157.912 17.5083 158.061 17.0591 158.217 16.77C158.467 16.5825 158.768 16.4419 159.119 16.3481C159.471 16.2544 159.85 16.2075 160.256 16.2075C160.6 16.2075 160.932 16.2427 161.252 16.313C161.58 16.3755 161.865 16.4614 162.107 16.5708C162.131 16.8364 162.143 17.1411 162.143 17.4849C162.143 18.0474 162.115 18.6841 162.061 19.395L164.123 19.02C164.412 19.52 164.557 20.063 164.557 20.6489C164.557 21.0552 164.506 21.4224 164.404 21.7505C164.311 22.0786 164.178 22.4497 164.006 22.8638C163.49 22.9497 162.783 23.0044 161.885 23.0278C161.775 24.3013 161.533 26.1724 161.158 28.6411L161.1 29.0396L161.123 29.063L163.877 28.2075C164.447 28.6841 164.795 29.4185 164.92 30.4106C164.92 30.4653 164.666 30.7231 164.158 31.1841C163.658 31.6372 163.029 32.0591 162.272 32.4497C161.514 32.8325 160.69 33.0239 159.799 33.0239C158.244 33.0239 157.416 32.0747 157.315 30.1763C157.26 29.2153 157.232 27.9302 157.232 26.3208Z" fill="white"/>
</svg>
