<svg width="138" height="35" viewBox="0 0 138 35" fill="none" xmlns="http://www.w3.org/2000/svg">
<rect x="0.5" y="0.5" width="137" height="34" rx="17" stroke="black"/>
<path d="M36.136 22H33.064V21.872C33.064 21.5947 33.1387 21.4133 33.288 21.328C33.3627 21.296 33.4533 21.2747 33.56 21.264L34.296 21.232L33.448 18.304H30.056L29.208 21.2L30.408 21.296C30.4507 21.7653 30.3067 22 29.976 22H27.176V21.872C27.176 21.5947 27.2507 21.4133 27.4 21.328C27.4747 21.296 27.5653 21.2747 27.672 21.264L28.312 21.232L31.4 11.152C31.7413 11.1093 32.088 11.1093 32.44 11.152L35.528 21.2L36.568 21.296C36.6107 21.7653 36.4667 22 36.136 22ZM30.296 17.504H33.208L31.768 12.496L30.296 17.504ZM43.7976 22.24C43.0936 22.24 42.715 21.8507 42.6616 21.072C41.883 21.8507 41.0456 22.24 40.1496 22.24C39.2536 22.24 38.507 21.9147 37.9096 21.264C37.323 20.6027 37.0136 19.6213 36.9816 18.32C36.9496 17.008 37.2696 15.952 37.9416 15.152C38.6243 14.3413 39.5736 13.936 40.7896 13.936C41.4403 13.936 42.059 14.0747 42.6456 14.352V11.904L41.8136 11.808C41.5576 11.7867 41.4296 11.5573 41.4296 11.12L43.7496 10.832V21.36L44.7736 21.488C44.7523 21.9893 44.427 22.24 43.7976 22.24ZM42.6456 15.584C42.0696 15.0613 41.371 14.8 40.5496 14.8C39.739 14.8 39.1363 15.1147 38.7416 15.744C38.3576 16.3627 38.1656 17.1413 38.1656 18.08C38.1656 19.0187 38.3576 19.792 38.7416 20.4C39.1256 20.9973 39.7123 21.296 40.5016 21.296C40.8963 21.296 41.2483 21.216 41.5576 21.056C41.867 20.896 42.2296 20.64 42.6456 20.288V15.584ZM52.0928 22.24C51.3888 22.24 51.0101 21.8507 50.9568 21.072C50.1781 21.8507 49.3408 22.24 48.4448 22.24C47.5488 22.24 46.8021 21.9147 46.2048 21.264C45.6181 20.6027 45.3088 19.6213 45.2768 18.32C45.2448 17.008 45.5648 15.952 46.2368 15.152C46.9194 14.3413 47.8688 13.936 49.0848 13.936C49.7354 13.936 50.3541 14.0747 50.9408 14.352V11.904L50.1088 11.808C49.8528 11.7867 49.7248 11.5573 49.7248 11.12L52.0448 10.832V21.36L53.0688 21.488C53.0474 21.9893 52.7221 22.24 52.0928 22.24ZM50.9408 15.584C50.3648 15.0613 49.6661 14.8 48.8448 14.8C48.0341 14.8 47.4314 15.1147 47.0368 15.744C46.6528 16.3627 46.4608 17.1413 46.4608 18.08C46.4608 19.0187 46.6528 19.792 47.0368 20.4C47.4208 20.9973 48.0074 21.296 48.7968 21.296C49.1914 21.296 49.5434 21.216 49.8528 21.056C50.1621 20.896 50.5248 20.64 50.9408 20.288V15.584ZM57.1411 11.168H66.1491V13.088C66.1491 13.4293 65.9145 13.5787 65.4451 13.536L65.3331 11.984H62.2451V21.2L63.4611 21.296C63.5038 21.7653 63.3545 22 63.0131 22H59.8291C59.8291 22 59.8291 21.9573 59.8291 21.872C59.8291 21.5947 59.9038 21.4133 60.0531 21.328C60.1278 21.296 60.2185 21.2747 60.3251 21.264L61.0931 21.232V11.984H57.9571L57.8451 13.536C57.3758 13.5787 57.1411 13.4293 57.1411 13.088V11.168ZM70.1337 14.768C69.4084 14.768 68.8484 15.0827 68.4537 15.712C68.0591 16.3413 67.8617 17.1467 67.8617 18.128C67.8617 19.0987 68.0537 19.8933 68.4377 20.512C68.8217 21.12 69.3764 21.424 70.1017 21.424C70.8271 21.4133 71.3871 21.104 71.7817 20.496C72.1764 19.888 72.3737 19.104 72.3737 18.144C72.3737 17.1733 72.1817 16.368 71.7977 15.728C71.4244 15.0773 70.8697 14.7573 70.1337 14.768ZM70.2297 13.936C71.0404 13.936 71.7711 14.192 72.4217 14.704C72.7631 14.9813 73.0351 15.3867 73.2377 15.92C73.4511 16.4533 73.5577 17.0933 73.5577 17.84C73.5791 19.1627 73.2697 20.2293 72.6297 21.04C71.9897 21.84 71.1257 22.24 70.0377 22.24C68.9497 22.24 68.1231 21.8987 67.5577 21.216C66.9924 20.5333 66.6991 19.5467 66.6777 18.256C66.6671 16.9653 66.9817 15.9253 67.6217 15.136C68.2724 14.336 69.1417 13.936 70.2297 13.936ZM78.796 11.136H82.156C83.468 11.136 84.46 11.4187 85.132 11.984C85.804 12.5387 86.14 13.264 86.14 14.16C86.14 15.376 85.74 16.2613 84.94 16.816C84.1507 17.3707 83.0893 17.648 81.756 17.648C81.404 17.648 81.052 17.632 80.7 17.6V21.2L81.916 21.296C81.9587 21.7653 81.8093 22 81.468 22H78.316C78.316 22 78.316 21.9573 78.316 21.872C78.316 21.5947 78.3907 21.4133 78.54 21.328C78.6147 21.296 78.7053 21.2747 78.812 21.264L79.548 21.232V11.936L78.38 11.84C78.348 11.3707 78.4867 11.136 78.796 11.136ZM81.612 16.896C83.8093 16.896 84.908 16.048 84.908 14.352C84.908 12.5493 83.7933 11.7173 81.564 11.856L80.7 11.904V16.864C80.9133 16.8853 81.2173 16.896 81.612 16.896ZM89.7925 22H86.7845V21.872C86.7845 21.5307 86.9552 21.344 87.2965 21.312L87.9845 21.28V11.888L87.1525 11.808C86.8965 11.776 86.7685 11.552 86.7685 11.136L89.0885 10.832V21.248L90.2245 21.344C90.2672 21.7813 90.1232 22 89.7925 22ZM97.9626 21.504C97.9626 22.0053 97.632 22.256 96.9706 22.256C96.3093 22.256 95.9253 21.92 95.8186 21.248C95.136 21.9093 94.3146 22.24 93.3546 22.24C92.6186 22.24 92.032 22.0533 91.5946 21.68C91.168 21.296 90.9546 20.7787 90.9546 20.128C90.9546 19.4773 91.1946 18.928 91.6746 18.48C92.1546 18.032 92.9493 17.808 94.0586 17.808C94.7093 17.808 95.2853 17.8827 95.7866 18.032V16.768C95.7866 16.16 95.632 15.6747 95.3226 15.312C95.024 14.9387 94.5813 14.752 93.9946 14.752C93.408 14.752 92.9866 14.912 92.7306 15.232C92.4853 15.5413 92.3466 15.904 92.3146 16.32C92.0586 16.3413 91.8453 16.288 91.6746 16.16C91.504 16.032 91.4186 15.824 91.4186 15.536C91.4186 15.0773 91.6533 14.6987 92.1226 14.4C92.592 14.0907 93.2 13.936 93.9466 13.936C94.5973 13.936 95.216 14.096 95.8026 14.416C96.1333 14.5867 96.4 14.8693 96.6026 15.264C96.8053 15.6587 96.9066 16.1387 96.9066 16.704V21.376L97.9626 21.504ZM95.7866 18.992C95.296 18.7253 94.7253 18.592 94.0746 18.592C93.424 18.592 92.944 18.7147 92.6346 18.96C92.336 19.2053 92.1866 19.5413 92.1866 19.968C92.1866 20.3947 92.32 20.736 92.5866 20.992C92.8533 21.2373 93.2213 21.36 93.6906 21.36C94.4373 21.36 95.136 21.072 95.7866 20.496V18.992ZM106.818 22H103.842V21.872C103.842 21.616 103.917 21.456 104.066 21.392C104.141 21.3493 104.231 21.3227 104.338 21.312L105.042 21.28V17.136C105.042 15.6427 104.45 14.896 103.266 14.896C102.829 14.896 102.434 14.9813 102.082 15.152C101.73 15.3227 101.33 15.5947 100.882 15.968V21.248L102.018 21.344C102.061 21.7813 101.917 22 101.586 22H98.5779V21.872C98.5779 21.5307 98.7485 21.344 99.0899 21.312L99.7779 21.28V14.976L98.9459 14.88C98.6899 14.8587 98.5619 14.64 98.5619 14.224L100.626 13.952L100.834 15.168H100.882C101.746 14.3467 102.637 13.936 103.554 13.936C104.269 13.936 104.877 14.1867 105.378 14.688C105.89 15.1893 106.146 15.9627 106.146 17.008V21.248L107.266 21.344C107.309 21.7813 107.159 22 106.818 22ZM109.758 21.376C109.758 21.1307 109.838 20.928 109.998 20.768C110.169 20.608 110.372 20.528 110.606 20.528C110.852 20.528 111.054 20.608 111.214 20.768C111.374 20.928 111.454 21.1307 111.454 21.376C111.454 21.6213 111.374 21.8293 111.214 22C111.054 22.16 110.852 22.24 110.606 22.24C110.361 22.24 110.158 22.16 109.998 22C109.838 21.8293 109.758 21.6213 109.758 21.376ZM108.014 12.832C108.014 12.2773 108.297 11.776 108.862 11.328C109.428 10.8693 110.19 10.64 111.15 10.64C112.121 10.64 112.884 10.88 113.438 11.36C113.993 11.8293 114.27 12.4853 114.27 13.328C114.27 14.1707 113.95 14.9013 113.31 15.52C112.67 16.1387 111.934 16.544 111.102 16.736L111.006 19.008C110.772 19.04 110.51 19.04 110.222 19.008L110.142 16.144C110.996 15.9307 111.694 15.5733 112.238 15.072C112.793 14.5707 113.07 13.9787 113.07 13.296C113.07 12.7733 112.894 12.3307 112.542 11.968C112.201 11.5947 111.705 11.408 111.054 11.408C110.404 11.408 109.897 11.632 109.534 12.08C109.172 12.5173 108.99 13.024 108.99 13.6C108.34 13.6 108.014 13.344 108.014 12.832Z" fill="black"/>
</svg>
