<svg width="138" height="35" viewBox="0 0 138 35" fill="none" xmlns="http://www.w3.org/2000/svg">
<rect width="138" height="35" rx="17.5" fill="#D764D7"/>
<path d="M26.9766 20.9922C27.2943 21.0964 27.5833 21.1797 27.8438 21.2422C28.349 19.2109 28.9245 16.8125 29.5703 14.0469L27.6875 13.8438C27.5677 13.5156 27.5078 13.1432 27.5078 12.7266C27.5078 12.4089 27.5443 12.099 27.6172 11.7969C28.3724 11.651 29.2422 11.5469 30.2266 11.4844C31.2161 11.4167 32.0651 11.3828 32.7734 11.3828C33.2839 11.3828 33.6667 11.3854 33.9219 11.3906L34.4141 11.6719C35.2891 14.0729 36.1771 17.3203 37.0781 21.4141C37.0885 21.4557 37.1068 21.5391 37.1328 21.6641C37.1641 21.7891 37.1875 21.9089 37.2031 22.0234C37.2188 22.1328 37.2266 22.237 37.2266 22.3359C37.2266 22.7734 37.0703 23.1276 36.7578 23.3984C36.3203 23.5703 35.7917 23.6562 35.1719 23.6562C34.8802 23.6562 34.5859 23.625 34.2891 23.5625C33.9922 23.5 33.7917 23.4036 33.6875 23.2734L33.7812 21.2578L33.5859 20.2109C33.2474 20.2318 32.849 20.2422 32.3906 20.2422C31.901 20.2422 31.4427 20.2266 31.0156 20.1953L30.9219 20.6172C30.7188 21.5234 30.5521 22.1667 30.4219 22.5469C30.2969 22.9271 30.1094 23.2083 29.8594 23.3906C29.6146 23.5729 29.2474 23.6641 28.7578 23.6641C28.4401 23.6641 28.1198 23.6224 27.7969 23.5391C27.474 23.4609 27.1823 23.3542 26.9219 23.2188C26.6615 23.0833 26.4661 22.9375 26.3359 22.7812C26.3359 22.4062 26.3932 22.0495 26.5078 21.7109C26.6224 21.3724 26.7786 21.1328 26.9766 20.9922ZM32.4531 14.1172H32.0938L31.5312 17.9688H33.2812L32.4531 14.1172ZM37.6389 18.9922C37.6389 18.2005 37.7483 17.4427 37.967 16.7188C38.191 15.9948 38.5399 15.401 39.0139 14.9375C39.493 14.474 40.0946 14.2422 40.8186 14.2422C41.6311 14.2422 42.4071 14.5 43.1467 15.0156L43.2717 14.9375C43.2561 14.3281 43.1805 13.776 43.0451 13.2812L41.4592 13.1797C41.3863 13.0859 41.329 12.9479 41.2873 12.7656C41.2456 12.5781 41.2248 12.3854 41.2248 12.1875C41.2248 11.9219 41.2561 11.6927 41.3186 11.5C41.6311 11.276 42.0321 11.1068 42.5217 10.9922C43.0113 10.8776 43.5009 10.8203 43.9904 10.8203C44.5321 10.8203 44.941 10.9349 45.217 11.1641C45.493 11.388 45.6779 11.7292 45.7717 12.1875C45.8706 12.6406 45.9201 13.2708 45.9201 14.0781C45.9201 15.1406 45.8759 16.3464 45.7873 17.6953C45.6988 19.0443 45.5842 20.1458 45.4436 21L45.4123 21.1328L46.3186 20.7422C46.4696 20.9036 46.6024 21.1016 46.717 21.3359C46.8368 21.5651 46.9123 21.8307 46.9436 22.1328C46.8706 22.2891 46.7118 22.4896 46.467 22.7344C46.2222 22.974 45.9227 23.1875 45.5686 23.375C45.2144 23.5625 44.8446 23.6562 44.4592 23.6562C44.0269 23.6562 43.6936 23.5286 43.4592 23.2734C43.23 23.013 43.1154 22.6823 43.1154 22.2812C43.1154 22.1771 43.1415 21.9635 43.1936 21.6406C43.2509 21.3177 43.2977 21.0938 43.3342 20.9688L43.0998 20.8984C42.8342 21.8307 42.4826 22.5234 42.0451 22.9766C41.6076 23.4297 41.066 23.6562 40.4201 23.6562C39.7274 23.6562 39.1727 23.4271 38.7561 22.9688C38.3446 22.5052 38.0555 21.9245 37.8889 21.2266C37.7222 20.5286 37.6389 19.7839 37.6389 18.9922ZM42.9983 18.8516C43.0295 18.6641 43.0451 18.4453 43.0451 18.1953C43.0451 18.0339 43.0373 17.8802 43.0217 17.7344C43.0113 17.5885 42.9983 17.4844 42.9826 17.4219C42.7743 17.2708 42.5373 17.1641 42.2717 17.1016C42.0113 17.0391 41.7717 17.0078 41.5529 17.0078C41.4175 17.0078 41.2717 17.0208 41.1154 17.0469C41.0113 17.151 40.9279 17.3776 40.8654 17.7266C40.8029 18.0703 40.7717 18.4583 40.7717 18.8906C40.7717 19.3542 40.8029 19.8047 40.8654 20.2422C40.9331 20.6745 41.0269 21.013 41.1467 21.2578C41.23 21.2578 41.3915 21.1302 41.6311 20.875C41.8759 20.6146 42.1285 20.2969 42.3889 19.9219C42.6493 19.5417 42.8524 19.1849 42.9983 18.8516ZM47.1059 18.9922C47.1059 18.2005 47.2153 17.4427 47.434 16.7188C47.658 15.9948 48.0069 15.401 48.4809 14.9375C48.96 14.474 49.5616 14.2422 50.2856 14.2422C51.0981 14.2422 51.8741 14.5 52.6137 15.0156L52.7387 14.9375C52.7231 14.3281 52.6475 13.776 52.5121 13.2812L50.9262 13.1797C50.8533 13.0859 50.796 12.9479 50.7543 12.7656C50.7126 12.5781 50.6918 12.3854 50.6918 12.1875C50.6918 11.9219 50.7231 11.6927 50.7856 11.5C51.0981 11.276 51.4991 11.1068 51.9887 10.9922C52.4783 10.8776 52.9679 10.8203 53.4574 10.8203C53.9991 10.8203 54.408 10.9349 54.684 11.1641C54.96 11.388 55.1449 11.7292 55.2387 12.1875C55.3376 12.6406 55.3871 13.2708 55.3871 14.0781C55.3871 15.1406 55.3429 16.3464 55.2543 17.6953C55.1658 19.0443 55.0512 20.1458 54.9106 21L54.8793 21.1328L55.7856 20.7422C55.9366 20.9036 56.0694 21.1016 56.184 21.3359C56.3038 21.5651 56.3793 21.8307 56.4106 22.1328C56.3376 22.2891 56.1788 22.4896 55.934 22.7344C55.6892 22.974 55.3897 23.1875 55.0356 23.375C54.6814 23.5625 54.3116 23.6562 53.9262 23.6562C53.4939 23.6562 53.1606 23.5286 52.9262 23.2734C52.697 23.013 52.5824 22.6823 52.5824 22.2812C52.5824 22.1771 52.6085 21.9635 52.6606 21.6406C52.7179 21.3177 52.7647 21.0938 52.8012 20.9688L52.5668 20.8984C52.3012 21.8307 51.9496 22.5234 51.5121 22.9766C51.0746 23.4297 50.533 23.6562 49.8871 23.6562C49.1944 23.6562 48.6397 23.4271 48.2231 22.9688C47.8116 22.5052 47.5225 21.9245 47.3559 21.2266C47.1892 20.5286 47.1059 19.7839 47.1059 18.9922ZM52.4653 18.8516C52.4965 18.6641 52.5121 18.4453 52.5121 18.1953C52.5121 18.0339 52.5043 17.8802 52.4887 17.7344C52.4783 17.5885 52.4653 17.4844 52.4496 17.4219C52.2413 17.2708 52.0043 17.1641 51.7387 17.1016C51.4783 17.0391 51.2387 17.0078 51.0199 17.0078C50.8845 17.0078 50.7387 17.0208 50.5824 17.0469C50.4783 17.151 50.3949 17.3776 50.3324 17.7266C50.2699 18.0703 50.2387 18.4583 50.2387 18.8906C50.2387 19.3542 50.2699 19.8047 50.3324 20.2422C50.4001 20.6745 50.4939 21.013 50.6137 21.2578C50.697 21.2578 50.8585 21.1302 51.0981 20.875C51.3429 20.6146 51.5955 20.2969 51.8559 19.9219C52.1163 19.5417 52.3194 19.1849 52.4653 18.8516ZM61.4774 20.8438C61.8576 20.9948 62.1571 21.112 62.3758 21.1953C62.5946 21.2786 62.8237 21.3516 63.0633 21.4141C63.131 21.2422 63.1649 21.0078 63.1649 20.7109C63.1649 20.3099 63.1362 19.5755 63.0789 18.5078C62.9956 17.0807 62.9539 15.987 62.9539 15.2266C62.9539 14.7005 62.9696 14.2474 63.0008 13.8672L61.7118 13.7891L61.6883 16.25C61.2977 16.3802 60.8576 16.4453 60.368 16.4453C60.243 16.4453 60.1493 16.4427 60.0868 16.4375C59.9149 16.3021 59.7352 16.0885 59.5477 15.7969C59.3654 15.5052 59.2144 15.1771 59.0946 14.8125C58.9748 14.4479 58.9149 14.0964 58.9149 13.7578C58.9149 13.1745 59.0112 12.7292 59.2039 12.4219C59.3966 12.1146 59.6675 11.9036 60.0164 11.7891C60.3654 11.6693 60.8315 11.5911 61.4149 11.5547C62.3211 11.5026 63.3862 11.4635 64.6102 11.4375C65.8394 11.4062 67.0138 11.3906 68.1336 11.3906C68.2847 11.5833 68.3966 11.7995 68.4696 12.0391C68.5477 12.2786 68.5868 12.5182 68.5868 12.7578C68.5868 13.2057 68.4722 13.5807 68.243 13.8828C68.0138 14.1849 67.6753 14.3359 67.2274 14.3359C66.9357 14.3359 66.5841 14.2839 66.1727 14.1797C66.0789 16.6276 65.9435 18.888 65.7664 20.9609C65.73 21.362 65.6701 21.7161 65.5868 22.0234C65.5034 22.3307 65.3758 22.599 65.2039 22.8281C64.9904 23.1094 64.6961 23.3177 64.3211 23.4531C63.9461 23.5885 63.5321 23.6562 63.0789 23.6562C62.6519 23.6562 62.23 23.5807 61.8133 23.4297C61.4019 23.2786 61.092 23 60.8836 22.5938C60.8888 22.2552 60.9305 21.9557 61.0086 21.6953C61.0868 21.4297 61.243 21.1458 61.4774 20.8438ZM68.0616 18.8828C68.0616 17.9401 68.2126 17.1224 68.5147 16.4297C68.8168 15.737 69.2803 15.2005 69.9053 14.8203C70.5303 14.4349 71.3142 14.2422 72.2569 14.2422C73.2985 14.2422 74.1162 14.4375 74.71 14.8281C75.3037 15.2135 75.7178 15.75 75.9522 16.4375C76.1918 17.125 76.3116 17.9661 76.3116 18.9609C76.3116 19.862 76.1527 20.6667 75.835 21.375C75.5225 22.0781 75.0485 22.6354 74.4131 23.0469C73.7829 23.4531 73.0095 23.6562 72.0928 23.6562C70.6761 23.6562 69.6501 23.2214 69.0147 22.3516C68.3793 21.4766 68.0616 20.3203 68.0616 18.8828ZM72.4131 21.3672C72.6787 21.3672 72.8402 21.3464 72.8975 21.3047C73.0173 21.0964 73.1084 20.8021 73.1709 20.4219C73.2334 20.0417 73.2647 19.6302 73.2647 19.1875C73.2647 18.7812 73.2386 18.401 73.1866 18.0469C73.1345 17.6875 73.0616 17.4062 72.9678 17.2031C72.9105 17.1354 72.7959 17.0859 72.6241 17.0547C72.4522 17.0182 72.2647 17 72.0616 17C71.7959 17 71.6136 17.0286 71.5147 17.0859C71.2543 17.5339 71.1241 18.1562 71.1241 18.9531C71.1241 19.3281 71.1527 19.7109 71.21 20.1016C71.2673 20.4922 71.3402 20.8464 71.4287 21.1641C71.4912 21.2318 71.6189 21.2839 71.8116 21.3203C72.0043 21.3516 72.2048 21.3672 72.4131 21.3672ZM79.9878 17.5312C79.9878 16.349 80.1622 15.2969 80.5112 14.375C80.8654 13.4479 81.4174 12.7161 82.1674 12.1797C82.9174 11.6432 83.8654 11.375 85.0112 11.375C85.7924 11.375 86.618 11.4766 87.4878 11.6797C87.769 11.8464 88.0138 12.0208 88.2221 12.2031C88.4357 12.3802 88.6388 12.5964 88.8315 12.8516C88.8315 13.2214 88.782 13.7135 88.6831 14.3281C88.5841 14.9375 88.4591 15.5078 88.3081 16.0391C88.1622 16.5651 88.0216 16.9062 87.8862 17.0625C87.7508 17.1302 87.6362 17.1771 87.5424 17.2031C87.4487 17.224 87.3029 17.2344 87.1049 17.2344C86.8601 17.2344 86.631 17.2161 86.4174 17.1797C86.2039 17.1432 86.0424 17.0938 85.9331 17.0312L85.6596 14.3984C85.2898 14.2943 84.7768 14.2422 84.1206 14.2422C83.9435 14.2422 83.8133 14.2448 83.7299 14.25C83.506 14.9688 83.381 15.9349 83.3549 17.1484C83.3497 17.2943 83.3471 17.5156 83.3471 17.8125C83.3471 18.5104 83.3836 19.0755 83.4565 19.5078C83.5242 19.9141 83.5971 20.2188 83.6753 20.4219C83.7534 20.625 83.8888 20.7812 84.0815 20.8906C84.2794 21 84.5737 21.0547 84.9643 21.0547C85.4904 21.0547 85.9747 20.9792 86.4174 20.8281C86.8654 20.6719 87.3523 20.4453 87.8784 20.1484C88.0763 20.362 88.2273 20.5365 88.3315 20.6719C88.4409 20.8073 88.5398 20.974 88.6284 21.1719C88.7221 21.3698 88.7846 21.5964 88.8159 21.8516C88.7325 22.0234 88.5112 22.2526 88.1518 22.5391C87.7924 22.8255 87.3211 23.0833 86.7378 23.3125C86.1544 23.5417 85.5008 23.6562 84.7768 23.6562C83.0841 23.6562 81.8628 23.1276 81.1128 22.0703C80.3628 21.013 79.9878 19.5 79.9878 17.5312ZM91.7126 18.3516C92.0199 18.3516 92.3584 18.3828 92.7282 18.4453C93.1032 18.5078 93.4469 18.5833 93.7594 18.6719V18.4297C93.7594 18.2682 93.7542 18.0885 93.7438 17.8906C93.7386 17.6927 93.7282 17.5625 93.7126 17.5C93.6657 17.4115 93.5303 17.3203 93.3063 17.2266C93.0876 17.1328 92.7282 17.0859 92.2282 17.0859C91.9209 17.0859 91.6032 17.125 91.2751 17.2031C90.9521 17.276 90.5928 17.375 90.1969 17.5C89.9834 17.1458 89.8115 16.8099 89.6813 16.4922C89.5563 16.1693 89.4938 15.8464 89.4938 15.5234C89.4938 15.4245 89.5016 15.3255 89.5173 15.2266C90.361 14.5703 91.4521 14.2422 92.7907 14.2422C93.5303 14.2422 94.1865 14.3255 94.7594 14.4922C95.3324 14.6589 95.8037 14.9818 96.1735 15.4609C96.5433 15.9401 96.7282 16.6198 96.7282 17.5C96.7282 18.3594 96.6266 19.1927 96.4235 20C96.2256 20.8021 96.124 21.2109 96.1188 21.2266L97.2516 20.7422C97.4027 20.9036 97.5355 21.1016 97.6501 21.3359C97.7699 21.5651 97.8454 21.8307 97.8766 22.1328C97.8037 22.2891 97.6449 22.4896 97.4001 22.7344C97.1553 22.974 96.8558 23.1875 96.5016 23.375C96.1475 23.5625 95.7777 23.6562 95.3923 23.6562C94.96 23.6562 94.6318 23.5286 94.4079 23.2734C94.1891 23.0182 94.0798 22.6875 94.0798 22.2812C94.0798 22.0521 94.1136 21.8203 94.1813 21.5859L93.9469 21.5156C93.8011 22.3385 93.4912 22.901 93.0173 23.2031C92.5433 23.5052 92.0199 23.6562 91.4469 23.6562C91.0719 23.6562 90.71 23.5521 90.361 23.3438C90.012 23.1302 89.7282 22.8229 89.5094 22.4219C89.2907 22.0156 89.1813 21.5417 89.1813 21C89.1813 20.1354 89.3975 19.4792 89.8298 19.0312C90.262 18.5781 90.8896 18.3516 91.7126 18.3516ZM92.6032 21.3281C92.7334 21.3021 92.887 21.2292 93.0641 21.1094C93.2464 20.9896 93.4079 20.8464 93.5485 20.6797C93.6891 20.513 93.7725 20.3542 93.7985 20.2031L93.7516 20.0156C93.4756 19.9792 93.1813 19.9609 92.8688 19.9609C92.6032 19.9609 92.4209 19.9818 92.3219 20.0234C92.1553 20.2109 92.0719 20.4193 92.0719 20.6484C92.0719 20.8151 92.1136 20.9661 92.1969 21.1016C92.2855 21.237 92.4209 21.3125 92.6032 21.3281ZM98.6483 21.4062C98.6483 21.1823 98.6535 20.6328 98.6639 19.7578C98.6796 18.0391 98.6874 17.099 98.6874 16.9375L97.9686 16.8203C97.8697 16.5234 97.7994 16.2448 97.7577 15.9844C97.716 15.724 97.6952 15.4609 97.6952 15.1953C97.6952 15.0859 97.6978 15.0026 97.703 14.9453C97.7915 14.8672 97.9296 14.7734 98.1171 14.6641C98.3046 14.5547 98.5259 14.4583 98.7811 14.375C99.0363 14.2865 99.2968 14.2422 99.5624 14.2422C100.182 14.2422 100.63 14.3802 100.906 14.6562C101.187 14.9323 101.328 15.3359 101.328 15.8672C101.328 16.1901 101.286 16.6042 101.203 17.1094C101.125 17.6094 101.044 17.9661 100.961 18.1797L101.242 18.2266L101.711 16.4609C101.919 15.6641 102.18 15.0964 102.492 14.7578C102.805 14.4141 103.156 14.2422 103.547 14.2422C103.802 14.2422 104.055 14.2812 104.305 14.3594C104.56 14.4375 104.755 14.5339 104.891 14.6484C105.036 14.9714 105.109 15.401 105.109 15.9375C105.109 16.3125 105.073 16.6849 105 17.0547C104.927 17.4193 104.833 17.7135 104.719 17.9375L103.078 17.7188C102.745 18.0729 102.391 18.5651 102.016 19.1953C101.641 19.8203 101.341 20.3958 101.117 20.9219L101.109 21.3281L102.625 20.9688C102.88 21.3594 103.029 21.8229 103.07 22.3594C103.07 22.3906 102.953 22.5182 102.719 22.7422C102.484 22.9661 102.174 23.1745 101.789 23.3672C101.409 23.5547 100.971 23.6484 100.476 23.6484C99.966 23.6484 99.5389 23.513 99.1952 23.2422C98.8566 22.9661 98.677 22.5026 98.6561 21.8516C98.6509 21.7734 98.6483 21.625 98.6483 21.4062ZM105.912 19.1875C105.912 18.3385 105.925 17.5651 105.951 16.8672L105.1 16.7188C105.032 16.4583 104.985 16.2292 104.959 16.0312C104.933 15.8333 104.92 15.6224 104.92 15.3984L104.936 15.2422C104.951 15.1693 104.959 15.1094 104.959 15.0625L106.092 14.8125C106.118 14.4896 106.178 14.125 106.272 13.7188C106.365 13.3125 106.464 13.013 106.568 12.8203C106.735 12.6953 106.936 12.6016 107.17 12.5391C107.404 12.4766 107.657 12.4453 107.928 12.4453C108.157 12.4453 108.378 12.4688 108.592 12.5156C108.811 12.5573 109.001 12.6146 109.162 12.6875C109.178 12.8646 109.186 13.0677 109.186 13.2969C109.186 13.6719 109.167 14.0964 109.131 14.5703L110.506 14.3203C110.699 14.6536 110.795 15.0156 110.795 15.4062C110.795 15.6771 110.761 15.9219 110.693 16.1406C110.631 16.3594 110.542 16.6068 110.428 16.8828C110.084 16.9401 109.613 16.9766 109.014 16.9922C108.941 17.8411 108.779 19.0885 108.529 20.7344L108.49 21L108.506 21.0156L110.342 20.4453C110.722 20.763 110.954 21.2526 111.037 21.9141C111.037 21.9505 110.868 22.1224 110.529 22.4297C110.196 22.7318 109.777 23.013 109.272 23.2734C108.766 23.5286 108.217 23.6562 107.623 23.6562C106.587 23.6562 106.035 23.0234 105.967 21.7578C105.93 21.1172 105.912 20.2604 105.912 19.1875Z" fill="white"/>
</svg>
