<svg width="201" height="54" viewBox="0 0 201 54" fill="none" xmlns="http://www.w3.org/2000/svg">
<rect x="0.5" y="0.5" width="200" height="52.7529" rx="26.3765" stroke="black"/>
<path d="M48.704 34.8447H44.096V34.6527C44.096 34.2367 44.208 33.9647 44.432 33.8367C44.544 33.7887 44.68 33.7567 44.84 33.7407L45.944 33.6927L44.672 29.3007H39.584L38.312 33.6447L40.112 33.7887C40.176 34.4927 39.96 34.8447 39.464 34.8447H35.264V34.6527C35.264 34.2367 35.376 33.9647 35.6 33.8367C35.712 33.7887 35.848 33.7567 36.008 33.7407L36.968 33.6927L41.6 18.5727C42.112 18.5087 42.632 18.5087 43.16 18.5727L47.792 33.6447L49.352 33.7887C49.416 34.4927 49.2 34.8447 48.704 34.8447ZM39.944 28.1007H44.312L42.152 20.5887L39.944 28.1007ZM60.4004 35.2047C59.3444 35.2047 58.7764 34.6207 58.6964 33.4527C57.5284 34.6207 56.2724 35.2047 54.9284 35.2047C53.5844 35.2047 52.4644 34.7167 51.5684 33.7407C50.6884 32.7487 50.2244 31.2767 50.1764 29.3247C50.1284 27.3567 50.6084 25.7727 51.6164 24.5727C52.6404 23.3567 54.0644 22.7487 55.8884 22.7487C56.8644 22.7487 57.7924 22.9567 58.6724 23.3727V19.7007L57.4244 19.5567C57.0404 19.5247 56.8484 19.1807 56.8484 18.5247L60.3284 18.0927V33.8847L61.8644 34.0767C61.8324 34.8287 61.3444 35.2047 60.4004 35.2047ZM58.6724 25.2207C57.8084 24.4367 56.7604 24.0447 55.5284 24.0447C54.3124 24.0447 53.4084 24.5167 52.8164 25.4607C52.2404 26.3887 51.9524 27.5567 51.9524 28.9647C51.9524 30.3727 52.2404 31.5327 52.8164 32.4447C53.3924 33.3407 54.2724 33.7887 55.4564 33.7887C56.0484 33.7887 56.5764 33.6687 57.0404 33.4287C57.5044 33.1887 58.0484 32.8047 58.6724 32.2767V25.2207ZM73.0471 35.2047C71.9911 35.2047 71.4231 34.6207 71.3431 33.4527C70.1751 34.6207 68.9191 35.2047 67.5751 35.2047C66.2311 35.2047 65.1111 34.7167 64.2151 33.7407C63.3351 32.7487 62.8711 31.2767 62.8231 29.3247C62.7751 27.3567 63.2551 25.7727 64.2631 24.5727C65.2871 23.3567 66.7111 22.7487 68.5351 22.7487C69.5111 22.7487 70.4391 22.9567 71.3191 23.3727V19.7007L70.0711 19.5567C69.6871 19.5247 69.4951 19.1807 69.4951 18.5247L72.9751 18.0927V33.8847L74.5111 34.0767C74.4791 34.8287 73.9911 35.2047 73.0471 35.2047ZM71.3191 25.2207C70.4551 24.4367 69.4071 24.0447 68.1751 24.0447C66.9591 24.0447 66.0551 24.5167 65.4631 25.4607C64.8871 26.3887 64.5991 27.5567 64.5991 28.9647C64.5991 30.3727 64.8871 31.5327 65.4631 32.4447C66.0391 33.3407 66.9191 33.7887 68.1031 33.7887C68.6951 33.7887 69.2231 33.6687 69.6871 33.4287C70.1511 33.1887 70.6951 32.8047 71.3191 32.2767V25.2207ZM81.0277 18.5967H94.5397V21.4767C94.5397 21.9887 94.1877 22.2127 93.4837 22.1487L93.3157 19.8207H88.6837V33.6447L90.5077 33.7887C90.5717 34.4927 90.3477 34.8447 89.8357 34.8447H85.0597C85.0597 34.8447 85.0597 34.7807 85.0597 34.6527C85.0597 34.2367 85.1717 33.9647 85.3957 33.8367C85.5077 33.7887 85.6437 33.7567 85.8037 33.7407L86.9557 33.6927V19.8207H82.2517L82.0837 22.1487C81.3797 22.2127 81.0277 21.9887 81.0277 21.4767V18.5967ZM100.721 23.9967C99.6326 23.9967 98.7926 24.4687 98.2006 25.4127C97.6086 26.3567 97.3126 27.5647 97.3126 29.0367C97.3126 30.4927 97.6006 31.6847 98.1766 32.6127C98.7526 33.5247 99.5846 33.9807 100.673 33.9807C101.761 33.9647 102.601 33.5007 103.193 32.5887C103.785 31.6767 104.081 30.5007 104.081 29.0607C104.081 27.6047 103.793 26.3967 103.217 25.4367C102.657 24.4607 101.825 23.9807 100.721 23.9967ZM100.865 22.7487C102.081 22.7487 103.177 23.1327 104.153 23.9007C104.665 24.3167 105.073 24.9247 105.377 25.7247C105.697 26.5247 105.857 27.4847 105.857 28.6047C105.889 30.5887 105.425 32.1887 104.465 33.4047C103.505 34.6047 102.209 35.2047 100.577 35.2047C98.9446 35.2047 97.7046 34.6927 96.8566 33.6687C96.0086 32.6447 95.5686 31.1647 95.5366 29.2287C95.5206 27.2927 95.9926 25.7327 96.9526 24.5487C97.9286 23.3487 99.2326 22.7487 100.865 22.7487ZM114.122 18.5487H119.162C121.13 18.5487 122.618 18.9727 123.626 19.8207C124.634 20.6527 125.138 21.7407 125.138 23.0847C125.138 24.9087 124.538 26.2367 123.338 27.0687C122.154 27.9007 120.562 28.3167 118.562 28.3167C118.034 28.3167 117.506 28.2927 116.978 28.2447V33.6447L118.802 33.7887C118.866 34.4927 118.642 34.8447 118.13 34.8447H113.402C113.402 34.8447 113.402 34.7807 113.402 34.6527C113.402 34.2367 113.514 33.9647 113.738 33.8367C113.85 33.7887 113.986 33.7567 114.146 33.7407L115.25 33.6927V19.7487L113.498 19.6047C113.45 18.9007 113.658 18.5487 114.122 18.5487ZM118.346 27.1887C121.642 27.1887 123.29 25.9167 123.29 23.3727C123.29 20.6687 121.618 19.4207 118.274 19.6287L116.978 19.7007V27.1407C117.298 27.1727 117.754 27.1887 118.346 27.1887ZM130.821 34.8447H126.309V34.6527C126.309 34.1407 126.565 33.8607 127.077 33.8127L128.109 33.7647V19.6767L126.861 19.5567C126.477 19.5087 126.285 19.1727 126.285 18.5487L129.765 18.0927V33.7167L131.469 33.8607C131.533 34.5167 131.317 34.8447 130.821 34.8447ZM143.28 34.1007C143.28 34.8527 142.784 35.2287 141.792 35.2287C140.8 35.2287 140.224 34.7247 140.064 33.7167C139.04 34.7087 137.808 35.2047 136.368 35.2047C135.264 35.2047 134.384 34.9247 133.728 34.3647C133.088 33.7887 132.768 33.0127 132.768 32.0367C132.768 31.0607 133.128 30.2367 133.848 29.5647C134.568 28.8927 135.76 28.5567 137.424 28.5567C138.4 28.5567 139.264 28.6687 140.016 28.8927V26.9967C140.016 26.0847 139.784 25.3567 139.32 24.8127C138.872 24.2527 138.208 23.9727 137.328 23.9727C136.448 23.9727 135.816 24.2127 135.432 24.6927C135.064 25.1567 134.856 25.7007 134.808 26.3247C134.424 26.3567 134.104 26.2767 133.848 26.0847C133.592 25.8927 133.464 25.5807 133.464 25.1487C133.464 24.4607 133.816 23.8927 134.52 23.4447C135.224 22.9807 136.136 22.7487 137.256 22.7487C138.232 22.7487 139.16 22.9887 140.04 23.4687C140.536 23.7247 140.936 24.1487 141.24 24.7407C141.544 25.3327 141.696 26.0527 141.696 26.9007V33.9087L143.28 34.1007ZM140.016 30.3327C139.28 29.9327 138.424 29.7327 137.448 29.7327C136.472 29.7327 135.752 29.9167 135.288 30.2847C134.84 30.6527 134.616 31.1567 134.616 31.7967C134.616 32.4367 134.816 32.9487 135.216 33.3327C135.616 33.7007 136.168 33.8847 136.872 33.8847C137.992 33.8847 139.04 33.4527 140.016 32.5887V30.3327ZM156.767 34.8447H152.303V34.6527C152.303 34.2687 152.415 34.0287 152.639 33.9327C152.751 33.8687 152.887 33.8287 153.047 33.8127L154.103 33.7647V27.5487C154.103 25.3087 153.215 24.1887 151.439 24.1887C150.783 24.1887 150.191 24.3167 149.663 24.5727C149.135 24.8287 148.535 25.2367 147.863 25.7967V33.7167L149.567 33.8607C149.631 34.5167 149.415 34.8447 148.919 34.8447H144.407V34.6527C144.407 34.1407 144.663 33.8607 145.175 33.8127L146.207 33.7647V24.3087L144.959 24.1647C144.575 24.1327 144.383 23.8047 144.383 23.1807L147.479 22.7727L147.791 24.5967H147.863C149.159 23.3647 150.495 22.7487 151.871 22.7487C152.943 22.7487 153.855 23.1247 154.607 23.8767C155.375 24.6287 155.759 25.7887 155.759 27.3567V33.7167L157.439 33.8607C157.503 34.5167 157.279 34.8447 156.767 34.8447ZM161.382 33.9087C161.382 33.5407 161.502 33.2367 161.742 32.9967C161.998 32.7567 162.302 32.6367 162.654 32.6367C163.022 32.6367 163.326 32.7567 163.566 32.9967C163.806 33.2367 163.926 33.5407 163.926 33.9087C163.926 34.2767 163.806 34.5887 163.566 34.8447C163.326 35.0847 163.022 35.2047 162.654 35.2047C162.286 35.2047 161.982 35.0847 161.742 34.8447C161.502 34.5887 161.382 34.2767 161.382 33.9087ZM158.766 21.0927C158.766 20.2607 159.19 19.5087 160.038 18.8367C160.886 18.1487 162.03 17.8047 163.47 17.8047C164.926 17.8047 166.07 18.1647 166.902 18.8847C167.734 19.5887 168.15 20.5727 168.15 21.8367C168.15 23.1007 167.67 24.1967 166.71 25.1247C165.75 26.0527 164.646 26.6607 163.398 26.9487L163.254 30.3567C162.902 30.4047 162.51 30.4047 162.078 30.3567L161.958 26.0607C163.238 25.7407 164.286 25.2047 165.102 24.4527C165.934 23.7007 166.35 22.8127 166.35 21.7887C166.35 21.0047 166.086 20.3407 165.558 19.7967C165.046 19.2367 164.302 18.9567 163.326 18.9567C162.35 18.9567 161.59 19.2927 161.046 19.9647C160.502 20.6207 160.23 21.3807 160.23 22.2447C159.254 22.2447 158.766 21.8607 158.766 21.0927Z" fill="black"/>
</svg>
