<svg width="95" height="29" viewBox="0 0 95 29" fill="none" xmlns="http://www.w3.org/2000/svg">
<rect width="95" height="29" rx="14.5" fill="#D764D7" fill-opacity="0.87"/>
<mask id="path-2-outside-1_739_836" maskUnits="userSpaceOnUse" x="18" y="9" width="58" height="11" fill="black">
<rect fill="white" x="18" y="9" width="58" height="11"/>
<path d="M20.2979 16.4326C20.4964 16.4977 20.6771 16.5498 20.8398 16.5889C21.1556 15.3193 21.5153 13.8203 21.9189 12.0918L20.7422 11.9648C20.6673 11.7598 20.6299 11.527 20.6299 11.2666C20.6299 11.068 20.6527 10.8743 20.6982 10.6855C21.1702 10.5944 21.7139 10.5293 22.3291 10.4902C22.9476 10.4479 23.4782 10.4268 23.9209 10.4268C24.2399 10.4268 24.4792 10.4284 24.6387 10.4316L24.9463 10.6074C25.4932 12.1081 26.0482 14.1377 26.6113 16.6963C26.6178 16.7223 26.6292 16.7744 26.6455 16.8525C26.665 16.9307 26.6797 17.0055 26.6895 17.0771C26.6992 17.1455 26.7041 17.2106 26.7041 17.2725C26.7041 17.5459 26.6064 17.7673 26.4111 17.9365C26.1377 18.0439 25.8073 18.0977 25.4199 18.0977C25.2376 18.0977 25.0537 18.0781 24.8682 18.0391C24.6826 18 24.5573 17.9398 24.4922 17.8584L24.5508 16.5986L24.4287 15.9443C24.2171 15.9574 23.9681 15.9639 23.6816 15.9639C23.3757 15.9639 23.0892 15.9541 22.8223 15.9346L22.7637 16.1982C22.6367 16.7646 22.5326 17.1667 22.4512 17.4043C22.373 17.6419 22.2559 17.8177 22.0996 17.9316C21.9466 18.0456 21.7171 18.1025 21.4111 18.1025C21.2126 18.1025 21.0124 18.0765 20.8105 18.0244C20.6087 17.9756 20.4264 17.9089 20.2637 17.8242C20.1009 17.7396 19.9788 17.6484 19.8975 17.5508C19.8975 17.3164 19.9333 17.0934 20.0049 16.8818C20.0765 16.6702 20.1742 16.5205 20.2979 16.4326ZM23.7207 12.1357H23.4961L23.1445 14.543H24.2383L23.7207 12.1357ZM26.8088 15.1826C26.8088 14.6878 26.8772 14.2142 27.0139 13.7617C27.1538 13.3092 27.3719 12.9382 27.6682 12.6484C27.9677 12.3587 28.3436 12.2139 28.7961 12.2139C29.3039 12.2139 29.7889 12.375 30.2512 12.6973L30.3293 12.6484C30.3195 12.2676 30.2723 11.9225 30.1877 11.6133L29.1965 11.5498C29.1509 11.4912 29.1151 11.4049 29.0891 11.291C29.063 11.1738 29.05 11.0534 29.05 10.9297C29.05 10.7637 29.0695 10.6204 29.1086 10.5C29.3039 10.36 29.5546 10.2542 29.8606 10.1826C30.1665 10.111 30.4725 10.0752 30.7785 10.0752C31.1171 10.0752 31.3726 10.1468 31.5451 10.29C31.7177 10.43 31.8332 10.6432 31.8918 10.9297C31.9537 11.2129 31.9846 11.6068 31.9846 12.1113C31.9846 12.7754 31.9569 13.529 31.9016 14.3721C31.8462 15.2152 31.7746 15.9036 31.6867 16.4375L31.6672 16.5205L32.2336 16.2764C32.328 16.3773 32.411 16.501 32.4826 16.6475C32.5575 16.7907 32.6047 16.9567 32.6242 17.1455C32.5787 17.2432 32.4794 17.3685 32.3264 17.5215C32.1734 17.6712 31.9862 17.8047 31.7649 17.9219C31.5435 18.0391 31.3124 18.0977 31.0715 18.0977C30.8013 18.0977 30.593 18.0179 30.4465 17.8584C30.3033 17.6956 30.2316 17.4889 30.2316 17.2383C30.2316 17.1732 30.2479 17.0397 30.2805 16.8379C30.3163 16.6361 30.3456 16.4961 30.3684 16.418L30.2219 16.374C30.0559 16.9567 29.8361 17.3896 29.5627 17.6729C29.2893 17.9561 28.9507 18.0977 28.5471 18.0977C28.1141 18.0977 27.7675 17.9544 27.507 17.668C27.2499 17.3783 27.0692 17.0153 26.965 16.5791C26.8609 16.1429 26.8088 15.6774 26.8088 15.1826ZM30.1584 15.0947C30.1779 14.9775 30.1877 14.8408 30.1877 14.6846C30.1877 14.5837 30.1828 14.4876 30.1731 14.3965C30.1665 14.3053 30.1584 14.2402 30.1486 14.2012C30.0184 14.1068 29.8703 14.04 29.7043 14.001C29.5415 13.9619 29.3918 13.9424 29.2551 13.9424C29.1705 13.9424 29.0793 13.9505 28.9816 13.9668C28.9165 14.0319 28.8645 14.1735 28.8254 14.3916C28.7863 14.6064 28.7668 14.849 28.7668 15.1191C28.7668 15.4089 28.7863 15.6904 28.8254 15.9639C28.8677 16.234 28.9263 16.4456 29.0012 16.5986C29.0533 16.5986 29.1542 16.5189 29.3039 16.3594C29.4569 16.1966 29.6148 15.998 29.7775 15.7637C29.9403 15.526 30.0673 15.3031 30.1584 15.0947ZM32.5727 15.1826C32.5727 14.6878 32.641 14.2142 32.7778 13.7617C32.9177 13.3092 33.1358 12.9382 33.432 12.6484C33.7315 12.3587 34.1075 12.2139 34.56 12.2139C35.0678 12.2139 35.5528 12.375 36.0151 12.6973L36.0932 12.6484C36.0834 12.2676 36.0362 11.9225 35.9516 11.6133L34.9604 11.5498C34.9148 11.4912 34.879 11.4049 34.8529 11.291C34.8269 11.1738 34.8139 11.0534 34.8139 10.9297C34.8139 10.7637 34.8334 10.6204 34.8725 10.5C35.0678 10.36 35.3184 10.2542 35.6244 10.1826C35.9304 10.111 36.2364 10.0752 36.5424 10.0752C36.8809 10.0752 37.1365 10.1468 37.309 10.29C37.4815 10.43 37.5971 10.6432 37.6557 10.9297C37.7175 11.2129 37.7485 11.6068 37.7485 12.1113C37.7485 12.7754 37.7208 13.529 37.6654 14.3721C37.6101 15.2152 37.5385 15.9036 37.4506 16.4375L37.4311 16.5205L37.9975 16.2764C38.0919 16.3773 38.1749 16.501 38.2465 16.6475C38.3214 16.7907 38.3686 16.9567 38.3881 17.1455C38.3425 17.2432 38.2432 17.3685 38.0903 17.5215C37.9373 17.6712 37.7501 17.8047 37.5287 17.9219C37.3074 18.0391 37.0763 18.0977 36.8354 18.0977C36.5652 18.0977 36.3569 18.0179 36.2104 17.8584C36.0671 17.6956 35.9955 17.4889 35.9955 17.2383C35.9955 17.1732 36.0118 17.0397 36.0444 16.8379C36.0802 16.6361 36.1095 16.4961 36.1322 16.418L35.9858 16.374C35.8197 16.9567 35.6 17.3896 35.3266 17.6729C35.0531 17.9561 34.7146 18.0977 34.311 18.0977C33.878 18.0977 33.5313 17.9544 33.2709 17.668C33.0138 17.3783 32.8331 17.0153 32.7289 16.5791C32.6248 16.1429 32.5727 15.6774 32.5727 15.1826ZM35.9223 15.0947C35.9418 14.9775 35.9516 14.8408 35.9516 14.6846C35.9516 14.5837 35.9467 14.4876 35.9369 14.3965C35.9304 14.3053 35.9223 14.2402 35.9125 14.2012C35.7823 14.1068 35.6342 14.04 35.4682 14.001C35.3054 13.9619 35.1557 13.9424 35.019 13.9424C34.9343 13.9424 34.8432 13.9505 34.7455 13.9668C34.6804 14.0319 34.6283 14.1735 34.5893 14.3916C34.5502 14.6064 34.5307 14.849 34.5307 15.1191C34.5307 15.4089 34.5502 15.6904 34.5893 15.9639C34.6316 16.234 34.6902 16.4456 34.7651 16.5986C34.8171 16.5986 34.918 16.5189 35.0678 16.3594C35.2208 16.1966 35.3787 15.998 35.5414 15.7637C35.7042 15.526 35.8311 15.3031 35.9223 15.0947ZM43.0479 16.3398C43.2855 16.4342 43.4727 16.5075 43.6094 16.5596C43.7461 16.6117 43.8894 16.6572 44.0391 16.6963C44.0814 16.5889 44.1026 16.4424 44.1026 16.2568C44.1026 16.0062 44.0847 15.5472 44.0489 14.8799C43.9968 13.988 43.9707 13.3044 43.9707 12.8291C43.9707 12.5003 43.9805 12.2171 44 11.9795L43.1944 11.9307L43.1797 13.4688C42.9356 13.5501 42.6605 13.5908 42.3545 13.5908C42.2764 13.5908 42.2178 13.5892 42.1787 13.5859C42.0713 13.5013 41.959 13.3678 41.8418 13.1855C41.7279 13.0033 41.6335 12.7982 41.5586 12.5703C41.4838 12.3424 41.4463 12.1227 41.4463 11.9111C41.4463 11.5465 41.5065 11.2682 41.627 11.0762C41.7474 10.8841 41.9167 10.7523 42.1348 10.6807C42.3529 10.6058 42.6442 10.557 43.0088 10.5342C43.5752 10.5016 44.2409 10.4772 45.0059 10.4609C45.7741 10.4414 46.5082 10.4316 47.208 10.4316C47.3024 10.5521 47.3724 10.6872 47.418 10.8369C47.4668 10.9867 47.4912 11.1364 47.4912 11.2861C47.4912 11.5661 47.4196 11.8005 47.2764 11.9893C47.1332 12.1781 46.9216 12.2725 46.6416 12.2725C46.4593 12.2725 46.2396 12.2399 45.9825 12.1748C45.9239 13.7048 45.8392 15.1175 45.7286 16.4131C45.7058 16.6637 45.6683 16.8851 45.6162 17.0771C45.5642 17.2692 45.4844 17.4368 45.377 17.5801C45.2435 17.7559 45.0596 17.8861 44.8252 17.9707C44.5909 18.0553 44.3321 18.0977 44.0489 18.0977C43.7819 18.0977 43.5183 18.0505 43.2579 17.9561C43.0007 17.8617 42.807 17.6875 42.6768 17.4336C42.6801 17.222 42.7061 17.0348 42.7549 16.8721C42.8037 16.7061 42.9014 16.5286 43.0479 16.3398ZM47.01 15.1143C47.01 14.5251 47.1044 14.014 47.2932 13.5811C47.482 13.1481 47.7717 12.8128 48.1624 12.5752C48.553 12.3343 49.0429 12.2139 49.6321 12.2139C50.2831 12.2139 50.7942 12.3359 51.1653 12.5801C51.5364 12.821 51.7952 13.1562 51.9416 13.5859C52.0914 14.0156 52.1663 14.5413 52.1663 15.1631C52.1663 15.7262 52.067 16.2292 51.8684 16.6719C51.6731 17.1113 51.3769 17.4596 50.9797 17.7168C50.5859 17.9707 50.1025 18.0977 49.5295 18.0977C48.6441 18.0977 48.0028 17.8258 47.6057 17.2822C47.2086 16.7354 47.01 16.0127 47.01 15.1143ZM49.7297 16.667C49.8958 16.667 49.9967 16.654 50.0325 16.6279C50.1073 16.4977 50.1643 16.3138 50.2034 16.0762C50.2424 15.8385 50.262 15.5814 50.262 15.3047C50.262 15.0508 50.2457 14.8132 50.2131 14.5918C50.1806 14.3672 50.135 14.1914 50.0764 14.0645C50.0406 14.0221 49.969 13.9912 49.8616 13.9717C49.7541 13.9489 49.637 13.9375 49.51 13.9375C49.344 13.9375 49.2301 13.9554 49.1682 13.9912C49.0055 14.2712 48.9241 14.6602 48.9241 15.1582C48.9241 15.3926 48.942 15.6318 48.9778 15.876C49.0136 16.1201 49.0592 16.3415 49.1145 16.54C49.1536 16.5824 49.2333 16.6149 49.3538 16.6377C49.4742 16.6572 49.5995 16.667 49.7297 16.667ZM55.9569 14.2695C55.9569 13.5306 56.066 12.873 56.2841 12.2969C56.5054 11.7174 56.8505 11.2601 57.3192 10.9248C57.788 10.5895 58.3804 10.4219 59.0966 10.4219C59.5848 10.4219 60.1008 10.4854 60.6444 10.6123C60.8202 10.7165 60.9732 10.8255 61.1034 10.9395C61.2369 11.0501 61.3638 11.1852 61.4842 11.3447C61.4842 11.5758 61.4533 11.8835 61.3915 12.2676C61.3296 12.6484 61.2515 13.0049 61.1571 13.3369C61.066 13.6657 60.9781 13.8789 60.8934 13.9766C60.8088 14.0189 60.7372 14.0482 60.6786 14.0645C60.62 14.0775 60.5288 14.084 60.4051 14.084C60.2522 14.084 60.1089 14.0726 59.9755 14.0498C59.842 14.027 59.7411 13.9961 59.6727 13.957L59.5018 12.3115C59.2707 12.2464 58.9501 12.2139 58.5399 12.2139C58.4292 12.2139 58.3479 12.2155 58.2958 12.2188C58.1558 12.668 58.0777 13.2718 58.0614 14.0303C58.0581 14.1214 58.0565 14.2598 58.0565 14.4453C58.0565 14.8815 58.0793 15.2347 58.1249 15.5049C58.1672 15.7588 58.2128 15.9492 58.2616 16.0762C58.3104 16.2031 58.3951 16.3008 58.5155 16.3691C58.6392 16.4375 58.8231 16.4717 59.0673 16.4717C59.396 16.4717 59.6988 16.4245 59.9755 16.3301C60.2554 16.2324 60.5598 16.0908 60.8885 15.9053C61.0122 16.0387 61.1066 16.1478 61.1717 16.2324C61.2401 16.3171 61.302 16.4212 61.3573 16.5449C61.4159 16.6686 61.455 16.8102 61.4745 16.9697C61.4224 17.0771 61.2841 17.2204 61.0594 17.3994C60.8348 17.5785 60.5402 17.7396 60.1757 17.8828C59.8111 18.026 59.4025 18.0977 58.9501 18.0977C57.8921 18.0977 57.1288 17.7673 56.66 17.1064C56.1913 16.4456 55.9569 15.5 55.9569 14.2695ZM63.1319 14.7822C63.324 14.7822 63.5356 14.8018 63.7667 14.8408C64.0011 14.8799 64.2159 14.9271 64.4112 14.9824V14.8311C64.4112 14.7301 64.408 14.6178 64.4014 14.4941C64.3982 14.3704 64.3917 14.2891 64.3819 14.25C64.3526 14.1947 64.268 14.1377 64.128 14.0791C63.9913 14.0205 63.7667 13.9912 63.4542 13.9912C63.2621 13.9912 63.0636 14.0156 62.8585 14.0645C62.6567 14.11 62.432 14.1719 62.1846 14.25C62.0512 14.0286 61.9438 13.8187 61.8624 13.6201C61.7843 13.4183 61.7452 13.2165 61.7452 13.0146C61.7452 12.9528 61.7501 12.891 61.7598 12.8291C62.2872 12.4189 62.9692 12.2139 63.8057 12.2139C64.268 12.2139 64.6781 12.266 65.0362 12.3701C65.3943 12.4743 65.6889 12.6761 65.92 12.9756C66.1511 13.2751 66.2667 13.6999 66.2667 14.25C66.2667 14.7871 66.2032 15.3079 66.0762 15.8125C65.9526 16.3138 65.8891 16.5693 65.8858 16.5791L66.5938 16.2764C66.6882 16.3773 66.7712 16.501 66.8428 16.6475C66.9177 16.7907 66.9649 16.9567 66.9845 17.1455C66.9389 17.2432 66.8396 17.3685 66.6866 17.5215C66.5336 17.6712 66.3464 17.8047 66.1251 17.9219C65.9037 18.0391 65.6726 18.0977 65.4317 18.0977C65.1615 18.0977 64.9565 18.0179 64.8165 17.8584C64.6798 17.6989 64.6114 17.4922 64.6114 17.2383C64.6114 17.0951 64.6326 16.9502 64.6749 16.8037L64.5284 16.7598C64.4373 17.2741 64.2436 17.6257 63.9473 17.8145C63.6511 18.0033 63.324 18.0977 62.9659 18.0977C62.7315 18.0977 62.5053 18.0326 62.2872 17.9023C62.0691 17.7689 61.8917 17.5768 61.755 17.3262C61.6182 17.0723 61.5499 16.776 61.5499 16.4375C61.5499 15.8971 61.685 15.487 61.9552 15.207C62.2253 14.9238 62.6176 14.7822 63.1319 14.7822ZM63.6886 16.6426C63.7699 16.6263 63.866 16.5807 63.9766 16.5059C64.0906 16.431 64.1915 16.3415 64.2794 16.2373C64.3673 16.1331 64.4193 16.0339 64.4356 15.9395L64.4063 15.8223C64.2338 15.7995 64.0499 15.7881 63.8546 15.7881C63.6886 15.7881 63.5746 15.8011 63.5128 15.8271C63.4086 15.9443 63.3565 16.0745 63.3565 16.2178C63.3565 16.3219 63.3826 16.4163 63.4346 16.501C63.49 16.5856 63.5746 16.6328 63.6886 16.6426ZM67.3138 16.6914C67.3138 16.5514 67.317 16.208 67.3235 15.6611C67.3333 14.5869 67.3382 13.9993 67.3382 13.8984L66.889 13.8252C66.8271 13.6396 66.7832 13.4655 66.7571 13.3027C66.7311 13.14 66.7181 12.9756 66.7181 12.8096C66.7181 12.7412 66.7197 12.6891 66.7229 12.6533C66.7783 12.6045 66.8645 12.5459 66.9817 12.4775C67.0989 12.4092 67.2373 12.349 67.3968 12.2969C67.5563 12.2415 67.719 12.2139 67.885 12.2139C68.2724 12.2139 68.5524 12.3001 68.7249 12.4727C68.9007 12.6452 68.9886 12.8975 68.9886 13.2295C68.9886 13.4313 68.9625 13.6901 68.9104 14.0059C68.8616 14.3184 68.8112 14.5413 68.7591 14.6748L68.9349 14.7041L69.2278 13.6006C69.358 13.1025 69.5208 12.7477 69.7161 12.5361C69.9114 12.3213 70.1311 12.2139 70.3753 12.2139C70.5348 12.2139 70.6927 12.2383 70.8489 12.2871C71.0084 12.3359 71.1305 12.3962 71.2151 12.4678C71.3063 12.6696 71.3518 12.9382 71.3518 13.2734C71.3518 13.5078 71.3291 13.7406 71.2835 13.9717C71.2379 14.1995 71.1793 14.3835 71.1077 14.5234L70.0823 14.3867C69.874 14.6081 69.6526 14.9157 69.4183 15.3096C69.1839 15.7002 68.9967 16.0599 68.8567 16.3887L68.8518 16.6426L69.7991 16.418C69.9586 16.6621 70.0514 16.9518 70.0774 17.2871C70.0774 17.3066 70.0042 17.3864 69.8577 17.5264C69.7112 17.6663 69.5175 17.7965 69.2766 17.917C69.039 18.0342 68.7656 18.0928 68.4563 18.0928C68.1373 18.0928 67.8704 18.0081 67.6556 17.8389C67.444 17.6663 67.3317 17.3766 67.3186 16.9697C67.3154 16.9209 67.3138 16.8281 67.3138 16.6914ZM71.7007 15.3047C71.7007 14.7741 71.7088 14.2907 71.7251 13.8545L71.1929 13.7617C71.1505 13.599 71.1213 13.4557 71.105 13.332C71.0887 13.2083 71.0806 13.0765 71.0806 12.9365L71.0903 12.8389C71.1001 12.7933 71.105 12.7559 71.105 12.7266L71.813 12.5703C71.8293 12.3685 71.8667 12.1406 71.9253 11.8867C71.9839 11.6328 72.0457 11.4456 72.1108 11.3252C72.215 11.2471 72.3403 11.1885 72.4868 11.1494C72.6333 11.1104 72.7912 11.0908 72.9604 11.0908C73.1037 11.0908 73.242 11.1055 73.3755 11.1348C73.5122 11.1608 73.631 11.1966 73.7319 11.2422C73.7417 11.3529 73.7466 11.4798 73.7466 11.623C73.7466 11.8574 73.7352 12.1227 73.7124 12.4189L74.5718 12.2627C74.6922 12.471 74.7524 12.6973 74.7524 12.9414C74.7524 13.1107 74.7313 13.2637 74.689 13.4004C74.6499 13.5371 74.5946 13.6917 74.5229 13.8643C74.3081 13.9001 74.0135 13.9229 73.6392 13.9326C73.5936 14.4632 73.4927 15.2428 73.3364 16.2715L73.312 16.4375L73.3218 16.4473L74.4692 16.0908C74.7069 16.2894 74.8517 16.5954 74.9038 17.0088C74.9038 17.0316 74.798 17.139 74.5864 17.3311C74.3781 17.5199 74.116 17.6956 73.8003 17.8584C73.4845 18.0179 73.1411 18.0977 72.77 18.0977C72.1222 18.0977 71.7772 17.7021 71.7349 16.9111C71.7121 16.5107 71.7007 15.9753 71.7007 15.3047Z"/>
</mask>
<path d="M20.2979 16.4326C20.4964 16.4977 20.6771 16.5498 20.8398 16.5889C21.1556 15.3193 21.5153 13.8203 21.9189 12.0918L20.7422 11.9648C20.6673 11.7598 20.6299 11.527 20.6299 11.2666C20.6299 11.068 20.6527 10.8743 20.6982 10.6855C21.1702 10.5944 21.7139 10.5293 22.3291 10.4902C22.9476 10.4479 23.4782 10.4268 23.9209 10.4268C24.2399 10.4268 24.4792 10.4284 24.6387 10.4316L24.9463 10.6074C25.4932 12.1081 26.0482 14.1377 26.6113 16.6963C26.6178 16.7223 26.6292 16.7744 26.6455 16.8525C26.665 16.9307 26.6797 17.0055 26.6895 17.0771C26.6992 17.1455 26.7041 17.2106 26.7041 17.2725C26.7041 17.5459 26.6064 17.7673 26.4111 17.9365C26.1377 18.0439 25.8073 18.0977 25.4199 18.0977C25.2376 18.0977 25.0537 18.0781 24.8682 18.0391C24.6826 18 24.5573 17.9398 24.4922 17.8584L24.5508 16.5986L24.4287 15.9443C24.2171 15.9574 23.9681 15.9639 23.6816 15.9639C23.3757 15.9639 23.0892 15.9541 22.8223 15.9346L22.7637 16.1982C22.6367 16.7646 22.5326 17.1667 22.4512 17.4043C22.373 17.6419 22.2559 17.8177 22.0996 17.9316C21.9466 18.0456 21.7171 18.1025 21.4111 18.1025C21.2126 18.1025 21.0124 18.0765 20.8105 18.0244C20.6087 17.9756 20.4264 17.9089 20.2637 17.8242C20.1009 17.7396 19.9788 17.6484 19.8975 17.5508C19.8975 17.3164 19.9333 17.0934 20.0049 16.8818C20.0765 16.6702 20.1742 16.5205 20.2979 16.4326ZM23.7207 12.1357H23.4961L23.1445 14.543H24.2383L23.7207 12.1357ZM26.8088 15.1826C26.8088 14.6878 26.8772 14.2142 27.0139 13.7617C27.1538 13.3092 27.3719 12.9382 27.6682 12.6484C27.9677 12.3587 28.3436 12.2139 28.7961 12.2139C29.3039 12.2139 29.7889 12.375 30.2512 12.6973L30.3293 12.6484C30.3195 12.2676 30.2723 11.9225 30.1877 11.6133L29.1965 11.5498C29.1509 11.4912 29.1151 11.4049 29.0891 11.291C29.063 11.1738 29.05 11.0534 29.05 10.9297C29.05 10.7637 29.0695 10.6204 29.1086 10.5C29.3039 10.36 29.5546 10.2542 29.8606 10.1826C30.1665 10.111 30.4725 10.0752 30.7785 10.0752C31.1171 10.0752 31.3726 10.1468 31.5451 10.29C31.7177 10.43 31.8332 10.6432 31.8918 10.9297C31.9537 11.2129 31.9846 11.6068 31.9846 12.1113C31.9846 12.7754 31.9569 13.529 31.9016 14.3721C31.8462 15.2152 31.7746 15.9036 31.6867 16.4375L31.6672 16.5205L32.2336 16.2764C32.328 16.3773 32.411 16.501 32.4826 16.6475C32.5575 16.7907 32.6047 16.9567 32.6242 17.1455C32.5787 17.2432 32.4794 17.3685 32.3264 17.5215C32.1734 17.6712 31.9862 17.8047 31.7649 17.9219C31.5435 18.0391 31.3124 18.0977 31.0715 18.0977C30.8013 18.0977 30.593 18.0179 30.4465 17.8584C30.3033 17.6956 30.2316 17.4889 30.2316 17.2383C30.2316 17.1732 30.2479 17.0397 30.2805 16.8379C30.3163 16.6361 30.3456 16.4961 30.3684 16.418L30.2219 16.374C30.0559 16.9567 29.8361 17.3896 29.5627 17.6729C29.2893 17.9561 28.9507 18.0977 28.5471 18.0977C28.1141 18.0977 27.7675 17.9544 27.507 17.668C27.2499 17.3783 27.0692 17.0153 26.965 16.5791C26.8609 16.1429 26.8088 15.6774 26.8088 15.1826ZM30.1584 15.0947C30.1779 14.9775 30.1877 14.8408 30.1877 14.6846C30.1877 14.5837 30.1828 14.4876 30.1731 14.3965C30.1665 14.3053 30.1584 14.2402 30.1486 14.2012C30.0184 14.1068 29.8703 14.04 29.7043 14.001C29.5415 13.9619 29.3918 13.9424 29.2551 13.9424C29.1705 13.9424 29.0793 13.9505 28.9816 13.9668C28.9165 14.0319 28.8645 14.1735 28.8254 14.3916C28.7863 14.6064 28.7668 14.849 28.7668 15.1191C28.7668 15.4089 28.7863 15.6904 28.8254 15.9639C28.8677 16.234 28.9263 16.4456 29.0012 16.5986C29.0533 16.5986 29.1542 16.5189 29.3039 16.3594C29.4569 16.1966 29.6148 15.998 29.7775 15.7637C29.9403 15.526 30.0673 15.3031 30.1584 15.0947ZM32.5727 15.1826C32.5727 14.6878 32.641 14.2142 32.7778 13.7617C32.9177 13.3092 33.1358 12.9382 33.432 12.6484C33.7315 12.3587 34.1075 12.2139 34.56 12.2139C35.0678 12.2139 35.5528 12.375 36.0151 12.6973L36.0932 12.6484C36.0834 12.2676 36.0362 11.9225 35.9516 11.6133L34.9604 11.5498C34.9148 11.4912 34.879 11.4049 34.8529 11.291C34.8269 11.1738 34.8139 11.0534 34.8139 10.9297C34.8139 10.7637 34.8334 10.6204 34.8725 10.5C35.0678 10.36 35.3184 10.2542 35.6244 10.1826C35.9304 10.111 36.2364 10.0752 36.5424 10.0752C36.8809 10.0752 37.1365 10.1468 37.309 10.29C37.4815 10.43 37.5971 10.6432 37.6557 10.9297C37.7175 11.2129 37.7485 11.6068 37.7485 12.1113C37.7485 12.7754 37.7208 13.529 37.6654 14.3721C37.6101 15.2152 37.5385 15.9036 37.4506 16.4375L37.4311 16.5205L37.9975 16.2764C38.0919 16.3773 38.1749 16.501 38.2465 16.6475C38.3214 16.7907 38.3686 16.9567 38.3881 17.1455C38.3425 17.2432 38.2432 17.3685 38.0903 17.5215C37.9373 17.6712 37.7501 17.8047 37.5287 17.9219C37.3074 18.0391 37.0763 18.0977 36.8354 18.0977C36.5652 18.0977 36.3569 18.0179 36.2104 17.8584C36.0671 17.6956 35.9955 17.4889 35.9955 17.2383C35.9955 17.1732 36.0118 17.0397 36.0444 16.8379C36.0802 16.6361 36.1095 16.4961 36.1322 16.418L35.9858 16.374C35.8197 16.9567 35.6 17.3896 35.3266 17.6729C35.0531 17.9561 34.7146 18.0977 34.311 18.0977C33.878 18.0977 33.5313 17.9544 33.2709 17.668C33.0138 17.3783 32.8331 17.0153 32.7289 16.5791C32.6248 16.1429 32.5727 15.6774 32.5727 15.1826ZM35.9223 15.0947C35.9418 14.9775 35.9516 14.8408 35.9516 14.6846C35.9516 14.5837 35.9467 14.4876 35.9369 14.3965C35.9304 14.3053 35.9223 14.2402 35.9125 14.2012C35.7823 14.1068 35.6342 14.04 35.4682 14.001C35.3054 13.9619 35.1557 13.9424 35.019 13.9424C34.9343 13.9424 34.8432 13.9505 34.7455 13.9668C34.6804 14.0319 34.6283 14.1735 34.5893 14.3916C34.5502 14.6064 34.5307 14.849 34.5307 15.1191C34.5307 15.4089 34.5502 15.6904 34.5893 15.9639C34.6316 16.234 34.6902 16.4456 34.7651 16.5986C34.8171 16.5986 34.918 16.5189 35.0678 16.3594C35.2208 16.1966 35.3787 15.998 35.5414 15.7637C35.7042 15.526 35.8311 15.3031 35.9223 15.0947ZM43.0479 16.3398C43.2855 16.4342 43.4727 16.5075 43.6094 16.5596C43.7461 16.6117 43.8894 16.6572 44.0391 16.6963C44.0814 16.5889 44.1026 16.4424 44.1026 16.2568C44.1026 16.0062 44.0847 15.5472 44.0489 14.8799C43.9968 13.988 43.9707 13.3044 43.9707 12.8291C43.9707 12.5003 43.9805 12.2171 44 11.9795L43.1944 11.9307L43.1797 13.4688C42.9356 13.5501 42.6605 13.5908 42.3545 13.5908C42.2764 13.5908 42.2178 13.5892 42.1787 13.5859C42.0713 13.5013 41.959 13.3678 41.8418 13.1855C41.7279 13.0033 41.6335 12.7982 41.5586 12.5703C41.4838 12.3424 41.4463 12.1227 41.4463 11.9111C41.4463 11.5465 41.5065 11.2682 41.627 11.0762C41.7474 10.8841 41.9167 10.7523 42.1348 10.6807C42.3529 10.6058 42.6442 10.557 43.0088 10.5342C43.5752 10.5016 44.2409 10.4772 45.0059 10.4609C45.7741 10.4414 46.5082 10.4316 47.208 10.4316C47.3024 10.5521 47.3724 10.6872 47.418 10.8369C47.4668 10.9867 47.4912 11.1364 47.4912 11.2861C47.4912 11.5661 47.4196 11.8005 47.2764 11.9893C47.1332 12.1781 46.9216 12.2725 46.6416 12.2725C46.4593 12.2725 46.2396 12.2399 45.9825 12.1748C45.9239 13.7048 45.8392 15.1175 45.7286 16.4131C45.7058 16.6637 45.6683 16.8851 45.6162 17.0771C45.5642 17.2692 45.4844 17.4368 45.377 17.5801C45.2435 17.7559 45.0596 17.8861 44.8252 17.9707C44.5909 18.0553 44.3321 18.0977 44.0489 18.0977C43.7819 18.0977 43.5183 18.0505 43.2579 17.9561C43.0007 17.8617 42.807 17.6875 42.6768 17.4336C42.6801 17.222 42.7061 17.0348 42.7549 16.8721C42.8037 16.7061 42.9014 16.5286 43.0479 16.3398ZM47.01 15.1143C47.01 14.5251 47.1044 14.014 47.2932 13.5811C47.482 13.1481 47.7717 12.8128 48.1624 12.5752C48.553 12.3343 49.0429 12.2139 49.6321 12.2139C50.2831 12.2139 50.7942 12.3359 51.1653 12.5801C51.5364 12.821 51.7952 13.1562 51.9416 13.5859C52.0914 14.0156 52.1663 14.5413 52.1663 15.1631C52.1663 15.7262 52.067 16.2292 51.8684 16.6719C51.6731 17.1113 51.3769 17.4596 50.9797 17.7168C50.5859 17.9707 50.1025 18.0977 49.5295 18.0977C48.6441 18.0977 48.0028 17.8258 47.6057 17.2822C47.2086 16.7354 47.01 16.0127 47.01 15.1143ZM49.7297 16.667C49.8958 16.667 49.9967 16.654 50.0325 16.6279C50.1073 16.4977 50.1643 16.3138 50.2034 16.0762C50.2424 15.8385 50.262 15.5814 50.262 15.3047C50.262 15.0508 50.2457 14.8132 50.2131 14.5918C50.1806 14.3672 50.135 14.1914 50.0764 14.0645C50.0406 14.0221 49.969 13.9912 49.8616 13.9717C49.7541 13.9489 49.637 13.9375 49.51 13.9375C49.344 13.9375 49.2301 13.9554 49.1682 13.9912C49.0055 14.2712 48.9241 14.6602 48.9241 15.1582C48.9241 15.3926 48.942 15.6318 48.9778 15.876C49.0136 16.1201 49.0592 16.3415 49.1145 16.54C49.1536 16.5824 49.2333 16.6149 49.3538 16.6377C49.4742 16.6572 49.5995 16.667 49.7297 16.667ZM55.9569 14.2695C55.9569 13.5306 56.066 12.873 56.2841 12.2969C56.5054 11.7174 56.8505 11.2601 57.3192 10.9248C57.788 10.5895 58.3804 10.4219 59.0966 10.4219C59.5848 10.4219 60.1008 10.4854 60.6444 10.6123C60.8202 10.7165 60.9732 10.8255 61.1034 10.9395C61.2369 11.0501 61.3638 11.1852 61.4842 11.3447C61.4842 11.5758 61.4533 11.8835 61.3915 12.2676C61.3296 12.6484 61.2515 13.0049 61.1571 13.3369C61.066 13.6657 60.9781 13.8789 60.8934 13.9766C60.8088 14.0189 60.7372 14.0482 60.6786 14.0645C60.62 14.0775 60.5288 14.084 60.4051 14.084C60.2522 14.084 60.1089 14.0726 59.9755 14.0498C59.842 14.027 59.7411 13.9961 59.6727 13.957L59.5018 12.3115C59.2707 12.2464 58.9501 12.2139 58.5399 12.2139C58.4292 12.2139 58.3479 12.2155 58.2958 12.2188C58.1558 12.668 58.0777 13.2718 58.0614 14.0303C58.0581 14.1214 58.0565 14.2598 58.0565 14.4453C58.0565 14.8815 58.0793 15.2347 58.1249 15.5049C58.1672 15.7588 58.2128 15.9492 58.2616 16.0762C58.3104 16.2031 58.3951 16.3008 58.5155 16.3691C58.6392 16.4375 58.8231 16.4717 59.0673 16.4717C59.396 16.4717 59.6988 16.4245 59.9755 16.3301C60.2554 16.2324 60.5598 16.0908 60.8885 15.9053C61.0122 16.0387 61.1066 16.1478 61.1717 16.2324C61.2401 16.3171 61.302 16.4212 61.3573 16.5449C61.4159 16.6686 61.455 16.8102 61.4745 16.9697C61.4224 17.0771 61.2841 17.2204 61.0594 17.3994C60.8348 17.5785 60.5402 17.7396 60.1757 17.8828C59.8111 18.026 59.4025 18.0977 58.9501 18.0977C57.8921 18.0977 57.1288 17.7673 56.66 17.1064C56.1913 16.4456 55.9569 15.5 55.9569 14.2695ZM63.1319 14.7822C63.324 14.7822 63.5356 14.8018 63.7667 14.8408C64.0011 14.8799 64.2159 14.9271 64.4112 14.9824V14.8311C64.4112 14.7301 64.408 14.6178 64.4014 14.4941C64.3982 14.3704 64.3917 14.2891 64.3819 14.25C64.3526 14.1947 64.268 14.1377 64.128 14.0791C63.9913 14.0205 63.7667 13.9912 63.4542 13.9912C63.2621 13.9912 63.0636 14.0156 62.8585 14.0645C62.6567 14.11 62.432 14.1719 62.1846 14.25C62.0512 14.0286 61.9438 13.8187 61.8624 13.6201C61.7843 13.4183 61.7452 13.2165 61.7452 13.0146C61.7452 12.9528 61.7501 12.891 61.7598 12.8291C62.2872 12.4189 62.9692 12.2139 63.8057 12.2139C64.268 12.2139 64.6781 12.266 65.0362 12.3701C65.3943 12.4743 65.6889 12.6761 65.92 12.9756C66.1511 13.2751 66.2667 13.6999 66.2667 14.25C66.2667 14.7871 66.2032 15.3079 66.0762 15.8125C65.9526 16.3138 65.8891 16.5693 65.8858 16.5791L66.5938 16.2764C66.6882 16.3773 66.7712 16.501 66.8428 16.6475C66.9177 16.7907 66.9649 16.9567 66.9845 17.1455C66.9389 17.2432 66.8396 17.3685 66.6866 17.5215C66.5336 17.6712 66.3464 17.8047 66.1251 17.9219C65.9037 18.0391 65.6726 18.0977 65.4317 18.0977C65.1615 18.0977 64.9565 18.0179 64.8165 17.8584C64.6798 17.6989 64.6114 17.4922 64.6114 17.2383C64.6114 17.0951 64.6326 16.9502 64.6749 16.8037L64.5284 16.7598C64.4373 17.2741 64.2436 17.6257 63.9473 17.8145C63.6511 18.0033 63.324 18.0977 62.9659 18.0977C62.7315 18.0977 62.5053 18.0326 62.2872 17.9023C62.0691 17.7689 61.8917 17.5768 61.755 17.3262C61.6182 17.0723 61.5499 16.776 61.5499 16.4375C61.5499 15.8971 61.685 15.487 61.9552 15.207C62.2253 14.9238 62.6176 14.7822 63.1319 14.7822ZM63.6886 16.6426C63.7699 16.6263 63.866 16.5807 63.9766 16.5059C64.0906 16.431 64.1915 16.3415 64.2794 16.2373C64.3673 16.1331 64.4193 16.0339 64.4356 15.9395L64.4063 15.8223C64.2338 15.7995 64.0499 15.7881 63.8546 15.7881C63.6886 15.7881 63.5746 15.8011 63.5128 15.8271C63.4086 15.9443 63.3565 16.0745 63.3565 16.2178C63.3565 16.3219 63.3826 16.4163 63.4346 16.501C63.49 16.5856 63.5746 16.6328 63.6886 16.6426ZM67.3138 16.6914C67.3138 16.5514 67.317 16.208 67.3235 15.6611C67.3333 14.5869 67.3382 13.9993 67.3382 13.8984L66.889 13.8252C66.8271 13.6396 66.7832 13.4655 66.7571 13.3027C66.7311 13.14 66.7181 12.9756 66.7181 12.8096C66.7181 12.7412 66.7197 12.6891 66.7229 12.6533C66.7783 12.6045 66.8645 12.5459 66.9817 12.4775C67.0989 12.4092 67.2373 12.349 67.3968 12.2969C67.5563 12.2415 67.719 12.2139 67.885 12.2139C68.2724 12.2139 68.5524 12.3001 68.7249 12.4727C68.9007 12.6452 68.9886 12.8975 68.9886 13.2295C68.9886 13.4313 68.9625 13.6901 68.9104 14.0059C68.8616 14.3184 68.8112 14.5413 68.7591 14.6748L68.9349 14.7041L69.2278 13.6006C69.358 13.1025 69.5208 12.7477 69.7161 12.5361C69.9114 12.3213 70.1311 12.2139 70.3753 12.2139C70.5348 12.2139 70.6927 12.2383 70.8489 12.2871C71.0084 12.3359 71.1305 12.3962 71.2151 12.4678C71.3063 12.6696 71.3518 12.9382 71.3518 13.2734C71.3518 13.5078 71.3291 13.7406 71.2835 13.9717C71.2379 14.1995 71.1793 14.3835 71.1077 14.5234L70.0823 14.3867C69.874 14.6081 69.6526 14.9157 69.4183 15.3096C69.1839 15.7002 68.9967 16.0599 68.8567 16.3887L68.8518 16.6426L69.7991 16.418C69.9586 16.6621 70.0514 16.9518 70.0774 17.2871C70.0774 17.3066 70.0042 17.3864 69.8577 17.5264C69.7112 17.6663 69.5175 17.7965 69.2766 17.917C69.039 18.0342 68.7656 18.0928 68.4563 18.0928C68.1373 18.0928 67.8704 18.0081 67.6556 17.8389C67.444 17.6663 67.3317 17.3766 67.3186 16.9697C67.3154 16.9209 67.3138 16.8281 67.3138 16.6914ZM71.7007 15.3047C71.7007 14.7741 71.7088 14.2907 71.7251 13.8545L71.1929 13.7617C71.1505 13.599 71.1213 13.4557 71.105 13.332C71.0887 13.2083 71.0806 13.0765 71.0806 12.9365L71.0903 12.8389C71.1001 12.7933 71.105 12.7559 71.105 12.7266L71.813 12.5703C71.8293 12.3685 71.8667 12.1406 71.9253 11.8867C71.9839 11.6328 72.0457 11.4456 72.1108 11.3252C72.215 11.2471 72.3403 11.1885 72.4868 11.1494C72.6333 11.1104 72.7912 11.0908 72.9604 11.0908C73.1037 11.0908 73.242 11.1055 73.3755 11.1348C73.5122 11.1608 73.631 11.1966 73.7319 11.2422C73.7417 11.3529 73.7466 11.4798 73.7466 11.623C73.7466 11.8574 73.7352 12.1227 73.7124 12.4189L74.5718 12.2627C74.6922 12.471 74.7524 12.6973 74.7524 12.9414C74.7524 13.1107 74.7313 13.2637 74.689 13.4004C74.6499 13.5371 74.5946 13.6917 74.5229 13.8643C74.3081 13.9001 74.0135 13.9229 73.6392 13.9326C73.5936 14.4632 73.4927 15.2428 73.3364 16.2715L73.312 16.4375L73.3218 16.4473L74.4692 16.0908C74.7069 16.2894 74.8517 16.5954 74.9038 17.0088C74.9038 17.0316 74.798 17.139 74.5864 17.3311C74.3781 17.5199 74.116 17.6956 73.8003 17.8584C73.4845 18.0179 73.1411 18.0977 72.77 18.0977C72.1222 18.0977 71.7772 17.7021 71.7349 16.9111C71.7121 16.5107 71.7007 15.9753 71.7007 15.3047Z" fill="white"/>
<path d="M20.2979 16.4326L20.6094 15.4824L20.13 15.3252L19.7186 15.6174L20.2979 16.4326ZM20.8398 16.5889L20.6065 17.5613L21.5709 17.7927L21.8103 16.8302L20.8398 16.5889ZM21.9189 12.0918L22.8927 12.3192L23.1497 11.2188L22.0262 11.0976L21.9189 12.0918ZM20.7422 11.9648L19.8028 12.3078L20.0162 12.8923L20.6349 12.9591L20.7422 11.9648ZM20.6982 10.6855L20.5086 9.70369L19.8771 9.82564L19.7262 10.4509L20.6982 10.6855ZM22.3291 10.4902L22.3925 11.4882L22.3974 11.4879L22.3291 10.4902ZM24.6387 10.4316L25.1348 9.5634L24.9137 9.43705L24.6591 9.43185L24.6387 10.4316ZM24.9463 10.6074L25.8858 10.265L25.7604 9.9209L25.4424 9.73918L24.9463 10.6074ZM26.6113 16.6963L25.6347 16.9112L25.6377 16.9251L25.6412 16.9388L26.6113 16.6963ZM26.6455 16.8525L25.6665 17.0565L25.6706 17.0759L25.6754 17.0951L26.6455 16.8525ZM26.6895 17.0771L25.6986 17.2123L25.6995 17.2186L26.6895 17.0771ZM26.4111 17.9365L26.7768 18.8673L26.9364 18.8046L27.0661 18.6922L26.4111 17.9365ZM24.4922 17.8584L23.4933 17.8119L23.4757 18.1886L23.7113 18.4831L24.4922 17.8584ZM24.5508 16.5986L25.5497 16.6451L25.5551 16.5292L25.5338 16.4152L24.5508 16.5986ZM24.4287 15.9443L25.4117 15.7609L25.2496 14.8919L24.3673 14.9462L24.4287 15.9443ZM22.8223 15.9346L22.8952 14.9372L22.0335 14.8742L21.8461 15.7176L22.8223 15.9346ZM22.7637 16.1982L23.7395 16.417L23.7399 16.4152L22.7637 16.1982ZM22.4512 17.4043L21.505 17.0803L21.5012 17.092L22.4512 17.4043ZM22.0996 17.9316L21.5104 17.1236L21.5023 17.1296L22.0996 17.9316ZM20.8105 18.0244L21.0604 17.0561L21.0531 17.0542L21.0457 17.0525L20.8105 18.0244ZM19.8975 17.5508H18.8975V17.9128L19.1292 18.191L19.8975 17.5508ZM20.0049 16.8818L19.0577 16.5612L20.0049 16.8818ZM23.7207 12.1357L24.6984 11.9255L24.5285 11.1357H23.7207V12.1357ZM23.4961 12.1357V11.1357H22.6315L22.5066 11.9912L23.4961 12.1357ZM23.1445 14.543L22.155 14.3985L21.9879 15.543H23.1445V14.543ZM24.2383 14.543V15.543H25.4761L25.2159 14.3328L24.2383 14.543ZM19.9863 17.3828C20.2046 17.4544 20.4119 17.5145 20.6065 17.5613L21.0732 15.6165C20.9423 15.5851 20.7882 15.541 20.6094 15.4824L19.9863 17.3828ZM21.8103 16.8302C22.1275 15.5548 22.4884 14.0509 22.8927 12.3192L20.9451 11.8644C20.5422 13.5898 20.1837 15.0839 19.8694 16.3475L21.8103 16.8302ZM22.0262 11.0976L20.8494 10.9706L20.6349 12.9591L21.8117 13.086L22.0262 11.0976ZM21.6815 11.6219C21.6537 11.5456 21.6299 11.432 21.6299 11.2666H19.6299C19.6299 11.622 19.6809 11.9739 19.8028 12.3078L21.6815 11.6219ZM21.6299 11.2666C21.6299 11.1453 21.6437 11.0304 21.6703 10.9202L19.7262 10.4509C19.6616 10.7183 19.6299 10.9908 19.6299 11.2666H21.6299ZM20.8878 11.6674C21.3084 11.5862 21.8084 11.5253 22.3925 11.4882L22.2657 9.49224C21.6193 9.53329 21.032 9.60261 20.5086 9.70369L20.8878 11.6674ZM22.3974 11.4879C23.0013 11.4466 23.5079 11.4268 23.9209 11.4268V9.42676C23.4484 9.42676 22.8938 9.44926 22.2608 9.49257L22.3974 11.4879ZM23.9209 11.4268C24.2384 11.4268 24.4693 11.4284 24.6183 11.4314L24.6591 9.43185C24.489 9.42838 24.2414 9.42676 23.9209 9.42676V11.4268ZM24.1425 11.2999L24.4502 11.4757L25.4424 9.73918L25.1348 9.5634L24.1425 11.2999ZM24.0067 10.9498C24.532 12.3911 25.0759 14.3723 25.6347 16.9112L27.588 16.4813C27.0205 13.9031 26.4544 11.8251 25.8858 10.265L24.0067 10.9498ZM25.6412 16.9388C25.6407 16.937 25.6426 16.9448 25.6479 16.9686C25.6526 16.9902 25.6588 17.0193 25.6665 17.0565L27.6245 16.6486C27.6089 16.5736 27.5936 16.5022 27.5815 16.4538L25.6412 16.9388ZM25.6754 17.0951C25.687 17.1417 25.6943 17.1806 25.6986 17.2123L27.6803 16.942C27.6651 16.8305 27.643 16.7196 27.6157 16.61L25.6754 17.0951ZM25.6995 17.2186C25.7033 17.2454 25.7041 17.263 25.7041 17.2725H27.7041C27.7041 17.1582 27.6951 17.0456 27.6794 16.9357L25.6995 17.2186ZM25.7041 17.2725C25.7041 17.2883 25.7018 17.272 25.7159 17.2399C25.7225 17.225 25.7307 17.2113 25.7393 17.1998C25.7478 17.1885 25.7544 17.1824 25.7562 17.1808L27.0661 18.6922C27.4946 18.3208 27.7041 17.8168 27.7041 17.2725H25.7041ZM26.0455 17.0058C25.9191 17.0554 25.7199 17.0977 25.4199 17.0977V19.0977C25.8947 19.0977 26.3563 19.0325 26.7768 18.8673L26.0455 17.0058ZM25.4199 17.0977C25.3096 17.0977 25.1947 17.0859 25.0742 17.0605L24.6622 19.0176C24.9127 19.0704 25.1657 19.0977 25.4199 19.0977V17.0977ZM25.0742 17.0605C25.0336 17.052 25.0377 17.0486 25.0681 17.0633C25.0976 17.0774 25.186 17.1249 25.2731 17.2337L23.7113 18.4831C23.9997 18.8435 24.4142 18.9654 24.6622 19.0176L25.0742 17.0605ZM25.4911 17.9049L25.5497 16.6451L23.5519 16.5522L23.4933 17.8119L25.4911 17.9049ZM25.5338 16.4152L25.4117 15.7609L23.4457 16.1277L23.5677 16.782L25.5338 16.4152ZM24.3673 14.9462C24.1818 14.9576 23.9542 14.9639 23.6816 14.9639V16.9639C23.982 16.9639 24.2524 16.9571 24.4901 16.9424L24.3673 14.9462ZM23.6816 14.9639C23.3966 14.9639 23.1347 14.9548 22.8952 14.9372L22.7493 16.9319C23.0436 16.9534 23.3547 16.9639 23.6816 16.9639V14.9639ZM21.8461 15.7176L21.7875 15.9813L23.7399 16.4152L23.7985 16.1515L21.8461 15.7176ZM21.7879 15.9795C21.6613 16.5442 21.5671 16.8992 21.5051 17.0803L23.3972 17.7283C23.498 17.4342 23.6121 16.9851 23.7395 16.417L21.7879 15.9795ZM21.5012 17.092C21.4853 17.1403 21.473 17.1592 21.4726 17.1597C21.4726 17.1597 21.4733 17.1586 21.4749 17.1566C21.4766 17.1545 21.479 17.1517 21.4822 17.1482C21.489 17.1411 21.4984 17.1324 21.5104 17.1236L22.6888 18.7396C23.0579 18.4705 23.2768 18.0949 23.4011 17.7166L21.5012 17.092ZM21.5023 17.1296C21.5545 17.0908 21.5877 17.0853 21.5718 17.0893C21.555 17.0934 21.5053 17.1025 21.4111 17.1025V19.1025C21.8122 19.1025 22.2949 19.033 22.6969 18.7337L21.5023 17.1296ZM21.4111 17.1025C21.3009 17.1025 21.1847 17.0882 21.0604 17.0561L20.5607 18.9927C20.8401 19.0648 21.1242 19.1025 21.4111 19.1025V17.1025ZM21.0457 17.0525C20.9123 17.0202 20.8074 16.9798 20.725 16.937L19.8023 18.7114C20.0455 18.8379 20.3052 18.931 20.5754 18.9964L21.0457 17.0525ZM20.725 16.937C20.6822 16.9147 20.6584 16.8986 20.6483 16.8911C20.6381 16.8835 20.6475 16.8888 20.6657 16.9106L19.1292 18.191C19.3243 18.4251 19.5698 18.5905 19.8023 18.7114L20.725 16.937ZM20.8975 17.5508C20.8975 17.42 20.9171 17.3057 20.9521 17.2024L19.0577 16.5612C18.9494 16.8811 18.8975 17.2128 18.8975 17.5508H20.8975ZM20.9521 17.2024C20.9674 17.1573 20.9762 17.1467 20.9694 17.1571C20.9617 17.1689 20.9339 17.2074 20.8771 17.2478L19.7186 15.6174C19.3594 15.8727 19.1664 16.24 19.0577 16.5612L20.9521 17.2024ZM23.7207 11.1357H23.4961V13.1357H23.7207V11.1357ZM22.5066 11.9912L22.155 14.3985L24.134 14.6875L24.4856 12.2803L22.5066 11.9912ZM23.1445 15.543H24.2383V13.543H23.1445V15.543ZM25.2159 14.3328L24.6984 11.9255L22.743 12.3459L23.2606 14.7532L25.2159 14.3328ZM27.0139 13.7617L26.0585 13.4662L26.0566 13.4725L27.0139 13.7617ZM27.6682 12.6484L26.9729 11.9297L26.969 11.9335L27.6682 12.6484ZM30.2512 12.6973L29.6793 13.5176L30.2211 13.8953L30.7812 13.5453L30.2512 12.6973ZM30.3293 12.6484L30.8593 13.4964L31.3436 13.1937L31.329 12.6228L30.3293 12.6484ZM30.1877 11.6133L31.1522 11.3493L30.9638 10.6609L30.2516 10.6153L30.1877 11.6133ZM29.1965 11.5498L28.4071 12.1637L28.6834 12.519L29.1326 12.5478L29.1965 11.5498ZM29.0891 11.291L28.1129 11.508L28.1142 11.5138L29.0891 11.291ZM29.1086 10.5L28.5261 9.68718L28.2588 9.87872L28.1574 10.1915L29.1086 10.5ZM31.5451 10.29L30.9063 11.0595L30.9151 11.0666L31.5451 10.29ZM31.8918 10.9297L30.912 11.1301L30.9148 11.143L31.8918 10.9297ZM31.6867 16.4375L32.6601 16.6665L32.6679 16.6335L32.6734 16.5999L31.6867 16.4375ZM31.6672 16.5205L30.6938 16.2915L30.2388 18.2251L32.063 17.4388L31.6672 16.5205ZM32.2336 16.2764L32.9639 15.5932L32.4835 15.0797L31.8378 15.358L32.2336 16.2764ZM32.4826 16.6475L31.5842 17.0867L31.5902 17.0988L31.5964 17.1107L32.4826 16.6475ZM32.6242 17.1455L33.5304 17.5684L33.6474 17.3177L33.6189 17.0426L32.6242 17.1455ZM32.3264 17.5215L33.0259 18.2362L33.0335 18.2286L32.3264 17.5215ZM30.4465 17.8584L29.6958 18.519L29.7028 18.527L29.71 18.5348L30.4465 17.8584ZM30.2805 16.8379L29.2959 16.6632L29.2945 16.6709L29.2932 16.6787L30.2805 16.8379ZM30.3684 16.418L31.3284 16.698L31.6062 15.7453L30.6557 15.4601L30.3684 16.418ZM30.2219 16.374L30.5092 15.4162L29.538 15.1248L29.2602 16.1L30.2219 16.374ZM27.507 17.668L26.7591 18.3319L26.7671 18.3406L27.507 17.668ZM30.1584 15.0947L31.0746 15.4955L31.1244 15.3817L31.1448 15.2591L30.1584 15.0947ZM30.1731 14.3965L29.1756 14.4677L29.1769 14.4854L29.1787 14.503L30.1731 14.3965ZM30.1486 14.2012L31.1188 13.9586L31.0305 13.6053L30.7356 13.3916L30.1486 14.2012ZM29.7043 14.001L29.4709 14.9734L29.4753 14.9744L29.7043 14.001ZM28.9816 13.9668L28.8172 12.9804L28.5011 13.0331L28.2745 13.2597L28.9816 13.9668ZM28.8254 14.3916L29.8093 14.5705L29.8097 14.5679L28.8254 14.3916ZM28.8254 15.9639L27.8354 16.1053L27.8374 16.1186L28.8254 15.9639ZM29.0012 16.5986L28.103 17.0382L28.3772 17.5986H29.0012V16.5986ZM29.3039 16.3594L28.5753 15.6745L28.5748 15.6749L29.3039 16.3594ZM29.7775 15.7637L30.5989 16.3341L30.6026 16.3288L29.7775 15.7637ZM27.8088 15.1826C27.8088 14.7812 27.8641 14.4053 27.9711 14.051L26.0566 13.4725C25.8903 14.0231 25.8088 14.5944 25.8088 15.1826H27.8088ZM27.9692 14.0573C28.0671 13.7407 28.2062 13.521 28.3674 13.3634L26.969 11.9335C26.5377 12.3553 26.2406 12.8778 26.0585 13.4662L27.9692 14.0573ZM28.3635 13.3672C28.4596 13.2742 28.5787 13.2139 28.7961 13.2139V11.2139C28.1086 11.2139 27.4757 11.4433 26.9729 11.9297L28.3635 13.3672ZM28.7961 13.2139C29.0772 13.2139 29.3656 13.2989 29.6793 13.5176L30.8231 11.8769C30.2123 11.4511 29.5307 11.2139 28.7961 11.2139V13.2139ZM30.7812 13.5453L30.8593 13.4964L29.7993 11.8004L29.7212 11.8493L30.7812 13.5453ZM31.329 12.6228C31.3175 12.176 31.2617 11.7492 31.1522 11.3493L29.2232 11.8773C29.283 12.0958 29.3216 12.3592 29.3296 12.6741L31.329 12.6228ZM30.2516 10.6153L29.2604 10.5518L29.1326 12.5478L30.1238 12.6112L30.2516 10.6153ZM29.9858 10.9359C30.0299 10.9925 30.0511 11.0386 30.059 11.0578C30.0673 11.0776 30.0674 11.0833 30.0639 11.0682L28.1142 11.5138C28.1561 11.697 28.2351 11.9426 28.4071 12.1637L29.9858 10.9359ZM30.0653 11.0741C30.0555 11.0303 30.05 10.9826 30.05 10.9297H28.05C28.05 11.1241 28.0705 11.3174 28.1129 11.5079L30.0653 11.0741ZM30.05 10.9297C30.05 10.8378 30.0613 10.8038 30.0598 10.8085L28.1574 10.1915C28.0777 10.4371 28.05 10.6896 28.05 10.9297H30.05ZM29.6911 11.3128C29.7526 11.2687 29.8727 11.2068 30.0884 11.1563L29.6327 9.20893C29.2364 9.30166 28.8552 9.4513 28.5261 9.68718L29.6911 11.3128ZM30.0884 11.1563C30.3218 11.1017 30.5513 11.0752 30.7785 11.0752V9.0752C30.3938 9.0752 30.0113 9.12031 29.6327 9.20893L30.0884 11.1563ZM30.7785 11.0752C30.8803 11.0752 30.9346 11.0863 30.9542 11.0918C30.9713 11.0966 30.9461 11.0924 30.9064 11.0594L32.1839 9.52063C31.7602 9.16888 31.2362 9.0752 30.7785 9.0752V11.0752ZM30.9151 11.0666C30.9038 11.0574 30.895 11.0483 30.8889 11.0408C30.883 11.0335 30.881 11.0296 30.882 11.0314C30.8844 11.0358 30.8986 11.0642 30.9121 11.1301L32.8715 10.7293C32.7813 10.2884 32.5774 9.83982 32.1752 9.51348L30.9151 11.0666ZM30.9148 11.143C30.9542 11.3231 30.9846 11.6341 30.9846 12.1113H32.9846C32.9846 11.5794 32.9531 11.1027 32.8688 10.7163L30.9148 11.143ZM30.9846 12.1113C30.9846 12.7486 30.958 13.4797 30.9037 14.3066L32.8994 14.4376C32.9558 13.5782 32.9846 12.8022 32.9846 12.1113H30.9846ZM30.9037 14.3066C30.8495 15.133 30.7805 15.7859 30.7 16.2751L32.6734 16.5999C32.7687 16.0214 32.843 15.2973 32.8994 14.4376L30.9037 14.3066ZM30.7133 16.2085L30.6938 16.2915L32.6406 16.7495L32.6601 16.6665L30.7133 16.2085ZM32.063 17.4388L32.6294 17.1947L31.8378 15.358L31.2714 15.6022L32.063 17.4388ZM31.5033 16.9595C31.519 16.9762 31.5486 17.0138 31.5842 17.0867L33.381 16.2083C33.2734 15.9881 33.137 15.7783 32.9639 15.5932L31.5033 16.9595ZM31.5964 17.1107C31.6034 17.124 31.6208 17.1639 31.6295 17.2484L33.6189 17.0426C33.5886 16.7495 33.5116 16.4574 33.3689 16.1842L31.5964 17.1107ZM31.718 16.7226C31.7302 16.6965 31.7398 16.6817 31.7414 16.6792C31.7433 16.6762 31.7409 16.6802 31.7317 16.6918C31.7127 16.7159 31.6774 16.7563 31.6193 16.8144L33.0335 18.2286C33.203 18.059 33.4075 17.8319 33.5304 17.5684L31.718 16.7226ZM31.6269 16.8068C31.5531 16.8791 31.4474 16.9584 31.297 17.0381L32.2327 18.8057C32.525 18.651 32.7937 18.4634 33.0258 18.2362L31.6269 16.8068ZM31.297 17.0381C31.2138 17.0821 31.1427 17.0977 31.0715 17.0977V19.0977C31.4821 19.0977 31.8732 18.996 32.2327 18.8057L31.297 17.0381ZM31.0715 17.0977C31.0335 17.0977 31.0389 17.092 31.0701 17.1039C31.086 17.11 31.1058 17.1196 31.127 17.134C31.1484 17.1484 31.1673 17.1649 31.183 17.182L29.71 18.5348C30.0908 18.9495 30.5956 19.0977 31.0715 19.0977V17.0977ZM31.1972 17.1978C31.2037 17.2052 31.2107 17.2145 31.217 17.2254C31.2233 17.2362 31.2276 17.2462 31.2303 17.2539C31.2358 17.27 31.2316 17.2682 31.2316 17.2383H29.2316C29.2316 17.6918 29.3671 18.1455 29.6958 18.519L31.1972 17.1978ZM31.2316 17.2383C31.2316 17.2595 31.2305 17.2686 31.2314 17.2583C31.232 17.2503 31.2335 17.2349 31.2365 17.2104C31.2425 17.1612 31.2526 17.0911 31.2677 16.9971L29.2932 16.6787C29.2633 16.8644 29.2316 17.0788 29.2316 17.2383H31.2316ZM31.2651 17.0126C31.2819 16.9178 31.2962 16.8431 31.3081 16.7864C31.314 16.7582 31.3189 16.7365 31.3227 16.7204C31.3267 16.7037 31.3286 16.6971 31.3284 16.698L29.4084 16.138C29.3686 16.2742 29.3313 16.4632 29.2959 16.6632L31.2651 17.0126ZM30.6557 15.4601L30.5092 15.4162L29.9345 17.3318L30.081 17.3758L30.6557 15.4601ZM29.2602 16.1C29.1171 16.6023 28.9574 16.8601 28.8433 16.9783L30.2821 18.3674C30.7149 17.9192 30.9947 17.3111 31.1836 16.648L29.2602 16.1ZM28.8433 16.9783C28.7636 17.0608 28.6872 17.0977 28.5471 17.0977V19.0977C29.2143 19.0977 29.8149 18.8513 30.2821 18.3674L28.8433 16.9783ZM28.5471 17.0977C28.3589 17.0977 28.2943 17.0474 28.247 16.9953L26.7671 18.3406C27.2406 18.8615 27.8694 19.0977 28.5471 19.0977V17.0977ZM28.2549 17.0041C28.1232 16.8557 28.0097 16.6483 27.9377 16.3468L25.9924 16.8114C26.1287 17.3823 26.3766 17.9008 26.7592 18.3318L28.2549 17.0041ZM27.9377 16.3468C27.8535 15.9941 27.8088 15.6071 27.8088 15.1826H25.8088C25.8088 15.7477 25.8683 16.2917 25.9924 16.8114L27.9377 16.3468ZM31.1448 15.2591C31.1757 15.0738 31.1877 14.8798 31.1877 14.6846H29.1877C29.1877 14.8018 29.1802 14.8813 29.172 14.9303L31.1448 15.2591ZM31.1877 14.6846C31.1877 14.5516 31.1813 14.4198 31.1674 14.29L29.1787 14.503C29.1844 14.5555 29.1877 14.6157 29.1877 14.6846H31.1877ZM31.1705 14.3252C31.1637 14.2302 31.1514 14.0892 31.1188 13.9586L29.1785 14.4437C29.1758 14.433 29.1739 14.4243 29.1727 14.4182C29.1714 14.412 29.1706 14.4075 29.1701 14.4047C29.1692 14.3996 29.1692 14.3988 29.1698 14.4033C29.1703 14.4077 29.1712 14.4152 29.1722 14.4263C29.1733 14.4374 29.1744 14.4512 29.1756 14.4677L31.1705 14.3252ZM30.7356 13.3916C30.4917 13.2148 30.2204 13.0951 29.9333 13.0276L29.4753 14.9744C29.5202 14.985 29.5451 14.9988 29.5617 15.0108L30.7356 13.3916ZM29.9377 13.0286C29.7148 12.9751 29.4856 12.9424 29.2551 12.9424V14.9424C29.298 14.9424 29.3682 14.9487 29.4709 14.9734L29.9377 13.0286ZM29.2551 12.9424C29.107 12.9424 28.9604 12.9566 28.8172 12.9804L29.146 14.9532C29.1983 14.9445 29.2339 14.9424 29.2551 14.9424V12.9424ZM28.2745 13.2597C28.0944 13.4398 28.0032 13.6462 27.9552 13.7766C27.902 13.9212 27.8666 14.0728 27.8411 14.2153L29.8097 14.5679C29.8233 14.4923 29.8334 14.464 29.8323 14.467C29.8313 14.4698 29.8234 14.491 29.8052 14.5232C29.7876 14.5542 29.7515 14.6112 29.6888 14.6739L28.2745 13.2597ZM27.8415 14.2127C27.7896 14.4985 27.7668 14.8024 27.7668 15.1191H29.7668C29.7668 14.8955 29.7831 14.7144 29.8093 14.5705L27.8415 14.2127ZM27.7668 15.1191C27.7668 15.4539 27.7894 15.7828 27.8354 16.1053L29.8153 15.8224C29.7833 15.5981 29.7668 15.3638 29.7668 15.1191H27.7668ZM27.8374 16.1186C27.8871 16.4355 27.9657 16.7577 28.103 17.0382L29.8994 16.1591C29.8869 16.1335 29.8484 16.0326 29.8134 15.8091L27.8374 16.1186ZM29.0012 17.5986C29.2479 17.5986 29.4324 17.5117 29.5116 17.4704C29.6064 17.421 29.683 17.3653 29.736 17.3234C29.8428 17.239 29.9442 17.1384 30.033 17.0438L28.5748 15.6749C28.5139 15.7399 28.49 15.7589 28.4959 15.7543C28.4984 15.7522 28.5307 15.7264 28.5872 15.6969C28.6168 15.6815 28.6642 15.6592 28.7268 15.6398C28.7882 15.6207 28.8829 15.5986 29.0012 15.5986V17.5986ZM30.0325 17.0443C30.227 16.8375 30.4154 16.5984 30.5989 16.3341L28.9562 15.1933C28.8142 15.3977 28.6869 15.5558 28.5753 15.6745L30.0325 17.0443ZM30.6026 16.3288C30.7919 16.0523 30.9527 15.7742 31.0746 15.4955L29.2422 14.6939C29.1819 14.8319 29.0887 14.9997 28.9525 15.1986L30.6026 16.3288ZM32.7778 13.7617L31.8224 13.4662L31.8205 13.4725L32.7778 13.7617ZM33.432 12.6484L32.7367 11.9297L32.7328 11.9335L33.432 12.6484ZM36.0151 12.6973L35.4431 13.5176L35.985 13.8953L36.5451 13.5453L36.0151 12.6973ZM36.0932 12.6484L36.6232 13.4964L37.1075 13.1937L37.0929 12.6228L36.0932 12.6484ZM35.9516 11.6133L36.9161 11.3493L36.7277 10.6609L36.0155 10.6153L35.9516 11.6133ZM34.9604 11.5498L34.171 12.1637L34.4473 12.519L34.8965 12.5478L34.9604 11.5498ZM34.8529 11.291L33.8767 11.508L33.8781 11.5138L34.8529 11.291ZM34.8725 10.5L34.29 9.68718L34.0227 9.87872L33.9213 10.1915L34.8725 10.5ZM37.309 10.29L36.6702 11.0595L36.679 11.0666L37.309 10.29ZM37.6557 10.9297L36.6759 11.1301L36.6787 11.143L37.6557 10.9297ZM37.4506 16.4375L38.424 16.6665L38.4318 16.6335L38.4373 16.5999L37.4506 16.4375ZM37.4311 16.5205L36.4577 16.2915L36.0027 18.2251L37.8269 17.4388L37.4311 16.5205ZM37.9975 16.2764L38.7277 15.5932L38.2474 15.0797L37.6016 15.358L37.9975 16.2764ZM38.2465 16.6475L37.3481 17.0867L37.354 17.0988L37.3603 17.1107L38.2465 16.6475ZM38.3881 17.1455L39.2943 17.5684L39.4113 17.3177L39.3828 17.0426L38.3881 17.1455ZM38.0903 17.5215L38.7898 18.2362L38.7974 18.2286L38.0903 17.5215ZM36.2104 17.8584L35.4597 18.519L35.4667 18.527L35.4738 18.5348L36.2104 17.8584ZM36.0444 16.8379L35.0597 16.6632L35.0584 16.6709L35.0571 16.6787L36.0444 16.8379ZM36.1322 16.418L37.0922 16.698L37.3701 15.7453L36.4196 15.4601L36.1322 16.418ZM35.9858 16.374L36.2731 15.4162L35.3019 15.1248L35.024 16.1L35.9858 16.374ZM33.2709 17.668L32.523 18.3319L32.531 18.3406L33.2709 17.668ZM35.9223 15.0947L36.8384 15.4955L36.8882 15.3817L36.9087 15.2591L35.9223 15.0947ZM35.9369 14.3965L34.9395 14.4677L34.9407 14.4854L34.9426 14.503L35.9369 14.3965ZM35.9125 14.2012L36.8827 13.9586L36.7943 13.6053L36.4995 13.3916L35.9125 14.2012ZM35.4682 14.001L35.2348 14.9734L35.2391 14.9744L35.4682 14.001ZM34.7455 13.9668L34.5811 12.9804L34.265 13.0331L34.0384 13.2597L34.7455 13.9668ZM34.5893 14.3916L35.5731 14.5705L35.5736 14.5679L34.5893 14.3916ZM34.5893 15.9639L33.5992 16.1053L33.6013 16.1186L34.5893 15.9639ZM34.7651 16.5986L33.8668 17.0382L34.1411 17.5986H34.7651V16.5986ZM35.0678 16.3594L34.3392 15.6745L34.3387 15.6749L35.0678 16.3594ZM35.5414 15.7637L36.3628 16.3341L36.3665 16.3288L35.5414 15.7637ZM33.5727 15.1826C33.5727 14.7812 33.6279 14.4053 33.735 14.051L31.8205 13.4725C31.6541 14.0231 31.5727 14.5944 31.5727 15.1826H33.5727ZM33.7331 14.0573C33.831 13.7407 33.97 13.521 34.1313 13.3634L32.7328 11.9335C32.3016 12.3553 32.0044 12.8778 31.8224 13.4662L33.7331 14.0573ZM34.1273 13.3672C34.2235 13.2742 34.3425 13.2139 34.56 13.2139V11.2139C33.8725 11.2139 33.2396 11.4433 32.7368 11.9297L34.1273 13.3672ZM34.56 13.2139C34.841 13.2139 35.1295 13.2989 35.4431 13.5176L36.587 11.8769C35.9762 11.4511 35.2945 11.2139 34.56 11.2139V13.2139ZM36.5451 13.5453L36.6232 13.4964L35.5632 11.8004L35.4851 11.8493L36.5451 13.5453ZM37.0929 12.6228C37.0814 12.176 37.0256 11.7492 36.9161 11.3493L34.987 11.8773C35.0469 12.0958 35.0854 12.3592 35.0935 12.6741L37.0929 12.6228ZM36.0155 10.6153L35.0243 10.5518L34.8965 12.5478L35.8877 12.6112L36.0155 10.6153ZM35.7497 10.9359C35.7938 10.9925 35.815 11.0386 35.8229 11.0578C35.8312 11.0776 35.8313 11.0833 35.8278 11.0682L33.8781 11.5138C33.92 11.697 33.999 11.9426 34.171 12.1637L35.7497 10.9359ZM35.8291 11.0741C35.8194 11.0303 35.8139 10.9826 35.8139 10.9297H33.8139C33.8139 11.1241 33.8344 11.3174 33.8768 11.5079L35.8291 11.0741ZM35.8139 10.9297C35.8139 10.8378 35.8252 10.8038 35.8237 10.8085L33.9213 10.1915C33.8416 10.4371 33.8139 10.6896 33.8139 10.9297H35.8139ZM35.455 11.3128C35.5165 11.2687 35.6366 11.2068 35.8523 11.1563L35.3965 9.20893C35.0003 9.30166 34.6191 9.4513 34.29 9.68718L35.455 11.3128ZM35.8523 11.1563C36.0856 11.1017 36.3152 11.0752 36.5424 11.0752V9.0752C36.1576 9.0752 35.7752 9.12031 35.3965 9.20893L35.8523 11.1563ZM36.5424 11.0752C36.6442 11.0752 36.6984 11.0863 36.7181 11.0918C36.7352 11.0966 36.71 11.0924 36.6702 11.0594L37.9478 9.52063C37.5241 9.16888 37.0001 9.0752 36.5424 9.0752V11.0752ZM36.679 11.0666C36.6676 11.0574 36.6589 11.0483 36.6528 11.0408C36.6468 11.0335 36.6449 11.0296 36.6459 11.0314C36.6483 11.0358 36.6625 11.0642 36.676 11.1301L38.6354 10.7293C38.5452 10.2884 38.3413 9.83982 37.939 9.51348L36.679 11.0666ZM36.6787 11.143C36.718 11.3231 36.7485 11.6341 36.7485 12.1113H38.7485C38.7485 11.5794 38.717 11.1027 38.6327 10.7163L36.6787 11.143ZM36.7485 12.1113C36.7485 12.7486 36.7219 13.4797 36.6676 14.3066L38.6633 14.4376C38.7197 13.5782 38.7485 12.8022 38.7485 12.1113H36.7485ZM36.6676 14.3066C36.6133 15.133 36.5444 15.7859 36.4639 16.2751L38.4373 16.5999C38.5326 16.0214 38.6069 15.2973 38.6633 14.4376L36.6676 14.3066ZM36.4772 16.2085L36.4577 16.2915L38.4045 16.7495L38.424 16.6665L36.4772 16.2085ZM37.8269 17.4388L38.3933 17.1947L37.6016 15.358L37.0352 15.6022L37.8269 17.4388ZM37.2672 16.9595C37.2828 16.9762 37.3125 17.0138 37.3481 17.0867L39.1449 16.2083C39.0373 15.9881 38.9009 15.7783 38.7277 15.5932L37.2672 16.9595ZM37.3603 17.1107C37.3672 17.124 37.3847 17.1639 37.3934 17.2484L39.3828 17.0426C39.3525 16.7495 39.2755 16.4574 39.1327 16.1842L37.3603 17.1107ZM37.4819 16.7226C37.4941 16.6965 37.5036 16.6817 37.5053 16.6792C37.5072 16.6762 37.5048 16.6802 37.4956 16.6918C37.4765 16.7159 37.4412 16.7563 37.3831 16.8144L38.7974 18.2286C38.9669 18.059 39.1713 17.8319 39.2943 17.5684L37.4819 16.7226ZM37.3908 16.8068C37.317 16.8791 37.2113 16.9584 37.0608 17.0381L37.9966 18.8057C38.2888 18.651 38.5576 18.4634 38.7897 18.2362L37.3908 16.8068ZM37.0608 17.0381C36.9777 17.0821 36.9066 17.0977 36.8354 17.0977V19.0977C37.2459 19.0977 37.637 18.996 37.9966 18.8057L37.0608 17.0381ZM36.8354 17.0977C36.7974 17.0977 36.8027 17.092 36.834 17.1039C36.8498 17.11 36.8696 17.1196 36.8909 17.134C36.9123 17.1484 36.9312 17.1649 36.9469 17.182L35.4738 18.5348C35.8547 18.9495 36.3595 19.0977 36.8354 19.0977V17.0977ZM36.9611 17.1978C36.9676 17.2052 36.9745 17.2145 36.9808 17.2254C36.9871 17.2362 36.9914 17.2462 36.9941 17.2539C36.9997 17.27 36.9955 17.2682 36.9955 17.2383H34.9955C34.9955 17.6918 35.131 18.1455 35.4597 18.519L36.9611 17.1978ZM36.9955 17.2383C36.9955 17.2595 36.9944 17.2686 36.9952 17.2583C36.9959 17.2503 36.9974 17.2349 37.0004 17.2104C37.0064 17.1612 37.0164 17.0911 37.0316 16.9971L35.0571 16.6787C35.0272 16.8644 34.9955 17.0788 34.9955 17.2383H36.9955ZM37.029 17.0126C37.0458 16.9178 37.0601 16.8431 37.072 16.7864C37.0779 16.7582 37.0827 16.7365 37.0866 16.7204C37.0906 16.7037 37.0925 16.6971 37.0922 16.698L35.1722 16.138C35.1325 16.2742 35.0952 16.4632 35.0597 16.6632L37.029 17.0126ZM36.4196 15.4601L36.2731 15.4162L35.6984 17.3318L35.8449 17.3758L36.4196 15.4601ZM35.024 16.1C34.8809 16.6023 34.7213 16.8601 34.6072 16.9783L36.046 18.3674C36.4788 17.9192 36.7586 17.3111 36.9475 16.648L35.024 16.1ZM34.6072 16.9783C34.5275 17.0608 34.451 17.0977 34.311 17.0977V19.0977C34.9782 19.0977 35.5788 18.8513 36.046 18.3674L34.6072 16.9783ZM34.311 17.0977C34.1227 17.0977 34.0582 17.0474 34.0109 16.9953L32.531 18.3406C33.0045 18.8615 33.6333 19.0977 34.311 19.0977V17.0977ZM34.0188 17.0041C33.8871 16.8557 33.7736 16.6483 33.7016 16.3468L31.7563 16.8114C31.8926 17.3823 32.1405 17.9008 32.523 18.3318L34.0188 17.0041ZM33.7016 16.3468C33.6173 15.9941 33.5727 15.6071 33.5727 15.1826H31.5727C31.5727 15.7477 31.6322 16.2917 31.7563 16.8114L33.7016 16.3468ZM36.9087 15.2591C36.9396 15.0738 36.9516 14.8798 36.9516 14.6846H34.9516C34.9516 14.8018 34.9441 14.8813 34.9359 14.9303L36.9087 15.2591ZM36.9516 14.6846C36.9516 14.5516 36.9452 14.4198 36.9312 14.29L34.9426 14.503C34.9482 14.5555 34.9516 14.6157 34.9516 14.6846H36.9516ZM36.9344 14.3252C36.9276 14.2302 36.9153 14.0892 36.8827 13.9586L34.9424 14.4437C34.9397 14.433 34.9378 14.4243 34.9365 14.4182C34.9353 14.412 34.9345 14.4075 34.934 14.4047C34.9331 14.3996 34.9331 14.3988 34.9337 14.4033C34.9342 14.4077 34.9351 14.4152 34.9361 14.4263C34.9371 14.4374 34.9383 14.4512 34.9395 14.4677L36.9344 14.3252ZM36.4995 13.3916C36.2556 13.2148 35.9843 13.0951 35.6972 13.0276L35.2391 14.9744C35.2841 14.985 35.309 14.9988 35.3255 15.0108L36.4995 13.3916ZM35.7016 13.0286C35.4787 12.9751 35.2495 12.9424 35.019 12.9424V14.9424C35.0619 14.9424 35.1321 14.9487 35.2348 14.9734L35.7016 13.0286ZM35.019 12.9424C34.8709 12.9424 34.7242 12.9566 34.5811 12.9804L34.9099 14.9532C34.9621 14.9445 34.9977 14.9424 35.019 14.9424V12.9424ZM34.0384 13.2597C33.8583 13.4398 33.7671 13.6462 33.7191 13.7766C33.6659 13.9212 33.6305 14.0728 33.6049 14.2153L35.5736 14.5679C35.5871 14.4923 35.5973 14.464 35.5962 14.467C35.5951 14.4698 35.5873 14.491 35.5691 14.5232C35.5514 14.5542 35.5153 14.6112 35.4526 14.6739L34.0384 13.2597ZM33.6054 14.2127C33.5534 14.4985 33.5307 14.8024 33.5307 15.1191H35.5307C35.5307 14.8955 35.547 14.7144 35.5731 14.5705L33.6054 14.2127ZM33.5307 15.1191C33.5307 15.4539 33.5533 15.7828 33.5993 16.1053L35.5792 15.8224C35.5472 15.5981 35.5307 15.3638 35.5307 15.1191H33.5307ZM33.6013 16.1186C33.651 16.4355 33.7296 16.7577 33.8668 17.0382L35.6633 16.1591C35.6508 16.1335 35.6122 16.0326 35.5772 15.8091L33.6013 16.1186ZM34.7651 17.5986C35.0117 17.5986 35.1963 17.5117 35.2755 17.4704C35.3703 17.421 35.4468 17.3653 35.4999 17.3234C35.6067 17.239 35.7081 17.1384 35.7969 17.0438L34.3387 15.6749C34.2778 15.7399 34.2539 15.7589 34.2597 15.7543C34.2623 15.7522 34.2945 15.7264 34.351 15.6969C34.3806 15.6815 34.4281 15.6592 34.4907 15.6398C34.5521 15.6207 34.6467 15.5986 34.7651 15.5986V17.5986ZM35.7964 17.0443C35.9908 16.8375 36.1793 16.5984 36.3628 16.3341L34.7201 15.1933C34.5781 15.3977 34.4507 15.5558 34.3392 15.6745L35.7964 17.0443ZM36.3665 16.3288C36.5558 16.0523 36.7165 15.7742 36.8384 15.4955L35.0061 14.6939C34.9457 14.8319 34.8526 14.9997 34.7164 15.1986L36.3665 16.3288ZM43.0479 16.3398L43.4171 15.4105L42.7186 15.133L42.2578 15.7268L43.0479 16.3398ZM44.0391 16.6963L43.7867 17.6639L44.6446 17.8877L44.9695 17.0628L44.0391 16.6963ZM44.0489 14.8799L45.0474 14.8263L45.0472 14.8216L44.0489 14.8799ZM44 11.9795L44.9967 12.0614L45.0804 11.0431L44.0605 10.9813L44 11.9795ZM43.1944 11.9307L43.2549 10.9325L42.2044 10.8688L42.1944 11.9211L43.1944 11.9307ZM43.1797 13.4688L43.496 14.4174L44.1729 14.1918L44.1797 13.4783L43.1797 13.4688ZM42.1787 13.5859L41.5599 14.3714L41.7961 14.5575L42.0957 14.5825L42.1787 13.5859ZM41.8418 13.1855L40.9938 13.7156L41.0007 13.7263L41.8418 13.1855ZM42.1348 10.6807L42.4468 11.6308L42.4595 11.6265L42.1348 10.6807ZM43.0088 10.5342L42.9514 9.53581L42.9464 9.53613L43.0088 10.5342ZM45.0059 10.4609L45.0272 11.4607L45.0313 11.4606L45.0059 10.4609ZM47.208 10.4316L47.9951 9.81476L47.6948 9.43164H47.208V10.4316ZM47.418 10.8369L46.4613 11.1281L46.4642 11.1375L46.4673 11.1469L47.418 10.8369ZM45.9825 12.1748L46.2279 11.2054L45.0305 10.9022L44.9832 12.1365L45.9825 12.1748ZM45.7286 16.4131L46.7245 16.5036L46.7249 16.4982L45.7286 16.4131ZM45.377 17.5801L46.1735 18.1848L46.177 18.1801L45.377 17.5801ZM43.2579 17.9561L42.9132 18.8948L42.9171 18.8962L43.2579 17.9561ZM42.6768 17.4336L41.6769 17.4182L41.6731 17.6678L41.787 17.8899L42.6768 17.4336ZM42.7549 16.8721L43.7128 17.1594L43.7143 17.1542L42.7549 16.8721ZM42.6787 17.2692C42.918 17.3643 43.1102 17.4395 43.2534 17.4941L43.9654 15.6251C43.8352 15.5755 43.653 15.5042 43.4171 15.4105L42.6787 17.2692ZM43.2534 17.4941C43.4259 17.5598 43.6038 17.6162 43.7867 17.6639L44.2915 15.7287C44.1749 15.6982 44.0663 15.6635 43.9654 15.6251L43.2534 17.4941ZM44.9695 17.0628C45.0772 16.7894 45.1026 16.5009 45.1026 16.2568H43.1026C43.1026 16.3132 43.0993 16.3471 43.097 16.3629C43.0945 16.3799 43.0949 16.3649 43.1087 16.3298L44.9695 17.0628ZM45.1026 16.2568C45.1026 15.9758 45.0831 15.4915 45.0474 14.8263L43.0503 14.9335C43.0862 15.6029 43.1026 16.0366 43.1026 16.2568H45.1026ZM45.0472 14.8216C44.9954 13.9354 44.9707 13.2748 44.9707 12.8291H42.9707C42.9707 13.3339 42.9981 14.0405 43.0506 14.9382L45.0472 14.8216ZM44.9707 12.8291C44.9707 12.5183 44.98 12.2638 44.9967 12.0614L43.0034 11.8976C42.981 12.1705 42.9707 12.4824 42.9707 12.8291H44.9707ZM44.0605 10.9813L43.2549 10.9325L43.1339 12.9288L43.9395 12.9777L44.0605 10.9813ZM42.1944 11.9211L42.1798 13.4592L44.1797 13.4783L44.1943 11.9402L42.1944 11.9211ZM42.8635 12.5201C42.7385 12.5617 42.5728 12.5908 42.3545 12.5908V14.5908C42.7483 14.5908 43.1327 14.5385 43.496 14.4174L42.8635 12.5201ZM42.3545 12.5908C42.3219 12.5908 42.2973 12.5905 42.2798 12.59C42.2609 12.5895 42.2563 12.5889 42.2618 12.5894L42.0957 14.5825C42.1777 14.5893 42.2702 14.5908 42.3545 14.5908V12.5908ZM42.7976 12.8004C42.8096 12.8099 42.8028 12.8067 42.7791 12.7785C42.7561 12.7512 42.7238 12.7082 42.683 12.6448L41.0007 13.7263C41.147 13.954 41.3296 14.19 41.5599 14.3714L42.7976 12.8004ZM42.6898 12.6555C42.6231 12.5488 42.5613 12.4183 42.5087 12.2582L40.6086 12.8825C40.7057 13.1781 40.8327 13.4577 40.9938 13.7155L42.6898 12.6555ZM42.5087 12.2582C42.4625 12.1178 42.4463 12.0036 42.4463 11.9111H40.4463C40.4463 12.2419 40.505 12.5671 40.6086 12.8825L42.5087 12.2582ZM42.4463 11.9111C42.4463 11.7812 42.4573 11.6939 42.4689 11.6404C42.4805 11.5868 42.4891 11.5837 42.4742 11.6075L40.7798 10.5449C40.5159 10.9657 40.4463 11.4623 40.4463 11.9111H42.4463ZM42.4742 11.6075C42.4755 11.6053 42.4749 11.6066 42.4718 11.6101C42.4687 11.6136 42.4642 11.6179 42.4587 11.6222C42.4533 11.6265 42.4485 11.6293 42.4454 11.631C42.4423 11.6326 42.4424 11.6322 42.4468 11.6308L41.8228 9.73057C41.386 9.87402 41.026 10.1523 40.7798 10.5449L42.4742 11.6075ZM42.4595 11.6265C42.5585 11.5925 42.7504 11.5523 43.0712 11.5322L42.9464 9.53613C42.5381 9.56165 42.1473 9.61908 41.8101 9.73484L42.4595 11.6265ZM43.0662 11.5325C43.6173 11.5009 44.2704 11.4768 45.0272 11.4607L44.9846 9.46116C44.2115 9.47761 43.5332 9.50239 42.9515 9.53583L43.0662 11.5325ZM45.0313 11.4606C45.7919 11.4413 46.5174 11.4316 47.208 11.4316V9.43164C46.4989 9.43164 45.7564 9.44153 44.9805 9.46126L45.0313 11.4606ZM46.421 11.0485C46.4375 11.0696 46.4509 11.0937 46.4613 11.1281L48.3747 10.5458C48.294 10.2806 48.1674 10.0346 47.9951 9.81476L46.421 11.0485ZM46.4673 11.1469C46.4852 11.2018 46.4912 11.247 46.4912 11.2861H48.4912C48.4912 11.0258 48.4485 10.7715 48.3687 10.5269L46.4673 11.1469ZM46.4912 11.2861C46.4912 11.3409 46.4843 11.3695 46.4812 11.3797C46.4786 11.3881 46.4777 11.3875 46.4797 11.3849L48.0731 12.5936C48.371 12.2009 48.4912 11.7434 48.4912 11.2861H46.4912ZM46.4797 11.3849C46.4918 11.369 46.5092 11.3501 46.5323 11.3316C46.5556 11.313 46.5799 11.2986 46.6029 11.2884C46.6491 11.2678 46.6699 11.2725 46.6416 11.2725V13.2725C47.1705 13.2725 47.7052 13.0785 48.0731 12.5936L46.4797 11.3849ZM46.6416 11.2725C46.5703 11.2725 46.4377 11.2585 46.2279 11.2054L45.737 13.1442C46.0415 13.2213 46.3484 13.2725 46.6416 13.2725V11.2725ZM44.9832 12.1365C44.9251 13.6535 44.8413 15.0504 44.7322 16.328L46.7249 16.4982C46.8371 15.1846 46.9226 13.756 46.9817 12.2131L44.9832 12.1365ZM44.7327 16.3226C44.7138 16.5297 44.6846 16.6918 44.6511 16.8154L46.5814 17.3389C46.652 17.0783 46.6977 16.7977 46.7244 16.5036L44.7327 16.3226ZM44.6511 16.8154C44.6285 16.8989 44.6004 16.9488 44.577 16.9801L46.177 18.1801C46.3684 17.9249 46.4999 17.6395 46.5814 17.3389L44.6511 16.8154ZM44.5805 16.9754C44.5784 16.9782 44.5626 17.0023 44.4856 17.0301L45.1649 18.9113C45.5566 18.7698 45.9087 18.5335 46.1734 18.1848L44.5805 16.9754ZM44.4856 17.0301C44.3739 17.0705 44.2319 17.0977 44.0489 17.0977V19.0977C44.4323 19.0977 44.8078 19.0402 45.1649 18.9113L44.4856 17.0301ZM44.0489 17.0977C43.9025 17.0977 43.754 17.0722 43.5986 17.0159L42.9171 18.8962C43.2825 19.0287 43.6614 19.0977 44.0489 19.0977V17.0977ZM43.6025 17.0173C43.5937 17.0141 43.5896 17.0117 43.5886 17.0112C43.5881 17.0108 43.5879 17.0107 43.588 17.0108C43.5881 17.0108 43.5882 17.0109 43.5882 17.0109C43.5883 17.011 43.5883 17.011 43.5883 17.011C43.5883 17.011 43.5883 17.011 43.5883 17.011C43.5883 17.011 43.5883 17.011 43.5883 17.011C43.5883 17.011 43.5882 17.0109 43.5881 17.0108C43.588 17.0107 43.5878 17.0105 43.5874 17.0101C43.5867 17.0094 43.5855 17.008 43.5838 17.0057C43.5804 17.0012 43.5744 16.9924 43.5666 16.9773L41.787 17.8899C42.0266 18.3572 42.4096 18.7099 42.9132 18.8948L43.6025 17.0173ZM43.6767 17.449C43.6788 17.308 43.696 17.2154 43.7127 17.1594L41.7971 16.5847C41.7162 16.8543 41.6813 17.136 41.6769 17.4182L43.6767 17.449ZM43.7143 17.1542C43.7172 17.1443 43.7409 17.0779 43.838 16.9528L42.2578 15.7268C42.0619 15.9794 41.8903 16.2678 41.7956 16.5899L43.7143 17.1542ZM48.1624 12.5752L48.6821 13.4295L48.6872 13.4264L48.1624 12.5752ZM51.1653 12.5801L50.6157 13.4155L50.6208 13.4189L51.1653 12.5801ZM51.9416 13.5859L50.9951 13.9086L50.9973 13.915L51.9416 13.5859ZM51.8684 16.6719L50.956 16.2626L50.9546 16.2657L51.8684 16.6719ZM50.9797 17.7168L51.5215 18.5573L51.5233 18.5562L50.9797 17.7168ZM47.6057 17.2822L46.7966 17.8698L46.7982 17.8721L47.6057 17.2822ZM50.0325 16.6279L50.6206 17.4367L50.7931 17.3113L50.8994 17.1264L50.0325 16.6279ZM50.2131 14.5918L49.2235 14.7352L49.2238 14.7373L50.2131 14.5918ZM50.0764 14.0645L50.9844 13.6454L50.9275 13.5221L50.8398 13.4185L50.0764 14.0645ZM49.8616 13.9717L49.6541 14.9499L49.6683 14.9529L49.6827 14.9555L49.8616 13.9717ZM49.1682 13.9912L48.6672 13.1258L48.4372 13.2589L48.3037 13.4886L49.1682 13.9912ZM49.1145 16.54L48.1512 16.8085L48.216 17.041L48.3797 17.2183L49.1145 16.54ZM49.3538 16.6377L49.1679 17.6203L49.1807 17.6227L49.1937 17.6248L49.3538 16.6377ZM48.01 15.1143C48.01 14.6296 48.0878 14.2606 48.2098 13.9808L46.3766 13.1813C46.121 13.7674 46.01 14.4205 46.01 15.1143H48.01ZM48.2098 13.9808C48.3192 13.73 48.4735 13.5564 48.6821 13.4295L47.6426 11.7209C47.07 12.0692 46.6448 12.5662 46.3766 13.1813L48.2098 13.9808ZM48.6872 13.4264C48.8811 13.3068 49.1764 13.2139 49.6321 13.2139V11.2139C48.9094 11.2139 48.2248 11.3618 47.6375 11.724L48.6872 13.4264ZM49.6321 13.2139C50.1738 13.2139 50.4672 13.3178 50.6157 13.4155L51.7149 11.7447C51.1211 11.354 50.3925 11.2139 49.6321 11.2139V13.2139ZM50.6208 13.4189C50.7986 13.5342 50.919 13.6852 50.9951 13.9086L52.8882 13.2633C52.6714 12.6273 52.2742 12.1077 51.7098 11.7413L50.6208 13.4189ZM50.9973 13.915C51.0995 14.208 51.1663 14.6152 51.1663 15.1631H53.1663C53.1663 14.4675 53.0833 13.8232 52.886 13.2569L50.9973 13.915ZM51.1663 15.1631C51.1663 15.6077 51.0883 15.9677 50.956 16.2626L52.7808 17.0811C53.0457 16.4906 53.1663 15.8448 53.1663 15.1631H51.1663ZM50.9546 16.2657C50.8367 16.531 50.6677 16.7275 50.4362 16.8774L51.5233 18.5562C52.0861 18.1918 52.5095 17.6916 52.7822 17.078L50.9546 16.2657ZM50.4379 16.8763C50.2383 17.005 49.9533 17.0977 49.5295 17.0977V19.0977C50.2516 19.0977 50.9334 18.9364 51.5215 18.5573L50.4379 16.8763ZM49.5295 17.0977C48.8531 17.0977 48.5653 16.9006 48.4132 16.6923L46.7982 17.8721C47.4404 18.7511 48.4351 19.0977 49.5295 19.0977V17.0977ZM48.4149 16.6946C48.1769 16.3669 48.01 15.8704 48.01 15.1143H46.01C46.01 16.1549 46.2403 17.1038 46.7966 17.8698L48.4149 16.6946ZM49.7297 17.667C49.8325 17.667 49.947 17.6633 50.0579 17.649C50.1112 17.6421 50.3776 17.6134 50.6206 17.4367L49.4443 15.8192C49.5119 15.77 49.5732 15.7393 49.6152 15.7209C49.6583 15.7021 49.6944 15.6904 49.7187 15.6835C49.7653 15.6702 49.7968 15.6661 49.802 15.6654C49.8119 15.6642 49.793 15.667 49.7297 15.667V17.667ZM50.8994 17.1264C51.0591 16.8486 51.1419 16.5317 51.1901 16.2384L49.2166 15.914C49.2028 15.9982 49.1882 16.0575 49.1761 16.0965C49.1637 16.1365 49.1575 16.1434 49.1656 16.1295L50.8994 17.1264ZM51.1901 16.2384C51.2392 15.9399 51.262 15.6279 51.262 15.3047H49.262C49.262 15.5349 49.2457 15.7372 49.2166 15.914L51.1901 16.2384ZM51.262 15.3047C51.262 15.0085 51.243 14.7217 51.2025 14.4463L49.2238 14.7373C49.2484 14.9046 49.262 15.0931 49.262 15.3047H51.262ZM51.2028 14.4484C51.1639 14.1799 51.1005 13.897 50.9844 13.6454L49.1685 14.4835C49.1667 14.4796 49.1746 14.4962 49.1865 14.5425C49.1982 14.5875 49.2112 14.6506 49.2235 14.7352L51.2028 14.4484ZM50.8398 13.4185C50.5651 13.0939 50.1875 13.0146 50.0405 12.9878L49.6827 14.9555C49.6889 14.9567 49.6549 14.9515 49.5994 14.9276C49.5476 14.9052 49.4269 14.845 49.313 14.7104L50.8398 13.4185ZM50.0691 12.9934C49.8838 12.9542 49.6961 12.9375 49.51 12.9375V14.9375C49.5778 14.9375 49.6245 14.9436 49.6541 14.9499L50.0691 12.9934ZM49.51 12.9375C49.3955 12.9375 49.27 12.9434 49.1448 12.9631C49.0315 12.9808 48.8502 13.0198 48.6672 13.1258L49.6692 14.8566C49.6032 14.8949 49.5479 14.9145 49.5166 14.9241C49.4841 14.934 49.462 14.9377 49.4553 14.9388C49.444 14.9406 49.4585 14.9375 49.51 14.9375V12.9375ZM48.3037 13.4886C48.0168 13.9821 47.9241 14.5707 47.9241 15.1582H49.9241C49.9241 14.7496 49.9941 14.5602 50.0327 14.4938L48.3037 13.4886ZM47.9241 15.1582C47.9241 15.4436 47.9459 15.7314 47.9884 16.0211L49.9672 15.7309C49.9381 15.5323 49.9241 15.3415 49.9241 15.1582H47.9241ZM47.9884 16.0211C48.0291 16.299 48.0826 16.5624 48.1512 16.8085L50.0778 16.2716C50.0357 16.1205 49.998 15.9412 49.9672 15.7309L47.9884 16.0211ZM48.3797 17.2183C48.6568 17.5185 49.0292 17.594 49.1679 17.6203L49.5396 15.6551C49.52 15.6514 49.5396 15.6532 49.5815 15.6703C49.6159 15.6844 49.7326 15.7353 49.8493 15.8618L48.3797 17.2183ZM49.1937 17.6248C49.3705 17.6535 49.5495 17.667 49.7297 17.667V15.667C49.6496 15.667 49.5779 15.661 49.5138 15.6506L49.1937 17.6248ZM56.2841 12.2969L55.3499 11.94L55.3488 11.9429L56.2841 12.2969ZM60.6444 10.6123L61.1542 9.75201L61.0218 9.67352L60.8718 9.63851L60.6444 10.6123ZM61.1034 10.9395L60.4449 11.692L60.4549 11.7008L60.4651 11.7092L61.1034 10.9395ZM61.4842 11.3447H62.4842V11.0096L62.2823 10.7421L61.4842 11.3447ZM61.3915 12.2676L62.3785 12.4279L62.3788 12.4265L61.3915 12.2676ZM61.1571 13.3369L60.1952 13.0634L60.1934 13.0698L61.1571 13.3369ZM60.8934 13.9766L61.3406 14.871L61.5187 14.7819L61.6491 14.6315L60.8934 13.9766ZM60.6786 14.0645L60.8955 15.0406L60.921 15.035L60.9462 15.028L60.6786 14.0645ZM59.6727 13.957L58.6781 14.0603L58.7311 14.5707L59.1766 14.8253L59.6727 13.957ZM59.5018 12.3115L60.4965 12.2082L60.4264 11.533L59.773 11.349L59.5018 12.3115ZM58.2958 12.2188L58.2334 11.2207L57.546 11.2637L57.341 11.9213L58.2958 12.2188ZM58.0614 14.0303L59.0608 14.066L59.061 14.0588L59.0612 14.0517L58.0614 14.0303ZM58.1249 15.5049L59.1113 15.3405L59.1109 15.3386L58.1249 15.5049ZM58.5155 16.3691L58.0219 17.2389L58.0318 17.2444L58.5155 16.3691ZM59.9755 16.3301L60.2984 17.2765L60.3048 17.2743L59.9755 16.3301ZM60.8885 15.9053L61.622 15.2255L61.085 14.6461L60.3971 15.0344L60.8885 15.9053ZM61.1717 16.2324L60.3791 16.8421L60.3864 16.8515L60.3938 16.8608L61.1717 16.2324ZM61.3573 16.5449L60.4445 16.9533L60.4489 16.9632L60.4536 16.973L61.3573 16.5449ZM61.4745 16.9697L62.3743 17.406L62.5029 17.1408L62.4671 16.8482L61.4745 16.9697ZM61.0594 17.3994L60.4361 16.6174L61.0594 17.3994ZM56.9569 14.2695C56.9569 13.6281 57.0516 13.0939 57.2193 12.6509L55.3488 11.9429C55.0803 12.6522 54.9569 13.4331 54.9569 14.2695H56.9569ZM57.2182 12.6537C57.3751 12.2431 57.6043 11.9504 57.901 11.7382L56.7374 10.1115C56.0967 10.5698 55.6357 11.1918 55.3499 11.94L57.2182 12.6537ZM57.901 11.7382C58.1627 11.551 58.5379 11.4219 59.0966 11.4219V9.42188C58.223 9.42188 57.4133 9.62805 56.7374 10.1115L57.901 11.7382ZM59.0966 11.4219C59.4983 11.4219 59.9375 11.4741 60.417 11.5861L60.8718 9.63851C60.2641 9.49657 59.6714 9.42188 59.0966 9.42188V11.4219ZM60.1346 11.4726C60.2668 11.5509 60.3682 11.625 60.4449 11.692L61.7619 10.1869C61.5781 10.0261 61.3736 9.88201 61.1542 9.75201L60.1346 11.4726ZM60.4651 11.7092C60.5308 11.7637 60.6054 11.8404 60.6862 11.9473L62.2823 10.7421C62.1222 10.5301 61.9429 10.3366 61.7417 10.1697L60.4651 11.7092ZM60.4842 11.3447C60.4842 11.4988 60.4625 11.7467 60.4042 12.1086L62.3788 12.4265C62.4442 12.0202 62.4842 11.6529 62.4842 11.3447H60.4842ZM60.4044 12.1073C60.348 12.4543 60.2779 12.7726 60.1952 13.0634L62.119 13.6104C62.2251 13.2371 62.3112 12.8425 62.3785 12.4279L60.4044 12.1073ZM60.1934 13.0698C60.154 13.2119 60.1216 13.3059 60.0983 13.3623C60.087 13.3898 60.0815 13.3994 60.0831 13.3964C60.0836 13.3956 60.1003 13.3649 60.1377 13.3216L61.6491 14.6315C61.797 14.4609 61.8892 14.2656 61.9474 14.1245C62.012 13.9677 62.069 13.7907 62.1208 13.6041L60.1934 13.0698ZM60.4462 13.0821C60.4216 13.0944 60.4057 13.1014 60.3976 13.1047C60.3938 13.1063 60.3928 13.1066 60.3946 13.1059C60.3963 13.1053 60.4019 13.1034 60.4109 13.1009L60.9462 15.028C61.0909 14.9878 61.2264 14.9281 61.3406 14.871L60.4462 13.0821ZM60.4617 13.0883C60.4822 13.0837 60.4956 13.0819 60.4992 13.0814C60.5033 13.0809 60.5023 13.0811 60.495 13.0816C60.4798 13.0827 60.4509 13.084 60.4051 13.084V15.084C60.542 15.084 60.7245 15.0786 60.8955 15.0406L60.4617 13.0883ZM60.4051 13.084C60.3014 13.084 60.215 13.0762 60.1438 13.0641L59.8072 15.0355C60.0028 15.0689 60.2029 15.084 60.4051 15.084V13.084ZM60.1438 13.0641C60.1266 13.0611 60.1138 13.0585 60.1048 13.0565C60.0958 13.0544 60.092 13.0532 60.0927 13.0534C60.0932 13.0536 60.1002 13.0557 60.1122 13.0607C60.124 13.0656 60.1438 13.0745 60.1689 13.0888L59.1766 14.8253C59.3942 14.9496 59.629 15.0051 59.8072 15.0355L60.1438 13.0641ZM60.6674 13.8537L60.4965 12.2082L58.5072 12.4148L58.6781 14.0603L60.6674 13.8537ZM59.773 11.349C59.4129 11.2476 58.9868 11.2139 58.5399 11.2139V13.2139C58.9133 13.2139 59.1285 13.2453 59.2307 13.2741L59.773 11.349ZM58.5399 11.2139C58.4261 11.2139 58.3185 11.2154 58.2334 11.2207L58.3582 13.2168C58.3772 13.2156 58.4324 13.2139 58.5399 13.2139V11.2139ZM57.341 11.9213C57.1615 12.4975 57.0788 13.2065 57.0616 14.0088L59.0612 14.0517C59.0765 13.3372 59.1501 12.8385 59.2505 12.5162L57.341 11.9213ZM57.062 13.9946C57.0581 14.1043 57.0565 14.2574 57.0565 14.4453H59.0565C59.0565 14.2622 59.0582 14.1385 59.0608 14.066L57.062 13.9946ZM57.0565 14.4453C57.0565 14.9087 57.0802 15.3237 57.1388 15.6712L59.1109 15.3386C59.0784 15.1457 59.0565 14.8543 59.0565 14.4453H57.0565ZM57.1385 15.6693C57.1839 15.942 57.2425 16.2122 57.3282 16.4352L59.1949 15.7172C59.183 15.6862 59.1505 15.5756 59.1113 15.3405L57.1385 15.6693ZM57.3282 16.4352C57.4618 16.7823 57.7042 17.0585 58.0219 17.2388L59.0091 15.4995C59.0407 15.5174 59.08 15.5466 59.1174 15.5897C59.1549 15.633 59.1799 15.6782 59.1949 15.7172L57.3282 16.4352ZM58.0318 17.2444C58.3753 17.4342 58.761 17.4717 59.0673 17.4717V15.4717C59.0293 15.4717 58.9988 15.4703 58.975 15.4684C58.9512 15.4665 58.9363 15.4642 58.9289 15.4629C58.9215 15.4615 58.9246 15.4616 58.9358 15.4653C58.947 15.4691 58.9695 15.4775 58.9992 15.4939L58.0318 17.2444ZM59.0673 17.4717C59.4923 17.4717 59.9056 17.4105 60.2984 17.2765L59.6526 15.3836C59.4919 15.4385 59.2997 15.4717 59.0673 15.4717V17.4717ZM60.3048 17.2743C60.6536 17.1526 61.0128 16.9834 61.38 16.7762L60.3971 15.0344C60.1068 15.1982 59.8572 15.3122 59.6461 15.3859L60.3048 17.2743ZM60.1551 16.585C60.2703 16.7093 60.3411 16.7927 60.3791 16.8421L61.9644 15.6227C61.8722 15.5028 61.7542 15.3682 61.622 15.2255L60.1551 16.585ZM60.3938 16.8608C60.3965 16.8641 60.4162 16.89 60.4445 16.9533L62.2701 16.1366C62.1877 15.9524 62.0837 15.77 61.9497 15.6041L60.3938 16.8608ZM60.4536 16.973C60.4591 16.9848 60.4732 17.02 60.4819 17.0913L62.4671 16.8482C62.4367 16.6004 62.3726 16.3525 62.261 16.1168L60.4536 16.973ZM60.5747 16.5335C60.5979 16.4855 60.6186 16.4578 60.623 16.4521C60.6283 16.445 60.6264 16.4485 60.6124 16.463C60.5832 16.4932 60.528 16.5442 60.4361 16.6174L61.6828 18.1814C61.9039 18.0051 62.2128 17.739 62.3743 17.406L60.5747 16.5335ZM60.4361 16.6174C60.312 16.7164 60.113 16.833 59.81 16.9521L60.5413 18.8136C60.9674 18.6462 61.3576 18.4405 61.6828 18.1814L60.4361 16.6174ZM59.81 16.9521C59.5785 17.043 59.2966 17.0977 58.9501 17.0977V19.0977C59.5085 19.0977 60.0437 19.0091 60.5413 18.8136L59.81 16.9521ZM58.9501 17.0977C58.1068 17.0977 57.7015 16.8462 57.4757 16.5279L55.8444 17.685C56.5561 18.6883 57.6774 19.0977 58.9501 19.0977V17.0977ZM57.4757 16.5279C57.1744 16.1032 56.9569 15.3938 56.9569 14.2695H54.9569C54.9569 15.6062 55.2081 16.7881 55.8444 17.685L57.4757 16.5279ZM63.7667 14.8408L63.6 15.8268L63.6023 15.8272L63.7667 14.8408ZM64.4112 14.9824L64.1386 15.9445L65.4112 16.3051V14.9824H64.4112ZM64.4014 14.4941L63.4018 14.5204L63.4021 14.5336L63.4028 14.5467L64.4014 14.4941ZM64.3819 14.25L65.3521 14.0075L65.3226 13.8895L65.2657 13.7821L64.3819 14.25ZM64.128 14.0791L63.7341 14.9983L63.7419 15.0015L64.128 14.0791ZM62.8585 14.0645L63.0788 15.04L63.0901 15.0373L62.8585 14.0645ZM62.1846 14.25L61.3283 14.7663L61.7349 15.4407L62.4858 15.2036L62.1846 14.25ZM61.8624 13.6201L60.9298 13.9811L60.9334 13.9903L60.9371 13.9993L61.8624 13.6201ZM61.7598 12.8291L61.1459 12.0397L60.8338 12.2825L60.7721 12.6731L61.7598 12.8291ZM65.92 12.9756L66.7117 12.3646L65.92 12.9756ZM66.0762 15.8125L65.1065 15.5685L65.1054 15.5729L66.0762 15.8125ZM65.8858 16.5791L64.9371 16.2629L64.2337 18.3731L66.279 17.4986L65.8858 16.5791ZM66.5938 16.2764L67.3241 15.5932L66.8452 15.0813L66.2007 15.3569L66.5938 16.2764ZM66.8428 16.6475L65.9445 17.0867L65.9504 17.0988L65.9566 17.1107L66.8428 16.6475ZM66.9845 17.1455L67.8906 17.5684L68.0076 17.3177L67.9791 17.0426L66.9845 17.1455ZM66.6866 17.5215L67.3861 18.2362L67.3937 18.2286L66.6866 17.5215ZM66.1251 17.9219L66.593 18.8057L66.1251 17.9219ZM64.8165 17.8584L64.0572 18.5092L64.0649 18.518L64.8165 17.8584ZM64.6749 16.8037L65.6356 17.0813L65.9103 16.1303L64.9622 15.8459L64.6749 16.8037ZM64.5284 16.7598L64.8157 15.8019L63.7398 15.4791L63.5437 16.5853L64.5284 16.7598ZM63.9473 17.8145L64.4848 18.6577L63.9473 17.8145ZM62.2872 17.9023L61.7652 18.7554L61.7746 18.761L62.2872 17.9023ZM61.755 17.3262L60.8745 17.8003L60.8771 17.805L61.755 17.3262ZM61.9552 15.207L62.6747 15.9015L62.6787 15.8973L61.9552 15.207ZM63.6886 16.6426L63.6032 17.6389L63.745 17.6511L63.8847 17.6232L63.6886 16.6426ZM63.9766 16.5059L63.4274 15.6701L63.4163 15.6776L63.9766 16.5059ZM64.4356 15.9395L65.4211 16.1094L65.4569 15.9015L65.4058 15.6969L64.4356 15.9395ZM64.4063 15.8223L65.3765 15.5797L65.2115 14.9199L64.5373 14.8309L64.4063 15.8223ZM63.5128 15.8271L63.1247 14.9055L62.9159 14.9934L62.7654 15.1628L63.5128 15.8271ZM63.4346 16.501L62.583 17.0251L62.5902 17.0368L62.5977 17.0482L63.4346 16.501ZM63.1319 15.7822C63.2575 15.7822 63.4124 15.7951 63.6 15.8268L63.9333 13.8548C63.6587 13.8084 63.3904 13.7822 63.1319 13.7822V15.7822ZM63.6023 15.8272C63.8061 15.8612 63.9843 15.9008 64.1386 15.9445L64.6838 14.0203C64.4475 13.9533 64.196 13.8986 63.9311 13.8544L63.6023 15.8272ZM65.4112 14.9824V14.8311H63.4112V14.9824H65.4112ZM65.4112 14.8311C65.4112 14.7092 65.4073 14.579 65.4001 14.4416L63.4028 14.5467C63.4086 14.6567 63.4112 14.7511 63.4112 14.8311H65.4112ZM65.4011 14.4678C65.3984 14.365 65.393 14.1714 65.3521 14.0075L63.4118 14.4925C63.4065 14.4713 63.4032 14.4546 63.4013 14.4441C63.3993 14.4333 63.3982 14.4254 63.3976 14.4211C63.397 14.4168 63.3968 14.4145 63.3968 14.4147C63.3968 14.4148 63.397 14.4165 63.3973 14.4201C63.3979 14.4274 63.3987 14.4394 63.3995 14.4569C63.4003 14.4742 63.4011 14.4952 63.4018 14.5204L65.4011 14.4678ZM65.2657 13.7821C65.1401 13.5448 64.9572 13.4051 64.8548 13.3362C64.739 13.2582 64.6183 13.2003 64.5141 13.1567L63.7419 15.0015C63.7777 15.0165 63.7693 15.0164 63.7381 14.9954C63.7211 14.9839 63.6876 14.9598 63.6476 14.9204C63.6082 14.8816 63.5497 14.8153 63.4981 14.7179L65.2657 13.7821ZM64.5219 13.16C64.1859 13.016 63.7856 12.9912 63.4542 12.9912V14.9912C63.5821 14.9912 63.6709 14.9974 63.7277 15.0048C63.7911 15.0131 63.782 15.0188 63.7341 14.9982L64.5219 13.16ZM63.4542 12.9912C63.177 12.9912 62.9005 13.0265 62.6269 13.0916L63.0901 15.0373C63.2266 15.0048 63.3473 14.9912 63.4542 14.9912V12.9912ZM62.6382 13.089C62.4033 13.142 62.1512 13.2119 61.8835 13.2964L62.4858 15.2036C62.7129 15.1319 62.91 15.078 63.0787 15.0399L62.6382 13.089ZM63.041 13.7337C62.9289 13.5476 62.8462 13.3836 62.7877 13.2409L60.9371 13.9993C61.0413 14.2537 61.1735 14.5097 61.3283 14.7663L63.041 13.7337ZM62.7949 13.2591C62.7581 13.164 62.7452 13.0843 62.7452 13.0146H60.7452C60.7452 13.3486 60.8104 13.6725 60.9298 13.9811L62.7949 13.2591ZM62.7452 13.0146C62.7452 13.0057 62.7459 12.996 62.7476 12.9851L60.7721 12.6731C60.7543 12.7859 60.7452 12.8999 60.7452 13.0146H62.7452ZM62.3738 13.6185C62.6853 13.3762 63.1344 13.2139 63.8057 13.2139V11.2139C62.8039 11.2139 61.8891 11.4617 61.1459 12.0397L62.3738 13.6185ZM63.8057 13.2139C64.1951 13.2139 64.5082 13.258 64.7569 13.3303L65.3155 11.4099C64.8481 11.2739 64.3409 11.2139 63.8057 11.2139V13.2139ZM64.7569 13.3303C64.9084 13.3744 65.0247 13.4522 65.1283 13.5865L66.7117 12.3646C66.3531 11.9 65.8802 11.5742 65.3155 11.4099L64.7569 13.3303ZM65.1283 13.5865C65.1752 13.6472 65.2667 13.824 65.2667 14.25H67.2667C67.2667 13.5757 67.1271 12.9029 66.7117 12.3646L65.1283 13.5865ZM65.2667 14.25C65.2667 14.7075 65.2127 15.1463 65.1065 15.5685L67.046 16.0565C67.1937 15.4696 67.2667 14.8667 67.2667 14.25H65.2667ZM65.1054 15.5729C65.0436 15.8235 64.9969 16.0121 64.9654 16.139C64.9496 16.2027 64.9377 16.2501 64.9298 16.2818C64.9257 16.2978 64.923 16.3085 64.9214 16.3149C64.9205 16.3183 64.9204 16.3186 64.9208 16.317C64.921 16.3164 64.9219 16.3131 64.9232 16.3084C64.9238 16.3061 64.9251 16.3016 64.9267 16.296C64.9279 16.2921 64.9317 16.2793 64.9371 16.2629L66.8345 16.8953C66.8401 16.8786 66.844 16.8654 66.8453 16.8609C66.8471 16.8547 66.8486 16.8496 66.8494 16.8465C66.8512 16.8402 66.8526 16.8349 66.8535 16.8318C66.8552 16.8251 66.8569 16.8185 66.8584 16.813C66.8613 16.8015 66.865 16.7867 66.8693 16.7696C66.8781 16.735 66.8904 16.6853 66.9064 16.6212C66.9383 16.4927 66.9852 16.3028 67.0471 16.0521L65.1054 15.5729ZM66.279 17.4986L66.987 17.1958L66.2007 15.3569L65.4927 15.6596L66.279 17.4986ZM65.8636 16.9595C65.8792 16.9762 65.9088 17.0138 65.9445 17.0867L67.7412 16.2083C67.6336 15.9881 67.4973 15.7783 67.3241 15.5932L65.8636 16.9595ZM65.9566 17.1107C65.9636 17.124 65.981 17.1639 65.9898 17.2484L67.9791 17.0426C67.9488 16.7495 67.8719 16.4574 67.7291 16.1842L65.9566 17.1107ZM66.0783 16.7226C66.0905 16.6965 66.1 16.6817 66.1016 16.6792C66.1036 16.6762 66.1011 16.6802 66.092 16.6918C66.0729 16.7159 66.0376 16.7563 65.9795 16.8144L67.3937 18.2286C67.5633 18.059 67.7677 17.8319 67.8906 17.5684L66.0783 16.7226ZM65.9871 16.8068C65.9133 16.8791 65.8077 16.9584 65.6572 17.0381L66.593 18.8057C66.8852 18.651 67.1539 18.4634 67.3861 18.2362L65.9871 16.8068ZM65.6572 17.0381C65.5741 17.0821 65.5029 17.0977 65.4317 17.0977V19.0977C65.8423 19.0977 66.2334 18.996 66.593 18.8057L65.6572 17.0381ZM65.4317 17.0977C65.3933 17.0977 65.4017 17.0918 65.4377 17.1058C65.4561 17.113 65.479 17.1243 65.5035 17.1413C65.5281 17.1583 65.5499 17.1781 65.5681 17.1988L64.0649 18.518C64.444 18.9501 64.958 19.0977 65.4317 19.0977V17.0977ZM65.5757 17.2076C65.5845 17.2179 65.5926 17.2294 65.5993 17.2413C65.6059 17.2532 65.6099 17.2632 65.6121 17.2698C65.6165 17.2829 65.6114 17.2759 65.6114 17.2383H63.6114C63.6114 17.6789 63.7344 18.1325 64.0572 18.5092L65.5757 17.2076ZM65.6114 17.2383C65.6114 17.1948 65.6177 17.1433 65.6356 17.0813L63.7142 16.5262C63.6475 16.7571 63.6114 16.9953 63.6114 17.2383H65.6114ZM64.9622 15.8459L64.8157 15.8019L64.241 17.7176L64.3875 17.7615L64.9622 15.8459ZM63.5437 16.5853C63.4775 16.9588 63.375 16.9934 63.4099 16.9712L64.4848 18.6577C65.1121 18.2579 65.397 17.5894 65.5131 16.9343L63.5437 16.5853ZM63.4099 16.9712C63.2775 17.0556 63.1374 17.0977 62.9659 17.0977V19.0977C63.5105 19.0977 64.0248 18.951 64.4848 18.6577L63.4099 16.9712ZM62.9659 17.0977C62.927 17.0977 62.8763 17.0894 62.7998 17.0437L61.7746 18.761C62.1342 18.9757 62.536 19.0977 62.9659 19.0977V17.0977ZM62.8092 17.0494C62.7573 17.0176 62.6957 16.9626 62.6329 16.8473L60.8771 17.805C61.0876 18.1911 61.3809 18.5201 61.7652 18.7553L62.8092 17.0494ZM62.6354 16.8521C62.5898 16.7673 62.5499 16.6394 62.5499 16.4375H60.5499C60.5499 16.9127 60.6467 17.3772 60.8745 17.8003L62.6354 16.8521ZM62.5499 16.4375C62.5499 16.0542 62.6446 15.9327 62.6747 15.9015L61.2356 14.5126C60.7253 15.0413 60.5499 15.7401 60.5499 16.4375H62.5499ZM62.6787 15.8973C62.7061 15.8686 62.8012 15.7822 63.1319 15.7822V13.7822C62.434 13.7822 61.7446 13.979 61.2316 14.5168L62.6787 15.8973ZM63.8847 17.6232C64.1517 17.5697 64.3753 17.4435 64.5369 17.3341L63.4163 15.6776C63.3928 15.6935 63.3853 15.6963 63.3929 15.6928C63.3994 15.6897 63.4339 15.6737 63.4924 15.662L63.8847 17.6232ZM64.5258 17.3416C64.7202 17.2138 64.8936 17.06 65.0437 16.8822L63.5151 15.5924C63.4893 15.6229 63.4609 15.6482 63.4275 15.6702L64.5258 17.3416ZM65.0437 16.8822C65.2004 16.6965 65.3645 16.4377 65.4211 16.1094L63.4502 15.7695C63.4625 15.6981 63.4844 15.6476 63.4988 15.6202C63.5128 15.5935 63.5218 15.5844 63.5151 15.5924L65.0437 16.8822ZM65.4058 15.6969L65.3765 15.5797L63.4362 16.0648L63.4655 16.182L65.4058 15.6969ZM64.5373 14.8309C64.3165 14.8017 64.0885 14.7881 63.8546 14.7881V16.7881C64.0113 16.7881 64.1511 16.7972 64.2754 16.8137L64.5373 14.8309ZM63.8546 14.7881C63.696 14.7881 63.3938 14.7922 63.1247 14.9055L63.9008 16.7488C63.8722 16.7608 63.8478 16.7691 63.8296 16.7747C63.8111 16.7803 63.7962 16.7839 63.7859 16.7862C63.766 16.7907 63.7555 16.7917 63.7582 16.7914C63.7601 16.7912 63.769 16.7903 63.7863 16.7894C63.8033 16.7887 63.8258 16.7881 63.8546 16.7881V14.7881ZM62.7654 15.1628C62.5151 15.4443 62.3565 15.8057 62.3565 16.2178H64.3565C64.3565 16.2706 64.3463 16.3285 64.3241 16.3841C64.3024 16.4383 64.2759 16.4738 64.2602 16.4915L62.7654 15.1628ZM62.3565 16.2178C62.3565 16.4977 62.4291 16.7751 62.583 17.0251L64.2863 15.9769C64.309 16.0137 64.3276 16.0557 64.34 16.1008C64.3524 16.1455 64.3565 16.1857 64.3565 16.2178H62.3565ZM62.5977 17.0482C62.8447 17.4261 63.2285 17.6068 63.6032 17.6389L63.774 15.6462C63.833 15.6513 63.9251 15.6698 64.0267 15.7265C64.1319 15.7852 64.2147 15.8667 64.2716 15.9537L62.5977 17.0482ZM67.3235 15.6611L68.3235 15.673L68.3235 15.6702L67.3235 15.6611ZM67.3382 13.8984H68.3382V13.0483L67.4991 12.9115L67.3382 13.8984ZM66.889 13.8252L65.9403 14.1414L66.1314 14.7149L66.728 14.8122L66.889 13.8252ZM66.7229 12.6533L66.0613 11.9035L65.7631 12.1667L65.727 12.5628L66.7229 12.6533ZM67.3968 12.2969L67.7072 13.2475L67.7159 13.2446L67.7245 13.2416L67.3968 12.2969ZM68.7249 12.4727L68.0178 13.1798L68.0244 13.1863L68.7249 12.4727ZM68.9104 14.0059L67.9237 13.8431L67.9224 13.8515L68.9104 14.0059ZM68.7591 14.6748L67.8275 14.3113L67.3797 15.4587L68.5947 15.6612L68.7591 14.6748ZM68.9349 14.7041L68.7705 15.6905L69.6679 15.8401L69.9014 14.9607L68.9349 14.7041ZM69.2278 13.6006L70.1943 13.8572L70.1953 13.8535L69.2278 13.6006ZM69.7161 12.5361L70.4509 13.2144L70.456 13.2088L69.7161 12.5361ZM70.8489 12.2871L70.5506 13.2416L70.5562 13.2433L70.8489 12.2871ZM71.2151 12.4678L72.1265 12.0562L72.0335 11.8503L71.8611 11.7044L71.2151 12.4678ZM71.2835 13.9717L72.2641 14.1678L72.2646 14.1651L71.2835 13.9717ZM71.1077 14.5234L70.9755 15.5147L71.6761 15.6081L71.998 14.9789L71.1077 14.5234ZM70.0823 14.3867L70.2145 13.3955L69.7058 13.3277L69.3541 13.7014L70.0823 14.3867ZM69.4183 15.3096L70.2757 15.8241L70.2776 15.8209L69.4183 15.3096ZM68.8567 16.3887L67.9366 15.997L67.8606 16.1755L67.8569 16.3694L68.8567 16.3887ZM68.8518 16.6426L67.852 16.6234L67.8272 17.9133L69.0826 17.6156L68.8518 16.6426ZM69.7991 16.418L70.6363 15.871L70.252 15.2829L69.5684 15.4449L69.7991 16.418ZM70.0774 17.2871H71.0774V17.2483L71.0744 17.2097L70.0774 17.2871ZM69.2766 17.917L69.7189 18.8139L69.7239 18.8114L69.2766 17.917ZM67.6556 17.8389L67.0236 18.6139L67.0301 18.6192L67.0367 18.6244L67.6556 17.8389ZM67.3186 16.9697L68.3181 16.9377L68.3176 16.9205L68.3164 16.9032L67.3186 16.9697ZM68.3138 16.6914C68.3138 16.5587 68.3169 16.222 68.3235 15.673L66.3236 15.6492C66.3171 16.194 66.3138 16.5442 66.3138 16.6914H68.3138ZM68.3235 15.6702C68.3332 14.6001 68.3382 14.0053 68.3382 13.8984H66.3382C66.3382 13.9934 66.3334 14.5738 66.3236 15.652L68.3235 15.6702ZM67.4991 12.9115L67.0499 12.8382L66.728 14.8122L67.1773 14.8854L67.4991 12.9115ZM67.8376 13.509C67.7899 13.3658 67.7606 13.245 67.7446 13.1447L65.7697 13.4607C65.8057 13.686 65.8643 13.9135 65.9403 14.1414L67.8376 13.509ZM67.7446 13.1447C67.7269 13.0346 67.7181 12.9231 67.7181 12.8096H65.7181C65.7181 13.0281 65.7352 13.2453 65.7697 13.4607L67.7446 13.1447ZM67.7181 12.8096C67.7181 12.7828 67.7184 12.7635 67.7188 12.7505C67.7192 12.7363 67.7196 12.7355 67.7188 12.7439L65.727 12.5628C65.7196 12.6445 65.7181 12.7327 65.7181 12.8096H67.7181ZM67.3846 13.4032C67.3707 13.4154 67.3697 13.4144 67.391 13.4C67.4106 13.3867 67.4412 13.3672 67.4856 13.3413L66.4779 11.6138C66.3428 11.6925 66.1901 11.7898 66.0613 11.9035L67.3846 13.4032ZM67.4856 13.3413C67.5292 13.3159 67.5999 13.2825 67.7072 13.2475L67.0864 11.3463C66.8746 11.4154 66.6687 11.5025 66.4779 11.6138L67.4856 13.3413ZM67.7245 13.2416C67.7805 13.2222 67.8325 13.2139 67.885 13.2139V11.2139C67.6055 11.2139 67.3321 11.2608 67.069 11.3521L67.7245 13.2416ZM67.885 13.2139C68.009 13.2139 68.0715 13.2282 68.0911 13.2342C68.1063 13.2389 68.0677 13.2297 68.0178 13.1798L69.432 11.7655C68.9872 11.3207 68.3872 11.2139 67.885 11.2139V13.2139ZM68.0244 13.1863C68.0105 13.1727 67.9991 13.1581 67.9906 13.1444C67.9823 13.1309 67.9789 13.1219 67.9783 13.1203C67.9777 13.1185 67.9886 13.1494 67.9886 13.2295H69.9886C69.9886 12.7254 69.8521 12.1778 69.4254 11.759L68.0244 13.1863ZM67.9886 13.2295C67.9886 13.3548 67.9715 13.5539 67.9238 13.8431L69.8971 14.1686C69.9536 13.8263 69.9886 13.5078 69.9886 13.2295H67.9886ZM67.9224 13.8515C67.9003 13.9932 67.8794 14.1037 67.8606 14.1868C67.8513 14.2279 67.8433 14.259 67.8368 14.2815C67.8301 14.3046 67.8267 14.3133 67.8275 14.3113L69.6906 15.0383C69.7853 14.7958 69.8485 14.4798 69.8985 14.1602L67.9224 13.8515ZM68.5947 15.6612L68.7705 15.6905L69.0993 13.7177L68.9235 13.6884L68.5947 15.6612ZM69.9014 14.9607L70.1943 13.8572L68.2613 13.344L67.9683 14.4475L69.9014 14.9607ZM70.1953 13.8535C70.312 13.4073 70.4233 13.2444 70.4509 13.2144L68.9813 11.8579C68.6183 12.2511 68.4041 12.7977 68.2603 13.3476L70.1953 13.8535ZM70.456 13.2088C70.4842 13.1778 70.4895 13.1816 70.4666 13.1928C70.4553 13.1983 70.4402 13.2041 70.4224 13.2082C70.4045 13.2124 70.3882 13.2139 70.3753 13.2139V11.2139C69.7961 11.2139 69.3219 11.4832 68.9762 11.8635L70.456 13.2088ZM70.3753 13.2139C70.431 13.2139 70.4884 13.2221 70.5506 13.2416L71.1472 11.3326C70.897 11.2544 70.6386 11.2139 70.3753 11.2139V13.2139ZM70.5562 13.2433C70.5753 13.2492 70.5899 13.2543 70.6004 13.2584C70.6109 13.2625 70.6164 13.2651 70.6177 13.2657C70.619 13.2664 70.615 13.2645 70.6069 13.2593C70.5988 13.2542 70.5856 13.2451 70.5692 13.2312L71.8611 11.7044C71.6343 11.5125 71.3715 11.4013 71.1416 11.3309L70.5562 13.2433ZM70.3038 12.8794C70.3143 12.9027 70.3518 13.014 70.3518 13.2734H72.3518C72.3518 12.8623 72.2982 12.4365 72.1265 12.0562L70.3038 12.8794ZM70.3518 13.2734C70.3518 13.4425 70.3354 13.6105 70.3024 13.7782L72.2646 14.1651C72.3227 13.8706 72.3518 13.5731 72.3518 13.2734H70.3518ZM70.3029 13.7756C70.2676 13.9519 70.2324 14.0388 70.2175 14.068L71.998 14.9789C72.1263 14.7281 72.2082 14.4472 72.2641 14.1678L70.3029 13.7756ZM71.2399 13.5322L70.2145 13.3955L69.9501 15.3779L70.9755 15.5147L71.2399 13.5322ZM69.3541 13.7014C69.0775 13.9952 68.8138 14.3699 68.5589 14.7982L70.2776 15.8209C70.4915 15.4615 70.6704 15.2209 70.8105 15.0721L69.3541 13.7014ZM68.5608 14.7951C68.3088 15.215 68.0987 15.6162 67.9366 15.997L69.7768 16.7804C69.8947 16.5036 70.0589 16.1854 70.2757 15.8241L68.5608 14.7951ZM67.8569 16.3694L67.852 16.6234L69.8517 16.6618L69.8565 16.4079L67.8569 16.3694ZM69.0826 17.6156L70.0298 17.391L69.5684 15.4449L68.6211 15.6696L69.0826 17.6156ZM68.9619 16.9649C69.0164 17.0482 69.0654 17.1708 69.0804 17.3645L71.0744 17.2097C71.0374 16.7328 70.9009 16.276 70.6363 15.871L68.9619 16.9649ZM69.0774 17.2871C69.0774 17.1415 69.1096 17.0293 69.1293 16.971C69.1509 16.9072 69.1748 16.8585 69.1902 16.8294C69.2204 16.7724 69.2488 16.7332 69.259 16.7194C69.2811 16.6894 69.2952 16.6751 69.286 16.6852C69.2716 16.7008 69.2354 16.7379 69.1668 16.8034L70.5486 18.2494C70.6265 18.1749 70.7001 18.1021 70.759 18.038C70.7864 18.0082 70.828 17.9615 70.8684 17.9067C70.8877 17.8805 70.923 17.8308 70.9578 17.7651C70.9744 17.7338 71.0774 17.5473 71.0774 17.2871H69.0774ZM69.1668 16.8034C69.1118 16.8559 69.0085 16.933 68.8294 17.0226L69.7239 18.8114C70.0266 18.6601 70.3106 18.4768 70.5486 18.2494L69.1668 16.8034ZM68.8344 17.0201C68.7555 17.059 68.6378 17.0928 68.4563 17.0928V19.0928C68.8934 19.0928 69.3225 19.0094 69.7189 18.8139L68.8344 17.0201ZM68.4563 17.0928C68.3229 17.0928 68.2846 17.0614 68.2744 17.0534L67.0367 18.6244C67.4562 18.9549 67.9518 19.0928 68.4563 19.0928V17.0928ZM68.2875 17.0638C68.3083 17.0808 68.3239 17.0986 68.3344 17.1137C68.3446 17.1281 68.3469 17.1355 68.345 17.1308C68.3401 17.1181 68.3221 17.0614 68.3181 16.9377L66.3192 17.0017C66.3368 17.5539 66.4962 18.1839 67.0236 18.6139L68.2875 17.0638ZM68.3164 16.9032C68.3165 16.9036 68.3156 16.8877 68.3148 16.846C68.3141 16.8075 68.3138 16.7564 68.3138 16.6914H66.3138C66.3138 16.8244 66.3151 16.9493 66.3209 17.0362L68.3164 16.9032ZM71.7251 13.8545L72.7244 13.8918L72.757 13.0193L71.8968 12.8693L71.7251 13.8545ZM71.1929 13.7617L70.225 14.0134L70.387 14.6363L71.0211 14.7469L71.1929 13.7617ZM71.0806 12.9365L70.0855 12.837L70.0806 12.8866V12.9365H71.0806ZM71.0903 12.8389L70.1125 12.6293L70.1008 12.6839L70.0953 12.7394L71.0903 12.8389ZM71.105 12.7266L70.8895 11.7501L70.105 11.9232V12.7266H71.105ZM71.813 12.5703L72.0285 13.5468L72.7503 13.3875L72.8097 12.6507L71.813 12.5703ZM72.1108 11.3252L71.5108 10.5252L71.3354 10.6568L71.2311 10.8497L72.1108 11.3252ZM73.3755 11.1348L73.1611 12.1115L73.1747 12.1145L73.1884 12.1171L73.3755 11.1348ZM73.7319 11.2422L74.7281 11.1543L74.6766 10.5716L74.1435 10.3308L73.7319 11.2422ZM73.7124 12.4189L72.7153 12.3422L72.6159 13.6347L73.8913 13.4028L73.7124 12.4189ZM74.5718 12.2627L75.4375 11.7622L75.0853 11.1529L74.3929 11.2788L74.5718 12.2627ZM74.689 13.4004L73.7337 13.1047L73.7304 13.1152L73.7274 13.1257L74.689 13.4004ZM74.5229 13.8643L74.6873 14.8507L75.2341 14.7595L75.4465 14.2476L74.5229 13.8643ZM73.6392 13.9326L73.6131 12.933L72.7193 12.9563L72.6428 13.847L73.6392 13.9326ZM73.3364 16.2715L72.3478 16.1213L72.3471 16.126L73.3364 16.2715ZM73.312 16.4375L72.3226 16.292L72.2495 16.7892L72.6049 17.1446L73.312 16.4375ZM73.3218 16.4473L72.6147 17.1544L73.0417 17.5814L73.6184 17.4023L73.3218 16.4473ZM74.4692 16.0908L75.1105 15.3235L74.6926 14.9743L74.1726 15.1358L74.4692 16.0908ZM74.9038 17.0088H75.9038V16.946L75.896 16.8838L74.9038 17.0088ZM74.5864 17.3311L75.2579 18.072L75.2585 18.0715L74.5864 17.3311ZM73.8003 17.8584L74.2512 18.751L74.2585 18.7473L73.8003 17.8584ZM71.7349 16.9111L72.7334 16.8577L72.7332 16.8543L71.7349 16.9111ZM72.7007 15.3047C72.7007 14.784 72.7087 14.3133 72.7244 13.8918L70.7258 13.8172C70.709 14.2681 70.7007 14.7642 70.7007 15.3047H72.7007ZM71.8968 12.8693L71.3646 12.7766L71.0211 14.7469L71.5534 14.8396L71.8968 12.8693ZM72.1607 13.5101C72.1254 13.3745 72.1059 13.2732 72.0964 13.2016L70.1135 13.4625C70.1367 13.6383 70.1757 13.8235 70.225 14.0134L72.1607 13.5101ZM72.0964 13.2016C72.0865 13.126 72.0806 13.038 72.0806 12.9365H70.0806C70.0806 13.1149 70.0909 13.2907 70.1135 13.4625L72.0964 13.2016ZM72.0756 13.036L72.0854 12.9384L70.0953 12.7394L70.0855 12.837L72.0756 13.036ZM72.0681 13.0484C72.0851 12.9692 72.105 12.855 72.105 12.7266H70.105C70.105 12.6877 70.1081 12.6599 70.1097 12.6473C70.1115 12.6337 70.113 12.6272 70.1125 12.6293L72.0681 13.0484ZM71.3205 13.7031L72.0285 13.5468L71.5975 11.5938L70.8895 11.7501L71.3205 13.7031ZM72.8097 12.6507C72.8212 12.509 72.8491 12.3307 72.8997 12.1116L70.9509 11.6619C70.8843 11.9506 70.8373 12.228 70.8162 12.4899L72.8097 12.6507ZM72.8997 12.1116C72.9241 12.0057 72.9464 11.9265 72.9651 11.8697C72.9849 11.8099 72.9952 11.7921 72.9905 11.8007L71.2311 10.8497C71.1007 11.0911 71.015 11.3842 70.9509 11.6619L72.8997 12.1116ZM72.7108 12.1252C72.6972 12.1354 72.7017 12.1271 72.7445 12.1156L72.2291 10.1832C71.979 10.2499 71.7328 10.3587 71.5108 10.5252L72.7108 12.1252ZM72.7445 12.1156C72.7978 12.1014 72.8682 12.0908 72.9604 12.0908V10.0908C72.7142 10.0908 72.4688 10.1193 72.2291 10.1832L72.7445 12.1156ZM72.9604 12.0908C73.035 12.0908 73.1013 12.0984 73.1611 12.1115L73.5899 10.158C73.3827 10.1125 73.1723 10.0908 72.9604 10.0908V12.0908ZM73.1884 12.1171C73.2665 12.132 73.3068 12.1474 73.3203 12.1536L74.1435 10.3308C73.9553 10.2458 73.7579 10.1896 73.5626 10.1524L73.1884 12.1171ZM72.7358 11.3301C72.7424 11.4046 72.7466 11.5013 72.7466 11.623H74.7466C74.7466 11.4584 74.741 11.3011 74.7281 11.1543L72.7358 11.3301ZM72.7466 11.623C72.7466 11.8261 72.7367 12.0652 72.7153 12.3422L74.7095 12.4956C74.7337 12.1803 74.7466 11.8887 74.7466 11.623H72.7466ZM73.8913 13.4028L74.7507 13.2466L74.3929 11.2788L73.5335 11.4351L73.8913 13.4028ZM73.706 12.7632C73.7372 12.8171 73.7524 12.8703 73.7524 12.9414H75.7524C75.7524 12.5242 75.6472 12.125 75.4375 11.7622L73.706 12.7632ZM73.7524 12.9414C73.7524 13.0282 73.7415 13.0794 73.7337 13.1047L75.6442 13.6961C75.721 13.448 75.7524 13.1931 75.7524 12.9414H73.7524ZM73.7274 13.1257C73.7016 13.2161 73.6605 13.3335 73.5994 13.4809L75.4465 14.2476C75.5286 14.0499 75.5982 13.8581 75.6505 13.6751L73.7274 13.1257ZM74.3585 12.8779C74.2105 12.9025 73.9689 12.9237 73.6131 12.933L73.6652 14.9323C74.0581 14.922 74.4057 14.8976 74.6873 14.8507L74.3585 12.8779ZM72.6428 13.847C72.6001 14.3443 72.5032 15.098 72.3478 16.1213L74.3251 16.4217C74.4821 15.3877 74.5871 14.5821 74.6355 14.0182L72.6428 13.847ZM72.3471 16.126L72.3226 16.292L74.3014 16.583L74.3258 16.417L72.3471 16.126ZM72.6049 17.1446L72.6147 17.1544L74.0289 15.7402L74.0191 15.7304L72.6049 17.1446ZM73.6184 17.4023L74.7659 17.0458L74.1726 15.1358L73.0251 15.4923L73.6184 17.4023ZM73.828 16.8582C73.8283 16.8584 73.8299 16.8597 73.8332 16.864C73.8366 16.8685 73.8435 16.8786 73.8523 16.8971C73.8704 16.9353 73.8959 17.0088 73.9116 17.1338L75.896 16.8838C75.8234 16.3079 75.601 15.7333 75.1105 15.3235L73.828 16.8582ZM73.9038 17.0088C73.9038 16.8327 73.951 16.701 73.9729 16.6456C73.9988 16.5802 74.0264 16.5317 74.0421 16.5056C74.0732 16.4539 74.1009 16.4197 74.1079 16.4112C74.1245 16.3906 74.1307 16.3858 74.112 16.4048C74.079 16.4382 74.0162 16.4982 73.9143 16.5906L75.2585 18.0715C75.3683 17.9719 75.4641 17.8821 75.5369 17.8081C75.5712 17.7734 75.617 17.7254 75.6601 17.6723C75.6802 17.6476 75.7179 17.5997 75.7556 17.537C75.7623 17.5259 75.9038 17.3122 75.9038 17.0088H73.9038ZM73.9149 16.5901C73.7853 16.7076 73.5999 16.8367 73.3421 16.9695L74.2585 18.7473C74.6322 18.5546 74.9709 18.3322 75.2579 18.072L73.9149 16.5901ZM73.3494 16.9658C73.1803 17.0512 72.9924 17.0977 72.77 17.0977V19.0977C73.2898 19.0977 73.7887 18.9846 74.2512 18.751L73.3494 16.9658ZM72.77 17.0977C72.7086 17.0977 72.6953 17.0882 72.711 17.0945C72.7317 17.1027 72.7588 17.1206 72.7789 17.1436C72.7961 17.1633 72.7884 17.1642 72.774 17.1199C72.7589 17.0736 72.7405 16.9903 72.7334 16.8577L70.7363 16.9646C70.7636 17.4749 70.8943 18.0257 71.2719 18.4584C71.6777 18.9236 72.2306 19.0977 72.77 19.0977V17.0977ZM72.7332 16.8543C72.712 16.4812 72.7007 15.967 72.7007 15.3047H70.7007C70.7007 15.9835 70.7121 16.5403 70.7365 16.968L72.7332 16.8543Z" fill="black" mask="url(#path-2-outside-1_739_836)"/>
</svg>
