<svg width="95" height="29" viewBox="0 0 95 29" fill="none" xmlns="http://www.w3.org/2000/svg">
<rect width="95" height="29" rx="14.5" fill="black"/>
<path d="M20.2979 16.4326C20.4964 16.4977 20.6771 16.5498 20.8398 16.5889C21.1556 15.3193 21.5153 13.8203 21.9189 12.0918L20.7422 11.9648C20.6673 11.7598 20.6299 11.527 20.6299 11.2666C20.6299 11.068 20.6527 10.8743 20.6982 10.6855C21.1702 10.5944 21.7139 10.5293 22.3291 10.4902C22.9476 10.4479 23.4782 10.4268 23.9209 10.4268C24.2399 10.4268 24.4792 10.4284 24.6387 10.4316L24.9463 10.6074C25.4932 12.1081 26.0482 14.1377 26.6113 16.6963C26.6178 16.7223 26.6292 16.7744 26.6455 16.8525C26.665 16.9307 26.6797 17.0055 26.6895 17.0771C26.6992 17.1455 26.7041 17.2106 26.7041 17.2725C26.7041 17.5459 26.6064 17.7673 26.4111 17.9365C26.1377 18.0439 25.8073 18.0977 25.4199 18.0977C25.2376 18.0977 25.0537 18.0781 24.8682 18.0391C24.6826 18 24.5573 17.9398 24.4922 17.8584L24.5508 16.5986L24.4287 15.9443C24.2171 15.9574 23.9681 15.9639 23.6816 15.9639C23.3757 15.9639 23.0892 15.9541 22.8223 15.9346L22.7637 16.1982C22.6367 16.7646 22.5326 17.1667 22.4512 17.4043C22.373 17.6419 22.2559 17.8177 22.0996 17.9316C21.9466 18.0456 21.7171 18.1025 21.4111 18.1025C21.2126 18.1025 21.0124 18.0765 20.8105 18.0244C20.6087 17.9756 20.4264 17.9089 20.2637 17.8242C20.1009 17.7396 19.9788 17.6484 19.8975 17.5508C19.8975 17.3164 19.9333 17.0934 20.0049 16.8818C20.0765 16.6702 20.1742 16.5205 20.2979 16.4326ZM23.7207 12.1357H23.4961L23.1445 14.543H24.2383L23.7207 12.1357ZM26.8088 15.1826C26.8088 14.6878 26.8772 14.2142 27.0139 13.7617C27.1538 13.3092 27.3719 12.9382 27.6682 12.6484C27.9677 12.3587 28.3436 12.2139 28.7961 12.2139C29.3039 12.2139 29.7889 12.375 30.2512 12.6973L30.3293 12.6484C30.3195 12.2676 30.2723 11.9225 30.1877 11.6133L29.1965 11.5498C29.1509 11.4912 29.1151 11.4049 29.0891 11.291C29.063 11.1738 29.05 11.0534 29.05 10.9297C29.05 10.7637 29.0695 10.6204 29.1086 10.5C29.3039 10.36 29.5546 10.2542 29.8606 10.1826C30.1665 10.111 30.4725 10.0752 30.7785 10.0752C31.1171 10.0752 31.3726 10.1468 31.5451 10.29C31.7177 10.43 31.8332 10.6432 31.8918 10.9297C31.9537 11.2129 31.9846 11.6068 31.9846 12.1113C31.9846 12.7754 31.9569 13.529 31.9016 14.3721C31.8462 15.2152 31.7746 15.9036 31.6867 16.4375L31.6672 16.5205L32.2336 16.2764C32.328 16.3773 32.411 16.501 32.4826 16.6475C32.5575 16.7907 32.6047 16.9567 32.6242 17.1455C32.5787 17.2432 32.4794 17.3685 32.3264 17.5215C32.1734 17.6712 31.9862 17.8047 31.7649 17.9219C31.5435 18.0391 31.3124 18.0977 31.0715 18.0977C30.8013 18.0977 30.593 18.0179 30.4465 17.8584C30.3033 17.6956 30.2316 17.4889 30.2316 17.2383C30.2316 17.1732 30.2479 17.0397 30.2805 16.8379C30.3163 16.6361 30.3456 16.4961 30.3684 16.418L30.2219 16.374C30.0559 16.9567 29.8361 17.3896 29.5627 17.6729C29.2893 17.9561 28.9507 18.0977 28.5471 18.0977C28.1141 18.0977 27.7675 17.9544 27.507 17.668C27.2499 17.3783 27.0692 17.0153 26.965 16.5791C26.8609 16.1429 26.8088 15.6774 26.8088 15.1826ZM30.1584 15.0947C30.1779 14.9775 30.1877 14.8408 30.1877 14.6846C30.1877 14.5837 30.1828 14.4876 30.1731 14.3965C30.1665 14.3053 30.1584 14.2402 30.1486 14.2012C30.0184 14.1068 29.8703 14.04 29.7043 14.001C29.5415 13.9619 29.3918 13.9424 29.2551 13.9424C29.1705 13.9424 29.0793 13.9505 28.9816 13.9668C28.9165 14.0319 28.8645 14.1735 28.8254 14.3916C28.7863 14.6064 28.7668 14.849 28.7668 15.1191C28.7668 15.4089 28.7863 15.6904 28.8254 15.9639C28.8677 16.234 28.9263 16.4456 29.0012 16.5986C29.0533 16.5986 29.1542 16.5189 29.3039 16.3594C29.4569 16.1966 29.6148 15.998 29.7775 15.7637C29.9403 15.526 30.0673 15.3031 30.1584 15.0947ZM32.5727 15.1826C32.5727 14.6878 32.641 14.2142 32.7778 13.7617C32.9177 13.3092 33.1358 12.9382 33.432 12.6484C33.7315 12.3587 34.1075 12.2139 34.56 12.2139C35.0678 12.2139 35.5528 12.375 36.0151 12.6973L36.0932 12.6484C36.0834 12.2676 36.0362 11.9225 35.9516 11.6133L34.9604 11.5498C34.9148 11.4912 34.879 11.4049 34.8529 11.291C34.8269 11.1738 34.8139 11.0534 34.8139 10.9297C34.8139 10.7637 34.8334 10.6204 34.8725 10.5C35.0678 10.36 35.3184 10.2542 35.6244 10.1826C35.9304 10.111 36.2364 10.0752 36.5424 10.0752C36.8809 10.0752 37.1365 10.1468 37.309 10.29C37.4815 10.43 37.5971 10.6432 37.6557 10.9297C37.7175 11.2129 37.7485 11.6068 37.7485 12.1113C37.7485 12.7754 37.7208 13.529 37.6654 14.3721C37.6101 15.2152 37.5385 15.9036 37.4506 16.4375L37.4311 16.5205L37.9975 16.2764C38.0919 16.3773 38.1749 16.501 38.2465 16.6475C38.3214 16.7907 38.3686 16.9567 38.3881 17.1455C38.3425 17.2432 38.2432 17.3685 38.0903 17.5215C37.9373 17.6712 37.7501 17.8047 37.5287 17.9219C37.3074 18.0391 37.0763 18.0977 36.8354 18.0977C36.5652 18.0977 36.3569 18.0179 36.2104 17.8584C36.0671 17.6956 35.9955 17.4889 35.9955 17.2383C35.9955 17.1732 36.0118 17.0397 36.0444 16.8379C36.0802 16.6361 36.1095 16.4961 36.1322 16.418L35.9858 16.374C35.8197 16.9567 35.6 17.3896 35.3266 17.6729C35.0531 17.9561 34.7146 18.0977 34.311 18.0977C33.878 18.0977 33.5313 17.9544 33.2709 17.668C33.0138 17.3783 32.8331 17.0153 32.7289 16.5791C32.6248 16.1429 32.5727 15.6774 32.5727 15.1826ZM35.9223 15.0947C35.9418 14.9775 35.9516 14.8408 35.9516 14.6846C35.9516 14.5837 35.9467 14.4876 35.9369 14.3965C35.9304 14.3053 35.9223 14.2402 35.9125 14.2012C35.7823 14.1068 35.6342 14.04 35.4682 14.001C35.3054 13.9619 35.1557 13.9424 35.019 13.9424C34.9343 13.9424 34.8432 13.9505 34.7455 13.9668C34.6804 14.0319 34.6283 14.1735 34.5893 14.3916C34.5502 14.6064 34.5307 14.849 34.5307 15.1191C34.5307 15.4089 34.5502 15.6904 34.5893 15.9639C34.6316 16.234 34.6902 16.4456 34.7651 16.5986C34.8171 16.5986 34.918 16.5189 35.0678 16.3594C35.2208 16.1966 35.3787 15.998 35.5414 15.7637C35.7042 15.526 35.8311 15.3031 35.9223 15.0947ZM43.0479 16.3398C43.2855 16.4342 43.4727 16.5075 43.6094 16.5596C43.7461 16.6117 43.8894 16.6572 44.0391 16.6963C44.0814 16.5889 44.1026 16.4424 44.1026 16.2568C44.1026 16.0062 44.0847 15.5472 44.0489 14.8799C43.9968 13.988 43.9707 13.3044 43.9707 12.8291C43.9707 12.5003 43.9805 12.2171 44 11.9795L43.1944 11.9307L43.1797 13.4688C42.9356 13.5501 42.6605 13.5908 42.3545 13.5908C42.2764 13.5908 42.2178 13.5892 42.1787 13.5859C42.0713 13.5013 41.959 13.3678 41.8418 13.1855C41.7279 13.0033 41.6335 12.7982 41.5586 12.5703C41.4838 12.3424 41.4463 12.1227 41.4463 11.9111C41.4463 11.5465 41.5065 11.2682 41.627 11.0762C41.7474 10.8841 41.9167 10.7523 42.1348 10.6807C42.3529 10.6058 42.6442 10.557 43.0088 10.5342C43.5752 10.5016 44.2409 10.4772 45.0059 10.4609C45.7741 10.4414 46.5082 10.4316 47.208 10.4316C47.3024 10.5521 47.3724 10.6872 47.418 10.8369C47.4668 10.9867 47.4912 11.1364 47.4912 11.2861C47.4912 11.5661 47.4196 11.8005 47.2764 11.9893C47.1332 12.1781 46.9216 12.2725 46.6416 12.2725C46.4593 12.2725 46.2396 12.2399 45.9825 12.1748C45.9239 13.7048 45.8392 15.1175 45.7286 16.4131C45.7058 16.6637 45.6683 16.8851 45.6162 17.0771C45.5642 17.2692 45.4844 17.4368 45.377 17.5801C45.2435 17.7559 45.0596 17.8861 44.8252 17.9707C44.5909 18.0553 44.3321 18.0977 44.0489 18.0977C43.7819 18.0977 43.5183 18.0505 43.2579 17.9561C43.0007 17.8617 42.807 17.6875 42.6768 17.4336C42.6801 17.222 42.7061 17.0348 42.7549 16.8721C42.8037 16.7061 42.9014 16.5286 43.0479 16.3398ZM47.01 15.1143C47.01 14.5251 47.1044 14.014 47.2932 13.5811C47.482 13.1481 47.7717 12.8128 48.1624 12.5752C48.553 12.3343 49.0429 12.2139 49.6321 12.2139C50.2831 12.2139 50.7942 12.3359 51.1653 12.5801C51.5364 12.821 51.7952 13.1562 51.9416 13.5859C52.0914 14.0156 52.1663 14.5413 52.1663 15.1631C52.1663 15.7262 52.067 16.2292 51.8684 16.6719C51.6731 17.1113 51.3769 17.4596 50.9797 17.7168C50.5859 17.9707 50.1025 18.0977 49.5295 18.0977C48.6441 18.0977 48.0028 17.8258 47.6057 17.2822C47.2086 16.7354 47.01 16.0127 47.01 15.1143ZM49.7297 16.667C49.8958 16.667 49.9967 16.654 50.0325 16.6279C50.1073 16.4977 50.1643 16.3138 50.2034 16.0762C50.2424 15.8385 50.262 15.5814 50.262 15.3047C50.262 15.0508 50.2457 14.8132 50.2131 14.5918C50.1806 14.3672 50.135 14.1914 50.0764 14.0645C50.0406 14.0221 49.969 13.9912 49.8616 13.9717C49.7541 13.9489 49.637 13.9375 49.51 13.9375C49.344 13.9375 49.2301 13.9554 49.1682 13.9912C49.0055 14.2712 48.9241 14.6602 48.9241 15.1582C48.9241 15.3926 48.942 15.6318 48.9778 15.876C49.0136 16.1201 49.0592 16.3415 49.1145 16.54C49.1536 16.5824 49.2333 16.6149 49.3538 16.6377C49.4742 16.6572 49.5995 16.667 49.7297 16.667ZM55.9569 14.2695C55.9569 13.5306 56.066 12.873 56.2841 12.2969C56.5054 11.7174 56.8505 11.2601 57.3192 10.9248C57.788 10.5895 58.3804 10.4219 59.0966 10.4219C59.5848 10.4219 60.1008 10.4854 60.6444 10.6123C60.8202 10.7165 60.9732 10.8255 61.1034 10.9395C61.2369 11.0501 61.3638 11.1852 61.4842 11.3447C61.4842 11.5758 61.4533 11.8835 61.3915 12.2676C61.3296 12.6484 61.2515 13.0049 61.1571 13.3369C61.066 13.6657 60.9781 13.8789 60.8934 13.9766C60.8088 14.0189 60.7372 14.0482 60.6786 14.0645C60.62 14.0775 60.5288 14.084 60.4051 14.084C60.2522 14.084 60.1089 14.0726 59.9755 14.0498C59.842 14.027 59.7411 13.9961 59.6727 13.957L59.5018 12.3115C59.2707 12.2464 58.9501 12.2139 58.5399 12.2139C58.4292 12.2139 58.3479 12.2155 58.2958 12.2188C58.1558 12.668 58.0777 13.2718 58.0614 14.0303C58.0581 14.1214 58.0565 14.2598 58.0565 14.4453C58.0565 14.8815 58.0793 15.2347 58.1249 15.5049C58.1672 15.7588 58.2128 15.9492 58.2616 16.0762C58.3104 16.2031 58.3951 16.3008 58.5155 16.3691C58.6392 16.4375 58.8231 16.4717 59.0673 16.4717C59.396 16.4717 59.6988 16.4245 59.9755 16.3301C60.2554 16.2324 60.5598 16.0908 60.8885 15.9053C61.0122 16.0387 61.1066 16.1478 61.1717 16.2324C61.2401 16.3171 61.302 16.4212 61.3573 16.5449C61.4159 16.6686 61.455 16.8102 61.4745 16.9697C61.4224 17.0771 61.2841 17.2204 61.0594 17.3994C60.8348 17.5785 60.5402 17.7396 60.1757 17.8828C59.8111 18.026 59.4025 18.0977 58.9501 18.0977C57.8921 18.0977 57.1288 17.7673 56.66 17.1064C56.1913 16.4456 55.9569 15.5 55.9569 14.2695ZM63.1319 14.7822C63.324 14.7822 63.5356 14.8018 63.7667 14.8408C64.0011 14.8799 64.2159 14.9271 64.4112 14.9824V14.8311C64.4112 14.7301 64.408 14.6178 64.4014 14.4941C64.3982 14.3704 64.3917 14.2891 64.3819 14.25C64.3526 14.1947 64.268 14.1377 64.128 14.0791C63.9913 14.0205 63.7667 13.9912 63.4542 13.9912C63.2621 13.9912 63.0636 14.0156 62.8585 14.0645C62.6567 14.11 62.432 14.1719 62.1846 14.25C62.0512 14.0286 61.9438 13.8187 61.8624 13.6201C61.7843 13.4183 61.7452 13.2165 61.7452 13.0146C61.7452 12.9528 61.7501 12.891 61.7598 12.8291C62.2872 12.4189 62.9692 12.2139 63.8057 12.2139C64.268 12.2139 64.6781 12.266 65.0362 12.3701C65.3943 12.4743 65.6889 12.6761 65.92 12.9756C66.1511 13.2751 66.2667 13.6999 66.2667 14.25C66.2667 14.7871 66.2032 15.3079 66.0762 15.8125C65.9526 16.3138 65.8891 16.5693 65.8858 16.5791L66.5938 16.2764C66.6882 16.3773 66.7712 16.501 66.8428 16.6475C66.9177 16.7907 66.9649 16.9567 66.9845 17.1455C66.9389 17.2432 66.8396 17.3685 66.6866 17.5215C66.5336 17.6712 66.3464 17.8047 66.1251 17.9219C65.9037 18.0391 65.6726 18.0977 65.4317 18.0977C65.1615 18.0977 64.9565 18.0179 64.8165 17.8584C64.6798 17.6989 64.6114 17.4922 64.6114 17.2383C64.6114 17.0951 64.6326 16.9502 64.6749 16.8037L64.5284 16.7598C64.4373 17.2741 64.2436 17.6257 63.9473 17.8145C63.6511 18.0033 63.324 18.0977 62.9659 18.0977C62.7315 18.0977 62.5053 18.0326 62.2872 17.9023C62.0691 17.7689 61.8917 17.5768 61.755 17.3262C61.6182 17.0723 61.5499 16.776 61.5499 16.4375C61.5499 15.8971 61.685 15.487 61.9552 15.207C62.2253 14.9238 62.6176 14.7822 63.1319 14.7822ZM63.6886 16.6426C63.7699 16.6263 63.866 16.5807 63.9766 16.5059C64.0906 16.431 64.1915 16.3415 64.2794 16.2373C64.3673 16.1331 64.4193 16.0339 64.4356 15.9395L64.4063 15.8223C64.2338 15.7995 64.0499 15.7881 63.8546 15.7881C63.6886 15.7881 63.5746 15.8011 63.5128 15.8271C63.4086 15.9443 63.3565 16.0745 63.3565 16.2178C63.3565 16.3219 63.3826 16.4163 63.4346 16.501C63.49 16.5856 63.5746 16.6328 63.6886 16.6426ZM67.3138 16.6914C67.3138 16.5514 67.317 16.208 67.3235 15.6611C67.3333 14.5869 67.3382 13.9993 67.3382 13.8984L66.889 13.8252C66.8271 13.6396 66.7832 13.4655 66.7571 13.3027C66.7311 13.14 66.7181 12.9756 66.7181 12.8096C66.7181 12.7412 66.7197 12.6891 66.7229 12.6533C66.7783 12.6045 66.8645 12.5459 66.9817 12.4775C67.0989 12.4092 67.2373 12.349 67.3968 12.2969C67.5563 12.2415 67.719 12.2139 67.885 12.2139C68.2724 12.2139 68.5524 12.3001 68.7249 12.4727C68.9007 12.6452 68.9886 12.8975 68.9886 13.2295C68.9886 13.4313 68.9625 13.6901 68.9104 14.0059C68.8616 14.3184 68.8112 14.5413 68.7591 14.6748L68.9349 14.7041L69.2278 13.6006C69.358 13.1025 69.5208 12.7477 69.7161 12.5361C69.9114 12.3213 70.1311 12.2139 70.3753 12.2139C70.5348 12.2139 70.6927 12.2383 70.8489 12.2871C71.0084 12.3359 71.1305 12.3962 71.2151 12.4678C71.3063 12.6696 71.3518 12.9382 71.3518 13.2734C71.3518 13.5078 71.3291 13.7406 71.2835 13.9717C71.2379 14.1995 71.1793 14.3835 71.1077 14.5234L70.0823 14.3867C69.874 14.6081 69.6526 14.9157 69.4183 15.3096C69.1839 15.7002 68.9967 16.0599 68.8567 16.3887L68.8518 16.6426L69.7991 16.418C69.9586 16.6621 70.0514 16.9518 70.0774 17.2871C70.0774 17.3066 70.0042 17.3864 69.8577 17.5264C69.7112 17.6663 69.5175 17.7965 69.2766 17.917C69.039 18.0342 68.7656 18.0928 68.4563 18.0928C68.1373 18.0928 67.8704 18.0081 67.6556 17.8389C67.444 17.6663 67.3317 17.3766 67.3186 16.9697C67.3154 16.9209 67.3138 16.8281 67.3138 16.6914ZM71.7007 15.3047C71.7007 14.7741 71.7088 14.2907 71.7251 13.8545L71.1929 13.7617C71.1505 13.599 71.1213 13.4557 71.105 13.332C71.0887 13.2083 71.0806 13.0765 71.0806 12.9365L71.0903 12.8389C71.1001 12.7933 71.105 12.7559 71.105 12.7266L71.813 12.5703C71.8293 12.3685 71.8667 12.1406 71.9253 11.8867C71.9839 11.6328 72.0457 11.4456 72.1108 11.3252C72.215 11.2471 72.3403 11.1885 72.4868 11.1494C72.6333 11.1104 72.7912 11.0908 72.9604 11.0908C73.1037 11.0908 73.242 11.1055 73.3755 11.1348C73.5122 11.1608 73.631 11.1966 73.7319 11.2422C73.7417 11.3529 73.7466 11.4798 73.7466 11.623C73.7466 11.8574 73.7352 12.1227 73.7124 12.4189L74.5718 12.2627C74.6922 12.471 74.7524 12.6973 74.7524 12.9414C74.7524 13.1107 74.7313 13.2637 74.689 13.4004C74.6499 13.5371 74.5946 13.6917 74.5229 13.8643C74.3081 13.9001 74.0135 13.9229 73.6392 13.9326C73.5936 14.4632 73.4927 15.2428 73.3364 16.2715L73.312 16.4375L73.3218 16.4473L74.4692 16.0908C74.7069 16.2894 74.8517 16.5954 74.9038 17.0088C74.9038 17.0316 74.798 17.139 74.5864 17.3311C74.3781 17.5199 74.116 17.6956 73.8003 17.8584C73.4845 18.0179 73.1411 18.0977 72.77 18.0977C72.1222 18.0977 71.7772 17.7021 71.7349 16.9111C71.7121 16.5107 71.7007 15.9753 71.7007 15.3047Z" fill="white"/>
</svg>
