<svg width="64" height="21" viewBox="0 0 64 21" fill="none" xmlns="http://www.w3.org/2000/svg">
<rect x="0.5" y="0.5" width="63" height="20" rx="6.5" fill="black" stroke="black"/>
<path d="M31.1668 16H27.6568V15.88C27.6568 15.33 27.8768 15.035 28.3168 14.995L28.7518 14.965H28.7668L28.1668 12.79H25.4668L24.8368 14.935L26.0518 15.025C26.0818 15.085 26.0768 15.22 26.0368 15.43C25.9468 15.81 25.7268 16 25.3768 16H22.3618V15.88C22.3618 15.33 22.5818 15.035 23.0218 14.995L23.5768 14.965L26.4568 5.725C26.8868 5.685 27.3918 5.685 27.9718 5.725L30.7918 14.935L31.8418 15.025C31.8718 15.085 31.8668 15.22 31.8268 15.43C31.7368 15.81 31.5168 16 31.1668 16ZM25.7518 11.785H27.8968L26.8618 7.99L25.7518 11.785ZM35.4861 16H32.1411V15.88C32.1411 15.33 32.3611 15.035 32.8011 14.995L33.2661 14.965V6.595L32.6811 6.535C32.2711 6.495 32.0861 6.185 32.1261 5.605L35.0961 5.275V14.935L36.1611 15.025C36.2211 15.675 35.9961 16 35.4861 16ZM39.8682 16H36.5232V15.88C36.5232 15.33 36.7432 15.035 37.1832 14.995L37.6482 14.965V6.595L37.0632 6.535C36.6532 6.495 36.4682 6.185 36.5082 5.605L39.4782 5.275V14.935L40.5432 15.025C40.6032 15.675 40.3782 16 39.8682 16Z" fill="white"/>
</svg>
