<svg width="363" height="39" viewBox="0 0 363 39" fill="none" xmlns="http://www.w3.org/2000/svg">
<path d="M38.3198 10.8574C38.3198 9.18066 38.3447 7.89404 38.3945 6.99756H38.3862L37.1162 6.82324C37.0443 6.61849 36.9889 6.39437 36.9502 6.15088C36.9115 5.90186 36.8921 5.66113 36.8921 5.42871C36.8921 5.25163 36.9059 5.05794 36.9336 4.84766C37.6087 4.62077 38.4914 4.44645 39.5815 4.32471C40.6717 4.19743 41.7121 4.13379 42.7026 4.13379C43.5493 4.13379 44.277 4.2002 44.8857 4.33301C45.4945 4.46029 46.0036 4.75358 46.4131 5.21289C46.8281 5.66667 47.0356 6.34456 47.0356 7.24658C47.0356 7.60075 46.9388 8.00195 46.7451 8.4502C46.5514 8.8929 46.2969 9.31071 45.9814 9.70361C45.6715 10.091 45.3478 10.3898 45.0103 10.6001C45.4308 10.672 45.821 10.8187 46.1807 11.04C46.5459 11.2559 46.842 11.5519 47.0688 11.9282C47.2957 12.299 47.4092 12.7389 47.4092 13.248C47.4092 13.9287 47.2791 14.5153 47.019 15.0078C46.759 15.5003 46.3882 15.9071 45.9067 16.228C44.966 16.8534 43.6379 17.166 41.9224 17.166C41.2472 17.166 40.6468 17.1522 40.1211 17.1245C39.6009 17.1024 39.1195 17.0581 38.6768 16.9917C38.4388 15.7078 38.3198 13.6631 38.3198 10.8574ZM43.043 10.3345C43.1868 9.9305 43.3086 9.41862 43.4082 8.79883C43.5133 8.1735 43.577 7.66439 43.5991 7.27148C43.5715 7.22168 43.4303 7.18018 43.1758 7.14697C42.9212 7.10824 42.592 7.08887 42.188 7.08887C42.0607 7.08887 41.8477 7.09717 41.5488 7.11377C41.5046 8.35889 41.4382 9.47673 41.3496 10.4673L42.188 10.4009L43.043 10.3345ZM42.6279 14.9912C43.0928 14.9912 43.4248 14.9718 43.624 14.9331C43.7624 14.8501 43.8841 14.7007 43.9893 14.4849C44.0999 14.269 44.1829 14.0339 44.2383 13.7793C44.2936 13.5192 44.3213 13.2868 44.3213 13.082C44.2217 12.7943 43.7264 12.6504 42.8354 12.6504C42.4591 12.6504 42.0275 12.6753 41.5405 12.7251C41.4077 12.7417 41.3081 12.75 41.2417 12.75L41.2168 13.9619C41.2113 14.0837 41.2057 14.2248 41.2002 14.3853C41.1947 14.5457 41.1919 14.7256 41.1919 14.9248C41.5571 14.9691 41.9556 14.9912 42.3872 14.9912H42.6279ZM48.404 5.08838C48.404 4.6014 48.5617 4.20573 48.8772 3.90137C49.1981 3.59701 49.7072 3.44482 50.4045 3.44482C51.1018 3.44482 51.6081 3.59701 51.9235 3.90137C52.2445 4.20573 52.405 4.6014 52.405 5.08838C52.405 5.36507 52.3081 5.61963 52.1145 5.85205C51.9263 6.08447 51.6773 6.26986 51.3674 6.4082C51.0575 6.54102 50.7365 6.60742 50.4045 6.60742C50.0448 6.60742 49.71 6.52995 49.4001 6.375C49.0957 6.21452 48.8523 6.0153 48.6696 5.77734C48.4926 5.53939 48.404 5.30973 48.404 5.08838ZM47.9973 9.83643C47.9253 9.56527 47.8755 9.31901 47.8479 9.09766C47.8202 8.87077 47.8064 8.63558 47.8064 8.39209L47.8147 8.15967C47.9309 8.01025 48.1107 7.86084 48.3542 7.71143C48.6032 7.55648 48.891 7.42643 49.2175 7.32129C49.5495 7.21615 49.8926 7.16357 50.2468 7.16357C51.0215 7.16357 51.5721 7.33789 51.8986 7.68652C52.2251 8.03516 52.3884 8.57747 52.3884 9.31348C52.3884 9.75618 52.3247 10.3345 52.1975 11.0483C52.0757 11.7622 51.9263 12.4567 51.7492 13.1318C51.5777 13.8014 51.4283 14.2801 51.301 14.5679L51.3176 14.5845L52.5461 14.1362C52.7675 14.3244 52.9335 14.5319 53.0441 14.7588C53.1604 14.9857 53.2351 15.2485 53.2683 15.5474C53.2683 15.5861 53.1465 15.7466 52.903 16.0288C52.6595 16.3055 52.3358 16.5656 51.9318 16.8091C51.5334 17.047 51.0713 17.166 50.5456 17.166C50.0144 17.166 49.5827 17.0221 49.2507 16.7344C48.9242 16.4466 48.7609 15.9541 48.7609 15.2568C48.7609 14.4434 48.7831 13.5801 48.8274 12.667C48.8716 11.7539 48.9408 10.8685 49.0349 10.0107L47.9973 9.83643ZM53.3417 6.14258C53.2587 5.80501 53.2034 5.52555 53.1757 5.3042C53.148 5.07731 53.137 4.81722 53.1425 4.52393C53.2587 4.37451 53.4386 4.2251 53.682 4.07568C53.9311 3.92074 54.2188 3.79069 54.5453 3.68555C54.8774 3.5804 55.2205 3.52783 55.5746 3.52783C56.2664 3.52783 56.7976 3.70215 57.1684 4.05078C57.5391 4.39941 57.7245 4.91406 57.7245 5.59473C57.7245 6.08171 57.683 6.86475 57.6 7.94385C57.517 9.02295 57.398 10.1712 57.2431 11.3887C57.0881 12.6006 56.9111 13.6603 56.7118 14.5679L56.7284 14.5845L57.9569 14.0698C58.3886 14.4406 58.6404 14.9331 58.7123 15.5474C58.7123 15.5861 58.5878 15.7466 58.3388 16.0288C58.0898 16.3055 57.7605 16.5656 57.351 16.8091C56.947 17.047 56.4822 17.166 55.9565 17.166C55.4086 17.166 54.9631 17.0138 54.62 16.7095C54.2825 16.4051 54.122 15.8849 54.1386 15.1489L54.1552 13.6548C54.1607 12.2381 54.1746 10.9626 54.1967 9.82812C54.2244 8.69368 54.2797 7.52327 54.3627 6.31689L53.3417 6.14258ZM58.7609 6.14258C58.6779 5.80501 58.6225 5.52555 58.5948 5.3042C58.5672 5.07731 58.5561 4.81722 58.5616 4.52393C58.6779 4.37451 58.8577 4.2251 59.1012 4.07568C59.3502 3.92074 59.638 3.79069 59.9645 3.68555C60.2965 3.5804 60.6396 3.52783 60.9938 3.52783C61.6855 3.52783 62.2168 3.70215 62.5875 4.05078C62.9583 4.39941 63.1437 4.91406 63.1437 5.59473C63.1437 6.08171 63.1022 6.86475 63.0192 7.94385C62.9362 9.02295 62.8172 10.1712 62.6622 11.3887C62.5073 12.6006 62.3302 13.6603 62.131 14.5679L62.1476 14.5845L63.3761 14.0698C63.8077 14.4406 64.0595 14.9331 64.1315 15.5474C64.1315 15.5861 64.007 15.7466 63.7579 16.0288C63.5089 16.3055 63.1796 16.5656 62.7701 16.8091C62.3662 17.047 61.9013 17.166 61.3756 17.166C60.8278 17.166 60.3823 17.0138 60.0392 16.7095C59.7016 16.4051 59.5411 15.8849 59.5577 15.1489L59.5743 13.6548C59.5799 12.2381 59.5937 10.9626 59.6158 9.82812C59.6435 8.69368 59.6989 7.52327 59.7819 6.31689L58.7609 6.14258ZM64.7777 5.08838C64.7777 4.6014 64.9354 4.20573 65.2508 3.90137C65.5718 3.59701 66.0809 3.44482 66.7782 3.44482C67.4754 3.44482 67.9818 3.59701 68.2972 3.90137C68.6182 4.20573 68.7786 4.6014 68.7786 5.08838C68.7786 5.36507 68.6818 5.61963 68.4881 5.85205C68.3 6.08447 68.0509 6.26986 67.741 6.4082C67.4312 6.54102 67.1102 6.60742 66.7782 6.60742C66.4185 6.60742 66.0837 6.52995 65.7738 6.375C65.4694 6.21452 65.2259 6.0153 65.0433 5.77734C64.8662 5.53939 64.7777 5.30973 64.7777 5.08838ZM64.3709 9.83643C64.299 9.56527 64.2492 9.31901 64.2215 9.09766C64.1938 8.87077 64.18 8.63558 64.18 8.39209L64.1883 8.15967C64.3045 8.01025 64.4844 7.86084 64.7279 7.71143C64.9769 7.55648 65.2646 7.42643 65.5911 7.32129C65.9232 7.21615 66.2663 7.16357 66.6204 7.16357C67.3952 7.16357 67.9458 7.33789 68.2723 7.68652C68.5988 8.03516 68.762 8.57747 68.762 9.31348C68.762 9.75618 68.6984 10.3345 68.5711 11.0483C68.4494 11.7622 68.3 12.4567 68.1229 13.1318C67.9513 13.8014 67.8019 14.2801 67.6746 14.5679L67.6912 14.5845L68.9198 14.1362C69.1411 14.3244 69.3071 14.5319 69.4178 14.7588C69.534 14.9857 69.6087 15.2485 69.6419 15.5474C69.6419 15.5861 69.5202 15.7466 69.2767 16.0288C69.0332 16.3055 68.7095 16.5656 68.3055 16.8091C67.9071 17.047 67.445 17.166 66.9193 17.166C66.388 17.166 65.9564 17.0221 65.6243 16.7344C65.2979 16.4466 65.1346 15.9541 65.1346 15.2568C65.1346 14.4434 65.1567 13.5801 65.201 12.667C65.2453 11.7539 65.3145 10.8685 65.4085 10.0107L64.3709 9.83643ZM70.7281 14.1113C70.7281 13.2093 70.7391 12.5286 70.7613 12.0693C70.7834 11.6045 70.8415 10.9238 70.9356 10.0273L69.9727 9.90283C69.8565 9.54313 69.779 9.22217 69.7403 8.93994C69.7071 8.65771 69.6905 8.29248 69.6905 7.84424C69.779 7.76676 69.9257 7.67546 70.1304 7.57031C70.3407 7.45964 70.5897 7.36556 70.8775 7.28809C71.1652 7.20508 71.4558 7.16357 71.7491 7.16357C72.4187 7.16357 72.8918 7.30745 73.1685 7.59521C73.4507 7.88298 73.5918 8.31462 73.5918 8.89014C73.5918 9.2111 73.5448 9.64551 73.4507 10.1934C73.2958 11.0732 73.2183 11.5353 73.2183 11.5796C73.2183 11.6073 73.2377 11.6349 73.2764 11.6626C73.3151 11.6847 73.3566 11.6958 73.4009 11.6958C73.4507 11.6958 73.4839 11.6764 73.5005 11.6377C73.7219 10.7578 73.9432 10.0218 74.1646 9.42969C74.3859 8.83757 74.7207 8.31185 75.169 7.85254C75.6172 7.39323 76.1983 7.16357 76.9121 7.16357C77.7976 7.16357 78.434 7.43473 78.8213 7.97705C79.2087 8.51383 79.4024 9.19173 79.4024 10.0107C79.4024 10.7412 79.3166 11.4468 79.1451 12.1274C78.9735 12.8026 78.7605 13.5081 78.5059 14.2441C78.517 14.2165 78.4782 14.3244 78.3897 14.5679L78.4063 14.5845L79.6182 14.0864C80.0498 14.4572 80.3016 14.9497 80.3736 15.564C80.3736 15.6027 80.2491 15.7604 80 16.0371C79.7565 16.3138 79.4328 16.5711 79.0288 16.8091C78.6249 17.047 78.16 17.166 77.6343 17.166C77.1086 17.166 76.6797 17.0249 76.3477 16.7427C76.0157 16.4604 75.8496 15.979 75.8496 15.2983C75.8496 14.756 75.8718 14.0311 75.9161 13.1235C75.9603 12.216 76.0046 11.4855 76.0489 10.9321C75.905 10.7772 75.7279 10.6942 75.5176 10.6831C75.3239 10.9321 75.0389 11.4302 74.6626 12.1772C74.2863 12.9243 74.0207 13.4832 73.8658 13.854C73.8547 13.9315 73.8492 14.0062 73.8492 14.0781C73.8492 14.3548 73.8907 14.7284 73.9737 15.1987C74.0567 15.6636 74.1591 16.098 74.2808 16.502C74.1812 16.6901 73.9764 16.8478 73.6665 16.9751C73.3566 17.1024 72.9748 17.166 72.521 17.166C72.1115 17.166 71.7823 17.1328 71.5332 17.0664C71.2898 17 71.1182 16.9308 71.0186 16.8589C70.919 16.7814 70.8692 16.7344 70.8692 16.7178C70.8636 16.668 70.8498 16.5379 70.8277 16.3276C70.8055 16.1118 70.7834 15.813 70.7613 15.4312C70.7391 15.0438 70.7281 14.6038 70.7281 14.1113ZM85.4607 18.3198C85.8315 18.3198 86.1524 18.2783 86.4236 18.1953C86.5066 18.1123 86.5647 18.0155 86.5979 17.9048C86.6311 17.7996 86.6477 17.7 86.6477 17.606C86.6477 17.5063 86.6394 17.4316 86.6228 17.3818C86.6062 17.3376 86.5785 17.2961 86.5398 17.2573C86.3074 17.2186 86.0334 17.1909 85.718 17.1743C85.4081 17.1632 85.2227 17.1549 85.1619 17.1494C84.3927 17.1162 83.7673 17.0609 83.2859 16.9834C82.8044 16.9004 82.3922 16.7233 82.0491 16.4521C81.706 16.1755 81.5344 15.7604 81.5344 15.207C81.5344 14.9082 81.6313 14.6287 81.825 14.3687C82.0186 14.103 82.2704 13.8706 82.5803 13.6714C81.9495 13.4113 81.4431 13.0212 81.0613 12.501C80.685 11.9753 80.4968 11.2974 80.4968 10.4673C80.4968 9.64274 80.7071 8.98145 81.1277 8.4834C81.5538 7.97982 82.0767 7.62565 82.6965 7.4209C83.3163 7.21615 83.9472 7.11377 84.5891 7.11377C84.9931 7.11377 85.3888 7.15251 85.7761 7.22998C86.1635 7.30745 86.5232 7.41813 86.8552 7.56201L86.4983 5.45361C86.8359 5.24886 87.2564 5.14648 87.76 5.14648C88.1252 5.14648 88.4656 5.20736 88.781 5.3291C89.0964 5.45085 89.3372 5.62516 89.5032 5.85205C89.5142 5.90739 89.5198 5.99593 89.5198 6.11768C89.5198 6.57145 89.4368 7.0778 89.2708 7.63672C89.1103 8.1901 88.8308 8.63558 88.4324 8.97314C88.6316 9.37158 88.7312 9.80046 88.7312 10.2598C88.7312 10.9349 88.6012 11.5575 88.3411 12.1274C88.0865 12.6974 87.6604 13.1623 87.0627 13.522C86.4651 13.8761 85.6876 14.0532 84.7302 14.0532C84.4535 14.0532 84.1658 14.0366 83.8669 14.0034C83.8503 14.2801 83.9167 14.5568 84.0662 14.8335C84.8132 14.6896 85.4164 14.6149 85.8757 14.6094L86.4402 14.6011C87.2039 14.6011 87.7821 14.6481 88.175 14.7422C88.6067 14.8473 88.9277 15.0853 89.1379 15.4561C89.3538 15.8268 89.4617 16.2778 89.4617 16.8091C89.4617 17.6392 89.2071 18.3364 88.698 18.9009C88.1944 19.4709 87.5387 19.8942 86.7307 20.1709C85.9283 20.4476 85.0761 20.5859 84.1741 20.5859C83.3385 20.5859 82.5942 20.4448 81.9412 20.1626C81.2882 19.8804 80.8759 19.363 80.7043 18.6104C80.887 17.974 81.2356 17.4925 81.7502 17.166C82.442 17.5811 83.1033 17.8771 83.7341 18.0542C84.3705 18.2313 84.946 18.3198 85.4607 18.3198ZM84.9543 12.0029C85.3528 12.0029 85.5852 11.978 85.6516 11.9282C85.801 11.6294 85.8757 11.3223 85.8757 11.0068C85.8757 10.6803 85.801 10.3732 85.6516 10.0854C85.5797 10.0246 85.4192 9.97754 85.1702 9.94434C84.9267 9.91113 84.6611 9.89453 84.3733 9.89453C84.0136 9.89453 83.7729 9.91667 83.6511 9.96094C83.4796 10.2653 83.3938 10.5724 83.3938 10.8823C83.3938 11.1978 83.474 11.4966 83.6345 11.7788C83.7563 11.8563 83.9389 11.9144 84.1824 11.9531C84.4314 11.9863 84.6887 12.0029 84.9543 12.0029ZM96.4554 14.3354C96.793 14.4461 97.1001 14.5347 97.3768 14.6011C97.9136 12.4429 98.5251 9.89453 99.2113 6.95605L97.2108 6.74023C97.0835 6.3916 97.0199 5.99593 97.0199 5.55322C97.0199 5.21566 97.0586 4.88639 97.1361 4.56543C97.9385 4.41048 98.8627 4.2998 99.9086 4.2334C100.96 4.16146 101.862 4.12549 102.615 4.12549C103.157 4.12549 103.564 4.12826 103.835 4.13379L104.358 4.43262C105.287 6.98372 106.231 10.4341 107.188 14.7837C107.199 14.828 107.219 14.9165 107.246 15.0493C107.28 15.1821 107.305 15.3094 107.321 15.4312C107.338 15.5474 107.346 15.658 107.346 15.7632C107.346 16.228 107.18 16.6043 106.848 16.8921C106.383 17.0747 105.821 17.166 105.163 17.166C104.853 17.166 104.54 17.1328 104.225 17.0664C103.91 17 103.696 16.8976 103.586 16.7593L103.685 14.6177L103.478 13.5054C103.118 13.5275 102.695 13.5386 102.208 13.5386C101.688 13.5386 101.201 13.522 100.747 13.4888L100.647 13.937C100.432 14.8999 100.254 15.5833 100.116 15.9873C99.9833 16.3913 99.7841 16.6901 99.5184 16.8838C99.2583 17.0775 98.8682 17.1743 98.348 17.1743C98.0105 17.1743 97.6701 17.13 97.327 17.0415C96.9839 16.9585 96.674 16.8451 96.3973 16.7012C96.1206 16.5573 95.9131 16.4023 95.7748 16.2363C95.7748 15.8379 95.8356 15.4588 95.9574 15.0991C96.0791 14.7394 96.2452 14.4849 96.4554 14.3354ZM102.274 7.03076H101.892L101.295 11.123H103.154L102.274 7.03076ZM107.81 12.2104C107.81 11.3693 107.926 10.5641 108.158 9.79492C108.396 9.02572 108.767 8.39486 109.271 7.90234C109.78 7.40983 110.419 7.16357 111.188 7.16357C112.051 7.16357 112.876 7.4375 113.662 7.98535L113.795 7.90234C113.778 7.25488 113.698 6.66829 113.554 6.14258L111.869 6.03467C111.791 5.93506 111.73 5.78841 111.686 5.59473C111.642 5.39551 111.62 5.19076 111.62 4.98047C111.62 4.69824 111.653 4.45475 111.719 4.25C112.051 4.01204 112.477 3.83219 112.998 3.71045C113.518 3.5887 114.038 3.52783 114.558 3.52783C115.134 3.52783 115.568 3.64958 115.861 3.89307C116.155 4.13102 116.351 4.49349 116.451 4.98047C116.556 5.46191 116.608 6.13151 116.608 6.98926C116.608 8.11816 116.561 9.39925 116.467 10.8325C116.373 12.2658 116.252 13.4362 116.102 14.3438L116.069 14.4849L117.032 14.0698C117.192 14.2414 117.333 14.4517 117.455 14.7007C117.582 14.9442 117.663 15.2264 117.696 15.5474C117.618 15.7134 117.45 15.9264 117.19 16.1865C116.929 16.4411 116.611 16.668 116.235 16.8672C115.859 17.0664 115.466 17.166 115.056 17.166C114.597 17.166 114.243 17.0304 113.994 16.7593C113.75 16.4826 113.628 16.1312 113.628 15.7051C113.628 15.5944 113.656 15.3675 113.712 15.0244C113.772 14.6813 113.822 14.4434 113.861 14.3105L113.612 14.2358C113.33 15.2264 112.956 15.9624 112.491 16.4438C112.026 16.9253 111.451 17.166 110.765 17.166C110.029 17.166 109.439 16.9225 108.997 16.4355C108.559 15.943 108.252 15.326 108.075 14.5845C107.898 13.8429 107.81 13.0516 107.81 12.2104ZM113.504 12.061C113.537 11.8618 113.554 11.6294 113.554 11.3638C113.554 11.1922 113.545 11.029 113.529 10.874C113.518 10.7191 113.504 10.6084 113.487 10.542C113.266 10.3815 113.014 10.2681 112.732 10.2017C112.455 10.1353 112.201 10.1021 111.968 10.1021C111.824 10.1021 111.67 10.1159 111.503 10.1436C111.393 10.2542 111.304 10.495 111.238 10.8657C111.171 11.231 111.138 11.6432 111.138 12.1025C111.138 12.5951 111.171 13.0737 111.238 13.5386C111.31 13.9979 111.409 14.3576 111.537 14.6177C111.625 14.6177 111.797 14.4821 112.051 14.2109C112.311 13.9342 112.58 13.5967 112.857 13.1982C113.133 12.7943 113.349 12.4152 113.504 12.061ZM117.894 12.2104C117.894 11.3693 118.01 10.5641 118.242 9.79492C118.48 9.02572 118.851 8.39486 119.355 7.90234C119.864 7.40983 120.503 7.16357 121.272 7.16357C122.136 7.16357 122.96 7.4375 123.746 7.98535L123.879 7.90234C123.862 7.25488 123.782 6.66829 123.638 6.14258L121.953 6.03467C121.875 5.93506 121.815 5.78841 121.77 5.59473C121.726 5.39551 121.704 5.19076 121.704 4.98047C121.704 4.69824 121.737 4.45475 121.804 4.25C122.136 4.01204 122.562 3.83219 123.082 3.71045C123.602 3.5887 124.122 3.52783 124.642 3.52783C125.218 3.52783 125.652 3.64958 125.946 3.89307C126.239 4.13102 126.435 4.49349 126.535 4.98047C126.64 5.46191 126.693 6.13151 126.693 6.98926C126.693 8.11816 126.646 9.39925 126.552 10.8325C126.457 12.2658 126.336 13.4362 126.186 14.3438L126.153 14.4849L127.116 14.0698C127.276 14.2414 127.418 14.4517 127.539 14.7007C127.667 14.9442 127.747 15.2264 127.78 15.5474C127.703 15.7134 127.534 15.9264 127.274 16.1865C127.014 16.4411 126.695 16.668 126.319 16.8672C125.943 17.0664 125.55 17.166 125.14 17.166C124.681 17.166 124.327 17.0304 124.078 16.7593C123.834 16.4826 123.713 16.1312 123.713 15.7051C123.713 15.5944 123.74 15.3675 123.796 15.0244C123.857 14.6813 123.906 14.4434 123.945 14.3105L123.696 14.2358C123.414 15.2264 123.04 15.9624 122.575 16.4438C122.111 16.9253 121.535 17.166 120.849 17.166C120.113 17.166 119.524 16.9225 119.081 16.4355C118.644 15.943 118.337 15.326 118.159 14.5845C117.982 13.8429 117.894 13.0516 117.894 12.2104ZM123.588 12.061C123.621 11.8618 123.638 11.6294 123.638 11.3638C123.638 11.1922 123.63 11.029 123.613 10.874C123.602 10.7191 123.588 10.6084 123.572 10.542C123.35 10.3815 123.098 10.2681 122.816 10.2017C122.54 10.1353 122.285 10.1021 122.053 10.1021C121.909 10.1021 121.754 10.1159 121.588 10.1436C121.477 10.2542 121.388 10.495 121.322 10.8657C121.256 11.231 121.222 11.6432 121.222 12.1025C121.222 12.5951 121.256 13.0737 121.322 13.5386C121.394 13.9979 121.494 14.3576 121.621 14.6177C121.709 14.6177 121.881 14.4821 122.136 14.2109C122.396 13.9342 122.664 13.5967 122.941 13.1982C123.217 12.7943 123.433 12.4152 123.588 12.061ZM128.783 14.7754C128.783 14.5374 128.789 13.9536 128.8 13.0239C128.816 11.1978 128.825 10.1989 128.825 10.0273L128.061 9.90283C127.956 9.5874 127.881 9.29134 127.837 9.01465C127.793 8.73796 127.771 8.4585 127.771 8.17627C127.771 8.06006 127.773 7.97152 127.779 7.91064C127.873 7.82764 128.02 7.72803 128.219 7.61182C128.418 7.49561 128.653 7.39323 128.924 7.30469C129.195 7.21061 129.472 7.16357 129.754 7.16357C130.413 7.16357 130.889 7.31022 131.182 7.60352C131.481 7.89681 131.63 8.32568 131.63 8.89014C131.63 9.23324 131.586 9.67318 131.498 10.21C131.415 10.7412 131.329 11.1203 131.24 11.3472L131.539 11.397L132.037 9.521C132.258 8.67432 132.535 8.07113 132.867 7.71143C133.199 7.34619 133.573 7.16357 133.988 7.16357C134.259 7.16357 134.527 7.20508 134.793 7.28809C135.064 7.37109 135.272 7.47347 135.416 7.59521C135.57 7.93831 135.648 8.39486 135.648 8.96484C135.648 9.36328 135.609 9.75895 135.532 10.1519C135.454 10.5392 135.355 10.8519 135.233 11.0898L133.49 10.8574C133.136 11.2337 132.759 11.7567 132.361 12.4263C131.962 13.0903 131.644 13.7018 131.406 14.2607L131.398 14.6924L133.008 14.3105C133.279 14.7256 133.437 15.2181 133.481 15.7881C133.481 15.8213 133.357 15.9569 133.108 16.1948C132.859 16.4328 132.53 16.6541 132.12 16.8589C131.716 17.0581 131.251 17.1577 130.726 17.1577C130.183 17.1577 129.729 17.0138 129.364 16.7261C129.005 16.4328 128.814 15.9403 128.792 15.2485C128.786 15.1655 128.783 15.0078 128.783 14.7754ZM135.846 12.1772C135.846 11.2199 136.006 10.3649 136.327 9.6123C136.648 8.8597 137.144 8.26481 137.813 7.82764C138.488 7.38493 139.329 7.16357 140.337 7.16357C140.862 7.16357 141.388 7.22721 141.914 7.35449C142.439 7.47624 142.885 7.68099 143.25 7.96875C143.588 8.23991 143.831 8.59961 143.981 9.04785C144.136 9.49056 144.213 9.98307 144.213 10.5254C144.213 10.8851 144.183 11.2531 144.122 11.6294C144.055 11.7401 143.925 11.8867 143.732 12.0693C143.538 12.2464 143.311 12.4207 143.051 12.5923C142.791 12.7638 142.539 12.8966 142.296 12.9907C142.063 13.0073 141.822 13.0156 141.573 13.0156C141.136 13.0156 140.694 12.9963 140.245 12.9575C139.797 12.9188 139.404 12.8745 139.067 12.8247C139.111 13.2951 139.255 13.7046 139.498 14.0532C139.742 14.4019 140.129 14.5762 140.66 14.5762C140.71 14.5762 140.79 14.5706 140.901 14.5596C141.239 14.5264 141.632 14.4378 142.08 14.2939C142.534 14.1445 142.985 13.973 143.433 13.7793C143.643 13.9896 143.798 14.1999 143.898 14.4102C143.997 14.6204 144.066 14.922 144.105 15.3149C143.934 15.5142 143.654 15.7576 143.267 16.0454C142.885 16.3332 142.417 16.5933 141.864 16.8257C141.311 17.0526 140.732 17.166 140.129 17.166C139.222 17.166 138.444 16.9474 137.797 16.5103C137.155 16.0675 136.668 15.4699 136.336 14.7173C136.009 13.9591 135.846 13.1125 135.846 12.1772ZM141.192 10.2681C141.114 10.1851 140.984 10.1214 140.801 10.0771C140.619 10.0273 140.428 10.0024 140.229 10.0024C140.068 10.0024 139.905 10.0163 139.739 10.0439C139.578 10.0716 139.482 10.1021 139.448 10.1353C139.26 10.506 139.141 10.9266 139.092 11.397L141.308 11.1812L141.192 10.2681ZM145.698 14.0698C146.185 14.2635 146.575 14.4129 146.868 14.5181C147.161 14.6232 147.482 14.7145 147.831 14.792C148.185 14.8695 148.537 14.9082 148.885 14.9082C149.04 14.9082 149.151 14.8944 149.217 14.8667C149.234 14.8446 149.248 14.8114 149.259 14.7671C149.275 14.7173 149.284 14.6675 149.284 14.6177C149.284 14.507 149.22 14.4157 149.093 14.3438C148.893 14.2331 148.539 14.0588 148.03 13.8208C147.333 13.4888 146.78 13.1927 146.37 12.9326C145.966 12.6725 145.623 12.3267 145.341 11.895C145.064 11.4634 144.926 10.9211 144.926 10.2681C144.926 9.33285 145.205 8.58301 145.764 8.01855C146.323 7.44857 147.208 7.16357 148.42 7.16357C149.865 7.16357 150.988 7.35173 151.79 7.72803C151.829 7.88851 151.849 8.09049 151.849 8.33398C151.849 8.79883 151.777 9.27474 151.633 9.76172C151.489 10.2432 151.301 10.6001 151.068 10.8325C150.753 10.7274 150.307 10.5586 149.732 10.3262C149.311 10.1602 148.976 10.0329 148.727 9.94434C148.484 9.85026 148.26 9.78385 148.055 9.74512C147.944 9.77279 147.856 9.83919 147.789 9.94434C147.723 10.0439 147.69 10.1629 147.69 10.3013C147.69 10.423 147.726 10.5254 147.798 10.6084C147.87 10.6914 147.95 10.7578 148.038 10.8076C148.133 10.8519 148.265 10.9128 148.437 10.9902C148.525 11.029 148.608 11.0649 148.686 11.0981C148.763 11.1258 148.835 11.1535 148.902 11.1812C149.333 11.3638 149.674 11.5132 149.923 11.6294C150.172 11.7456 150.413 11.884 150.645 12.0444C151.071 12.3377 151.406 12.6725 151.649 13.0488C151.893 13.4251 152.015 13.8374 152.015 14.2856C152.015 14.9054 151.837 15.4422 151.483 15.896C151.135 16.3442 150.686 16.6707 150.139 16.8755C149.851 16.9806 149.535 17.0553 149.192 17.0996C148.855 17.1494 148.459 17.1743 148.005 17.1743C147.469 17.1743 146.915 17.0719 146.345 16.8672C145.781 16.6569 145.349 16.3083 145.05 15.8213C145.056 15.4837 145.1 15.1904 145.183 14.9414C145.272 14.6868 145.443 14.3963 145.698 14.0698ZM153.325 14.0698C153.812 14.2635 154.202 14.4129 154.495 14.5181C154.789 14.6232 155.109 14.7145 155.458 14.792C155.812 14.8695 156.164 14.9082 156.512 14.9082C156.667 14.9082 156.778 14.8944 156.844 14.8667C156.861 14.8446 156.875 14.8114 156.886 14.7671C156.902 14.7173 156.911 14.6675 156.911 14.6177C156.911 14.507 156.847 14.4157 156.72 14.3438C156.521 14.2331 156.166 14.0588 155.657 13.8208C154.96 13.4888 154.407 13.1927 153.997 12.9326C153.593 12.6725 153.25 12.3267 152.968 11.895C152.691 11.4634 152.553 10.9211 152.553 10.2681C152.553 9.33285 152.832 8.58301 153.391 8.01855C153.95 7.44857 154.836 7.16357 156.047 7.16357C157.492 7.16357 158.615 7.35173 159.418 7.72803C159.456 7.88851 159.476 8.09049 159.476 8.33398C159.476 8.79883 159.404 9.27474 159.26 9.76172C159.116 10.2432 158.928 10.6001 158.695 10.8325C158.38 10.7274 157.935 10.5586 157.359 10.3262C156.938 10.1602 156.604 10.0329 156.355 9.94434C156.111 9.85026 155.887 9.78385 155.682 9.74512C155.572 9.77279 155.483 9.83919 155.417 9.94434C155.35 10.0439 155.317 10.1629 155.317 10.3013C155.317 10.423 155.353 10.5254 155.425 10.6084C155.497 10.6914 155.577 10.7578 155.666 10.8076C155.76 10.8519 155.893 10.9128 156.064 10.9902C156.153 11.029 156.236 11.0649 156.313 11.0981C156.391 11.1258 156.463 11.1535 156.529 11.1812C156.961 11.3638 157.301 11.5132 157.55 11.6294C157.799 11.7456 158.04 11.884 158.272 12.0444C158.698 12.3377 159.033 12.6725 159.276 13.0488C159.52 13.4251 159.642 13.8374 159.642 14.2856C159.642 14.9054 159.465 15.4422 159.11 15.896C158.762 16.3442 158.314 16.6707 157.766 16.8755C157.478 16.9806 157.163 17.0553 156.819 17.0996C156.482 17.1494 156.086 17.1743 155.632 17.1743C155.096 17.1743 154.542 17.0719 153.972 16.8672C153.408 16.6569 152.976 16.3083 152.677 15.8213C152.683 15.4837 152.727 15.1904 152.81 14.9414C152.899 14.6868 153.07 14.3963 153.325 14.0698Z" fill="black"/>
<line y1="31.5" x2="363" y2="31.5" stroke="black"/>
</svg>
