<svg width="232" height="179" viewBox="0 0 232 179" fill="none" xmlns="http://www.w3.org/2000/svg">
<path d="M83.7487 134.576L82.7258 134.376L81.8598 134.965C68.4513 144.075 53.4398 148.867 41.7119 151.374C36.9863 152.384 32.8139 153.019 29.5229 153.417C46.3561 138.616 49.5596 128.44 49.9999 123.681L50.1435 122.129L48.8153 121.326C32.8224 111.651 23.3283 98.5603 23.0807 84.369C22.8239 69.6435 32.5107 55.6532 49.2248 45.0406C65.8904 34.4588 89.1692 27.5198 115.027 26.889C140.884 26.2582 164.385 32.056 181.405 41.816C198.475 51.6044 208.642 65.1104 208.899 79.8359C209.156 94.5614 199.469 108.552 182.755 119.164C166.089 129.746 142.81 136.685 116.953 137.316C105.304 137.6 94.1077 136.594 83.7487 134.576Z" fill="white" stroke="black" stroke-width="5"/>
<path d="M53.0547 77.5755C53.1086 70.3948 58.9719 64.5308 66.1505 64.4781L168.005 63.7295C175.184 63.6768 180.96 69.4552 180.906 76.6359L180.829 86.8036C180.775 93.9843 174.912 99.8482 167.733 99.901L65.8785 100.65C58.6999 100.702 52.9242 94.9239 52.9782 87.7432L53.0547 77.5755Z" fill="#D764D7" stroke="black"/>
<path d="M81.6256 88.1357C81.9745 88.1331 82.2768 88.0918 82.5326 88.0118C82.6113 87.9331 82.6667 87.8415 82.6987 87.7371C82.7307 87.6379 82.747 87.544 82.7477 87.4555C82.7484 87.3617 82.7411 87.2915 82.7258 87.2447C82.7105 87.2031 82.6848 87.1643 82.6486 87.1281C82.4302 87.0932 82.1726 87.0691 81.8759 87.0556C81.5843 87.0473 81.4099 87.0408 81.3527 87.036C80.6291 87.0101 80.041 86.9623 79.5885 86.8927C79.136 86.8179 78.7493 86.6541 78.4283 86.4012C78.1074 86.1431 77.9489 85.7536 77.9529 85.2327C77.955 84.9514 78.0481 84.6877 78.2322 84.4415C78.4163 84.1901 78.6549 83.9696 78.948 83.78C78.3561 83.5395 77.8824 83.1758 77.5268 82.6887C77.1764 82.1965 77.0041 81.5597 77.01 80.7783C77.0158 80.0021 77.2184 79.3782 77.6177 78.9065C78.0222 78.4295 78.5169 78.0925 79.1016 77.8955C79.6863 77.6985 80.2806 77.5977 80.8847 77.5933C81.2649 77.5905 81.6369 77.6242 82.0009 77.6945C82.3649 77.7647 82.7026 77.8664 83.0141 77.9996L82.6931 76.0174C83.0122 75.8223 83.4087 75.723 83.8826 75.7195C84.2263 75.717 84.5461 75.772 84.8421 75.8844C85.1381 75.9968 85.3634 76.1592 85.518 76.3716C85.528 76.4236 85.5326 76.507 85.5317 76.6216C85.5285 77.0487 85.4468 77.5259 85.2866 78.0532C85.1317 78.5752 84.8656 78.9965 84.4882 79.317C84.6729 79.6906 84.7636 80.0937 84.7603 80.526C84.7555 81.1615 84.6288 81.7484 84.38 82.2868C84.1364 82.8251 83.7321 83.2656 83.1672 83.6083C82.6022 83.9458 81.8693 84.1179 80.9684 84.1245C80.708 84.1264 80.4373 84.1128 80.1564 84.0836C80.1388 84.3442 80.1993 84.6042 80.338 84.8636C81.042 84.723 81.6102 84.6485 82.0424 84.6401L82.5737 84.6284C83.2923 84.6231 83.8362 84.6634 84.2052 84.7492C84.6107 84.8452 84.911 85.067 85.1063 85.4145C85.3068 85.7621 85.4051 86.1858 85.4014 86.6859C85.3955 87.4673 85.151 88.1254 84.6679 88.6602C84.19 89.2003 83.5699 89.6033 82.8076 89.8693C82.0506 90.1353 81.2476 90.2715 80.3988 90.2777C79.6125 90.2835 78.913 90.1558 78.3005 89.8946C77.688 89.6335 77.3037 89.1493 77.1476 88.442C77.324 87.8417 77.6555 87.3861 78.1421 87.0752C78.7901 87.4611 79.4103 87.7352 80.0027 87.8976C80.6003 88.0599 81.1413 88.1392 81.6256 88.1357ZM81.1938 82.193C81.5688 82.1902 81.7877 82.1652 81.8505 82.1179C81.9932 81.8355 82.0657 81.5459 82.0679 81.249C82.0702 80.9417 82.0021 80.6531 81.8635 80.3832C81.7963 80.3264 81.6456 80.2833 81.4115 80.2537C81.1826 80.2242 80.9327 80.2104 80.6619 80.2124C80.3235 80.2148 80.0968 80.2373 79.9819 80.2799C79.8183 80.5675 79.7354 80.8572 79.7332 81.1489C79.731 81.4459 79.8044 81.7266 79.9534 81.9912C80.0674 82.0632 80.2389 82.1167 80.4677 82.1515C80.7018 82.181 80.9439 82.1948 81.1938 82.193ZM85.7449 82.3236C85.7516 81.4225 85.9087 80.6165 86.2161 79.9059C86.5234 79.1952 86.9937 78.6318 87.6269 78.2157C88.2654 77.7943 89.0585 77.5801 90.0063 77.5731C90.501 77.5695 90.9953 77.6258 91.4891 77.7419C91.983 77.8529 92.4007 78.0426 92.7424 78.3109C93.0581 78.5638 93.2847 78.9007 93.4221 79.3216C93.5648 79.7373 93.6342 80.2004 93.6304 80.7108C93.6279 81.0494 93.5966 81.3961 93.5367 81.7507C93.4734 81.8553 93.35 81.9943 93.1664 82.1675C92.9829 82.3355 92.7682 82.5012 92.5222 82.6645C92.2762 82.8278 92.0383 82.9545 91.8085 83.0448C91.5897 83.062 91.3631 83.0715 91.1288 83.0732C90.7174 83.0762 90.3009 83.061 89.8794 83.0277C89.4578 82.9943 89.0884 82.9554 88.7711 82.9108C88.8094 83.3533 88.9419 83.7378 89.1686 84.0642C89.3952 84.3907 89.7585 84.5521 90.2585 84.5485C90.3053 84.5481 90.3809 84.5424 90.4851 84.5312C90.803 84.4976 91.1734 84.4115 91.5962 84.273C92.0243 84.1292 92.4499 83.9646 92.8731 83.7792C93.0695 83.9757 93.2138 84.1726 93.3061 84.3698C93.3983 84.5671 93.4613 84.8505 93.495 85.2201C93.3321 85.4088 93.0674 85.6399 92.7008 85.9135C92.3395 86.187 91.8976 86.435 91.3752 86.6576C90.8528 86.875 90.3078 86.9858 89.7402 86.99C88.8862 86.9963 88.156 86.7959 87.5499 86.3889C86.9489 85.9766 86.4949 85.4174 86.1877 84.7112C85.8859 83.9998 85.7382 83.204 85.7449 82.3236ZM90.7889 80.4895C90.7166 80.4119 90.5946 80.3529 90.4231 80.3125C90.2516 80.2669 90.0721 80.2448 89.8847 80.2461C89.7336 80.2473 89.5799 80.2614 89.4235 80.2886C89.2723 80.3158 89.1809 80.3451 89.1494 80.3766C88.9698 80.7269 88.8548 81.1236 88.8046 81.5667L90.8918 81.3482L90.7889 80.4895ZM94.8807 82.4831C94.8871 81.634 94.9059 80.8603 94.9372 80.1621L94.0869 80.0199C94.0211 79.76 93.976 79.5311 93.9515 79.3334C93.9269 79.1356 93.9155 78.9247 93.9172 78.7007L93.934 78.5444C93.9501 78.4713 93.9584 78.4114 93.9587 78.3645L95.0933 78.1061C95.1217 77.783 95.1844 77.4179 95.2812 77.0109C95.3779 76.6039 95.4791 76.3036 95.5847 76.1101C95.7523 75.9839 95.9535 75.8887 96.1883 75.8244C96.4231 75.7602 96.6759 75.7271 96.9467 75.7251C97.1759 75.7234 97.397 75.7452 97.6102 75.7905C97.8286 75.8306 98.0182 75.8865 98.1791 75.9582C98.1934 76.1352 98.1997 76.3383 98.198 76.5675C98.1951 76.9426 98.1737 77.3673 98.1337 77.8416L99.5104 77.5814C99.7006 77.9134 99.7942 78.2747 99.7912 78.6654C99.7892 78.9363 99.7535 79.1813 99.6842 79.4006C99.62 79.6199 99.5296 79.8679 99.413 80.1449C99.0689 80.2047 98.5973 80.2446 97.9983 80.2646C97.919 81.1143 97.7482 82.363 97.4859 84.0109L97.4448 84.2769L97.4603 84.2924L99.3003 83.7085C99.678 84.0235 99.9061 84.5114 99.9845 85.1724C99.9842 85.2088 99.8136 85.382 99.4728 85.6918C99.1373 85.9964 98.716 86.2807 98.2089 86.5449C97.7018 86.8039 97.1514 86.9355 96.5578 86.9399C95.5215 86.9475 94.9742 86.3187 94.9161 85.0534C94.8844 84.4129 94.8726 83.5561 94.8807 82.4831ZM103.989 83.971C104.446 84.1499 104.812 84.2879 105.087 84.3848C105.363 84.4817 105.664 84.5655 105.992 84.636C106.324 84.7065 106.655 84.7405 106.983 84.7381C107.129 84.737 107.233 84.7232 107.296 84.6967C107.311 84.6758 107.325 84.6444 107.335 84.6027C107.351 84.5557 107.359 84.5087 107.36 84.4619C107.361 84.3577 107.301 84.2722 107.182 84.2053C106.995 84.1025 106.663 83.9409 106.186 83.7204C105.532 83.4127 105.013 83.1378 104.63 82.8958C104.252 82.6538 103.931 82.3306 103.669 81.9263C103.411 81.5219 103.285 81.0123 103.29 80.3977C103.296 79.5173 103.565 78.8096 104.095 78.2744C104.625 77.734 105.46 77.4596 106.6 77.4512C107.959 77.4412 109.015 77.6105 109.768 77.9592C109.803 78.11 109.82 78.3 109.818 78.5292C109.815 78.9668 109.744 79.4152 109.605 79.8746C109.466 80.3288 109.286 80.6661 109.066 80.8865C108.77 80.7897 108.352 80.6339 107.812 80.4191C107.417 80.2657 107.103 80.1482 106.87 80.0666C106.641 79.9798 106.431 79.9188 106.238 79.8837C106.134 79.9106 106.05 79.9737 105.987 80.0731C105.924 80.1673 105.892 80.2796 105.891 80.4098C105.89 80.5244 105.923 80.6205 105.99 80.6981C106.057 80.7758 106.132 80.8377 106.215 80.884C106.303 80.925 106.428 80.9814 106.589 81.0532C106.672 81.089 106.75 81.1223 106.822 81.153C106.895 81.1785 106.963 81.2041 107.025 81.2297C107.43 81.3986 107.749 81.5369 107.982 81.6445C108.216 81.7522 108.442 81.8808 108.659 82.0302C109.058 82.3033 109.371 82.6162 109.597 82.9687C109.824 83.3213 109.935 83.7085 109.932 84.1304C109.928 84.7138 109.757 85.2203 109.421 85.6499C109.09 86.0743 108.665 86.3847 108.148 86.5813C107.877 86.6822 107.58 86.7547 107.256 86.7988C106.938 86.848 106.566 86.8742 106.139 86.8773C105.634 86.881 105.114 86.7885 104.579 86.5997C104.049 86.4056 103.645 86.0804 103.367 85.6241C103.375 85.3063 103.419 85.0299 103.499 84.7949C103.584 84.5547 103.747 84.2801 103.989 83.971ZM111.045 82.3643C111.051 81.5152 111.07 80.7415 111.101 80.0433L110.251 79.9011C110.185 79.6412 110.14 79.4123 110.116 79.2146C110.091 79.0168 110.08 78.8059 110.081 78.582L110.098 78.4256C110.114 78.3525 110.123 78.2926 110.123 78.2457L111.258 77.9873C111.286 77.6642 111.349 77.2991 111.445 76.8921C111.542 76.4851 111.643 76.1848 111.749 75.9913C111.917 75.8651 112.118 75.7699 112.353 75.7056C112.587 75.6414 112.84 75.6083 113.111 75.6063C113.34 75.6046 113.561 75.6264 113.774 75.6717C113.993 75.7118 114.182 75.7677 114.343 75.8394C114.358 76.0164 114.364 76.2195 114.362 76.4487C114.359 76.8238 114.338 77.2485 114.298 77.7228L115.675 77.4626C115.865 77.7946 115.958 78.1559 115.956 78.5466C115.953 78.8175 115.918 79.0625 115.848 79.2818C115.784 79.5011 115.694 79.7491 115.577 80.0261C115.233 80.0859 114.762 80.1258 114.163 80.1459C114.083 80.9955 113.912 82.2442 113.65 83.8921L113.609 84.1581L113.625 84.1736L115.465 83.5897C115.842 83.9047 116.07 84.3926 116.149 85.0536C116.148 85.09 115.978 85.2632 115.637 85.573C115.302 85.8776 114.88 86.162 114.373 86.4261C113.866 86.6851 113.316 86.8167 112.722 86.8211C111.686 86.8287 111.139 86.1999 111.08 84.9346C111.049 84.2941 111.037 83.4373 111.045 82.3643ZM118.814 81.4712C119.121 81.4689 119.46 81.4977 119.829 81.5575C120.203 81.6172 120.546 81.6902 120.858 81.7765L120.86 81.5343C120.861 81.3728 120.857 81.1931 120.848 80.9952C120.845 80.7973 120.835 80.6672 120.82 80.6048C120.774 80.5166 120.639 80.4264 120.416 80.3343C120.198 80.2421 119.839 80.1979 119.339 80.2016C119.032 80.2038 118.714 80.2452 118.385 80.3258C118.062 80.4011 117.702 80.5027 117.305 80.6306C117.094 80.278 116.925 79.9432 116.797 79.6264C116.674 79.3044 116.614 78.9819 116.617 78.6589C116.618 78.56 116.626 78.4609 116.643 78.3618C117.491 77.6993 118.585 77.3631 119.923 77.3533C120.662 77.3478 121.318 77.4264 121.889 77.5888C122.461 77.7513 122.93 78.0708 123.296 78.5473C123.662 79.0239 123.842 79.7023 123.835 80.5826C123.829 81.4421 123.721 82.2763 123.512 83.0852C123.308 83.8889 123.203 84.2985 123.198 84.3142L124.334 83.8214C124.484 83.9818 124.615 84.1788 124.728 84.4123C124.846 84.6407 124.92 84.9058 124.949 85.2077C124.875 85.3645 124.714 85.5662 124.468 85.8128C124.221 86.0542 123.92 86.27 123.565 86.4601C123.209 86.6503 122.839 86.7468 122.453 86.7496C122.021 86.7528 121.694 86.6275 121.472 86.3739C121.255 86.1203 121.148 85.7903 121.151 85.384C121.153 85.1548 121.189 84.9228 121.258 84.6879L121.024 84.6193C120.872 85.4434 120.558 86.0082 120.082 86.3138C119.606 86.6195 119.081 86.7744 118.509 86.7786C118.134 86.7813 117.772 86.6798 117.425 86.474C117.078 86.263 116.796 85.9577 116.581 85.5583C116.365 85.1536 116.259 84.6803 116.263 84.1386C116.27 83.2739 116.491 82.6159 116.926 82.1648C117.362 81.7084 117.991 81.4772 118.814 81.4712ZM119.682 84.4416C119.813 84.4146 119.967 84.3406 120.145 84.2194C120.328 84.0983 120.49 83.9539 120.632 83.7861C120.774 83.6184 120.859 83.4589 120.886 83.3077L120.84 83.1205C120.565 83.0861 120.27 83.07 119.958 83.0723C119.692 83.0742 119.51 83.0964 119.411 83.1388C119.243 83.3276 119.158 83.5365 119.156 83.7657C119.155 83.9324 119.195 84.0832 119.278 84.218C119.365 84.3528 119.5 84.4273 119.682 84.4416ZM125.726 84.4753C125.727 84.2513 125.737 83.7017 125.754 82.8265C125.782 81.1074 125.797 80.1671 125.798 80.0056L125.081 79.8937C124.984 79.5975 124.916 79.3194 124.876 79.0592C124.836 78.7991 124.818 78.5362 124.82 78.2705C124.82 78.1611 124.824 78.0777 124.829 78.0204C124.918 77.9416 125.057 77.8468 125.245 77.7361C125.434 77.6253 125.656 77.5273 125.911 77.4421C126.167 77.3517 126.428 77.3055 126.694 77.3035C127.313 77.299 127.76 77.4337 128.034 77.7078C128.313 77.9818 128.451 78.3844 128.447 78.9158C128.444 79.2387 128.4 79.6532 128.312 80.1591C128.231 80.6597 128.147 81.0171 128.062 81.2313L128.343 81.2761L128.825 79.5068C129.039 78.7083 129.304 78.1386 129.619 77.7977C129.934 77.4516 130.287 77.2771 130.677 77.2742C130.933 77.2724 131.185 77.3096 131.434 77.3859C131.689 77.4621 131.883 77.5571 132.018 77.6707C132.161 77.9926 132.231 78.4218 132.227 78.9583C132.224 79.3334 132.185 79.7061 132.109 80.0765C132.033 80.4416 131.938 80.7366 131.821 80.9615L130.183 80.7547C129.847 81.1114 129.489 81.6063 129.109 82.2393C128.729 82.8672 128.426 83.445 128.198 83.9727L128.187 84.3791L129.705 84.0085C129.957 84.3974 130.102 84.8599 130.14 85.3961C130.14 85.4274 130.021 85.5558 129.785 85.7816C129.549 86.0073 129.238 86.2179 128.851 86.4135C128.47 86.6038 128.031 86.7008 127.537 86.7044C127.026 86.7082 126.6 86.5759 126.259 86.3075C125.922 86.0339 125.746 85.5716 125.73 84.9207C125.726 84.8426 125.724 84.6941 125.726 84.4753ZM133.005 82.2029C133.012 81.3538 133.03 80.5802 133.062 79.8819L132.211 79.7397C132.146 79.4798 132.101 79.2509 132.076 79.0532C132.051 78.8554 132.04 78.6446 132.042 78.4206L132.059 78.2642C132.075 78.1911 132.083 78.1312 132.083 78.0843L133.218 77.8259C133.246 77.5028 133.309 77.1377 133.406 76.7307C133.503 76.3237 133.604 76.0235 133.709 75.83C133.877 75.7037 134.078 75.6085 134.313 75.5442C134.548 75.48 134.801 75.4469 135.071 75.4449C135.3 75.4432 135.522 75.465 135.735 75.5104C135.953 75.5504 136.143 75.6063 136.304 75.6781C136.318 75.8551 136.324 76.0582 136.323 76.2874C136.32 76.6624 136.298 77.0871 136.258 77.5614L137.635 77.3012C137.825 77.6332 137.919 77.9945 137.916 78.3852C137.914 78.6561 137.878 78.9012 137.809 79.1204C137.745 79.3397 137.654 79.5878 137.538 79.8647C137.193 79.9245 136.722 79.9644 136.123 79.9845C136.044 80.8341 135.873 82.0828 135.61 83.7308L135.569 83.9967L135.585 84.0122L137.425 83.4283C137.803 83.7433 138.031 84.2312 138.109 84.8922C138.109 84.9286 137.938 85.1018 137.597 85.4116C137.262 85.7162 136.841 86.0006 136.333 86.2647C135.826 86.5237 135.276 86.6553 134.682 86.6597C133.646 86.6673 133.099 86.0385 133.041 84.7732C133.009 84.1327 132.997 83.276 133.005 82.2029ZM138.254 81.9377C138.261 81.0366 138.418 80.2306 138.726 79.52C139.033 78.8093 139.503 78.2459 140.137 77.8298C140.775 77.4084 141.568 77.1942 142.516 77.1872C143.011 77.1836 143.505 77.2399 143.999 77.356C144.493 77.467 144.91 77.6567 145.252 77.925C145.568 78.1779 145.794 78.5148 145.932 78.9357C146.074 79.3514 146.144 79.8145 146.14 80.3249C146.137 80.6635 146.106 81.0102 146.046 81.3648C145.983 81.4694 145.86 81.6084 145.676 81.7816C145.493 81.9496 145.278 82.1153 145.032 82.2786C144.786 82.4419 144.548 82.5686 144.318 82.6589C144.099 82.6761 143.873 82.6856 143.638 82.6873C143.227 82.6903 142.811 82.6751 142.389 82.6418C141.967 82.6084 141.598 82.5695 141.281 82.5249C141.319 82.9674 141.452 83.3519 141.678 83.6783C141.905 84.0048 142.268 84.1662 142.768 84.1626C142.815 84.1622 142.891 84.1565 142.995 84.1453C143.313 84.1117 143.683 84.0256 144.106 83.8871C144.534 83.7433 144.96 83.5787 145.383 83.3933C145.579 83.5898 145.723 83.7866 145.816 83.9839C145.908 84.1812 145.971 84.4646 146.005 84.8342C145.842 85.0229 145.577 85.254 145.21 85.5276C144.849 85.8011 144.407 86.0491 143.885 86.2717C143.362 86.4891 142.817 86.5999 142.25 86.6041C141.396 86.6104 140.666 86.41 140.059 86.0029C139.459 85.5907 139.004 85.0314 138.697 84.3253C138.395 83.6139 138.248 82.8181 138.254 81.9377ZM143.299 80.1036C143.226 80.026 143.104 79.967 142.933 79.9266C142.761 79.881 142.582 79.8589 142.394 79.8602C142.243 79.8614 142.09 79.8755 141.933 79.9027C141.782 79.9299 141.691 79.9592 141.659 79.9907C141.479 80.341 141.364 80.7377 141.314 81.1808L143.401 80.9623L143.299 80.1036ZM146.79 81.9062C146.796 81.1145 146.911 80.3557 147.135 79.6301C147.365 78.9044 147.718 78.308 148.196 77.8409C148.678 77.3737 149.281 77.1375 150.005 77.1322C150.818 77.1262 151.592 77.3784 152.327 77.8886L152.453 77.8096C152.442 77.2002 152.37 76.6486 152.239 76.1548L150.654 76.0648C150.582 75.9716 150.525 75.834 150.485 75.652C150.445 75.4647 150.425 75.2722 150.427 75.0742C150.429 74.8086 150.462 74.5791 150.526 74.3859C150.84 74.1596 151.242 73.9874 151.733 73.8692C152.223 73.751 152.713 73.6901 153.202 73.6865C153.744 73.6825 154.152 73.7941 154.426 74.0213C154.701 74.2433 154.883 74.5831 154.973 75.0408C155.069 75.4933 155.113 76.1232 155.107 76.9306C155.099 77.9933 155.046 79.1995 154.947 80.5493C154.849 81.8991 154.726 83.0017 154.579 83.857L154.547 83.9901L155.456 83.5927C155.605 83.7531 155.737 83.9501 155.849 84.1836C155.968 84.4119 156.041 84.6771 156.07 84.979C155.996 85.1358 155.836 85.3375 155.589 85.5841C155.342 85.8255 155.041 86.0413 154.686 86.2314C154.33 86.4216 153.96 86.518 153.575 86.5209C153.142 86.524 152.81 86.3989 152.578 86.1453C152.35 85.8866 152.238 85.5566 152.241 85.1555C152.242 85.0514 152.27 84.8376 152.324 84.5143C152.384 84.1909 152.433 83.9665 152.47 83.8412L152.236 83.7726C151.964 84.707 151.607 85.4024 151.166 85.8588C150.725 86.3152 150.182 86.5458 149.536 86.5505C148.843 86.5556 148.291 86.3305 147.877 85.8752C147.47 85.4146 147.185 84.8359 147.023 84.1391C146.862 83.4423 146.784 82.698 146.79 81.9062ZM152.15 81.7262C152.183 81.5385 152.2 81.3196 152.202 81.0695C152.203 80.908 152.196 80.7544 152.182 80.6087C152.172 80.4629 152.16 80.3588 152.145 80.2964C151.938 80.1469 151.702 80.0419 151.437 79.9813C151.177 79.9207 150.937 79.8912 150.719 79.8928C150.583 79.8938 150.437 79.9079 150.281 79.9351C150.176 80.0401 150.091 80.2673 150.026 80.6167C149.961 80.961 149.927 81.3493 149.923 81.7816C149.92 82.2453 149.948 82.6956 150.007 83.1327C150.071 83.5646 150.163 83.9025 150.281 84.1464C150.364 84.1458 150.526 84.017 150.768 83.76C151.014 83.4977 151.269 83.1781 151.533 82.8012C151.796 82.419 152.002 82.0607 152.15 81.7262Z" fill="white"/>
</svg>
