<svg width="116" height="36" viewBox="0 0 116 36" fill="none" xmlns="http://www.w3.org/2000/svg">
<path d="M5.216 0.959999C6.06933 0.959999 6.784 1.152 7.36 1.536C7.936 1.92 8.224 2.39467 8.224 2.96C8.224 3.51467 7.94133 3.79733 7.376 3.808C7.376 3.136 7.168 2.61867 6.752 2.256C6.34667 1.88267 5.79733 1.696 5.104 1.696C3.984 1.696 3.12533 2.14933 2.528 3.056C1.94133 3.96267 1.648 5.152 1.648 6.624C1.648 8.096 1.936 9.25867 2.512 10.112C3.088 10.9547 3.97867 11.376 5.184 11.376C6.4 11.376 7.38667 11.0507 8.144 10.4C8.272 10.464 8.336 10.5707 8.336 10.72C8.336 11.0187 8.02667 11.3493 7.408 11.712C6.78933 12.064 6.02133 12.24 5.104 12.24C3.696 12.24 2.608 11.776 1.84 10.848C1.08267 9.90933 0.677333 8.59733 0.624 6.912C0.581333 5.22667 0.976 3.81333 1.808 2.672C2.64 1.53067 3.776 0.959999 5.216 0.959999ZM15.2905 12.256C14.6612 12.256 14.3092 11.8987 14.2345 11.184C13.9572 11.472 13.5998 11.7227 13.1625 11.936C12.7252 12.1387 12.1865 12.24 11.5465 12.24C10.9172 12.24 10.3892 12.0533 9.96249 11.68C9.54649 11.3067 9.33849 10.784 9.33849 10.112C9.33849 9.54667 9.53583 9.056 9.93049 8.64C10.3998 8.128 11.2158 7.872 12.3785 7.872C13.0398 7.872 13.6532 7.95733 14.2185 8.128V6.704C14.2185 6.13867 14.0532 5.664 13.7225 5.28C13.4025 4.896 12.9385 4.704 12.3305 4.704C11.2638 4.704 10.6665 5.232 10.5385 6.288C10.3252 6.30933 10.1492 6.26133 10.0105 6.144C9.87183 6.02667 9.80249 5.82933 9.80249 5.552C9.80249 5.11467 10.0265 4.74667 10.4745 4.448C10.9332 4.14933 11.5198 4 12.2345 4C12.7892 4 13.3598 4.13333 13.9465 4.4C14.2878 4.56 14.5652 4.83733 14.7785 5.232C14.9918 5.616 15.0985 6.09067 15.0985 6.656V11.44L16.1705 11.568C16.1705 12.0267 15.8772 12.256 15.2905 12.256ZM14.2185 9.04C13.7065 8.72 13.0932 8.56 12.3785 8.56C11.6638 8.56 11.1465 8.69333 10.8265 8.96C10.5172 9.216 10.3625 9.568 10.3625 10.016C10.3625 10.4533 10.5012 10.8053 10.7785 11.072C11.0665 11.3387 11.4612 11.472 11.9625 11.472C12.8265 11.472 13.5785 11.136 14.2185 10.464V9.04ZM19.9281 12H17.0801V11.888C17.0801 11.6747 17.1494 11.5413 17.2881 11.488C17.3628 11.4453 17.6934 11.408 18.2801 11.376V1.872L17.3841 1.776C17.1708 1.75467 17.0641 1.56267 17.0641 1.2L19.1601 0.912V11.344L20.2961 11.44C20.3281 11.8133 20.2054 12 19.9281 12ZM22.7301 5.712C22.3141 6.352 22.1061 7.16267 22.1061 8.144C22.1061 9.12533 22.3034 9.936 22.6981 10.576C23.1034 11.216 23.6901 11.5307 24.4581 11.52C25.2368 11.5093 25.8341 11.1893 26.2501 10.56C26.6768 9.93067 26.8901 9.13067 26.8901 8.16C26.8901 7.18933 26.6928 6.37333 26.2981 5.712C25.9034 5.04 25.3168 4.70933 24.5381 4.72C23.7594 4.73067 23.1568 5.06133 22.7301 5.712ZM24.6021 4C25.3381 4 26.0261 4.224 26.6661 4.672C27.0181 4.928 27.3008 5.328 27.5141 5.872C27.7274 6.40533 27.8394 7.056 27.8501 7.824C27.8714 9.136 27.5674 10.2027 26.9381 11.024C26.3194 11.8347 25.4821 12.24 24.4261 12.24C23.3701 12.24 22.5648 11.904 22.0101 11.232C21.4554 10.56 21.1674 9.58933 21.1461 8.32C21.1354 7.04 21.4448 6 22.0741 5.2C22.7141 4.4 23.5568 4 24.6021 4ZM33.623 4C34.2203 4 34.519 4.26133 34.519 4.784C34.519 5.33867 34.455 5.696 34.327 5.856C34.199 5.97333 34.0016 6.02133 33.735 6C33.735 5.24267 33.5323 4.864 33.127 4.864C32.6256 4.864 31.9696 5.232 31.159 5.968V11.344L32.551 11.44C32.583 11.8133 32.4603 12 32.183 12H29.111C29.111 12 29.111 11.9627 29.111 11.888C29.111 11.6747 29.1803 11.5413 29.319 11.488C29.3936 11.456 29.7136 11.4187 30.279 11.376V4.976L29.383 4.88C29.1696 4.85867 29.063 4.672 29.063 4.32L31.031 4.064L31.127 5.264H31.175C31.5163 4.93333 31.9216 4.64 32.391 4.384C32.871 4.128 33.2816 4 33.623 4ZM38.124 12H35.212V11.888C35.212 11.6747 35.2813 11.5413 35.42 11.488C35.4946 11.456 35.8146 11.4187 36.38 11.376V4.912L35.484 4.832C35.2706 4.81067 35.164 4.61333 35.164 4.24L37.26 4V11.344L38.492 11.44C38.524 11.8133 38.4013 12 38.124 12ZM37.18 2.432C37.0626 2.56 36.8973 2.624 36.684 2.624C36.4706 2.624 36.3 2.56 36.172 2.432C36.0546 2.304 35.996 2.13867 35.996 1.936C35.996 1.73333 36.0546 1.568 36.172 1.44C36.3 1.312 36.4706 1.248 36.684 1.248C36.8973 1.248 37.0626 1.312 37.18 1.44C37.308 1.568 37.372 1.73333 37.372 1.936C37.372 2.13867 37.308 2.304 37.18 2.432ZM45.4357 7.712H40.3637C40.3424 7.968 40.3317 8.16 40.3317 8.288C40.3317 9.20533 40.5344 9.96267 40.9397 10.56C41.345 11.1573 41.9637 11.456 42.7957 11.456C43.6277 11.456 44.3957 11.1733 45.0997 10.608C45.2064 10.6827 45.2597 10.7893 45.2597 10.928C45.2597 11.2053 44.9717 11.4933 44.3957 11.792C43.8197 12.0907 43.1904 12.24 42.5077 12.24C41.569 12.24 40.8064 11.92 40.2197 11.28C39.633 10.6293 39.3397 9.64267 39.3397 8.32C39.3397 6.99733 39.6917 5.94667 40.3957 5.168C41.0997 4.38933 41.9424 4 42.9237 4C43.3824 4 43.7824 4.09067 44.1237 4.272C44.465 4.45333 44.7264 4.69333 44.9077 4.992C45.2597 5.58933 45.4357 6.25067 45.4357 6.976V7.712ZM44.4437 7.088C44.465 6.39467 44.3264 5.81867 44.0277 5.36C43.729 4.90133 43.3024 4.672 42.7477 4.672C42.193 4.672 41.7077 4.896 41.2917 5.344C40.8864 5.78133 40.609 6.36267 40.4597 7.088H44.4437ZM46.3786 6.192C46.3892 5.52 46.6666 4.98667 47.2106 4.592C47.7546 4.18667 48.3359 3.98933 48.9546 4C49.5839 4.01067 50.1066 4.128 50.5226 4.352C50.9492 4.56533 51.1572 4.86933 51.1466 5.264C51.1359 5.53067 51.0399 5.71733 50.8586 5.824C50.6772 5.93067 50.4959 5.97867 50.3146 5.968C50.3252 5.59467 50.2186 5.296 49.9946 5.072C49.7706 4.848 49.4186 4.73067 48.9386 4.72C48.4586 4.70933 48.0532 4.82133 47.7226 5.056C47.3919 5.29067 47.2212 5.59467 47.2106 5.968C47.1999 6.34133 47.3546 6.63467 47.6746 6.848C47.9946 7.06133 48.4479 7.28 49.0346 7.504C49.6212 7.728 50.0106 7.888 50.2026 7.984C50.4052 8.08 50.6292 8.21333 50.8746 8.384C51.3119 8.69333 51.5199 9.16267 51.4986 9.792C51.4879 10.4107 51.2106 10.976 50.6666 11.488C50.1332 12 49.4132 12.2507 48.5066 12.24C47.8666 12.2187 47.3012 12.08 46.8106 11.824C46.3199 11.5573 46.0799 11.2107 46.0906 10.784C46.1012 10.5707 46.1706 10.4 46.2986 10.272C46.4266 10.144 46.5812 10.0853 46.7626 10.096C46.8586 10.512 47.0826 10.8533 47.4346 11.12C47.7866 11.376 48.2239 11.5093 48.7466 11.52C49.2692 11.5307 49.7119 11.4027 50.0746 11.136C50.4479 10.8693 50.6399 10.528 50.6506 10.112C50.6612 9.68533 50.5439 9.37067 50.2986 9.168C50.0532 8.95467 49.6852 8.75733 49.1946 8.576C48.7039 8.39467 48.3786 8.27733 48.2186 8.224C48.0692 8.16 47.8452 8.05333 47.5466 7.904C47.2586 7.75467 47.0452 7.61067 46.9066 7.472C46.5546 7.09867 46.3786 6.672 46.3786 6.192ZM53.5557 7.136C53.417 7.27467 53.241 7.344 53.0277 7.344C52.8144 7.344 52.6384 7.27467 52.4997 7.136C52.361 6.98667 52.2917 6.80533 52.2917 6.592C52.2917 6.37867 52.361 6.20267 52.4997 6.064C52.6384 5.91467 52.8144 5.84 53.0277 5.84C53.241 5.84 53.417 5.91467 53.5557 6.064C53.6944 6.20267 53.7637 6.37867 53.7637 6.592C53.7637 6.80533 53.6944 6.98667 53.5557 7.136ZM53.5557 12.016C53.417 12.1653 53.241 12.24 53.0277 12.24C52.8144 12.24 52.6384 12.1653 52.4997 12.016C52.361 11.8773 52.2917 11.7013 52.2917 11.488C52.2917 11.2747 52.361 11.0987 52.4997 10.96C52.6384 10.8107 52.8144 10.736 53.0277 10.736C53.241 10.736 53.417 10.8107 53.5557 10.96C53.6944 11.0987 53.7637 11.2747 53.7637 11.488C53.7637 11.7013 53.6944 11.8773 53.5557 12.016ZM62.0519 6.144C62.3719 5.99467 62.6386 5.77067 62.8519 5.472C63.0653 5.17333 63.1719 4.8 63.1719 4.352C63.1719 3.904 63.0173 3.536 62.7079 3.248C62.4093 2.94933 62.0146 2.8 61.5239 2.8C61.0333 2.8 60.6599 2.93867 60.4039 3.216C60.1479 3.49333 60.0146 3.88267 60.0039 4.384C59.7373 4.36267 59.5293 4.27733 59.3799 4.128C59.2306 3.97867 59.1719 3.78667 59.2039 3.552C59.2573 3.15733 59.5079 2.816 59.9559 2.528C60.4039 2.22933 60.9746 2.08 61.6679 2.08C62.3719 2.08 62.9639 2.28267 63.4439 2.688C63.9239 3.09333 64.1639 3.58933 64.1639 4.176C64.1639 5.36 63.5293 6.208 62.2599 6.72C62.9853 6.83733 63.5559 7.12533 63.9719 7.584C64.3879 8.04267 64.5959 8.61333 64.5959 9.296C64.5959 10.1493 64.2759 10.8533 63.6359 11.408C63.0066 11.9627 62.1906 12.24 61.1879 12.24C60.5159 12.24 59.9506 12.112 59.4919 11.856C59.0333 11.6 58.8039 11.2747 58.8039 10.88C58.8039 10.4853 58.9959 10.2347 59.3799 10.128C59.4866 10.5547 59.6999 10.9013 60.0199 11.168C60.3399 11.424 60.8093 11.552 61.4279 11.552C62.0573 11.552 62.5799 11.344 62.9959 10.928C63.4226 10.5013 63.6253 9.96267 63.6039 9.312C63.5933 8.88533 63.4813 8.528 63.2679 8.24C63.0653 7.94133 62.7986 7.72267 62.4679 7.584C61.8706 7.34933 61.1613 7.25333 60.3399 7.296L60.3239 6.56C60.8786 6.56 61.4546 6.42133 62.0519 6.144ZM70.6529 3.888C70.2583 3.16267 69.6449 2.8 68.8129 2.8C67.9809 2.8 67.3676 3.16267 66.9729 3.888C66.5783 4.61333 66.3809 5.72267 66.3809 7.216C66.3809 8.70933 66.5783 9.80267 66.9729 10.496C67.3676 11.1787 67.9809 11.52 68.8129 11.52C69.6449 11.52 70.2583 11.1787 70.6529 10.496C71.0476 9.80267 71.2449 8.70933 71.2449 7.216C71.2449 5.72267 71.0476 4.61333 70.6529 3.888ZM66.2369 3.344C66.7916 2.50133 67.6503 2.08 68.8129 2.08C69.9756 2.08 70.8289 2.50133 71.3729 3.344C71.9276 4.176 72.2049 5.46667 72.2049 7.216C72.2049 8.96533 71.9276 10.24 71.3729 11.04C70.8289 11.84 69.9756 12.24 68.8129 12.24C67.6503 12.24 66.7916 11.84 66.2369 11.04C65.6929 10.24 65.4209 8.96533 65.4209 7.216C65.4209 5.46667 65.6929 4.176 66.2369 3.344ZM78.3477 3.888C77.953 3.16267 77.3397 2.8 76.5077 2.8C75.6757 2.8 75.0623 3.16267 74.6677 3.888C74.273 4.61333 74.0757 5.72267 74.0757 7.216C74.0757 8.70933 74.273 9.80267 74.6677 10.496C75.0623 11.1787 75.6757 11.52 76.5077 11.52C77.3397 11.52 77.953 11.1787 78.3477 10.496C78.7423 9.80267 78.9397 8.70933 78.9397 7.216C78.9397 5.72267 78.7423 4.61333 78.3477 3.888ZM73.9317 3.344C74.4863 2.50133 75.345 2.08 76.5077 2.08C77.6703 2.08 78.5237 2.50133 79.0677 3.344C79.6223 4.176 79.8997 5.46667 79.8997 7.216C79.8997 8.96533 79.6223 10.24 79.0677 11.04C78.5237 11.84 77.6703 12.24 76.5077 12.24C75.345 12.24 74.4863 11.84 73.9317 11.04C73.3877 10.24 73.1157 8.96533 73.1157 7.216C73.1157 5.46667 73.3877 4.176 73.9317 3.344ZM86.0424 3.888C85.6477 3.16267 85.0344 2.8 84.2024 2.8C83.3704 2.8 82.7571 3.16267 82.3624 3.888C81.9677 4.61333 81.7704 5.72267 81.7704 7.216C81.7704 8.70933 81.9677 9.80267 82.3624 10.496C82.7571 11.1787 83.3704 11.52 84.2024 11.52C85.0344 11.52 85.6477 11.1787 86.0424 10.496C86.4371 9.80267 86.6344 8.70933 86.6344 7.216C86.6344 5.72267 86.4371 4.61333 86.0424 3.888ZM81.6264 3.344C82.1811 2.50133 83.0397 2.08 84.2024 2.08C85.3651 2.08 86.2184 2.50133 86.7624 3.344C87.3171 4.176 87.5944 5.46667 87.5944 7.216C87.5944 8.96533 87.3171 10.24 86.7624 11.04C86.2184 11.84 85.3651 12.24 84.2024 12.24C83.0397 12.24 82.1811 11.84 81.6264 11.04C81.0824 10.24 80.8104 8.96533 80.8104 7.216C80.8104 5.46667 81.0824 4.176 81.6264 3.344ZM94.2652 1.2H96.9212C96.9212 1.2 96.9212 1.23733 96.9212 1.312C96.9212 1.54667 96.8518 1.70133 96.7132 1.776C96.6385 1.808 96.3505 1.84533 95.8492 1.888L92.2332 6.224L95.9292 11.344L96.9052 11.44C96.9478 11.8133 96.8252 12 96.5372 12H95.2092L91.6412 6.928L90.7932 7.952V11.28L91.9772 11.376C92.0198 11.792 91.8972 12 91.6092 12H88.6172V11.872C88.6172 11.6373 88.6865 11.488 88.8252 11.424C88.8892 11.392 88.9692 11.3707 89.0652 11.36L89.8652 11.312V1.92L88.6972 1.824C88.6545 1.408 88.7772 1.2 89.0652 1.2H92.0572V1.312C92.0572 1.54667 91.9878 1.70133 91.8492 1.776C91.7852 1.808 91.7052 1.82933 91.6092 1.84L90.8092 1.888L90.7932 6.928L94.9052 1.92L93.8972 1.824C93.8545 1.408 93.9772 1.2 94.2652 1.2ZM98.3231 1.2H101.395C101.395 1.2 101.395 1.23733 101.395 1.312C101.395 1.54667 101.326 1.70133 101.187 1.776C101.112 1.808 100.792 1.84533 100.227 1.888V9.952C100.227 10.848 100.03 11.5787 99.6351 12.144C99.2511 12.7093 98.7178 12.992 98.0351 12.992C97.7151 12.992 97.4378 12.9067 97.2031 12.736C96.9685 12.5653 96.8511 12.3733 96.8511 12.16C96.8511 11.744 97.0591 11.5467 97.4751 11.568C97.5071 12.016 97.7685 12.24 98.2591 12.24C98.6218 12.24 98.8831 12.0853 99.0431 11.776C99.2138 11.456 99.2991 10.9067 99.2991 10.128V1.92L97.9551 1.824C97.9125 1.408 98.0351 1.2 98.3231 1.2ZM2.416 27.88V32.664C2.416 33.304 2.48 33.7627 2.608 34.04C2.74667 34.3173 3.008 34.456 3.392 34.456C3.78667 34.456 4.10667 34.4187 4.352 34.344C4.608 34.2587 4.93333 34.0613 5.328 33.752C5.50933 33.816 5.6 33.9387 5.6 34.12C5.6 34.3973 5.34933 34.6587 4.848 34.904C4.34667 35.1387 3.872 35.256 3.424 35.256C2.73067 35.256 2.24 35.0533 1.952 34.648C1.67467 34.2427 1.536 33.6453 1.536 32.856V27.88H0.416C0.373333 27.4533 0.496 27.24 0.784 27.24H1.536V25.384L2.416 25.08V27.24H5.44C5.45067 27.4107 5.41867 27.624 5.344 27.88H2.416ZM7.85624 28.712C7.44024 29.352 7.23224 30.1627 7.23224 31.144C7.23224 32.1253 7.42958 32.936 7.82424 33.576C8.22958 34.216 8.81624 34.5307 9.58424 34.52C10.3629 34.5093 10.9602 34.1893 11.3762 33.56C11.8029 32.9307 12.0162 32.1307 12.0162 31.16C12.0162 30.1893 11.8189 29.3733 11.4242 28.712C11.0296 28.04 10.4429 27.7093 9.66424 27.72C8.88558 27.7307 8.28291 28.0613 7.85624 28.712ZM9.72824 27C10.4642 27 11.1522 27.224 11.7922 27.672C12.1442 27.928 12.4269 28.328 12.6402 28.872C12.8536 29.4053 12.9656 30.056 12.9762 30.824C12.9976 32.136 12.6936 33.2027 12.0642 34.024C11.4456 34.8347 10.6082 35.24 9.55224 35.24C8.49624 35.24 7.69091 34.904 7.13624 34.232C6.58158 33.56 6.29358 32.5893 6.27224 31.32C6.26158 30.04 6.57091 29 7.20024 28.2C7.84024 27.4 8.68291 27 9.72824 27ZM15.8211 27.88V32.664C15.8211 33.304 15.8851 33.7627 16.0131 34.04C16.1518 34.3173 16.4131 34.456 16.7971 34.456C17.1918 34.456 17.5118 34.4187 17.7571 34.344C18.0131 34.2587 18.3384 34.0613 18.7331 33.752C18.9144 33.816 19.0051 33.9387 19.0051 34.12C19.0051 34.3973 18.7544 34.6587 18.2531 34.904C17.7518 35.1387 17.2771 35.256 16.8291 35.256C16.1358 35.256 15.6451 35.0533 15.3571 34.648C15.0798 34.2427 14.9411 33.6453 14.9411 32.856V27.88H13.8211C13.7784 27.4533 13.9011 27.24 14.1891 27.24H14.9411V25.384L15.8211 25.08V27.24H18.8451C18.8558 27.4107 18.8238 27.624 18.7491 27.88H15.8211ZM25.7894 35.256C25.16 35.256 24.808 34.8987 24.7334 34.184C24.456 34.472 24.0987 34.7227 23.6614 34.936C23.224 35.1387 22.6854 35.24 22.0454 35.24C21.416 35.24 20.888 35.0533 20.4614 34.68C20.0454 34.3067 19.8374 33.784 19.8374 33.112C19.8374 32.5467 20.0347 32.056 20.4294 31.64C20.8987 31.128 21.7147 30.872 22.8774 30.872C23.5387 30.872 24.152 30.9573 24.7174 31.128V29.704C24.7174 29.1387 24.552 28.664 24.2214 28.28C23.9014 27.896 23.4374 27.704 22.8294 27.704C21.7627 27.704 21.1654 28.232 21.0374 29.288C20.824 29.3093 20.648 29.2613 20.5094 29.144C20.3707 29.0267 20.3014 28.8293 20.3014 28.552C20.3014 28.1147 20.5254 27.7467 20.9734 27.448C21.432 27.1493 22.0187 27 22.7334 27C23.288 27 23.8587 27.1333 24.4454 27.4C24.7867 27.56 25.064 27.8373 25.2774 28.232C25.4907 28.616 25.5974 29.0907 25.5974 29.656V34.44L26.6694 34.568C26.6694 35.0267 26.376 35.256 25.7894 35.256ZM24.7174 32.04C24.2054 31.72 23.592 31.56 22.8774 31.56C22.1627 31.56 21.6454 31.6933 21.3254 31.96C21.016 32.216 20.8614 32.568 20.8614 33.016C20.8614 33.4533 21 33.8053 21.2774 34.072C21.5654 34.3387 21.96 34.472 22.4614 34.472C23.3254 34.472 24.0774 34.136 24.7174 33.464V32.04ZM30.427 35H27.579V34.888C27.579 34.6747 27.6483 34.5413 27.787 34.488C27.8616 34.4453 28.1923 34.408 28.779 34.376V24.872L27.883 24.776C27.6696 24.7547 27.563 24.5627 27.563 24.2L29.659 23.912V34.344L30.795 34.44C30.827 34.8133 30.7043 35 30.427 35ZM37.4907 27.88V32.664C37.4907 33.304 37.5547 33.7627 37.6827 34.04C37.8214 34.3173 38.0827 34.456 38.4667 34.456C38.8614 34.456 39.1814 34.4187 39.4267 34.344C39.6827 34.2587 40.008 34.0613 40.4027 33.752C40.584 33.816 40.6747 33.9387 40.6747 34.12C40.6747 34.3973 40.424 34.6587 39.9227 34.904C39.4214 35.1387 38.9467 35.256 38.4987 35.256C37.8054 35.256 37.3147 35.0533 37.0267 34.648C36.7494 34.2427 36.6107 33.6453 36.6107 32.856V27.88H35.4907C35.448 27.4533 35.5707 27.24 35.8587 27.24H36.6107V25.384L37.4907 25.08V27.24H40.5147C40.5254 27.4107 40.4934 27.624 40.4187 27.88H37.4907ZM44.451 35H41.539V34.888C41.539 34.6747 41.6083 34.5413 41.747 34.488C41.8216 34.456 42.1416 34.4187 42.707 34.376V27.912L41.811 27.832C41.5976 27.8107 41.491 27.6133 41.491 27.24L43.587 27V34.344L44.819 34.44C44.851 34.8133 44.7283 35 44.451 35ZM43.507 25.432C43.3896 25.56 43.2243 25.624 43.011 25.624C42.7976 25.624 42.627 25.56 42.499 25.432C42.3816 25.304 42.323 25.1387 42.323 24.936C42.323 24.7333 42.3816 24.568 42.499 24.44C42.627 24.312 42.7976 24.248 43.011 24.248C43.2243 24.248 43.3896 24.312 43.507 24.44C43.635 24.568 43.699 24.7333 43.699 24.936C43.699 25.1387 43.635 25.304 43.507 25.432ZM58.9947 35H56.0987V34.888C56.0987 34.6747 56.168 34.5413 56.3067 34.488C56.3814 34.456 56.696 34.4187 57.2507 34.376V30.36C57.2507 29.5387 57.0747 28.9147 56.7227 28.488C56.3814 28.0613 55.896 27.848 55.2667 27.848C54.808 27.848 54.4027 27.9493 54.0507 28.152C53.7094 28.3547 53.3254 28.6587 52.8987 29.064C52.9947 29.352 53.0427 29.736 53.0427 30.216V34.344L54.2747 34.44C54.3174 34.8133 54.1947 35 53.9067 35H51.0107V34.888C51.0107 34.6747 51.08 34.5413 51.2187 34.488C51.2934 34.456 51.608 34.4187 52.1627 34.376V30.36C52.1627 29.5493 51.9814 28.9307 51.6187 28.504C51.256 28.0667 50.76 27.848 50.1307 27.848C49.6934 27.848 49.304 27.9387 48.9627 28.12C48.632 28.3013 48.28 28.5733 47.9067 28.936V34.344L49.1387 34.44C49.1707 34.8133 49.048 35 48.7707 35H45.8587V34.888C45.8587 34.6747 45.928 34.5413 46.0667 34.488C46.1414 34.456 46.4614 34.4187 47.0267 34.376V27.864H46.2907C45.9707 27.864 45.8107 27.6613 45.8107 27.256L47.6507 27L47.8587 28.152H47.9067C48.6107 27.384 49.4107 27 50.3067 27C50.7974 27 51.2614 27.1227 51.6987 27.368C52.136 27.6133 52.472 27.9973 52.7067 28.52C52.9307 28.232 53.144 27.992 53.3467 27.8C53.5494 27.608 53.8374 27.4267 54.2107 27.256C54.5947 27.0853 55.0054 27 55.4427 27C56.1574 27 56.7814 27.256 57.3147 27.768C57.8587 28.28 58.1307 29.096 58.1307 30.216V34.344L59.3627 34.44C59.4054 34.8133 59.2827 35 58.9947 35ZM66.3012 30.712H61.2292C61.2079 30.968 61.1972 31.16 61.1972 31.288C61.1972 32.2053 61.3999 32.9627 61.8052 33.56C62.2105 34.1573 62.8292 34.456 63.6612 34.456C64.4932 34.456 65.2612 34.1733 65.9652 33.608C66.0719 33.6827 66.1252 33.7893 66.1252 33.928C66.1252 34.2053 65.8372 34.4933 65.2612 34.792C64.6852 35.0907 64.0559 35.24 63.3732 35.24C62.4345 35.24 61.6719 34.92 61.0852 34.28C60.4985 33.6293 60.2052 32.6427 60.2052 31.32C60.2052 29.9973 60.5572 28.9467 61.2612 28.168C61.9652 27.3893 62.8079 27 63.7892 27C64.2479 27 64.6479 27.0907 64.9892 27.272C65.3305 27.4533 65.5919 27.6933 65.7732 27.992C66.1252 28.5893 66.3012 29.2507 66.3012 29.976V30.712ZM65.3092 30.088C65.3305 29.3947 65.1919 28.8187 64.8932 28.36C64.5945 27.9013 64.1679 27.672 63.6132 27.672C63.0585 27.672 62.5732 27.896 62.1572 28.344C61.7519 28.7813 61.4745 29.3627 61.3252 30.088H65.3092ZM68.4921 30.136C68.3534 30.2747 68.1774 30.344 67.9641 30.344C67.7507 30.344 67.5747 30.2747 67.4361 30.136C67.2974 29.9867 67.2281 29.8053 67.2281 29.592C67.2281 29.3787 67.2974 29.2027 67.4361 29.064C67.5747 28.9147 67.7507 28.84 67.9641 28.84C68.1774 28.84 68.3534 28.9147 68.4921 29.064C68.6307 29.2027 68.7001 29.3787 68.7001 29.592C68.7001 29.8053 68.6307 29.9867 68.4921 30.136ZM68.4921 35.016C68.3534 35.1653 68.1774 35.24 67.9641 35.24C67.7507 35.24 67.5747 35.1653 67.4361 35.016C67.2974 34.8773 67.2281 34.7013 67.2281 34.488C67.2281 34.2747 67.2974 34.0987 67.4361 33.96C67.5747 33.8107 67.7507 33.736 67.9641 33.736C68.1774 33.736 68.3534 33.8107 68.4921 33.96C68.6307 34.0987 68.7001 34.2747 68.7001 34.488C68.7001 34.7013 68.6307 34.8773 68.4921 35.016ZM76.9883 29.144C77.3083 28.9947 77.575 28.7707 77.7883 28.472C78.0016 28.1733 78.1083 27.8 78.1083 27.352C78.1083 26.904 77.9536 26.536 77.6443 26.248C77.3456 25.9493 76.951 25.8 76.4603 25.8C75.9696 25.8 75.5963 25.9387 75.3403 26.216C75.0843 26.4933 74.951 26.8827 74.9403 27.384C74.6736 27.3627 74.4656 27.2773 74.3163 27.128C74.167 26.9787 74.1083 26.7867 74.1403 26.552C74.1936 26.1573 74.4443 25.816 74.8923 25.528C75.3403 25.2293 75.911 25.08 76.6043 25.08C77.3083 25.08 77.9003 25.2827 78.3803 25.688C78.8603 26.0933 79.1003 26.5893 79.1003 27.176C79.1003 28.36 78.4656 29.208 77.1963 29.72C77.9216 29.8373 78.4923 30.1253 78.9083 30.584C79.3243 31.0427 79.5323 31.6133 79.5323 32.296C79.5323 33.1493 79.2123 33.8533 78.5723 34.408C77.943 34.9627 77.127 35.24 76.1243 35.24C75.4523 35.24 74.887 35.112 74.4283 34.856C73.9696 34.6 73.7403 34.2747 73.7403 33.88C73.7403 33.4853 73.9323 33.2347 74.3163 33.128C74.423 33.5547 74.6363 33.9013 74.9563 34.168C75.2763 34.424 75.7456 34.552 76.3643 34.552C76.9936 34.552 77.5163 34.344 77.9323 33.928C78.359 33.5013 78.5616 32.9627 78.5403 32.312C78.5296 31.8853 78.4176 31.528 78.2043 31.24C78.0016 30.9413 77.735 30.7227 77.4043 30.584C76.807 30.3493 76.0976 30.2533 75.2763 30.296L75.2603 29.56C75.815 29.56 76.391 29.4213 76.9883 29.144ZM85.5893 26.888C85.1946 26.1627 84.5813 25.8 83.7493 25.8C82.9173 25.8 82.3039 26.1627 81.9093 26.888C81.5146 27.6133 81.3173 28.7227 81.3173 30.216C81.3173 31.7093 81.5146 32.8027 81.9093 33.496C82.3039 34.1787 82.9173 34.52 83.7493 34.52C84.5813 34.52 85.1946 34.1787 85.5893 33.496C85.9839 32.8027 86.1813 31.7093 86.1813 30.216C86.1813 28.7227 85.9839 27.6133 85.5893 26.888ZM81.1733 26.344C81.7279 25.5013 82.5866 25.08 83.7493 25.08C84.9119 25.08 85.7653 25.5013 86.3093 26.344C86.8639 27.176 87.1413 28.4667 87.1413 30.216C87.1413 31.9653 86.8639 33.24 86.3093 34.04C85.7653 34.84 84.9119 35.24 83.7493 35.24C82.5866 35.24 81.7279 34.84 81.1733 34.04C80.6293 33.24 80.3573 31.9653 80.3573 30.216C80.3573 28.4667 80.6293 27.176 81.1733 26.344ZM101.46 35H98.564V34.888C98.564 34.6747 98.6334 34.5413 98.772 34.488C98.8467 34.456 99.1614 34.4187 99.716 34.376V30.36C99.716 29.5387 99.54 28.9147 99.188 28.488C98.8467 28.0613 98.3614 27.848 97.732 27.848C97.2734 27.848 96.868 27.9493 96.516 28.152C96.1747 28.3547 95.7907 28.6587 95.364 29.064C95.46 29.352 95.508 29.736 95.508 30.216V34.344L96.74 34.44C96.7827 34.8133 96.66 35 96.372 35H93.476V34.888C93.476 34.6747 93.5454 34.5413 93.684 34.488C93.7587 34.456 94.0734 34.4187 94.628 34.376V30.36C94.628 29.5493 94.4467 28.9307 94.084 28.504C93.7214 28.0667 93.2254 27.848 92.596 27.848C92.1587 27.848 91.7694 27.9387 91.428 28.12C91.0974 28.3013 90.7454 28.5733 90.372 28.936V34.344L91.604 34.44C91.636 34.8133 91.5134 35 91.236 35H88.324V34.888C88.324 34.6747 88.3934 34.5413 88.532 34.488C88.6067 34.456 88.9267 34.4187 89.492 34.376V27.864H88.756C88.436 27.864 88.276 27.6613 88.276 27.256L90.116 27L90.324 28.152H90.372C91.076 27.384 91.876 27 92.772 27C93.2627 27 93.7267 27.1227 94.164 27.368C94.6014 27.6133 94.9374 27.9973 95.172 28.52C95.396 28.232 95.6094 27.992 95.812 27.8C96.0147 27.608 96.3027 27.4267 96.676 27.256C97.06 27.0853 97.4707 27 97.908 27C98.6227 27 99.2467 27.256 99.78 27.768C100.324 28.28 100.596 29.096 100.596 30.216V34.344L101.828 34.44C101.871 34.8133 101.748 35 101.46 35ZM105.775 35H102.863V34.888C102.863 34.6747 102.932 34.5413 103.071 34.488C103.145 34.456 103.465 34.4187 104.031 34.376V27.912L103.135 27.832C102.921 27.8107 102.815 27.6133 102.815 27.24L104.911 27V34.344L106.143 34.44C106.175 34.8133 106.052 35 105.775 35ZM104.831 25.432C104.713 25.56 104.548 25.624 104.335 25.624C104.121 25.624 103.951 25.56 103.823 25.432C103.705 25.304 103.647 25.1387 103.647 24.936C103.647 24.7333 103.705 24.568 103.823 24.44C103.951 24.312 104.121 24.248 104.335 24.248C104.548 24.248 104.713 24.312 104.831 24.44C104.959 24.568 105.023 24.7333 105.023 24.936C105.023 25.1387 104.959 25.304 104.831 25.432ZM115.23 35H112.398V34.888C112.398 34.6747 112.468 34.5413 112.606 34.488C112.681 34.4453 113.012 34.408 113.598 34.376V30.184C113.598 28.5947 112.98 27.8 111.742 27.8C111.294 27.8 110.878 27.8907 110.494 28.072C110.121 28.2533 109.7 28.5467 109.23 28.952V34.344L110.366 34.44C110.398 34.8133 110.276 35 109.998 35H107.15V34.888C107.15 34.6747 107.22 34.5413 107.358 34.488C107.433 34.4453 107.764 34.408 108.35 34.376V27.912L107.454 27.816C107.241 27.7947 107.134 27.608 107.134 27.256L108.974 27L109.198 28.28H109.246C110.142 27.4267 111.054 27 111.982 27C112.665 27 113.252 27.2453 113.742 27.736C114.233 28.216 114.478 28.9733 114.478 30.008V34.344L115.598 34.44C115.641 34.8133 115.518 35 115.23 35Z" fill="black"/>
</svg>
