<svg width="25" height="27" viewBox="0 0 25 27" fill="none" xmlns="http://www.w3.org/2000/svg">
<path fill-rule="evenodd" clip-rule="evenodd" d="M23.354 6.63717L24.9181 17.708C25.5513 22.5531 22.4353 26.9602 18.2146 27H6.71923C2.57295 27 -0.580202 22.5531 0.0901535 17.708L1.65432 6.63717C2.02565 2.9766 4.84307 0.155738 8.28339 0H16.7249C20.1652 0.155738 22.9826 2.9766 23.354 6.63717ZM18.2518 24.969C19.5848 24.9484 20.842 24.303 21.6905 23.2035C22.8285 21.7624 23.3226 19.8624 23.0436 18L21.5167 6.9292C21.2987 4.22693 19.2573 2.10627 16.7249 1.95133H8.28339C5.75101 2.10627 3.70962 4.22693 3.49159 6.9292L1.96467 18C1.68574 19.8624 2.1798 21.7624 3.31779 23.2035C4.1663 24.303 5.42354 24.9484 6.75647 24.969H18.2518Z" fill="#CD5ACD"/>
<path d="M16.4146 6.90265C15.9004 6.90265 15.4835 7.34839 15.4835 7.89823C15.4835 9.65772 14.1496 11.0841 12.5041 11.0841C10.8587 11.0841 9.52479 9.65772 9.52479 7.89823C9.52479 7.34839 9.10795 6.90265 8.59374 6.90265C8.07954 6.90265 7.66269 7.34839 7.66269 7.89823C7.66269 9.74779 8.58547 11.4569 10.0834 12.3816C11.5814 13.3064 13.4269 13.3064 14.9249 12.3816C16.4228 11.4569 17.3456 9.74779 17.3456 7.89823C17.3389 7.35138 16.926 6.9098 16.4146 6.90265Z" fill="#CD5ACD"/>
</svg>
