<svg width="370" height="350" viewBox="0 0 370 350" fill="none" xmlns="http://www.w3.org/2000/svg">
<path d="M35.6614 38.0625C35.6614 35.6979 36.0103 33.5938 36.7083 31.75C37.4166 29.8958 38.5208 28.4323 40.0208 27.3594C41.5208 26.2865 43.4166 25.75 45.7083 25.75C47.2708 25.75 48.9218 25.9531 50.6614 26.3594C51.2239 26.6927 51.7135 27.0417 52.1301 27.4062C52.5572 27.7604 52.9635 28.1927 53.3489 28.7031C53.3489 29.4427 53.2499 30.4271 53.052 31.6562C52.8541 32.875 52.6041 34.0156 52.302 35.0781C52.0103 36.1302 51.7291 36.8125 51.4583 37.125C51.1874 37.2604 50.9583 37.3542 50.7708 37.4062C50.5833 37.4479 50.2916 37.4688 49.8958 37.4688C49.4062 37.4688 48.9478 37.4323 48.5208 37.3594C48.0937 37.2865 47.7708 37.1875 47.552 37.0625L47.0051 31.7969C46.2655 31.5885 45.2395 31.4844 43.927 31.4844C43.5728 31.4844 43.3124 31.4896 43.1458 31.5C42.6978 32.9375 42.4478 34.8698 42.3958 37.2969C42.3853 37.5885 42.3801 38.0312 42.3801 38.625C42.3801 40.0208 42.453 41.151 42.5989 42.0156C42.7343 42.8281 42.8801 43.4375 43.0364 43.8438C43.1926 44.25 43.4635 44.5625 43.8489 44.7812C44.2447 45 44.8333 45.1094 45.6145 45.1094C46.6666 45.1094 47.6353 44.9583 48.5208 44.6562C49.4166 44.3438 50.3905 43.8906 51.4426 43.2969C51.8385 43.724 52.1405 44.0729 52.3489 44.3438C52.5676 44.6146 52.7655 44.9479 52.9426 45.3438C53.1301 45.7396 53.2551 46.1927 53.3176 46.7031C53.151 47.0469 52.7083 47.5052 51.9895 48.0781C51.2708 48.651 50.328 49.1667 49.1614 49.625C47.9947 50.0833 46.6874 50.3125 45.2395 50.3125C41.8541 50.3125 39.4114 49.2552 37.9114 47.1406C36.4114 45.026 35.6614 42 35.6614 38.0625ZM59.519 39.7031C60.1336 39.7031 60.8107 39.7656 61.5503 39.8906C62.3003 40.0156 62.9878 40.1667 63.6128 40.3438V39.8594C63.6128 39.5365 63.6023 39.1771 63.5815 38.7812C63.5711 38.3854 63.5503 38.125 63.519 38C63.4253 37.8229 63.1544 37.6406 62.7065 37.4531C62.269 37.2656 61.5503 37.1719 60.5503 37.1719C59.9357 37.1719 59.3003 37.25 58.644 37.4062C57.9982 37.5521 57.2794 37.75 56.4878 38C56.0607 37.2917 55.7169 36.6198 55.4565 35.9844C55.2065 35.3385 55.0815 34.6927 55.0815 34.0469C55.0815 33.849 55.0971 33.651 55.1284 33.4531C56.8159 32.1406 58.9982 31.4844 61.6753 31.4844C63.1544 31.4844 64.4669 31.651 65.6128 31.9844C66.7586 32.3177 67.7013 32.9635 68.4409 33.9219C69.1805 34.8802 69.5503 36.2396 69.5503 38C69.5503 39.7188 69.3471 41.3854 68.9409 43C68.545 44.6042 68.3419 45.4219 68.3315 45.4531L70.5971 44.4844C70.8992 44.8073 71.1648 45.2031 71.394 45.6719C71.6336 46.1302 71.7846 46.6615 71.8471 47.2656C71.7013 47.5781 71.3836 47.9792 70.894 48.4688C70.4044 48.9479 69.8055 49.375 69.0971 49.75C68.3888 50.125 67.6492 50.3125 66.8784 50.3125C66.0138 50.3125 65.3575 50.0573 64.9096 49.5469C64.4721 49.0365 64.2534 48.375 64.2534 47.5625C64.2534 47.1042 64.3211 46.6406 64.4565 46.1719L63.9878 46.0312C63.6961 47.6771 63.0763 48.8021 62.1284 49.4062C61.1805 50.0104 60.1336 50.3125 58.9878 50.3125C58.2378 50.3125 57.5138 50.1042 56.8159 49.6875C56.118 49.2604 55.5503 48.6458 55.1128 47.8438C54.6753 47.0312 54.4565 46.0833 54.4565 45C54.4565 43.2708 54.8888 41.9583 55.7534 41.0625C56.618 40.1562 57.8732 39.7031 59.519 39.7031ZM61.3003 45.6562C61.5607 45.6042 61.868 45.4583 62.2221 45.2188C62.5867 44.9792 62.9096 44.6927 63.1909 44.3594C63.4721 44.026 63.6388 43.7083 63.6909 43.4062L63.5971 43.0312C63.045 42.9583 62.4565 42.9219 61.8315 42.9219C61.3003 42.9219 60.9357 42.9635 60.7378 43.0469C60.4044 43.4219 60.2378 43.8385 60.2378 44.2969C60.2378 44.6302 60.3211 44.9323 60.4878 45.2031C60.6648 45.474 60.9357 45.625 61.3003 45.6562ZM73.7985 45.8125C73.7985 45.3646 73.8089 44.2656 73.8298 42.5156C73.861 39.0781 73.8766 37.1979 73.8766 36.875L72.4391 36.6406C72.2412 36.0469 72.1006 35.4896 72.0173 34.9688C71.9339 34.4479 71.8923 33.9219 71.8923 33.3906C71.8923 33.1719 71.8975 33.0052 71.9079 32.8906C72.085 32.7344 72.361 32.5469 72.736 32.3281C73.111 32.1094 73.5537 31.9167 74.0641 31.75C74.5745 31.5729 75.0954 31.4844 75.6266 31.4844C76.8662 31.4844 77.762 31.7604 78.3141 32.3125C78.8766 32.8646 79.1579 33.6719 79.1579 34.7344C79.1579 35.3802 79.0745 36.2083 78.9079 37.2188C78.7516 38.2188 78.5902 38.9323 78.4235 39.3594L78.986 39.4531L79.9235 35.9219C80.3402 34.3281 80.861 33.1927 81.486 32.5156C82.111 31.8281 82.8141 31.4844 83.5954 31.4844C84.1058 31.4844 84.611 31.5625 85.111 31.7188C85.6214 31.875 86.012 32.0677 86.2829 32.2969C86.5745 32.9427 86.7204 33.8021 86.7204 34.875C86.7204 35.625 86.6475 36.3698 86.5016 37.1094C86.3558 37.8385 86.1683 38.4271 85.9391 38.875L82.6579 38.4375C81.9912 39.1458 81.2829 40.1302 80.5329 41.3906C79.7829 42.6406 79.1839 43.7917 78.736 44.8438L78.7204 45.6562L81.7516 44.9375C82.262 45.7188 82.5589 46.6458 82.6423 47.7188C82.6423 47.7812 82.4079 48.0365 81.9391 48.4844C81.4704 48.9323 80.8506 49.349 80.0798 49.7344C79.3193 50.1094 78.4443 50.2969 77.4548 50.2969C76.4339 50.2969 75.5798 50.026 74.8923 49.4844C74.2152 48.9323 73.8558 48.0052 73.8141 46.7031C73.8037 46.5469 73.7985 46.25 73.7985 45.8125ZM88.7343 41.375C88.7343 39.6771 88.7603 38.1302 88.8124 36.7344L87.1093 36.4375C86.9738 35.9167 86.8801 35.4583 86.828 35.0625C86.7759 34.6667 86.7499 34.2448 86.7499 33.7969L86.7811 33.4844C86.8124 33.3385 86.828 33.2188 86.828 33.125L89.0936 32.625C89.1457 31.9792 89.2655 31.25 89.453 30.4375C89.6405 29.625 89.8384 29.026 90.0468 28.6406C90.3801 28.3906 90.7811 28.2031 91.2499 28.0781C91.7186 27.9531 92.2238 27.8906 92.7655 27.8906C93.2238 27.8906 93.6665 27.9375 94.0936 28.0312C94.5311 28.1146 94.9113 28.2292 95.2343 28.375C95.2655 28.7292 95.2811 29.1354 95.2811 29.5938C95.2811 30.3438 95.2447 31.1927 95.1718 32.1406L97.9218 31.6406C98.3072 32.3073 98.4999 33.0312 98.4999 33.8125C98.4999 34.3542 98.4322 34.8438 98.2968 35.2812C98.1718 35.7188 97.9947 36.2135 97.7655 36.7656C97.078 36.8802 96.1353 36.9531 94.9374 36.9844C94.7915 38.6823 94.4686 41.1771 93.9686 44.4688L93.8905 45L93.9218 45.0312L97.5936 43.8906C98.354 44.526 98.8176 45.5052 98.9843 46.8281C98.9843 46.901 98.6457 47.2448 97.9686 47.8594C97.302 48.4635 96.4634 49.026 95.453 49.5469C94.4426 50.0573 93.3436 50.3125 92.1561 50.3125C90.0832 50.3125 88.979 49.0469 88.8436 46.5156C88.7707 45.2344 88.7343 43.5208 88.7343 41.375Z" fill="black"/>
<line y1="348.5" x2="370" y2="348.5" stroke="black" stroke-width="3"/>
<g filter="url(#filter0_i_913_1305)">
<ellipse cx="22.6636" cy="6" rx="6.85185" ry="6" fill="#D9D9D9" fill-opacity="0.1"/>
</g>
<g filter="url(#filter1_i_913_1305)">
<ellipse cx="58.5042" cy="6" rx="6.85185" ry="6" fill="#D9D9D9" fill-opacity="0.1"/>
</g>
<g filter="url(#filter2_i_913_1305)">
<ellipse cx="94.3448" cy="6" rx="6.85185" ry="6" fill="#D9D9D9" fill-opacity="0.1"/>
</g>
<g filter="url(#filter3_i_913_1305)">
<ellipse cx="130.185" cy="6" rx="6.85185" ry="6" fill="#D9D9D9" fill-opacity="0.1"/>
</g>
<g filter="url(#filter4_i_913_1305)">
<ellipse cx="166.026" cy="6" rx="6.85185" ry="6" fill="#D9D9D9" fill-opacity="0.1"/>
</g>
<g filter="url(#filter5_i_913_1305)">
<ellipse cx="201.866" cy="6" rx="6.85185" ry="6" fill="#D9D9D9" fill-opacity="0.1"/>
</g>
<g filter="url(#filter6_i_913_1305)">
<ellipse cx="237.707" cy="6" rx="6.85185" ry="6" fill="#D9D9D9" fill-opacity="0.1"/>
</g>
<g filter="url(#filter7_i_913_1305)">
<ellipse cx="273.547" cy="6" rx="6.85185" ry="6" fill="#D9D9D9" fill-opacity="0.1"/>
</g>
<g filter="url(#filter8_i_913_1305)">
<ellipse cx="309.387" cy="6" rx="6.85185" ry="6" fill="#D9D9D9" fill-opacity="0.1"/>
</g>
<g filter="url(#filter9_i_913_1305)">
<ellipse cx="345.228" cy="6" rx="6.85185" ry="6" fill="#D9D9D9" fill-opacity="0.1"/>
</g>
<line y1="60.5" x2="370" y2="60.5" stroke="black"/>
<line x1="-0.00143273" y1="17.5" x2="369.998" y2="16.4398" stroke="black"/>
<line x1="329.389" y1="17" x2="328.335" y2="61" stroke="black"/>
<line x1="123.833" y1="18" x2="122.779" y2="61" stroke="black"/>
<line x1="22.6367" y1="18" x2="21.5826" y2="61" stroke="black"/>
<line x1="164.945" y1="18" x2="163.89" y2="61" stroke="black"/>
<line x1="206.055" y1="18" x2="205.001" y2="61" stroke="black"/>
<line x1="247.167" y1="18" x2="246.112" y2="61" stroke="black"/>
<line x1="288.278" y1="17" x2="287.224" y2="61" stroke="black"/>
<defs>
<filter id="filter0_i_913_1305" x="15.8118" y="0" width="13.7036" height="16" filterUnits="userSpaceOnUse" color-interpolation-filters="sRGB">
<feFlood flood-opacity="0" result="BackgroundImageFix"/>
<feBlend mode="normal" in="SourceGraphic" in2="BackgroundImageFix" result="shape"/>
<feColorMatrix in="SourceAlpha" type="matrix" values="0 0 0 0 0 0 0 0 0 0 0 0 0 0 0 0 0 0 127 0" result="hardAlpha"/>
<feOffset dy="4"/>
<feGaussianBlur stdDeviation="2"/>
<feComposite in2="hardAlpha" operator="arithmetic" k2="-1" k3="1"/>
<feColorMatrix type="matrix" values="0 0 0 0 0 0 0 0 0 0 0 0 0 0 0 0 0 0 0.25 0"/>
<feBlend mode="normal" in2="shape" result="effect1_innerShadow_913_1305"/>
</filter>
<filter id="filter1_i_913_1305" x="51.6523" y="0" width="13.7036" height="16" filterUnits="userSpaceOnUse" color-interpolation-filters="sRGB">
<feFlood flood-opacity="0" result="BackgroundImageFix"/>
<feBlend mode="normal" in="SourceGraphic" in2="BackgroundImageFix" result="shape"/>
<feColorMatrix in="SourceAlpha" type="matrix" values="0 0 0 0 0 0 0 0 0 0 0 0 0 0 0 0 0 0 127 0" result="hardAlpha"/>
<feOffset dy="4"/>
<feGaussianBlur stdDeviation="2"/>
<feComposite in2="hardAlpha" operator="arithmetic" k2="-1" k3="1"/>
<feColorMatrix type="matrix" values="0 0 0 0 0 0 0 0 0 0 0 0 0 0 0 0 0 0 0.25 0"/>
<feBlend mode="normal" in2="shape" result="effect1_innerShadow_913_1305"/>
</filter>
<filter id="filter2_i_913_1305" x="87.4929" y="0" width="13.7036" height="16" filterUnits="userSpaceOnUse" color-interpolation-filters="sRGB">
<feFlood flood-opacity="0" result="BackgroundImageFix"/>
<feBlend mode="normal" in="SourceGraphic" in2="BackgroundImageFix" result="shape"/>
<feColorMatrix in="SourceAlpha" type="matrix" values="0 0 0 0 0 0 0 0 0 0 0 0 0 0 0 0 0 0 127 0" result="hardAlpha"/>
<feOffset dy="4"/>
<feGaussianBlur stdDeviation="2"/>
<feComposite in2="hardAlpha" operator="arithmetic" k2="-1" k3="1"/>
<feColorMatrix type="matrix" values="0 0 0 0 0 0 0 0 0 0 0 0 0 0 0 0 0 0 0.25 0"/>
<feBlend mode="normal" in2="shape" result="effect1_innerShadow_913_1305"/>
</filter>
<filter id="filter3_i_913_1305" x="123.333" y="0" width="13.7036" height="16" filterUnits="userSpaceOnUse" color-interpolation-filters="sRGB">
<feFlood flood-opacity="0" result="BackgroundImageFix"/>
<feBlend mode="normal" in="SourceGraphic" in2="BackgroundImageFix" result="shape"/>
<feColorMatrix in="SourceAlpha" type="matrix" values="0 0 0 0 0 0 0 0 0 0 0 0 0 0 0 0 0 0 127 0" result="hardAlpha"/>
<feOffset dy="4"/>
<feGaussianBlur stdDeviation="2"/>
<feComposite in2="hardAlpha" operator="arithmetic" k2="-1" k3="1"/>
<feColorMatrix type="matrix" values="0 0 0 0 0 0 0 0 0 0 0 0 0 0 0 0 0 0 0.25 0"/>
<feBlend mode="normal" in2="shape" result="effect1_innerShadow_913_1305"/>
</filter>
<filter id="filter4_i_913_1305" x="159.174" y="0" width="13.7036" height="16" filterUnits="userSpaceOnUse" color-interpolation-filters="sRGB">
<feFlood flood-opacity="0" result="BackgroundImageFix"/>
<feBlend mode="normal" in="SourceGraphic" in2="BackgroundImageFix" result="shape"/>
<feColorMatrix in="SourceAlpha" type="matrix" values="0 0 0 0 0 0 0 0 0 0 0 0 0 0 0 0 0 0 127 0" result="hardAlpha"/>
<feOffset dy="4"/>
<feGaussianBlur stdDeviation="2"/>
<feComposite in2="hardAlpha" operator="arithmetic" k2="-1" k3="1"/>
<feColorMatrix type="matrix" values="0 0 0 0 0 0 0 0 0 0 0 0 0 0 0 0 0 0 0.25 0"/>
<feBlend mode="normal" in2="shape" result="effect1_innerShadow_913_1305"/>
</filter>
<filter id="filter5_i_913_1305" x="195.014" y="0" width="13.7036" height="16" filterUnits="userSpaceOnUse" color-interpolation-filters="sRGB">
<feFlood flood-opacity="0" result="BackgroundImageFix"/>
<feBlend mode="normal" in="SourceGraphic" in2="BackgroundImageFix" result="shape"/>
<feColorMatrix in="SourceAlpha" type="matrix" values="0 0 0 0 0 0 0 0 0 0 0 0 0 0 0 0 0 0 127 0" result="hardAlpha"/>
<feOffset dy="4"/>
<feGaussianBlur stdDeviation="2"/>
<feComposite in2="hardAlpha" operator="arithmetic" k2="-1" k3="1"/>
<feColorMatrix type="matrix" values="0 0 0 0 0 0 0 0 0 0 0 0 0 0 0 0 0 0 0.25 0"/>
<feBlend mode="normal" in2="shape" result="effect1_innerShadow_913_1305"/>
</filter>
<filter id="filter6_i_913_1305" x="230.855" y="0" width="13.7036" height="16" filterUnits="userSpaceOnUse" color-interpolation-filters="sRGB">
<feFlood flood-opacity="0" result="BackgroundImageFix"/>
<feBlend mode="normal" in="SourceGraphic" in2="BackgroundImageFix" result="shape"/>
<feColorMatrix in="SourceAlpha" type="matrix" values="0 0 0 0 0 0 0 0 0 0 0 0 0 0 0 0 0 0 127 0" result="hardAlpha"/>
<feOffset dy="4"/>
<feGaussianBlur stdDeviation="2"/>
<feComposite in2="hardAlpha" operator="arithmetic" k2="-1" k3="1"/>
<feColorMatrix type="matrix" values="0 0 0 0 0 0 0 0 0 0 0 0 0 0 0 0 0 0 0.25 0"/>
<feBlend mode="normal" in2="shape" result="effect1_innerShadow_913_1305"/>
</filter>
<filter id="filter7_i_913_1305" x="266.695" y="0" width="13.7036" height="16" filterUnits="userSpaceOnUse" color-interpolation-filters="sRGB">
<feFlood flood-opacity="0" result="BackgroundImageFix"/>
<feBlend mode="normal" in="SourceGraphic" in2="BackgroundImageFix" result="shape"/>
<feColorMatrix in="SourceAlpha" type="matrix" values="0 0 0 0 0 0 0 0 0 0 0 0 0 0 0 0 0 0 127 0" result="hardAlpha"/>
<feOffset dy="4"/>
<feGaussianBlur stdDeviation="2"/>
<feComposite in2="hardAlpha" operator="arithmetic" k2="-1" k3="1"/>
<feColorMatrix type="matrix" values="0 0 0 0 0 0 0 0 0 0 0 0 0 0 0 0 0 0 0.25 0"/>
<feBlend mode="normal" in2="shape" result="effect1_innerShadow_913_1305"/>
</filter>
<filter id="filter8_i_913_1305" x="302.536" y="0" width="13.7036" height="16" filterUnits="userSpaceOnUse" color-interpolation-filters="sRGB">
<feFlood flood-opacity="0" result="BackgroundImageFix"/>
<feBlend mode="normal" in="SourceGraphic" in2="BackgroundImageFix" result="shape"/>
<feColorMatrix in="SourceAlpha" type="matrix" values="0 0 0 0 0 0 0 0 0 0 0 0 0 0 0 0 0 0 127 0" result="hardAlpha"/>
<feOffset dy="4"/>
<feGaussianBlur stdDeviation="2"/>
<feComposite in2="hardAlpha" operator="arithmetic" k2="-1" k3="1"/>
<feColorMatrix type="matrix" values="0 0 0 0 0 0 0 0 0 0 0 0 0 0 0 0 0 0 0.25 0"/>
<feBlend mode="normal" in2="shape" result="effect1_innerShadow_913_1305"/>
</filter>
<filter id="filter9_i_913_1305" x="338.376" y="0" width="13.7036" height="16" filterUnits="userSpaceOnUse" color-interpolation-filters="sRGB">
<feFlood flood-opacity="0" result="BackgroundImageFix"/>
<feBlend mode="normal" in="SourceGraphic" in2="BackgroundImageFix" result="shape"/>
<feColorMatrix in="SourceAlpha" type="matrix" values="0 0 0 0 0 0 0 0 0 0 0 0 0 0 0 0 0 0 127 0" result="hardAlpha"/>
<feOffset dy="4"/>
<feGaussianBlur stdDeviation="2"/>
<feComposite in2="hardAlpha" operator="arithmetic" k2="-1" k3="1"/>
<feColorMatrix type="matrix" values="0 0 0 0 0 0 0 0 0 0 0 0 0 0 0 0 0 0 0.25 0"/>
<feBlend mode="normal" in2="shape" result="effect1_innerShadow_913_1305"/>
</filter>
</defs>
</svg>
