<svg width="201" height="63" viewBox="0 0 201 63" fill="none" xmlns="http://www.w3.org/2000/svg">
<rect width="201" height="62.7529" rx="31.3765" fill="#D764D7"/>
<path d="M48.7187 30.0469C48.7187 28.2734 48.9804 26.6953 49.5038 25.3125C50.0351 23.9219 50.8632 22.8242 51.9882 22.0195C53.1132 21.2148 54.5351 20.8125 56.2538 20.8125C57.4257 20.8125 58.664 20.9648 59.9687 21.2695C60.3905 21.5195 60.7577 21.7812 61.0702 22.0547C61.3905 22.3203 61.6952 22.6445 61.9843 23.0273C61.9843 23.582 61.9101 24.3203 61.7616 25.2422C61.6132 26.1562 61.4257 27.0117 61.1991 27.8086C60.9804 28.5977 60.7694 29.1094 60.5663 29.3438C60.3632 29.4453 60.1913 29.5156 60.0507 29.5547C59.9101 29.5859 59.6913 29.6016 59.3944 29.6016C59.0273 29.6016 58.6835 29.5742 58.3632 29.5195C58.0429 29.4648 57.8007 29.3906 57.6366 29.2969L57.2265 25.3477C56.6718 25.1914 55.9023 25.1133 54.9179 25.1133C54.6523 25.1133 54.4569 25.1172 54.3319 25.125C53.996 26.2031 53.8085 27.6523 53.7694 29.4727C53.7616 29.6914 53.7577 30.0234 53.7577 30.4688C53.7577 31.5156 53.8124 32.3633 53.9218 33.0117C54.0233 33.6211 54.1327 34.0781 54.2499 34.3828C54.3671 34.6875 54.5702 34.9219 54.8593 35.0859C55.1562 35.25 55.5976 35.332 56.1835 35.332C56.9726 35.332 57.6991 35.2188 58.3632 34.9922C59.0351 34.7578 59.7655 34.418 60.5546 33.9727C60.8515 34.293 61.078 34.5547 61.2343 34.7578C61.3983 34.9609 61.5468 35.2109 61.6796 35.5078C61.8202 35.8047 61.914 36.1445 61.9608 36.5273C61.8358 36.7852 61.5038 37.1289 60.9648 37.5586C60.4257 37.9883 59.7187 38.375 58.8437 38.7188C57.9687 39.0625 56.9882 39.2344 55.9023 39.2344C53.3632 39.2344 51.5312 38.4414 50.4062 36.8555C49.2812 35.2695 48.7187 33 48.7187 30.0469ZM63.4513 31.3828C63.4513 27.7578 63.5216 25.2656 63.6622 23.9062L62.338 23.6719C62.1505 22.9531 62.0568 22.1797 62.0568 21.3516C62.1739 21.2031 62.3927 21.0195 62.713 20.8008C63.0333 20.582 63.4044 20.3906 63.8263 20.2266C64.256 20.0625 64.6818 19.9805 65.1036 19.9805C66.0646 19.9805 66.7794 20.2266 67.2482 20.7188C67.7169 21.2109 67.9513 21.9648 67.9513 22.9805C67.9513 23.4258 67.9122 24.1445 67.8341 25.1367C67.756 26.1211 67.6427 27.1797 67.4943 28.3125C67.3458 29.4375 67.1739 30.4414 66.9786 31.3242C66.9786 31.3711 67.006 31.4141 67.0607 31.4531C67.1153 31.4922 67.1739 31.5117 67.2364 31.5117C67.3068 31.5117 67.3536 31.4844 67.3771 31.4297C67.6896 30.1875 68.0021 29.1484 68.3146 28.3125C68.6271 27.4766 69.0997 26.7344 69.7325 26.0859C70.3653 25.4375 71.1857 25.1133 72.1935 25.1133C73.4435 25.1133 74.3419 25.4961 74.8888 26.2617C75.4357 27.0195 75.7091 27.9766 75.7091 29.1328C75.7091 30.1641 75.588 31.1602 75.3458 32.1211C75.1036 33.0742 74.8028 34.0703 74.4435 35.1094C74.4591 35.0703 74.4044 35.2227 74.2794 35.5664L74.3028 35.5898L76.0372 34.8633C76.6466 35.3867 77.0021 36.082 77.1036 36.9492C77.1036 37.0039 76.9278 37.2305 76.5763 37.6289C76.2247 38.0195 75.7599 38.3867 75.1818 38.7305C74.6114 39.0664 73.9552 39.2344 73.213 39.2344C72.4708 39.2344 71.8653 39.0352 71.3966 38.6367C70.9278 38.2383 70.6935 37.5586 70.6935 36.5977C70.6935 35.832 70.7247 34.8086 70.7872 33.5273C70.8497 32.2461 70.9122 31.2148 70.9747 30.4336C70.7716 30.2148 70.5216 30.0977 70.2247 30.082C69.9513 30.4336 69.5489 31.1367 69.0177 32.1914C68.4864 33.2461 68.1114 34.0352 67.8927 34.5586C67.8771 34.668 67.8693 34.7734 67.8693 34.875C67.8693 35.2656 67.9278 35.793 68.045 36.457C68.1622 37.1133 68.3068 37.7266 68.4786 38.2969C68.338 38.5625 68.0489 38.7852 67.6114 38.9648C67.1739 39.1445 66.6349 39.2344 65.9943 39.2344C65.4161 39.2344 64.9513 39.1875 64.5997 39.0938C64.256 39 64.0138 38.9023 63.8732 38.8008C63.7325 38.6914 63.6622 38.625 63.6622 38.6016C63.6544 38.5312 63.6349 38.3477 63.6036 38.0508C63.5724 37.7461 63.5411 37.3242 63.5099 36.7852C63.4786 36.2383 63.463 35.6172 63.463 34.9219L63.4513 31.3828ZM77.5628 32.1914C77.5628 30.8398 77.7894 29.6328 78.2425 28.5703C78.6956 27.5078 79.3948 26.668 80.3402 26.0508C81.2933 25.4258 82.4808 25.1133 83.9027 25.1133C84.6448 25.1133 85.387 25.2031 86.1292 25.3828C86.8714 25.5547 87.5003 25.8438 88.0159 26.25C88.4925 26.6328 88.8363 27.1406 89.0472 27.7734C89.2659 28.3984 89.3753 29.0938 89.3753 29.8594C89.3753 30.3672 89.3323 30.8867 89.2464 31.418C89.1527 31.5742 88.9691 31.7812 88.6956 32.0391C88.4222 32.2891 88.1019 32.5352 87.7347 32.7773C87.3675 33.0195 87.012 33.207 86.6683 33.3398C86.3402 33.3633 86.0003 33.375 85.6488 33.375C85.0316 33.375 84.4066 33.3477 83.7738 33.293C83.1409 33.2383 82.5863 33.1758 82.1097 33.1055C82.1722 33.7695 82.3753 34.3477 82.7191 34.8398C83.0628 35.332 83.6097 35.5781 84.3597 35.5781C84.43 35.5781 84.5433 35.5703 84.6995 35.5547C85.1761 35.5078 85.7308 35.3828 86.3636 35.1797C87.0042 34.9688 87.6409 34.7266 88.2738 34.4531C88.5706 34.75 88.7894 35.0469 88.93 35.3438C89.0706 35.6406 89.1683 36.0664 89.223 36.6211C88.9808 36.9023 88.5863 37.2461 88.0394 37.6523C87.5003 38.0586 86.8402 38.4258 86.0589 38.7539C85.2777 39.0742 84.4613 39.2344 83.6097 39.2344C82.3284 39.2344 81.2308 38.9258 80.3167 38.3086C79.4105 37.6836 78.723 36.8398 78.2542 35.7773C77.7933 34.707 77.5628 33.5117 77.5628 32.1914ZM85.1097 29.4961C85.0003 29.3789 84.8167 29.2891 84.5589 29.2266C84.3011 29.1562 84.0316 29.1211 83.7503 29.1211C83.5238 29.1211 83.2933 29.1406 83.0589 29.1797C82.8323 29.2188 82.6956 29.2617 82.6488 29.3086C82.3831 29.832 82.2152 30.4258 82.1448 31.0898L85.2738 30.7852L85.1097 29.4961ZM90.4439 32.1914C90.4439 30.8398 90.6704 29.6328 91.1236 28.5703C91.5767 27.5078 92.2759 26.668 93.2212 26.0508C94.1743 25.4258 95.3618 25.1133 96.7837 25.1133C97.2681 25.1133 97.8228 25.1445 98.4478 25.207C99.0806 25.2617 99.6861 25.3477 100.264 25.4648L100.499 25.6289C100.85 25.8711 101.108 26.0664 101.272 26.2148C101.444 26.3555 101.624 26.5547 101.811 26.8125C101.811 27.2344 101.752 27.8164 101.635 28.5586C101.526 29.293 101.385 29.9766 101.213 30.6094C101.042 31.2422 100.877 31.6484 100.721 31.8281C100.463 31.9609 100.045 32.0273 99.4673 32.0273C99.1861 32.0273 98.9204 32.0078 98.6704 31.9688C98.4283 31.9219 98.2447 31.8633 98.1197 31.793L97.8736 29.625C97.7564 29.4922 97.4868 29.3867 97.065 29.3086C96.6509 29.2227 96.2681 29.1797 95.9165 29.1797C95.8072 29.1797 95.7056 29.1875 95.6118 29.2031C95.4322 29.5703 95.2954 30.0391 95.2017 30.6094C95.1079 31.1797 95.0611 31.7617 95.0611 32.3555C95.0611 33.2148 95.2017 33.9453 95.4829 34.5469C95.7642 35.1406 96.3384 35.4375 97.2056 35.4375C97.6353 35.4375 98.0572 35.3672 98.4712 35.2266C98.8931 35.0859 99.4243 34.8711 100.065 34.582C100.331 34.457 100.53 34.3672 100.663 34.3125C100.975 34.625 101.221 34.9531 101.401 35.2969C101.581 35.6406 101.698 36.082 101.752 36.6211C101.252 37.207 100.549 37.7891 99.6431 38.3672C98.7447 38.9453 97.6939 39.2344 96.4908 39.2344C95.2095 39.2344 94.1118 38.9258 93.1978 38.3086C92.2915 37.6836 91.604 36.8398 91.1353 35.7773C90.6743 34.707 90.4439 33.5117 90.4439 32.1914ZM103.489 31.4297C103.489 27.7734 103.559 25.2656 103.7 23.9062L102.376 23.6719C102.188 22.9531 102.094 22.1797 102.094 21.3516C102.212 21.2031 102.43 21.0195 102.751 20.8008C103.071 20.582 103.442 20.3906 103.864 20.2266C104.294 20.0625 104.719 19.9805 105.141 19.9805C106.188 19.9805 107.001 20.207 107.579 20.6602C108.165 21.1133 108.458 21.8867 108.458 22.9805C108.458 23.5273 108.419 24.3672 108.341 25.5C108.262 26.625 108.118 27.9922 107.907 29.6016C107.696 31.2109 107.415 32.8906 107.063 34.6406L107.262 34.7578C107.88 33.9062 108.473 32.9688 109.044 31.9453C109.614 30.9141 110.067 29.957 110.403 29.0742L109.395 28.8281C109.301 28.2969 109.255 27.668 109.255 26.9414V26.5195C109.551 26.1445 109.958 25.8164 110.473 25.5352C110.997 25.2539 111.645 25.1133 112.419 25.1133C112.973 25.1133 113.454 25.2188 113.86 25.4297C114.266 25.6328 114.579 25.918 114.798 26.2852C115.016 26.6523 115.126 27.0742 115.126 27.5508C115.126 27.9102 115.071 28.25 114.962 28.5703C114.852 28.8828 114.688 29.2148 114.469 29.5664C113.907 30.457 112.926 31.7227 111.528 33.3633C111.997 34.0195 112.454 34.5898 112.899 35.0742C113.071 34.9883 113.231 34.875 113.38 34.7344C113.536 34.5938 113.735 34.3906 113.977 34.125L114.235 33.8555L115.676 34.9453C115.622 36.3359 115.321 37.3984 114.774 38.1328C114.235 38.8594 113.52 39.2227 112.63 39.2227C111.653 39.2227 110.919 38.9258 110.426 38.332C109.934 37.7383 109.575 36.8984 109.348 35.8125C108.489 36.7422 107.731 37.5234 107.075 38.1562C106.426 38.7812 106.001 39.1406 105.798 39.2344C105.368 39.2344 104.958 39.1836 104.567 39.082C104.176 38.9805 103.887 38.8203 103.7 38.6016C103.614 37.4922 103.555 36.3945 103.524 35.3086C103.501 34.2148 103.489 32.9219 103.489 31.4297ZM116.487 32.0742C116.487 30.6602 116.714 29.4336 117.167 28.3945C117.62 27.3555 118.315 26.5508 119.253 25.9805C120.19 25.4023 121.366 25.1133 122.78 25.1133C124.343 25.1133 125.569 25.4062 126.46 25.9922C127.351 26.5703 127.972 27.375 128.323 28.4062C128.683 29.4375 128.862 30.6992 128.862 32.1914C128.862 33.543 128.624 34.75 128.147 35.8125C127.679 36.8672 126.968 37.7031 126.015 38.3203C125.069 38.9297 123.909 39.2344 122.534 39.2344C120.409 39.2344 118.87 38.582 117.917 37.2773C116.964 35.9648 116.487 34.2305 116.487 32.0742ZM123.015 35.8008C123.413 35.8008 123.655 35.7695 123.741 35.707C123.921 35.3945 124.058 34.9531 124.151 34.3828C124.245 33.8125 124.292 33.1953 124.292 32.5312C124.292 31.9219 124.253 31.3516 124.175 30.8203C124.097 30.2812 123.987 29.8594 123.847 29.5547C123.761 29.4531 123.589 29.3789 123.331 29.332C123.073 29.2773 122.792 29.25 122.487 29.25C122.089 29.25 121.815 29.293 121.667 29.3789C121.276 30.0508 121.081 30.9844 121.081 32.1797C121.081 32.7422 121.124 33.3164 121.21 33.9023C121.296 34.4883 121.405 35.0195 121.538 35.4961C121.632 35.5977 121.823 35.6758 122.112 35.7305C122.401 35.7773 122.702 35.8008 123.015 35.8008ZM129.919 28.8984C129.786 28.3281 129.7 27.9102 129.661 27.6445C129.622 27.3789 129.603 26.9766 129.603 26.4375C130.064 26 130.56 25.6719 131.091 25.4531C131.622 25.2266 132.22 25.1133 132.884 25.1133C134.9 25.1133 135.907 26.125 135.907 28.1484C135.907 28.6875 135.857 29.3125 135.755 30.0234C135.661 30.7344 135.525 31.6289 135.345 32.707C135.321 32.8477 135.259 33.2266 135.157 33.8438C135.056 34.4609 134.986 34.9766 134.946 35.3906C135.079 35.5312 135.243 35.6289 135.439 35.6836C135.532 35.6836 135.747 35.4922 136.083 35.1094C136.427 34.7188 136.794 34.2461 137.185 33.6914C137.575 33.1367 137.896 32.625 138.146 32.1562C138.208 31.0391 138.294 30.0117 138.403 29.0742L137.173 28.8281C137.071 28.4375 137.001 28.0938 136.962 27.7969C136.923 27.5 136.903 27.1836 136.903 26.8477L136.915 26.5195C137.196 26.1602 137.618 25.8359 138.181 25.5469C138.743 25.2578 139.388 25.1133 140.114 25.1133C142.13 25.1133 143.138 26.125 143.138 28.1484C143.138 28.9688 143.001 30.0508 142.728 31.3945C142.454 32.7305 142.134 34.082 141.767 35.4492L143.114 34.8633C143.341 35.1055 143.54 35.4023 143.712 35.7539C143.892 36.0977 144.005 36.4961 144.052 36.9492C143.943 37.1836 143.704 37.4844 143.337 37.8516C142.97 38.2109 142.521 38.5312 141.989 38.8125C141.458 39.0938 140.903 39.2344 140.325 39.2344C139.677 39.2344 139.177 39.043 138.825 38.6602C138.482 38.2695 138.31 37.7734 138.31 37.1719C138.31 37.0156 138.349 36.6953 138.427 36.2109C138.513 35.7266 138.583 35.3906 138.638 35.2031L138.31 35.0977C137.919 36.4648 137.38 37.4961 136.693 38.1914C136.013 38.8867 135.236 39.2344 134.361 39.2344C133.103 39.2344 132.216 38.8203 131.7 37.9922C131.185 37.1562 130.927 36.1211 130.927 34.8867C130.927 32.5664 131.005 30.6289 131.161 29.0742L129.919 28.8984ZM145.577 32.5312C145.577 31.2578 145.597 30.0977 145.636 29.0508L144.359 28.8281C144.257 28.4375 144.187 28.0938 144.148 27.7969C144.109 27.5 144.089 27.1836 144.089 26.8477L144.113 26.6133C144.136 26.5039 144.148 26.4141 144.148 26.3438L145.847 25.9688C145.886 25.4844 145.976 24.9375 146.117 24.3281C146.257 23.7188 146.406 23.2695 146.562 22.9805C146.812 22.793 147.113 22.6523 147.464 22.5586C147.816 22.4648 148.195 22.418 148.601 22.418C148.945 22.418 149.277 22.4531 149.597 22.5234C149.925 22.5859 150.21 22.6719 150.452 22.7812C150.476 23.0469 150.488 23.3516 150.488 23.6953C150.488 24.2578 150.46 24.8945 150.406 25.6055L152.468 25.2305C152.757 25.7305 152.902 26.2734 152.902 26.8594C152.902 27.2656 152.851 27.6328 152.749 27.9609C152.656 28.2891 152.523 28.6602 152.351 29.0742C151.835 29.1602 151.128 29.2148 150.23 29.2383C150.12 30.5117 149.878 32.3828 149.503 34.8516L149.445 35.25L149.468 35.2734L152.222 34.418C152.792 34.8945 153.14 35.6289 153.265 36.6211C153.265 36.6758 153.011 36.9336 152.503 37.3945C152.003 37.8477 151.374 38.2695 150.617 38.6602C149.859 39.043 149.035 39.2344 148.144 39.2344C146.589 39.2344 145.761 38.2852 145.66 36.3867C145.605 35.4258 145.577 34.1406 145.577 32.5312Z" fill="white"/>
</svg>
