<svg width="390" height="71" viewBox="0 0 390 71" fill="none" xmlns="http://www.w3.org/2000/svg">
<path d="M367.531 23.207V12.3226C367.53 11.1253 367.077 9.97738 366.271 9.13075C365.466 8.28411 364.374 7.80786 363.234 7.80645H357.06C356.884 7.27963 356.556 6.82317 356.123 6.49973C355.69 6.17628 355.172 6.00172 354.641 6H340.891C340.359 6.00172 339.841 6.17628 339.408 6.49973C338.975 6.82317 338.647 7.27963 338.471 7.80645H332.297C331.158 7.80786 330.066 8.28411 329.26 9.13075C328.454 9.97738 328.001 11.1253 328 12.3226V57.4839C328.001 58.6812 328.454 59.8291 329.26 60.6757C330.066 61.5223 331.158 61.9986 332.297 62H363.234C364.374 61.9986 365.466 61.5223 366.271 60.6757C367.077 59.8291 367.53 58.6812 367.531 57.4839V56.4991C368.731 56.285 369.821 55.6319 370.607 54.6551C371.394 53.6783 371.826 52.4408 371.828 51.1613V45.7419C371.828 45.6233 371.806 45.5058 371.763 45.3962C371.72 45.2866 371.656 45.1871 371.576 45.1032C371.497 45.0193 371.402 44.9528 371.298 44.9074C371.193 44.862 371.082 44.8387 370.969 44.8387H367.531V42.9865C369.879 42.7624 372.063 41.6235 373.653 39.7936C375.243 37.9637 376.125 35.575 376.125 33.0968C376.125 30.6185 375.243 28.2299 373.653 26.4C372.063 24.5701 369.879 23.4312 367.531 23.207ZM365.812 12.3226V23.207C364.928 23.2923 364.06 23.5092 363.234 23.8513V12.3226C363.234 12.204 363.212 12.0865 363.169 11.9769C363.126 11.8673 363.063 11.7677 362.983 11.6838C362.903 11.6 362.808 11.5334 362.704 11.488C362.6 11.4427 362.488 11.4193 362.375 11.4194H357.219V9.6129H363.234C363.918 9.61369 364.573 9.89942 365.057 10.4074C365.54 10.9154 365.812 11.6042 365.812 12.3226ZM341.75 44.8387C341.637 44.8387 341.525 44.862 341.421 44.9074C341.317 44.9528 341.222 45.0193 341.142 45.1032C341.062 45.1871 340.999 45.2866 340.956 45.3962C340.913 45.5058 340.891 45.6233 340.891 45.7419V51.1613C340.891 52.1195 340.528 53.0384 339.884 53.716C339.239 54.3935 338.365 54.7742 337.453 54.7742C336.541 54.7742 335.667 54.3935 335.022 53.716C334.378 53.0384 334.016 52.1195 334.016 51.1613V13.2258H338.312V14.129C338.313 14.8474 338.585 15.5362 339.068 16.0442C339.552 16.5522 340.207 16.8379 340.891 16.8387H354.641C355.324 16.8379 355.979 16.5522 356.463 16.0442C356.946 15.5362 357.218 14.8474 357.219 14.129V13.2258H361.516V24.7802C360.197 25.6803 359.113 26.9125 358.362 28.365C357.612 29.8174 357.219 31.444 357.219 33.0968C357.219 34.7496 357.612 36.3761 358.362 37.8286C359.113 39.281 360.197 40.5133 361.516 41.4133V44.8387H341.75ZM340.891 7.80645H354.641C354.868 7.80669 355.087 7.90193 355.248 8.07126C355.409 8.2406 355.5 8.4702 355.5 8.70968V14.129C355.5 14.3685 355.409 14.5981 355.248 14.7674C355.087 14.9368 354.868 15.032 354.641 15.0323H340.891C340.663 15.032 340.444 14.9368 340.283 14.7674C340.122 14.5981 340.031 14.3685 340.031 14.129V8.70968C340.031 8.4702 340.122 8.2406 340.283 8.07126C340.444 7.90193 340.663 7.80669 340.891 7.80645ZM363.234 60.1935H332.297C331.613 60.1928 330.958 59.907 330.475 59.399C329.991 58.891 329.719 58.2023 329.719 57.4839V12.3226C329.719 11.6042 329.991 10.9154 330.475 10.4074C330.958 9.89942 331.613 9.61369 332.297 9.6129H338.312V11.4194H333.156C333.043 11.4193 332.932 11.4427 332.827 11.488C332.723 11.5334 332.628 11.6 332.549 11.6838C332.469 11.7677 332.405 11.8673 332.362 11.9769C332.319 12.0865 332.297 12.204 332.297 12.3226V51.1613C332.298 52.5981 332.842 53.9756 333.809 54.9916C334.775 56.0076 336.086 56.5791 337.453 56.5806H365.812V57.4839C365.812 58.2023 365.54 58.891 365.057 59.399C364.573 59.907 363.918 60.1928 363.234 60.1935ZM370.109 51.1613C370.108 52.1192 369.746 53.0375 369.101 53.7149C368.457 54.3922 367.583 54.7732 366.672 54.7742H341.293C342.141 53.782 342.61 52.495 342.609 51.1613V46.6452H370.109V51.1613ZM363.234 44.8387V42.3422C364.06 42.6843 364.928 42.9012 365.812 42.9865V44.8387H363.234ZM366.672 41.2258C365.142 41.2258 363.647 40.749 362.375 39.8558C361.103 38.9626 360.112 37.693 359.526 36.2076C358.941 34.7222 358.788 33.0878 359.086 31.5109C359.385 29.934 360.121 28.4855 361.203 27.3487C362.285 26.2118 363.663 25.4376 365.163 25.1239C366.663 24.8103 368.218 24.9713 369.632 25.5865C371.045 26.2018 372.253 27.2437 373.103 28.5805C373.953 29.9173 374.406 31.489 374.406 33.0968C374.404 35.252 373.588 37.3182 372.138 38.8422C370.688 40.3661 368.722 41.2234 366.672 41.2258Z" fill="black"/>
<path d="M376.984 10.5161C375.795 10.5161 374.632 10.8869 373.642 11.5817C372.653 12.2764 371.882 13.2638 371.427 14.4191C370.971 15.5744 370.852 16.8457 371.084 18.0722C371.316 19.2986 371.889 20.4252 372.731 21.3094C373.572 22.1937 374.644 22.7958 375.811 23.0398C376.978 23.2837 378.187 23.1585 379.286 22.68C380.386 22.2015 381.325 21.3911 381.986 20.3513C382.647 19.3116 383 18.0892 383 16.8387C382.998 15.1624 382.364 13.5554 381.236 12.3701C380.108 11.1848 378.579 10.5181 376.984 10.5161ZM376.984 21.3548C376.135 21.3548 375.304 21.09 374.597 20.5937C373.891 20.0975 373.34 19.3922 373.015 18.5669C372.689 17.7417 372.604 16.8337 372.77 15.9576C372.936 15.0816 373.345 14.2769 373.946 13.6453C374.547 13.0137 375.313 12.5836 376.146 12.4093C376.98 12.2351 377.844 12.3245 378.629 12.6663C379.414 13.0081 380.085 13.587 380.557 14.3297C381.029 15.0723 381.281 15.9455 381.281 16.8387C381.28 18.036 380.827 19.1839 380.021 20.0305C379.216 20.8772 378.124 21.3534 376.984 21.3548Z" fill="black"/>
<path d="M366.672 30.387H368.391C368.619 30.387 368.837 30.2919 368.998 30.1225C369.159 29.9531 369.25 29.7234 369.25 29.4838C369.25 29.2443 369.159 29.0145 368.998 28.8451C368.837 28.6758 368.619 28.5806 368.391 28.5806H367.531C367.531 28.341 367.441 28.1113 367.28 27.9419C367.118 27.7725 366.9 27.6774 366.672 27.6774C366.444 27.6774 366.225 27.7725 366.064 27.9419C365.903 28.1113 365.813 28.341 365.813 28.5806V28.747C365.239 28.9588 364.756 29.3771 364.448 29.9277C364.14 30.4783 364.028 31.1257 364.131 31.755C364.234 32.3844 364.546 32.9551 365.011 33.366C365.476 33.777 366.064 34.0015 366.672 33.9999C366.9 33.9999 367.118 34.0951 367.28 34.2645C367.441 34.4339 367.531 34.6636 367.531 34.9032C367.531 35.1427 367.441 35.3725 367.28 35.5419C367.118 35.7112 366.9 35.8064 366.672 35.8064H364.953C364.725 35.8064 364.507 35.9016 364.345 36.0709C364.184 36.2403 364.094 36.4701 364.094 36.7096C364.094 36.9492 364.184 37.1789 364.345 37.3483C364.507 37.5177 364.725 37.6129 364.953 37.6129H365.813C365.813 37.8524 365.903 38.0821 366.064 38.2515C366.225 38.4209 366.444 38.5161 366.672 38.5161C366.9 38.5161 367.118 38.4209 367.28 38.2515C367.441 38.0821 367.531 37.8524 367.531 37.6129V37.4464C368.104 37.2346 368.588 36.8163 368.896 36.2657C369.203 35.7151 369.316 35.0678 369.213 34.4384C369.11 33.809 368.798 33.2383 368.333 32.8274C367.868 32.4165 367.279 32.1919 366.672 32.1935C366.444 32.1935 366.225 32.0983 366.064 31.9289C365.903 31.7596 365.813 31.5298 365.813 31.2903C365.813 31.0507 365.903 30.821 366.064 30.6516C366.225 30.4822 366.444 30.387 366.672 30.387Z" fill="black"/>
<path d="M376.984 14.129C376.872 14.129 376.76 14.1523 376.655 14.1977C376.551 14.2431 376.456 14.3096 376.377 14.3935C376.297 14.4774 376.234 14.577 376.19 14.6866C376.147 14.7962 376.125 14.9136 376.125 15.0323V18.6452C376.125 18.8847 376.216 19.1144 376.377 19.2838C376.538 19.4532 376.756 19.5484 376.984 19.5484C377.212 19.5484 377.431 19.4532 377.592 19.2838C377.753 19.1144 377.844 18.8847 377.844 18.6452V15.0323C377.844 14.9136 377.822 14.7962 377.778 14.6866C377.735 14.577 377.672 14.4774 377.592 14.3935C377.512 14.3096 377.418 14.2431 377.313 14.1977C377.209 14.1523 377.097 14.129 376.984 14.129Z" fill="black"/>
<path d="M337.453 24.9677H358.078C358.191 24.9678 358.303 24.9444 358.407 24.899C358.511 24.8536 358.606 24.7871 358.686 24.7032C358.766 24.6194 358.829 24.5198 358.872 24.4102C358.915 24.3006 358.938 24.1831 358.938 24.0645V19.5484C358.938 19.4297 358.915 19.3123 358.872 19.2027C358.829 19.0931 358.766 18.9935 358.686 18.9096C358.606 18.8257 358.511 18.7592 358.407 18.7138C358.303 18.6685 358.191 18.6451 358.078 18.6451H337.453C337.34 18.6451 337.228 18.6685 337.124 18.7138C337.02 18.7592 336.925 18.8257 336.845 18.9096C336.766 18.9935 336.702 19.0931 336.659 19.2027C336.616 19.3123 336.594 19.4297 336.594 19.5484V24.0645C336.594 24.1831 336.616 24.3006 336.659 24.4102C336.702 24.5198 336.766 24.6194 336.845 24.7032C336.925 24.7871 337.02 24.8536 337.124 24.899C337.228 24.9444 337.34 24.9678 337.453 24.9677ZM338.312 20.4516H357.219V23.1613H338.312V20.4516Z" fill="black"/>
<path d="M337.453 28.5806H340.031C340.259 28.5806 340.478 28.4855 340.639 28.3161C340.8 28.1467 340.891 27.9169 340.891 27.6774C340.891 27.4378 340.8 27.2081 340.639 27.0387C340.478 26.8693 340.259 26.7742 340.031 26.7742H337.453C337.225 26.7742 337.007 26.8693 336.845 27.0387C336.684 27.2081 336.594 27.4378 336.594 27.6774C336.594 27.9169 336.684 28.1467 336.845 28.3161C337.007 28.4855 337.225 28.5806 337.453 28.5806Z" fill="black"/>
<path d="M355.5 26.7742H343.469C343.241 26.7742 343.022 26.8693 342.861 27.0387C342.7 27.2081 342.609 27.4378 342.609 27.6774C342.609 27.9169 342.7 28.1467 342.861 28.3161C343.022 28.4855 343.241 28.5806 343.469 28.5806H355.5C355.728 28.5806 355.947 28.4855 356.108 28.3161C356.269 28.1467 356.359 27.9169 356.359 27.6774C356.359 27.4378 356.269 27.2081 356.108 27.0387C355.947 26.8693 355.728 26.7742 355.5 26.7742Z" fill="black"/>
<path d="M337.453 33.0967H340.031C340.259 33.0967 340.478 33.0016 340.639 32.8322C340.8 32.6628 340.891 32.4331 340.891 32.1935C340.891 31.954 340.8 31.7242 340.639 31.5548C340.478 31.3854 340.259 31.2903 340.031 31.2903H337.453C337.225 31.2903 337.007 31.3854 336.845 31.5548C336.684 31.7242 336.594 31.954 336.594 32.1935C336.594 32.4331 336.684 32.6628 336.845 32.8322C337.007 33.0016 337.225 33.0967 337.453 33.0967Z" fill="black"/>
<path d="M355.5 31.2903H343.469C343.241 31.2903 343.022 31.3854 342.861 31.5548C342.7 31.7242 342.609 31.954 342.609 32.1935C342.609 32.4331 342.7 32.6628 342.861 32.8322C343.022 33.0016 343.241 33.0967 343.469 33.0967H355.5C355.728 33.0967 355.947 33.0016 356.108 32.8322C356.269 32.6628 356.359 32.4331 356.359 32.1935C356.359 31.954 356.269 31.7242 356.108 31.5548C355.947 31.3854 355.728 31.2903 355.5 31.2903Z" fill="black"/>
<path d="M337.453 37.6128H340.031C340.259 37.6128 340.478 37.5177 340.639 37.3483C340.8 37.1789 340.891 36.9492 340.891 36.7096C340.891 36.4701 340.8 36.2403 340.639 36.0709C340.478 35.9016 340.259 35.8064 340.031 35.8064H337.453C337.225 35.8064 337.007 35.9016 336.845 36.0709C336.684 36.2403 336.594 36.4701 336.594 36.7096C336.594 36.9492 336.684 37.1789 336.845 37.3483C337.007 37.5177 337.225 37.6128 337.453 37.6128Z" fill="black"/>
<path d="M355.5 35.8064H343.469C343.241 35.8064 343.022 35.9016 342.861 36.0709C342.7 36.2403 342.609 36.4701 342.609 36.7096C342.609 36.9492 342.7 37.1789 342.861 37.3483C343.022 37.5177 343.241 37.6128 343.469 37.6128H355.5C355.728 37.6128 355.947 37.5177 356.108 37.3483C356.269 37.1789 356.359 36.9492 356.359 36.7096C356.359 36.4701 356.269 36.2403 356.108 36.0709C355.947 35.9016 355.728 35.8064 355.5 35.8064Z" fill="black"/>
<path d="M349.484 40.3226H337.453C337.225 40.3226 337.007 40.4178 336.845 40.5872C336.684 40.7566 336.594 40.9863 336.594 41.2259C336.594 41.4654 336.684 41.6951 336.845 41.8645C337.007 42.0339 337.225 42.1291 337.453 42.1291H349.484C349.712 42.1291 349.931 42.0339 350.092 41.8645C350.253 41.6951 350.344 41.4654 350.344 41.2259C350.344 40.9863 350.253 40.7566 350.092 40.5872C349.931 40.4178 349.712 40.3226 349.484 40.3226Z" fill="black"/>
<line x1="305.5" y1="1" x2="305.5" y2="71" stroke="black"/>
<line x1="302.5" y1="1" x2="302.5" y2="71" stroke="black"/>
<line y1="66.5" x2="390" y2="66.5" stroke="black"/>
<line y1="70.5" x2="390" y2="70.5" stroke="black"/>
<line y1="3.5" x2="390" y2="3.5" stroke="black"/>
<line y1="0.5" x2="390" y2="0.5" stroke="black"/>
</svg>
