<svg width="122" height="33" viewBox="0 0 122 33" fill="none" xmlns="http://www.w3.org/2000/svg">
<g style="mix-blend-mode:plus-darker">
<rect width="122" height="33" rx="16.5" fill="#D764D7"/>
</g>
<path d="M27.3421 16.0312C27.3421 14.849 27.5165 13.7969 27.8655 12.875C28.2197 11.9479 28.7718 11.2161 29.5218 10.6797C30.2718 10.1432 31.2197 9.875 32.3655 9.875C33.1468 9.875 33.9723 9.97656 34.8421 10.1797C35.1233 10.3464 35.3681 10.5208 35.5764 10.7031C35.79 10.8802 35.9931 11.0964 36.1858 11.3516C36.1858 11.7214 36.1363 12.2135 36.0374 12.8281C35.9384 13.4375 35.8134 14.0078 35.6624 14.5391C35.5165 15.0651 35.3759 15.4062 35.2405 15.5625C35.1051 15.6302 34.9905 15.6771 34.8968 15.7031C34.803 15.724 34.6572 15.7344 34.4593 15.7344C34.2145 15.7344 33.9853 15.7161 33.7718 15.6797C33.5582 15.6432 33.3968 15.5938 33.2874 15.5312L33.0139 12.8984C32.6441 12.7943 32.1311 12.7422 31.4749 12.7422C31.2978 12.7422 31.1676 12.7448 31.0843 12.75C30.8603 13.4688 30.7353 14.4349 30.7093 15.6484C30.704 15.7943 30.7014 16.0156 30.7014 16.3125C30.7014 17.0104 30.7379 17.5755 30.8108 18.0078C30.8785 18.4141 30.9514 18.7188 31.0296 18.9219C31.1077 19.125 31.2431 19.2812 31.4358 19.3906C31.6337 19.5 31.928 19.5547 32.3186 19.5547C32.8447 19.5547 33.329 19.4792 33.7718 19.3281C34.2197 19.1719 34.7066 18.9453 35.2327 18.6484C35.4306 18.862 35.5816 19.0365 35.6858 19.1719C35.7952 19.3073 35.8941 19.474 35.9827 19.6719C36.0764 19.8698 36.1389 20.0964 36.1702 20.3516C36.0869 20.5234 35.8655 20.7526 35.5061 21.0391C35.1468 21.3255 34.6754 21.5833 34.0921 21.8125C33.5087 22.0417 32.8551 22.1562 32.1311 22.1562C30.4384 22.1562 29.2171 21.6276 28.4671 20.5703C27.7171 19.513 27.3421 18 27.3421 16.0312ZM37.0278 16.9219C37.0278 14.5052 37.0747 12.8438 37.1684 11.9375L36.2856 11.7812C36.1606 11.3021 36.0981 10.7865 36.0981 10.2344C36.1763 10.1354 36.3221 10.013 36.5356 9.86719C36.7492 9.72135 36.9966 9.59375 37.2778 9.48438C37.5643 9.375 37.8481 9.32031 38.1294 9.32031C38.77 9.32031 39.2466 9.48438 39.5591 9.8125C39.8716 10.1406 40.0278 10.6432 40.0278 11.3203C40.0278 11.6172 40.0018 12.0964 39.9497 12.7578C39.8976 13.4141 39.8221 14.1198 39.7231 14.875C39.6242 15.625 39.5096 16.2943 39.3794 16.8828C39.3794 16.9141 39.3976 16.9427 39.4341 16.9688C39.4705 16.9948 39.5096 17.0078 39.5513 17.0078C39.5981 17.0078 39.6294 16.9896 39.645 16.9531C39.8533 16.125 40.0617 15.4323 40.27 14.875C40.4783 14.3177 40.7934 13.8229 41.2153 13.3906C41.6372 12.9583 42.1841 12.7422 42.8559 12.7422C43.6893 12.7422 44.2882 12.9974 44.6528 13.5078C45.0174 14.013 45.1997 14.651 45.1997 15.4219C45.1997 16.1094 45.119 16.7734 44.9575 17.4141C44.796 18.0495 44.5955 18.7135 44.3559 19.4062C44.3664 19.3802 44.3299 19.4818 44.2466 19.7109L44.2622 19.7266L45.4184 19.2422C45.8247 19.5911 46.0617 20.0547 46.1294 20.6328C46.1294 20.6693 46.0122 20.8203 45.7778 21.0859C45.5434 21.3464 45.2335 21.5911 44.8481 21.8203C44.4679 22.0443 44.0304 22.1562 43.5356 22.1562C43.0408 22.1562 42.6372 22.0234 42.3247 21.7578C42.0122 21.4922 41.8559 21.0391 41.8559 20.3984C41.8559 19.888 41.8768 19.2057 41.9184 18.3516C41.9601 17.4974 42.0018 16.8099 42.0434 16.2891C41.908 16.1432 41.7414 16.0651 41.5434 16.0547C41.3611 16.2891 41.0929 16.7578 40.7388 17.4609C40.3846 18.1641 40.1346 18.6901 39.9888 19.0391C39.9783 19.112 39.9731 19.1823 39.9731 19.25C39.9731 19.5104 40.0122 19.862 40.0903 20.3047C40.1684 20.7422 40.2648 21.151 40.3794 21.5312C40.2856 21.7083 40.0929 21.8568 39.8013 21.9766C39.5096 22.0964 39.1502 22.1562 38.7231 22.1562C38.3377 22.1562 38.0278 22.125 37.7934 22.0625C37.5643 22 37.4028 21.9349 37.3091 21.8672C37.2153 21.7943 37.1684 21.75 37.1684 21.7344C37.1632 21.6875 37.1502 21.5651 37.1294 21.3672C37.1085 21.1641 37.0877 20.8828 37.0669 20.5234C37.046 20.1589 37.0356 19.7448 37.0356 19.2812L37.0278 16.9219ZM46.2995 17.4609C46.2995 16.5599 46.4505 15.7552 46.7526 15.0469C47.0547 14.3385 47.5209 13.7786 48.1511 13.3672C48.7865 12.9505 49.5781 12.7422 50.5261 12.7422C51.0209 12.7422 51.5156 12.8021 52.0104 12.9219C52.5052 13.0365 52.9245 13.2292 53.2683 13.5C53.586 13.7552 53.8151 14.0938 53.9558 14.5156C54.1016 14.9323 54.1745 15.3958 54.1745 15.9062C54.1745 16.2448 54.1459 16.5911 54.0886 16.9453C54.0261 17.0495 53.9037 17.1875 53.7214 17.3594C53.5391 17.526 53.3255 17.6901 53.0808 17.8516C52.836 18.013 52.599 18.138 52.3698 18.2266C52.1511 18.2422 51.9245 18.25 51.6901 18.25C51.2787 18.25 50.862 18.2318 50.4401 18.1953C50.0183 18.1589 49.6485 18.1172 49.3308 18.0703C49.3724 18.513 49.5078 18.8984 49.737 19.2266C49.9662 19.5547 50.3308 19.7188 50.8308 19.7188C50.8776 19.7188 50.9531 19.7135 51.0573 19.7031C51.375 19.6719 51.7448 19.5885 52.1667 19.4531C52.5938 19.3125 53.0183 19.151 53.4401 18.9688C53.638 19.1667 53.7839 19.3646 53.8776 19.5625C53.9714 19.7604 54.0365 20.0443 54.0729 20.4141C53.9115 20.6016 53.6485 20.8307 53.2839 21.1016C52.9245 21.3724 52.4844 21.6172 51.9636 21.8359C51.4427 22.0495 50.8985 22.1562 50.3308 22.1562C49.4766 22.1562 48.7448 21.9505 48.1354 21.5391C47.5313 21.1224 47.0729 20.5599 46.7604 19.8516C46.4531 19.138 46.2995 18.3411 46.2995 17.4609ZM51.3308 15.6641C51.2578 15.5859 51.1354 15.526 50.9636 15.4844C50.7917 15.4375 50.612 15.4141 50.4245 15.4141C50.2735 15.4141 50.1198 15.4271 49.9636 15.4531C49.8125 15.4792 49.7214 15.5078 49.6901 15.5391C49.513 15.888 49.4011 16.2839 49.3542 16.7266L51.4401 16.5234L51.3308 15.6641ZM54.7509 17.4609C54.7509 16.5599 54.9019 15.7552 55.204 15.0469C55.5061 14.3385 55.9722 13.7786 56.6024 13.3672C57.2379 12.9505 58.0295 12.7422 58.9774 12.7422C59.3004 12.7422 59.6701 12.763 60.0868 12.8047C60.5087 12.8411 60.9123 12.8984 61.2978 12.9766L61.454 13.0859C61.6884 13.2474 61.8603 13.3776 61.9696 13.4766C62.0842 13.5703 62.204 13.7031 62.329 13.875C62.329 14.1562 62.2899 14.5443 62.2118 15.0391C62.1389 15.5286 62.0451 15.9844 61.9306 16.4062C61.816 16.8281 61.7066 17.099 61.6024 17.2188C61.4306 17.3073 61.1519 17.3516 60.7665 17.3516C60.579 17.3516 60.4019 17.3385 60.2353 17.3125C60.0738 17.2812 59.9514 17.2422 59.8681 17.1953L59.704 15.75C59.6259 15.6615 59.4462 15.5911 59.1649 15.5391C58.8889 15.4818 58.6337 15.4531 58.3993 15.4531C58.3264 15.4531 58.2587 15.4583 58.1962 15.4688C58.0764 15.7135 57.9853 16.026 57.9228 16.4062C57.8603 16.7865 57.829 17.1745 57.829 17.5703C57.829 18.1432 57.9228 18.6302 58.1103 19.0312C58.2978 19.4271 58.6806 19.625 59.2587 19.625C59.5451 19.625 59.8264 19.5781 60.1024 19.4844C60.3837 19.3906 60.7379 19.2474 61.1649 19.0547C61.342 18.9714 61.4748 18.9115 61.5634 18.875C61.7717 19.0833 61.9358 19.3021 62.0556 19.5312C62.1754 19.7604 62.2535 20.0547 62.2899 20.4141C61.9566 20.8047 61.4879 21.1927 60.8837 21.5781C60.2847 21.9635 59.5842 22.1562 58.7821 22.1562C57.928 22.1562 57.1962 21.9505 56.5868 21.5391C55.9826 21.1224 55.5243 20.5599 55.2118 19.8516C54.9045 19.138 54.7509 18.3411 54.7509 17.4609ZM63.3116 16.9531C63.3116 14.5156 63.3585 12.8438 63.4523 11.9375L62.5694 11.7812C62.4444 11.3021 62.3819 10.7865 62.3819 10.2344C62.4601 10.1354 62.6059 10.013 62.8194 9.86719C63.033 9.72135 63.2804 9.59375 63.5616 9.48438C63.8481 9.375 64.1319 9.32031 64.4132 9.32031C65.1111 9.32031 65.6528 9.47135 66.0382 9.77344C66.4288 10.0755 66.6241 10.5911 66.6241 11.3203C66.6241 11.6849 66.5981 12.2448 66.546 13C66.4939 13.75 66.3976 14.6615 66.2569 15.7344C66.1163 16.8073 65.9288 17.9271 65.6944 19.0938L65.8273 19.1719C66.2387 18.6042 66.6345 17.9792 67.0148 17.2969C67.395 16.6094 67.697 15.9714 67.921 15.3828L67.2491 15.2188C67.1866 14.8646 67.1554 14.4453 67.1554 13.9609V13.6797C67.3533 13.4297 67.6241 13.2109 67.9679 13.0234C68.3168 12.8359 68.7491 12.7422 69.2648 12.7422C69.6345 12.7422 69.9549 12.8125 70.2257 12.9531C70.4965 13.0885 70.7049 13.2786 70.8507 13.5234C70.9965 13.7682 71.0694 14.0495 71.0694 14.3672C71.0694 14.6068 71.033 14.8333 70.9601 15.0469C70.8871 15.2552 70.7778 15.4766 70.6319 15.7109C70.2569 16.3047 69.6033 17.1484 68.671 18.2422C68.9835 18.6797 69.2882 19.0599 69.5851 19.3828C69.6996 19.3255 69.8064 19.25 69.9054 19.1562C70.0095 19.0625 70.1424 18.9271 70.3038 18.75L70.4757 18.5703L71.4366 19.2969C71.4002 20.224 71.1996 20.9323 70.8351 21.4219C70.4757 21.9062 69.9991 22.1484 69.4054 22.1484C68.7543 22.1484 68.2648 21.9505 67.9366 21.5547C67.6085 21.1589 67.3689 20.599 67.2179 19.875C66.645 20.4948 66.1398 21.0156 65.7023 21.4375C65.27 21.8542 64.9861 22.0938 64.8507 22.1562C64.5642 22.1562 64.2908 22.1224 64.0304 22.0547C63.77 21.987 63.5773 21.8802 63.4523 21.7344C63.395 20.9948 63.3559 20.263 63.3351 19.5391C63.3194 18.8099 63.3116 17.9479 63.3116 16.9531ZM71.8411 17.3828C71.8411 16.4401 71.9922 15.6224 72.2943 14.9297C72.5963 14.237 73.0599 13.7005 73.6849 13.3203C74.3099 12.9349 75.0937 12.7422 76.0364 12.7422C77.0781 12.7422 77.8958 12.9375 78.4896 13.3281C79.0833 13.7135 79.4974 14.25 79.7318 14.9375C79.9713 15.625 80.0911 16.4661 80.0911 17.4609C80.0911 18.362 79.9323 19.1667 79.6146 19.875C79.3021 20.5781 78.8281 21.1354 78.1927 21.5469C77.5625 21.9531 76.789 22.1562 75.8724 22.1562C74.4557 22.1562 73.4297 21.7214 72.7943 20.8516C72.1588 19.9766 71.8411 18.8203 71.8411 17.3828ZM76.1927 19.8672C76.4583 19.8672 76.6198 19.8464 76.6771 19.8047C76.7969 19.5964 76.888 19.3021 76.9505 18.9219C77.013 18.5417 77.0443 18.1302 77.0443 17.6875C77.0443 17.2812 77.0182 16.901 76.9661 16.5469C76.914 16.1875 76.8411 15.9062 76.7474 15.7031C76.6901 15.6354 76.5755 15.5859 76.4036 15.5547C76.2318 15.5182 76.0443 15.5 75.8411 15.5C75.5755 15.5 75.3932 15.5286 75.2943 15.5859C75.0338 16.0339 74.9036 16.6562 74.9036 17.4531C74.9036 17.8281 74.9323 18.2109 74.9896 18.6016C75.0469 18.9922 75.1198 19.3464 75.2083 19.6641C75.2708 19.7318 75.3984 19.7839 75.5911 19.8203C75.7838 19.8516 75.9844 19.8672 76.1927 19.8672ZM80.6597 15.2656C80.5711 14.8854 80.5139 14.6068 80.4878 14.4297C80.4618 14.2526 80.4488 13.9844 80.4488 13.625C80.756 13.3333 81.0868 13.1146 81.4409 12.9688C81.7951 12.8177 82.1935 12.7422 82.6363 12.7422C83.98 12.7422 84.6519 13.4167 84.6519 14.7656C84.6519 15.125 84.618 15.5417 84.5503 16.0156C84.4878 16.4896 84.3967 17.0859 84.2769 17.8047C84.2613 17.8984 84.2196 18.151 84.1519 18.5625C84.0842 18.974 84.0373 19.3177 84.0113 19.5938C84.0998 19.6875 84.2092 19.7526 84.3394 19.7891C84.4019 19.7891 84.5451 19.6615 84.7691 19.4062C84.9982 19.1458 85.243 18.8307 85.5034 18.4609C85.7639 18.0911 85.9774 17.75 86.1441 17.4375C86.1857 16.6927 86.243 16.0078 86.3159 15.3828L85.4956 15.2188C85.4279 14.9583 85.381 14.7292 85.355 14.5312C85.329 14.3333 85.3159 14.1224 85.3159 13.8984L85.3238 13.6797C85.5113 13.4401 85.7925 13.224 86.1675 13.0312C86.5425 12.8385 86.9722 12.7422 87.4566 12.7422C88.8003 12.7422 89.4722 13.4167 89.4722 14.7656C89.4722 15.3125 89.381 16.0339 89.1988 16.9297C89.0165 17.8203 88.8029 18.7214 88.5581 19.6328L89.4566 19.2422C89.6076 19.4036 89.7404 19.6016 89.855 19.8359C89.9748 20.0651 90.0503 20.3307 90.0816 20.6328C90.0086 20.7891 89.8498 20.9896 89.605 21.2344C89.3602 21.474 89.0607 21.6875 88.7066 21.875C88.3524 22.0625 87.9826 22.1562 87.5972 22.1562C87.1649 22.1562 86.8316 22.0286 86.5972 21.7734C86.368 21.513 86.2534 21.1823 86.2534 20.7812C86.2534 20.6771 86.2795 20.4635 86.3316 20.1406C86.3889 19.8177 86.4357 19.5938 86.4722 19.4688L86.2534 19.3984C85.993 20.3099 85.6336 20.9974 85.1753 21.4609C84.7222 21.9245 84.204 22.1562 83.6206 22.1562C82.7821 22.1562 82.1909 21.8802 81.8472 21.3281C81.5034 20.7708 81.3316 20.0807 81.3316 19.2578C81.3316 17.7109 81.3836 16.4193 81.4878 15.3828L80.6597 15.2656ZM90.9626 17.6875C90.9626 16.8385 90.9757 16.0651 91.0017 15.3672L90.1501 15.2188C90.0824 14.9583 90.0355 14.7292 90.0095 14.5312C89.9835 14.3333 89.9704 14.1224 89.9704 13.8984L89.9861 13.7422C90.0017 13.6693 90.0095 13.6094 90.0095 13.5625L91.1423 13.3125C91.1684 12.9896 91.2283 12.625 91.322 12.2188C91.4158 11.8125 91.5147 11.513 91.6189 11.3203C91.7855 11.1953 91.9861 11.1016 92.2204 11.0391C92.4548 10.9766 92.7074 10.9453 92.9783 10.9453C93.2074 10.9453 93.4288 10.9688 93.6423 11.0156C93.8611 11.0573 94.0512 11.1146 94.2126 11.1875C94.2283 11.3646 94.2361 11.5677 94.2361 11.7969C94.2361 12.1719 94.2178 12.5964 94.1814 13.0703L95.5564 12.8203C95.7491 13.1536 95.8454 13.5156 95.8454 13.9062C95.8454 14.1771 95.8116 14.4219 95.7439 14.6406C95.6814 14.8594 95.5928 15.1068 95.4783 15.3828C95.1345 15.4401 94.6632 15.4766 94.0642 15.4922C93.9913 16.3411 93.8298 17.5885 93.5798 19.2344L93.5408 19.5L93.5564 19.5156L95.3923 18.9453C95.7725 19.263 96.0043 19.7526 96.0876 20.4141C96.0876 20.4505 95.9184 20.6224 95.5798 20.9297C95.2465 21.2318 94.8272 21.513 94.322 21.7734C93.8168 22.0286 93.2673 22.1562 92.6736 22.1562C91.6371 22.1562 91.085 21.5234 91.0173 20.2578C90.9809 19.6172 90.9626 18.7604 90.9626 17.6875Z" fill="white"/>
</svg>
