<svg width="167" height="157" viewBox="0 0 167 157" fill="none" xmlns="http://www.w3.org/2000/svg">
<path d="M164.5 78.5C164.5 120.33 128.383 154.5 83.5 154.5C38.6173 154.5 2.5 120.33 2.5 78.5C2.5 36.6695 38.6173 2.5 83.5 2.5C128.383 2.5 164.5 36.6695 164.5 78.5Z" stroke="black" stroke-width="5"/>
<path d="M149.3 78.5002C149.3 112.574 119.899 140.3 83.5 140.3C47.1005 140.3 17.7 112.574 17.7 78.5002C17.7 44.4263 47.1005 16.7002 83.5 16.7002C119.899 16.7002 149.3 44.4263 149.3 78.5002Z" stroke="black" stroke-width="2"/>
<rect width="42.3855" height="8.9266" rx="4.4633" transform="matrix(0.670412 0.741989 -0.56387 0.825864 46.0334 74.1777)" fill="black"/>
<rect width="82.9726" height="8.92911" rx="4.46455" transform="matrix(0.670412 -0.741989 0.56387 0.825864 64.3394 105.565)" fill="black"/>
</svg>
