<svg width="553" height="423" viewBox="0 0 553 423" fill="none" xmlns="http://www.w3.org/2000/svg">
<path d="M422.5 133.5C422.5 205.576 356.528 264.5 274.5 264.5C192.472 264.5 126.5 205.576 126.5 133.5C126.5 61.424 192.472 2.5 274.5 2.5C356.528 2.5 422.5 61.424 422.5 133.5Z" stroke="black" stroke-width="5"/>
<path d="M394 134C394 191.87 340.403 239 274 239C207.597 239 154 191.87 154 134C154 76.1303 207.597 29 274 29C340.403 29 394 76.1303 394 134Z" stroke="black" stroke-width="2"/>
<rect width="73.9981" height="15.4642" rx="7.73212" transform="matrix(0.69163 0.722252 -0.586235 0.810141 206.814 126.058)" fill="black"/>
<rect width="144.857" height="15.4686" rx="7.7343" transform="matrix(0.69163 -0.722252 0.586235 0.810141 239.787 179.397)" fill="black"/>
<path d="M23.0778 299.68C18.7818 299.68 16.6338 302.956 16.6338 309.508C16.6338 312.796 17.1618 315.304 18.2178 317.032C19.2978 318.76 20.8698 319.636 22.9338 319.66C25.1178 319.636 26.7618 318.796 27.8658 317.14C28.9938 315.46 29.5578 312.988 29.5578 309.724C29.5578 306.46 29.0058 303.976 27.9018 302.272C26.8218 300.544 25.2138 299.68 23.0778 299.68ZM11.9538 309.832C11.9538 305.776 12.9858 302.596 15.0498 300.292C17.1138 297.964 19.8978 296.8 23.4018 296.8C26.9058 296.8 29.5818 297.916 31.4298 300.148C33.3018 302.356 34.2378 305.488 34.2378 309.544C34.2378 313.576 33.1938 316.756 31.1058 319.084C29.0418 321.388 26.2578 322.54 22.7538 322.54C19.2498 322.54 16.5738 321.436 14.7258 319.228C12.8778 316.996 11.9538 313.864 11.9538 309.832ZM43.1341 306.448C43.7101 305.68 44.5261 304.96 45.5821 304.288C46.6621 303.616 47.5861 303.28 48.3541 303.28C49.1461 303.28 49.8061 303.532 50.3341 304.036C50.8621 304.54 51.1261 305.38 51.1261 306.556C51.1261 307.708 50.7301 308.632 49.9381 309.328C49.5301 309.64 48.8461 309.736 47.8861 309.616C47.8861 308.824 47.8141 308.224 47.6701 307.816C47.5261 307.384 47.3701 307.132 47.2021 307.06C47.0341 306.964 46.8061 306.916 46.5181 306.916C45.3181 306.916 44.2381 307.696 43.2781 309.256V319.444L46.1941 319.66C46.3381 321.22 45.7981 322 44.5741 322H36.2581C36.2581 322 36.2581 321.904 36.2581 321.712C36.2581 320.392 36.7861 319.684 37.8421 319.588L38.8861 319.516V306.628L37.3021 306.448C36.5581 306.376 36.1861 305.656 36.1861 304.288L42.7021 303.46L43.0261 306.448H43.1341ZM71.2117 320.272C71.2117 321.808 70.1917 322.576 68.1517 322.576C66.1357 322.576 64.9357 321.916 64.5517 320.596C63.0157 321.892 61.2637 322.54 59.2957 322.54C57.3517 322.54 55.6717 321.844 54.2557 320.452C52.8397 319.036 52.1077 316.792 52.0597 313.72C52.0117 310.648 52.7437 308.14 54.2557 306.196C55.7917 304.252 58.0357 303.28 60.9877 303.28C62.3077 303.28 63.4477 303.484 64.4077 303.892V299.428L63.0037 299.284C62.0197 299.188 61.5757 298.444 61.6717 297.052L68.7997 296.26V320.056L71.2117 320.272ZM60.6997 306.196C57.9877 306.196 56.6317 308.44 56.6317 312.928C56.6317 314.992 56.9797 316.588 57.6757 317.716C58.3957 318.844 59.3917 319.408 60.6637 319.408C61.9597 319.408 63.2077 318.868 64.4077 317.788V307.636C63.2557 306.676 62.0197 306.196 60.6997 306.196ZM77.001 313.18V313.576C77.001 315.52 77.349 316.972 78.045 317.932C78.765 318.868 79.989 319.336 81.717 319.336C83.469 319.336 85.185 318.676 86.865 317.356C87.345 317.716 87.585 318.28 87.585 319.048C87.585 319.792 86.913 320.56 85.569 321.352C84.249 322.144 82.593 322.54 80.601 322.54C78.009 322.54 75.993 321.784 74.553 320.272C73.137 318.736 72.429 316.42 72.429 313.324C72.429 310.204 73.197 307.756 74.733 305.98C76.293 304.18 78.429 303.28 81.141 303.28C83.445 303.28 85.161 304 86.289 305.44C87.441 306.88 87.993 308.776 87.945 311.128V313.18H77.001ZM80.745 306.16C78.777 306.16 77.589 307.672 77.181 310.696H83.733C83.685 309.064 83.409 307.9 82.905 307.204C82.401 306.508 81.681 306.16 80.745 306.16ZM96.6836 306.448C97.2596 305.68 98.0756 304.96 99.1316 304.288C100.212 303.616 101.136 303.28 101.904 303.28C102.696 303.28 103.356 303.532 103.884 304.036C104.412 304.54 104.676 305.38 104.676 306.556C104.676 307.708 104.28 308.632 103.488 309.328C103.08 309.64 102.396 309.736 101.436 309.616C101.436 308.824 101.364 308.224 101.22 307.816C101.076 307.384 100.92 307.132 100.752 307.06C100.584 306.964 100.356 306.916 100.068 306.916C98.8676 306.916 97.7876 307.696 96.8276 309.256V319.444L99.7436 319.66C99.8876 321.22 99.3476 322 98.1236 322H89.8076C89.8076 322 89.8076 321.904 89.8076 321.712C89.8076 320.392 90.3356 319.684 91.3916 319.588L92.4356 319.516V306.628L90.8516 306.448C90.1076 306.376 89.7356 305.656 89.7356 304.288L96.2516 303.46L96.5756 306.448H96.6836ZM122.754 322H114.726V321.712C114.726 320.392 115.254 319.684 116.31 319.588L117.426 319.516V306.448L116.022 306.304C115.038 306.208 114.594 305.464 114.69 304.072L121.818 303.28V319.444L124.374 319.66C124.518 321.22 123.978 322 122.754 322ZM121.998 298.996C121.998 299.74 121.746 300.376 121.242 300.904C120.738 301.408 120.102 301.66 119.334 301.66C118.59 301.66 117.954 301.408 117.426 300.904C116.922 300.376 116.67 299.74 116.67 298.996C116.67 298.252 116.922 297.628 117.426 297.124C117.954 296.596 118.59 296.332 119.334 296.332C120.078 296.332 120.702 296.596 121.206 297.124C121.734 297.628 121.998 298.252 121.998 298.996ZM137.55 304.612C138.15 305.14 138.45 305.824 138.45 306.664C138.45 307.504 138.174 308.152 137.622 308.608C137.094 309.064 136.41 309.232 135.57 309.112C135.57 308.224 135.222 307.48 134.526 306.88C133.83 306.256 133.05 305.944 132.186 305.944C131.346 305.944 130.698 306.112 130.242 306.448C129.786 306.76 129.558 307.18 129.558 307.708C129.558 308.236 129.882 308.716 130.53 309.148C131.202 309.556 132.138 310 133.338 310.48C134.562 310.96 135.438 311.344 135.966 311.632C136.494 311.896 137.058 312.256 137.658 312.712C138.81 313.576 139.386 314.86 139.386 316.564C139.386 318.244 138.702 319.66 137.334 320.812C135.966 321.964 134.142 322.54 131.862 322.54C130.182 322.54 128.706 322.228 127.434 321.604C126.186 320.98 125.562 320.044 125.562 318.796C125.562 317.956 125.862 317.308 126.462 316.852C127.062 316.372 127.77 316.132 128.586 316.132C128.898 318.58 130.29 319.804 132.762 319.804C134.754 319.804 135.75 319.144 135.75 317.824C135.75 316.96 135.222 316.264 134.166 315.736C133.59 315.424 132.894 315.112 132.078 314.8C131.262 314.488 130.614 314.224 130.134 314.008C129.678 313.768 129.174 313.468 128.622 313.108C128.07 312.748 127.614 312.376 127.254 311.992C126.462 311.104 126.066 310.024 126.066 308.752C126.066 307.024 126.762 305.68 128.154 304.72C129.546 303.76 131.214 303.28 133.158 303.28C135.102 303.28 136.566 303.724 137.55 304.612ZM156.36 305.368C157.92 303.976 159.684 303.28 161.652 303.28C163.644 303.28 165.348 303.988 166.764 305.404C168.18 306.796 168.912 309.028 168.96 312.1C169.008 315.172 168.264 317.68 166.728 319.624C165.216 321.568 162.984 322.54 160.032 322.54C158.712 322.54 157.572 322.336 156.612 321.928V327.292H156.648L159.168 327.508C159.312 329.068 158.772 329.848 157.548 329.848H149.52V329.56C149.52 328.24 150.048 327.532 151.104 327.436L152.22 327.364V306.664L150.672 306.484C149.928 306.388 149.556 305.668 149.556 304.324L156.036 303.496L156.36 305.368ZM160.32 319.624C163.032 319.624 164.388 317.38 164.388 312.892C164.388 310.828 164.028 309.232 163.308 308.104C162.612 306.976 161.616 306.412 160.32 306.412C159.024 306.412 157.788 306.952 156.612 308.032V318.184C157.764 319.144 159 319.624 160.32 319.624ZM178.989 322H170.961V321.712C170.961 320.392 171.489 319.684 172.545 319.588L173.661 319.516V299.428L172.257 299.284C171.273 299.188 170.829 298.444 170.925 297.052L178.053 296.26V319.444L180.609 319.66C180.753 321.22 180.213 322 178.989 322ZM199.293 320.38C199.293 321.82 198.357 322.54 196.485 322.54C194.613 322.54 193.401 321.916 192.849 320.668C191.337 321.916 189.669 322.54 187.845 322.54C186.021 322.54 184.581 322.096 183.525 321.208C182.493 320.296 181.977 319.06 181.977 317.5C181.977 315.916 182.589 314.62 183.813 313.612C185.037 312.604 186.969 312.1 189.609 312.1C190.641 312.1 191.625 312.172 192.561 312.316V310.732C192.561 309.076 192.285 307.9 191.733 307.204C191.205 306.508 190.473 306.16 189.537 306.16C188.601 306.16 187.845 306.46 187.269 307.06C186.717 307.66 186.441 308.476 186.441 309.508C185.481 309.604 184.677 309.46 184.029 309.076C183.405 308.668 183.093 308.056 183.093 307.24C183.093 306.088 183.693 305.14 184.893 304.396C186.093 303.652 187.641 303.28 189.537 303.28C194.481 303.28 196.953 305.68 196.953 310.48V320.092L199.293 320.38ZM192.561 315.016C191.697 314.704 190.785 314.548 189.825 314.548C188.889 314.548 188.109 314.776 187.485 315.232C186.861 315.664 186.549 316.288 186.549 317.104C186.549 318.784 187.413 319.624 189.141 319.624C190.365 319.624 191.505 319.276 192.561 318.58V315.016ZM209.487 303.28C211.215 303.28 212.619 303.652 213.699 304.396C214.803 305.116 215.355 306.04 215.355 307.168C215.355 308.296 215.019 309.088 214.347 309.544C213.675 310 212.967 310.18 212.223 310.084C212.199 309.052 211.923 308.152 211.395 307.384C210.867 306.616 210.015 306.232 208.839 306.232C207.687 306.232 206.775 306.796 206.103 307.924C205.431 309.028 205.095 310.588 205.095 312.604C205.095 317.068 206.811 319.3 210.243 319.3C211.851 319.3 213.387 318.652 214.851 317.356C215.091 317.5 215.283 317.74 215.427 318.076C215.571 318.412 215.643 318.7 215.643 318.94C215.643 319.708 214.935 320.5 213.519 321.316C212.127 322.132 210.519 322.54 208.695 322.54C206.151 322.54 204.147 321.724 202.683 320.092C201.243 318.436 200.523 316.12 200.523 313.144C200.523 310.168 201.339 307.78 202.971 305.98C204.603 304.18 206.775 303.28 209.487 303.28ZM221.667 313.18V313.576C221.667 315.52 222.015 316.972 222.711 317.932C223.431 318.868 224.655 319.336 226.383 319.336C228.135 319.336 229.851 318.676 231.531 317.356C232.011 317.716 232.251 318.28 232.251 319.048C232.251 319.792 231.579 320.56 230.235 321.352C228.915 322.144 227.259 322.54 225.267 322.54C222.675 322.54 220.659 321.784 219.219 320.272C217.803 318.736 217.095 316.42 217.095 313.324C217.095 310.204 217.863 307.756 219.399 305.98C220.959 304.18 223.095 303.28 225.807 303.28C228.111 303.28 229.827 304 230.955 305.44C232.107 306.88 232.659 308.776 232.611 311.128V313.18H221.667ZM225.411 306.16C223.443 306.16 222.255 307.672 221.847 310.696H228.399C228.351 309.064 228.075 307.9 227.571 307.204C227.067 306.508 226.347 306.16 225.411 306.16ZM253.734 320.272C253.734 321.808 252.714 322.576 250.674 322.576C248.658 322.576 247.458 321.916 247.074 320.596C245.538 321.892 243.786 322.54 241.818 322.54C239.874 322.54 238.194 321.844 236.778 320.452C235.362 319.036 234.63 316.792 234.582 313.72C234.534 310.648 235.266 308.14 236.778 306.196C238.314 304.252 240.558 303.28 243.51 303.28C244.83 303.28 245.97 303.484 246.93 303.892V299.428L245.526 299.284C244.542 299.188 244.098 298.444 244.194 297.052L251.322 296.26V320.056L253.734 320.272ZM243.222 306.196C240.51 306.196 239.154 308.44 239.154 312.928C239.154 314.992 239.502 316.588 240.198 317.716C240.918 318.844 241.914 319.408 243.186 319.408C244.482 319.408 245.73 318.868 246.93 317.788V307.636C245.778 306.676 244.542 306.196 243.222 306.196ZM264.716 319.66C264.716 318.868 264.968 318.22 265.472 317.716C265.976 317.188 266.648 316.924 267.488 316.924C268.352 316.924 269.036 317.188 269.54 317.716C270.068 318.244 270.332 319.06 270.332 320.164C270.332 321.268 269.852 322.528 268.892 323.944C267.956 325.384 266.972 326.32 265.94 326.752C265.796 326.848 265.58 326.764 265.292 326.5C265.004 326.26 264.86 326.056 264.86 325.888C265.916 325.144 266.672 324.016 267.128 322.504C266.384 322.408 265.796 322.108 265.364 321.604C264.932 321.1 264.716 320.452 264.716 319.66ZM305.424 322H297.324V321.712C297.324 320.392 297.852 319.684 298.908 319.588L299.952 319.516V311.02H289.512V319.444L292.104 319.66C292.248 321.22 291.708 322 290.484 322H282.384V321.712C282.384 320.392 282.912 319.684 283.968 319.588L285.012 319.516V299.896L282.42 299.68C282.348 299.536 282.36 299.212 282.456 298.708C282.672 297.796 283.2 297.34 284.04 297.34H292.14V297.628C292.14 298.948 291.612 299.656 290.556 299.752L289.512 299.824V308.608H299.952V299.896L297.36 299.68C297.216 298.12 297.756 297.34 298.98 297.34H307.08V297.628C307.08 298.948 306.552 299.656 305.496 299.752L304.452 299.824V319.444L307.044 319.66C307.116 319.804 307.104 320.128 307.008 320.632C306.792 321.544 306.264 322 305.424 322ZM326.494 320.38C326.494 321.82 325.558 322.54 323.686 322.54C321.814 322.54 320.602 321.916 320.05 320.668C318.538 321.916 316.87 322.54 315.046 322.54C313.222 322.54 311.782 322.096 310.726 321.208C309.694 320.296 309.178 319.06 309.178 317.5C309.178 315.916 309.79 314.62 311.014 313.612C312.238 312.604 314.17 312.1 316.81 312.1C317.842 312.1 318.826 312.172 319.762 312.316V310.732C319.762 309.076 319.486 307.9 318.934 307.204C318.406 306.508 317.674 306.16 316.738 306.16C315.802 306.16 315.046 306.46 314.47 307.06C313.918 307.66 313.642 308.476 313.642 309.508C312.682 309.604 311.878 309.46 311.23 309.076C310.606 308.668 310.294 308.056 310.294 307.24C310.294 306.088 310.894 305.14 312.094 304.396C313.294 303.652 314.842 303.28 316.738 303.28C321.682 303.28 324.154 305.68 324.154 310.48V320.092L326.494 320.38ZM319.762 315.016C318.898 314.704 317.986 314.548 317.026 314.548C316.09 314.548 315.31 314.776 314.686 315.232C314.062 315.664 313.75 316.288 313.75 317.104C313.75 318.784 314.614 319.624 316.342 319.624C317.566 319.624 318.706 319.276 319.762 318.58V315.016ZM340.072 303.82H345.256C345.256 305.356 344.824 306.16 343.96 306.232L343.42 306.304L336.94 322H334.528L328.156 306.376H328.12L326.464 306.16C326.44 305.536 326.548 304.996 326.788 304.54C327.028 304.06 327.436 303.82 328.012 303.82H335.14C335.092 304.708 334.984 305.26 334.816 305.476C334.456 305.932 334.036 306.184 333.556 306.232L332.98 306.304L336.472 315.376L340 306.34L338.452 306.16C338.38 306.016 338.392 305.692 338.488 305.188C338.704 304.276 339.232 303.82 340.072 303.82ZM350.696 313.18V313.576C350.696 315.52 351.044 316.972 351.74 317.932C352.46 318.868 353.684 319.336 355.412 319.336C357.164 319.336 358.88 318.676 360.56 317.356C361.04 317.716 361.28 318.28 361.28 319.048C361.28 319.792 360.608 320.56 359.264 321.352C357.944 322.144 356.288 322.54 354.296 322.54C351.704 322.54 349.688 321.784 348.248 320.272C346.832 318.736 346.124 316.42 346.124 313.324C346.124 310.204 346.892 307.756 348.428 305.98C349.988 304.18 352.124 303.28 354.836 303.28C357.14 303.28 358.856 304 359.984 305.44C361.136 306.88 361.688 308.776 361.64 311.128V313.18H350.696ZM354.44 306.16C352.472 306.16 351.284 307.672 350.876 310.696H357.428C357.38 309.064 357.104 307.9 356.6 307.204C356.096 306.508 355.376 306.16 354.44 306.16ZM389.971 320.38C389.971 321.82 389.035 322.54 387.163 322.54C385.291 322.54 384.079 321.916 383.527 320.668C382.015 321.916 380.347 322.54 378.523 322.54C376.699 322.54 375.259 322.096 374.203 321.208C373.171 320.296 372.655 319.06 372.655 317.5C372.655 315.916 373.267 314.62 374.491 313.612C375.715 312.604 377.647 312.1 380.287 312.1C381.319 312.1 382.303 312.172 383.239 312.316V310.732C383.239 309.076 382.963 307.9 382.411 307.204C381.883 306.508 381.151 306.16 380.215 306.16C379.279 306.16 378.523 306.46 377.947 307.06C377.395 307.66 377.119 308.476 377.119 309.508C376.159 309.604 375.355 309.46 374.707 309.076C374.083 308.668 373.771 308.056 373.771 307.24C373.771 306.088 374.371 305.14 375.571 304.396C376.771 303.652 378.319 303.28 380.215 303.28C385.159 303.28 387.631 305.68 387.631 310.48V320.092L389.971 320.38ZM383.239 315.016C382.375 314.704 381.463 314.548 380.503 314.548C379.567 314.548 378.787 314.776 378.163 315.232C377.539 315.664 377.227 316.288 377.227 317.104C377.227 318.784 378.091 319.624 379.819 319.624C381.043 319.624 382.183 319.276 383.239 318.58V315.016ZM420.226 322H412.27V321.712C412.27 320.392 412.798 319.684 413.854 319.588L414.898 319.516V310.66C414.898 309.268 414.622 308.296 414.07 307.744C413.518 307.168 412.75 306.88 411.766 306.88C410.782 306.88 409.978 307.012 409.354 307.276C408.73 307.54 408.082 307.96 407.41 308.536V319.444L409.966 319.66C410.11 321.22 409.57 322 408.346 322H400.318V321.712C400.318 320.392 400.846 319.684 401.902 319.588L403.018 319.516V306.664L401.614 306.52C400.63 306.424 400.186 305.68 400.282 304.288L406.798 303.496L407.05 305.692H407.158C408.046 304.924 408.898 304.336 409.714 303.928C410.554 303.496 411.538 303.28 412.666 303.28C414.514 303.28 416.074 303.904 417.346 305.152C418.642 306.376 419.29 308.272 419.29 310.84V319.444L421.846 319.66C421.99 321.22 421.45 322 420.226 322ZM431.317 322H423.289V321.712C423.289 320.392 423.817 319.684 424.873 319.588L425.989 319.516V306.448L424.585 306.304C423.601 306.208 423.157 305.464 423.253 304.072L430.381 303.28V319.444L432.937 319.66C433.081 321.22 432.541 322 431.317 322ZM430.561 298.996C430.561 299.74 430.309 300.376 429.805 300.904C429.301 301.408 428.665 301.66 427.897 301.66C427.153 301.66 426.517 301.408 425.989 300.904C425.485 300.376 425.233 299.74 425.233 298.996C425.233 298.252 425.485 297.628 425.989 297.124C426.517 296.596 427.153 296.332 427.897 296.332C428.641 296.332 429.265 296.596 429.769 297.124C430.297 297.628 430.561 298.252 430.561 298.996ZM443.449 303.28C445.177 303.28 446.581 303.652 447.661 304.396C448.765 305.116 449.317 306.04 449.317 307.168C449.317 308.296 448.981 309.088 448.309 309.544C447.637 310 446.929 310.18 446.185 310.084C446.161 309.052 445.885 308.152 445.357 307.384C444.829 306.616 443.977 306.232 442.801 306.232C441.649 306.232 440.737 306.796 440.065 307.924C439.393 309.028 439.057 310.588 439.057 312.604C439.057 317.068 440.773 319.3 444.205 319.3C445.813 319.3 447.349 318.652 448.813 317.356C449.053 317.5 449.245 317.74 449.389 318.076C449.533 318.412 449.605 318.7 449.605 318.94C449.605 319.708 448.897 320.5 447.481 321.316C446.089 322.132 444.481 322.54 442.657 322.54C440.113 322.54 438.109 321.724 436.645 320.092C435.205 318.436 434.485 316.12 434.485 313.144C434.485 310.168 435.301 307.78 436.933 305.98C438.565 304.18 440.737 303.28 443.449 303.28ZM455.629 313.18V313.576C455.629 315.52 455.977 316.972 456.673 317.932C457.393 318.868 458.617 319.336 460.345 319.336C462.097 319.336 463.813 318.676 465.493 317.356C465.973 317.716 466.213 318.28 466.213 319.048C466.213 319.792 465.541 320.56 464.197 321.352C462.877 322.144 461.221 322.54 459.229 322.54C456.637 322.54 454.621 321.784 453.181 320.272C451.765 318.736 451.057 316.42 451.057 313.324C451.057 310.204 451.825 307.756 453.361 305.98C454.921 304.18 457.057 303.28 459.769 303.28C462.073 303.28 463.789 304 464.917 305.44C466.069 306.88 466.621 308.776 466.573 311.128V313.18H455.629ZM459.373 306.16C457.405 306.16 456.217 307.672 455.809 310.696H462.361C462.313 309.064 462.037 307.9 461.533 307.204C461.029 306.508 460.309 306.16 459.373 306.16ZM496.921 320.272C496.921 321.808 495.901 322.576 493.861 322.576C491.845 322.576 490.645 321.916 490.261 320.596C488.725 321.892 486.973 322.54 485.005 322.54C483.061 322.54 481.381 321.844 479.965 320.452C478.549 319.036 477.817 316.792 477.769 313.72C477.721 310.648 478.453 308.14 479.965 306.196C481.501 304.252 483.745 303.28 486.697 303.28C488.017 303.28 489.157 303.484 490.117 303.892V299.428L488.713 299.284C487.729 299.188 487.285 298.444 487.381 297.052L494.509 296.26V320.056L496.921 320.272ZM486.409 306.196C483.697 306.196 482.341 308.44 482.341 312.928C482.341 314.992 482.689 316.588 483.385 317.716C484.105 318.844 485.101 319.408 486.373 319.408C487.669 319.408 488.917 318.868 490.117 317.788V307.636C488.965 306.676 487.729 306.196 486.409 306.196ZM515.274 320.38C515.274 321.82 514.338 322.54 512.466 322.54C510.594 322.54 509.382 321.916 508.83 320.668C507.318 321.916 505.65 322.54 503.826 322.54C502.002 322.54 500.562 322.096 499.506 321.208C498.474 320.296 497.958 319.06 497.958 317.5C497.958 315.916 498.57 314.62 499.794 313.612C501.018 312.604 502.95 312.1 505.59 312.1C506.622 312.1 507.606 312.172 508.542 312.316V310.732C508.542 309.076 508.266 307.9 507.714 307.204C507.186 306.508 506.454 306.16 505.518 306.16C504.582 306.16 503.826 306.46 503.25 307.06C502.698 307.66 502.422 308.476 502.422 309.508C501.462 309.604 500.658 309.46 500.01 309.076C499.386 308.668 499.074 308.056 499.074 307.24C499.074 306.088 499.674 305.14 500.874 304.396C502.074 303.652 503.622 303.28 505.518 303.28C510.462 303.28 512.934 305.68 512.934 310.48V320.092L515.274 320.38ZM508.542 315.016C507.678 314.704 506.766 314.548 505.806 314.548C504.87 314.548 504.09 314.776 503.466 315.232C502.842 315.664 502.53 316.288 502.53 317.104C502.53 318.784 503.394 319.624 505.122 319.624C506.346 319.624 507.486 319.276 508.542 318.58V315.016ZM529.391 303.82H534.539C534.539 303.82 534.539 303.916 534.539 304.108C534.539 305.356 534.011 306.064 532.955 306.232L532.811 306.268L526.835 320.776H526.871C526.751 321.04 526.535 321.544 526.223 322.288C525.911 323.032 525.683 323.548 525.539 323.836C525.419 324.148 525.203 324.628 524.891 325.276C524.579 325.924 524.327 326.392 524.135 326.68C523.943 326.992 523.691 327.388 523.379 327.868C523.067 328.348 522.767 328.696 522.479 328.912C522.215 329.152 521.903 329.404 521.543 329.668C520.895 330.148 520.079 330.388 519.095 330.388C518.111 330.388 517.319 330.136 516.719 329.632C516.119 329.128 515.819 328.504 515.819 327.76C515.819 327.04 516.035 326.452 516.467 325.996C516.899 325.564 517.379 325.348 517.907 325.348C518.435 325.348 518.759 325.372 518.879 325.42C518.615 326.692 518.891 327.328 519.707 327.328C520.403 327.328 521.135 326.572 521.903 325.06C522.695 323.572 523.331 322.048 523.811 320.488L517.439 306.376H517.259L515.279 306.16C515.207 306.016 515.219 305.692 515.315 305.188C515.531 304.276 516.059 303.82 516.899 303.82H524.351C524.279 304.708 524.171 305.26 524.027 305.476C523.667 305.884 523.247 306.136 522.767 306.232L522.371 306.304L526.007 315.304L529.463 306.34L527.771 306.16C527.627 304.6 528.167 303.82 529.391 303.82ZM540.436 321.712C539.884 322.264 539.212 322.54 538.42 322.54C537.628 322.54 536.956 322.264 536.404 321.712C535.852 321.16 535.576 320.488 535.576 319.696C535.576 318.904 535.852 318.232 536.404 317.68C536.956 317.128 537.628 316.852 538.42 316.852C539.212 316.852 539.884 317.128 540.436 317.68C540.988 318.232 541.264 318.904 541.264 319.696C541.264 320.488 540.988 321.16 540.436 321.712ZM536.944 314.116L536.26 296.836C537.628 296.332 539.212 296.248 541.012 296.584L539.896 314.116C538.96 314.38 537.976 314.38 536.944 314.116Z" fill="black"/>
</svg>
