<svg width="31" height="25" viewBox="0 0 31 25" fill="none" xmlns="http://www.w3.org/2000/svg">
<path fill-rule="evenodd" clip-rule="evenodd" d="M29.8321 7.71769L28.3181 6.15631C27.5967 5.40386 26.6189 4.97167 25.593 4.95181H19.8256V4.08933C19.8256 1.83086 18.0503 0 15.8605 0H3.96512C3.36788 0 2.88372 0.499325 2.88372 1.11527C2.88372 1.73122 3.36788 2.23055 3.96512 2.23055H15.8172C16.8126 2.23055 17.6195 3.06275 17.6195 4.08933V13.5022C17.6195 14.1182 18.1037 14.6175 18.7009 14.6175C19.2982 14.6175 19.7823 14.1182 19.7823 13.5022V7.18236H25.5498C26.0276 7.18041 26.4857 7.37903 26.8186 7.73256L28.3326 9.21959C28.539 9.44036 28.6878 9.71152 28.7651 10.0077H22.7093C22.1121 10.0077 21.6279 10.507 21.6279 11.123C21.6279 11.7389 22.1121 12.2383 22.7093 12.2383H28.8372V18.5581C28.8568 19.0639 28.6757 19.556 28.3355 19.9208C27.9953 20.2857 27.5256 20.4917 27.0349 20.4913H25.4344C25.0796 18.7756 23.6101 17.5492 21.9091 17.5492C20.2081 17.5492 18.7386 18.7756 18.3837 20.4913H10.6842C10.2961 18.7179 8.71275 17.5007 6.95399 17.6238C5.19523 17.7469 3.78585 19.1735 3.63364 20.9847C3.48143 22.796 4.63183 24.4514 6.34383 24.8847C8.05583 25.318 9.81861 24.4 10.4967 22.7218H18.5856C19.1476 24.1021 20.4575 25 21.9091 25C23.3606 25 24.6705 24.1021 25.2326 22.7218H27.0349C29.2248 22.7218 31 20.891 31 18.6325V10.6174C31.0019 9.52873 30.5814 8.48453 29.8321 7.71769ZM7.16605 22.4839C6.68198 22.5083 6.23252 22.2255 6.03203 21.7704C5.83154 21.3154 5.92062 20.7802 6.25679 20.4202C6.59296 20.0602 7.10813 19.9482 7.5566 20.1376C8.00508 20.3271 8.29603 20.7796 8.2907 21.2794C8.29113 21.9276 7.79411 22.4599 7.16605 22.4839ZM20.8082 21.7277C20.9903 22.1851 21.4223 22.4839 21.9019 22.4839C22.5492 22.484 23.0763 21.947 23.0842 21.2794C23.09 20.7849 22.8057 20.3357 22.3644 20.1423C21.9231 19.9489 21.4122 20.0495 21.0711 20.397C20.7299 20.7446 20.6261 21.2702 20.8082 21.7277Z" fill="black"/>
<path d="M13.6977 8.38685C13.6899 7.77425 13.2103 7.27959 12.6163 7.27158H1.0814C0.484157 7.27158 0 7.77091 0 8.38685C0 9.0028 0.484157 9.50213 1.0814 9.50213H12.6163C13.2103 9.49412 13.6899 8.99945 13.6977 8.38685Z" fill="black"/>
<path d="M12.6163 11.7327H5.40698C4.80974 11.7327 4.32558 12.232 4.32558 12.8479C4.32558 13.4639 4.80974 13.9632 5.40698 13.9632H12.6163C13.2135 13.9632 13.6977 13.4639 13.6977 12.8479C13.6977 12.232 13.2135 11.7327 12.6163 11.7327Z" fill="black"/>
</svg>
