<svg width="64" height="21" viewBox="0 0 64 21" fill="none" xmlns="http://www.w3.org/2000/svg">
<rect x="0.5" y="0.5" width="63" height="20" rx="6.5" fill="black" stroke="black"/>
<path d="M21.3512 5.725V7.99C21.3512 8.44 21.0312 8.635 20.3912 8.575L20.2562 6.865L17.2112 6.76V10.39L19.8962 10.075C20.0062 10.555 20.0112 11.05 19.9112 11.56L17.2112 11.41V14.935L18.5912 15.025C18.6512 15.675 18.4262 16 17.9162 16H14.2412C14.2412 16 14.2412 15.96 14.2412 15.88C14.2412 15.33 14.4612 15.035 14.9012 14.995L15.3362 14.965V6.79L14.2562 6.7C14.2262 6.64 14.2312 6.505 14.2712 6.295C14.3612 5.915 14.5812 5.725 14.9312 5.725H21.3512ZM24.5176 9.52C24.7576 9.2 25.0976 8.9 25.5376 8.62C25.9876 8.34 26.3726 8.2 26.6926 8.2C27.0226 8.2 27.2976 8.305 27.5176 8.515C27.7376 8.725 27.8476 9.075 27.8476 9.565C27.8476 10.045 27.6826 10.43 27.3526 10.72C27.1826 10.85 26.8976 10.89 26.4976 10.84C26.4976 10.51 26.4676 10.26 26.4076 10.09C26.3476 9.91 26.2826 9.805 26.2126 9.775C26.1426 9.735 26.0476 9.715 25.9276 9.715C25.4276 9.715 24.9776 10.04 24.5776 10.69V14.935L25.7926 15.025C25.8526 15.675 25.6276 16 25.1176 16H21.6526C21.6526 16 21.6526 15.96 21.6526 15.88C21.6526 15.33 21.8726 15.035 22.3126 14.995L22.7476 14.965V9.595L22.0876 9.52C21.7776 9.49 21.6226 9.19 21.6226 8.62L24.3376 8.275L24.4726 9.52H24.5176ZM29.9036 12.325V12.49C29.9036 13.3 30.0486 13.905 30.3386 14.305C30.6386 14.695 31.1486 14.89 31.8686 14.89C32.5986 14.89 33.3136 14.615 34.0136 14.065C34.2136 14.215 34.3136 14.45 34.3136 14.77C34.3136 15.08 34.0336 15.4 33.4736 15.73C32.9236 16.06 32.2336 16.225 31.4036 16.225C30.3236 16.225 29.4836 15.91 28.8836 15.28C28.2936 14.64 27.9986 13.675 27.9986 12.385C27.9986 11.085 28.3186 10.065 28.9586 9.325C29.6086 8.575 30.4986 8.2 31.6286 8.2C32.5886 8.2 33.3036 8.5 33.7736 9.1C34.2536 9.7 34.4836 10.49 34.4636 11.47V12.325H29.9036ZM31.4636 9.4C30.6436 9.4 30.1486 10.03 29.9786 11.29H32.7086C32.6886 10.61 32.5736 10.125 32.3636 9.835C32.1536 9.545 31.8536 9.4 31.4636 9.4ZM39.8917 8.755C40.1417 8.975 40.2667 9.26 40.2667 9.61C40.2667 9.96 40.1517 10.23 39.9217 10.42C39.7017 10.61 39.4167 10.68 39.0667 10.63C39.0667 10.26 38.9217 9.95 38.6317 9.7C38.3417 9.44 38.0167 9.31 37.6567 9.31C37.3067 9.31 37.0367 9.38 36.8467 9.52C36.6567 9.65 36.5617 9.825 36.5617 10.045C36.5617 10.265 36.6967 10.465 36.9667 10.645C37.2467 10.815 37.6367 11 38.1367 11.2C38.6467 11.4 39.0117 11.56 39.2317 11.68C39.4517 11.79 39.6867 11.94 39.9367 12.13C40.4167 12.49 40.6567 13.025 40.6567 13.735C40.6567 14.435 40.3717 15.025 39.8017 15.505C39.2317 15.985 38.4717 16.225 37.5217 16.225C36.8217 16.225 36.2067 16.095 35.6767 15.835C35.1567 15.575 34.8967 15.185 34.8967 14.665C34.8967 14.315 35.0217 14.045 35.2717 13.855C35.5217 13.655 35.8167 13.555 36.1567 13.555C36.2867 14.575 36.8667 15.085 37.8967 15.085C38.7267 15.085 39.1417 14.81 39.1417 14.26C39.1417 13.9 38.9217 13.61 38.4817 13.39C38.2417 13.26 37.9517 13.13 37.6117 13C37.2717 12.87 37.0017 12.76 36.8017 12.67C36.6117 12.57 36.4017 12.445 36.1717 12.295C35.9417 12.145 35.7517 11.99 35.6017 11.83C35.2717 11.46 35.1067 11.01 35.1067 10.48C35.1067 9.76 35.3967 9.2 35.9767 8.8C36.5567 8.4 37.2517 8.2 38.0617 8.2C38.8717 8.2 39.4817 8.385 39.8917 8.755ZM49.3926 16H46.0776V15.88C46.0776 15.33 46.2976 15.035 46.7376 14.995L47.1726 14.965V11.275C47.1726 10.685 47.0526 10.275 46.8126 10.045C46.5726 9.815 46.1876 9.7 45.6576 9.7C45.1276 9.7 44.5926 9.93 44.0526 10.39V14.935L45.1176 15.025C45.1776 15.675 44.9526 16 44.4426 16H41.0976V15.88C41.0976 15.33 41.3176 15.035 41.7576 14.995L42.2226 14.965V6.61L41.6376 6.55C41.2276 6.51 41.0426 6.2 41.0826 5.62L44.0526 5.29V9.115C44.7626 8.505 45.4976 8.2 46.2576 8.2C47.0176 8.2 47.6626 8.46 48.1926 8.98C48.7326 9.49 49.0026 10.28 49.0026 11.35V14.935L50.0676 15.025C50.1276 15.675 49.9026 16 49.3926 16Z" fill="white"/>
</svg>
