<svg width="106" height="37" viewBox="0 0 106 37" fill="none" xmlns="http://www.w3.org/2000/svg">
<path d="M13.5 0.5L92.5 0.5C99.6797 0.5 105.5 6.3203 105.5 13.5L105.5 23.5C105.5 30.6797 99.6797 36.5 92.5 36.5L13.5 36.5C6.3203 36.5 0.5 30.6797 0.5 23.5L0.5 13.5C0.5 6.3203 6.3203 0.5 13.5 0.5Z" fill="#D764D7" stroke="black"/>
<path d="M17.8291 24.2422C18.178 24.2422 18.4801 24.2031 18.7353 24.125C18.8134 24.0469 18.8681 23.9557 18.8994 23.8516C18.9306 23.7526 18.9463 23.6589 18.9463 23.5703C18.9463 23.4766 18.9384 23.4063 18.9228 23.3594C18.9072 23.3177 18.8811 23.2786 18.8447 23.2422C18.6259 23.2057 18.3681 23.1797 18.0713 23.1641C17.7796 23.1536 17.6051 23.1458 17.5478 23.1406C16.8239 23.1094 16.2353 23.0573 15.7822 22.9844C15.3291 22.9063 14.941 22.7396 14.6181 22.4844C14.2952 22.224 14.1338 21.8333 14.1338 21.3125C14.1338 21.0313 14.2249 20.7682 14.4072 20.5234C14.5895 20.2734 14.8265 20.0547 15.1181 19.8672C14.5244 19.6224 14.0478 19.2552 13.6884 18.7656C13.3343 18.2708 13.1572 17.6328 13.1572 16.8516C13.1572 16.0755 13.3551 15.4531 13.7509 14.9844C14.152 14.5104 14.6442 14.1771 15.2275 13.9844C15.8108 13.7917 16.4046 13.6953 17.0088 13.6953C17.389 13.6953 17.7614 13.7318 18.1259 13.8047C18.4905 13.8776 18.8291 13.9818 19.1416 14.1172L18.8056 12.1328C19.1233 11.9401 19.5192 11.8438 19.9931 11.8438C20.3369 11.8438 20.6572 11.901 20.9541 12.0156C21.2509 12.1302 21.4775 12.2943 21.6338 12.5078C21.6442 12.5599 21.6494 12.6432 21.6494 12.7578C21.6494 13.1849 21.5713 13.6615 21.415 14.1875C21.264 14.7083 21.0009 15.1276 20.6259 15.4453C20.8134 15.8203 20.9072 16.224 20.9072 16.6563C20.9072 17.2917 20.7848 17.8776 20.54 18.4141C20.3004 18.9505 19.8994 19.388 19.3369 19.7266C18.7744 20.0599 18.0426 20.2266 17.1416 20.2266C16.8811 20.2266 16.6103 20.2109 16.3291 20.1797C16.3134 20.4401 16.3759 20.7005 16.5166 20.9609C17.2197 20.8255 17.7874 20.7552 18.2197 20.75L18.7509 20.7422C19.4697 20.7422 20.014 20.7865 20.3838 20.875C20.79 20.974 21.0921 21.1979 21.29 21.5469C21.4931 21.8958 21.5947 22.3203 21.5947 22.8203C21.5947 23.6016 21.3551 24.2578 20.8759 24.7891C20.402 25.3255 19.7848 25.724 19.0244 25.9844C18.2692 26.2448 17.4671 26.375 16.6181 26.375C15.8317 26.375 15.1311 26.2422 14.5166 25.9766C13.902 25.7109 13.514 25.224 13.3525 24.5156C13.5244 23.9167 13.8525 23.4635 14.3369 23.1563C14.9879 23.5469 15.6103 23.8255 16.2041 23.9922C16.803 24.1589 17.3447 24.2422 17.8291 24.2422ZM17.3525 18.2969C17.7275 18.2969 17.9463 18.2734 18.0088 18.2266C18.1494 17.9453 18.2197 17.6563 18.2197 17.3594C18.2197 17.0521 18.1494 16.763 18.0088 16.4922C17.941 16.4349 17.79 16.3906 17.5556 16.3594C17.3265 16.3281 17.0765 16.3125 16.8056 16.3125C16.4671 16.3125 16.2405 16.3333 16.1259 16.375C15.9645 16.6615 15.8838 16.9505 15.8838 17.2422C15.8838 17.5391 15.9593 17.8203 16.1103 18.0859C16.2249 18.1589 16.3968 18.2135 16.6259 18.25C16.8603 18.2813 17.1025 18.2969 17.3525 18.2969ZM21.9054 18.4609C21.9054 17.5599 22.0565 16.7552 22.3586 16.0469C22.6606 15.3385 23.1268 14.7786 23.757 14.3672C24.3924 13.9505 25.1841 13.7422 26.132 13.7422C26.6268 13.7422 27.1216 13.8021 27.6164 13.9219C28.1112 14.0365 28.5304 14.2292 28.8742 14.5C29.1919 14.7552 29.4211 15.0938 29.5617 15.5156C29.7075 15.9323 29.7804 16.3958 29.7804 16.9063C29.7804 17.2448 29.7518 17.5911 29.6945 17.9453C29.632 18.0495 29.5096 18.1875 29.3273 18.3594C29.145 18.526 28.9315 18.6901 28.6867 18.8516C28.4419 19.013 28.2049 19.138 27.9758 19.2266C27.757 19.2422 27.5304 19.25 27.2961 19.25C26.8846 19.25 26.4679 19.2318 26.0461 19.1953C25.6242 19.1589 25.2544 19.1172 24.9367 19.0703C24.9784 19.513 25.1138 19.8984 25.3429 20.2266C25.5721 20.5547 25.9367 20.7188 26.4367 20.7188C26.4836 20.7188 26.5591 20.7135 26.6633 20.7031C26.981 20.6719 27.3508 20.5885 27.7726 20.4531C28.1997 20.3125 28.6242 20.151 29.0461 19.9688C29.244 20.1667 29.3898 20.3646 29.4836 20.5625C29.5773 20.7604 29.6424 21.0443 29.6789 21.4141C29.5174 21.6016 29.2544 21.8307 28.8898 22.1016C28.5304 22.3724 28.0903 22.6172 27.5695 22.8359C27.0487 23.0495 26.5044 23.1563 25.9367 23.1563C25.0825 23.1563 24.3508 22.9505 23.7414 22.5391C23.1372 22.1224 22.6789 21.5599 22.3664 20.8516C22.0591 20.138 21.9054 19.3411 21.9054 18.4609ZM26.9367 16.6641C26.8638 16.5859 26.7414 16.526 26.5695 16.4844C26.3976 16.4375 26.2179 16.4141 26.0304 16.4141C25.8794 16.4141 25.7258 16.4271 25.5695 16.4531C25.4185 16.4792 25.3273 16.5078 25.2961 16.5391C25.119 16.888 25.007 17.2839 24.9601 17.7266L27.0461 17.5234L26.9367 16.6641ZM31.0443 18.6875C31.0443 17.8385 31.0573 17.0651 31.0834 16.3672L30.2318 16.2188C30.1641 15.9583 30.1172 15.7292 30.0912 15.5313C30.0651 15.3333 30.0521 15.1224 30.0521 14.8984L30.0678 14.7422C30.0834 14.6693 30.0912 14.6094 30.0912 14.5625L31.224 14.3125C31.25 13.9896 31.3099 13.625 31.4037 13.2188C31.4974 12.8125 31.5964 12.513 31.7006 12.3203C31.8672 12.1953 32.0678 12.1016 32.3021 12.0391C32.5365 11.9766 32.7891 11.9453 33.0599 11.9453C33.2891 11.9453 33.5105 11.9688 33.724 12.0156C33.9428 12.0573 34.1329 12.1146 34.2943 12.1875C34.3099 12.3646 34.3178 12.5677 34.3178 12.7969C34.3178 13.1719 34.2995 13.5964 34.2631 14.0703L35.6381 13.8203C35.8308 14.1536 35.9271 14.5156 35.9271 14.9063C35.9271 15.1771 35.8933 15.4219 35.8256 15.6406C35.7631 15.8594 35.6745 16.1068 35.5599 16.3828C35.2162 16.4401 34.7448 16.4766 34.1459 16.4922C34.073 17.3411 33.9115 18.5885 33.6615 20.2344L33.6224 20.5L33.6381 20.5156L35.474 19.9453C35.8542 20.263 36.086 20.7526 36.1693 21.4141C36.1693 21.4505 36 21.6224 35.6615 21.9297C35.3282 22.2318 34.9089 22.513 34.4037 22.7734C33.8985 23.0286 33.349 23.1563 32.7553 23.1563C31.7188 23.1563 31.1667 22.5234 31.099 21.2578C31.0625 20.6172 31.0443 19.7604 31.0443 18.6875ZM40.1658 20.2422C40.6241 20.4245 40.9913 20.5651 41.2674 20.6641C41.5434 20.763 41.8455 20.849 42.1736 20.9219C42.507 20.9948 42.8377 21.0313 43.1658 21.0313C43.3116 21.0313 43.4158 21.0182 43.4783 20.9922C43.4939 20.9714 43.507 20.9401 43.5174 20.8984C43.533 20.8516 43.5408 20.8047 43.5408 20.7578C43.5408 20.6536 43.4809 20.5677 43.3611 20.5C43.1736 20.3958 42.8403 20.2318 42.3611 20.0078C41.7049 19.6953 41.184 19.4167 40.7986 19.1719C40.4184 18.9271 40.0955 18.6016 39.8299 18.1953C39.5695 17.7891 39.4393 17.2786 39.4393 16.6641C39.4393 15.7839 39.7023 15.0781 40.2283 14.5469C40.7544 14.0104 41.5877 13.7422 42.7283 13.7422C44.0877 13.7422 45.145 13.9193 45.9002 14.2734C45.9366 14.4245 45.9549 14.6146 45.9549 14.8438C45.9549 15.2813 45.8872 15.7292 45.7518 16.1875C45.6163 16.6406 45.4393 16.9766 45.2205 17.1953C44.9236 17.0964 44.5044 16.9375 43.9627 16.7188C43.5669 16.5625 43.2518 16.4427 43.0174 16.3594C42.7882 16.2708 42.5773 16.2083 42.3846 16.1719C42.2804 16.1979 42.1971 16.2604 42.1346 16.3594C42.0721 16.4531 42.0408 16.5651 42.0408 16.6953C42.0408 16.8099 42.0747 16.9063 42.1424 16.9844C42.2101 17.0625 42.2856 17.125 42.3689 17.1719C42.4575 17.2135 42.5825 17.2708 42.7439 17.3438C42.8273 17.3802 42.9054 17.4141 42.9783 17.4453C43.0512 17.4714 43.1189 17.4974 43.1814 17.5234C43.5877 17.6953 43.908 17.8359 44.1424 17.9453C44.3768 18.0547 44.6033 18.1849 44.8221 18.3359C45.2231 18.612 45.5382 18.9271 45.7674 19.2813C45.9965 19.6354 46.1111 20.0234 46.1111 20.4453C46.1111 21.0286 45.9445 21.5339 45.6111 21.9609C45.283 22.3828 44.8611 22.6901 44.3455 22.8828C44.0747 22.9818 43.7778 23.0521 43.4549 23.0938C43.1372 23.1406 42.7648 23.1641 42.3377 23.1641C41.8325 23.1641 41.3116 23.0677 40.7752 22.875C40.2439 22.6771 39.8377 22.349 39.5564 21.8906C39.5616 21.5729 39.6033 21.2969 39.6814 21.0625C39.7648 20.8229 39.9262 20.5495 40.1658 20.2422ZM47.2109 18.6875C47.2109 17.8385 47.224 17.0651 47.25 16.3672L46.3984 16.2188C46.3307 15.9583 46.2839 15.7292 46.2578 15.5313C46.2318 15.3333 46.2187 15.1224 46.2187 14.8984L46.2344 14.7422C46.25 14.6693 46.2578 14.6094 46.2578 14.5625L47.3906 14.3125C47.4167 13.9896 47.4766 13.625 47.5703 13.2188C47.6641 12.8125 47.763 12.513 47.8672 12.3203C48.0339 12.1953 48.2344 12.1016 48.4687 12.0391C48.7031 11.9766 48.9557 11.9453 49.2266 11.9453C49.4557 11.9453 49.6771 11.9688 49.8906 12.0156C50.1094 12.0573 50.2995 12.1146 50.4609 12.1875C50.4766 12.3646 50.4844 12.5677 50.4844 12.7969C50.4844 13.1719 50.4661 13.5964 50.4297 14.0703L51.8047 13.8203C51.9974 14.1536 52.0937 14.5156 52.0937 14.9063C52.0937 15.1771 52.0599 15.4219 51.9922 15.6406C51.9297 15.8594 51.8411 16.1068 51.7266 16.3828C51.3828 16.4401 50.9115 16.4766 50.3125 16.4922C50.2396 17.3411 50.0781 18.5885 49.8281 20.2344L49.7891 20.5L49.8047 20.5156L51.6406 19.9453C52.0208 20.263 52.2526 20.7526 52.3359 21.4141C52.3359 21.4505 52.1667 21.6224 51.8281 21.9297C51.4948 22.2318 51.0755 22.513 50.5703 22.7734C50.0651 23.0286 49.5156 23.1563 48.9219 23.1563C47.8854 23.1563 47.3333 22.5234 47.2656 21.2578C47.2292 20.6172 47.2109 19.7604 47.2109 18.6875ZM54.9748 17.8516C55.2821 17.8516 55.6206 17.8828 55.9904 17.9453C56.3654 18.0078 56.7092 18.0833 57.0217 18.1719L57.0217 17.9297C57.0217 17.7682 57.0165 17.5885 57.0061 17.3906C57.0009 17.1927 56.9904 17.0625 56.9748 17C56.9279 16.9115 56.7925 16.8203 56.5686 16.7266C56.3498 16.6328 55.9904 16.5859 55.4904 16.5859C55.1831 16.5859 54.8654 16.625 54.5373 16.7031C54.2144 16.776 53.855 16.875 53.4592 17C53.2456 16.6458 53.0738 16.3099 52.9436 15.9922C52.8186 15.6693 52.7561 15.3464 52.7561 15.0234C52.7561 14.9245 52.7639 14.8255 52.7795 14.7266C53.6233 14.0703 54.7144 13.7422 56.0529 13.7422C56.7925 13.7422 57.4488 13.8255 58.0217 13.9922C58.5946 14.1589 59.066 14.4818 59.4358 14.9609C59.8055 15.4401 59.9904 16.1198 59.9904 17C59.9904 17.8594 59.8889 18.6927 59.6858 19.5C59.4878 20.3021 59.3863 20.7109 59.3811 20.7266L60.5139 20.2422C60.6649 20.4036 60.7977 20.6016 60.9123 20.8359C61.0321 21.0651 61.1076 21.3307 61.1389 21.6328C61.066 21.7891 60.9071 21.9896 60.6623 22.2344C60.4175 22.474 60.118 22.6875 59.7639 22.875C59.4097 23.0625 59.0399 23.1563 58.6545 23.1563C58.2222 23.1563 57.8941 23.0286 57.6701 22.7734C57.4514 22.5182 57.342 22.1875 57.342 21.7813C57.342 21.5521 57.3759 21.3203 57.4436 21.0859L57.2092 21.0156C57.0634 21.8385 56.7535 22.401 56.2795 22.7031C55.8055 23.0052 55.2821 23.1563 54.7092 23.1563C54.3342 23.1563 53.9722 23.0521 53.6233 22.8438C53.2743 22.6302 52.9904 22.3229 52.7717 21.9219C52.5529 21.5156 52.4436 21.0417 52.4436 20.5C52.4436 19.6354 52.6597 18.9792 53.092 18.5313C53.5243 18.0781 54.1519 17.8516 54.9748 17.8516ZM55.8654 20.8281C55.9956 20.8021 56.1493 20.7292 56.3264 20.6094C56.5087 20.4896 56.6701 20.3464 56.8108 20.1797C56.9514 20.013 57.0347 19.8542 57.0608 19.7031L57.0139 19.5156C56.7378 19.4792 56.4436 19.4609 56.1311 19.4609C55.8654 19.4609 55.6831 19.4818 55.5842 19.5234C55.4175 19.7109 55.3342 19.9193 55.3342 20.1484C55.3342 20.3151 55.3759 20.4661 55.4592 20.6016C55.5477 20.737 55.6831 20.8125 55.8654 20.8281ZM61.9106 20.9063C61.9106 20.6823 61.9158 20.1328 61.9262 19.2578C61.9418 17.5391 61.9496 16.599 61.9496 16.4375L61.2309 16.3203C61.1319 16.0234 61.0616 15.7448 61.0199 15.4844C60.9783 15.224 60.9574 14.9609 60.9574 14.6953C60.9574 14.5859 60.96 14.5026 60.9653 14.4453C61.0538 14.3672 61.1918 14.2734 61.3793 14.1641C61.5668 14.0547 61.7882 13.9583 62.0434 13.875C62.2986 13.7865 62.559 13.7422 62.8246 13.7422C63.4444 13.7422 63.8923 13.8802 64.1684 14.1563C64.4496 14.4323 64.5903 14.8359 64.5903 15.3672C64.5903 15.6901 64.5486 16.1042 64.4653 16.6094C64.3871 17.1094 64.3064 17.4661 64.2231 17.6797L64.5043 17.7266L64.9731 15.9609C65.1814 15.1641 65.4418 14.5964 65.7543 14.2578C66.0668 13.9141 66.4184 13.7422 66.809 13.7422C67.0642 13.7422 67.3168 13.7813 67.5668 13.8594C67.822 13.9375 68.0173 14.0339 68.1528 14.1484C68.2986 14.4714 68.3715 14.901 68.3715 15.4375C68.3715 15.8125 68.335 16.1849 68.2621 16.5547C68.1892 16.9193 68.0955 17.2135 67.9809 17.4375L66.3403 17.2188C66.0069 17.5729 65.6528 18.0651 65.2778 18.6953C64.9028 19.3203 64.6033 19.8958 64.3793 20.4219L64.3715 20.8281L65.8871 20.4688C66.1423 20.8594 66.2908 21.3229 66.3324 21.8594C66.3324 21.8906 66.2153 22.0182 65.9809 22.2422C65.7465 22.4661 65.4366 22.6745 65.0512 22.8672C64.671 23.0547 64.2335 23.1484 63.7387 23.1484C63.2283 23.1484 62.8012 23.013 62.4574 22.7422C62.1189 22.4661 61.9392 22.0026 61.9184 21.3516C61.9132 21.2734 61.9106 21.125 61.9106 20.9063ZM69.1744 18.6875C69.1744 17.8385 69.1875 17.0651 69.2135 16.3672L68.3619 16.2188C68.2942 15.9583 68.2474 15.7292 68.2213 15.5313C68.1953 15.3333 68.1823 15.1224 68.1823 14.8984L68.1979 14.7422C68.2135 14.6693 68.2213 14.6094 68.2213 14.5625L69.3541 14.3125C69.3802 13.9896 69.4401 13.625 69.5338 13.2188C69.6276 12.8125 69.7265 12.513 69.8307 12.3203C69.9974 12.1953 70.1979 12.1016 70.4323 12.0391C70.6666 11.9766 70.9192 11.9453 71.1901 11.9453C71.4192 11.9453 71.6406 11.9688 71.8541 12.0156C72.0729 12.0573 72.263 12.1146 72.4244 12.1875C72.4401 12.3646 72.4479 12.5677 72.4479 12.7969C72.4479 13.1719 72.4296 13.5964 72.3932 14.0703L73.7682 13.8203C73.9609 14.1536 74.0573 14.5156 74.0573 14.9063C74.0573 15.1771 74.0234 15.4219 73.9557 15.6406C73.8932 15.8594 73.8046 16.1068 73.6901 16.3828C73.3463 16.4401 72.875 16.4766 72.276 16.4922C72.2031 17.3411 72.0416 18.5885 71.7916 20.2344L71.7526 20.5L71.7682 20.5156L73.6041 19.9453C73.9843 20.263 74.2161 20.7526 74.2994 21.4141C74.2994 21.4505 74.1302 21.6224 73.7916 21.9297C73.4583 22.2318 73.039 22.513 72.5338 22.7734C72.0286 23.0286 71.4791 23.1563 70.8854 23.1563C69.8489 23.1563 69.2968 22.5234 69.2291 21.2578C69.1927 20.6172 69.1744 19.7604 69.1744 18.6875ZM74.4227 18.4609C74.4227 17.5599 74.5737 16.7552 74.8758 16.0469C75.1779 15.3385 75.644 14.7786 76.2742 14.3672C76.9097 13.9505 77.7013 13.7422 78.6492 13.7422C79.144 13.7422 79.6388 13.8021 80.1336 13.9219C80.6284 14.0365 81.0477 14.2292 81.3914 14.5C81.7091 14.7552 81.9383 15.0938 82.0789 15.5156C82.2248 15.9323 82.2977 16.3958 82.2977 16.9063C82.2977 17.2448 82.269 17.5911 82.2117 17.9453C82.1492 18.0495 82.0269 18.1875 81.8446 18.3594C81.6623 18.526 81.4487 18.6901 81.2039 18.8516C80.9591 19.013 80.7222 19.138 80.493 19.2266C80.2742 19.2422 80.0477 19.25 79.8133 19.25C79.4019 19.25 78.9852 19.2318 78.5633 19.1953C78.1414 19.1589 77.7716 19.1172 77.4539 19.0703C77.4956 19.513 77.631 19.8984 77.8602 20.2266C78.0894 20.5547 78.4539 20.7188 78.9539 20.7188C79.0008 20.7188 79.0763 20.7135 79.1805 20.7031C79.4982 20.6719 79.868 20.5885 80.2899 20.4531C80.717 20.3125 81.1414 20.151 81.5633 19.9688C81.7612 20.1667 81.9071 20.3646 82.0008 20.5625C82.0946 20.7604 82.1597 21.0443 82.1961 21.4141C82.0347 21.6016 81.7716 21.8307 81.4071 22.1016C81.0477 22.3724 80.6076 22.6172 80.0867 22.8359C79.5659 23.0495 79.0216 23.1563 78.4539 23.1563C77.5998 23.1563 76.868 22.9505 76.2586 22.5391C75.6545 22.1224 75.1961 21.5599 74.8836 20.8516C74.5763 20.138 74.4227 19.3411 74.4227 18.4609ZM79.4539 16.6641C79.381 16.5859 79.2586 16.526 79.0867 16.4844C78.9149 16.4375 78.7352 16.4141 78.5477 16.4141C78.3966 16.4141 78.243 16.4271 78.0867 16.4531C77.9357 16.4792 77.8446 16.5078 77.8133 16.5391C77.6362 16.888 77.5242 17.2839 77.4774 17.7266L79.5633 17.5234L79.4539 16.6641ZM82.96 18.4922C82.96 17.7005 83.0694 16.9427 83.2881 16.2188C83.5121 15.4948 83.861 14.901 84.335 14.4375C84.8142 13.974 85.4157 13.7422 86.1397 13.7422C86.9522 13.7422 87.7282 14 88.4678 14.5156L88.5928 14.4375C88.5772 13.8281 88.5017 13.276 88.3662 12.7813L86.7803 12.6797C86.7074 12.5859 86.6501 12.4479 86.6084 12.2656C86.5668 12.0781 86.5459 11.8854 86.5459 11.6875C86.5459 11.4219 86.5772 11.1927 86.6397 11C86.9522 10.776 87.3532 10.6068 87.8428 10.4922C88.3324 10.3776 88.822 10.3203 89.3116 10.3203C89.8532 10.3203 90.2621 10.4349 90.5381 10.6641C90.8142 10.888 90.9991 11.2292 91.0928 11.6875C91.1918 12.1406 91.2412 12.7708 91.2412 13.5781C91.2412 14.6406 91.197 15.8464 91.1084 17.1953C91.0199 18.5443 90.9053 19.6458 90.7647 20.5L90.7334 20.6328L91.6397 20.2422C91.7907 20.4036 91.9235 20.6016 92.0381 20.8359C92.1579 21.0651 92.2334 21.3307 92.2647 21.6328C92.1918 21.7891 92.0329 21.9896 91.7881 22.2344C91.5433 22.474 91.2439 22.6875 90.8897 22.875C90.5355 23.0625 90.1657 23.1563 89.7803 23.1563C89.348 23.1563 89.0147 23.0286 88.7803 22.7734C88.5511 22.513 88.4366 22.1823 88.4366 21.7813C88.4366 21.6771 88.4626 21.4635 88.5147 21.1406C88.572 20.8177 88.6189 20.5938 88.6553 20.4688L88.4209 20.3984C88.1553 21.3307 87.8037 22.0234 87.3662 22.4766C86.9287 22.9297 86.3871 23.1563 85.7412 23.1563C85.0485 23.1563 84.4939 22.9271 84.0772 22.4688C83.6657 22.0052 83.3767 21.4245 83.21 20.7266C83.0433 20.0286 82.96 19.2839 82.96 18.4922ZM88.3194 18.3516C88.3506 18.1641 88.3662 17.9453 88.3662 17.6953C88.3662 17.5339 88.3584 17.3802 88.3428 17.2344C88.3324 17.0885 88.3194 16.9844 88.3037 16.9219C88.0954 16.7708 87.8584 16.6641 87.5928 16.6016C87.3324 16.5391 87.0928 16.5078 86.8741 16.5078C86.7386 16.5078 86.5928 16.5208 86.4366 16.5469C86.3324 16.651 86.2491 16.8776 86.1866 17.2266C86.1241 17.5703 86.0928 17.9583 86.0928 18.3906C86.0928 18.8542 86.1241 19.3047 86.1866 19.7422C86.2543 20.1745 86.348 20.513 86.4678 20.7578C86.5511 20.7578 86.7126 20.6302 86.9522 20.375C87.197 20.1146 87.4496 19.7969 87.71 19.4219C87.9704 19.0417 88.1735 18.6849 88.3194 18.3516Z" fill="white"/>
</svg>
