<svg width="64" height="21" viewBox="0 0 64 21" fill="none" xmlns="http://www.w3.org/2000/svg">
<rect x="0.5" y="0.5" width="63" height="20" rx="6.5" fill="black" stroke="black"/>
<path d="M27.7343 16H24.3293V15.88C24.3293 15.33 24.5493 15.035 24.9893 14.995L25.4093 14.965L24.8693 7.69L22.1843 14.38C21.8243 14.49 21.5043 14.515 21.2243 14.455L18.3293 7.975L17.8943 14.935L19.1093 15.025C19.1393 15.085 19.1343 15.22 19.0943 15.43C19.0043 15.81 18.7843 16 18.4343 16H15.3743V15.88C15.3743 15.33 15.5943 15.035 16.0343 14.995L16.6343 14.965L17.1743 6.79L16.1393 6.7C16.1093 6.64 16.1143 6.505 16.1543 6.295C16.2443 5.915 16.4643 5.725 16.8143 5.725H19.3793L22.0193 11.695L24.3293 5.725H27.0743C27.2443 5.725 27.3843 5.77 27.4943 5.86C27.6043 5.94 27.6743 6.04 27.7043 6.16C27.7643 6.46 27.7793 6.64 27.7493 6.7L26.6993 6.79L27.3143 14.935L28.4093 15.025C28.4393 15.085 28.4343 15.22 28.3943 15.43C28.3043 15.81 28.0843 16 27.7343 16ZM30.591 12.325V12.49C30.591 13.3 30.736 13.905 31.026 14.305C31.326 14.695 31.836 14.89 32.556 14.89C33.286 14.89 34.001 14.615 34.701 14.065C34.901 14.215 35.001 14.45 35.001 14.77C35.001 15.08 34.721 15.4 34.161 15.73C33.611 16.06 32.921 16.225 32.091 16.225C31.011 16.225 30.171 15.91 29.571 15.28C28.981 14.64 28.686 13.675 28.686 12.385C28.686 11.085 29.006 10.065 29.646 9.325C30.296 8.575 31.186 8.2 32.316 8.2C33.276 8.2 33.991 8.5 34.461 9.1C34.941 9.7 35.171 10.49 35.151 11.47V12.325H30.591ZM32.151 9.4C31.331 9.4 30.836 10.03 30.666 11.29H33.396C33.376 10.61 33.261 10.125 33.051 9.835C32.841 9.545 32.541 9.4 32.151 9.4ZM42.8741 15.325C42.8741 15.925 42.4841 16.225 41.7041 16.225C40.9241 16.225 40.4191 15.965 40.1891 15.445C39.5591 15.965 38.8641 16.225 38.1041 16.225C37.3441 16.225 36.7441 16.04 36.3041 15.67C35.8741 15.29 35.6591 14.775 35.6591 14.125C35.6591 13.465 35.9141 12.925 36.4241 12.505C36.9341 12.085 37.7391 11.875 38.8391 11.875C39.2691 11.875 39.6791 11.905 40.0691 11.965V11.305C40.0691 10.615 39.9541 10.125 39.7241 9.835C39.5041 9.545 39.1991 9.4 38.8091 9.4C38.4191 9.4 38.1041 9.525 37.8641 9.775C37.6341 10.025 37.5191 10.365 37.5191 10.795C37.1191 10.835 36.7841 10.775 36.5141 10.615C36.2541 10.445 36.1241 10.19 36.1241 9.85C36.1241 9.37 36.3741 8.975 36.8741 8.665C37.3741 8.355 38.0191 8.2 38.8091 8.2C40.8691 8.2 41.8991 9.2 41.8991 11.2V15.205L42.8741 15.325ZM40.0691 13.09C39.7091 12.96 39.3291 12.895 38.9291 12.895C38.5391 12.895 38.2141 12.99 37.9541 13.18C37.6941 13.36 37.5641 13.62 37.5641 13.96C37.5641 14.66 37.9241 15.01 38.6441 15.01C39.1541 15.01 39.6291 14.865 40.0691 14.575V13.09ZM45.7434 9.475V13.63C45.7434 14.44 46.0034 14.845 46.5234 14.845C46.9034 14.845 47.2184 14.795 47.4684 14.695C47.7284 14.595 48.0034 14.425 48.2934 14.185C48.3434 14.185 48.4084 14.25 48.4884 14.38C48.5684 14.51 48.6084 14.65 48.6084 14.8C48.6084 15.19 48.3334 15.525 47.7834 15.805C47.2334 16.085 46.6984 16.225 46.1784 16.225C45.6584 16.225 45.2484 16.15 44.9484 16C44.6484 15.86 44.4234 15.65 44.2734 15.37C44.0334 14.91 43.9134 14.3 43.9134 13.54V9.475H42.6684C42.6684 8.775 42.9134 8.425 43.4034 8.425H43.9134V6.505L45.7434 6.31V8.425H48.4434C48.4634 8.575 48.4484 8.745 48.3984 8.935C48.3084 9.295 48.0784 9.475 47.7084 9.475H45.7434Z" fill="white"/>
</svg>
