<svg width="600" height="49" viewBox="0 0 600 49" fill="none" xmlns="http://www.w3.org/2000/svg">
<path d="M58.3688 11.76V10.464C58.3688 7.776 59.2168 5.536 60.9128 3.744C62.6088 1.92 64.8328 0.991999 67.5848 0.959999C71.1688 0.895998 72.9608 1.984 72.9608 4.224C72.9608 5.312 72.6088 6.112 71.9048 6.624C71.2008 7.136 70.2888 7.392 69.1688 7.392C69.1688 5.344 68.3848 4.32 66.8168 4.32C65.0568 4.32 64.1768 6.304 64.1768 10.272V11.76H70.3688C70.5288 14 69.7768 15.12 68.1128 15.12H64.1768V32.592H64.2248L69.0728 32.88C69.1688 33.072 69.1528 33.504 69.0248 34.176C68.7368 35.392 68.0328 36 66.9128 36H54.8168V35.616C54.8168 33.856 55.5208 32.912 56.9288 32.784L58.3208 32.688L58.3688 15.12H54.9128C54.9128 12.88 55.6968 11.76 57.2648 11.76H58.3688ZM84.0994 36H73.3954V35.616C73.3954 33.856 74.0994 32.912 75.5074 32.784L76.9954 32.688V15.264L75.1234 15.072C73.8114 14.944 73.2194 13.952 73.3474 12.096L82.8514 11.04V32.592L86.2594 32.88C86.4514 34.96 85.7314 36 84.0994 36ZM83.0914 5.328C83.0914 6.32 82.7554 7.168 82.0834 7.872C81.4114 8.544 80.5634 8.88 79.5394 8.88C78.5474 8.88 77.6994 8.544 76.9954 7.872C76.3234 7.168 75.9874 6.32 75.9874 5.328C75.9874 4.336 76.3234 3.504 76.9954 2.832C77.6994 2.128 78.5474 1.776 79.5394 1.776C80.5314 1.776 81.3634 2.128 82.0354 2.832C82.7394 3.504 83.0914 4.336 83.0914 5.328ZM103.964 12.816C104.764 13.52 105.164 14.432 105.164 15.552C105.164 16.672 104.796 17.536 104.06 18.144C103.356 18.752 102.444 18.976 101.324 18.816C101.324 17.632 100.86 16.64 99.9316 15.84C99.0036 15.008 97.9636 14.592 96.8116 14.592C95.6916 14.592 94.8276 14.816 94.2196 15.264C93.6116 15.68 93.3076 16.24 93.3076 16.944C93.3076 17.648 93.7396 18.288 94.6036 18.864C95.4996 19.408 96.7476 20 98.3476 20.64C99.9796 21.28 101.148 21.792 101.852 22.176C102.556 22.528 103.308 23.008 104.108 23.616C105.644 24.768 106.412 26.48 106.412 28.752C106.412 30.992 105.5 32.88 103.676 34.416C101.852 35.952 99.4196 36.72 96.3796 36.72C94.1396 36.72 92.1716 36.304 90.4756 35.472C88.8116 34.64 87.9796 33.392 87.9796 31.728C87.9796 30.608 88.3796 29.744 89.1796 29.136C89.9796 28.496 90.9236 28.176 92.0116 28.176C92.4276 31.44 94.2836 33.072 97.5796 33.072C100.236 33.072 101.564 32.192 101.564 30.432C101.564 29.28 100.86 28.352 99.4516 27.648C98.6836 27.232 97.7556 26.816 96.6676 26.4C95.5796 25.984 94.7156 25.632 94.0756 25.344C93.4676 25.024 92.7956 24.624 92.0596 24.144C91.3236 23.664 90.7156 23.168 90.2356 22.656C89.1796 21.472 88.6516 20.032 88.6516 18.336C88.6516 16.032 89.5796 14.24 91.4356 12.96C93.2916 11.68 95.5156 11.04 98.1076 11.04C100.7 11.04 102.652 11.632 103.964 12.816ZM135.264 36H124.656V35.616C124.656 33.856 125.36 32.912 126.768 32.784L128.16 32.688V20.88C128.16 18.992 127.776 17.68 127.008 16.944C126.24 16.208 125.008 15.84 123.312 15.84C121.616 15.84 119.904 16.576 118.176 18.048V32.592L121.584 32.88C121.776 34.96 121.056 36 119.424 36H108.72V35.616C108.72 33.856 109.424 32.912 110.832 32.784L112.32 32.688V5.952L110.448 5.76C109.136 5.632 108.544 4.64 108.672 2.784L118.176 1.728V13.968C120.448 12.016 122.8 11.04 125.232 11.04C127.664 11.04 129.728 11.872 131.424 13.536C133.152 15.168 134.016 17.696 134.016 21.12V32.592L137.424 32.88C137.616 34.96 136.896 36 135.264 36ZM181.344 32.016C181.984 32.016 182.656 31.888 183.36 31.632C184.064 31.376 184.544 31.056 184.8 30.672C185.248 31.056 185.472 31.744 185.472 32.736C185.472 33.728 185.072 34.656 184.272 35.52C183.472 36.384 182.272 36.816 180.672 36.816C178.272 36.816 175.504 35.76 172.368 33.648C169.68 35.792 166.528 36.864 162.912 36.864C159.296 36.864 156.576 36.096 154.752 34.56C152.96 32.992 152.064 30.976 152.064 28.512C152.064 24.704 154.032 21.728 157.968 19.584C155.632 16.48 154.464 13.824 154.464 11.616C154.464 9.376 155.264 7.488 156.864 5.952C158.496 4.384 160.624 3.6 163.248 3.6C165.872 3.6 167.904 4.224 169.344 5.472C170.816 6.688 171.552 8.368 171.552 10.512C171.552 12.656 170.88 14.496 169.536 16.032C168.224 17.568 166.576 18.688 164.592 19.392L164.88 19.728C167.472 22.832 170.16 25.52 172.944 27.792C173.776 26.512 174.448 24.992 174.96 23.232L171.792 22.992C171.6 20.944 172.272 19.92 173.808 19.92H182.064V20.352C182.064 22.048 181.456 22.944 180.24 23.04L178.656 23.136C177.952 25.728 176.992 27.968 175.776 29.856C178.016 31.296 179.872 32.016 181.344 32.016ZM166.464 10.56C166.464 9.152 166.16 8.128 165.552 7.488C164.944 6.816 164.192 6.48 163.296 6.48C162.4 6.48 161.6 6.848 160.896 7.584C160.192 8.32 159.84 9.28 159.84 10.464C159.84 12.224 160.864 14.48 162.912 17.232C165.28 15.792 166.464 13.568 166.464 10.56ZM169.344 31.344C166.752 29.232 163.632 26.128 159.984 22.032C158.384 23.568 157.584 25.28 157.584 27.168C157.584 29.024 158.16 30.432 159.312 31.392C160.464 32.352 162.032 32.832 164.016 32.832C166 32.832 167.776 32.336 169.344 31.344ZM211.762 11.04C214.066 11.04 215.938 11.536 217.378 12.528C218.85 13.488 219.586 14.72 219.586 16.224C219.586 17.728 219.138 18.784 218.242 19.392C217.346 20 216.402 20.24 215.41 20.112C215.378 18.736 215.01 17.536 214.306 16.512C213.602 15.488 212.466 14.976 210.898 14.976C209.362 14.976 208.146 15.728 207.25 17.232C206.354 18.704 205.906 20.784 205.906 23.472C205.906 29.424 208.194 32.4 212.77 32.4C214.914 32.4 216.962 31.536 218.914 29.808C219.234 30 219.49 30.32 219.682 30.768C219.874 31.216 219.97 31.6 219.97 31.92C219.97 32.944 219.026 34 217.138 35.088C215.282 36.176 213.138 36.72 210.706 36.72C207.314 36.72 204.642 35.632 202.69 33.456C200.77 31.248 199.81 28.16 199.81 24.192C199.81 20.224 200.898 17.04 203.074 14.64C205.25 12.24 208.146 11.04 211.762 11.04ZM248.443 36H237.835V35.616C237.835 33.856 238.539 32.912 239.947 32.784L241.339 32.688V20.88C241.339 18.992 240.955 17.68 240.187 16.944C239.419 16.208 238.187 15.84 236.491 15.84C234.795 15.84 233.083 16.576 231.355 18.048V32.592L234.763 32.88C234.955 34.96 234.235 36 232.603 36H221.899V35.616C221.899 33.856 222.603 32.912 224.011 32.784L225.499 32.688V5.952L223.627 5.76C222.315 5.632 221.723 4.64 221.851 2.784L231.355 1.728V13.968C233.627 12.016 235.979 11.04 238.411 11.04C240.843 11.04 242.907 11.872 244.603 13.536C246.331 15.168 247.195 17.696 247.195 21.12V32.592L250.603 32.88C250.795 34.96 250.075 36 248.443 36ZM263.367 36H252.663V35.616C252.663 33.856 253.367 32.912 254.775 32.784L256.263 32.688V15.264L254.391 15.072C253.079 14.944 252.487 13.952 252.615 12.096L262.119 11.04V32.592L265.527 32.88C265.719 34.96 264.999 36 263.367 36ZM262.359 5.328C262.359 6.32 262.023 7.168 261.351 7.872C260.679 8.544 259.831 8.88 258.807 8.88C257.815 8.88 256.967 8.544 256.263 7.872C255.591 7.168 255.255 6.32 255.255 5.328C255.255 4.336 255.591 3.504 256.263 2.832C256.967 2.128 257.815 1.776 258.807 1.776C259.799 1.776 260.631 2.128 261.303 2.832C262.007 3.504 262.359 4.336 262.359 5.328ZM275.743 13.824C277.823 11.968 280.175 11.04 282.799 11.04C285.455 11.04 287.727 11.984 289.615 13.872C291.503 15.728 292.479 18.704 292.543 22.8C292.607 26.896 291.615 30.24 289.567 32.832C287.551 35.424 284.575 36.72 280.639 36.72C278.879 36.72 277.359 36.448 276.079 35.904V43.056H276.127L279.487 43.344C279.679 45.424 278.959 46.464 277.327 46.464H266.623V46.08C266.623 44.32 267.327 43.376 268.735 43.248L270.223 43.152V15.552L268.159 15.312C267.167 15.184 266.671 14.224 266.671 12.432L275.311 11.328L275.743 13.824ZM281.023 32.832C284.639 32.832 286.447 29.84 286.447 23.856C286.447 21.104 285.967 18.976 285.007 17.472C284.079 15.968 282.751 15.216 281.023 15.216C279.295 15.216 277.647 15.936 276.079 17.376V30.912C277.615 32.192 279.263 32.832 281.023 32.832ZM310.995 12.816C311.795 13.52 312.195 14.432 312.195 15.552C312.195 16.672 311.827 17.536 311.091 18.144C310.387 18.752 309.475 18.976 308.355 18.816C308.355 17.632 307.891 16.64 306.963 15.84C306.035 15.008 304.995 14.592 303.843 14.592C302.723 14.592 301.859 14.816 301.251 15.264C300.643 15.68 300.339 16.24 300.339 16.944C300.339 17.648 300.771 18.288 301.635 18.864C302.531 19.408 303.779 20 305.379 20.64C307.011 21.28 308.179 21.792 308.883 22.176C309.587 22.528 310.339 23.008 311.139 23.616C312.675 24.768 313.443 26.48 313.443 28.752C313.443 30.992 312.531 32.88 310.707 34.416C308.883 35.952 306.451 36.72 303.411 36.72C301.171 36.72 299.203 36.304 297.507 35.472C295.843 34.64 295.011 33.392 295.011 31.728C295.011 30.608 295.411 29.744 296.211 29.136C297.011 28.496 297.955 28.176 299.043 28.176C299.459 31.44 301.315 33.072 304.611 33.072C307.267 33.072 308.595 32.192 308.595 30.432C308.595 29.28 307.891 28.352 306.483 27.648C305.715 27.232 304.787 26.816 303.699 26.4C302.611 25.984 301.747 25.632 301.107 25.344C300.499 25.024 299.827 24.624 299.091 24.144C298.355 23.664 297.747 23.168 297.267 22.656C296.211 21.472 295.683 20.032 295.683 18.336C295.683 16.032 296.611 14.24 298.467 12.96C300.323 11.68 302.547 11.04 305.139 11.04C307.731 11.04 309.683 11.632 310.995 12.816Z" fill="black"/>
<path d="M425.387 11.184C425.387 12.304 425.019 13.2 424.283 13.872C423.547 14.512 422.587 14.736 421.403 14.544C421.403 12.72 421.019 11.376 420.251 10.512C419.483 9.616 418.347 9.168 416.843 9.168C415.371 9.168 414.251 9.52 413.483 10.224C412.747 10.896 412.379 11.68 412.379 12.576C412.379 13.44 412.491 14.128 412.715 14.64C412.971 15.12 413.451 15.584 414.155 16.032C415.115 16.672 416.843 17.552 419.339 18.672C421.867 19.792 423.691 20.928 424.811 22.08C425.963 23.2 426.539 24.928 426.539 27.264C426.539 29.6 425.755 31.648 424.187 33.408C422.619 35.136 420.507 36.192 417.851 36.576L418.331 41.52C417.851 41.776 417.115 41.904 416.123 41.904C415.131 41.904 414.427 41.776 414.011 41.52L414.443 36.672C412.331 36.48 410.523 35.936 409.019 35.04C407.515 34.112 406.763 32.832 406.763 31.2C406.763 30.048 407.131 29.136 407.867 28.464C408.603 27.76 409.739 27.408 411.275 27.408C411.275 29.488 411.691 30.976 412.523 31.872C413.387 32.736 414.747 33.168 416.603 33.168C420.027 33.168 421.739 31.92 421.739 29.424C421.739 27.824 421.195 26.56 420.107 25.632C419.051 24.672 417.819 23.904 416.411 23.328C415.035 22.72 414.139 22.32 413.723 22.128C413.307 21.936 412.699 21.632 411.899 21.216C411.099 20.8 410.507 20.416 410.123 20.064C409.771 19.68 409.371 19.232 408.923 18.72C408.091 17.728 407.675 16.432 407.675 14.832C407.675 12.528 408.299 10.656 409.547 9.216C410.795 7.776 412.443 6.784 414.491 6.24L414.011 1.056C414.427 0.799997 415.131 0.671997 416.123 0.671997C417.115 0.671997 417.851 0.799997 418.331 1.056L417.899 5.808C419.819 5.808 421.547 6.24 423.083 7.104C424.619 7.936 425.387 9.296 425.387 11.184ZM442.449 12.528C442.449 10.32 441.409 9.216 439.329 9.216C437.921 9.216 436.881 9.68 436.209 10.608C435.569 11.504 435.217 12.576 435.153 13.824C432.561 13.824 431.265 12.816 431.265 10.8C431.265 9.328 432.001 8.128 433.473 7.2C434.977 6.24 437.009 5.76 439.569 5.76C442.161 5.76 444.257 6.368 445.857 7.584C447.489 8.768 448.305 10.416 448.305 12.528C448.305 16.08 446.177 18.544 441.921 19.92C444.353 20.176 446.289 20.976 447.729 22.32C449.201 23.664 449.937 25.376 449.937 27.456C449.937 30.016 448.849 32.208 446.673 34.032C444.529 35.824 441.681 36.72 438.129 36.72C435.537 36.72 433.521 36.24 432.081 35.28C430.673 34.288 429.969 33.056 429.969 31.584C429.969 30.624 430.273 29.824 430.881 29.184C431.521 28.512 432.417 28.176 433.569 28.176C433.569 29.616 434.001 30.784 434.865 31.68C435.761 32.544 436.977 32.976 438.513 32.976C440.049 32.976 441.329 32.544 442.353 31.68C443.377 30.784 443.873 29.536 443.841 27.936C443.809 25.888 442.929 24.496 441.201 23.76C439.505 23.024 437.393 22.752 434.865 22.944L434.817 18.768C436.961 18.768 438.849 18.128 440.481 16.848C441.793 15.792 442.449 14.352 442.449 12.528ZM463.723 9.6C459.723 9.6 457.723 13.648 457.723 21.744C457.723 25.776 458.219 28.656 459.211 30.384C460.203 32.08 461.691 32.928 463.675 32.928C465.691 32.928 467.099 32.032 467.899 30.24C468.731 28.416 469.147 25.488 469.147 21.456C469.147 17.424 468.715 14.448 467.851 12.528C466.987 10.576 465.611 9.6 463.723 9.6ZM463.627 5.76C471.019 5.504 474.715 10.64 474.715 21.168C474.715 26.224 473.771 30.08 471.883 32.736C469.995 35.392 467.211 36.72 463.531 36.72C459.851 36.72 457.035 35.392 455.083 32.736C453.131 30.048 452.155 26.288 452.155 21.456C452.155 16.592 453.131 12.8 455.083 10.08C457.067 7.328 459.915 5.888 463.627 5.76Z" fill="black"/>
<line x1="43.3037" y1="48.5" x2="600" y2="48.5" stroke="black"/>
</svg>
