<svg width="547" height="50" viewBox="0 0 547 50" fill="none" xmlns="http://www.w3.org/2000/svg">
<path d="M84.3778 26H79.0258V25.808C79.0258 24.928 79.3778 24.456 80.0818 24.392L80.8258 24.344V15.632L79.8898 15.536C79.2338 15.472 78.9378 14.976 79.0018 14.048L83.7538 13.52V24.296L85.4578 24.44C85.5538 25.48 85.1938 26 84.3778 26ZM83.8738 10.664C83.8738 11.16 83.7058 11.584 83.3698 11.936C83.0338 12.272 82.6098 12.44 82.0978 12.44C81.6018 12.44 81.1778 12.272 80.8258 11.936C80.4898 11.584 80.3218 11.16 80.3218 10.664C80.3218 10.168 80.4898 9.752 80.8258 9.416C81.1778 9.064 81.6018 8.888 82.0978 8.888C82.5938 8.888 83.0098 9.064 83.3458 9.416C83.6978 9.752 83.8738 10.168 83.8738 10.664ZM99.5539 26H94.2499V25.808C94.2499 24.928 94.6019 24.456 95.3059 24.392L96.0019 24.344V18.44C96.0019 17.512 95.8179 16.864 95.4499 16.496C95.0819 16.112 94.5699 15.92 93.9139 15.92C93.2579 15.92 92.7219 16.008 92.3059 16.184C91.8899 16.36 91.4579 16.64 91.0099 17.024V24.296L92.7139 24.44C92.8099 25.48 92.4499 26 91.6339 26H86.2819V25.808C86.2819 24.928 86.6339 24.456 87.3379 24.392L88.0819 24.344V15.776L87.1459 15.68C86.4899 15.616 86.1939 15.12 86.2579 14.192L90.6019 13.664L90.7699 15.128H90.8419C91.4339 14.616 92.0019 14.224 92.5459 13.952C93.1059 13.664 93.7619 13.52 94.5139 13.52C95.7459 13.52 96.7859 13.936 97.6339 14.768C98.4979 15.584 98.9299 16.848 98.9299 18.56V24.296L100.634 24.44C100.73 25.48 100.37 26 99.5539 26ZM106.02 22.496C105.62 22.496 105.22 22.456 104.82 22.376C104.596 22.776 104.484 23.064 104.484 23.24C104.484 23.416 104.668 23.536 105.036 23.6C105.404 23.648 106.276 23.696 107.652 23.744C109.028 23.792 110.092 24.04 110.844 24.488C111.612 24.92 111.996 25.672 111.996 26.744C111.996 28.216 111.428 29.392 110.292 30.272C109.156 31.152 107.756 31.592 106.092 31.592C104.444 31.592 103.204 31.288 102.372 30.68C101.556 30.072 101.148 29.288 101.148 28.328C101.148 27.368 101.612 26.456 102.54 25.592C102.3 25.304 102.18 24.92 102.18 24.44C102.18 23.592 102.58 22.704 103.38 21.776C102.148 20.976 101.532 19.76 101.532 18.128C101.532 16.8 101.956 15.704 102.804 14.84C103.668 13.96 104.82 13.52 106.26 13.52C107.204 13.52 108.036 13.712 108.756 14.096L111.972 13.232C112.116 13.408 112.196 13.736 112.212 14.216C112.228 14.696 112.148 15.016 111.972 15.176C111.732 15.304 111.108 15.352 110.1 15.32C110.564 16.008 110.764 16.968 110.7 18.2C110.636 19.416 110.18 20.44 109.332 21.272C108.484 22.088 107.38 22.496 106.02 22.496ZM109.956 27.488C109.956 27.12 109.684 26.88 109.14 26.768C108.596 26.656 107.676 26.568 106.38 26.504C105.084 26.44 104.252 26.368 103.884 26.288C103.484 26.768 103.284 27.256 103.284 27.752C103.284 28.248 103.54 28.656 104.052 28.976C104.564 29.296 105.332 29.456 106.356 29.456C107.38 29.456 108.236 29.264 108.924 28.88C109.612 28.512 109.956 28.048 109.956 27.488ZM106.068 20.744C106.644 20.744 107.1 20.512 107.436 20.048C107.772 19.568 107.94 18.904 107.94 18.056C107.94 17.192 107.78 16.528 107.46 16.064C107.14 15.584 106.684 15.344 106.092 15.344C105.5 15.344 105.044 15.584 104.724 16.064C104.42 16.544 104.268 17.216 104.268 18.08C104.268 19.856 104.868 20.744 106.068 20.744ZM117.237 15.632C117.621 15.12 118.165 14.64 118.869 14.192C119.589 13.744 120.205 13.52 120.717 13.52C121.245 13.52 121.685 13.688 122.037 14.024C122.389 14.36 122.565 14.92 122.565 15.704C122.565 16.472 122.301 17.088 121.773 17.552C121.501 17.76 121.045 17.824 120.405 17.744C120.405 17.216 120.357 16.816 120.261 16.544C120.165 16.256 120.061 16.088 119.949 16.04C119.837 15.976 119.685 15.944 119.493 15.944C118.693 15.944 117.973 16.464 117.333 17.504V24.296L119.277 24.44C119.373 25.48 119.013 26 118.197 26H112.653C112.653 26 112.653 25.936 112.653 25.808C112.653 24.928 113.005 24.456 113.709 24.392L114.405 24.344V15.752L113.349 15.632C112.853 15.584 112.605 15.104 112.605 14.192L116.949 13.64L117.165 15.632H117.237ZM126.1 20.12V20.384C126.1 21.68 126.332 22.648 126.796 23.288C127.276 23.912 128.092 24.224 129.244 24.224C130.412 24.224 131.556 23.784 132.676 22.904C132.996 23.144 133.156 23.52 133.156 24.032C133.156 24.528 132.708 25.04 131.812 25.568C130.932 26.096 129.828 26.36 128.5 26.36C126.772 26.36 125.428 25.856 124.468 24.848C123.524 23.824 123.052 22.28 123.052 20.216C123.052 18.136 123.564 16.504 124.588 15.32C125.628 14.12 127.052 13.52 128.86 13.52C130.396 13.52 131.54 14 132.292 14.96C133.06 15.92 133.428 17.184 133.396 18.752V20.12H126.1ZM128.596 15.44C127.284 15.44 126.492 16.448 126.22 18.464H130.588C130.556 17.376 130.372 16.6 130.036 16.136C129.7 15.672 129.22 15.44 128.596 15.44ZM147.341 24.848C147.341 25.872 146.661 26.384 145.301 26.384C143.957 26.384 143.157 25.944 142.901 25.064C141.877 25.928 140.709 26.36 139.397 26.36C138.101 26.36 136.981 25.896 136.037 24.968C135.093 24.024 134.605 22.528 134.573 20.48C134.541 18.432 135.029 16.76 136.037 15.464C137.061 14.168 138.557 13.52 140.525 13.52C141.405 13.52 142.165 13.656 142.805 13.928V10.952L141.869 10.856C141.213 10.792 140.917 10.296 140.981 9.368L145.733 8.84V24.704L147.341 24.848ZM140.333 15.464C138.525 15.464 137.621 16.96 137.621 19.952C137.621 21.328 137.853 22.392 138.317 23.144C138.797 23.896 139.461 24.272 140.309 24.272C141.173 24.272 142.005 23.912 142.805 23.192V16.424C142.037 15.784 141.213 15.464 140.333 15.464ZM153.297 26H147.945V25.808C147.945 24.928 148.297 24.456 149.001 24.392L149.745 24.344V15.632L148.809 15.536C148.153 15.472 147.857 14.976 147.921 14.048L152.673 13.52V24.296L154.377 24.44C154.473 25.48 154.113 26 153.297 26ZM152.793 10.664C152.793 11.16 152.625 11.584 152.289 11.936C151.953 12.272 151.529 12.44 151.017 12.44C150.521 12.44 150.097 12.272 149.745 11.936C149.409 11.584 149.241 11.16 149.241 10.664C149.241 10.168 149.409 9.752 149.745 9.416C150.097 9.064 150.521 8.888 151.017 8.888C151.513 8.888 151.929 9.064 152.265 9.416C152.617 9.752 152.793 10.168 152.793 10.664ZM158.321 20.12V20.384C158.321 21.68 158.553 22.648 159.017 23.288C159.497 23.912 160.313 24.224 161.465 24.224C162.633 24.224 163.777 23.784 164.897 22.904C165.217 23.144 165.377 23.52 165.377 24.032C165.377 24.528 164.929 25.04 164.033 25.568C163.153 26.096 162.049 26.36 160.721 26.36C158.993 26.36 157.649 25.856 156.689 24.848C155.745 23.824 155.273 22.28 155.273 20.216C155.273 18.136 155.785 16.504 156.809 15.32C157.849 14.12 159.273 13.52 161.081 13.52C162.617 13.52 163.761 14 164.513 14.96C165.281 15.92 165.649 17.184 165.617 18.752V20.12H158.321ZM160.817 15.44C159.505 15.44 158.713 16.448 158.441 18.464H162.809C162.777 17.376 162.593 16.6 162.257 16.136C161.921 15.672 161.441 15.44 160.817 15.44ZM179.995 26H174.691V25.808C174.691 24.928 175.043 24.456 175.747 24.392L176.443 24.344V18.44C176.443 17.512 176.259 16.864 175.891 16.496C175.523 16.112 175.011 15.92 174.355 15.92C173.699 15.92 173.163 16.008 172.747 16.184C172.331 16.36 171.899 16.64 171.451 17.024V24.296L173.155 24.44C173.251 25.48 172.891 26 172.075 26H166.723V25.808C166.723 24.928 167.075 24.456 167.779 24.392L168.523 24.344V15.776L167.587 15.68C166.931 15.616 166.635 15.12 166.699 14.192L171.043 13.664L171.211 15.128H171.283C171.875 14.616 172.443 14.224 172.987 13.952C173.547 13.664 174.203 13.52 174.955 13.52C176.187 13.52 177.227 13.936 178.075 14.768C178.939 15.584 179.371 16.848 179.371 18.56V24.296L181.075 24.44C181.171 25.48 180.811 26 179.995 26ZM186.125 15.56V22.208C186.125 23.504 186.541 24.152 187.373 24.152C187.981 24.152 188.485 24.072 188.885 23.912C189.301 23.752 189.741 23.48 190.205 23.096C190.285 23.096 190.389 23.2 190.517 23.408C190.645 23.616 190.709 23.84 190.709 24.08C190.709 24.704 190.269 25.24 189.389 25.688C188.509 26.136 187.653 26.36 186.821 26.36C185.989 26.36 185.333 26.24 184.853 26C184.373 25.776 184.013 25.44 183.773 24.992C183.389 24.256 183.197 23.28 183.197 22.064V15.56H181.205C181.205 14.44 181.597 13.88 182.381 13.88H183.197V10.808L186.125 10.496V13.88H190.445C190.477 14.12 190.453 14.392 190.373 14.696C190.229 15.272 189.861 15.56 189.269 15.56H186.125Z" fill="black"/>
</svg>
