<svg width="405" height="50" viewBox="0 0 405 50" fill="none" xmlns="http://www.w3.org/2000/svg">
<line y1="0.5" x2="401.99" y2="0.5" stroke="black"/>
<g filter="url(#filter0_d_863_961)">
<path d="M9.69629 1H400.696V21.9594C400.696 33.0051 391.742 41.9594 380.696 41.9594H29.6963C18.6506 41.9594 9.69629 33.0051 9.69629 21.9594V1Z" fill="#D9D9D9" fill-opacity="0.03" shape-rendering="crispEdges"/>
</g>
<path d="M68.0313 24.011H64.2403V23.875C64.2403 23.2517 64.4896 22.9173 64.9883 22.872L65.5153 22.838V16.667L64.8523 16.599C64.3876 16.5537 64.178 16.2023 64.2233 15.545L67.5893 15.171V22.804L68.7963 22.906C68.8643 23.6427 68.6093 24.011 68.0313 24.011ZM67.6743 13.148C67.6743 13.4993 67.5553 13.7997 67.3173 14.049C67.0793 14.287 66.779 14.406 66.4163 14.406C66.065 14.406 65.7646 14.287 65.5153 14.049C65.2773 13.7997 65.1583 13.4993 65.1583 13.148C65.1583 12.7967 65.2773 12.502 65.5153 12.264C65.7646 12.0147 66.065 11.89 66.4163 11.89C66.7676 11.89 67.0623 12.0147 67.3003 12.264C67.5496 12.502 67.6743 12.7967 67.6743 13.148ZM78.662 24.011H74.905V23.875C74.905 23.2517 75.1543 22.9173 75.653 22.872L76.146 22.838V18.656C76.146 17.9987 76.0157 17.5397 75.755 17.279C75.4943 17.007 75.1317 16.871 74.667 16.871C74.2023 16.871 73.8227 16.9333 73.528 17.058C73.2333 17.1827 72.9273 17.381 72.61 17.653V22.804L73.817 22.906C73.885 23.6427 73.63 24.011 73.052 24.011H69.261V23.875C69.261 23.2517 69.5103 22.9173 70.009 22.872L70.536 22.838V16.769L69.873 16.701C69.4083 16.6557 69.1987 16.3043 69.244 15.647L72.321 15.273L72.44 16.31H72.491C72.9103 15.9473 73.3127 15.6697 73.698 15.477C74.0947 15.273 74.5593 15.171 75.092 15.171C75.9647 15.171 76.7013 15.4657 77.302 16.055C77.914 16.633 78.22 17.5283 78.22 18.741V22.804L79.427 22.906C79.495 23.6427 79.24 24.011 78.662 24.011ZM83.123 21.529C82.8397 21.529 82.5564 21.5007 82.273 21.444C82.1144 21.7273 82.035 21.9313 82.035 22.056C82.035 22.1807 82.1654 22.2657 82.426 22.311C82.6867 22.345 83.3044 22.379 84.279 22.413C85.2537 22.447 86.0074 22.6227 86.54 22.94C87.084 23.246 87.356 23.7787 87.356 24.538C87.356 25.5807 86.9537 26.4137 86.149 27.037C85.3444 27.6603 84.3527 27.972 83.174 27.972C82.0067 27.972 81.1284 27.7567 80.539 27.326C79.961 26.8953 79.672 26.34 79.672 25.66C79.672 24.98 80.0007 24.334 80.658 23.722C80.488 23.518 80.403 23.246 80.403 22.906C80.403 22.3053 80.6864 21.6763 81.253 21.019C80.3804 20.4523 79.944 19.591 79.944 18.435C79.944 17.4943 80.2444 16.718 80.845 16.106C81.457 15.4827 82.273 15.171 83.293 15.171C83.9617 15.171 84.551 15.307 85.061 15.579L87.339 14.967C87.441 15.0917 87.4977 15.324 87.509 15.664C87.5204 16.004 87.4637 16.2307 87.339 16.344C87.169 16.4347 86.727 16.4687 86.013 16.446C86.3417 16.9333 86.4834 17.6133 86.438 18.486C86.3927 19.3473 86.0697 20.0727 85.469 20.662C84.8684 21.24 84.0864 21.529 83.123 21.529ZM85.911 25.065C85.911 24.8043 85.7184 24.6343 85.333 24.555C84.9477 24.4757 84.296 24.4133 83.378 24.368C82.46 24.3227 81.8707 24.2717 81.61 24.215C81.3267 24.555 81.185 24.9007 81.185 25.252C81.185 25.6033 81.3664 25.8923 81.729 26.119C82.0917 26.3457 82.6357 26.459 83.361 26.459C84.0864 26.459 84.6927 26.323 85.18 26.051C85.6674 25.7903 85.911 25.4617 85.911 25.065ZM83.157 20.288C83.565 20.288 83.888 20.1237 84.126 19.795C84.364 19.455 84.483 18.9847 84.483 18.384C84.483 17.772 84.3697 17.3017 84.143 16.973C83.9164 16.633 83.5934 16.463 83.174 16.463C82.7547 16.463 82.4317 16.633 82.205 16.973C81.9897 17.313 81.882 17.789 81.882 18.401C81.882 19.659 82.307 20.288 83.157 20.288ZM90.9498 16.667C91.2218 16.3043 91.6071 15.9643 92.1058 15.647C92.6158 15.3297 93.0521 15.171 93.4148 15.171C93.7888 15.171 94.1005 15.29 94.3498 15.528C94.5991 15.766 94.7238 16.1627 94.7238 16.718C94.7238 17.262 94.5368 17.6983 94.1628 18.027C93.9701 18.1743 93.6471 18.2197 93.1938 18.163C93.1938 17.789 93.1598 17.5057 93.0918 17.313C93.0238 17.109 92.9501 16.99 92.8708 16.956C92.7915 16.9107 92.6838 16.888 92.5478 16.888C91.9811 16.888 91.4711 17.2563 91.0178 17.993V22.804L92.3948 22.906C92.4628 23.6427 92.2078 24.011 91.6298 24.011H87.7028C87.7028 24.011 87.7028 23.9657 87.7028 23.875C87.7028 23.2517 87.9521 22.9173 88.4508 22.872L88.9438 22.838V16.752L88.1958 16.667C87.8445 16.633 87.6688 16.293 87.6688 15.647L90.7458 15.256L90.8988 16.667H90.9498ZM97.1083 19.846V20.033C97.1083 20.951 97.2727 21.6367 97.6013 22.09C97.9413 22.532 98.5193 22.753 99.3353 22.753C100.163 22.753 100.973 22.4413 101.766 21.818C101.993 21.988 102.106 22.2543 102.106 22.617C102.106 22.9683 101.789 23.331 101.154 23.705C100.531 24.079 99.749 24.266 98.8083 24.266C97.5843 24.266 96.6323 23.909 95.9523 23.195C95.2837 22.4697 94.9493 21.376 94.9493 19.914C94.9493 18.4407 95.312 17.2847 96.0373 16.446C96.774 15.596 97.7827 15.171 99.0633 15.171C100.151 15.171 100.962 15.511 101.494 16.191C102.038 16.871 102.299 17.7663 102.276 18.877V19.846H97.1083ZM98.8763 16.531C97.947 16.531 97.386 17.245 97.1933 18.673H100.287C100.265 17.9023 100.134 17.3527 99.8963 17.024C99.6583 16.6953 99.3183 16.531 98.8763 16.531ZM112.036 23.195C112.036 23.9203 111.554 24.283 110.591 24.283C109.639 24.283 109.072 23.9713 108.891 23.348C108.165 23.96 107.338 24.266 106.409 24.266C105.491 24.266 104.697 23.9373 104.029 23.28C103.36 22.6113 103.014 21.5517 102.992 20.101C102.969 18.6503 103.315 17.466 104.029 16.548C104.754 15.63 105.814 15.171 107.208 15.171C107.831 15.171 108.369 15.2673 108.823 15.46V13.352L108.16 13.284C107.695 13.2387 107.485 12.8873 107.531 12.23L110.897 11.856V23.093L112.036 23.195ZM107.072 16.548C105.791 16.548 105.151 17.6077 105.151 19.727C105.151 20.7017 105.315 21.4553 105.644 21.988C105.984 22.5207 106.454 22.787 107.055 22.787C107.667 22.787 108.256 22.532 108.823 22.022V17.228C108.279 16.7747 107.695 16.548 107.072 16.548ZM116.135 24.011H112.344V23.875C112.344 23.2517 112.593 22.9173 113.092 22.872L113.619 22.838V16.667L112.956 16.599C112.491 16.5537 112.282 16.2023 112.327 15.545L115.693 15.171V22.804L116.9 22.906C116.968 23.6427 116.713 24.011 116.135 24.011ZM115.778 13.148C115.778 13.4993 115.659 13.7997 115.421 14.049C115.183 14.287 114.883 14.406 114.52 14.406C114.169 14.406 113.868 14.287 113.619 14.049C113.381 13.7997 113.262 13.4993 113.262 13.148C113.262 12.7967 113.381 12.502 113.619 12.264C113.868 12.0147 114.169 11.89 114.52 11.89C114.871 11.89 115.166 12.0147 115.404 12.264C115.653 12.502 115.778 12.7967 115.778 13.148ZM119.575 19.846V20.033C119.575 20.951 119.739 21.6367 120.068 22.09C120.408 22.532 120.986 22.753 121.802 22.753C122.629 22.753 123.439 22.4413 124.233 21.818C124.459 21.988 124.573 22.2543 124.573 22.617C124.573 22.9683 124.255 23.331 123.621 23.705C122.997 24.079 122.215 24.266 121.275 24.266C120.051 24.266 119.099 23.909 118.419 23.195C117.75 22.4697 117.416 21.376 117.416 19.914C117.416 18.4407 117.778 17.2847 118.504 16.446C119.24 15.596 120.249 15.171 121.53 15.171C122.618 15.171 123.428 15.511 123.961 16.191C124.505 16.871 124.765 17.7663 124.743 18.877V19.846H119.575ZM121.343 16.531C120.413 16.531 119.852 17.245 119.66 18.673H122.754C122.731 17.9023 122.601 17.3527 122.363 17.024C122.125 16.6953 121.785 16.531 121.343 16.531ZM134.808 24.011H131.051V23.875C131.051 23.2517 131.3 22.9173 131.799 22.872L132.292 22.838V18.656C132.292 17.9987 132.162 17.5397 131.901 17.279C131.64 17.007 131.278 16.871 130.813 16.871C130.348 16.871 129.969 16.9333 129.674 17.058C129.379 17.1827 129.073 17.381 128.756 17.653V22.804L129.963 22.906C130.031 23.6427 129.776 24.011 129.198 24.011H125.407V23.875C125.407 23.2517 125.656 22.9173 126.155 22.872L126.682 22.838V16.769L126.019 16.701C125.554 16.6557 125.345 16.3043 125.39 15.647L128.467 15.273L128.586 16.31H128.637C129.056 15.9473 129.459 15.6697 129.844 15.477C130.241 15.273 130.705 15.171 131.238 15.171C132.111 15.171 132.847 15.4657 133.448 16.055C134.06 16.633 134.366 17.5283 134.366 18.741V22.804L135.573 22.906C135.641 23.6427 135.386 24.011 134.808 24.011ZM139.031 16.616V21.325C139.031 22.243 139.326 22.702 139.915 22.702C140.346 22.702 140.703 22.6453 140.986 22.532C141.281 22.4187 141.592 22.226 141.921 21.954C141.978 21.954 142.051 22.0277 142.142 22.175C142.233 22.3223 142.278 22.481 142.278 22.651C142.278 23.093 141.966 23.4727 141.343 23.79C140.72 24.1073 140.113 24.266 139.524 24.266C138.935 24.266 138.47 24.181 138.13 24.011C137.79 23.8523 137.535 23.6143 137.365 23.297C137.093 22.7757 136.957 22.0843 136.957 21.223V16.616H135.546C135.546 15.8227 135.824 15.426 136.379 15.426H136.957V13.25L139.031 13.029V15.426H142.091C142.114 15.596 142.097 15.7887 142.04 16.004C141.938 16.412 141.677 16.616 141.258 16.616H139.031Z" fill="black"/>
<rect width="10.3893" height="2.10243" rx="1.05122" transform="matrix(0.770583 0.63734 -0.674509 0.738267 363.114 13.2876)" fill="black"/>
<rect width="10.3893" height="2.10302" rx="1.05151" transform="matrix(0.770583 -0.63734 0.674509 0.738267 368.272 19.8958)" fill="black"/>
<defs>
<filter id="filter0_d_863_961" x="5.69629" y="1" width="399" height="48.9595" filterUnits="userSpaceOnUse" color-interpolation-filters="sRGB">
<feFlood flood-opacity="0" result="BackgroundImageFix"/>
<feColorMatrix in="SourceAlpha" type="matrix" values="0 0 0 0 0 0 0 0 0 0 0 0 0 0 0 0 0 0 127 0" result="hardAlpha"/>
<feOffset dy="4"/>
<feGaussianBlur stdDeviation="2"/>
<feComposite in2="hardAlpha" operator="out"/>
<feColorMatrix type="matrix" values="0 0 0 0 0 0 0 0 0 0 0 0 0 0 0 0 0 0 0.25 0"/>
<feBlend mode="normal" in2="BackgroundImageFix" result="effect1_dropShadow_863_961"/>
<feBlend mode="normal" in="SourceGraphic" in2="effect1_dropShadow_863_961" result="shape"/>
</filter>
</defs>
</svg>
