<svg width="366" height="77" viewBox="0 0 366 77" fill="none" xmlns="http://www.w3.org/2000/svg">
<g style="mix-blend-mode:plus-darker">
<rect width="366" height="77" rx="38.5" fill="#CF5BCA"/>
</g>
<path d="M137.786 42.0469C137.786 41.099 137.978 40.1875 138.364 39.3125C138.541 39.3125 138.817 39.349 139.192 39.4219C139.567 39.4844 139.963 39.5677 140.379 39.6719C140.327 37.4323 140.301 35.2448 140.301 33.1094C140.301 30.8073 140.343 28.8438 140.426 27.2188H140.411L140.426 27.0312L137.879 26.7031C137.723 26.0677 137.619 25.5417 137.567 25.125C137.515 24.6979 137.494 24.2083 137.504 23.6562C137.838 23.2812 138.327 22.9531 138.973 22.6719C139.629 22.3802 140.333 22.1615 141.083 22.0156C141.843 21.8594 142.536 21.7812 143.161 21.7812C144.359 21.7812 145.291 22.0208 145.958 22.5C146.635 22.9688 147.02 23.7188 147.114 24.75C147.145 25.1562 147.161 25.599 147.161 26.0781C147.161 27.6615 147.02 29.5365 146.739 31.7031C146.458 33.8698 146.083 36.401 145.614 39.2969L145.489 40.1094L149.473 40.3281L151.098 35.1406C151.588 35.1198 152.145 35.1562 152.77 35.25C153.405 35.3438 153.952 35.474 154.411 35.6406C154.598 36.1302 154.77 36.9115 154.926 37.9844C155.093 39.0469 155.176 40.0885 155.176 41.1094C155.176 42.8073 154.926 44 154.426 44.6875C154.176 45.0208 153.827 45.3125 153.379 45.5625C152.942 45.8021 152.478 45.9844 151.989 46.1094C151.51 46.2448 151.077 46.3125 150.692 46.3125C150.077 46.3125 149.359 46.1823 148.536 45.9219C147.713 45.651 146.905 45.3125 146.114 44.9062C145.322 44.4896 144.671 44.0729 144.161 43.6562C143.692 44.4688 143.15 45.099 142.536 45.5469C141.921 45.9948 141.155 46.25 140.239 46.3125C139.791 46.2396 139.379 46.0052 139.004 45.6094C138.629 45.2135 138.333 44.7031 138.114 44.0781C137.895 43.4531 137.786 42.776 137.786 42.0469ZM155.706 36.7656C155.706 34.8802 156.008 33.2448 156.612 31.8594C157.216 30.474 158.143 29.401 159.393 28.6406C160.643 27.8698 162.211 27.4844 164.096 27.4844C166.18 27.4844 167.815 27.875 169.003 28.6562C170.19 29.4271 171.018 30.5 171.487 31.875C171.966 33.25 172.206 34.9323 172.206 36.9219C172.206 38.724 171.888 40.3333 171.253 41.75C170.628 43.1562 169.68 44.2708 168.409 45.0938C167.148 45.9062 165.602 46.3125 163.768 46.3125C160.935 46.3125 158.883 45.4427 157.612 43.7031C156.341 41.9531 155.706 39.6406 155.706 36.7656ZM164.409 41.7344C164.94 41.7344 165.263 41.6927 165.378 41.6094C165.617 41.1927 165.799 40.6042 165.924 39.8438C166.049 39.0833 166.112 38.2604 166.112 37.375C166.112 36.5625 166.06 35.8021 165.956 35.0938C165.852 34.375 165.706 33.8125 165.518 33.4062C165.404 33.2708 165.174 33.1719 164.831 33.1094C164.487 33.0365 164.112 33 163.706 33C163.174 33 162.81 33.0573 162.612 33.1719C162.091 34.0677 161.831 35.3125 161.831 36.9062C161.831 37.6562 161.888 38.4219 162.003 39.2031C162.117 39.9844 162.263 40.6927 162.44 41.3281C162.565 41.4635 162.82 41.5677 163.206 41.6406C163.591 41.7031 163.992 41.7344 164.409 41.7344ZM183.048 48.4844C183.746 48.4844 184.35 48.4062 184.86 48.25C185.017 48.0938 185.126 47.9115 185.188 47.7031C185.251 47.5052 185.282 47.3177 185.282 47.1406C185.282 46.9531 185.267 46.8125 185.235 46.7188C185.204 46.6354 185.152 46.5573 185.079 46.4844C184.642 46.4115 184.126 46.3594 183.532 46.3281C182.949 46.3073 182.6 46.2917 182.485 46.2812C181.037 46.2188 179.86 46.1146 178.954 45.9688C178.048 45.8125 177.272 45.4792 176.626 44.9688C175.98 44.4479 175.657 43.6667 175.657 42.625C175.657 42.0625 175.839 41.5365 176.204 41.0469C176.569 40.5469 177.043 40.1094 177.626 39.7344C176.438 39.2448 175.485 38.5104 174.767 37.5312C174.058 36.5417 173.704 35.2656 173.704 33.7031C173.704 32.151 174.1 30.9062 174.892 29.9688C175.694 29.0208 176.678 28.3542 177.845 27.9688C179.011 27.5833 180.199 27.3906 181.407 27.3906C182.168 27.3906 182.912 27.4635 183.642 27.6094C184.371 27.7552 185.048 27.9635 185.673 28.2344L185.001 24.2656C185.636 23.8802 186.428 23.6875 187.376 23.6875C188.063 23.6875 188.704 23.8021 189.298 24.0312C189.892 24.2604 190.345 24.5885 190.657 25.0156C190.678 25.1198 190.688 25.2865 190.688 25.5156C190.688 26.3698 190.532 27.3229 190.22 28.375C189.918 29.4167 189.392 30.2552 188.642 30.8906C189.017 31.6406 189.204 32.4479 189.204 33.3125C189.204 34.5833 188.959 35.7552 188.47 36.8281C187.99 37.901 187.188 38.776 186.063 39.4531C184.938 40.1198 183.475 40.4531 181.673 40.4531C181.152 40.4531 180.61 40.4219 180.048 40.3594C180.017 40.8802 180.142 41.401 180.423 41.9219C181.829 41.651 182.964 41.5104 183.829 41.5L184.892 41.4844C186.329 41.4844 187.418 41.5729 188.157 41.75C188.97 41.9479 189.574 42.3958 189.97 43.0938C190.376 43.7917 190.579 44.6406 190.579 45.6406C190.579 47.2031 190.1 48.5156 189.142 49.5781C188.194 50.651 186.959 51.4479 185.438 51.9688C183.928 52.4896 182.324 52.75 180.626 52.75C179.053 52.75 177.652 52.4844 176.423 51.9531C175.194 51.4219 174.418 50.4479 174.095 49.0312C174.438 47.8333 175.095 46.9271 176.063 46.3125C177.365 47.0938 178.61 47.651 179.798 47.9844C180.996 48.3177 182.079 48.4844 183.048 48.4844ZM182.095 36.5938C182.845 36.5938 183.282 36.5469 183.407 36.4531C183.688 35.8906 183.829 35.3125 183.829 34.7188C183.829 34.1042 183.688 33.526 183.407 32.9844C183.272 32.8698 182.97 32.7812 182.501 32.7188C182.043 32.6562 181.543 32.625 181.001 32.625C180.324 32.625 179.871 32.6667 179.642 32.75C179.319 33.3229 179.157 33.901 179.157 34.4844C179.157 35.0781 179.308 35.6406 179.61 36.1719C179.839 36.3177 180.183 36.4271 180.642 36.5C181.11 36.5625 181.595 36.5938 182.095 36.5938ZM198.982 23.5781C198.982 22.6615 199.279 21.9167 199.872 21.3438C200.477 20.7708 201.435 20.4844 202.747 20.4844C204.06 20.4844 205.013 20.7708 205.607 21.3438C206.211 21.9167 206.513 22.6615 206.513 23.5781C206.513 24.099 206.331 24.5781 205.966 25.0156C205.612 25.4531 205.143 25.8021 204.56 26.0625C203.977 26.3125 203.372 26.4375 202.747 26.4375C202.07 26.4375 201.44 26.2917 200.857 26C200.284 25.6979 199.826 25.3229 199.482 24.875C199.148 24.4271 198.982 23.9948 198.982 23.5781ZM198.216 32.5156C198.081 32.0052 197.987 31.5417 197.935 31.125C197.883 30.6979 197.857 30.2552 197.857 29.7969L197.872 29.3594C198.091 29.0781 198.43 28.7969 198.888 28.5156C199.357 28.224 199.898 27.9792 200.513 27.7812C201.138 27.5833 201.784 27.4844 202.451 27.4844C203.909 27.4844 204.945 27.8125 205.56 28.4688C206.174 29.125 206.482 30.1458 206.482 31.5312C206.482 32.3646 206.362 33.4531 206.122 34.7969C205.893 36.1406 205.612 37.4479 205.279 38.7188C204.956 39.9792 204.674 40.8802 204.435 41.4219L204.466 41.4531L206.779 40.6094C207.195 40.9635 207.508 41.3542 207.716 41.7812C207.935 42.2083 208.076 42.7031 208.138 43.2656C208.138 43.3385 207.909 43.6406 207.451 44.1719C206.992 44.6927 206.383 45.1823 205.622 45.6406C204.872 46.0885 204.003 46.3125 203.013 46.3125C202.013 46.3125 201.201 46.0417 200.576 45.5C199.961 44.9583 199.654 44.0312 199.654 42.7188C199.654 41.1875 199.695 39.5625 199.779 37.8438C199.862 36.125 199.992 34.4583 200.169 32.8438L198.216 32.5156ZM210.543 40.5625C210.543 38.8646 210.563 37.5833 210.605 36.7188C210.647 35.8438 210.756 34.5625 210.933 32.875L209.121 32.6406C208.902 31.9635 208.756 31.3594 208.683 30.8281C208.621 30.2969 208.589 29.6094 208.589 28.7656C208.756 28.6198 209.032 28.4479 209.418 28.25C209.813 28.0417 210.282 27.8646 210.824 27.7188C211.365 27.5625 211.912 27.4844 212.464 27.4844C213.725 27.4844 214.615 27.7552 215.136 28.2969C215.668 28.8385 215.933 29.651 215.933 30.7344C215.933 31.3385 215.845 32.1562 215.668 33.1875C215.376 34.8438 215.23 35.7135 215.23 35.7969C215.23 35.849 215.266 35.901 215.339 35.9531C215.412 35.9948 215.49 36.0156 215.574 36.0156C215.668 36.0156 215.73 35.9792 215.761 35.9062C216.178 34.25 216.595 32.8646 217.011 31.75C217.428 30.6354 218.058 29.6458 218.902 28.7812C219.746 27.9167 220.839 27.4844 222.183 27.4844C223.85 27.4844 225.048 27.9948 225.777 29.0156C226.506 30.026 226.871 31.3021 226.871 32.8438C226.871 34.2188 226.709 35.5469 226.386 36.8281C226.063 38.099 225.662 39.4271 225.183 40.8125C225.204 40.7604 225.131 40.9635 224.964 41.4219L224.996 41.4531L227.277 40.5156C228.089 41.2135 228.563 42.1406 228.699 43.2969C228.699 43.3698 228.464 43.6667 227.996 44.1875C227.537 44.7083 226.928 45.1927 226.168 45.6406C225.407 46.0885 224.532 46.3125 223.543 46.3125C222.553 46.3125 221.746 46.0469 221.121 45.5156C220.496 44.9844 220.183 44.0781 220.183 42.7969C220.183 41.776 220.225 40.4115 220.308 38.7031C220.391 36.9948 220.475 35.6198 220.558 34.5781C220.287 34.2865 219.954 34.1302 219.558 34.1094C219.194 34.5781 218.657 35.5156 217.949 36.9219C217.24 38.3281 216.74 39.3802 216.449 40.0781C216.428 40.224 216.418 40.3646 216.418 40.5C216.418 41.0208 216.496 41.724 216.652 42.6094C216.808 43.4844 217.001 44.3021 217.23 45.0625C217.043 45.4167 216.657 45.7135 216.074 45.9531C215.49 46.1927 214.772 46.3125 213.918 46.3125C213.147 46.3125 212.527 46.25 212.058 46.125C211.6 46 211.277 45.8698 211.089 45.7344C210.902 45.5885 210.808 45.5 210.808 45.4688C210.798 45.375 210.772 45.1302 210.73 44.7344C210.688 44.3281 210.647 43.7656 210.605 43.0469C210.563 42.3177 210.543 41.4896 210.543 40.5625Z" fill="white"/>
</svg>
