<svg width="201" height="63" viewBox="0 0 201 63" fill="none" xmlns="http://www.w3.org/2000/svg">
<rect width="201" height="62.7529" rx="31.3765" fill="#D764D7"/>
<path d="M58.6761 34.2383C58.7464 34.2617 58.8948 34.3164 59.1214 34.4023C59.3558 34.4805 59.6136 34.5469 59.8948 34.6016V23.5625L58.055 22.9414C57.8753 22.5195 57.7855 22.0352 57.7855 21.4883C57.7855 21.043 57.8558 20.6445 57.9964 20.293C58.5589 20.1445 59.2347 20.0312 60.0238 19.9531C60.8206 19.8672 61.5902 19.8242 62.3323 19.8242C63.4339 19.8242 64.4066 19.9062 65.2503 20.0703C65.6409 20.8281 66.2191 22.2539 66.9847 24.3477C67.7581 26.4414 68.6878 29.1875 69.7738 32.5859L69.973 32.5625C69.7464 30.6328 69.5198 28.3711 69.2933 25.7773C69.0745 23.1758 68.9652 21.3945 68.9652 20.4336C69.3714 20.2461 69.8245 20.1016 70.3245 20C70.8245 19.8906 71.2855 19.8359 71.7073 19.8359C72.3948 19.8359 73.055 19.9766 73.6878 20.2578L72.5511 35.0703C72.9573 35.6562 73.2113 36.3438 73.3128 37.1328C72.9925 37.4844 72.5042 37.7578 71.848 37.9531C71.1995 38.1406 70.5081 38.2344 69.7738 38.2344C69.2034 38.2344 68.6839 38.1758 68.2152 38.0586C67.7542 37.9414 67.3948 37.7617 67.137 37.5195C67.1448 36.9336 67.1956 36.3984 67.2894 35.9141C66.7034 34.7422 66.137 33.4531 65.5902 32.0469C65.0511 30.6328 64.3636 28.7578 63.5277 26.4219L63.012 24.9922L62.9417 25.0039C63.1058 26.2227 63.2816 28.0195 63.4691 30.3945C63.6566 32.7617 63.7503 34.4922 63.7503 35.5859C63.7503 36.4609 63.4886 37.1211 62.9652 37.5664C62.4495 38.0117 61.6409 38.2344 60.5394 38.2344C60.1956 38.2344 59.8284 38.168 59.4378 38.0352C59.0472 37.9023 58.6917 37.7344 58.3714 37.5312C58.0589 37.3203 57.8402 37.1172 57.7152 36.9219C57.7152 36.3594 57.8011 35.8242 57.973 35.3164C58.1448 34.8086 58.3792 34.4492 58.6761 34.2383ZM74.8853 31.1914C74.8853 29.8398 75.1118 28.6328 75.565 27.5703C76.0181 26.5078 76.7173 25.668 77.6626 25.0508C78.6157 24.4258 79.8032 24.1133 81.2251 24.1133C81.9673 24.1133 82.7095 24.2031 83.4517 24.3828C84.1939 24.5547 84.8228 24.8438 85.3384 25.25C85.815 25.6328 86.1587 26.1406 86.3697 26.7734C86.5884 27.3984 86.6978 28.0938 86.6978 28.8594C86.6978 29.3672 86.6548 29.8867 86.5689 30.418C86.4751 30.5742 86.2915 30.7812 86.0181 31.0391C85.7447 31.2891 85.4243 31.5352 85.0572 31.7773C84.69 32.0195 84.3345 32.207 83.9907 32.3398C83.6626 32.3633 83.3228 32.375 82.9712 32.375C82.354 32.375 81.729 32.3477 81.0962 32.293C80.4634 32.2383 79.9087 32.1758 79.4322 32.1055C79.4947 32.7695 79.6978 33.3477 80.0415 33.8398C80.3853 34.332 80.9322 34.5781 81.6822 34.5781C81.7525 34.5781 81.8657 34.5703 82.022 34.5547C82.4986 34.5078 83.0532 34.3828 83.6861 34.1797C84.3267 33.9688 84.9634 33.7266 85.5962 33.4531C85.8931 33.75 86.1118 34.0469 86.2525 34.3438C86.3931 34.6406 86.4907 35.0664 86.5454 35.6211C86.3032 35.9023 85.9087 36.2461 85.3618 36.6523C84.8228 37.0586 84.1626 37.4258 83.3814 37.7539C82.6001 38.0742 81.7837 38.2344 80.9322 38.2344C79.6509 38.2344 78.5532 37.9258 77.6392 37.3086C76.7329 36.6836 76.0454 35.8398 75.5767 34.7773C75.1157 33.707 74.8853 32.5117 74.8853 31.1914ZM82.4322 28.4961C82.3228 28.3789 82.1392 28.2891 81.8814 28.2266C81.6236 28.1562 81.354 28.1211 81.0728 28.1211C80.8462 28.1211 80.6157 28.1406 80.3814 28.1797C80.1548 28.2188 80.0181 28.2617 79.9712 28.3086C79.7056 28.832 79.5376 29.4258 79.4673 30.0898L82.5962 29.7852L82.4322 28.4961ZM87.3327 33.7109C87.7077 33.25 88.0788 32.918 88.446 32.7148C88.8132 32.5117 89.282 32.3828 89.8523 32.3281C89.9538 32.4141 90.1023 32.5977 90.2976 32.8789C90.4929 33.1523 90.6062 33.3125 90.6374 33.3594L90.8835 33.7227L91.8679 31.2852L90.2976 28.918L88.8913 29.6797L87.4265 28.0859C87.5593 27.5234 87.7937 26.9414 88.1296 26.3398C88.4656 25.7305 88.9109 25.2109 89.4656 24.7812C90.0202 24.3516 90.6609 24.1367 91.3874 24.1367C93.0281 24.1367 93.9734 25.7617 94.2234 29.0117H94.4109C94.614 27.8008 94.7937 26.8867 94.9499 26.2695C95.1062 25.6523 95.3093 25.1953 95.5593 24.8984C95.989 24.3828 96.5242 24.125 97.1648 24.125C97.6101 24.125 98.0398 24.2617 98.4538 24.5352C98.8679 24.8086 99.2195 25.207 99.5085 25.7305C99.7742 26.2305 99.9851 26.7188 100.141 27.1953C100.305 27.6641 100.391 28.1523 100.399 28.6602C100.063 29.0664 99.6765 29.3906 99.239 29.6328C98.8093 29.8672 98.3484 30.0156 97.8562 30.0781C97.739 29.9688 97.5554 29.75 97.3054 29.4219C97.0554 29.0938 96.8796 28.8242 96.7781 28.6133L95.4187 31.2383L97.2585 33.6523L98.7468 32.5391L100.329 33.8047C100.266 34.5 100.083 35.1875 99.7781 35.8672C99.4734 36.5469 99.0515 37.1133 98.5124 37.5664C97.9812 38.0117 97.3562 38.2344 96.6374 38.2344C95.9265 38.2344 95.3484 37.9961 94.9031 37.5195C94.4656 37.043 94.1374 36.4961 93.9187 35.8789C93.6999 35.2617 93.4851 34.4961 93.2742 33.582H93.0163C92.8757 34.3867 92.7156 35.1055 92.5359 35.7383C92.364 36.3633 92.0788 36.9375 91.6804 37.4609C91.282 37.9766 90.7585 38.2344 90.1101 38.2344C89.571 38.2344 89.0906 37.9805 88.6687 37.4727C88.2546 36.957 87.9304 36.3398 87.696 35.6211C87.4617 34.9023 87.3406 34.2656 87.3327 33.7109ZM101.89 31.5312C101.89 30.2578 101.909 29.0977 101.948 28.0508L100.671 27.8281C100.569 27.4375 100.499 27.0938 100.46 26.7969C100.421 26.5 100.401 26.1836 100.401 25.8477L100.425 25.6133C100.448 25.5039 100.46 25.4141 100.46 25.3438L102.159 24.9688C102.198 24.4844 102.288 23.9375 102.429 23.3281C102.569 22.7188 102.718 22.2695 102.874 21.9805C103.124 21.793 103.425 21.6523 103.776 21.5586C104.128 21.4648 104.507 21.418 104.913 21.418C105.257 21.418 105.589 21.4531 105.909 21.5234C106.237 21.5859 106.522 21.6719 106.765 21.7812C106.788 22.0469 106.8 22.3516 106.8 22.6953C106.8 23.2578 106.772 23.8945 106.718 24.6055L108.78 24.2305C109.069 24.7305 109.214 25.2734 109.214 25.8594C109.214 26.2656 109.163 26.6328 109.061 26.9609C108.968 27.2891 108.835 27.6602 108.663 28.0742C108.147 28.1602 107.44 28.2148 106.542 28.2383C106.433 29.5117 106.19 31.3828 105.815 33.8516L105.757 34.25L105.78 34.2734L108.534 33.418C109.104 33.8945 109.452 34.6289 109.577 35.6211C109.577 35.6758 109.323 35.9336 108.815 36.3945C108.315 36.8477 107.686 37.2695 106.929 37.6602C106.171 38.043 105.347 38.2344 104.456 38.2344C102.901 38.2344 102.073 37.2852 101.972 35.3867C101.917 34.4258 101.89 33.1406 101.89 31.5312Z" fill="white"/>
<rect width="24.8481" height="5.3156" rx="2.6578" transform="matrix(0.781227 -0.624247 0.856048 0.516896 151.037 41.2524)" fill="white"/>
<rect width="24.8481" height="5.31709" rx="2.65855" transform="matrix(-0.781227 -0.624247 0.856048 -0.516896 170.411 31.2598)" fill="white"/>
</svg>
