<svg width="549" height="56" viewBox="0 0 549 56" fill="none" xmlns="http://www.w3.org/2000/svg">
<path d="M92.7021 26H87.3981V25.808C87.3981 24.928 87.7501 24.456 88.4541 24.392L89.1501 24.344V18.44C89.1501 17.512 88.9661 16.864 88.5981 16.496C88.2301 16.112 87.7181 15.92 87.0621 15.92C86.4061 15.92 85.8701 16.008 85.4541 16.184C85.0381 16.36 84.6061 16.64 84.1581 17.024V24.296L85.8621 24.44C85.9581 25.48 85.5981 26 84.7821 26H79.4301V25.808C79.4301 24.928 79.7821 24.456 80.4861 24.392L81.2301 24.344V15.776L80.2941 15.68C79.6381 15.616 79.3421 15.12 79.4061 14.192L83.7501 13.664L83.9181 15.128H83.9901C84.5821 14.616 85.1501 14.224 85.6941 13.952C86.2541 13.664 86.9101 13.52 87.6621 13.52C88.8941 13.52 89.9341 13.936 90.7821 14.768C91.6461 15.584 92.0781 16.848 92.0781 18.56V24.296L93.7821 24.44C93.8781 25.48 93.5181 26 92.7021 26ZM101.52 15.392C101.52 14.384 101.872 13.88 102.576 13.88H106.32V24.392H106.848C107.392 24.408 107.664 24.912 107.664 25.904L104.256 26.24L103.752 24.896C102.616 25.872 101.44 26.36 100.224 26.36C99.024 26.36 97.992 25.952 97.128 25.136C96.264 24.304 95.832 23.032 95.832 21.32V15.584H94.08V15.392C94.08 14.384 94.432 13.88 95.136 13.88H98.76V21.44C98.76 22.432 98.952 23.136 99.336 23.552C99.72 23.968 100.312 24.176 101.112 24.176C101.912 24.176 102.672 23.904 103.392 23.36V15.584H101.52V15.392ZM112.838 15.56V22.208C112.838 23.504 113.254 24.152 114.086 24.152C114.694 24.152 115.198 24.072 115.598 23.912C116.014 23.752 116.454 23.48 116.918 23.096C116.998 23.096 117.102 23.2 117.23 23.408C117.358 23.616 117.422 23.84 117.422 24.08C117.422 24.704 116.982 25.24 116.102 25.688C115.222 26.136 114.366 26.36 113.534 26.36C112.702 26.36 112.046 26.24 111.566 26C111.086 25.776 110.726 25.44 110.486 24.992C110.102 24.256 109.91 23.28 109.91 22.064V15.56H107.918C107.918 14.44 108.31 13.88 109.094 13.88H109.91V10.808L112.838 10.496V13.88H117.158C117.19 14.12 117.166 14.392 117.086 14.696C116.942 15.272 116.574 15.56 115.982 15.56H112.838ZM122.634 15.632C123.018 15.12 123.562 14.64 124.266 14.192C124.986 13.744 125.602 13.52 126.114 13.52C126.642 13.52 127.082 13.688 127.434 14.024C127.786 14.36 127.962 14.92 127.962 15.704C127.962 16.472 127.698 17.088 127.17 17.552C126.898 17.76 126.442 17.824 125.802 17.744C125.802 17.216 125.754 16.816 125.658 16.544C125.562 16.256 125.458 16.088 125.346 16.04C125.234 15.976 125.082 15.944 124.89 15.944C124.09 15.944 123.37 16.464 122.73 17.504V24.296L124.674 24.44C124.77 25.48 124.41 26 123.594 26H118.05C118.05 26 118.05 25.936 118.05 25.808C118.05 24.928 118.402 24.456 119.106 24.392L119.802 24.344V15.752L118.746 15.632C118.25 15.584 118.002 15.104 118.002 14.192L122.346 13.64L122.562 15.632H122.634ZM133.728 26H128.376V25.808C128.376 24.928 128.728 24.456 129.432 24.392L130.176 24.344V15.632L129.24 15.536C128.584 15.472 128.288 14.976 128.352 14.048L133.104 13.52V24.296L134.808 24.44C134.904 25.48 134.544 26 133.728 26ZM133.224 10.664C133.224 11.16 133.056 11.584 132.72 11.936C132.384 12.272 131.96 12.44 131.448 12.44C130.952 12.44 130.528 12.272 130.176 11.936C129.84 11.584 129.672 11.16 129.672 10.664C129.672 10.168 129.84 9.752 130.176 9.416C130.528 9.064 130.952 8.888 131.448 8.888C131.944 8.888 132.36 9.064 132.696 9.416C133.048 9.752 133.224 10.168 133.224 10.664ZM139.856 15.56V22.208C139.856 23.504 140.272 24.152 141.104 24.152C141.712 24.152 142.216 24.072 142.616 23.912C143.032 23.752 143.472 23.48 143.936 23.096C144.016 23.096 144.12 23.2 144.248 23.408C144.376 23.616 144.44 23.84 144.44 24.08C144.44 24.704 144 25.24 143.12 25.688C142.24 26.136 141.384 26.36 140.552 26.36C139.72 26.36 139.064 26.24 138.584 26C138.104 25.776 137.744 25.44 137.504 24.992C137.12 24.256 136.928 23.28 136.928 22.064V15.56H134.936C134.936 14.44 135.328 13.88 136.112 13.88H136.928V10.808L139.856 10.496V13.88H144.176C144.208 14.12 144.184 14.392 144.104 14.696C143.96 15.272 143.592 15.56 143 15.56H139.856ZM150.42 26H145.068V25.808C145.068 24.928 145.42 24.456 146.124 24.392L146.868 24.344V15.632L145.932 15.536C145.276 15.472 144.98 14.976 145.044 14.048L149.796 13.52V24.296L151.5 24.44C151.596 25.48 151.236 26 150.42 26ZM149.916 10.664C149.916 11.16 149.748 11.584 149.412 11.936C149.076 12.272 148.652 12.44 148.14 12.44C147.644 12.44 147.22 12.272 146.868 11.936C146.532 11.584 146.364 11.16 146.364 10.664C146.364 10.168 146.532 9.752 146.868 9.416C147.22 9.064 147.644 8.888 148.14 8.888C148.636 8.888 149.052 9.064 149.388 9.416C149.74 9.752 149.916 10.168 149.916 10.664ZM159.98 16.64C159.532 15.792 158.892 15.368 158.06 15.368C157.228 15.368 156.58 15.784 156.116 16.616C155.668 17.448 155.444 18.584 155.444 20.024C155.444 21.448 155.668 22.56 156.116 23.36C156.58 24.144 157.228 24.536 158.06 24.536C158.892 24.536 159.532 24.152 159.98 23.384C160.444 22.6 160.676 21.496 160.676 20.072C160.676 18.632 160.444 17.488 159.98 16.64ZM152.396 20.144C152.396 18.096 152.9 16.48 153.908 15.296C154.932 14.112 156.348 13.52 158.156 13.52C159.964 13.52 161.34 14.088 162.284 15.224C163.244 16.36 163.724 17.936 163.724 19.952C163.724 21.952 163.212 23.52 162.188 24.656C161.164 25.792 159.732 26.36 157.892 26.36C156.068 26.36 154.692 25.832 153.764 24.776C152.852 23.72 152.396 22.176 152.396 20.144ZM178.196 26H172.892V25.808C172.892 24.928 173.244 24.456 173.948 24.392L174.644 24.344V18.44C174.644 17.512 174.46 16.864 174.092 16.496C173.724 16.112 173.212 15.92 172.556 15.92C171.9 15.92 171.364 16.008 170.948 16.184C170.532 16.36 170.1 16.64 169.652 17.024V24.296L171.356 24.44C171.452 25.48 171.092 26 170.276 26H164.924V25.808C164.924 24.928 165.276 24.456 165.98 24.392L166.724 24.344V15.776L165.788 15.68C165.132 15.616 164.836 15.12 164.9 14.192L169.244 13.664L169.412 15.128H169.484C170.076 14.616 170.644 14.224 171.188 13.952C171.748 13.664 172.404 13.52 173.156 13.52C174.388 13.52 175.428 13.936 176.276 14.768C177.14 15.584 177.572 16.848 177.572 18.56V24.296L179.276 24.44C179.372 25.48 179.012 26 178.196 26Z" fill="black"/>
</svg>
