<svg width="399" height="49" viewBox="0 0 399 49" fill="none" xmlns="http://www.w3.org/2000/svg">
<g filter="url(#filter0_d_863_968)">
<path d="M4 0H395V20.9594C395 32.0051 386.046 40.9594 375 40.9594H24C12.9543 40.9594 4 32.0051 4 20.9594V0Z" fill="#D9D9D9" fill-opacity="0.03" shape-rendering="crispEdges"/>
</g>
<path d="M68.945 23.011H65.188V22.875C65.188 22.2517 65.4373 21.9173 65.936 21.872L66.429 21.838V17.656C66.429 16.9987 66.2987 16.5397 66.038 16.279C65.7773 16.007 65.4147 15.871 64.95 15.871C64.4853 15.871 64.1057 15.9333 63.811 16.058C63.5163 16.1827 63.2103 16.381 62.893 16.653V21.804L64.1 21.906C64.168 22.6427 63.913 23.011 63.335 23.011H59.544V22.875C59.544 22.2517 59.7933 21.9173 60.292 21.872L60.819 21.838V15.769L60.156 15.701C59.6913 15.6557 59.4817 15.3043 59.527 14.647L62.604 14.273L62.723 15.31H62.774C63.1933 14.9473 63.5957 14.6697 63.981 14.477C64.3777 14.273 64.8423 14.171 65.375 14.171C66.2477 14.171 66.9843 14.4657 67.585 15.055C68.197 15.633 68.503 16.5283 68.503 17.741V21.804L69.71 21.906C69.778 22.6427 69.523 23.011 68.945 23.011ZM75.072 15.497C75.072 14.783 75.3214 14.426 75.82 14.426H78.472V21.872H78.846C79.2314 21.8833 79.424 22.2403 79.424 22.943L77.01 23.181L76.653 22.229C75.8484 22.9203 75.0154 23.266 74.154 23.266C73.304 23.266 72.573 22.977 71.961 22.399C71.349 21.8097 71.043 20.9087 71.043 19.696V15.633H69.802V15.497C69.802 14.783 70.0514 14.426 70.55 14.426H73.117V19.781C73.117 20.4837 73.253 20.9823 73.525 21.277C73.797 21.5717 74.2164 21.719 74.783 21.719C75.3497 21.719 75.888 21.5263 76.398 21.141V15.633H75.072V15.497ZM82.97 15.616V20.325C82.97 21.243 83.2647 21.702 83.854 21.702C84.2847 21.702 84.6417 21.6453 84.925 21.532C85.2197 21.4187 85.5313 21.226 85.86 20.954C85.9167 20.954 85.9903 21.0277 86.081 21.175C86.1717 21.3223 86.217 21.481 86.217 21.651C86.217 22.093 85.9053 22.4727 85.282 22.79C84.6587 23.1073 84.0523 23.266 83.463 23.266C82.8737 23.266 82.409 23.181 82.069 23.011C81.729 22.8523 81.474 22.6143 81.304 22.297C81.032 21.7757 80.896 21.0843 80.896 20.223V15.616H79.485C79.485 14.8227 79.7627 14.426 80.318 14.426H80.896V12.25L82.97 12.029V14.426H86.03C86.0527 14.596 86.0357 14.7887 85.979 15.004C85.877 15.412 85.6163 15.616 85.197 15.616H82.97ZM89.7897 15.667C90.0617 15.3043 90.447 14.9643 90.9457 14.647C91.4557 14.3297 91.892 14.171 92.2547 14.171C92.6287 14.171 92.9403 14.29 93.1897 14.528C93.439 14.766 93.5637 15.1627 93.5637 15.718C93.5637 16.262 93.3767 16.6983 93.0027 17.027C92.81 17.1743 92.487 17.2197 92.0337 17.163C92.0337 16.789 91.9997 16.5057 91.9317 16.313C91.8637 16.109 91.79 15.99 91.7107 15.956C91.6313 15.9107 91.5237 15.888 91.3877 15.888C90.821 15.888 90.311 16.2563 89.8577 16.993V21.804L91.2347 21.906C91.3027 22.6427 91.0477 23.011 90.4697 23.011H86.5427C86.5427 23.011 86.5427 22.9657 86.5427 22.875C86.5427 22.2517 86.792 21.9173 87.2907 21.872L87.7837 21.838V15.752L87.0357 15.667C86.6843 15.633 86.5087 15.293 86.5087 14.647L89.5857 14.256L89.7387 15.667H89.7897ZM97.5292 23.011H93.7382V22.875C93.7382 22.2517 93.9875 21.9173 94.4862 21.872L95.0132 21.838V15.667L94.3502 15.599C93.8855 15.5537 93.6758 15.2023 93.7212 14.545L97.0872 14.171V21.804L98.2942 21.906C98.3622 22.6427 98.1072 23.011 97.5292 23.011ZM97.1722 12.148C97.1722 12.4993 97.0532 12.7997 96.8152 13.049C96.5772 13.287 96.2768 13.406 95.9142 13.406C95.5628 13.406 95.2625 13.287 95.0132 13.049C94.7752 12.7997 94.6562 12.4993 94.6562 12.148C94.6562 11.7967 94.7752 11.502 95.0132 11.264C95.2625 11.0147 95.5628 10.89 95.9142 10.89C96.2655 10.89 96.5602 11.0147 96.7982 11.264C97.0475 11.502 97.1722 11.7967 97.1722 12.148ZM101.751 15.616V20.325C101.751 21.243 102.046 21.702 102.635 21.702C103.066 21.702 103.423 21.6453 103.706 21.532C104.001 21.4187 104.312 21.226 104.641 20.954C104.698 20.954 104.771 21.0277 104.862 21.175C104.953 21.3223 104.998 21.481 104.998 21.651C104.998 22.093 104.686 22.4727 104.063 22.79C103.44 23.1073 102.833 23.266 102.244 23.266C101.655 23.266 101.19 23.181 100.85 23.011C100.51 22.8523 100.255 22.6143 100.085 22.297C99.8129 21.7757 99.6769 21.0843 99.6769 20.223V15.616H98.2659C98.2659 14.8227 98.5435 14.426 99.0989 14.426H99.6769V12.25L101.751 12.029V14.426H104.811C104.834 14.596 104.817 14.7887 104.76 15.004C104.658 15.412 104.397 15.616 103.978 15.616H101.751ZM109.115 23.011H105.324V22.875C105.324 22.2517 105.573 21.9173 106.072 21.872L106.599 21.838V15.667L105.936 15.599C105.471 15.5537 105.261 15.2023 105.307 14.545L108.673 14.171V21.804L109.88 21.906C109.948 22.6427 109.693 23.011 109.115 23.011ZM108.758 12.148C108.758 12.4993 108.639 12.7997 108.401 13.049C108.163 13.287 107.862 13.406 107.5 13.406C107.148 13.406 106.848 13.287 106.599 13.049C106.361 12.7997 106.242 12.4993 106.242 12.148C106.242 11.7967 106.361 11.502 106.599 11.264C106.848 11.0147 107.148 10.89 107.5 10.89C107.851 10.89 108.146 11.0147 108.384 11.264C108.633 11.502 108.758 11.7967 108.758 12.148ZM115.767 16.381C115.45 15.7803 114.997 15.48 114.407 15.48C113.818 15.48 113.359 15.7747 113.03 16.364C112.713 16.9533 112.554 17.758 112.554 18.778C112.554 19.7867 112.713 20.5743 113.03 21.141C113.359 21.6963 113.818 21.974 114.407 21.974C114.997 21.974 115.45 21.702 115.767 21.158C116.096 20.6027 116.26 19.8207 116.26 18.812C116.26 17.792 116.096 16.9817 115.767 16.381ZM110.395 18.863C110.395 17.4123 110.752 16.2677 111.466 15.429C112.192 14.5903 113.195 14.171 114.475 14.171C115.756 14.171 116.731 14.5733 117.399 15.378C118.079 16.1827 118.419 17.299 118.419 18.727C118.419 20.1437 118.057 21.2543 117.331 22.059C116.606 22.8637 115.592 23.266 114.288 23.266C112.996 23.266 112.022 22.892 111.364 22.144C110.718 21.396 110.395 20.3023 110.395 18.863ZM128.551 23.011H124.794V22.875C124.794 22.2517 125.043 21.9173 125.542 21.872L126.035 21.838V17.656C126.035 16.9987 125.905 16.5397 125.644 16.279C125.383 16.007 125.021 15.871 124.556 15.871C124.091 15.871 123.712 15.9333 123.417 16.058C123.122 16.1827 122.816 16.381 122.499 16.653V21.804L123.706 21.906C123.774 22.6427 123.519 23.011 122.941 23.011H119.15V22.875C119.15 22.2517 119.399 21.9173 119.898 21.872L120.425 21.838V15.769L119.762 15.701C119.297 15.6557 119.088 15.3043 119.133 14.647L122.21 14.273L122.329 15.31H122.38C122.799 14.9473 123.202 14.6697 123.587 14.477C123.984 14.273 124.448 14.171 124.981 14.171C125.854 14.171 126.59 14.4657 127.191 15.055C127.803 15.633 128.109 16.5283 128.109 17.741V21.804L129.316 21.906C129.384 22.6427 129.129 23.011 128.551 23.011Z" fill="black"/>
<rect width="10.3893" height="2.10243" rx="1.05122" transform="matrix(0.770583 0.63734 -0.674509 0.738267 358.418 12.3013)" fill="black"/>
<rect width="10.3893" height="2.10302" rx="1.05151" transform="matrix(0.770583 -0.63734 0.674509 0.738267 363.576 18.9094)" fill="black"/>
<defs>
<filter id="filter0_d_863_968" x="0" y="0" width="399" height="48.9595" filterUnits="userSpaceOnUse" color-interpolation-filters="sRGB">
<feFlood flood-opacity="0" result="BackgroundImageFix"/>
<feColorMatrix in="SourceAlpha" type="matrix" values="0 0 0 0 0 0 0 0 0 0 0 0 0 0 0 0 0 0 127 0" result="hardAlpha"/>
<feOffset dy="4"/>
<feGaussianBlur stdDeviation="2"/>
<feComposite in2="hardAlpha" operator="out"/>
<feColorMatrix type="matrix" values="0 0 0 0 0 0 0 0 0 0 0 0 0 0 0 0 0 0 0.25 0"/>
<feBlend mode="normal" in2="BackgroundImageFix" result="effect1_dropShadow_863_968"/>
<feBlend mode="normal" in="SourceGraphic" in2="effect1_dropShadow_863_968" result="shape"/>
</filter>
</defs>
</svg>
