<svg width="327" height="521" viewBox="0 0 327 521" fill="none" xmlns="http://www.w3.org/2000/svg">
<rect x="2.5" y="2.5" width="322" height="516" rx="43.5" stroke="black" stroke-width="5"/>
<path d="M29.5562 59.0942C29.5562 58.0926 29.7166 57.2238 30.0376 56.4878C30.3586 55.7518 30.8511 55.1818 31.5151 54.7778C32.1792 54.3683 33.012 54.1636 34.0137 54.1636C35.1204 54.1636 35.9893 54.3711 36.6201 54.7861C37.251 55.1956 37.6909 55.7656 37.9399 56.4961C38.1945 57.2266 38.3218 58.1203 38.3218 59.1772C38.3218 60.1346 38.153 60.9896 37.8154 61.7422C37.4834 62.4893 36.9798 63.0814 36.3047 63.5186C35.6351 63.9502 34.8133 64.166 33.8394 64.166C32.3341 64.166 31.244 63.7039 30.5688 62.7798C29.8937 61.8501 29.5562 60.6216 29.5562 59.0942ZM34.1797 61.7339C34.4619 61.7339 34.6335 61.7118 34.6943 61.6675C34.8216 61.4461 34.9185 61.1335 34.9849 60.7295C35.0513 60.3255 35.0845 59.8883 35.0845 59.418C35.0845 58.9863 35.0568 58.5824 35.0015 58.2061C34.9461 57.8242 34.8687 57.5254 34.769 57.3096C34.7082 57.2376 34.5864 57.1851 34.4038 57.1519C34.2212 57.1131 34.022 57.0938 33.8062 57.0938C33.5239 57.0938 33.3302 57.1242 33.2251 57.1851C32.9484 57.661 32.8101 58.3223 32.8101 59.1689C32.8101 59.5674 32.8405 59.9741 32.9014 60.3892C32.9622 60.8042 33.0397 61.1805 33.1338 61.5181C33.2002 61.59 33.3358 61.6453 33.5405 61.6841C33.7453 61.7173 33.9583 61.7339 34.1797 61.7339ZM39.8728 61.7754C39.8728 61.5374 39.8783 60.9536 39.8894 60.0239C39.906 58.1978 39.9143 57.1989 39.9143 57.0273L39.1506 56.9028C39.0455 56.5874 38.9707 56.2913 38.9265 56.0146C38.8822 55.738 38.8601 55.4585 38.8601 55.1763C38.8601 55.0601 38.8628 54.9715 38.8684 54.9106C38.9624 54.8276 39.1091 54.728 39.3083 54.6118C39.5075 54.4956 39.7427 54.3932 40.0139 54.3047C40.285 54.2106 40.5617 54.1636 40.844 54.1636C41.5025 54.1636 41.9784 54.3102 42.2717 54.6035C42.5705 54.8968 42.7199 55.3257 42.7199 55.8901C42.7199 56.2332 42.6757 56.6732 42.5871 57.21C42.5041 57.7412 42.4183 58.1203 42.3298 58.3472L42.6286 58.397L43.1267 56.521C43.348 55.6743 43.6247 55.0711 43.9567 54.7114C44.2888 54.3462 44.6623 54.1636 45.0774 54.1636C45.3485 54.1636 45.6169 54.2051 45.8825 54.2881C46.1537 54.3711 46.3612 54.4735 46.5051 54.5952C46.66 54.9383 46.7375 55.3949 46.7375 55.9648C46.7375 56.3633 46.6988 56.759 46.6213 57.1519C46.5438 57.5392 46.4442 57.8519 46.3225 58.0898L44.5793 57.8574C44.2251 58.2337 43.8488 58.7567 43.4504 59.4263C43.052 60.0903 42.7338 60.7018 42.4958 61.2607L42.4875 61.6924L44.0979 61.3105C44.369 61.7256 44.5267 62.2181 44.571 62.7881C44.571 62.8213 44.4465 62.9569 44.1975 63.1948C43.9484 63.4328 43.6192 63.6541 43.2097 63.8589C42.8057 64.0581 42.3409 64.1577 41.8151 64.1577C41.2728 64.1577 40.8191 64.0138 40.4538 63.7261C40.0941 63.4328 39.9032 62.9403 39.8811 62.2485C39.8755 62.1655 39.8728 62.0078 39.8728 61.7754ZM46.977 59.2104C46.977 58.3693 47.0932 57.5641 47.3256 56.7949C47.5636 56.0257 47.9343 55.3949 48.4379 54.9023C48.947 54.4098 49.5862 54.1636 50.3554 54.1636C51.2187 54.1636 52.0432 54.4375 52.829 54.9854L52.9618 54.9023C52.9452 54.2549 52.865 53.6683 52.7211 53.1426L51.0361 53.0347C50.9586 52.9351 50.8977 52.7884 50.8534 52.5947C50.8092 52.3955 50.787 52.1908 50.787 51.9805C50.787 51.6982 50.8202 51.4548 50.8866 51.25C51.2187 51.012 51.6448 50.8322 52.165 50.7104C52.6851 50.5887 53.2053 50.5278 53.7255 50.5278C54.301 50.5278 54.7354 50.6496 55.0287 50.8931C55.322 51.131 55.5185 51.4935 55.6181 51.9805C55.7232 52.4619 55.7758 53.1315 55.7758 53.9893C55.7758 55.1182 55.7288 56.3993 55.6347 57.8325C55.5406 59.2658 55.4189 60.4362 55.2694 61.3438L55.2362 61.4849L56.1991 61.0698C56.3596 61.2414 56.5007 61.4517 56.6225 61.7007C56.7498 61.9442 56.83 62.2264 56.8632 62.5474C56.7857 62.7134 56.6169 62.9264 56.3569 63.1865C56.0968 63.4411 55.7786 63.668 55.4023 63.8672C55.026 64.0664 54.6331 64.166 54.2236 64.166C53.7642 64.166 53.4101 64.0304 53.1611 63.7593C52.9176 63.4826 52.7958 63.1312 52.7958 62.7051C52.7958 62.5944 52.8235 62.3675 52.8788 62.0244C52.9397 61.6813 52.9895 61.4434 53.0282 61.3105L52.7792 61.2358C52.497 62.2264 52.1235 62.9624 51.6586 63.4438C51.1938 63.9253 50.6182 64.166 49.932 64.166C49.196 64.166 48.6067 63.9225 48.164 63.4355C47.7268 62.943 47.4197 62.326 47.2426 61.5845C47.0655 60.8429 46.977 60.0516 46.977 59.2104ZM52.6713 59.061C52.7045 58.8618 52.7211 58.6294 52.7211 58.3638C52.7211 58.1922 52.7128 58.029 52.6962 57.874C52.6851 57.7191 52.6713 57.6084 52.6547 57.542C52.4333 57.3815 52.1816 57.2681 51.8993 57.2017C51.6226 57.1353 51.3681 57.1021 51.1357 57.1021C50.9918 57.1021 50.8368 57.1159 50.6708 57.1436C50.5601 57.2542 50.4716 57.495 50.4052 57.8657C50.3388 58.231 50.3056 58.6432 50.3056 59.1025C50.3056 59.5951 50.3388 60.0737 50.4052 60.5386C50.4771 60.9979 50.5767 61.3576 50.704 61.6177C50.7926 61.6177 50.9641 61.4821 51.2187 61.2109C51.4788 60.9342 51.7472 60.5967 52.0238 60.1982C52.3005 59.7943 52.5164 59.4152 52.6713 59.061ZM57.0197 59.1772C57.0197 58.2199 57.1801 57.3649 57.5011 56.6123C57.8221 55.8597 58.3173 55.2648 58.9869 54.8276C59.6621 54.3849 60.5032 54.1636 61.5104 54.1636C62.0361 54.1636 62.5618 54.2272 63.0875 54.3545C63.6132 54.4762 64.0587 54.681 64.424 54.9688C64.7615 55.2399 65.005 55.5996 65.1544 56.0479C65.3094 56.4906 65.3868 56.9831 65.3868 57.5254C65.3868 57.8851 65.3564 58.2531 65.2955 58.6294C65.2291 58.7401 65.0991 58.8867 64.9054 59.0693C64.7117 59.2464 64.4848 59.4207 64.2247 59.5923C63.9646 59.7638 63.7128 59.8966 63.4694 59.9907C63.2369 60.0073 62.9962 60.0156 62.7472 60.0156C62.31 60.0156 61.8673 59.9963 61.4191 59.9575C60.9708 59.9188 60.5779 59.8745 60.2404 59.8247C60.2846 60.2951 60.4285 60.7046 60.672 61.0532C60.9155 61.4019 61.3029 61.5762 61.8341 61.5762C61.8839 61.5762 61.9642 61.5706 62.0748 61.5596C62.4124 61.5264 62.8053 61.4378 63.2535 61.2939C63.7073 61.1445 64.1583 60.973 64.6066 60.7793C64.8169 60.9896 64.9718 61.1999 65.0714 61.4102C65.171 61.6204 65.2402 61.922 65.2789 62.3149C65.1074 62.5142 64.8279 62.7576 64.4406 63.0454C64.0587 63.3332 63.5911 63.5933 63.0377 63.8257C62.4843 64.0526 61.906 64.166 61.3029 64.166C60.3953 64.166 59.6178 63.9474 58.9703 63.5103C58.3284 63.0675 57.8414 62.4699 57.5094 61.7173C57.1829 60.9591 57.0197 60.1125 57.0197 59.1772ZM62.3654 57.2681C62.2879 57.1851 62.1578 57.1214 61.9752 57.0771C61.7926 57.0273 61.6017 57.0024 61.4025 57.0024C61.242 57.0024 61.0787 57.0163 60.9127 57.0439C60.7522 57.0716 60.6554 57.1021 60.6222 57.1353C60.434 57.506 60.3151 57.9266 60.2653 58.397L62.4816 58.1812L62.3654 57.2681ZM66.9212 61.7754C66.9212 61.5374 66.9268 60.9536 66.9378 60.0239C66.9544 58.1978 66.9627 57.1989 66.9627 57.0273L66.1991 56.9028C66.0939 56.5874 66.0192 56.2913 65.9749 56.0146C65.9307 55.738 65.9085 55.4585 65.9085 55.1763C65.9085 55.0601 65.9113 54.9715 65.9168 54.9106C66.0109 54.8276 66.1576 54.728 66.3568 54.6118C66.556 54.4956 66.7912 54.3932 67.0623 54.3047C67.3335 54.2106 67.6102 54.1636 67.8924 54.1636C68.5509 54.1636 69.0269 54.3102 69.3201 54.6035C69.619 54.8968 69.7684 55.3257 69.7684 55.8901C69.7684 56.2332 69.7241 56.6732 69.6356 57.21C69.5526 57.7412 69.4668 58.1203 69.3783 58.3472L69.6771 58.397L70.1751 56.521C70.3965 55.6743 70.6732 55.0711 71.0052 54.7114C71.3372 54.3462 71.7108 54.1636 72.1258 54.1636C72.397 54.1636 72.6654 54.2051 72.931 54.2881C73.2021 54.3711 73.4097 54.4735 73.5535 54.5952C73.7085 54.9383 73.786 55.3949 73.786 55.9648C73.786 56.3633 73.7472 56.759 73.6698 57.1519C73.5923 57.5392 73.4927 57.8519 73.3709 58.0898L71.6278 57.8574C71.2736 58.2337 70.8973 58.7567 70.4989 59.4263C70.1004 60.0903 69.7822 60.7018 69.5443 61.2607L69.536 61.6924L71.1463 61.3105C71.4175 61.7256 71.5752 62.2181 71.6195 62.7881C71.6195 62.8213 71.495 62.9569 71.2459 63.1948C70.9969 63.4328 70.6676 63.6541 70.2581 63.8589C69.8542 64.0581 69.3893 64.1577 68.8636 64.1577C68.3213 64.1577 67.8675 64.0138 67.5023 63.7261C67.1426 63.4328 66.9517 62.9403 66.9295 62.2485C66.924 62.1655 66.9212 62.0078 66.9212 61.7754ZM78.1248 61.0698C78.6117 61.2635 79.0019 61.4129 79.2952 61.5181C79.5885 61.6232 79.9094 61.7145 80.2581 61.792C80.6122 61.8695 80.9636 61.9082 81.3123 61.9082C81.4672 61.9082 81.5779 61.8944 81.6443 61.8667C81.6609 61.8446 81.6747 61.8114 81.6858 61.7671C81.7024 61.7173 81.7107 61.6675 81.7107 61.6177C81.7107 61.507 81.6471 61.4157 81.5198 61.3438C81.3206 61.2331 80.9664 61.0588 80.4573 60.8208C79.76 60.4888 79.2066 60.1927 78.7971 59.9326C78.3931 59.6725 78.05 59.3267 77.7678 58.895C77.4911 58.4634 77.3528 57.9211 77.3528 57.2681C77.3528 56.3328 77.6322 55.583 78.1912 55.0186C78.7501 54.4486 79.6355 54.1636 80.8474 54.1636C82.2917 54.1636 83.4151 54.3517 84.2175 54.728C84.2563 54.8885 84.2756 55.0905 84.2756 55.334C84.2756 55.7988 84.2037 56.2747 84.0598 56.7617C83.9159 57.2432 83.7278 57.6001 83.4954 57.8325C83.1799 57.7274 82.7345 57.5586 82.1589 57.3262C81.7384 57.1602 81.4036 57.0329 81.1545 56.9443C80.9111 56.8503 80.6869 56.7839 80.4822 56.7451C80.3715 56.7728 80.283 56.8392 80.2166 56.9443C80.1501 57.0439 80.1169 57.1629 80.1169 57.3013C80.1169 57.423 80.1529 57.5254 80.2249 57.6084C80.2968 57.6914 80.377 57.7578 80.4656 57.8076C80.5597 57.8519 80.6925 57.9128 80.864 57.9902C80.9526 58.029 81.0356 58.0649 81.113 58.0981C81.1905 58.1258 81.2625 58.1535 81.3289 58.1812C81.7605 58.3638 82.1008 58.5132 82.3499 58.6294C82.5989 58.7456 82.8396 58.884 83.072 59.0444C83.4981 59.3377 83.8329 59.6725 84.0764 60.0488C84.3199 60.4251 84.4417 60.8374 84.4417 61.2856C84.4417 61.9054 84.2646 62.4422 83.9104 62.896C83.5618 63.3442 83.1135 63.6707 82.5657 63.8755C82.2779 63.9806 81.9625 64.0553 81.6194 64.0996C81.2818 64.1494 80.8861 64.1743 80.4324 64.1743C79.8956 64.1743 79.3422 64.0719 78.7722 63.8672C78.2078 63.6569 77.7761 63.3083 77.4773 62.8213C77.4828 62.4837 77.5271 62.1904 77.6101 61.9414C77.6986 61.6868 77.8702 61.3963 78.1248 61.0698ZM84.8803 56.8447C84.7863 56.4408 84.7254 56.1447 84.6977 55.9565C84.67 55.7684 84.6562 55.4834 84.6562 55.1016C84.9827 54.7917 85.3341 54.5592 85.7104 54.4043C86.0867 54.2438 86.51 54.1636 86.9804 54.1636C88.4082 54.1636 89.122 54.8802 89.122 56.3135C89.122 56.6953 89.0861 57.138 89.0141 57.6416C88.9477 58.1452 88.8509 58.7788 88.7236 59.5425C88.707 59.6421 88.6627 59.9105 88.5908 60.3477C88.5188 60.7848 88.469 61.1501 88.4414 61.4434C88.5354 61.543 88.6517 61.6121 88.79 61.6509C88.8564 61.6509 89.0086 61.5153 89.2465 61.2441C89.49 60.9674 89.7501 60.6326 90.0268 60.2397C90.3035 59.8468 90.5304 59.4844 90.7075 59.1523C90.7517 58.361 90.8126 57.6333 90.8901 56.9692L90.0185 56.7949C89.9466 56.5182 89.8968 56.2747 89.8691 56.0645C89.8414 55.8542 89.8276 55.63 89.8276 55.3921L89.8359 55.1597C90.0351 54.9051 90.3339 54.6755 90.7324 54.4707C91.1308 54.266 91.5874 54.1636 92.102 54.1636C93.5297 54.1636 94.2436 54.8802 94.2436 56.3135C94.2436 56.8945 94.1468 57.661 93.9531 58.6128C93.7594 59.5591 93.5325 60.5164 93.2724 61.4849L94.227 61.0698C94.3875 61.2414 94.5286 61.4517 94.6503 61.7007C94.7776 61.9442 94.8579 62.2264 94.8911 62.5474C94.8136 62.7134 94.6448 62.9264 94.3847 63.1865C94.1246 63.4411 93.8064 63.668 93.4301 63.8672C93.0538 64.0664 92.6609 64.166 92.2514 64.166C91.7921 64.166 91.4379 64.0304 91.1889 63.7593C90.9454 63.4826 90.8237 63.1312 90.8237 62.7051C90.8237 62.5944 90.8514 62.3675 90.9067 62.0244C90.9676 61.6813 91.0174 61.4434 91.0561 61.3105L90.8237 61.2358C90.547 62.2043 90.1652 62.9347 89.6782 63.4272C89.1967 63.9198 88.6461 64.166 88.0263 64.166C87.1354 64.166 86.5073 63.8727 86.142 63.2861C85.7768 62.694 85.5942 61.9608 85.5942 61.0864C85.5942 59.4429 85.6495 58.0705 85.7602 56.9692L84.8803 56.8447ZM95.9606 61.1113C95.9606 60.2093 95.9717 59.5286 95.9938 59.0693C96.0159 58.6045 96.0741 57.9238 96.1681 57.0273L95.2135 56.9028C95.0973 56.5431 95.0199 56.2222 94.9811 55.9399C94.9479 55.6577 94.9313 55.2925 94.9313 54.8442C95.0199 54.7668 95.1665 54.6755 95.3713 54.5703C95.5815 54.4596 95.8278 54.3656 96.11 54.2881C96.3978 54.2051 96.6883 54.1636 96.9816 54.1636C97.6512 54.1636 98.1243 54.3075 98.401 54.5952C98.6833 54.883 98.8244 55.3146 98.8244 55.8901C98.8244 56.2111 98.7773 56.6455 98.6833 57.1934C98.5283 58.0732 98.4508 58.5353 98.4508 58.5796C98.4508 58.6073 98.4702 58.6349 98.5089 58.6626C98.5477 58.6847 98.5892 58.6958 98.6335 58.6958C98.6833 58.6958 98.7165 58.6764 98.7331 58.6377C98.7275 58.6598 98.7912 58.3804 98.924 57.7993C99.0845 57.0356 99.2477 56.4131 99.4137 55.9316C99.5853 55.4502 99.8564 55.0379 100.227 54.6948C100.598 54.3517 101.102 54.1802 101.738 54.1802C102.524 54.1802 103.091 54.4071 103.44 54.8608C103.788 55.3091 103.963 55.9067 103.963 56.6538C103.963 57.2459 103.863 57.9045 103.664 58.6294C103.664 58.6571 103.683 58.6847 103.722 58.7124C103.761 58.7345 103.802 58.7456 103.846 58.7456C103.896 58.7456 103.929 58.7262 103.946 58.6875L104.062 58.2227C104.261 57.4036 104.458 56.723 104.652 56.1807C104.851 55.6383 105.147 55.1707 105.54 54.7778C105.938 54.3794 106.456 54.1802 107.092 54.1802C107.928 54.1802 108.528 54.4486 108.893 54.9854C109.264 55.5221 109.449 56.1973 109.449 57.0107C109.449 57.5863 109.394 58.1646 109.283 58.7456C109.178 59.3267 109.065 59.8136 108.943 60.2065C108.827 60.5994 108.683 61.0532 108.511 61.5679L108.528 61.5845L109.757 61.0698C110.188 61.4406 110.44 61.9331 110.512 62.5474C110.512 62.5861 110.387 62.7466 110.138 63.0288C109.889 63.3055 109.56 63.5656 109.151 63.8091C108.747 64.047 108.282 64.166 107.756 64.166C107.23 64.166 106.801 64.0249 106.469 63.7427C106.137 63.4604 105.971 62.979 105.971 62.2983C105.971 61.5402 105.985 60.7627 106.013 59.9658C106.046 59.1634 106.093 58.444 106.154 57.8076C106.06 57.7301 105.93 57.6886 105.764 57.6831C105.598 57.8436 105.39 58.195 105.141 58.7373C104.892 59.2741 104.663 59.8496 104.452 60.4639C104.242 61.0726 104.109 61.5485 104.054 61.8916C104.131 62.4339 104.25 62.9707 104.411 63.502C104.311 63.6901 104.106 63.8478 103.797 63.9751C103.487 64.1024 103.105 64.166 102.651 64.166C102.242 64.166 101.921 64.1328 101.688 64.0664C101.456 64 101.295 63.9308 101.207 63.8589C101.124 63.7869 101.082 63.7399 101.082 63.7178C101.077 63.668 101.063 63.5379 101.041 63.3276C101.019 63.1118 100.996 62.813 100.974 62.4312C100.952 62.0438 100.941 61.6038 100.941 61.1113C100.941 60.641 100.977 60.0516 101.049 59.3433C101.055 59.2547 101.071 59.0444 101.099 58.7124C101.126 58.3804 101.14 58.0788 101.14 57.8076C101.046 57.7301 100.916 57.6886 100.75 57.6831C100.656 57.755 100.393 58.2144 99.9616 59.061C99.5299 59.9077 99.2422 60.5054 99.0983 60.854C99.0872 60.9315 99.0817 61.0062 99.0817 61.0781C99.0817 61.3548 99.1232 61.7284 99.2062 62.1987C99.2892 62.6636 99.3916 63.098 99.5133 63.502C99.4137 63.6901 99.209 63.8478 98.8991 63.9751C98.5892 64.1024 98.2074 64.166 97.7536 64.166C97.3441 64.166 97.0148 64.1328 96.7658 64.0664C96.5223 64 96.3507 63.9308 96.2511 63.8589C96.1515 63.7814 96.1017 63.7344 96.1017 63.7178C96.0962 63.668 96.0824 63.5379 96.0602 63.3276C96.0381 63.1118 96.0159 62.813 95.9938 62.4312C95.9717 62.0438 95.9606 61.6038 95.9606 61.1113ZM111.424 61.1113C111.424 60.2093 111.435 59.5286 111.457 59.0693C111.479 58.6045 111.537 57.9238 111.631 57.0273L110.677 56.9028C110.56 56.5431 110.483 56.2222 110.444 55.9399C110.411 55.6577 110.394 55.2925 110.394 54.8442C110.483 54.7668 110.63 54.6755 110.834 54.5703C111.045 54.4596 111.291 54.3656 111.573 54.2881C111.861 54.2051 112.151 54.1636 112.445 54.1636C113.114 54.1636 113.587 54.3075 113.864 54.5952C114.146 54.883 114.287 55.3146 114.287 55.8901C114.287 56.2111 114.24 56.6455 114.146 57.1934C113.991 58.0732 113.914 58.5353 113.914 58.5796C113.914 58.6073 113.933 58.6349 113.972 58.6626C114.011 58.6847 114.052 58.6958 114.097 58.6958C114.146 58.6958 114.18 58.6764 114.196 58.6377C114.191 58.6598 114.254 58.3804 114.387 57.7993C114.548 57.0356 114.711 56.4131 114.877 55.9316C115.048 55.4502 115.32 55.0379 115.69 54.6948C116.061 54.3517 116.565 54.1802 117.201 54.1802C117.987 54.1802 118.554 54.4071 118.903 54.8608C119.251 55.3091 119.426 55.9067 119.426 56.6538C119.426 57.2459 119.326 57.9045 119.127 58.6294C119.127 58.6571 119.146 58.6847 119.185 58.7124C119.224 58.7345 119.265 58.7456 119.309 58.7456C119.359 58.7456 119.392 58.7262 119.409 58.6875L119.525 58.2227C119.724 57.4036 119.921 56.723 120.115 56.1807C120.314 55.6383 120.61 55.1707 121.003 54.7778C121.401 54.3794 121.919 54.1802 122.555 54.1802C123.391 54.1802 123.991 54.4486 124.356 54.9854C124.727 55.5221 124.912 56.1973 124.912 57.0107C124.912 57.5863 124.857 58.1646 124.746 58.7456C124.641 59.3267 124.528 59.8136 124.406 60.2065C124.29 60.5994 124.146 61.0532 123.974 61.5679L123.991 61.5845L125.22 61.0698C125.651 61.4406 125.903 61.9331 125.975 62.5474C125.975 62.5861 125.85 62.7466 125.601 63.0288C125.352 63.3055 125.023 63.5656 124.614 63.8091C124.21 64.047 123.745 64.166 123.219 64.166C122.693 64.166 122.265 64.0249 121.932 63.7427C121.6 63.4604 121.434 62.979 121.434 62.2983C121.434 61.5402 121.448 60.7627 121.476 59.9658C121.509 59.1634 121.556 58.444 121.617 57.8076C121.523 57.7301 121.393 57.6886 121.227 57.6831C121.061 57.8436 120.853 58.195 120.604 58.7373C120.355 59.2741 120.126 59.8496 119.915 60.4639C119.705 61.0726 119.572 61.5485 119.517 61.8916C119.594 62.4339 119.713 62.9707 119.874 63.502C119.774 63.6901 119.57 63.8478 119.26 63.9751C118.95 64.1024 118.568 64.166 118.114 64.166C117.705 64.166 117.384 64.1328 117.151 64.0664C116.919 64 116.758 63.9308 116.67 63.8589C116.587 63.7869 116.545 63.7399 116.545 63.7178C116.54 63.668 116.526 63.5379 116.504 63.3276C116.482 63.1118 116.46 62.813 116.437 62.4312C116.415 62.0438 116.404 61.6038 116.404 61.1113C116.404 60.641 116.44 60.0516 116.512 59.3433C116.518 59.2547 116.534 59.0444 116.562 58.7124C116.59 58.3804 116.603 58.0788 116.603 57.8076C116.509 57.7301 116.379 57.6886 116.213 57.6831C116.119 57.755 115.856 58.2144 115.425 59.061C114.993 59.9077 114.705 60.5054 114.561 60.854C114.55 60.9315 114.545 61.0062 114.545 61.0781C114.545 61.3548 114.586 61.7284 114.669 62.1987C114.752 62.6636 114.855 63.098 114.976 63.502C114.877 63.6901 114.672 63.8478 114.362 63.9751C114.052 64.1024 113.67 64.166 113.217 64.166C112.807 64.166 112.478 64.1328 112.229 64.0664C111.985 64 111.814 63.9308 111.714 63.8589C111.615 63.7814 111.565 63.7344 111.565 63.7178C111.559 63.668 111.545 63.5379 111.523 63.3276C111.501 63.1118 111.479 62.813 111.457 62.4312C111.435 62.0438 111.424 61.6038 111.424 61.1113ZM128.771 58.5298C129.098 58.5298 129.457 58.563 129.85 58.6294C130.249 58.6958 130.614 58.776 130.946 58.8701V58.6128C130.946 58.4412 130.94 58.2503 130.929 58.04C130.924 57.8298 130.913 57.6914 130.896 57.625C130.846 57.5309 130.702 57.4341 130.464 57.3345C130.232 57.2349 129.85 57.1851 129.319 57.1851C128.992 57.1851 128.655 57.2266 128.306 57.3096C127.963 57.387 127.581 57.4922 127.161 57.625C126.934 57.2487 126.751 56.8918 126.613 56.5542C126.48 56.2111 126.414 55.868 126.414 55.5249C126.414 55.4198 126.422 55.3146 126.439 55.2095C127.335 54.5122 128.494 54.1636 129.917 54.1636C130.702 54.1636 131.4 54.2521 132.008 54.4292C132.617 54.6063 133.118 54.9494 133.511 55.4585C133.904 55.9676 134.1 56.6898 134.1 57.625C134.1 58.5381 133.992 59.4235 133.776 60.2812C133.566 61.1335 133.458 61.5679 133.453 61.5845L134.656 61.0698C134.817 61.2414 134.958 61.4517 135.08 61.7007C135.207 61.9442 135.287 62.2264 135.32 62.5474C135.243 62.7134 135.074 62.9264 134.814 63.1865C134.554 63.4411 134.236 63.668 133.859 63.8672C133.483 64.0664 133.09 64.166 132.681 64.166C132.221 64.166 131.873 64.0304 131.635 63.7593C131.402 63.4881 131.286 63.1367 131.286 62.7051C131.286 62.4616 131.322 62.2153 131.394 61.9663L131.145 61.8916C130.99 62.766 130.661 63.3636 130.157 63.6846C129.654 64.0055 129.098 64.166 128.489 64.166C128.09 64.166 127.706 64.0553 127.335 63.834C126.964 63.6071 126.663 63.2806 126.43 62.8545C126.198 62.4229 126.082 61.9193 126.082 61.3438C126.082 60.4251 126.311 59.7279 126.771 59.252C127.23 58.7705 127.897 58.5298 128.771 58.5298ZM129.717 61.6924C129.856 61.6647 130.019 61.5872 130.207 61.46C130.401 61.3327 130.572 61.1805 130.722 61.0034C130.871 60.8263 130.96 60.6576 130.987 60.4971L130.938 60.2979C130.644 60.2591 130.332 60.2397 130 60.2397C129.717 60.2397 129.524 60.2619 129.419 60.3062C129.241 60.5054 129.153 60.7267 129.153 60.9702C129.153 61.1473 129.197 61.3078 129.286 61.4517C129.38 61.5955 129.524 61.6758 129.717 61.6924ZM136.166 61.7754C136.166 61.5374 136.171 60.9536 136.182 60.0239C136.199 58.1978 136.207 57.1989 136.207 57.0273L135.444 56.9028C135.338 56.5874 135.264 56.2913 135.22 56.0146C135.175 55.738 135.153 55.4585 135.153 55.1763C135.153 55.0601 135.156 54.9715 135.161 54.9106C135.255 54.8276 135.402 54.728 135.601 54.6118C135.801 54.4956 136.036 54.3932 136.307 54.3047C136.578 54.2106 136.855 54.1636 137.137 54.1636C137.796 54.1636 138.271 54.3102 138.565 54.6035C138.864 54.8968 139.013 55.3257 139.013 55.8901C139.013 56.2332 138.969 56.6732 138.88 57.21C138.797 57.7412 138.711 58.1203 138.623 58.3472L138.922 58.397L139.42 56.521C139.641 55.6743 139.918 55.0711 140.25 54.7114C140.582 54.3462 140.955 54.1636 141.37 54.1636C141.642 54.1636 141.91 54.2051 142.176 54.2881C142.447 54.3711 142.654 54.4735 142.798 54.5952C142.953 54.9383 143.031 55.3949 143.031 55.9648C143.031 56.3633 142.992 56.759 142.914 57.1519C142.837 57.5392 142.737 57.8519 142.616 58.0898L140.872 57.8574C140.518 58.2337 140.142 58.7567 139.743 59.4263C139.345 60.0903 139.027 60.7018 138.789 61.2607L138.781 61.6924L140.391 61.3105C140.662 61.7256 140.82 62.2181 140.864 62.7881C140.864 62.8213 140.74 62.9569 140.491 63.1948C140.241 63.4328 139.912 63.6541 139.503 63.8589C139.099 64.0581 138.634 64.1577 138.108 64.1577C137.566 64.1577 137.112 64.0138 136.747 63.7261C136.387 63.4328 136.196 62.9403 136.174 62.2485C136.169 62.1655 136.166 62.0078 136.166 61.7754ZM146.175 62.9624C146.07 62.5529 145.874 61.9608 145.586 61.186C145.298 60.4058 144.997 59.6559 144.681 58.9365C144.366 58.2171 144.117 57.7218 143.934 57.4507L143.17 57.3179C143.093 57.1021 143.032 56.8641 142.988 56.604C142.949 56.3384 142.916 56.0312 142.888 55.6826C142.982 55.4225 143.126 55.1763 143.32 54.9438C143.514 54.7114 143.746 54.5233 144.017 54.3794C144.294 54.2355 144.593 54.1636 144.914 54.1636C145.439 54.1636 145.874 54.313 146.217 54.6118C146.565 54.9051 146.834 55.2759 147.022 55.7241C147.216 56.1668 147.384 56.6898 147.528 57.293C147.822 58.4606 148.01 59.9077 148.093 61.6343L148.275 61.6011C148.491 61.1196 148.674 60.4307 148.823 59.5342C148.978 58.6377 149.061 57.7772 149.072 56.9526L148.035 56.7949C147.913 56.3301 147.852 55.785 147.852 55.1597C147.974 55.0103 148.148 54.8608 148.375 54.7114C148.607 54.5565 148.881 54.4264 149.197 54.3213C149.512 54.2161 149.847 54.1636 150.201 54.1636C151.629 54.1636 152.343 54.8802 152.343 56.3135C152.343 57.4424 152.138 58.5381 151.729 59.6006C151.325 60.6631 150.716 61.6232 149.902 62.481C149.089 63.3387 148.098 64.0138 146.931 64.5063L146.997 64.7803C147.146 64.7969 147.293 64.8052 147.437 64.8052C147.907 64.8052 148.475 64.7277 149.139 64.5728C149.515 64.9933 149.703 65.4526 149.703 65.9507C149.703 66.1001 149.687 66.2523 149.653 66.4072C149.321 66.7282 148.906 67.0049 148.408 67.2373C147.91 67.4697 147.362 67.5859 146.765 67.5859C145.896 67.5859 145.193 67.3895 144.656 66.9966C144.119 66.6037 143.851 66.006 143.851 65.2036C143.851 64.8439 143.959 64.5285 144.175 64.2573C144.396 63.9917 144.651 63.7759 144.938 63.6099C145.232 63.4383 145.644 63.2225 146.175 62.9624Z" fill="black"/>
</svg>
