<svg width="201" height="63" viewBox="0 0 201 63" fill="none" xmlns="http://www.w3.org/2000/svg">
<rect width="201" height="62.7529" rx="31.3765" fill="#D764D7"/>
<path d="M37.4092 30.3281C37.4092 27.9688 37.4443 26.1562 37.5147 24.8906H37.5029L35.8272 24.6445C35.7256 24.3555 35.6475 24.0352 35.5928 23.6836C35.5381 23.332 35.5107 22.9922 35.5107 22.6641C35.5107 22.4141 35.5303 22.1406 35.5693 21.8438C36.5303 21.5 37.8545 21.2461 39.542 21.082C41.2295 20.918 42.8545 20.8359 44.417 20.8359C45.6123 20.8359 46.6397 20.9297 47.499 21.1172C48.3584 21.3047 49.0772 21.7305 49.6553 22.3945C50.2412 23.0508 50.5342 24.0352 50.5342 25.3477C50.5342 26.0039 50.3936 26.7695 50.1123 27.6445C49.8389 28.5117 49.4873 29.3594 49.0576 30.1875C48.6357 31.0078 48.21 31.6719 47.7803 32.1797C47.1475 32.9375 46.4443 33.3828 45.6709 33.5156C44.3897 33.7188 43.0342 33.8203 41.6045 33.8203C41.5732 34.625 41.5615 35.2031 41.5693 35.5547L43.3154 35.4375C43.6748 36.0234 43.874 36.7188 43.9131 37.5234C43.9131 37.5625 43.7373 37.7305 43.3857 38.0273C43.0342 38.3242 42.5693 38.5977 41.9912 38.8477C41.4209 39.0977 40.7647 39.2227 40.0225 39.2227C39.2881 39.2227 38.7022 39.0234 38.2647 38.625C37.835 38.2188 37.6201 37.5195 37.6201 36.5273C37.4873 34.9023 37.4209 32.8398 37.4209 30.3398L37.4092 30.3281ZM44.8272 30.5273C45.0303 29.668 45.1982 28.7578 45.3311 27.7969C45.4717 26.8281 45.5498 25.9844 45.5654 25.2656C45.5264 25.1953 45.3272 25.1328 44.9678 25.0781C44.6084 25.0234 44.1436 24.9961 43.5732 24.9961C43.1748 24.9961 42.6787 25.0117 42.085 25.043C42.0147 27.4023 41.9209 29.2969 41.8037 30.7266L44.8272 30.5273ZM54.7434 31.2773C55.2043 31.2773 55.7121 31.3242 56.2668 31.418C56.8293 31.5117 57.3449 31.625 57.8137 31.7578V31.3945C57.8137 31.1523 57.8059 30.8828 57.7902 30.5859C57.7824 30.2891 57.7668 30.0938 57.7434 30C57.6731 29.8672 57.4699 29.7305 57.134 29.5898C56.8059 29.4492 56.2668 29.3789 55.5168 29.3789C55.0559 29.3789 54.5793 29.4375 54.0871 29.5547C53.6027 29.6641 53.0637 29.8125 52.4699 30C52.1496 29.4688 51.8918 28.9648 51.6965 28.4883C51.509 28.0039 51.4152 27.5195 51.4152 27.0352C51.4152 26.8867 51.427 26.7383 51.4504 26.5898C52.716 25.6055 54.3527 25.1133 56.3606 25.1133C57.4699 25.1133 58.4543 25.2383 59.3137 25.4883C60.1731 25.7383 60.8801 26.2227 61.4348 26.9414C61.9895 27.6602 62.2668 28.6797 62.2668 30C62.2668 31.2891 62.1145 32.5391 61.8098 33.75C61.5129 34.9531 61.3606 35.5664 61.3527 35.5898L63.052 34.8633C63.2785 35.1055 63.4777 35.4023 63.6496 35.7539C63.8293 36.0977 63.9426 36.4961 63.9895 36.9492C63.8801 37.1836 63.6418 37.4844 63.2746 37.8516C62.9074 38.2109 62.4582 38.5312 61.927 38.8125C61.3957 39.0938 60.841 39.2344 60.2629 39.2344C59.6145 39.2344 59.1223 39.043 58.7863 38.6602C58.4582 38.2773 58.2942 37.7812 58.2942 37.1719C58.2942 36.8281 58.3449 36.4805 58.4465 36.1289L58.0949 36.0234C57.8762 37.2578 57.4113 38.1016 56.7004 38.5547C55.9895 39.0078 55.2043 39.2344 54.3449 39.2344C53.7824 39.2344 53.2395 39.0781 52.716 38.7656C52.1926 38.4453 51.7668 37.9844 51.4387 37.3828C51.1106 36.7734 50.9465 36.0625 50.9465 35.25C50.9465 33.9531 51.2707 32.9688 51.9192 32.2969C52.5676 31.6172 53.509 31.2773 54.7434 31.2773ZM56.0793 35.7422C56.2746 35.7031 56.5051 35.5938 56.7707 35.4141C57.0442 35.2344 57.2863 35.0195 57.4973 34.7695C57.7082 34.5195 57.8332 34.2812 57.8723 34.0547L57.802 33.7734C57.3879 33.7188 56.9465 33.6914 56.4777 33.6914C56.0793 33.6914 55.8059 33.7227 55.6574 33.7852C55.4074 34.0664 55.2824 34.3789 55.2824 34.7227C55.2824 34.9727 55.3449 35.1992 55.4699 35.4023C55.6027 35.6055 55.8059 35.7188 56.0793 35.7422ZM68.3158 37.5352C68.1674 36.957 67.8901 36.1211 67.4838 35.0273C67.0776 33.9258 66.6518 32.8672 66.2065 31.8516C65.7612 30.8359 65.4096 30.1367 65.1518 29.7539L64.0737 29.5664C63.9643 29.2617 63.8783 28.9258 63.8158 28.5586C63.7612 28.1836 63.7143 27.75 63.6752 27.2578C63.808 26.8906 64.0112 26.543 64.2846 26.2148C64.558 25.8867 64.8862 25.6211 65.269 25.418C65.6596 25.2148 66.0815 25.1133 66.5346 25.1133C67.2768 25.1133 67.8901 25.3242 68.3744 25.7461C68.8666 26.1602 69.2455 26.6836 69.5112 27.3164C69.7846 27.9414 70.0229 28.6797 70.226 29.5312C70.6401 31.1797 70.9057 33.2227 71.0229 35.6602L71.2807 35.6133C71.5854 34.9336 71.8432 33.9609 72.0541 32.6953C72.2729 31.4297 72.3901 30.2148 72.4057 29.0508L70.9408 28.8281C70.769 28.1719 70.683 27.4023 70.683 26.5195C70.8549 26.3086 71.101 26.0977 71.4213 25.8867C71.7494 25.668 72.1362 25.4844 72.5815 25.3359C73.0268 25.1875 73.4994 25.1133 73.9994 25.1133C76.0151 25.1133 77.0229 26.125 77.0229 28.1484C77.0229 29.7422 76.7338 31.2891 76.1557 32.7891C75.5854 34.2891 74.726 35.6445 73.5776 36.8555C72.4291 38.0664 71.0307 39.0195 69.3822 39.7148L69.476 40.1016C69.6869 40.125 69.894 40.1367 70.0971 40.1367C70.7612 40.1367 71.5619 40.0273 72.4994 39.8086C73.0307 40.4023 73.2963 41.0508 73.2963 41.7539C73.2963 41.9648 73.2729 42.1797 73.226 42.3984C72.7572 42.8516 72.1713 43.2422 71.4682 43.5703C70.7651 43.8984 69.9916 44.0625 69.1479 44.0625C67.9213 44.0625 66.9291 43.7852 66.1713 43.2305C65.4135 42.6758 65.0346 41.832 65.0346 40.6992C65.0346 40.1914 65.1869 39.7461 65.4916 39.3633C65.8041 38.9883 66.1635 38.6836 66.5697 38.4492C66.9838 38.207 67.5658 37.9023 68.3158 37.5352ZM82.91 35.2383C82.9803 35.2617 83.1287 35.3164 83.3553 35.4023C83.5897 35.4805 83.8475 35.5469 84.1287 35.6016V24.5625L82.2889 23.9414C82.1092 23.5195 82.0194 23.0352 82.0194 22.4883C82.0194 22.043 82.0897 21.6445 82.2303 21.293C82.7928 21.1445 83.4686 21.0312 84.2577 20.9531C85.0545 20.8672 85.8241 20.8242 86.5662 20.8242C87.6678 20.8242 88.6405 20.9062 89.4842 21.0703C89.8748 21.8281 90.453 23.2539 91.2186 25.3477C91.992 27.4414 92.9217 30.1875 94.0077 33.5859L94.2069 33.5625C93.9803 31.6328 93.7537 29.3711 93.5272 26.7773C93.3084 24.1758 93.1991 22.3945 93.1991 21.4336C93.6053 21.2461 94.0584 21.1016 94.5584 21C95.0584 20.8906 95.5194 20.8359 95.9412 20.8359C96.6287 20.8359 97.2889 20.9766 97.9217 21.2578L96.785 36.0703C97.1912 36.6562 97.4452 37.3438 97.5467 38.1328C97.2264 38.4844 96.7381 38.7578 96.0819 38.9531C95.4334 39.1406 94.742 39.2344 94.0077 39.2344C93.4373 39.2344 92.9178 39.1758 92.4491 39.0586C91.9881 38.9414 91.6287 38.7617 91.3709 38.5195C91.3787 37.9336 91.4295 37.3984 91.5233 36.9141C90.9373 35.7422 90.3709 34.4531 89.8241 33.0469C89.285 31.6328 88.5975 29.7578 87.7616 27.4219L87.2459 25.9922L87.1756 26.0039C87.3397 27.2227 87.5155 29.0195 87.703 31.3945C87.8905 33.7617 87.9842 35.4922 87.9842 36.5859C87.9842 37.4609 87.7225 38.1211 87.1991 38.5664C86.6834 39.0117 85.8748 39.2344 84.7733 39.2344C84.4295 39.2344 84.0623 39.168 83.6717 39.0352C83.2811 38.9023 82.9256 38.7344 82.6053 38.5312C82.2928 38.3203 82.0741 38.1172 81.9491 37.9219C81.9491 37.3594 82.035 36.8242 82.2069 36.3164C82.3787 35.8086 82.6131 35.4492 82.91 35.2383ZM99.1192 32.0742C99.1192 30.6602 99.3457 29.4336 99.7989 28.3945C100.252 27.3555 100.947 26.5508 101.885 25.9805C102.822 25.4023 103.998 25.1133 105.412 25.1133C106.975 25.1133 108.201 25.4062 109.092 25.9922C109.982 26.5703 110.604 27.375 110.955 28.4062C111.314 29.4375 111.494 30.6992 111.494 32.1914C111.494 33.543 111.256 34.75 110.779 35.8125C110.311 36.8672 109.6 37.7031 108.647 38.3203C107.701 38.9297 106.541 39.2344 105.166 39.2344C103.041 39.2344 101.502 38.582 100.549 37.2773C99.5957 35.9648 99.1192 34.2305 99.1192 32.0742ZM105.647 35.8008C106.045 35.8008 106.287 35.7695 106.373 35.707C106.553 35.3945 106.689 34.9531 106.783 34.3828C106.877 33.8125 106.924 33.1953 106.924 32.5312C106.924 31.9219 106.885 31.3516 106.807 30.8203C106.729 30.2812 106.619 29.8594 106.479 29.5547C106.393 29.4531 106.221 29.3789 105.963 29.332C105.705 29.2773 105.424 29.25 105.119 29.25C104.721 29.25 104.447 29.293 104.299 29.3789C103.908 30.0508 103.713 30.9844 103.713 32.1797C103.713 32.7422 103.756 33.3164 103.842 33.9023C103.928 34.4883 104.037 35.0195 104.17 35.4961C104.264 35.5977 104.455 35.6758 104.744 35.7305C105.033 35.7773 105.334 35.8008 105.647 35.8008ZM112.364 29.543C112.129 28.8711 112.012 28.0781 112.012 27.1641C112.223 26.5781 112.571 26.0859 113.055 25.6875C113.539 25.2891 114.149 25.0898 114.883 25.0898C115.352 25.0898 115.758 25.1875 116.102 25.3828C116.446 25.5703 116.758 25.8594 117.039 26.25C117.469 26.8594 117.801 27.7031 118.035 28.7812C118.239 29.7266 118.407 30.832 118.539 32.0977C118.68 33.3555 118.75 34.543 118.75 35.6602L119.207 35.6719C119.528 34.5938 119.785 33.5664 119.981 32.5898C120.176 31.6133 120.321 30.4492 120.414 29.0977L119.032 28.8281C118.914 28.4062 118.832 28.043 118.785 27.7383C118.739 27.4258 118.715 27.0938 118.715 26.7422C118.715 26.5391 118.871 26.3086 119.184 26.0508C119.496 25.7852 119.899 25.5625 120.391 25.3828C120.891 25.2031 121.407 25.1133 121.938 25.1133C123.946 25.1133 124.949 26.125 124.949 28.1484C124.949 28.7969 124.809 29.5078 124.528 30.2812C124.981 31.8438 125.317 33.6406 125.535 35.6719L125.746 35.6836C126.067 34.9336 126.356 33.918 126.614 32.6367C126.879 31.3477 127.012 30.1562 127.012 29.0625L125.864 28.8398C125.746 28.418 125.664 28.0547 125.617 27.75C125.571 27.4375 125.547 27.1055 125.547 26.7539C125.547 26.5508 125.684 26.3203 125.957 26.0625C126.239 25.7969 126.61 25.5742 127.071 25.3945C127.532 25.207 128.02 25.1133 128.535 25.1133C130.59 25.1133 131.617 26.1875 131.617 28.3359C131.617 29.6562 131.371 31.0273 130.879 32.4492C130.387 33.8711 129.789 35.168 129.086 36.3398C128.383 37.5117 127.719 38.4219 127.094 39.0703C126.703 39.1797 126.282 39.2344 125.828 39.2344C125.289 39.2344 124.766 39.1602 124.258 39.0117C123.758 38.8711 123.352 38.6641 123.039 38.3906C122.985 38.2031 122.887 37.6875 122.746 36.8438C122.543 35.6562 122.387 34.8008 122.278 34.2773H122.043C121.614 36.1523 120.981 37.7227 120.145 38.9883C119.715 39.1523 119.164 39.2344 118.492 39.2344C117.922 39.2344 117.379 39.1719 116.864 39.0469C116.348 38.9297 115.961 38.7539 115.703 38.5195C115.602 37.8008 115.399 36.8242 115.094 35.5898C114.789 34.3555 114.453 33.1797 114.086 32.0625C113.727 30.9453 113.41 30.1562 113.137 29.6953L112.364 29.543Z" fill="white"/>
<rect width="24.8481" height="5.3156" rx="2.6578" transform="matrix(0.781227 -0.624247 0.856048 0.516896 151.037 42.2524)" fill="white"/>
<rect width="24.8481" height="5.31709" rx="2.65855" transform="matrix(-0.781227 -0.624247 0.856048 -0.516896 170.411 32.2598)" fill="white"/>
</svg>
