<svg width="64" height="21" viewBox="0 0 64 21" fill="none" xmlns="http://www.w3.org/2000/svg">
<rect x="0.5" y="0.5" width="63" height="20" rx="6.5" fill="black" stroke="black"/>
<path d="M10.406 12.175H9.73101V14.935L11.006 15.025C11.036 15.085 11.031 15.22 10.991 15.43C10.901 15.81 10.681 16 10.331 16H6.76101V15.88C6.76101 15.33 6.98101 15.035 7.42101 14.995L7.85601 14.965V6.76L6.76101 6.67C6.75101 6.42 6.79601 6.2 6.89601 6.01C6.99601 5.82 7.14601 5.725 7.34601 5.725H10.856C12.076 5.725 13.026 5.985 13.706 6.505C14.386 7.015 14.726 7.73 14.726 8.65C14.726 9.76 14.346 10.625 13.586 11.245C12.826 11.865 11.766 12.175 10.406 12.175ZM9.73101 11.245H10.211C11.011 11.245 11.636 11.025 12.086 10.585C12.546 10.145 12.776 9.56 12.776 8.83C12.776 8.09 12.596 7.535 12.236 7.165C11.876 6.795 11.371 6.62 10.721 6.64L9.73101 6.67V11.245ZM19.8803 10.15C19.6003 9.62 19.2003 9.355 18.6803 9.355C18.1603 9.355 17.7553 9.615 17.4653 10.135C17.1853 10.655 17.0453 11.365 17.0453 12.265C17.0453 13.155 17.1853 13.85 17.4653 14.35C17.7553 14.84 18.1603 15.085 18.6803 15.085C19.2003 15.085 19.6003 14.845 19.8803 14.365C20.1703 13.875 20.3153 13.185 20.3153 12.295C20.3153 11.395 20.1703 10.68 19.8803 10.15ZM15.1403 12.34C15.1403 11.06 15.4553 10.05 16.0853 9.31C16.7253 8.57 17.6103 8.2 18.7403 8.2C19.8703 8.2 20.7303 8.555 21.3203 9.265C21.9203 9.975 22.2203 10.96 22.2203 12.22C22.2203 13.47 21.9003 14.45 21.2603 15.16C20.6203 15.87 19.7253 16.225 18.5753 16.225C17.4353 16.225 16.5753 15.895 15.9953 15.235C15.4253 14.575 15.1403 13.61 15.1403 12.34ZM25.3672 9.07C26.0172 8.49 26.7522 8.2 27.5722 8.2C28.4022 8.2 29.1122 8.495 29.7022 9.085C30.2922 9.665 30.5972 10.595 30.6172 11.875C30.6372 13.155 30.3272 14.2 29.6872 15.01C29.0572 15.82 28.1272 16.225 26.8972 16.225C26.3472 16.225 25.8722 16.14 25.4722 15.97V18.205H25.4872L26.5372 18.295C26.5972 18.945 26.3722 19.27 25.8622 19.27H22.5172V19.15C22.5172 18.6 22.7372 18.305 23.1772 18.265L23.6422 18.235V9.61L22.9972 9.535C22.6872 9.495 22.5322 9.195 22.5322 8.635L25.2322 8.29L25.3672 9.07ZM27.0172 15.01C28.1472 15.01 28.7122 14.075 28.7122 12.205C28.7122 11.345 28.5622 10.68 28.2622 10.21C27.9722 9.74 27.5572 9.505 27.0172 9.505C26.4772 9.505 25.9622 9.73 25.4722 10.18V14.41C25.9522 14.81 26.4672 15.01 27.0172 15.01ZM35.5329 9.37C35.5329 8.74 35.7529 8.425 36.1929 8.425H38.5329V14.995H38.8629C39.2029 15.005 39.3729 15.32 39.3729 15.94L37.2429 16.15L36.9279 15.31C36.2179 15.92 35.4829 16.225 34.7229 16.225C33.9729 16.225 33.3279 15.97 32.7879 15.46C32.2479 14.94 31.9779 14.145 31.9779 13.075V9.49H30.8829V9.37C30.8829 8.74 31.1029 8.425 31.5429 8.425H33.8079V13.15C33.8079 13.77 33.9279 14.21 34.1679 14.47C34.4079 14.73 34.7779 14.86 35.2779 14.86C35.7779 14.86 36.2529 14.69 36.7029 14.35V9.49H35.5329V9.37ZM43.1587 16H39.8137V15.88C39.8137 15.33 40.0337 15.035 40.4737 14.995L40.9387 14.965V6.595L40.3537 6.535C39.9437 6.495 39.7587 6.185 39.7987 5.605L42.7687 5.275V14.935L43.8337 15.025C43.8937 15.675 43.6687 16 43.1587 16ZM51.3807 15.325C51.3807 15.925 50.9907 16.225 50.2107 16.225C49.4307 16.225 48.9257 15.965 48.6957 15.445C48.0657 15.965 47.3707 16.225 46.6107 16.225C45.8507 16.225 45.2507 16.04 44.8107 15.67C44.3807 15.29 44.1657 14.775 44.1657 14.125C44.1657 13.465 44.4207 12.925 44.9307 12.505C45.4407 12.085 46.2457 11.875 47.3457 11.875C47.7757 11.875 48.1857 11.905 48.5757 11.965V11.305C48.5757 10.615 48.4607 10.125 48.2307 9.835C48.0107 9.545 47.7057 9.4 47.3157 9.4C46.9257 9.4 46.6107 9.525 46.3707 9.775C46.1407 10.025 46.0257 10.365 46.0257 10.795C45.6257 10.835 45.2907 10.775 45.0207 10.615C44.7607 10.445 44.6307 10.19 44.6307 9.85C44.6307 9.37 44.8807 8.975 45.3807 8.665C45.8807 8.355 46.5257 8.2 47.3157 8.2C49.3757 8.2 50.4057 9.2 50.4057 11.2V15.205L51.3807 15.325ZM48.5757 13.09C48.2157 12.96 47.8357 12.895 47.4357 12.895C47.0457 12.895 46.7207 12.99 46.4607 13.18C46.2007 13.36 46.0707 13.62 46.0707 13.96C46.0707 14.66 46.4307 15.01 47.1507 15.01C47.6607 15.01 48.1357 14.865 48.5757 14.575V13.09ZM54.475 9.52C54.715 9.2 55.055 8.9 55.495 8.62C55.945 8.34 56.33 8.2 56.65 8.2C56.98 8.2 57.255 8.305 57.475 8.515C57.695 8.725 57.805 9.075 57.805 9.565C57.805 10.045 57.64 10.43 57.31 10.72C57.14 10.85 56.855 10.89 56.455 10.84C56.455 10.51 56.425 10.26 56.365 10.09C56.305 9.91 56.24 9.805 56.17 9.775C56.1 9.735 56.005 9.715 55.885 9.715C55.385 9.715 54.935 10.04 54.535 10.69V14.935L55.75 15.025C55.81 15.675 55.585 16 55.075 16H51.61C51.61 16 51.61 15.96 51.61 15.88C51.61 15.33 51.83 15.035 52.27 14.995L52.705 14.965V9.595L52.045 9.52C51.735 9.49 51.58 9.19 51.58 8.62L54.295 8.275L54.43 9.52H54.475Z" fill="white"/>
</svg>
