<svg width="64" height="21" viewBox="0 0 64 21" fill="none" xmlns="http://www.w3.org/2000/svg">
<rect x="0.5" y="0.5" width="63" height="20" rx="6.5" fill="black" stroke="black"/>
<path d="M21.6936 16.81C21.9536 16.81 22.2086 16.73 22.4586 16.57C22.5386 16.67 22.5786 16.85 22.5786 17.11C22.5786 17.38 22.4486 17.615 22.1886 17.815C21.9386 18.015 21.6236 18.115 21.2436 18.115C20.8636 18.115 20.3436 17.98 19.6836 17.71C19.0236 17.44 18.5036 17.2 18.1236 16.99C17.7436 16.78 17.2236 16.485 16.5636 16.105C15.5336 15.855 14.7386 15.29 14.1786 14.41C13.6186 13.52 13.3386 12.375 13.3386 10.975C13.3386 9.255 13.7686 7.915 14.6286 6.955C15.4886 5.985 16.6486 5.5 18.1086 5.5C19.5686 5.5 20.6836 5.965 21.4536 6.895C22.2336 7.815 22.6236 9.065 22.6236 10.645C22.6236 12.225 22.2886 13.485 21.6186 14.425C20.9486 15.355 20.0036 15.925 18.7836 16.135C20.0636 16.585 21.0336 16.81 21.6936 16.81ZM15.2886 10.795C15.2886 12.165 15.5086 13.21 15.9486 13.93C16.3986 14.65 17.0536 15.015 17.9136 15.025C18.8236 15.015 19.5086 14.665 19.9686 13.975C20.4386 13.275 20.6736 12.245 20.6736 10.885C20.6736 9.525 20.4436 8.49 19.9836 7.78C19.5336 7.06 18.8636 6.7 17.9736 6.7C16.1836 6.7 15.2886 8.065 15.2886 10.795ZM27.5474 9.37C27.5474 8.74 27.7674 8.425 28.2074 8.425H30.5474V14.995H30.8774C31.2174 15.005 31.3874 15.32 31.3874 15.94L29.2574 16.15L28.9424 15.31C28.2324 15.92 27.4974 16.225 26.7374 16.225C25.9874 16.225 25.3424 15.97 24.8024 15.46C24.2624 14.94 23.9924 14.145 23.9924 13.075V9.49H22.8974V9.37C22.8974 8.74 23.1174 8.425 23.5574 8.425H25.8224V13.15C25.8224 13.77 25.9424 14.21 26.1824 14.47C26.4224 14.73 26.7924 14.86 27.2924 14.86C27.7924 14.86 28.2674 14.69 28.7174 14.35V9.49H27.5474V9.37ZM35.1731 16H31.8281V15.88C31.8281 15.33 32.0481 15.035 32.4881 14.995L32.9531 14.965V9.52L32.3681 9.46C31.9581 9.42 31.7731 9.11 31.8131 8.53L34.7831 8.2V14.935L35.8481 15.025C35.9081 15.675 35.6831 16 35.1731 16ZM34.8581 6.415C34.8581 6.725 34.7531 6.99 34.5431 7.21C34.3331 7.42 34.0681 7.525 33.7481 7.525C33.4381 7.525 33.1731 7.42 32.9531 7.21C32.7431 6.99 32.6381 6.725 32.6381 6.415C32.6381 6.105 32.7431 5.845 32.9531 5.635C33.1731 5.415 33.4381 5.305 33.7481 5.305C34.0581 5.305 34.3181 5.415 34.5281 5.635C34.7481 5.845 34.8581 6.105 34.8581 6.415ZM39.9902 8.2C40.7102 8.2 41.2952 8.355 41.7452 8.665C42.2052 8.965 42.4352 9.35 42.4352 9.82C42.4352 10.29 42.2952 10.62 42.0152 10.81C41.7352 11 41.4402 11.075 41.1302 11.035C41.1202 10.605 41.0052 10.23 40.7852 9.91C40.5652 9.59 40.2102 9.43 39.7202 9.43C39.2402 9.43 38.8602 9.665 38.5802 10.135C38.3002 10.595 38.1602 11.245 38.1602 12.085C38.1602 13.945 38.8752 14.875 40.3052 14.875C40.9752 14.875 41.6152 14.605 42.2252 14.065C42.3252 14.125 42.4052 14.225 42.4652 14.365C42.5252 14.505 42.5552 14.625 42.5552 14.725C42.5552 15.045 42.2602 15.375 41.6702 15.715C41.0902 16.055 40.4202 16.225 39.6602 16.225C38.6002 16.225 37.7652 15.885 37.1552 15.205C36.5552 14.515 36.2552 13.55 36.2552 12.31C36.2552 11.07 36.5952 10.075 37.2752 9.325C37.9552 8.575 38.8602 8.2 39.9902 8.2ZM47.7674 8.425H50.4524V8.545C50.4524 9.095 50.2324 9.39 49.7924 9.43L49.4624 9.445L47.6324 11.515L50.0924 14.935L51.0974 15.025C51.1274 15.305 51.0674 15.54 50.9174 15.73C50.7674 15.91 50.5774 16 50.3474 16H48.7424L46.4924 12.805L45.8324 13.54V14.935L46.9124 15.025C46.9424 15.085 46.9374 15.22 46.8974 15.43C46.8074 15.81 46.5874 16 46.2374 16H42.8924V15.88C42.8924 15.33 43.1124 15.035 43.5524 14.995L44.0024 14.965V6.595L43.4174 6.535C43.0074 6.495 42.8224 6.185 42.8624 5.605L45.8324 5.275V11.995L47.9474 9.49L47.0924 9.4C47.0624 9.34 47.0674 9.205 47.1074 8.995C47.1974 8.615 47.4174 8.425 47.7674 8.425Z" fill="white"/>
</svg>
