<svg width="353" height="58" viewBox="0 0 353 58" fill="none" xmlns="http://www.w3.org/2000/svg">
<path d="M21 2.5H332C342.217 2.5 350.5 10.7827 350.5 21V55.5H2.5V21C2.5 10.7827 10.7827 2.5 21 2.5Z" fill="black"/>
<path d="M21 2.5H332C342.217 2.5 350.5 10.7827 350.5 21V55.5H2.5V21C2.5 10.7827 10.7827 2.5 21 2.5Z" stroke="black" stroke-width="5"/>
<path d="M21 2.5H332C342.217 2.5 350.5 10.7827 350.5 21V55.5H2.5V21C2.5 10.7827 10.7827 2.5 21 2.5Z" stroke="black" stroke-opacity="0.2" stroke-width="5"/>
<path d="M321.919 37.8572C321.573 38.6649 320.427 38.6649 320.081 37.8572L310.34 15.1442C310.057 14.4843 310.541 13.75 311.259 13.75L330.741 13.75C331.459 13.75 331.943 14.4843 331.66 15.1442L321.919 37.8572Z" fill="white"/>
</svg>
