<svg width="65" height="26" viewBox="0 0 65 26" fill="none" xmlns="http://www.w3.org/2000/svg">
<rect x="0.5" y="0.5" width="64" height="25" rx="6.5" fill="black" stroke="black"/>
<path d="M21.7344 10.755C21.9844 10.975 22.1094 11.26 22.1094 11.61C22.1094 11.96 21.9944 12.23 21.7644 12.42C21.5444 12.61 21.2594 12.68 20.9094 12.63C20.9094 12.26 20.7644 11.95 20.4744 11.7C20.1844 11.44 19.8594 11.31 19.4994 11.31C19.1494 11.31 18.8794 11.38 18.6894 11.52C18.4994 11.65 18.4044 11.825 18.4044 12.045C18.4044 12.265 18.5394 12.465 18.8094 12.645C19.0894 12.815 19.4794 13 19.9794 13.2C20.4894 13.4 20.8544 13.56 21.0744 13.68C21.2944 13.79 21.5294 13.94 21.7794 14.13C22.2594 14.49 22.4994 15.025 22.4994 15.735C22.4994 16.435 22.2144 17.025 21.6444 17.505C21.0744 17.985 20.3144 18.225 19.3644 18.225C18.6644 18.225 18.0494 18.095 17.5194 17.835C16.9994 17.575 16.7394 17.185 16.7394 16.665C16.7394 16.315 16.8644 16.045 17.1144 15.855C17.3644 15.655 17.6594 15.555 17.9994 15.555C18.1294 16.575 18.7094 17.085 19.7394 17.085C20.5694 17.085 20.9844 16.81 20.9844 16.26C20.9844 15.9 20.7644 15.61 20.3244 15.39C20.0844 15.26 19.7944 15.13 19.4544 15C19.1144 14.87 18.8444 14.76 18.6444 14.67C18.4544 14.57 18.2444 14.445 18.0144 14.295C17.7844 14.145 17.5944 13.99 17.4444 13.83C17.1144 13.46 16.9494 13.01 16.9494 12.48C16.9494 11.76 17.2394 11.2 17.8194 10.8C18.3994 10.4 19.0944 10.2 19.9044 10.2C20.7144 10.2 21.3244 10.385 21.7344 10.755ZM27.7253 12.15C27.4453 11.62 27.0453 11.355 26.5253 11.355C26.0053 11.355 25.6003 11.615 25.3103 12.135C25.0303 12.655 24.8903 13.365 24.8903 14.265C24.8903 15.155 25.0303 15.85 25.3103 16.35C25.6003 16.84 26.0053 17.085 26.5253 17.085C27.0453 17.085 27.4453 16.845 27.7253 16.365C28.0153 15.875 28.1603 15.185 28.1603 14.295C28.1603 13.395 28.0153 12.68 27.7253 12.15ZM22.9853 14.34C22.9853 13.06 23.3003 12.05 23.9303 11.31C24.5703 10.57 25.4553 10.2 26.5853 10.2C27.7153 10.2 28.5753 10.555 29.1653 11.265C29.7653 11.975 30.0653 12.96 30.0653 14.22C30.0653 15.47 29.7453 16.45 29.1053 17.16C28.4653 17.87 27.5703 18.225 26.4203 18.225C25.2803 18.225 24.4203 17.895 23.8403 17.235C23.2703 16.575 22.9853 15.61 22.9853 14.34ZM33.5272 11.52C33.7672 11.2 34.1072 10.9 34.5472 10.62C34.9972 10.34 35.3822 10.2 35.7022 10.2C36.0322 10.2 36.3072 10.305 36.5272 10.515C36.7472 10.725 36.8572 11.075 36.8572 11.565C36.8572 12.045 36.6922 12.43 36.3622 12.72C36.1922 12.85 35.9072 12.89 35.5072 12.84C35.5072 12.51 35.4772 12.26 35.4172 12.09C35.3572 11.91 35.2922 11.805 35.2222 11.775C35.1522 11.735 35.0572 11.715 34.9372 11.715C34.4372 11.715 33.9872 12.04 33.5872 12.69V16.935L34.8022 17.025C34.8622 17.675 34.6372 18 34.1272 18H30.6622C30.6622 18 30.6622 17.96 30.6622 17.88C30.6622 17.33 30.8822 17.035 31.3222 16.995L31.7572 16.965V11.595L31.0972 11.52C30.7872 11.49 30.6322 11.19 30.6322 10.62L33.3472 10.275L33.4822 11.52H33.5272ZM39.6032 11.475V15.63C39.6032 16.44 39.8632 16.845 40.3832 16.845C40.7632 16.845 41.0782 16.795 41.3282 16.695C41.5882 16.595 41.8632 16.425 42.1532 16.185C42.2032 16.185 42.2682 16.25 42.3482 16.38C42.4282 16.51 42.4682 16.65 42.4682 16.8C42.4682 17.19 42.1932 17.525 41.6432 17.805C41.0932 18.085 40.5582 18.225 40.0382 18.225C39.5182 18.225 39.1082 18.15 38.8082 18C38.5082 17.86 38.2832 17.65 38.1332 17.37C37.8932 16.91 37.7732 16.3 37.7732 15.54V11.475H36.5282C36.5282 10.775 36.7732 10.425 37.2632 10.425H37.7732V8.505L39.6032 8.31V10.425H42.3032C42.3232 10.575 42.3082 10.745 42.2582 10.935C42.1682 11.295 41.9382 11.475 41.5682 11.475H39.6032Z" fill="white"/>
<path d="M54.822 16.8136C54.4243 17.3876 53.5757 17.3876 53.178 16.8136L49.8912 12.0695C49.4317 11.4063 49.9064 10.5 50.7132 10.5L57.2868 10.5C58.0936 10.5 58.5683 11.4063 58.1088 12.0695L54.822 16.8136Z" fill="white"/>
</svg>
