<svg width="151" height="37" viewBox="0 0 151 37" fill="none" xmlns="http://www.w3.org/2000/svg">
<rect x="0.5" y="0.5" width="149.76" height="35.81" rx="6.5" fill="black" stroke="black"/>
<path d="M136.345 25.6634C135.953 26.2841 135.047 26.2841 134.655 25.6634L126.511 12.7845C126.09 12.1186 126.568 11.25 127.356 11.25L143.644 11.25C144.432 11.25 144.91 12.1186 144.489 12.7845L136.345 25.6634Z" fill="white"/>
<path d="M54.3981 6.2C55.0168 6.81867 55.3261 7.58667 55.3261 8.504C55.3261 9.42133 55.0488 10.1147 54.4941 10.584C53.9395 11.0533 53.2248 11.224 52.3501 11.096C52.3501 8.38667 51.1661 7.032 48.7981 7.032C47.7528 7.032 46.8995 7.27733 46.2381 7.768C45.5981 8.23733 45.2781 8.888 45.2781 9.72C45.2781 10.36 45.4275 10.84 45.7261 11.16C46.0248 11.4587 46.2488 11.6827 46.3981 11.832C46.5475 11.96 46.8248 12.1413 47.2301 12.376C47.6568 12.5893 47.9555 12.7387 48.1261 12.824C48.3181 12.9093 48.6915 13.08 49.2461 13.336C49.8221 13.5707 50.2061 13.7307 50.3981 13.816C52.5741 14.776 54.0995 15.6933 54.9741 16.568C55.8701 17.4427 56.3181 18.6587 56.3181 20.216C56.3181 22.3707 55.5608 24.12 54.0461 25.464C52.5315 26.808 50.4835 27.48 47.9021 27.48C45.2995 27.48 43.3475 26.8933 42.0461 25.72C41.3421 25.0587 40.9901 24.2907 40.9901 23.416C40.9901 22.52 41.2675 21.816 41.8221 21.304C42.3981 20.792 43.2515 20.536 44.3821 20.536C44.3821 22.0933 44.7021 23.2347 45.3421 23.96C46.0035 24.6853 47.0381 25.048 48.4461 25.048C49.8541 25.048 50.9635 24.728 51.7741 24.088C52.5848 23.4267 52.9901 22.6053 52.9901 21.624C52.9901 20.6427 52.6061 19.8533 51.8381 19.256C51.0701 18.6587 50.0461 18.0827 48.7661 17.528C47.4861 16.9733 46.6435 16.6107 46.2381 16.44C45.8328 16.248 45.2995 15.9493 44.6381 15.544C43.9768 15.1173 43.4968 14.712 43.1981 14.328C42.3661 13.304 41.9501 12.1307 41.9501 10.808C41.9501 8.78133 42.6968 7.24533 44.1901 6.2C45.6835 5.13333 47.4861 4.6 49.5981 4.6C51.7101 4.6 53.3101 5.13333 54.3981 6.2ZM68.0766 14.52C67.4793 13.3893 66.626 12.824 65.5166 12.824C64.4073 12.824 63.5433 13.3787 62.9246 14.488C62.3273 15.5973 62.0286 17.112 62.0286 19.032C62.0286 20.9307 62.3273 22.4133 62.9246 23.48C63.5433 24.5253 64.4073 25.048 65.5166 25.048C66.626 25.048 67.4793 24.536 68.0766 23.512C68.6953 22.4667 69.0046 20.9947 69.0046 19.096C69.0046 17.176 68.6953 15.6507 68.0766 14.52ZM57.9646 19.192C57.9646 16.4613 58.6366 14.3067 59.9806 12.728C61.346 11.1493 63.234 10.36 65.6446 10.36C68.0553 10.36 69.89 11.1173 71.1486 12.632C72.4286 14.1467 73.0686 16.248 73.0686 18.936C73.0686 21.6027 72.386 23.6933 71.0206 25.208C69.6553 26.7227 67.746 27.48 65.2926 27.48C62.8606 27.48 61.026 26.776 59.7886 25.368C58.5726 23.96 57.9646 21.9013 57.9646 19.192ZM80.9164 13.176C81.4284 12.4933 82.1537 11.8533 83.0924 11.256C84.0524 10.6587 84.8737 10.36 85.5564 10.36C86.2604 10.36 86.847 10.584 87.3164 11.032C87.7857 11.48 88.0204 12.2267 88.0204 13.272C88.0204 14.296 87.6684 15.1173 86.9644 15.736C86.6017 16.0133 85.9937 16.0987 85.1404 15.992C85.1404 15.288 85.0764 14.7547 84.9484 14.392C84.8204 14.008 84.6817 13.784 84.5324 13.72C84.383 13.6347 84.1804 13.592 83.9244 13.592C82.8577 13.592 81.8977 14.2853 81.0444 15.672V24.728L83.6364 24.92C83.7644 26.3067 83.2844 27 82.1964 27H74.8044C74.8044 27 74.8044 26.9147 74.8044 26.744C74.8044 25.5707 75.2737 24.9413 76.2124 24.856L77.1404 24.792V13.336L75.7324 13.176C75.071 13.112 74.7404 12.472 74.7404 11.256L80.5324 10.52L80.8204 13.176H80.9164ZM94.3409 13.08V21.944C94.3409 23.672 94.8955 24.536 96.0049 24.536C96.8155 24.536 97.4875 24.4293 98.0209 24.216C98.5755 24.0027 99.1622 23.64 99.7809 23.128C99.8875 23.128 100.026 23.2667 100.197 23.544C100.368 23.8213 100.453 24.12 100.453 24.44C100.453 25.272 99.8662 25.9867 98.6929 26.584C97.5195 27.1813 96.3782 27.48 95.2689 27.48C94.1595 27.48 93.2849 27.32 92.6449 27C92.0049 26.7013 91.5249 26.2533 91.2049 25.656C90.6929 24.6747 90.4369 23.3733 90.4369 21.752V13.08H87.7809C87.7809 11.5867 88.3035 10.84 89.3489 10.84H90.4369V6.744L94.3409 6.328V10.84H100.101C100.144 11.16 100.112 11.5227 100.005 11.928C99.8129 12.696 99.3222 13.08 98.5329 13.08H94.3409Z" fill="white"/>
</svg>
