<svg width="151" height="41" viewBox="0 0 151 41" fill="none" xmlns="http://www.w3.org/2000/svg">
<rect x="0.621094" y="0.5" width="149.759" height="38.8096" rx="6.5" fill="black" stroke="black"/>
<path d="M52.3146 6.08V10.912C52.3146 11.872 51.632 12.288 50.2666 12.16L49.9786 8.512L43.4826 8.288V16.032L49.2106 15.36C49.4453 16.384 49.456 17.44 49.2426 18.528L43.4826 18.208V25.728L46.4266 25.92C46.5546 27.3067 46.0746 28 44.9866 28H37.1466C37.1466 28 37.1466 27.9147 37.1466 27.744C37.1466 26.5707 37.616 25.9413 38.5546 25.856L39.4826 25.792V8.352L37.1786 8.16C37.1146 8.032 37.1253 7.744 37.2106 7.296C37.4026 6.48533 37.872 6.08 38.6186 6.08H52.3146ZM59.5321 14.176C60.0441 13.4933 60.7695 12.8533 61.7081 12.256C62.6681 11.6587 63.4895 11.36 64.1721 11.36C64.8761 11.36 65.4628 11.584 65.9321 12.032C66.4015 12.48 66.6361 13.2267 66.6361 14.272C66.6361 15.296 66.2841 16.1173 65.5801 16.736C65.2175 17.0133 64.6095 17.0987 63.7561 16.992C63.7561 16.288 63.6921 15.7547 63.5641 15.392C63.4361 15.008 63.2975 14.784 63.1481 14.72C62.9988 14.6347 62.7961 14.592 62.5401 14.592C61.4735 14.592 60.5135 15.2853 59.6601 16.672V25.728L62.2521 25.92C62.3801 27.3067 61.9001 28 60.8121 28H53.4201C53.4201 28 53.4201 27.9147 53.4201 27.744C53.4201 26.5707 53.8895 25.9413 54.8281 25.856L55.7561 25.792V14.336L54.3481 14.176C53.6868 14.112 53.3561 13.472 53.3561 12.256L59.1481 11.52L59.4361 14.176H59.5321ZM71.4846 20.16V20.512C71.4846 22.24 71.794 23.5307 72.4126 24.384C73.0526 25.216 74.1406 25.632 75.6766 25.632C77.234 25.632 78.7593 25.0453 80.2526 23.872C80.6793 24.192 80.8926 24.6933 80.8926 25.376C80.8926 26.0373 80.2953 26.72 79.1006 27.424C77.9273 28.128 76.4553 28.48 74.6846 28.48C72.3806 28.48 70.5886 27.808 69.3086 26.464C68.05 25.0987 67.4206 23.04 67.4206 20.288C67.4206 17.5147 68.1033 15.3387 69.4686 13.76C70.8553 12.16 72.754 11.36 75.1646 11.36C77.2126 11.36 78.738 12 79.7406 13.28C80.7646 14.56 81.2553 16.2453 81.2126 18.336V20.16H71.4846ZM74.8126 13.92C73.0633 13.92 72.0073 15.264 71.6446 17.952H77.4686C77.426 16.5013 77.1806 15.4667 76.7326 14.848C76.2846 14.2293 75.6446 13.92 74.8126 13.92ZM93.2549 12.544C93.7882 13.0133 94.0549 13.6213 94.0549 14.368C94.0549 15.1147 93.8096 15.6907 93.3189 16.096C92.8496 16.5013 92.2416 16.6507 91.4949 16.544C91.4949 15.7547 91.1856 15.0933 90.5669 14.56C89.9482 14.0053 89.2549 13.728 88.4869 13.728C87.7402 13.728 87.1642 13.8773 86.7589 14.176C86.3536 14.4533 86.1509 14.8267 86.1509 15.296C86.1509 15.7653 86.4389 16.192 87.0149 16.576C87.6122 16.9387 88.4442 17.3333 89.5109 17.76C90.5989 18.1867 91.3776 18.528 91.8469 18.784C92.3162 19.0187 92.8176 19.3387 93.3509 19.744C94.3749 20.512 94.8869 21.6533 94.8869 23.168C94.8869 24.6613 94.2789 25.92 93.0629 26.944C91.8469 27.968 90.2256 28.48 88.1989 28.48C86.7056 28.48 85.3936 28.2027 84.2629 27.648C83.1536 27.0933 82.5989 26.2613 82.5989 25.152C82.5989 24.4053 82.8656 23.8293 83.3989 23.424C83.9322 22.9973 84.5616 22.784 85.2869 22.784C85.5642 24.96 86.8016 26.048 88.9989 26.048C90.7696 26.048 91.6549 25.4613 91.6549 24.288C91.6549 23.52 91.1856 22.9013 90.2469 22.432C89.7349 22.1547 89.1162 21.8773 88.3909 21.6C87.6656 21.3227 87.0896 21.088 86.6629 20.896C86.2576 20.6827 85.8096 20.416 85.3189 20.096C84.8282 19.776 84.4229 19.4453 84.1029 19.104C83.3989 18.3147 83.0469 17.3547 83.0469 16.224C83.0469 14.688 83.6656 13.4933 84.9029 12.64C86.1402 11.7867 87.6229 11.36 89.3509 11.36C91.0789 11.36 92.3802 11.7547 93.2549 12.544ZM113.986 28H106.914V27.744C106.914 26.5707 107.383 25.9413 108.322 25.856L109.25 25.792V17.92C109.25 16.6613 108.994 15.7867 108.482 15.296C107.97 14.8053 107.149 14.56 106.018 14.56C104.887 14.56 103.746 15.0507 102.594 16.032V25.728L104.866 25.92C104.994 27.3067 104.514 28 103.426 28H96.2899V27.744C96.2899 26.5707 96.7592 25.9413 97.6979 25.856L98.6899 25.792V7.968L97.4419 7.84C96.5672 7.75467 96.1726 7.09333 96.2579 5.856L102.594 5.152V13.312C104.109 12.0107 105.677 11.36 107.298 11.36C108.919 11.36 110.295 11.9147 111.426 13.024C112.578 14.112 113.154 15.7973 113.154 18.08V25.728L115.426 25.92C115.554 27.3067 115.074 28 113.986 28Z" fill="white"/>
</svg>
