<svg width="64" height="21" viewBox="0 0 64 21" fill="none" xmlns="http://www.w3.org/2000/svg">
<rect x="0.5" y="0.5" width="63" height="20" rx="6.5" fill="black" stroke="black"/>
<path d="M11.3896 7.465H13.4686C13.4686 7.465 13.4686 7.49433 13.4686 7.553C13.4686 7.95633 13.3073 8.17267 12.9846 8.202L12.7206 8.224L10.3996 15H9.2886L7.0886 8.246L6.3846 8.18C6.3626 8.136 6.36626 8.037 6.3956 7.883C6.4616 7.60433 6.62293 7.465 6.8796 7.465H9.4096C9.39493 7.751 9.36193 7.927 9.3106 7.993C9.21526 8.11767 9.08693 8.18733 8.9256 8.202L8.5956 8.224L10.1136 13.317L11.7636 8.246L10.8946 8.18C10.8726 8.136 10.8763 8.037 10.9056 7.883C10.9716 7.60433 11.1329 7.465 11.3896 7.465ZM14.8589 12.305V12.426C14.8589 13.02 14.9653 13.4637 15.1779 13.757C15.3979 14.043 15.7719 14.186 16.2999 14.186C16.8353 14.186 17.3596 13.9843 17.8729 13.581C18.0196 13.691 18.0929 13.8633 18.0929 14.098C18.0929 14.3253 17.8876 14.56 17.4769 14.802C17.0736 15.044 16.5676 15.165 15.9589 15.165C15.1669 15.165 14.5509 14.934 14.1109 14.472C13.6783 14.0027 13.4619 13.295 13.4619 12.349C13.4619 11.3957 13.6966 10.6477 14.1659 10.105C14.6426 9.555 15.2953 9.28 16.1239 9.28C16.8279 9.28 17.3523 9.5 17.6969 9.94C18.0489 10.38 18.2176 10.9593 18.2029 11.678V12.305H14.8589ZM16.0029 10.16C15.4016 10.16 15.0386 10.622 14.9139 11.546H16.9159C16.9013 11.0473 16.8169 10.6917 16.6629 10.479C16.5089 10.2663 16.2889 10.16 16.0029 10.16ZM20.5787 13.394C20.3954 13.394 20.212 13.3757 20.0287 13.339C19.926 13.5223 19.8747 13.6543 19.8747 13.735C19.8747 13.8157 19.959 13.8707 20.1277 13.9C20.2964 13.922 20.696 13.944 21.3267 13.966C21.9574 13.988 22.445 14.1017 22.7897 14.307C23.1417 14.505 23.3177 14.8497 23.3177 15.341C23.3177 16.0157 23.0574 16.5547 22.5367 16.958C22.016 17.3613 21.3744 17.563 20.6117 17.563C19.8564 17.563 19.288 17.4237 18.9067 17.145C18.5327 16.8663 18.3457 16.507 18.3457 16.067C18.3457 15.627 18.5584 15.209 18.9837 14.813C18.8737 14.681 18.8187 14.505 18.8187 14.285C18.8187 13.8963 19.002 13.4893 19.3687 13.064C18.804 12.6973 18.5217 12.14 18.5217 11.392C18.5217 10.7833 18.716 10.281 19.1047 9.885C19.5007 9.48167 20.0287 9.28 20.6887 9.28C21.1214 9.28 21.5027 9.368 21.8327 9.544L23.3067 9.148C23.3727 9.22867 23.4094 9.379 23.4167 9.599C23.424 9.819 23.3874 9.96567 23.3067 10.039C23.1967 10.0977 22.9107 10.1197 22.4487 10.105C22.6614 10.4203 22.753 10.8603 22.7237 11.425C22.6944 11.9823 22.4854 12.4517 22.0967 12.833C21.708 13.207 21.202 13.394 20.5787 13.394ZM22.3827 15.682C22.3827 15.5133 22.258 15.4033 22.0087 15.352C21.7594 15.3007 21.3377 15.2603 20.7437 15.231C20.1497 15.2017 19.7684 15.1687 19.5997 15.132C19.4164 15.352 19.3247 15.5757 19.3247 15.803C19.3247 16.0303 19.442 16.2173 19.6767 16.364C19.9114 16.5107 20.2634 16.584 20.7327 16.584C21.202 16.584 21.5944 16.496 21.9097 16.32C22.225 16.1513 22.3827 15.9387 22.3827 15.682ZM20.6007 12.591C20.8647 12.591 21.0737 12.4847 21.2277 12.272C21.3817 12.052 21.4587 11.7477 21.4587 11.359C21.4587 10.963 21.3854 10.6587 21.2387 10.446C21.092 10.226 20.883 10.116 20.6117 10.116C20.3404 10.116 20.1314 10.226 19.9847 10.446C19.8454 10.666 19.7757 10.974 19.7757 11.37C19.7757 12.184 20.0507 12.591 20.6007 12.591ZM24.8281 12.305V12.426C24.8281 13.02 24.9344 13.4637 25.1471 13.757C25.3671 14.043 25.7411 14.186 26.2691 14.186C26.8044 14.186 27.3288 13.9843 27.8421 13.581C27.9888 13.691 28.0621 13.8633 28.0621 14.098C28.0621 14.3253 27.8568 14.56 27.4461 14.802C27.0428 15.044 26.5368 15.165 25.9281 15.165C25.1361 15.165 24.5201 14.934 24.0801 14.472C23.6474 14.0027 23.4311 13.295 23.4311 12.349C23.4311 11.3957 23.6658 10.6477 24.1351 10.105C24.6118 9.555 25.2644 9.28 26.0931 9.28C26.7971 9.28 27.3214 9.5 27.6661 9.94C28.0181 10.38 28.1868 10.9593 28.1721 11.678V12.305H24.8281ZM25.9721 10.16C25.3708 10.16 25.0078 10.622 24.8831 11.546H26.8851C26.8704 11.0473 26.7861 10.6917 26.6321 10.479C26.4781 10.2663 26.2581 10.16 25.9721 10.16ZM30.3939 10.215V13.262C30.3939 13.856 30.5845 14.153 30.9659 14.153C31.2445 14.153 31.4755 14.1163 31.6589 14.043C31.8495 13.9697 32.0512 13.845 32.2639 13.669C32.3005 13.669 32.3482 13.7167 32.4069 13.812C32.4655 13.9073 32.4949 14.01 32.4949 14.12C32.4949 14.406 32.2932 14.6517 31.8899 14.857C31.4865 15.0623 31.0942 15.165 30.7129 15.165C30.3315 15.165 30.0309 15.11 29.8109 15C29.5909 14.8973 29.4259 14.7433 29.3159 14.538C29.1399 14.2007 29.0519 13.7533 29.0519 13.196V10.215H28.1389C28.1389 9.70167 28.3185 9.445 28.6779 9.445H29.0519V8.037L30.3939 7.894V9.445H32.3739C32.3885 9.555 32.3775 9.67967 32.3409 9.819C32.2749 10.083 32.1062 10.215 31.8349 10.215H30.3939ZM37.8306 14.505C37.8306 14.945 37.5446 15.165 36.9726 15.165C36.4006 15.165 36.0302 14.9743 35.8616 14.593C35.3996 14.9743 34.8899 15.165 34.3326 15.165C33.7752 15.165 33.3352 15.0293 33.0126 14.758C32.6972 14.4793 32.5396 14.1017 32.5396 13.625C32.5396 13.141 32.7266 12.745 33.1006 12.437C33.4746 12.129 34.0649 11.975 34.8716 11.975C35.1869 11.975 35.4876 11.997 35.7736 12.041V11.557C35.7736 11.051 35.6892 10.6917 35.5206 10.479C35.3592 10.2663 35.1356 10.16 34.8496 10.16C34.5636 10.16 34.3326 10.2517 34.1566 10.435C33.9879 10.6183 33.9036 10.8677 33.9036 11.183C33.6102 11.2123 33.3646 11.1683 33.1666 11.051C32.9759 10.9263 32.8806 10.7393 32.8806 10.49C32.8806 10.138 33.0639 9.84833 33.4306 9.621C33.7972 9.39367 34.2702 9.28 34.8496 9.28C36.3602 9.28 37.1156 10.0133 37.1156 11.48V14.417L37.8306 14.505ZM35.7736 12.866C35.5096 12.7707 35.2309 12.723 34.9376 12.723C34.6516 12.723 34.4132 12.7927 34.2226 12.932C34.0319 13.064 33.9366 13.2547 33.9366 13.504C33.9366 14.0173 34.2006 14.274 34.7286 14.274C35.1026 14.274 35.4509 14.1677 35.7736 13.955V12.866ZM39.9909 10.248C40.1669 10.0133 40.4162 9.79333 40.7389 9.588C41.0689 9.38267 41.3512 9.28 41.5859 9.28C41.8279 9.28 42.0296 9.357 42.1909 9.511C42.3522 9.665 42.4329 9.92167 42.4329 10.281C42.4329 10.633 42.3119 10.9153 42.0699 11.128C41.9452 11.2233 41.7362 11.2527 41.4429 11.216C41.4429 10.974 41.4209 10.7907 41.3769 10.666C41.3329 10.534 41.2852 10.457 41.2339 10.435C41.1826 10.4057 41.1129 10.391 41.0249 10.391C40.6582 10.391 40.3282 10.6293 40.0349 11.106V14.219L40.9259 14.285C40.9699 14.7617 40.8049 15 40.4309 15H37.8899C37.8899 15 37.8899 14.9707 37.8899 14.912C37.8899 14.5087 38.0512 14.2923 38.3739 14.263L38.6929 14.241V10.303L38.2089 10.248C37.9816 10.226 37.8679 10.006 37.8679 9.588L39.8589 9.335L39.9579 10.248H39.9909ZM44.8548 15H42.4018V14.912C42.4018 14.5087 42.5632 14.2923 42.8858 14.263L43.2268 14.241V10.248L42.7978 10.204C42.4972 10.1747 42.3615 9.94733 42.3908 9.522L44.5688 9.28V14.219L45.3498 14.285C45.3938 14.7617 45.2288 15 44.8548 15ZM44.6238 7.971C44.6238 8.19833 44.5468 8.39267 44.3928 8.554C44.2388 8.708 44.0445 8.785 43.8098 8.785C43.5825 8.785 43.3882 8.708 43.2268 8.554C43.0728 8.39267 42.9958 8.19833 42.9958 7.971C42.9958 7.74367 43.0728 7.553 43.2268 7.399C43.3882 7.23767 43.5825 7.157 43.8098 7.157C44.0372 7.157 44.2278 7.23767 44.3818 7.399C44.5432 7.553 44.6238 7.74367 44.6238 7.971ZM50.7755 14.505C50.7755 14.945 50.4895 15.165 49.9175 15.165C49.3455 15.165 48.9752 14.9743 48.8065 14.593C48.3445 14.9743 47.8349 15.165 47.2775 15.165C46.7202 15.165 46.2802 15.0293 45.9575 14.758C45.6422 14.4793 45.4845 14.1017 45.4845 13.625C45.4845 13.141 45.6715 12.745 46.0455 12.437C46.4195 12.129 47.0099 11.975 47.8165 11.975C48.1319 11.975 48.4325 11.997 48.7185 12.041V11.557C48.7185 11.051 48.6342 10.6917 48.4655 10.479C48.3042 10.2663 48.0805 10.16 47.7945 10.16C47.5085 10.16 47.2775 10.2517 47.1015 10.435C46.9329 10.6183 46.8485 10.8677 46.8485 11.183C46.5552 11.2123 46.3095 11.1683 46.1115 11.051C45.9209 10.9263 45.8255 10.7393 45.8255 10.49C45.8255 10.138 46.0089 9.84833 46.3755 9.621C46.7422 9.39367 47.2152 9.28 47.7945 9.28C49.3052 9.28 50.0605 10.0133 50.0605 11.48V14.417L50.7755 14.505ZM48.7185 12.866C48.4545 12.7707 48.1759 12.723 47.8825 12.723C47.5965 12.723 47.3582 12.7927 47.1675 12.932C46.9769 13.064 46.8815 13.2547 46.8815 13.504C46.8815 14.0173 47.1455 14.274 47.6735 14.274C48.0475 14.274 48.3959 14.1677 48.7185 13.955V12.866ZM56.9178 15H54.4868V14.912C54.4868 14.5087 54.6482 14.2923 54.9708 14.263L55.2898 14.241V11.535C55.2898 11.1097 55.2055 10.8127 55.0368 10.644C54.8682 10.468 54.6335 10.38 54.3328 10.38C54.0322 10.38 53.7865 10.4203 53.5958 10.501C53.4052 10.5817 53.2072 10.71 53.0018 10.886V14.219L53.7828 14.285C53.8268 14.7617 53.6618 15 53.2878 15H50.8348V14.912C50.8348 14.5087 50.9962 14.2923 51.3188 14.263L51.6598 14.241V10.314L51.2308 10.27C50.9302 10.2407 50.7945 10.0133 50.8238 9.588L52.8148 9.346L52.8918 10.017H52.9248C53.1962 9.78233 53.4565 9.60267 53.7058 9.478C53.9625 9.346 54.2632 9.28 54.6078 9.28C55.1725 9.28 55.6492 9.47067 56.0378 9.852C56.4338 10.226 56.6318 10.8053 56.6318 11.59V14.219L57.4128 14.285C57.4568 14.7617 57.2918 15 56.9178 15Z" fill="white"/>
</svg>
