<svg width="527" height="666" viewBox="0 0 527 666" fill="none" xmlns="http://www.w3.org/2000/svg">
<rect x="2.5" y="2.5" width="522" height="661" rx="43.5" stroke="black" stroke-width="5"/>
<path d="M42.6562 63.3906C42.3438 62.4948 42.1875 61.4375 42.1875 60.2188C42.4688 59.4375 42.9323 58.7812 43.5781 58.25C44.224 57.7188 45.0365 57.4531 46.0156 57.4531C46.6406 57.4531 47.1823 57.5833 47.6406 57.8438C48.099 58.0938 48.5156 58.4792 48.8906 59C49.4635 59.8125 49.9062 60.9375 50.2188 62.375C50.4896 63.6354 50.7135 65.1094 50.8906 66.7969C51.0781 68.474 51.1719 70.0573 51.1719 71.5469L51.7812 71.5625C52.2083 70.125 52.5521 68.7552 52.8125 67.4531C53.0729 66.151 53.2656 64.599 53.3906 62.7969L51.5469 62.4375C51.3906 61.875 51.2812 61.3906 51.2188 60.9844C51.1562 60.5677 51.125 60.125 51.125 59.6562C51.125 59.3854 51.3333 59.0781 51.75 58.7344C52.1667 58.3802 52.7031 58.0833 53.3594 57.8438C54.026 57.6042 54.7135 57.4844 55.4219 57.4844C58.099 57.4844 59.4375 58.8333 59.4375 61.5312C59.4375 62.3958 59.25 63.3438 58.875 64.375C59.4792 66.4583 59.9271 68.8542 60.2188 71.5625L60.5 71.5781C60.9271 70.5781 61.3125 69.224 61.6562 67.5156C62.0104 65.7969 62.1875 64.2083 62.1875 62.75L60.6562 62.4531C60.5 61.8906 60.3906 61.4062 60.3281 61C60.2656 60.5833 60.2344 60.1406 60.2344 59.6719C60.2344 59.401 60.4167 59.0938 60.7812 58.75C61.1562 58.3958 61.651 58.099 62.2656 57.8594C62.8802 57.6094 63.5312 57.4844 64.2188 57.4844C66.9583 57.4844 68.3281 58.9167 68.3281 61.7812C68.3281 63.5417 68 65.3698 67.3438 67.2656C66.6875 69.1615 65.8906 70.8906 64.9531 72.4531C64.0156 74.0156 63.1302 75.2292 62.2969 76.0938C61.776 76.2396 61.2135 76.3125 60.6094 76.3125C59.8906 76.3125 59.1927 76.2135 58.5156 76.0156C57.849 75.8281 57.3073 75.5521 56.8906 75.1875C56.8177 74.9375 56.6875 74.25 56.5 73.125C56.2292 71.5417 56.0208 70.401 55.875 69.7031H55.5625C54.9896 72.2031 54.1458 74.2969 53.0312 75.9844C52.4583 76.2031 51.724 76.3125 50.8281 76.3125C50.0677 76.3125 49.3438 76.2292 48.6562 76.0625C47.9688 75.9062 47.4531 75.6719 47.1094 75.3594C46.974 74.401 46.7031 73.099 46.2969 71.4531C45.8906 69.8073 45.4427 68.2396 44.9531 66.75C44.474 65.2604 44.0521 64.2083 43.6875 63.5938L42.6562 63.3906ZM69.4514 66.9219C69.4514 65.1198 69.7535 63.5104 70.3576 62.0938C70.9618 60.6771 71.8941 59.5573 73.1545 58.7344C74.4253 57.901 76.0087 57.4844 77.9045 57.4844C78.8941 57.4844 79.8837 57.6042 80.8732 57.8438C81.8628 58.0729 82.7014 58.4583 83.3889 59C84.0243 59.5104 84.4826 60.1875 84.7639 61.0312C85.0555 61.8646 85.2014 62.7917 85.2014 63.8125C85.2014 64.4896 85.1441 65.1823 85.0295 65.8906C84.9045 66.099 84.6597 66.375 84.2951 66.7188C83.9305 67.0521 83.5035 67.3802 83.0139 67.7031C82.5243 68.026 82.0503 68.276 81.592 68.4531C81.1545 68.4844 80.7014 68.5 80.2326 68.5C79.4097 68.5 78.5764 68.4635 77.7326 68.3906C76.8889 68.3177 76.1493 68.2344 75.5139 68.1406C75.5972 69.026 75.868 69.7969 76.3264 70.4531C76.7847 71.1094 77.5139 71.4375 78.5139 71.4375C78.6076 71.4375 78.7587 71.4271 78.967 71.4062C79.6024 71.3438 80.342 71.1771 81.1857 70.9062C82.0399 70.625 82.8889 70.3021 83.7326 69.9375C84.1285 70.3333 84.4201 70.7292 84.6076 71.125C84.7951 71.5208 84.9253 72.0885 84.9982 72.8281C84.6753 73.2031 84.1493 73.6615 83.4201 74.2031C82.7014 74.7448 81.8212 75.2344 80.7795 75.6719C79.7378 76.099 78.6493 76.3125 77.5139 76.3125C75.8055 76.3125 74.342 75.901 73.1232 75.0781C71.9149 74.2448 70.9982 73.1198 70.3732 71.7031C69.7587 70.276 69.4514 68.6823 69.4514 66.9219ZM79.5139 63.3281C79.368 63.1719 79.1232 63.0521 78.7795 62.9688C78.4357 62.875 78.0764 62.8281 77.7014 62.8281C77.3993 62.8281 77.092 62.8542 76.7795 62.9062C76.4774 62.9583 76.2951 63.0156 76.2326 63.0781C75.8785 63.776 75.6545 64.5677 75.5607 65.4531L79.7326 65.0469L79.5139 63.3281ZM86.8559 66.9219C86.8559 65.1198 87.158 63.5104 87.7621 62.0938C88.3663 60.6771 89.2986 59.5573 90.559 58.7344C91.8298 57.901 93.4132 57.4844 95.309 57.4844C96.2986 57.4844 97.2882 57.6042 98.2777 57.8438C99.2673 58.0729 100.106 58.4583 100.793 59C101.429 59.5104 101.887 60.1875 102.168 61.0312C102.46 61.8646 102.606 62.7917 102.606 63.8125C102.606 64.4896 102.549 65.1823 102.434 65.8906C102.309 66.099 102.064 66.375 101.7 66.7188C101.335 67.0521 100.908 67.3802 100.418 67.7031C99.9288 68.026 99.4548 68.276 98.9965 68.4531C98.559 68.4844 98.1059 68.5 97.6371 68.5C96.8142 68.5 95.9809 68.4635 95.1371 68.3906C94.2934 68.3177 93.5538 68.2344 92.9184 68.1406C93.0017 69.026 93.2725 69.7969 93.7309 70.4531C94.1892 71.1094 94.9184 71.4375 95.9184 71.4375C96.0121 71.4375 96.1632 71.4271 96.3715 71.4062C97.0069 71.3438 97.7465 71.1771 98.5902 70.9062C99.4444 70.625 100.293 70.3021 101.137 69.9375C101.533 70.3333 101.825 70.7292 102.012 71.125C102.2 71.5208 102.33 72.0885 102.403 72.8281C102.08 73.2031 101.554 73.6615 100.825 74.2031C100.106 74.7448 99.2257 75.2344 98.184 75.6719C97.1423 76.099 96.0538 76.3125 94.9184 76.3125C93.21 76.3125 91.7465 75.901 90.5277 75.0781C89.3194 74.2448 88.4027 73.1198 87.7777 71.7031C87.1632 70.276 86.8559 68.6823 86.8559 66.9219ZM96.9184 63.3281C96.7725 63.1719 96.5277 63.0521 96.184 62.9688C95.8402 62.875 95.4809 62.8281 95.1059 62.8281C94.8038 62.8281 94.4965 62.8542 94.184 62.9062C93.8819 62.9583 93.6996 63.0156 93.6371 63.0781C93.283 63.776 93.059 64.5677 92.9652 65.4531L97.1371 65.0469L96.9184 63.3281ZM105.167 65.9062C105.167 61.0312 105.26 57.6875 105.448 55.875L103.682 55.5625C103.432 54.6042 103.307 53.5729 103.307 52.4688C103.464 52.2708 103.755 52.026 104.182 51.7344C104.609 51.4427 105.104 51.1875 105.667 50.9688C106.24 50.75 106.807 50.6406 107.37 50.6406C108.766 50.6406 109.849 50.9427 110.62 51.5469C111.401 52.151 111.792 53.1823 111.792 54.6406C111.792 55.3698 111.74 56.4896 111.635 58C111.531 59.5 111.339 61.3229 111.057 63.4688C110.776 65.6146 110.401 67.8542 109.932 70.1875L110.198 70.3438C111.021 69.2083 111.812 67.9583 112.573 66.5938C113.333 65.2188 113.937 63.9427 114.385 62.7656L113.042 62.4375C112.917 61.7292 112.854 60.8906 112.854 59.9219V59.3594C113.25 58.8594 113.792 58.4219 114.479 58.0469C115.177 57.6719 116.042 57.4844 117.073 57.4844C117.812 57.4844 118.453 57.625 118.995 57.9062C119.536 58.1771 119.953 58.5573 120.245 59.0469C120.536 59.5365 120.682 60.099 120.682 60.7344C120.682 61.2135 120.609 61.6667 120.464 62.0938C120.318 62.5104 120.099 62.9531 119.807 63.4219C119.057 64.6094 117.75 66.2969 115.885 68.4844C116.51 69.3594 117.12 70.1198 117.714 70.7656C117.943 70.651 118.156 70.5 118.354 70.3125C118.562 70.125 118.828 69.8542 119.151 69.5L119.495 69.1406L121.417 70.5938C121.344 72.4479 120.943 73.8646 120.214 74.8438C119.495 75.8125 118.542 76.2969 117.354 76.2969C116.052 76.2969 115.073 75.901 114.417 75.1094C113.76 74.3177 113.281 73.1979 112.979 71.75C111.833 72.9896 110.823 74.0312 109.948 74.875C109.083 75.7083 108.516 76.1875 108.245 76.3125C107.672 76.3125 107.125 76.2448 106.604 76.1094C106.083 75.974 105.698 75.7604 105.448 75.4688C105.333 73.9896 105.255 72.526 105.214 71.0781C105.182 69.6198 105.167 67.8958 105.167 65.9062ZM122.227 55.5625C122.071 54.9271 121.967 54.401 121.915 53.9844C121.863 53.5573 121.842 53.0677 121.852 52.5156C122.071 52.2344 122.41 51.9531 122.868 51.6719C123.337 51.3802 123.878 51.1354 124.493 50.9375C125.118 50.7396 125.764 50.6406 126.43 50.6406C127.733 50.6406 128.733 50.9688 129.43 51.625C130.128 52.2812 130.477 53.25 130.477 54.5312C130.477 55.4479 130.399 56.9219 130.243 58.9531C130.087 60.9844 129.863 63.1458 129.571 65.4375C129.279 67.7188 128.946 69.7135 128.571 71.4219L128.602 71.4531L130.915 70.4844C131.727 71.1823 132.201 72.1094 132.337 73.2656C132.337 73.3385 132.102 73.6406 131.634 74.1719C131.165 74.6927 130.545 75.1823 129.774 75.6406C129.014 76.0885 128.139 76.3125 127.149 76.3125C126.118 76.3125 125.279 76.026 124.634 75.4531C123.998 74.8802 123.696 73.901 123.727 72.5156L123.759 69.7031C123.769 67.0365 123.795 64.6354 123.837 62.5C123.889 60.3646 123.993 58.1615 124.149 55.8906L122.227 55.5625ZM138.741 74.0469C138.543 73.276 138.174 72.1615 137.632 70.7031C137.09 69.2344 136.522 67.8229 135.929 66.4688C135.335 65.1146 134.866 64.1823 134.522 63.6719L133.085 63.4219C132.939 63.0156 132.825 62.5677 132.741 62.0781C132.668 61.5781 132.606 61 132.554 60.3438C132.731 59.8542 133.002 59.3906 133.366 58.9531C133.731 58.5156 134.168 58.1615 134.679 57.8906C135.2 57.6198 135.762 57.4844 136.366 57.4844C137.356 57.4844 138.174 57.7656 138.819 58.3281C139.476 58.8802 139.981 59.5781 140.335 60.4219C140.7 61.2552 141.017 62.2396 141.288 63.375C141.84 65.5729 142.194 68.2969 142.351 71.5469L142.694 71.4844C143.101 70.5781 143.444 69.2812 143.726 67.5938C144.017 65.9062 144.174 64.2865 144.194 62.7344L142.241 62.4375C142.012 61.5625 141.897 60.5365 141.897 59.3594C142.127 59.0781 142.455 58.7969 142.882 58.5156C143.319 58.224 143.835 57.9792 144.429 57.7812C145.022 57.5833 145.653 57.4844 146.319 57.4844C149.007 57.4844 150.351 58.8333 150.351 61.5312C150.351 63.6562 149.965 65.7188 149.194 67.7188C148.434 69.7188 147.288 71.526 145.757 73.1406C144.226 74.7552 142.361 76.026 140.163 76.9531L140.288 77.4688C140.569 77.5 140.845 77.5156 141.116 77.5156C142.002 77.5156 143.069 77.3698 144.319 77.0781C145.028 77.8698 145.382 78.7344 145.382 79.6719C145.382 79.9531 145.351 80.2396 145.288 80.5312C144.663 81.1354 143.882 81.6562 142.944 82.0938C142.007 82.5312 140.976 82.75 139.851 82.75C138.215 82.75 136.892 82.3802 135.882 81.6406C134.871 80.901 134.366 79.776 134.366 78.2656C134.366 77.5885 134.569 76.9948 134.976 76.4844C135.392 75.9844 135.871 75.5781 136.413 75.2656C136.965 74.9427 137.741 74.5365 138.741 74.0469ZM159.769 70.5625C159.769 68.8646 159.79 67.5833 159.831 66.7188C159.873 65.8438 159.983 64.5625 160.16 62.875L158.363 62.6406C158.144 61.9635 157.998 61.3594 157.925 60.8281C157.863 60.2969 157.831 59.6094 157.831 58.7656C157.998 58.6198 158.274 58.4479 158.66 58.25C159.055 58.0417 159.519 57.8646 160.05 57.7188C160.592 57.5625 161.139 57.4844 161.691 57.4844C162.951 57.4844 163.842 57.7552 164.363 58.2969C164.894 58.8385 165.16 59.651 165.16 60.7344C165.16 61.3385 165.071 62.1562 164.894 63.1875C164.602 64.8438 164.456 65.7135 164.456 65.7969C164.456 65.849 164.493 65.901 164.566 65.9531C164.639 65.9948 164.717 66.0156 164.8 66.0156C164.894 66.0156 164.956 65.9792 164.988 65.9062C164.977 65.9479 165.097 65.4219 165.347 64.3281C165.649 62.8906 165.956 61.7188 166.269 60.8125C166.592 59.9062 167.102 59.1302 167.8 58.4844C168.498 57.8385 169.446 57.5156 170.644 57.5156C172.123 57.5156 173.191 57.9427 173.847 58.7969C174.503 59.6406 174.831 60.7656 174.831 62.1719C174.831 63.2865 174.644 64.526 174.269 65.8906C174.269 65.9427 174.305 65.9948 174.378 66.0469C174.451 66.0885 174.529 66.1094 174.613 66.1094C174.706 66.1094 174.769 66.0729 174.8 66L175.019 65.125C175.394 63.5833 175.764 62.3021 176.128 61.2812C176.503 60.2604 177.061 59.3802 177.8 58.6406C178.55 57.8906 179.524 57.5156 180.722 57.5156C182.295 57.5156 183.425 58.0208 184.113 59.0312C184.811 60.0417 185.16 61.3125 185.16 62.8438C185.16 63.9271 185.055 65.0156 184.847 66.1094C184.649 67.2031 184.436 68.1198 184.206 68.8594C183.988 69.599 183.717 70.4531 183.394 71.4219L183.425 71.4531L185.738 70.4844C186.55 71.1823 187.024 72.1094 187.16 73.2656C187.16 73.3385 186.925 73.6406 186.456 74.1719C185.988 74.6927 185.368 75.1823 184.597 75.6406C183.837 76.0885 182.962 76.3125 181.972 76.3125C180.983 76.3125 180.175 76.0469 179.55 75.5156C178.925 74.9844 178.613 74.0781 178.613 72.7969C178.613 71.3698 178.639 69.9062 178.691 68.4062C178.753 66.8958 178.842 65.5417 178.956 64.3438C178.779 64.1979 178.535 64.1198 178.222 64.1094C177.91 64.4115 177.519 65.0729 177.05 66.0938C176.581 67.1042 176.149 68.1875 175.753 69.3438C175.358 70.4896 175.108 71.3854 175.003 72.0312C175.149 73.0521 175.373 74.0625 175.675 75.0625C175.488 75.4167 175.102 75.7135 174.519 75.9531C173.936 76.1927 173.217 76.3125 172.363 76.3125C171.592 76.3125 170.988 76.25 170.55 76.125C170.113 76 169.811 75.8698 169.644 75.7344C169.488 75.599 169.41 75.5104 169.41 75.4688C169.399 75.375 169.373 75.1302 169.331 74.7344C169.29 74.3281 169.248 73.7656 169.206 73.0469C169.165 72.3177 169.144 71.4896 169.144 70.5625C169.144 69.6771 169.212 68.5677 169.347 67.2344C169.358 67.0677 169.389 66.6719 169.441 66.0469C169.493 65.4219 169.519 64.8542 169.519 64.3438C169.342 64.1979 169.097 64.1198 168.785 64.1094C168.608 64.2448 168.113 65.1094 167.3 66.7031C166.488 68.2969 165.946 69.4219 165.675 70.0781C165.654 70.224 165.644 70.3646 165.644 70.5C165.644 71.0208 165.722 71.724 165.878 72.6094C166.035 73.4844 166.227 74.3021 166.456 75.0625C166.269 75.4167 165.884 75.7135 165.3 75.9531C164.717 76.1927 163.998 76.3125 163.144 76.3125C162.373 76.3125 161.753 76.25 161.285 76.125C160.826 76 160.503 75.8698 160.316 75.7344C160.128 75.5885 160.035 75.5 160.035 75.4688C160.024 75.375 159.998 75.1302 159.956 74.7344C159.915 74.3281 159.873 73.7656 159.831 73.0469C159.79 72.3177 159.769 71.4896 159.769 70.5625ZM187.752 66.9219C187.752 65.1198 188.054 63.5104 188.658 62.0938C189.262 60.6771 190.194 59.5573 191.455 58.7344C192.726 57.901 194.309 57.4844 196.205 57.4844C197.194 57.4844 198.184 57.6042 199.173 57.8438C200.163 58.0729 201.002 58.4583 201.689 59C202.325 59.5104 202.783 60.1875 203.064 61.0312C203.356 61.8646 203.502 62.7917 203.502 63.8125C203.502 64.4896 203.444 65.1823 203.33 65.8906C203.205 66.099 202.96 66.375 202.595 66.7188C202.231 67.0521 201.804 67.3802 201.314 67.7031C200.825 68.026 200.351 68.276 199.892 68.4531C199.455 68.4844 199.002 68.5 198.533 68.5C197.71 68.5 196.877 68.4635 196.033 68.3906C195.189 68.3177 194.45 68.2344 193.814 68.1406C193.897 69.026 194.168 69.7969 194.627 70.4531C195.085 71.1094 195.814 71.4375 196.814 71.4375C196.908 71.4375 197.059 71.4271 197.267 71.4062C197.903 71.3438 198.642 71.1771 199.486 70.9062C200.34 70.625 201.189 70.3021 202.033 69.9375C202.429 70.3333 202.72 70.7292 202.908 71.125C203.095 71.5208 203.226 72.0885 203.298 72.8281C202.976 73.2031 202.45 73.6615 201.72 74.2031C201.002 74.7448 200.121 75.2344 199.08 75.6719C198.038 76.099 196.95 76.3125 195.814 76.3125C194.106 76.3125 192.642 75.901 191.423 75.0781C190.215 74.2448 189.298 73.1198 188.673 71.7031C188.059 70.276 187.752 68.6823 187.752 66.9219ZM197.814 63.3281C197.668 63.1719 197.423 63.0521 197.08 62.9688C196.736 62.875 196.377 62.8281 196.002 62.8281C195.7 62.8281 195.392 62.8542 195.08 62.9062C194.778 62.9583 194.595 63.0156 194.533 63.0781C194.179 63.776 193.955 64.5677 193.861 65.4531L198.033 65.0469L197.814 63.3281ZM210.187 65.7031C210.802 65.7031 211.479 65.7656 212.219 65.8906C212.969 66.0156 213.656 66.1667 214.281 66.3438V65.8594C214.281 65.5365 214.271 65.1771 214.25 64.7812C214.239 64.3854 214.219 64.125 214.187 64C214.094 63.8229 213.823 63.6406 213.375 63.4531C212.937 63.2656 212.219 63.1719 211.219 63.1719C210.604 63.1719 209.969 63.25 209.312 63.4062C208.667 63.5521 207.948 63.75 207.156 64C206.729 63.2917 206.385 62.6198 206.125 61.9844C205.875 61.3385 205.75 60.6927 205.75 60.0469C205.75 59.849 205.766 59.651 205.797 59.4531C207.484 58.1406 209.667 57.4844 212.344 57.4844C213.823 57.4844 215.135 57.651 216.281 57.9844C217.427 58.3177 218.37 58.9635 219.109 59.9219C219.849 60.8802 220.219 62.2396 220.219 64C220.219 65.7188 220.016 67.3854 219.609 69C219.213 70.6042 219.01 71.4219 219 71.4531L221.266 70.4844C221.568 70.8073 221.833 71.2031 222.062 71.6719C222.302 72.1302 222.453 72.6615 222.516 73.2656C222.37 73.5781 222.052 73.9792 221.562 74.4688C221.073 74.9479 220.474 75.375 219.766 75.75C219.057 76.125 218.318 76.3125 217.547 76.3125C216.682 76.3125 216.026 76.0573 215.578 75.5469C215.141 75.0365 214.922 74.375 214.922 73.5625C214.922 73.1042 214.989 72.6406 215.125 72.1719L214.656 72.0312C214.364 73.6771 213.745 74.8021 212.797 75.4062C211.849 76.0104 210.802 76.3125 209.656 76.3125C208.906 76.3125 208.182 76.1042 207.484 75.6875C206.786 75.2604 206.219 74.6458 205.781 73.8438C205.344 73.0312 205.125 72.0833 205.125 71C205.125 69.2708 205.557 67.9583 206.422 67.0625C207.286 66.1562 208.542 65.7031 210.187 65.7031ZM211.969 71.6562C212.229 71.6042 212.536 71.4583 212.891 71.2188C213.255 70.9792 213.578 70.6927 213.859 70.3594C214.141 70.026 214.307 69.7083 214.359 69.4062L214.266 69.0312C213.713 68.9583 213.125 68.9219 212.5 68.9219C211.969 68.9219 211.604 68.9635 211.406 69.0469C211.073 69.4219 210.906 69.8385 210.906 70.2969C210.906 70.6302 210.989 70.9323 211.156 71.2031C211.333 71.474 211.604 71.625 211.969 71.6562ZM222.467 55.5625C222.311 54.9271 222.206 54.401 222.154 53.9844C222.102 53.5573 222.081 53.0677 222.092 52.5156C222.311 52.2344 222.649 51.9531 223.107 51.6719C223.576 51.3802 224.118 51.1354 224.732 50.9375C225.357 50.7396 226.003 50.6406 226.67 50.6406C227.972 50.6406 228.972 50.9688 229.67 51.625C230.368 52.2812 230.717 53.25 230.717 54.5312C230.717 55.4479 230.639 56.9219 230.482 58.9531C230.326 60.9844 230.102 63.1458 229.811 65.4375C229.519 67.7188 229.186 69.7135 228.811 71.4219L228.842 71.4531L231.154 70.4844C231.967 71.1823 232.441 72.1094 232.576 73.2656C232.576 73.3385 232.342 73.6406 231.873 74.1719C231.404 74.6927 230.785 75.1823 230.014 75.6406C229.253 76.0885 228.378 76.3125 227.389 76.3125C226.357 76.3125 225.519 76.026 224.873 75.4531C224.238 74.8802 223.936 73.901 223.967 72.5156L223.998 69.7031C224.009 67.0365 224.035 64.6354 224.076 62.5C224.128 60.3646 224.232 58.1615 224.389 55.8906L222.467 55.5625ZM239.807 62.5938C239.588 61.9167 239.443 61.3125 239.37 60.7812C239.307 60.25 239.276 59.5625 239.276 58.7188C239.443 58.5729 239.713 58.4062 240.088 58.2188C240.463 58.0208 240.911 57.849 241.432 57.7031C241.953 57.5573 242.489 57.4844 243.042 57.4844C244.302 57.4844 245.193 57.7552 245.713 58.2969C246.245 58.8385 246.51 59.651 246.51 60.7344C246.51 61.3385 246.422 62.1562 246.245 63.1875C245.953 64.8438 245.807 65.7135 245.807 65.7969C245.807 65.849 245.844 65.901 245.917 65.9531C245.989 65.9948 246.068 66.0156 246.151 66.0156C246.245 66.0156 246.307 65.9792 246.338 65.9062L246.495 65.2812L246.838 63.9531C247.349 62.026 248.109 60.4688 249.12 59.2812C250.13 58.0833 251.401 57.4844 252.932 57.4844C254.078 57.4844 255.01 57.7344 255.729 58.2344C256.458 58.724 256.984 59.375 257.307 60.1875C257.63 60.9896 257.792 61.875 257.792 62.8438C257.792 64.1562 257.667 65.6302 257.417 67.2656C257.167 68.8906 256.833 70.4115 256.417 71.8281C256.01 73.2135 255.333 74.3125 254.385 75.125C253.448 75.9271 252.276 76.3281 250.87 76.3281C250.359 76.3281 249.76 76.2448 249.073 76.0781C248.396 75.9219 247.536 75.6458 246.495 75.25L245.87 78.2031L245.901 78.2344L248.885 78.0312C249.083 78.3125 249.229 78.651 249.323 79.0469C249.427 79.4531 249.515 79.9167 249.588 80.4375L249.635 80.75C249.635 80.7917 249.406 80.9844 248.948 81.3281C248.489 81.6823 247.88 82.0052 247.12 82.2969C246.359 82.599 245.484 82.75 244.495 82.75C242.255 82.75 241.135 81.5573 241.135 79.1719V78.0938C241.135 74.9167 241.156 72.0885 241.198 69.6094C241.25 67.1198 241.354 64.875 241.51 62.875L239.807 62.5938ZM250.807 72.1562C251.182 70.75 251.37 68.6198 251.37 65.7656C251.37 65.276 251.344 64.8802 251.292 64.5781C251.052 64.276 250.708 64.125 250.26 64.125C250.114 64.25 249.614 65.0729 248.76 66.5938C247.906 68.1042 247.276 69.2656 246.87 70.0781V70.8281C247.443 71.224 248.104 71.5521 248.854 71.8125C249.604 72.0625 250.177 72.1875 250.573 72.1875C250.667 72.1875 250.745 72.1771 250.807 72.1562ZM258.805 55.5625C258.649 54.9271 258.545 54.401 258.493 53.9844C258.441 53.5573 258.42 53.0677 258.43 52.5156C258.649 52.2344 258.988 51.9531 259.446 51.6719C259.915 51.3802 260.456 51.1354 261.071 50.9375C261.696 50.7396 262.342 50.6406 263.008 50.6406C264.311 50.6406 265.311 50.9688 266.008 51.625C266.706 52.2812 267.055 53.25 267.055 54.5312C267.055 55.4479 266.977 56.9219 266.821 58.9531C266.665 60.9844 266.441 63.1458 266.149 65.4375C265.857 67.7188 265.524 69.7135 265.149 71.4219L265.18 71.4531L267.493 70.4844C268.305 71.1823 268.779 72.1094 268.915 73.2656C268.915 73.3385 268.68 73.6406 268.212 74.1719C267.743 74.6927 267.123 75.1823 266.352 75.6406C265.592 76.0885 264.717 76.3125 263.727 76.3125C262.696 76.3125 261.857 76.026 261.212 75.4531C260.576 74.8802 260.274 73.901 260.305 72.5156L260.337 69.7031C260.347 67.0365 260.373 64.6354 260.415 62.5C260.467 60.3646 260.571 58.1615 260.727 55.8906L258.805 55.5625ZM274.804 65.7031C275.418 65.7031 276.095 65.7656 276.835 65.8906C277.585 66.0156 278.272 66.1667 278.897 66.3438V65.8594C278.897 65.5365 278.887 65.1771 278.866 64.7812C278.856 64.3854 278.835 64.125 278.804 64C278.71 63.8229 278.439 63.6406 277.991 63.4531C277.554 63.2656 276.835 63.1719 275.835 63.1719C275.22 63.1719 274.585 63.25 273.929 63.4062C273.283 63.5521 272.564 63.75 271.772 64C271.345 63.2917 271.002 62.6198 270.741 61.9844C270.491 61.3385 270.366 60.6927 270.366 60.0469C270.366 59.849 270.382 59.651 270.413 59.4531C272.1 58.1406 274.283 57.4844 276.96 57.4844C278.439 57.4844 279.752 57.651 280.897 57.9844C282.043 58.3177 282.986 58.9635 283.725 59.9219C284.465 60.8802 284.835 62.2396 284.835 64C284.835 65.7188 284.632 67.3854 284.225 69C283.83 70.6042 283.627 71.4219 283.616 71.4531L285.882 70.4844C286.184 70.8073 286.449 71.2031 286.679 71.6719C286.918 72.1302 287.069 72.6615 287.132 73.2656C286.986 73.5781 286.668 73.9792 286.179 74.4688C285.689 74.9479 285.09 75.375 284.382 75.75C283.673 76.125 282.934 76.3125 282.163 76.3125C281.298 76.3125 280.642 76.0573 280.194 75.5469C279.757 75.0365 279.538 74.375 279.538 73.5625C279.538 73.1042 279.606 72.6406 279.741 72.1719L279.272 72.0312C278.981 73.6771 278.361 74.8021 277.413 75.4062C276.465 76.0104 275.418 76.3125 274.272 76.3125C273.522 76.3125 272.798 76.1042 272.1 75.6875C271.403 75.2604 270.835 74.6458 270.397 73.8438C269.96 73.0312 269.741 72.0833 269.741 71C269.741 69.2708 270.173 67.9583 271.038 67.0625C271.903 66.1562 273.158 65.7031 274.804 65.7031ZM276.585 71.6562C276.845 71.6042 277.153 71.4583 277.507 71.2188C277.871 70.9792 278.194 70.6927 278.475 70.3594C278.757 70.026 278.923 69.7083 278.975 69.4062L278.882 69.0312C278.33 68.9583 277.741 68.9219 277.116 68.9219C276.585 68.9219 276.22 68.9635 276.022 69.0469C275.689 69.4219 275.522 69.8385 275.522 70.2969C275.522 70.6302 275.606 70.9323 275.772 71.2031C275.949 71.474 276.22 71.625 276.585 71.6562ZM288.989 70.5625C288.989 68.8646 289.01 67.5833 289.052 66.7188C289.094 65.8438 289.203 64.5625 289.38 62.875L287.568 62.6406C287.349 61.9635 287.203 61.3594 287.13 60.8281C287.068 60.2969 287.036 59.6094 287.036 58.7656C287.203 58.6198 287.479 58.4479 287.864 58.25C288.26 58.0417 288.729 57.8646 289.271 57.7188C289.812 57.5625 290.359 57.4844 290.911 57.4844C292.172 57.4844 293.062 57.7552 293.583 58.2969C294.114 58.8385 294.38 59.651 294.38 60.7344C294.38 61.3385 294.291 62.1562 294.114 63.1875C293.823 64.8438 293.677 65.7135 293.677 65.7969C293.677 65.849 293.713 65.901 293.786 65.9531C293.859 65.9948 293.937 66.0156 294.021 66.0156C294.114 66.0156 294.177 65.9792 294.208 65.9062C294.625 64.25 295.041 62.8646 295.458 61.75C295.875 60.6354 296.505 59.6458 297.349 58.7812C298.193 57.9167 299.286 57.4844 300.63 57.4844C302.297 57.4844 303.495 57.9948 304.224 59.0156C304.953 60.026 305.318 61.3021 305.318 62.8438C305.318 64.2188 305.156 65.5469 304.833 66.8281C304.51 68.099 304.109 69.4271 303.63 70.8125C303.651 70.7604 303.578 70.9635 303.411 71.4219L303.443 71.4531L305.724 70.5156C306.536 71.2135 307.01 72.1406 307.146 73.2969C307.146 73.3698 306.911 73.6667 306.443 74.1875C305.984 74.7083 305.375 75.1927 304.614 75.6406C303.854 76.0885 302.979 76.3125 301.989 76.3125C301 76.3125 300.193 76.0469 299.568 75.5156C298.943 74.9844 298.63 74.0781 298.63 72.7969C298.63 71.776 298.672 70.4115 298.755 68.7031C298.838 66.9948 298.922 65.6198 299.005 64.5781C298.734 64.2865 298.401 64.1302 298.005 64.1094C297.64 64.5781 297.104 65.5156 296.396 66.9219C295.687 68.3281 295.187 69.3802 294.896 70.0781C294.875 70.224 294.864 70.3646 294.864 70.5C294.864 71.0208 294.943 71.724 295.099 72.6094C295.255 73.4844 295.448 74.3021 295.677 75.0625C295.489 75.4167 295.104 75.7135 294.521 75.9531C293.937 76.1927 293.219 76.3125 292.364 76.3125C291.594 76.3125 290.974 76.25 290.505 76.125C290.047 76 289.724 75.8698 289.536 75.7344C289.349 75.5885 289.255 75.5 289.255 75.4688C289.245 75.375 289.219 75.1302 289.177 74.7344C289.135 74.3281 289.094 73.7656 289.052 73.0469C289.01 72.3177 288.989 71.4896 288.989 70.5625Z" fill="black"/>
</svg>
