<svg width="327" height="498" viewBox="0 0 327 498" fill="none" xmlns="http://www.w3.org/2000/svg">
<path d="M30.8163 49.3013C30.6503 48.8254 30.5673 48.2637 30.5673 47.6162C30.7167 47.2012 30.963 46.8525 31.3061 46.5703C31.6492 46.2881 32.0808 46.147 32.601 46.147C32.933 46.147 33.2208 46.2161 33.4643 46.3545C33.7078 46.4873 33.9291 46.6921 34.1284 46.9688C34.4327 47.4004 34.6679 47.998 34.8339 48.7617C34.9778 49.4313 35.0968 50.2144 35.1909 51.1108C35.2905 52.0018 35.3403 52.8429 35.3403 53.6343L35.664 53.6426C35.8909 52.8789 36.0735 52.1512 36.2119 51.4595C36.3502 50.7677 36.4526 49.9432 36.519 48.9858L35.5395 48.7949C35.4565 48.4961 35.3984 48.2388 35.3652 48.0229C35.332 47.8016 35.3154 47.5664 35.3154 47.3174C35.3154 47.1735 35.426 47.0103 35.6474 46.8276C35.8688 46.6395 36.1537 46.4818 36.5024 46.3545C36.8565 46.2272 37.2218 46.1636 37.5981 46.1636C39.0203 46.1636 39.7314 46.8802 39.7314 48.3135C39.7314 48.7728 39.6318 49.2764 39.4326 49.8242C39.7535 50.931 39.9915 52.2038 40.1464 53.6426L40.2958 53.6509C40.5227 53.1196 40.7275 52.4002 40.9101 51.4927C41.0982 50.5796 41.1923 49.7357 41.1923 48.9609L40.3788 48.8032C40.2958 48.5044 40.2377 48.2471 40.2045 48.0312C40.1713 47.8099 40.1547 47.5747 40.1547 47.3257C40.1547 47.1818 40.2516 47.0186 40.4453 46.8359C40.6445 46.6478 40.9073 46.4901 41.2338 46.3628C41.5603 46.23 41.9062 46.1636 42.2714 46.1636C43.7268 46.1636 44.4545 46.9245 44.4545 48.4463C44.4545 49.3815 44.2802 50.3527 43.9316 51.3599C43.5829 52.367 43.1596 53.2856 42.6616 54.1157C42.1635 54.9458 41.6931 55.5905 41.2504 56.0498C40.9737 56.1273 40.6749 56.166 40.3539 56.166C39.9721 56.166 39.6013 56.1134 39.2416 56.0083C38.8875 55.9087 38.5997 55.762 38.3784 55.5684C38.3396 55.4355 38.2704 55.0703 38.1708 54.4727C38.027 53.6315 37.9163 53.0256 37.8388 52.6548H37.6728C37.3684 53.9829 36.9202 55.0952 36.3281 55.9917C36.0237 56.1079 35.6336 56.166 35.1577 56.166C34.7537 56.166 34.3691 56.1217 34.0038 56.0332C33.6386 55.9502 33.3647 55.8257 33.1821 55.6597C33.1101 55.1506 32.9662 54.4588 32.7504 53.5845C32.5346 52.7101 32.2967 51.8773 32.0366 51.0859C31.782 50.2946 31.5579 49.7357 31.3642 49.4092L30.8163 49.3013ZM44.86 51.1772C44.86 50.2199 45.0205 49.3649 45.3414 48.6123C45.6624 47.8597 46.1577 47.2648 46.8273 46.8276C47.5024 46.3849 48.3436 46.1636 49.3507 46.1636C49.8764 46.1636 50.4022 46.2272 50.9279 46.3545C51.4536 46.4762 51.8991 46.681 52.2643 46.9688C52.6019 47.2399 52.8454 47.5996 52.9948 48.0479C53.1497 48.4906 53.2272 48.9831 53.2272 49.5254C53.2272 49.8851 53.1968 50.2531 53.1359 50.6294C53.0695 50.7401 52.9394 50.8867 52.7457 51.0693C52.5521 51.2464 52.3252 51.4207 52.0651 51.5923C51.805 51.7638 51.5532 51.8966 51.3097 51.9907C51.0773 52.0073 50.8366 52.0156 50.5875 52.0156C50.1504 52.0156 49.7077 51.9963 49.2594 51.9575C48.8112 51.9188 48.4183 51.8745 48.0807 51.8247C48.125 52.2951 48.2689 52.7046 48.5123 53.0532C48.7558 53.4019 49.1432 53.5762 49.6745 53.5762C49.7243 53.5762 49.8045 53.5706 49.9152 53.5596C50.2527 53.5264 50.6456 53.4378 51.0939 53.2939C51.5477 53.1445 51.9987 52.973 52.4469 52.7793C52.6572 52.9896 52.8122 53.1999 52.9118 53.4102C53.0114 53.6204 53.0805 53.922 53.1193 54.3149C52.9477 54.5142 52.6683 54.7576 52.2809 55.0454C51.8991 55.3332 51.4315 55.5933 50.8781 55.8257C50.3247 56.0526 49.7464 56.166 49.1432 56.166C48.2357 56.166 47.4581 55.9474 46.8107 55.5103C46.1688 55.0675 45.6818 54.4699 45.3498 53.7173C45.0233 52.9591 44.86 52.1125 44.86 51.1772ZM50.2057 49.2681C50.1282 49.1851 49.9982 49.1214 49.8156 49.0771C49.633 49.0273 49.442 49.0024 49.2428 49.0024C49.0823 49.0024 48.9191 49.0163 48.7531 49.0439C48.5926 49.0716 48.4957 49.1021 48.4625 49.1353C48.2744 49.506 48.1554 49.9266 48.1056 50.397L50.3219 50.1812L50.2057 49.2681ZM53.9149 51.1772C53.9149 50.2199 54.0754 49.3649 54.3963 48.6123C54.7173 47.8597 55.2126 47.2648 55.8822 46.8276C56.5573 46.3849 57.3985 46.1636 58.4056 46.1636C58.9313 46.1636 59.4571 46.2272 59.9828 46.3545C60.5085 46.4762 60.954 46.681 61.3192 46.9688C61.6568 47.2399 61.9002 47.5996 62.0497 48.0479C62.2046 48.4906 62.2821 48.9831 62.2821 49.5254C62.2821 49.8851 62.2516 50.2531 62.1908 50.6294C62.1244 50.7401 61.9943 50.8867 61.8006 51.0693C61.607 51.2464 61.3801 51.4207 61.12 51.5923C60.8599 51.7638 60.6081 51.8966 60.3646 51.9907C60.1322 52.0073 59.8915 52.0156 59.6424 52.0156C59.2053 52.0156 58.7626 51.9963 58.3143 51.9575C57.8661 51.9188 57.4732 51.8745 57.1356 51.8247C57.1799 52.2951 57.3238 52.7046 57.5672 53.0532C57.8107 53.4019 58.1981 53.5762 58.7293 53.5762C58.7792 53.5762 58.8594 53.5706 58.9701 53.5596C59.3076 53.5264 59.7005 53.4378 60.1488 53.2939C60.6026 53.1445 61.0536 52.973 61.5018 52.7793C61.7121 52.9896 61.867 53.1999 61.9667 53.4102C62.0663 53.6204 62.1354 53.922 62.1742 54.3149C62.0026 54.5142 61.7232 54.7576 61.3358 55.0454C60.954 55.3332 60.4863 55.5933 59.933 55.8257C59.3796 56.0526 58.8013 56.166 58.1981 56.166C57.2905 56.166 56.513 55.9474 55.8656 55.5103C55.2237 55.0675 54.7367 54.4699 54.4046 53.7173C54.0781 52.9591 53.9149 52.1125 53.9149 51.1772ZM59.2606 49.2681C59.1831 49.1851 59.0531 49.1214 58.8705 49.0771C58.6878 49.0273 58.4969 49.0024 58.2977 49.0024C58.1372 49.0024 57.974 49.0163 57.808 49.0439C57.6475 49.0716 57.5506 49.1021 57.5174 49.1353C57.3293 49.506 57.2103 49.9266 57.1605 50.397L59.3768 50.1812L59.2606 49.2681ZM63.4512 50.6377C63.4512 48.0479 63.501 46.2715 63.6006 45.3086L62.6627 45.1426C62.5298 44.6335 62.4634 44.0856 62.4634 43.499C62.5464 43.3939 62.7014 43.2638 62.9283 43.1089C63.1552 42.9539 63.418 42.8184 63.7169 42.7021C64.0212 42.5859 64.3228 42.5278 64.6216 42.5278C65.3632 42.5278 65.9387 42.6883 66.3482 43.0093C66.7632 43.3302 66.9708 43.8781 66.9708 44.6528C66.9708 45.0402 66.9431 45.6351 66.8878 46.4375C66.8324 47.2344 66.73 48.2028 66.5806 49.3428C66.4312 50.4827 66.232 51.6725 65.983 52.9121L66.1241 52.9951C66.5613 52.3919 66.9818 51.7279 67.3858 51.0029C67.7898 50.2725 68.1107 49.5946 68.3487 48.9692L67.6348 48.7949C67.5684 48.4186 67.5352 47.9731 67.5352 47.4585V47.1597C67.7455 46.894 68.0333 46.6616 68.3985 46.4624C68.7693 46.2632 69.2286 46.1636 69.7764 46.1636C70.1693 46.1636 70.5097 46.2383 70.7974 46.3877C71.0852 46.5316 71.3065 46.7336 71.4615 46.9937C71.6164 47.2537 71.6939 47.5526 71.6939 47.8901C71.6939 48.1447 71.6552 48.3854 71.5777 48.6123C71.5002 48.8337 71.384 49.0688 71.2291 49.3179C70.8306 49.9487 70.1361 50.8452 69.1456 52.0073C69.4776 52.4722 69.8013 52.8761 70.1168 53.2192C70.2385 53.1584 70.3519 53.0781 70.4571 52.9785C70.5678 52.8789 70.7089 52.735 70.8804 52.5469L71.063 52.356L72.084 53.1279C72.0453 54.113 71.8323 54.8656 71.4449 55.3857C71.063 55.9004 70.5567 56.1577 69.9258 56.1577C69.2341 56.1577 68.7139 55.9474 68.3653 55.5269C68.0167 55.1063 67.7621 54.5114 67.6016 53.7422C66.9929 54.4007 66.4561 54.9541 65.9913 55.4023C65.532 55.8451 65.2304 56.0996 65.0865 56.166C64.7821 56.166 64.4916 56.13 64.2149 56.0581C63.9382 55.9862 63.7335 55.8727 63.6006 55.7178C63.5398 54.932 63.4983 54.1545 63.4761 53.3853C63.4595 52.6105 63.4512 51.6947 63.4512 50.6377ZM72.3235 45.1426C72.2405 44.805 72.1852 44.5256 72.1575 44.3042C72.1298 44.0773 72.1188 43.8172 72.1243 43.5239C72.2405 43.3745 72.4203 43.2251 72.6638 43.0757C72.9129 42.9207 73.2006 42.7907 73.5271 42.6855C73.8591 42.5804 74.2022 42.5278 74.5564 42.5278C75.2481 42.5278 75.7794 42.7021 76.1502 43.0508C76.5209 43.3994 76.7063 43.9141 76.7063 44.5947C76.7063 45.0817 76.6648 45.8647 76.5818 46.9438C76.4988 48.0229 76.3798 49.1712 76.2249 50.3887C76.0699 51.6006 75.8928 52.6603 75.6936 53.5679L75.7102 53.5845L76.9387 53.0698C77.3704 53.4406 77.6222 53.9331 77.6941 54.5474C77.6941 54.5861 77.5696 54.7466 77.3206 55.0288C77.0716 55.3055 76.7423 55.5656 76.3328 55.8091C75.9288 56.047 75.464 56.166 74.9383 56.166C74.3904 56.166 73.9449 56.0138 73.6018 55.7095C73.2643 55.4051 73.1038 54.8849 73.1204 54.1489L73.137 52.6548C73.1425 51.2381 73.1564 49.9626 73.1785 48.8281C73.2062 47.6937 73.2615 46.5233 73.3445 45.3169L72.3235 45.1426ZM80.9053 54.9624C80.8001 54.5529 80.6037 53.9608 80.3159 53.186C80.0281 52.4058 79.7265 51.6559 79.4111 50.9365C79.0957 50.2171 78.8467 49.7218 78.664 49.4507L77.9004 49.3179C77.8229 49.1021 77.762 48.8641 77.7178 48.604C77.679 48.3384 77.6458 48.0312 77.6181 47.6826C77.7122 47.4225 77.8561 47.1763 78.0498 46.9438C78.2435 46.7114 78.4759 46.5233 78.747 46.3794C79.0237 46.2355 79.3226 46.1636 79.6435 46.1636C80.1692 46.1636 80.6037 46.313 80.9468 46.6118C81.2954 46.9051 81.5638 47.2759 81.7519 47.7241C81.9456 48.1668 82.1144 48.6898 82.2583 49.293C82.5516 50.4606 82.7397 51.9077 82.8227 53.6343L83.0053 53.6011C83.2212 53.1196 83.4038 52.4307 83.5532 51.5342C83.7081 50.6377 83.7912 49.7772 83.8022 48.9526L82.7646 48.7949C82.6429 48.3301 82.582 47.785 82.582 47.1597C82.7038 47.0103 82.8781 46.8608 83.105 46.7114C83.3374 46.5565 83.6113 46.4264 83.9267 46.3213C84.2422 46.2161 84.577 46.1636 84.9311 46.1636C86.3589 46.1636 87.0727 46.8802 87.0727 48.3135C87.0727 49.4424 86.868 50.5381 86.4585 51.6006C86.0545 52.6631 85.4458 53.6232 84.6323 54.481C83.8188 55.3387 82.8283 56.0138 81.6606 56.5063L81.727 56.7803C81.8764 56.7969 82.0231 56.8052 82.167 56.8052C82.6373 56.8052 83.2046 56.7277 83.8686 56.5728C84.2449 56.9933 84.4331 57.4526 84.4331 57.9507C84.4331 58.1001 84.4165 58.2523 84.3833 58.4072C84.0512 58.7282 83.6362 59.0049 83.1382 59.2373C82.6401 59.4697 82.0923 59.5859 81.4946 59.5859C80.6258 59.5859 79.923 59.3895 79.3862 58.9966C78.8494 58.6037 78.581 58.006 78.581 57.2036C78.581 56.8439 78.6889 56.5285 78.9048 56.2573C79.1261 55.9917 79.3807 55.7759 79.6684 55.6099C79.9617 55.4383 80.374 55.2225 80.9053 54.9624ZM91.6937 53.1113C91.6937 52.2093 91.7048 51.5286 91.7269 51.0693C91.7491 50.6045 91.8072 49.9238 91.9013 49.0273L90.9467 48.9028C90.8305 48.5431 90.753 48.2222 90.7142 47.9399C90.681 47.6577 90.6644 47.2925 90.6644 46.8442C90.753 46.7668 90.8996 46.6755 91.1044 46.5703C91.3147 46.4596 91.5609 46.3656 91.8432 46.2881C92.1309 46.2051 92.4214 46.1636 92.7147 46.1636C93.3843 46.1636 93.8575 46.3075 94.1342 46.5952C94.4164 46.883 94.5575 47.3146 94.5575 47.8901C94.5575 48.2111 94.5105 48.6455 94.4164 49.1934C94.2614 50.0732 94.184 50.5353 94.184 50.5796C94.184 50.6073 94.2033 50.6349 94.2421 50.6626C94.2808 50.6847 94.3223 50.6958 94.3666 50.6958C94.4164 50.6958 94.4496 50.6764 94.4662 50.6377C94.4607 50.6598 94.5243 50.3804 94.6571 49.7993C94.8176 49.0356 94.9809 48.4131 95.1469 47.9316C95.3184 47.4502 95.5896 47.0379 95.9603 46.6948C96.3311 46.3517 96.8347 46.1802 97.4711 46.1802C98.2569 46.1802 98.8241 46.4071 99.1727 46.8608C99.5214 47.3091 99.6957 47.9067 99.6957 48.6538C99.6957 49.2459 99.5961 49.9045 99.3969 50.6294C99.3969 50.6571 99.4162 50.6847 99.455 50.7124C99.4937 50.7345 99.5352 50.7456 99.5795 50.7456C99.6293 50.7456 99.6625 50.7262 99.6791 50.6875L99.7953 50.2227C99.9945 49.4036 100.191 48.723 100.385 48.1807C100.584 47.6383 100.88 47.1707 101.273 46.7778C101.671 46.3794 102.189 46.1802 102.825 46.1802C103.661 46.1802 104.261 46.4486 104.626 46.9854C104.997 47.5221 105.183 48.1973 105.183 49.0107C105.183 49.5863 105.127 50.1646 105.016 50.7456C104.911 51.3267 104.798 51.8136 104.676 52.2065C104.56 52.5994 104.416 53.0532 104.245 53.5679L104.261 53.5845L105.49 53.0698C105.921 53.4406 106.173 53.9331 106.245 54.5474C106.245 54.5861 106.12 54.7466 105.871 55.0288C105.622 55.3055 105.293 55.5656 104.884 55.8091C104.48 56.047 104.015 56.166 103.489 56.166C102.963 56.166 102.535 56.0249 102.203 55.7427C101.87 55.4604 101.704 54.979 101.704 54.2983C101.704 53.5402 101.718 52.7627 101.746 51.9658C101.779 51.1634 101.826 50.444 101.887 49.8076C101.793 49.7301 101.663 49.6886 101.497 49.6831C101.331 49.8436 101.123 50.195 100.874 50.7373C100.625 51.2741 100.396 51.8496 100.185 52.4639C99.9752 53.0726 99.8423 53.5485 99.787 53.8916C99.8645 54.4339 99.9835 54.9707 100.144 55.502C100.044 55.6901 99.8396 55.8478 99.5297 55.9751C99.2198 56.1024 98.8379 56.166 98.3842 56.166C97.9747 56.166 97.6537 56.1328 97.4213 56.0664C97.1889 56 97.0284 55.9308 96.9398 55.8589C96.8568 55.7869 96.8153 55.7399 96.8153 55.7178C96.8098 55.668 96.796 55.5379 96.7738 55.3276C96.7517 55.1118 96.7295 54.813 96.7074 54.4312C96.6853 54.0438 96.6742 53.6038 96.6742 53.1113C96.6742 52.641 96.7102 52.0516 96.7821 51.3433C96.7877 51.2547 96.8043 51.0444 96.8319 50.7124C96.8596 50.3804 96.8734 50.0788 96.8734 49.8076C96.7794 49.7301 96.6493 49.6886 96.4833 49.6831C96.3892 49.755 96.1264 50.2144 95.6947 51.061C95.2631 51.9077 94.9753 52.5054 94.8314 52.854C94.8204 52.9315 94.8148 53.0062 94.8148 53.0781C94.8148 53.3548 94.8563 53.7284 94.9393 54.1987C95.0224 54.6636 95.1247 55.098 95.2465 55.502C95.1469 55.6901 94.9421 55.8478 94.6322 55.9751C94.3223 56.1024 93.9405 56.166 93.4867 56.166C93.0772 56.166 92.7479 56.1328 92.4989 56.0664C92.2554 56 92.0839 55.9308 91.9843 55.8589C91.8847 55.7814 91.8349 55.7344 91.8349 55.7178C91.8293 55.668 91.8155 55.5379 91.7934 55.3276C91.7712 55.1118 91.7491 54.813 91.7269 54.4312C91.7048 54.0438 91.6937 53.6038 91.6937 53.1113ZM106.368 51.1772C106.368 50.2199 106.529 49.3649 106.85 48.6123C107.171 47.8597 107.666 47.2648 108.336 46.8276C109.011 46.3849 109.852 46.1636 110.859 46.1636C111.385 46.1636 111.91 46.2272 112.436 46.3545C112.962 46.4762 113.407 46.681 113.773 46.9688C114.11 47.2399 114.354 47.5996 114.503 48.0479C114.658 48.4906 114.735 48.9831 114.735 49.5254C114.735 49.8851 114.705 50.2531 114.644 50.6294C114.578 50.7401 114.448 50.8867 114.254 51.0693C114.06 51.2464 113.833 51.4207 113.573 51.5923C113.313 51.7638 113.061 51.8966 112.818 51.9907C112.586 52.0073 112.345 52.0156 112.096 52.0156C111.659 52.0156 111.216 51.9963 110.768 51.9575C110.319 51.9188 109.927 51.8745 109.589 51.8247C109.633 52.2951 109.777 52.7046 110.021 53.0532C110.264 53.4019 110.651 53.5762 111.183 53.5762C111.233 53.5762 111.313 53.5706 111.423 53.5596C111.761 53.5264 112.154 53.4378 112.602 53.2939C113.056 53.1445 113.507 52.973 113.955 52.7793C114.165 52.9896 114.32 53.1999 114.42 53.4102C114.52 53.6204 114.589 53.922 114.628 54.3149C114.456 54.5142 114.177 54.7576 113.789 55.0454C113.407 55.3332 112.94 55.5933 112.386 55.8257C111.833 56.0526 111.255 56.166 110.651 56.166C109.744 56.166 108.966 55.9474 108.319 55.5103C107.677 55.0675 107.19 54.4699 106.858 53.7173C106.532 52.9591 106.368 52.1125 106.368 51.1772ZM111.714 49.2681C111.636 49.1851 111.506 49.1214 111.324 49.0771C111.141 49.0273 110.95 49.0024 110.751 49.0024C110.591 49.0024 110.427 49.0163 110.261 49.0439C110.101 49.0716 110.004 49.1021 109.971 49.1353C109.783 49.506 109.664 49.9266 109.614 50.397L111.83 50.1812L111.714 49.2681ZM118.096 50.5298C118.423 50.5298 118.782 50.563 119.175 50.6294C119.574 50.6958 119.939 50.776 120.271 50.8701V50.6128C120.271 50.4412 120.265 50.2503 120.254 50.04C120.249 49.8298 120.238 49.6914 120.221 49.625C120.171 49.5309 120.027 49.4341 119.789 49.3345C119.557 49.2349 119.175 49.1851 118.644 49.1851C118.317 49.1851 117.98 49.2266 117.631 49.3096C117.288 49.387 116.906 49.4922 116.486 49.625C116.259 49.2487 116.076 48.8918 115.938 48.5542C115.805 48.2111 115.739 47.868 115.739 47.5249C115.739 47.4198 115.747 47.3146 115.763 47.2095C116.66 46.5122 117.819 46.1636 119.242 46.1636C120.027 46.1636 120.725 46.2521 121.333 46.4292C121.942 46.6063 122.443 46.9494 122.836 47.4585C123.229 47.9676 123.425 48.6898 123.425 49.625C123.425 50.5381 123.317 51.4235 123.101 52.2812C122.891 53.1335 122.783 53.5679 122.778 53.5845L123.981 53.0698C124.142 53.2414 124.283 53.4517 124.405 53.7007C124.532 53.9442 124.612 54.2264 124.645 54.5474C124.568 54.7134 124.399 54.9264 124.139 55.1865C123.879 55.4411 123.561 55.668 123.184 55.8672C122.808 56.0664 122.415 56.166 122.006 56.166C121.546 56.166 121.198 56.0304 120.96 55.7593C120.727 55.4881 120.611 55.1367 120.611 54.7051C120.611 54.4616 120.647 54.2153 120.719 53.9663L120.47 53.8916C120.315 54.766 119.986 55.3636 119.482 55.6846C118.979 56.0055 118.423 56.166 117.814 56.166C117.415 56.166 117.031 56.0553 116.66 55.834C116.289 55.6071 115.988 55.2806 115.755 54.8545C115.523 54.4229 115.407 53.9193 115.407 53.3438C115.407 52.4251 115.636 51.7279 116.096 51.252C116.555 50.7705 117.222 50.5298 118.096 50.5298ZM119.042 53.6924C119.181 53.6647 119.344 53.5872 119.532 53.46C119.726 53.3327 119.897 53.1805 120.047 53.0034C120.196 52.8263 120.285 52.6576 120.312 52.4971L120.263 52.2979C119.969 52.2591 119.657 52.2397 119.325 52.2397C119.042 52.2397 118.849 52.2619 118.743 52.3062C118.566 52.5054 118.478 52.7267 118.478 52.9702C118.478 53.1473 118.522 53.3078 118.611 53.4517C118.705 53.5955 118.849 53.6758 119.042 53.6924ZM124.428 45.1426C124.345 44.805 124.29 44.5256 124.262 44.3042C124.235 44.0773 124.223 43.8172 124.229 43.5239C124.345 43.3745 124.525 43.2251 124.769 43.0757C125.018 42.9207 125.305 42.7907 125.632 42.6855C125.964 42.5804 126.307 42.5278 126.661 42.5278C127.353 42.5278 127.884 42.7021 128.255 43.0508C128.626 43.3994 128.811 43.9141 128.811 44.5947C128.811 45.0817 128.77 45.8647 128.687 46.9438C128.604 48.0229 128.485 49.1712 128.33 50.3887C128.175 51.6006 127.998 52.6603 127.798 53.5679L127.815 53.5845L129.043 53.0698C129.475 53.4406 129.727 53.9331 129.799 54.5474C129.799 54.5861 129.674 54.7466 129.425 55.0288C129.176 55.3055 128.847 55.5656 128.438 55.8091C128.034 56.047 127.569 56.166 127.043 56.166C126.495 56.166 126.05 56.0138 125.707 55.7095C125.369 55.4051 125.209 54.8849 125.225 54.1489L125.242 52.6548C125.247 51.2381 125.261 49.9626 125.283 48.8281C125.311 47.6937 125.366 46.5233 125.449 45.3169L124.428 45.1426ZM133.258 48.8779C133.142 48.5182 133.064 48.1973 133.025 47.915C132.992 47.6328 132.976 47.2676 132.976 46.8193C133.064 46.7419 133.208 46.6533 133.407 46.5537C133.606 46.4486 133.844 46.3573 134.121 46.2798C134.398 46.2023 134.683 46.1636 134.976 46.1636C135.646 46.1636 136.119 46.3075 136.395 46.5952C136.678 46.883 136.819 47.3146 136.819 47.8901C136.819 48.2111 136.772 48.6455 136.678 49.1934C136.523 50.0732 136.445 50.5353 136.445 50.5796C136.445 50.6073 136.465 50.6349 136.503 50.6626C136.542 50.6847 136.584 50.6958 136.628 50.6958C136.678 50.6958 136.711 50.6764 136.727 50.6377L136.81 50.3057L136.993 49.6001C137.264 48.5763 137.668 47.749 138.205 47.1182C138.742 46.4818 139.417 46.1636 140.23 46.1636C140.839 46.1636 141.334 46.2964 141.716 46.562C142.104 46.8221 142.383 47.168 142.555 47.5996C142.726 48.0257 142.812 48.4961 142.812 49.0107C142.812 49.708 142.746 50.491 142.613 51.3599C142.48 52.2231 142.303 53.0311 142.081 53.7837C141.866 54.5197 141.506 55.1035 141.002 55.5352C140.504 55.9613 139.882 56.1743 139.135 56.1743C138.864 56.1743 138.545 56.13 138.18 56.0415C137.82 55.9585 137.364 55.8118 136.81 55.6016L136.478 57.1704L136.495 57.187L138.081 57.0791C138.186 57.2285 138.263 57.4084 138.313 57.6187C138.368 57.8345 138.415 58.0807 138.454 58.3574L138.479 58.5234C138.479 58.5456 138.357 58.6479 138.114 58.8306C137.87 59.0187 137.546 59.1903 137.143 59.3452C136.739 59.5057 136.274 59.5859 135.748 59.5859C134.558 59.5859 133.963 58.9523 133.963 57.6851V57.1123C133.963 55.4245 133.974 53.922 133.997 52.605C134.024 51.2824 134.08 50.0898 134.163 49.0273L133.258 48.8779ZM139.102 53.958C139.301 53.2109 139.4 52.0793 139.4 50.563C139.4 50.3029 139.386 50.0926 139.359 49.9321C139.232 49.7716 139.049 49.6914 138.811 49.6914C138.734 49.7578 138.468 50.195 138.014 51.0029C137.56 51.8053 137.226 52.4224 137.01 52.854V53.2524C137.314 53.4627 137.665 53.637 138.064 53.7754C138.462 53.9082 138.767 53.9746 138.977 53.9746C139.027 53.9746 139.068 53.9691 139.102 53.958ZM143.159 45.1426C143.076 44.805 143.021 44.5256 142.993 44.3042C142.966 44.0773 142.955 43.8172 142.96 43.5239C143.076 43.3745 143.256 43.2251 143.5 43.0757C143.749 42.9207 144.036 42.7907 144.363 42.6855C144.695 42.5804 145.038 42.5278 145.392 42.5278C146.084 42.5278 146.615 42.7021 146.986 43.0508C147.357 43.3994 147.542 43.9141 147.542 44.5947C147.542 45.0817 147.501 45.8647 147.418 46.9438C147.335 48.0229 147.216 49.1712 147.061 50.3887C146.906 51.6006 146.729 52.6603 146.529 53.5679L146.546 53.5845L147.775 53.0698C148.206 53.4406 148.458 53.9331 148.53 54.5474C148.53 54.5861 148.405 54.7466 148.156 55.0288C147.907 55.3055 147.578 55.5656 147.169 55.8091C146.765 56.047 146.3 56.166 145.774 56.166C145.226 56.166 144.781 56.0138 144.438 55.7095C144.1 55.4051 143.94 54.8849 143.956 54.1489L143.973 52.6548C143.978 51.2381 143.992 49.9626 144.014 48.8281C144.042 47.6937 144.097 46.5233 144.18 45.3169L143.159 45.1426ZM151.467 50.5298C151.794 50.5298 152.153 50.563 152.546 50.6294C152.945 50.6958 153.31 50.776 153.642 50.8701V50.6128C153.642 50.4412 153.636 50.2503 153.625 50.04C153.62 49.8298 153.609 49.6914 153.592 49.625C153.542 49.5309 153.398 49.4341 153.16 49.3345C152.928 49.2349 152.546 49.1851 152.015 49.1851C151.688 49.1851 151.351 49.2266 151.002 49.3096C150.659 49.387 150.277 49.4922 149.857 49.625C149.63 49.2487 149.447 48.8918 149.309 48.5542C149.176 48.2111 149.11 47.868 149.11 47.5249C149.11 47.4198 149.118 47.3146 149.135 47.2095C150.031 46.5122 151.19 46.1636 152.613 46.1636C153.398 46.1636 154.096 46.2521 154.704 46.4292C155.313 46.6063 155.814 46.9494 156.207 47.4585C156.6 47.9676 156.796 48.6898 156.796 49.625C156.796 50.5381 156.688 51.4235 156.473 52.2812C156.262 53.1335 156.154 53.5679 156.149 53.5845L157.352 53.0698C157.513 53.2414 157.654 53.4517 157.776 53.7007C157.903 53.9442 157.983 54.2264 158.016 54.5474C157.939 54.7134 157.77 54.9264 157.51 55.1865C157.25 55.4411 156.932 55.668 156.556 55.8672C156.179 56.0664 155.786 56.166 155.377 56.166C154.917 56.166 154.569 56.0304 154.331 55.7593C154.098 55.4881 153.982 55.1367 153.982 54.7051C153.982 54.4616 154.018 54.2153 154.09 53.9663L153.841 53.8916C153.686 54.766 153.357 55.3636 152.853 55.6846C152.35 56.0055 151.794 56.166 151.185 56.166C150.786 56.166 150.402 56.0553 150.031 55.834C149.66 55.6071 149.359 55.2806 149.126 54.8545C148.894 54.4229 148.778 53.9193 148.778 53.3438C148.778 52.4251 149.007 51.7279 149.467 51.252C149.926 50.7705 150.593 50.5298 151.467 50.5298ZM152.413 53.6924C152.552 53.6647 152.715 53.5872 152.903 53.46C153.097 53.3327 153.268 53.1805 153.418 53.0034C153.567 52.8263 153.656 52.6576 153.683 52.4971L153.634 52.2979C153.34 52.2591 153.028 52.2397 152.696 52.2397C152.413 52.2397 152.22 52.2619 152.115 52.3062C151.938 52.5054 151.849 52.7267 151.849 52.9702C151.849 53.1473 151.893 53.3078 151.982 53.4517C152.076 53.5955 152.22 53.6758 152.413 53.6924ZM158.812 53.1113C158.812 52.2093 158.823 51.5286 158.845 51.0693C158.867 50.6045 158.926 49.9238 159.02 49.0273L158.057 48.9028C157.94 48.5431 157.863 48.2222 157.824 47.9399C157.791 47.6577 157.774 47.2925 157.774 46.8442C157.863 46.7668 158.01 46.6755 158.214 46.5703C158.425 46.4596 158.674 46.3656 158.961 46.2881C159.249 46.2051 159.54 46.1636 159.833 46.1636C160.503 46.1636 160.976 46.3075 161.253 46.5952C161.535 46.883 161.676 47.3146 161.676 47.8901C161.676 48.2111 161.629 48.6455 161.535 49.1934C161.38 50.0732 161.302 50.5353 161.302 50.5796C161.302 50.6073 161.322 50.6349 161.36 50.6626C161.399 50.6847 161.441 50.6958 161.485 50.6958C161.535 50.6958 161.568 50.6764 161.585 50.6377C161.806 49.7578 162.027 49.0218 162.249 48.4297C162.47 47.8376 162.805 47.3118 163.253 46.8525C163.701 46.3932 164.282 46.1636 164.996 46.1636C165.882 46.1636 166.518 46.4347 166.905 46.9771C167.293 47.5138 167.486 48.1917 167.486 49.0107C167.486 49.7412 167.401 50.4468 167.229 51.1274C167.058 51.8026 166.844 52.5081 166.59 53.2441C166.601 53.2165 166.562 53.3244 166.474 53.5679L166.49 53.5845L167.702 53.0864C168.134 53.4572 168.386 53.9497 168.458 54.564C168.458 54.6027 168.333 54.7604 168.084 55.0371C167.841 55.3138 167.517 55.5711 167.113 55.8091C166.709 56.047 166.244 56.166 165.718 56.166C165.193 56.166 164.764 56.0249 164.432 55.7427C164.1 55.4604 163.934 54.979 163.934 54.2983C163.934 53.756 163.956 53.0311 164 52.1235C164.044 51.216 164.089 50.4855 164.133 49.9321C163.989 49.7772 163.812 49.6942 163.602 49.6831C163.408 49.9321 163.123 50.4302 162.747 51.1772C162.37 51.9243 162.105 52.4832 161.95 52.854C161.939 52.9315 161.933 53.0062 161.933 53.0781C161.933 53.3548 161.975 53.7284 162.058 54.1987C162.141 54.6636 162.243 55.098 162.365 55.502C162.265 55.6901 162.06 55.8478 161.751 55.9751C161.441 56.1024 161.059 56.166 160.605 56.166C160.196 56.166 159.866 56.1328 159.617 56.0664C159.374 56 159.202 55.9308 159.103 55.8589C159.003 55.7814 158.953 55.7344 158.953 55.7178C158.948 55.668 158.934 55.5379 158.912 55.3276C158.89 55.1118 158.867 54.813 158.845 54.4312C158.823 54.0438 158.812 53.6038 158.812 53.1113Z" fill="black"/>
</svg>
