<svg width="146" height="38" viewBox="0 0 146 38" fill="none" xmlns="http://www.w3.org/2000/svg">
<path d="M6.52 0.199999C7.58667 0.199999 8.48 0.439999 9.2 0.919999C9.92 1.4 10.28 1.99333 10.28 2.7C10.28 3.39333 9.92667 3.74667 9.22 3.76C9.22 2.92 8.96 2.27333 8.44 1.82C7.93333 1.35333 7.24667 1.12 6.38 1.12C4.98 1.12 3.90667 1.68667 3.16 2.82C2.42667 3.95333 2.06 5.44 2.06 7.28C2.06 9.12 2.42 10.5733 3.14 11.64C3.86 12.6933 4.97333 13.22 6.48 13.22C8 13.22 9.23333 12.8133 10.18 12C10.34 12.08 10.42 12.2133 10.42 12.4C10.42 12.7733 10.0333 13.1867 9.26 13.64C8.48667 14.08 7.52667 14.3 6.38 14.3C4.62 14.3 3.26 13.72 2.3 12.56C1.35333 11.3867 0.846667 9.74667 0.78 7.64C0.726667 5.53333 1.22 3.76667 2.26 2.34C3.3 0.913333 4.72 0.199999 6.52 0.199999ZM19.166 14.32C18.3793 14.32 17.9393 13.8733 17.846 12.98C17.4993 13.34 17.0527 13.6533 16.506 13.92C15.9593 14.1733 15.286 14.3 14.486 14.3C13.6993 14.3 13.0393 14.0667 12.506 13.6C11.986 13.1333 11.726 12.48 11.726 11.64C11.726 10.9333 11.9727 10.32 12.466 9.8C13.0527 9.16 14.0727 8.84 15.526 8.84C16.3527 8.84 17.1193 8.94667 17.826 9.16V7.38C17.826 6.67333 17.6193 6.08 17.206 5.6C16.806 5.12 16.226 4.88 15.466 4.88C14.1327 4.88 13.386 5.54 13.226 6.86C12.9593 6.88667 12.7393 6.82667 12.566 6.68C12.3927 6.53333 12.306 6.28667 12.306 5.94C12.306 5.39333 12.586 4.93333 13.146 4.56C13.7193 4.18667 14.4527 4 15.346 4C16.0393 4 16.7527 4.16667 17.486 4.5C17.9127 4.7 18.2593 5.04667 18.526 5.54C18.7927 6.02 18.926 6.61333 18.926 7.32V13.3L20.266 13.46C20.266 14.0333 19.8993 14.32 19.166 14.32ZM17.826 10.3C17.186 9.9 16.4193 9.7 15.526 9.7C14.6327 9.7 13.986 9.86667 13.586 10.2C13.1993 10.52 13.006 10.96 13.006 11.52C13.006 12.0667 13.1793 12.5067 13.526 12.84C13.886 13.1733 14.3793 13.34 15.006 13.34C16.086 13.34 17.026 12.92 17.826 12.08V10.3ZM25.0159 14H21.4559V13.86C21.4559 13.5933 21.5426 13.4267 21.7159 13.36C21.8092 13.3067 22.2226 13.26 22.9559 13.22V1.34L21.8359 1.22C21.5692 1.19333 21.4359 0.953333 21.4359 0.5L24.0559 0.14V13.18L25.4759 13.3C25.5159 13.7667 25.3626 14 25.0159 14ZM28.5713 6.14C28.0513 6.94 27.7913 7.95333 27.7913 9.18C27.7913 10.4067 28.0379 11.42 28.5313 12.22C29.0379 13.02 29.7713 13.4133 30.7313 13.4C31.7046 13.3867 32.4513 12.9867 32.9713 12.2C33.5046 11.4133 33.7713 10.4133 33.7713 9.2C33.7713 7.98667 33.5246 6.96667 33.0313 6.14C32.5379 5.3 31.8046 4.88667 30.8313 4.9C29.8579 4.91333 29.1046 5.32667 28.5713 6.14ZM30.9113 4C31.8313 4 32.6913 4.28 33.4913 4.84C33.9313 5.16 34.2846 5.66 34.5513 6.34C34.8179 7.00667 34.9579 7.82 34.9713 8.78C34.9979 10.42 34.6179 11.7533 33.8313 12.78C33.0579 13.7933 32.0113 14.3 30.6913 14.3C29.3713 14.3 28.3646 13.88 27.6713 13.04C26.9779 12.2 26.6179 10.9867 26.5913 9.4C26.5779 7.8 26.9646 6.5 27.7513 5.5C28.5513 4.5 29.6046 4 30.9113 4ZM42.2402 4C42.9869 4 43.3602 4.32667 43.3602 4.98C43.3602 5.67333 43.2802 6.12 43.1202 6.32C42.9602 6.46667 42.7136 6.52667 42.3802 6.5C42.3802 5.55333 42.1269 5.08 41.6202 5.08C40.9936 5.08 40.1736 5.54 39.1602 6.46V13.18L40.9002 13.3C40.9402 13.7667 40.7869 14 40.4402 14H36.6002C36.6002 14 36.6002 13.9533 36.6002 13.86C36.6002 13.5933 36.6869 13.4267 36.8602 13.36C36.9536 13.32 37.3536 13.2733 38.0602 13.22V5.22L36.9402 5.1C36.6736 5.07333 36.5402 4.84 36.5402 4.4L39.0002 4.08L39.1202 5.58H39.1802C39.6069 5.16667 40.1136 4.8 40.7002 4.48C41.3002 4.16 41.8136 4 42.2402 4ZM47.9193 14H44.2793V13.86C44.2793 13.5933 44.366 13.4267 44.5393 13.36C44.6327 13.32 45.0327 13.2733 45.7393 13.22V5.14L44.6193 5.04C44.3527 5.01333 44.2193 4.76667 44.2193 4.3L46.8393 4V13.18L48.3793 13.3C48.4193 13.7667 48.266 14 47.9193 14ZM46.7393 2.04C46.5927 2.2 46.386 2.28 46.1193 2.28C45.8527 2.28 45.6393 2.2 45.4793 2.04C45.3327 1.88 45.2593 1.67333 45.2593 1.42C45.2593 1.16667 45.3327 0.96 45.4793 0.799999C45.6393 0.639999 45.8527 0.559999 46.1193 0.559999C46.386 0.559999 46.5927 0.639999 46.7393 0.799999C46.8993 0.96 46.9793 1.16667 46.9793 1.42C46.9793 1.67333 46.8993 1.88 46.7393 2.04ZM57.1119 8.64H50.7719C50.7452 8.96 50.7319 9.2 50.7319 9.36C50.7319 10.5067 50.9852 11.4533 51.4919 12.2C51.9986 12.9467 52.7719 13.32 53.8119 13.32C54.8519 13.32 55.8119 12.9667 56.6919 12.26C56.8252 12.3533 56.8919 12.4867 56.8919 12.66C56.8919 13.0067 56.5319 13.3667 55.8119 13.74C55.0919 14.1133 54.3052 14.3 53.4519 14.3C52.2786 14.3 51.3252 13.9 50.5919 13.1C49.8586 12.2867 49.4919 11.0533 49.4919 9.4C49.4919 7.74667 49.9319 6.43333 50.8119 5.46C51.6919 4.48667 52.7452 4 53.9719 4C54.5452 4 55.0452 4.11333 55.4719 4.34C55.8986 4.56667 56.2252 4.86667 56.4519 5.24C56.8919 5.98667 57.1119 6.81333 57.1119 7.72V8.64ZM55.8719 7.86C55.8986 6.99333 55.7252 6.27333 55.3519 5.7C54.9786 5.12667 54.4452 4.84 53.7519 4.84C53.0586 4.84 52.4519 5.12 51.9319 5.68C51.4252 6.22667 51.0786 6.95333 50.8919 7.86H55.8719ZM58.3434 6.74C58.3567 5.9 58.7034 5.23333 59.3834 4.74C60.0634 4.23333 60.79 3.98667 61.5634 4C62.35 4.01333 63.0034 4.16 63.5234 4.44C64.0567 4.70667 64.3167 5.08667 64.3034 5.58C64.29 5.91333 64.17 6.14667 63.9434 6.28C63.7167 6.41333 63.49 6.47333 63.2634 6.46C63.2767 5.99333 63.1434 5.62 62.8634 5.34C62.5834 5.06 62.1434 4.91333 61.5434 4.9C60.9434 4.88667 60.4367 5.02667 60.0234 5.32C59.61 5.61333 59.3967 5.99333 59.3834 6.46C59.37 6.92667 59.5634 7.29333 59.9634 7.56C60.3634 7.82667 60.93 8.1 61.6634 8.38C62.3967 8.66 62.8834 8.86 63.1234 8.98C63.3767 9.1 63.6567 9.26667 63.9634 9.48C64.51 9.86667 64.77 10.4533 64.7434 11.24C64.73 12.0133 64.3834 12.72 63.7034 13.36C63.0367 14 62.1367 14.3133 61.0034 14.3C60.2034 14.2733 59.4967 14.1 58.8834 13.78C58.27 13.4467 57.97 13.0133 57.9834 12.48C57.9967 12.2133 58.0834 12 58.2434 11.84C58.4034 11.68 58.5967 11.6067 58.8234 11.62C58.9434 12.14 59.2234 12.5667 59.6634 12.9C60.1034 13.22 60.65 13.3867 61.3034 13.4C61.9567 13.4133 62.51 13.2533 62.9634 12.92C63.43 12.5867 63.67 12.16 63.6834 11.64C63.6967 11.1067 63.55 10.7133 63.2434 10.46C62.9367 10.1933 62.4767 9.94667 61.8634 9.72C61.25 9.49333 60.8434 9.34667 60.6434 9.28C60.4567 9.2 60.1767 9.06667 59.8034 8.88C59.4434 8.69333 59.1767 8.51333 59.0034 8.34C58.5634 7.87333 58.3434 7.34 58.3434 6.74ZM67.3676 7.92C67.1943 8.09333 66.9743 8.18 66.7076 8.18C66.441 8.18 66.221 8.09333 66.0476 7.92C65.8743 7.73333 65.7876 7.50667 65.7876 7.24C65.7876 6.97333 65.8743 6.75333 66.0476 6.58C66.221 6.39333 66.441 6.3 66.7076 6.3C66.9743 6.3 67.1943 6.39333 67.3676 6.58C67.541 6.75333 67.6276 6.97333 67.6276 7.24C67.6276 7.50667 67.541 7.73333 67.3676 7.92ZM67.3676 14.02C67.1943 14.2067 66.9743 14.3 66.7076 14.3C66.441 14.3 66.221 14.2067 66.0476 14.02C65.8743 13.8467 65.7876 13.6267 65.7876 13.36C65.7876 13.0933 65.8743 12.8733 66.0476 12.7C66.221 12.5133 66.441 12.42 66.7076 12.42C66.9743 12.42 67.1943 12.5133 67.3676 12.7C67.541 12.8733 67.6276 13.0933 67.6276 13.36C67.6276 13.6267 67.541 13.8467 67.3676 14.02ZM78.0937 6.68C78.4937 6.49333 78.827 6.21333 79.0937 5.84C79.3603 5.46667 79.4937 5 79.4937 4.44C79.4937 3.88 79.3003 3.42 78.9137 3.06C78.5403 2.68667 78.047 2.5 77.4337 2.5C76.8203 2.5 76.3537 2.67333 76.0337 3.02C75.7137 3.36667 75.547 3.85333 75.5337 4.48C75.2003 4.45333 74.9403 4.34667 74.7537 4.16C74.567 3.97333 74.4937 3.73333 74.5337 3.44C74.6003 2.94667 74.9137 2.52 75.4737 2.16C76.0337 1.78667 76.747 1.6 77.6137 1.6C78.4937 1.6 79.2337 1.85333 79.8337 2.36C80.4337 2.86667 80.7337 3.48667 80.7337 4.22C80.7337 5.7 79.9403 6.76 78.3537 7.4C79.2603 7.54667 79.9737 7.90667 80.4937 8.48C81.0137 9.05333 81.2737 9.76667 81.2737 10.62C81.2737 11.6867 80.8737 12.5667 80.0737 13.26C79.287 13.9533 78.267 14.3 77.0137 14.3C76.1737 14.3 75.467 14.14 74.8937 13.82C74.3203 13.5 74.0337 13.0933 74.0337 12.6C74.0337 12.1067 74.2737 11.7933 74.7537 11.66C74.887 12.1933 75.1537 12.6267 75.5537 12.96C75.9537 13.28 76.5403 13.44 77.3137 13.44C78.1003 13.44 78.7537 13.18 79.2737 12.66C79.807 12.1267 80.0603 11.4533 80.0337 10.64C80.0203 10.1067 79.8803 9.66 79.6137 9.3C79.3603 8.92667 79.027 8.65333 78.6137 8.48C77.867 8.18667 76.9803 8.06667 75.9537 8.12L75.9337 7.2C76.627 7.2 77.347 7.02667 78.0937 6.68ZM88.8978 3.86C88.4045 2.95333 87.6378 2.5 86.5978 2.5C85.5578 2.5 84.7911 2.95333 84.2978 3.86C83.8045 4.76667 83.5578 6.15333 83.5578 8.02C83.5578 9.88667 83.8045 11.2533 84.2978 12.12C84.7911 12.9733 85.5578 13.4 86.5978 13.4C87.6378 13.4 88.4045 12.9733 88.8978 12.12C89.3911 11.2533 89.6378 9.88667 89.6378 8.02C89.6378 6.15333 89.3911 4.76667 88.8978 3.86ZM83.3778 3.18C84.0711 2.12667 85.1445 1.6 86.5978 1.6C88.0511 1.6 89.1178 2.12667 89.7978 3.18C90.4911 4.22 90.8378 5.83333 90.8378 8.02C90.8378 10.2067 90.4911 11.8 89.7978 12.8C89.1178 13.8 88.0511 14.3 86.5978 14.3C85.1445 14.3 84.0711 13.8 83.3778 12.8C82.6978 11.8 82.3578 10.2067 82.3578 8.02C82.3578 5.83333 82.6978 4.22 83.3778 3.18ZM98.5691 3.86C98.0758 2.95333 97.3091 2.5 96.2691 2.5C95.2291 2.5 94.4624 2.95333 93.9691 3.86C93.4758 4.76667 93.2291 6.15333 93.2291 8.02C93.2291 9.88667 93.4758 11.2533 93.9691 12.12C94.4624 12.9733 95.2291 13.4 96.2691 13.4C97.3091 13.4 98.0758 12.9733 98.5691 12.12C99.0624 11.2533 99.3091 9.88667 99.3091 8.02C99.3091 6.15333 99.0624 4.76667 98.5691 3.86ZM93.0491 3.18C93.7424 2.12667 94.8158 1.6 96.2691 1.6C97.7224 1.6 98.7891 2.12667 99.4691 3.18C100.162 4.22 100.509 5.83333 100.509 8.02C100.509 10.2067 100.162 11.8 99.4691 12.8C98.7891 13.8 97.7224 14.3 96.2691 14.3C94.8158 14.3 93.7424 13.8 93.0491 12.8C92.3691 11.8 92.0291 10.2067 92.0291 8.02C92.0291 5.83333 92.3691 4.22 93.0491 3.18ZM108.24 3.86C107.747 2.95333 106.98 2.5 105.94 2.5C104.9 2.5 104.134 2.95333 103.64 3.86C103.147 4.76667 102.9 6.15333 102.9 8.02C102.9 9.88667 103.147 11.2533 103.64 12.12C104.134 12.9733 104.9 13.4 105.94 13.4C106.98 13.4 107.747 12.9733 108.24 12.12C108.734 11.2533 108.98 9.88667 108.98 8.02C108.98 6.15333 108.734 4.76667 108.24 3.86ZM102.72 3.18C103.414 2.12667 104.487 1.6 105.94 1.6C107.394 1.6 108.46 2.12667 109.14 3.18C109.834 4.22 110.18 5.83333 110.18 8.02C110.18 10.2067 109.834 11.8 109.14 12.8C108.46 13.8 107.394 14.3 105.94 14.3C104.487 14.3 103.414 13.8 102.72 12.8C102.04 11.8 101.7 10.2067 101.7 8.02C101.7 5.83333 102.04 4.22 102.72 3.18ZM118.572 0.5H121.892C121.892 0.5 121.892 0.546666 121.892 0.639999C121.892 0.933333 121.805 1.12667 121.632 1.22C121.538 1.26 121.178 1.30667 120.552 1.36L116.032 6.78L120.652 13.18L121.872 13.3C121.925 13.7667 121.772 14 121.412 14H119.752L115.292 7.66L114.232 8.94V13.1L115.712 13.22C115.765 13.74 115.612 14 115.252 14H111.512V13.84C111.512 13.5467 111.598 13.36 111.772 13.28C111.852 13.24 111.952 13.2133 112.072 13.2L113.072 13.14V1.4L111.612 1.28C111.558 0.76 111.712 0.5 112.072 0.5H115.812V0.639999C115.812 0.933333 115.725 1.12667 115.552 1.22C115.472 1.26 115.372 1.28667 115.252 1.3L114.252 1.36L114.232 7.66L119.372 1.4L118.112 1.28C118.058 0.76 118.212 0.5 118.572 0.5ZM123.697 0.5H127.537C127.537 0.5 127.537 0.546666 127.537 0.639999C127.537 0.933333 127.45 1.12667 127.277 1.22C127.184 1.26 126.784 1.30667 126.077 1.36V11.44C126.077 12.56 125.83 13.4733 125.337 14.18C124.857 14.8867 124.19 15.24 123.337 15.24C122.937 15.24 122.59 15.1333 122.297 14.92C122.004 14.7067 121.857 14.4667 121.857 14.2C121.857 13.68 122.117 13.4333 122.637 13.46C122.677 14.02 123.004 14.3 123.617 14.3C124.07 14.3 124.397 14.1067 124.597 13.72C124.81 13.32 124.917 12.6333 124.917 11.66V1.4L123.237 1.28C123.184 0.76 123.337 0.5 123.697 0.5ZM3.02 28.1V34.08C3.02 34.88 3.1 35.4533 3.26 35.8C3.43333 36.1467 3.76 36.32 4.24 36.32C4.73333 36.32 5.13333 36.2733 5.44 36.18C5.76 36.0733 6.16667 35.8267 6.66 35.44C6.88667 35.52 7 35.6733 7 35.9C7 36.2467 6.68667 36.5733 6.06 36.88C5.43333 37.1733 4.84 37.32 4.28 37.32C3.41333 37.32 2.8 37.0667 2.44 36.56C2.09333 36.0533 1.92 35.3067 1.92 34.32V28.1H0.52C0.466667 27.5667 0.62 27.3 0.98 27.3H1.92V24.98L3.02 24.6V27.3H6.8C6.81333 27.5133 6.77333 27.78 6.68 28.1H3.02ZM9.87318 29.14C9.35318 29.94 9.09318 30.9533 9.09318 32.18C9.09318 33.4067 9.33985 34.42 9.83318 35.22C10.3398 36.02 11.0732 36.4133 12.0332 36.4C13.0065 36.3867 13.7532 35.9867 14.2732 35.2C14.8065 34.4133 15.0732 33.4133 15.0732 32.2C15.0732 30.9867 14.8265 29.9667 14.3332 29.14C13.8398 28.3 13.1065 27.8867 12.1332 27.9C11.1598 27.9133 10.4065 28.3267 9.87318 29.14ZM12.2132 27C13.1332 27 13.9932 27.28 14.7932 27.84C15.2332 28.16 15.5865 28.66 15.8532 29.34C16.1198 30.0067 16.2598 30.82 16.2732 31.78C16.2998 33.42 15.9198 34.7533 15.1332 35.78C14.3598 36.7933 13.3132 37.3 11.9932 37.3C10.6732 37.3 9.66651 36.88 8.97318 36.04C8.27985 35.2 7.91985 33.9867 7.89318 32.4C7.87985 30.8 8.26651 29.5 9.05318 28.5C9.85318 27.5 10.9065 27 12.2132 27ZM19.8821 28.1V34.08C19.8821 34.88 19.9621 35.4533 20.1221 35.8C20.2955 36.1467 20.6221 36.32 21.1021 36.32C21.5955 36.32 21.9955 36.2733 22.3021 36.18C22.6221 36.0733 23.0288 35.8267 23.5221 35.44C23.7488 35.52 23.8621 35.6733 23.8621 35.9C23.8621 36.2467 23.5488 36.5733 22.9221 36.88C22.2955 37.1733 21.7021 37.32 21.1421 37.32C20.2755 37.32 19.6621 37.0667 19.3021 36.56C18.9555 36.0533 18.7821 35.3067 18.7821 34.32V28.1H17.3821C17.3288 27.5667 17.4821 27.3 17.8421 27.3H18.7821V24.98L19.8821 24.6V27.3H23.6621C23.6755 27.5133 23.6355 27.78 23.5421 28.1H19.8821ZM32.3953 37.32C31.6087 37.32 31.1687 36.8733 31.0753 35.98C30.7287 36.34 30.282 36.6533 29.7353 36.92C29.1887 37.1733 28.5153 37.3 27.7153 37.3C26.9287 37.3 26.2687 37.0667 25.7353 36.6C25.2153 36.1333 24.9553 35.48 24.9553 34.64C24.9553 33.9333 25.202 33.32 25.6953 32.8C26.282 32.16 27.302 31.84 28.7553 31.84C29.582 31.84 30.3487 31.9467 31.0553 32.16V30.38C31.0553 29.6733 30.8487 29.08 30.4353 28.6C30.0353 28.12 29.4553 27.88 28.6953 27.88C27.362 27.88 26.6153 28.54 26.4553 29.86C26.1887 29.8867 25.9687 29.8267 25.7953 29.68C25.622 29.5333 25.5353 29.2867 25.5353 28.94C25.5353 28.3933 25.8153 27.9333 26.3753 27.56C26.9487 27.1867 27.682 27 28.5753 27C29.2687 27 29.982 27.1667 30.7153 27.5C31.142 27.7 31.4887 28.0467 31.7553 28.54C32.022 29.02 32.1553 29.6133 32.1553 30.32V36.3L33.4953 36.46C33.4953 37.0333 33.1287 37.32 32.3953 37.32ZM31.0553 33.3C30.4153 32.9 29.6487 32.7 28.7553 32.7C27.862 32.7 27.2153 32.8667 26.8153 33.2C26.4287 33.52 26.2353 33.96 26.2353 34.52C26.2353 35.0667 26.4087 35.5067 26.7553 35.84C27.1153 36.1733 27.6087 36.34 28.2353 36.34C29.3153 36.34 30.2553 35.92 31.0553 35.08V33.3ZM38.2452 37H34.6852V36.86C34.6852 36.5933 34.7719 36.4267 34.9452 36.36C35.0386 36.3067 35.4519 36.26 36.1852 36.22V24.34L35.0652 24.22C34.7986 24.1933 34.6652 23.9533 34.6652 23.5L37.2852 23.14V36.18L38.7052 36.3C38.7452 36.7667 38.5919 37 38.2452 37ZM47.1806 28.1V34.08C47.1806 34.88 47.2606 35.4533 47.4206 35.8C47.594 36.1467 47.9206 36.32 48.4006 36.32C48.894 36.32 49.294 36.2733 49.6006 36.18C49.9206 36.0733 50.3273 35.8267 50.8206 35.44C51.0473 35.52 51.1606 35.6733 51.1606 35.9C51.1606 36.2467 50.8473 36.5733 50.2206 36.88C49.594 37.1733 49.0006 37.32 48.4406 37.32C47.574 37.32 46.9606 37.0667 46.6006 36.56C46.254 36.0533 46.0806 35.3067 46.0806 34.32V28.1H44.6806C44.6273 27.5667 44.7806 27.3 45.1406 27.3H46.0806V24.98L47.1806 24.6V27.3H50.9606C50.974 27.5133 50.934 27.78 50.8406 28.1H47.1806ZM55.9338 37H52.2938V36.86C52.2938 36.5933 52.3805 36.4267 52.5538 36.36C52.6472 36.32 53.0472 36.2733 53.7538 36.22V28.14L52.6338 28.04C52.3672 28.0133 52.2338 27.7667 52.2338 27.3L54.8538 27V36.18L56.3938 36.3C56.4338 36.7667 56.2805 37 55.9338 37ZM54.7538 25.04C54.6072 25.2 54.4005 25.28 54.1338 25.28C53.8672 25.28 53.6538 25.2 53.4938 25.04C53.3472 24.88 53.2738 24.6733 53.2738 24.42C53.2738 24.1667 53.3472 23.96 53.4938 23.8C53.6538 23.64 53.8672 23.56 54.1338 23.56C54.4005 23.56 54.6072 23.64 54.7538 23.8C54.9138 23.96 54.9938 24.1667 54.9938 24.42C54.9938 24.6733 54.9138 24.88 54.7538 25.04ZM74.1664 37H70.5464V36.86C70.5464 36.5933 70.633 36.4267 70.8064 36.36C70.8997 36.32 71.293 36.2733 71.9864 36.22V31.2C71.9864 30.1733 71.7664 29.3933 71.3264 28.86C70.8997 28.3267 70.293 28.06 69.5064 28.06C68.933 28.06 68.4264 28.1867 67.9864 28.44C67.5597 28.6933 67.0797 29.0733 66.5464 29.58C66.6664 29.94 66.7264 30.42 66.7264 31.02V36.18L68.2664 36.3C68.3197 36.7667 68.1664 37 67.8064 37H64.1864V36.86C64.1864 36.5933 64.273 36.4267 64.4464 36.36C64.5397 36.32 64.933 36.2733 65.6264 36.22V31.2C65.6264 30.1867 65.3997 29.4133 64.9464 28.88C64.493 28.3333 63.873 28.06 63.0864 28.06C62.5397 28.06 62.053 28.1733 61.6264 28.4C61.213 28.6267 60.773 28.9667 60.3064 29.42V36.18L61.8464 36.3C61.8864 36.7667 61.733 37 61.3864 37H57.7464V36.86C57.7464 36.5933 57.833 36.4267 58.0064 36.36C58.0997 36.32 58.4997 36.2733 59.2064 36.22V28.08H58.2864C57.8864 28.08 57.6864 27.8267 57.6864 27.32L59.9864 27L60.2464 28.44H60.3064C61.1864 27.48 62.1864 27 63.3064 27C63.9197 27 64.4997 27.1533 65.0464 27.46C65.593 27.7667 66.013 28.2467 66.3064 28.9C66.5864 28.54 66.853 28.24 67.1064 28C67.3597 27.76 67.7197 27.5333 68.1864 27.32C68.6664 27.1067 69.1797 27 69.7264 27C70.6197 27 71.3997 27.32 72.0664 27.96C72.7464 28.6 73.0864 29.62 73.0864 31.02V36.18L74.6264 36.3C74.6797 36.7667 74.5264 37 74.1664 37ZM83.3524 31.64H77.0124C76.9857 31.96 76.9724 32.2 76.9724 32.36C76.9724 33.5067 77.2257 34.4533 77.7324 35.2C78.239 35.9467 79.0124 36.32 80.0524 36.32C81.0924 36.32 82.0524 35.9667 82.9324 35.26C83.0657 35.3533 83.1324 35.4867 83.1324 35.66C83.1324 36.0067 82.7724 36.3667 82.0524 36.74C81.3324 37.1133 80.5457 37.3 79.6924 37.3C78.519 37.3 77.5657 36.9 76.8324 36.1C76.099 35.2867 75.7324 34.0533 75.7324 32.4C75.7324 30.7467 76.1724 29.4333 77.0524 28.46C77.9324 27.4867 78.9857 27 80.2124 27C80.7857 27 81.2857 27.1133 81.7124 27.34C82.139 27.5667 82.4657 27.8667 82.6924 28.24C83.1324 28.9867 83.3524 29.8133 83.3524 30.72V31.64ZM82.1124 30.86C82.139 29.9933 81.9657 29.2733 81.5924 28.7C81.219 28.1267 80.6857 27.84 79.9924 27.84C79.299 27.84 78.6924 28.12 78.1724 28.68C77.6657 29.2267 77.319 29.9533 77.1324 30.86H82.1124ZM86.1438 30.92C85.9705 31.0933 85.7505 31.18 85.4838 31.18C85.2172 31.18 84.9972 31.0933 84.8238 30.92C84.6505 30.7333 84.5638 30.5067 84.5638 30.24C84.5638 29.9733 84.6505 29.7533 84.8238 29.58C84.9972 29.3933 85.2172 29.3 85.4838 29.3C85.7505 29.3 85.9705 29.3933 86.1438 29.58C86.3172 29.7533 86.4038 29.9733 86.4038 30.24C86.4038 30.5067 86.3172 30.7333 86.1438 30.92ZM86.1438 37.02C85.9705 37.2067 85.7505 37.3 85.4838 37.3C85.2172 37.3 84.9972 37.2067 84.8238 37.02C84.6505 36.8467 84.5638 36.6267 84.5638 36.36C84.5638 36.0933 84.6505 35.8733 84.8238 35.7C84.9972 35.5133 85.2172 35.42 85.4838 35.42C85.7505 35.42 85.9705 35.5133 86.1438 35.7C86.3172 35.8733 86.4038 36.0933 86.4038 36.36C86.4038 36.6267 86.3172 36.8467 86.1438 37.02ZM96.8699 29.68C97.2699 29.4933 97.6032 29.2133 97.8699 28.84C98.1365 28.4667 98.2699 28 98.2699 27.44C98.2699 26.88 98.0765 26.42 97.6899 26.06C97.3165 25.6867 96.8232 25.5 96.2099 25.5C95.5965 25.5 95.1299 25.6733 94.8099 26.02C94.4899 26.3667 94.3232 26.8533 94.3099 27.48C93.9765 27.4533 93.7165 27.3467 93.5299 27.16C93.3432 26.9733 93.2699 26.7333 93.3099 26.44C93.3765 25.9467 93.6899 25.52 94.2499 25.16C94.8099 24.7867 95.5232 24.6 96.3899 24.6C97.2699 24.6 98.0099 24.8533 98.6099 25.36C99.2099 25.8667 99.5099 26.4867 99.5099 27.22C99.5099 28.7 98.7165 29.76 97.1299 30.4C98.0365 30.5467 98.7499 30.9067 99.2699 31.48C99.7899 32.0533 100.05 32.7667 100.05 33.62C100.05 34.6867 99.6499 35.5667 98.8499 36.26C98.0632 36.9533 97.0432 37.3 95.7899 37.3C94.9499 37.3 94.2432 37.14 93.6699 36.82C93.0965 36.5 92.8099 36.0933 92.8099 35.6C92.8099 35.1067 93.0499 34.7933 93.5299 34.66C93.6632 35.1933 93.9299 35.6267 94.3299 35.96C94.7299 36.28 95.3165 36.44 96.0899 36.44C96.8765 36.44 97.5299 36.18 98.0499 35.66C98.5832 35.1267 98.8365 34.4533 98.8099 33.64C98.7965 33.1067 98.6565 32.66 98.3899 32.3C98.1365 31.9267 97.8032 31.6533 97.3899 31.48C96.6432 31.1867 95.7565 31.0667 94.7299 31.12L94.7099 30.2C95.4032 30.2 96.1232 30.0267 96.8699 29.68ZM107.674 26.86C107.181 25.9533 106.414 25.5 105.374 25.5C104.334 25.5 103.567 25.9533 103.074 26.86C102.581 27.7667 102.334 29.1533 102.334 31.02C102.334 32.8867 102.581 34.2533 103.074 35.12C103.567 35.9733 104.334 36.4 105.374 36.4C106.414 36.4 107.181 35.9733 107.674 35.12C108.167 34.2533 108.414 32.8867 108.414 31.02C108.414 29.1533 108.167 27.7667 107.674 26.86ZM102.154 26.18C102.847 25.1267 103.921 24.6 105.374 24.6C106.827 24.6 107.894 25.1267 108.574 26.18C109.267 27.22 109.614 28.8333 109.614 31.02C109.614 33.2067 109.267 34.8 108.574 35.8C107.894 36.8 106.827 37.3 105.374 37.3C103.921 37.3 102.847 36.8 102.154 35.8C101.474 34.8 101.134 33.2067 101.134 31.02C101.134 28.8333 101.474 27.22 102.154 26.18ZM127.565 37H123.945V36.86C123.945 36.5933 124.032 36.4267 124.205 36.36C124.299 36.32 124.692 36.2733 125.385 36.22V31.2C125.385 30.1733 125.165 29.3933 124.725 28.86C124.299 28.3267 123.692 28.06 122.905 28.06C122.332 28.06 121.825 28.1867 121.385 28.44C120.959 28.6933 120.479 29.0733 119.945 29.58C120.065 29.94 120.125 30.42 120.125 31.02V36.18L121.665 36.3C121.719 36.7667 121.565 37 121.205 37H117.585V36.86C117.585 36.5933 117.672 36.4267 117.845 36.36C117.939 36.32 118.332 36.2733 119.025 36.22V31.2C119.025 30.1867 118.799 29.4133 118.345 28.88C117.892 28.3333 117.272 28.06 116.485 28.06C115.939 28.06 115.452 28.1733 115.025 28.4C114.612 28.6267 114.172 28.9667 113.705 29.42V36.18L115.245 36.3C115.285 36.7667 115.132 37 114.785 37H111.145V36.86C111.145 36.5933 111.232 36.4267 111.405 36.36C111.499 36.32 111.899 36.2733 112.605 36.22V28.08H111.685C111.285 28.08 111.085 27.8267 111.085 27.32L113.385 27L113.645 28.44H113.705C114.585 27.48 115.585 27 116.705 27C117.319 27 117.899 27.1533 118.445 27.46C118.992 27.7667 119.412 28.2467 119.705 28.9C119.985 28.54 120.252 28.24 120.505 28C120.759 27.76 121.119 27.5333 121.585 27.32C122.065 27.1067 122.579 27 123.125 27C124.019 27 124.799 27.32 125.465 27.96C126.145 28.6 126.485 29.62 126.485 31.02V36.18L128.025 36.3C128.079 36.7667 127.925 37 127.565 37ZM133.011 37H129.371V36.86C129.371 36.5933 129.458 36.4267 129.631 36.36C129.725 36.32 130.125 36.2733 130.831 36.22V28.14L129.711 28.04C129.445 28.0133 129.311 27.7667 129.311 27.3L131.931 27V36.18L133.471 36.3C133.511 36.7667 133.358 37 133.011 37ZM131.831 25.04C131.685 25.2 131.478 25.28 131.211 25.28C130.945 25.28 130.731 25.2 130.571 25.04C130.425 24.88 130.351 24.6733 130.351 24.42C130.351 24.1667 130.425 23.96 130.571 23.8C130.731 23.64 130.945 23.56 131.211 23.56C131.478 23.56 131.685 23.64 131.831 23.8C131.991 23.96 132.071 24.1667 132.071 24.42C132.071 24.6733 131.991 24.88 131.831 25.04ZM144.884 37H141.344V36.86C141.344 36.5933 141.431 36.4267 141.604 36.36C141.697 36.3067 142.111 36.26 142.844 36.22V30.98C142.844 28.9933 142.071 28 140.524 28C139.964 28 139.444 28.1133 138.964 28.34C138.497 28.5667 137.971 28.9333 137.384 29.44V36.18L138.804 36.3C138.844 36.7667 138.691 37 138.344 37H134.784V36.86C134.784 36.5933 134.871 36.4267 135.044 36.36C135.137 36.3067 135.551 36.26 136.284 36.22V28.14L135.164 28.02C134.897 27.9933 134.764 27.76 134.764 27.32L137.064 27L137.344 28.6H137.404C138.524 27.5333 139.664 27 140.824 27C141.677 27 142.411 27.3067 143.024 27.92C143.637 28.52 143.944 29.4667 143.944 30.76V36.18L145.344 36.3C145.397 36.7667 145.244 37 144.884 37Z" fill="black"/>
</svg>
