<svg width="544" height="58" viewBox="0 0 544 58" fill="none" xmlns="http://www.w3.org/2000/svg">
<g filter="url(#filter0_d_629_1040)">
<path d="M4.26758 0H539.243V30C539.243 41.0457 530.289 50 519.243 50H24.2676C13.2219 50 4.26758 41.0457 4.26758 30V0Z" fill="#D9D9D9" fill-opacity="0.01" shape-rendering="crispEdges"/>
</g>
<path d="M84.2714 26H78.9194V25.808C78.9194 24.928 79.2714 24.456 79.9754 24.392L80.7194 24.344V15.632L79.7834 15.536C79.1274 15.472 78.8314 14.976 78.8954 14.048L83.6474 13.52V24.296L85.3514 24.44C85.4474 25.48 85.0874 26 84.2714 26ZM83.7674 10.664C83.7674 11.16 83.5994 11.584 83.2634 11.936C82.9274 12.272 82.5034 12.44 81.9914 12.44C81.4954 12.44 81.0714 12.272 80.7194 11.936C80.3834 11.584 80.2154 11.16 80.2154 10.664C80.2154 10.168 80.3834 9.752 80.7194 9.416C81.0714 9.064 81.4954 8.888 81.9914 8.888C82.4874 8.888 82.9034 9.064 83.2394 9.416C83.5914 9.752 83.7674 10.168 83.7674 10.664ZM99.4474 26H94.1434V25.808C94.1434 24.928 94.4954 24.456 95.1994 24.392L95.8954 24.344V18.44C95.8954 17.512 95.7114 16.864 95.3434 16.496C94.9754 16.112 94.4634 15.92 93.8074 15.92C93.1514 15.92 92.6154 16.008 92.1994 16.184C91.7834 16.36 91.3514 16.64 90.9034 17.024V24.296L92.6074 24.44C92.7034 25.48 92.3434 26 91.5274 26H86.1754V25.808C86.1754 24.928 86.5274 24.456 87.2314 24.392L87.9754 24.344V15.776L87.0394 15.68C86.3834 15.616 86.0874 15.12 86.1514 14.192L90.4954 13.664L90.6634 15.128H90.7354C91.3274 14.616 91.8954 14.224 92.4394 13.952C92.9994 13.664 93.6554 13.52 94.4074 13.52C95.6394 13.52 96.6794 13.936 97.5274 14.768C98.3914 15.584 98.8234 16.848 98.8234 18.56V24.296L100.527 24.44C100.623 25.48 100.263 26 99.4474 26ZM105.913 22.496C105.513 22.496 105.113 22.456 104.713 22.376C104.489 22.776 104.377 23.064 104.377 23.24C104.377 23.416 104.561 23.536 104.929 23.6C105.297 23.648 106.169 23.696 107.545 23.744C108.921 23.792 109.985 24.04 110.737 24.488C111.505 24.92 111.889 25.672 111.889 26.744C111.889 28.216 111.321 29.392 110.185 30.272C109.049 31.152 107.649 31.592 105.985 31.592C104.337 31.592 103.097 31.288 102.265 30.68C101.449 30.072 101.041 29.288 101.041 28.328C101.041 27.368 101.505 26.456 102.433 25.592C102.193 25.304 102.073 24.92 102.073 24.44C102.073 23.592 102.473 22.704 103.273 21.776C102.041 20.976 101.425 19.76 101.425 18.128C101.425 16.8 101.849 15.704 102.697 14.84C103.561 13.96 104.713 13.52 106.153 13.52C107.097 13.52 107.929 13.712 108.649 14.096L111.865 13.232C112.009 13.408 112.089 13.736 112.105 14.216C112.121 14.696 112.041 15.016 111.865 15.176C111.625 15.304 111.001 15.352 109.993 15.32C110.457 16.008 110.657 16.968 110.593 18.2C110.529 19.416 110.073 20.44 109.225 21.272C108.377 22.088 107.273 22.496 105.913 22.496ZM109.849 27.488C109.849 27.12 109.577 26.88 109.033 26.768C108.489 26.656 107.569 26.568 106.273 26.504C104.977 26.44 104.145 26.368 103.777 26.288C103.377 26.768 103.177 27.256 103.177 27.752C103.177 28.248 103.433 28.656 103.945 28.976C104.457 29.296 105.225 29.456 106.249 29.456C107.273 29.456 108.129 29.264 108.817 28.88C109.505 28.512 109.849 28.048 109.849 27.488ZM105.961 20.744C106.537 20.744 106.993 20.512 107.329 20.048C107.665 19.568 107.833 18.904 107.833 18.056C107.833 17.192 107.673 16.528 107.353 16.064C107.033 15.584 106.577 15.344 105.985 15.344C105.393 15.344 104.937 15.584 104.617 16.064C104.313 16.544 104.161 17.216 104.161 18.08C104.161 19.856 104.761 20.744 105.961 20.744ZM117.131 15.632C117.515 15.12 118.059 14.64 118.763 14.192C119.483 13.744 120.099 13.52 120.611 13.52C121.139 13.52 121.579 13.688 121.931 14.024C122.283 14.36 122.459 14.92 122.459 15.704C122.459 16.472 122.195 17.088 121.667 17.552C121.395 17.76 120.939 17.824 120.299 17.744C120.299 17.216 120.251 16.816 120.155 16.544C120.059 16.256 119.955 16.088 119.843 16.04C119.731 15.976 119.579 15.944 119.387 15.944C118.587 15.944 117.867 16.464 117.227 17.504V24.296L119.171 24.44C119.267 25.48 118.907 26 118.091 26H112.547C112.547 26 112.547 25.936 112.547 25.808C112.547 24.928 112.899 24.456 113.603 24.392L114.299 24.344V15.752L113.243 15.632C112.747 15.584 112.499 15.104 112.499 14.192L116.843 13.64L117.059 15.632H117.131ZM125.993 20.12V20.384C125.993 21.68 126.225 22.648 126.689 23.288C127.169 23.912 127.985 24.224 129.137 24.224C130.305 24.224 131.449 23.784 132.569 22.904C132.889 23.144 133.049 23.52 133.049 24.032C133.049 24.528 132.601 25.04 131.705 25.568C130.825 26.096 129.721 26.36 128.393 26.36C126.665 26.36 125.321 25.856 124.361 24.848C123.417 23.824 122.945 22.28 122.945 20.216C122.945 18.136 123.457 16.504 124.481 15.32C125.521 14.12 126.945 13.52 128.753 13.52C130.289 13.52 131.433 14 132.185 14.96C132.953 15.92 133.321 17.184 133.289 18.752V20.12H125.993ZM128.489 15.44C127.177 15.44 126.385 16.448 126.113 18.464H130.481C130.449 17.376 130.265 16.6 129.929 16.136C129.593 15.672 129.113 15.44 128.489 15.44ZM147.235 24.848C147.235 25.872 146.555 26.384 145.195 26.384C143.851 26.384 143.051 25.944 142.795 25.064C141.771 25.928 140.603 26.36 139.291 26.36C137.995 26.36 136.875 25.896 135.931 24.968C134.987 24.024 134.499 22.528 134.467 20.48C134.435 18.432 134.923 16.76 135.931 15.464C136.955 14.168 138.451 13.52 140.419 13.52C141.299 13.52 142.059 13.656 142.699 13.928V10.952L141.763 10.856C141.107 10.792 140.811 10.296 140.875 9.368L145.627 8.84V24.704L147.235 24.848ZM140.227 15.464C138.419 15.464 137.515 16.96 137.515 19.952C137.515 21.328 137.747 22.392 138.211 23.144C138.691 23.896 139.355 24.272 140.203 24.272C141.067 24.272 141.899 23.912 142.699 23.192V16.424C141.931 15.784 141.107 15.464 140.227 15.464ZM153.191 26H147.839V25.808C147.839 24.928 148.191 24.456 148.895 24.392L149.639 24.344V15.632L148.703 15.536C148.047 15.472 147.751 14.976 147.815 14.048L152.567 13.52V24.296L154.271 24.44C154.367 25.48 154.007 26 153.191 26ZM152.687 10.664C152.687 11.16 152.519 11.584 152.183 11.936C151.847 12.272 151.423 12.44 150.911 12.44C150.415 12.44 149.991 12.272 149.639 11.936C149.303 11.584 149.135 11.16 149.135 10.664C149.135 10.168 149.303 9.752 149.639 9.416C149.991 9.064 150.415 8.888 150.911 8.888C151.407 8.888 151.823 9.064 152.159 9.416C152.511 9.752 152.687 10.168 152.687 10.664ZM158.215 20.12V20.384C158.215 21.68 158.447 22.648 158.911 23.288C159.391 23.912 160.207 24.224 161.359 24.224C162.527 24.224 163.671 23.784 164.791 22.904C165.111 23.144 165.271 23.52 165.271 24.032C165.271 24.528 164.823 25.04 163.927 25.568C163.047 26.096 161.943 26.36 160.615 26.36C158.887 26.36 157.543 25.856 156.583 24.848C155.639 23.824 155.167 22.28 155.167 20.216C155.167 18.136 155.679 16.504 156.703 15.32C157.743 14.12 159.167 13.52 160.975 13.52C162.511 13.52 163.655 14 164.407 14.96C165.175 15.92 165.543 17.184 165.511 18.752V20.12H158.215ZM160.711 15.44C159.399 15.44 158.607 16.448 158.335 18.464H162.703C162.671 17.376 162.487 16.6 162.151 16.136C161.815 15.672 161.335 15.44 160.711 15.44ZM179.888 26H174.584V25.808C174.584 24.928 174.936 24.456 175.64 24.392L176.336 24.344V18.44C176.336 17.512 176.152 16.864 175.784 16.496C175.416 16.112 174.904 15.92 174.248 15.92C173.592 15.92 173.056 16.008 172.64 16.184C172.224 16.36 171.792 16.64 171.344 17.024V24.296L173.048 24.44C173.144 25.48 172.784 26 171.968 26H166.616V25.808C166.616 24.928 166.968 24.456 167.672 24.392L168.416 24.344V15.776L167.48 15.68C166.824 15.616 166.528 15.12 166.592 14.192L170.936 13.664L171.104 15.128H171.176C171.768 14.616 172.336 14.224 172.88 13.952C173.44 13.664 174.096 13.52 174.848 13.52C176.08 13.52 177.12 13.936 177.968 14.768C178.832 15.584 179.264 16.848 179.264 18.56V24.296L180.968 24.44C181.064 25.48 180.704 26 179.888 26ZM186.018 15.56V22.208C186.018 23.504 186.434 24.152 187.266 24.152C187.874 24.152 188.378 24.072 188.778 23.912C189.194 23.752 189.634 23.48 190.098 23.096C190.178 23.096 190.282 23.2 190.41 23.408C190.538 23.616 190.602 23.84 190.602 24.08C190.602 24.704 190.162 25.24 189.282 25.688C188.402 26.136 187.546 26.36 186.714 26.36C185.882 26.36 185.226 26.24 184.746 26C184.266 25.776 183.906 25.44 183.666 24.992C183.282 24.256 183.09 23.28 183.09 22.064V15.56H181.098C181.098 14.44 181.49 13.88 182.274 13.88H183.09V10.808L186.018 10.496V13.88H190.338C190.37 14.12 190.346 14.392 190.266 14.696C190.122 15.272 189.754 15.56 189.162 15.56H186.018Z" fill="black"/>
<rect x="1.8623" width="540.138" height="56" fill="#D9D9D9" fill-opacity="0.01"/>
<defs>
<filter id="filter0_d_629_1040" x="0.267578" y="0" width="542.976" height="58" filterUnits="userSpaceOnUse" color-interpolation-filters="sRGB">
<feFlood flood-opacity="0" result="BackgroundImageFix"/>
<feColorMatrix in="SourceAlpha" type="matrix" values="0 0 0 0 0 0 0 0 0 0 0 0 0 0 0 0 0 0 127 0" result="hardAlpha"/>
<feOffset dy="4"/>
<feGaussianBlur stdDeviation="2"/>
<feComposite in2="hardAlpha" operator="out"/>
<feColorMatrix type="matrix" values="0 0 0 0 0 0 0 0 0 0 0 0 0 0 0 0 0 0 0.25 0"/>
<feBlend mode="normal" in2="BackgroundImageFix" result="effect1_dropShadow_629_1040"/>
<feBlend mode="normal" in="SourceGraphic" in2="effect1_dropShadow_629_1040" result="shape"/>
</filter>
</defs>
</svg>
