<svg width="557" height="49" viewBox="0 0 557 49" fill="none" xmlns="http://www.w3.org/2000/svg">
<path d="M14.992 11.76V10.464C14.992 7.776 15.84 5.536 17.536 3.744C19.232 1.92 21.456 0.991999 24.208 0.959999C27.792 0.895998 29.584 1.984 29.584 4.224C29.584 5.312 29.232 6.112 28.528 6.624C27.824 7.136 26.912 7.392 25.792 7.392C25.792 5.344 25.008 4.32 23.44 4.32C21.68 4.32 20.8 6.304 20.8 10.272V11.76H26.992C27.152 14 26.4 15.12 24.736 15.12H20.8V32.592H20.848L25.696 32.88C25.792 33.072 25.776 33.504 25.648 34.176C25.36 35.392 24.656 36 23.536 36H11.44V35.616C11.44 33.856 12.144 32.912 13.552 32.784L14.944 32.688L14.992 15.12H11.536C11.536 12.88 12.32 11.76 13.888 11.76H14.992ZM40.7226 36H30.0186V35.616C30.0186 33.856 30.7226 32.912 32.1306 32.784L33.6186 32.688V15.264L31.7466 15.072C30.4346 14.944 29.8426 13.952 29.9706 12.096L39.4746 11.04V32.592L42.8826 32.88C43.0746 34.96 42.3546 36 40.7226 36ZM39.7146 5.328C39.7146 6.32 39.3786 7.168 38.7066 7.872C38.0346 8.544 37.1866 8.88 36.1626 8.88C35.1706 8.88 34.3226 8.544 33.6186 7.872C32.9466 7.168 32.6106 6.32 32.6106 5.328C32.6106 4.336 32.9466 3.504 33.6186 2.832C34.3226 2.128 35.1706 1.776 36.1626 1.776C37.1546 1.776 37.9866 2.128 38.6586 2.832C39.3626 3.504 39.7146 4.336 39.7146 5.328ZM60.5867 12.816C61.3867 13.52 61.7867 14.432 61.7867 15.552C61.7867 16.672 61.4187 17.536 60.6827 18.144C59.9787 18.752 59.0667 18.976 57.9467 18.816C57.9467 17.632 57.4827 16.64 56.5547 15.84C55.6267 15.008 54.5867 14.592 53.4347 14.592C52.3147 14.592 51.4507 14.816 50.8427 15.264C50.2347 15.68 49.9307 16.24 49.9307 16.944C49.9307 17.648 50.3627 18.288 51.2267 18.864C52.1227 19.408 53.3707 20 54.9707 20.64C56.6027 21.28 57.7707 21.792 58.4747 22.176C59.1787 22.528 59.9307 23.008 60.7307 23.616C62.2667 24.768 63.0347 26.48 63.0347 28.752C63.0347 30.992 62.1227 32.88 60.2987 34.416C58.4747 35.952 56.0427 36.72 53.0027 36.72C50.7627 36.72 48.7947 36.304 47.0987 35.472C45.4347 34.64 44.6027 33.392 44.6027 31.728C44.6027 30.608 45.0027 29.744 45.8027 29.136C46.6027 28.496 47.5467 28.176 48.6347 28.176C49.0507 31.44 50.9067 33.072 54.2027 33.072C56.8587 33.072 58.1867 32.192 58.1867 30.432C58.1867 29.28 57.4827 28.352 56.0747 27.648C55.3067 27.232 54.3787 26.816 53.2907 26.4C52.2027 25.984 51.3387 25.632 50.6987 25.344C50.0907 25.024 49.4187 24.624 48.6827 24.144C47.9467 23.664 47.3387 23.168 46.8587 22.656C45.8027 21.472 45.2747 20.032 45.2747 18.336C45.2747 16.032 46.2027 14.24 48.0587 12.96C49.9147 11.68 52.1387 11.04 54.7307 11.04C57.3227 11.04 59.2747 11.632 60.5867 12.816ZM91.8873 36H81.2793V35.616C81.2793 33.856 81.9833 32.912 83.3913 32.784L84.7833 32.688V20.88C84.7833 18.992 84.3993 17.68 83.6313 16.944C82.8633 16.208 81.6313 15.84 79.9353 15.84C78.2393 15.84 76.5273 16.576 74.7993 18.048V32.592L78.2073 32.88C78.3993 34.96 77.6793 36 76.0473 36H65.3433V35.616C65.3433 33.856 66.0473 32.912 67.4553 32.784L68.9433 32.688V5.952L67.0713 5.76C65.7593 5.632 65.1673 4.64 65.2953 2.784L74.7993 1.728V13.968C77.0713 12.016 79.4233 11.04 81.8553 11.04C84.2873 11.04 86.3513 11.872 88.0473 13.536C89.7753 15.168 90.6393 17.696 90.6393 21.12V32.592L94.0473 32.88C94.2393 34.96 93.5193 36 91.8873 36ZM137.967 32.016C138.607 32.016 139.279 31.888 139.983 31.632C140.687 31.376 141.167 31.056 141.423 30.672C141.871 31.056 142.095 31.744 142.095 32.736C142.095 33.728 141.695 34.656 140.895 35.52C140.095 36.384 138.895 36.816 137.295 36.816C134.895 36.816 132.127 35.76 128.991 33.648C126.303 35.792 123.151 36.864 119.535 36.864C115.919 36.864 113.199 36.096 111.375 34.56C109.583 32.992 108.687 30.976 108.687 28.512C108.687 24.704 110.655 21.728 114.591 19.584C112.255 16.48 111.087 13.824 111.087 11.616C111.087 9.376 111.887 7.488 113.487 5.952C115.119 4.384 117.247 3.6 119.871 3.6C122.495 3.6 124.527 4.224 125.967 5.472C127.439 6.688 128.175 8.368 128.175 10.512C128.175 12.656 127.503 14.496 126.159 16.032C124.847 17.568 123.199 18.688 121.215 19.392L121.503 19.728C124.095 22.832 126.783 25.52 129.567 27.792C130.399 26.512 131.071 24.992 131.583 23.232L128.415 22.992C128.223 20.944 128.895 19.92 130.431 19.92H138.687V20.352C138.687 22.048 138.079 22.944 136.863 23.04L135.279 23.136C134.575 25.728 133.615 27.968 132.399 29.856C134.639 31.296 136.495 32.016 137.967 32.016ZM123.087 10.56C123.087 9.152 122.783 8.128 122.175 7.488C121.567 6.816 120.815 6.48 119.919 6.48C119.023 6.48 118.223 6.848 117.519 7.584C116.815 8.32 116.463 9.28 116.463 10.464C116.463 12.224 117.487 14.48 119.535 17.232C121.903 15.792 123.087 13.568 123.087 10.56ZM125.967 31.344C123.375 29.232 120.255 26.128 116.607 22.032C115.007 23.568 114.207 25.28 114.207 27.168C114.207 29.024 114.783 30.432 115.935 31.392C117.087 32.352 118.655 32.832 120.639 32.832C122.623 32.832 124.399 32.336 125.967 31.344ZM168.385 11.04C170.689 11.04 172.561 11.536 174.001 12.528C175.473 13.488 176.209 14.72 176.209 16.224C176.209 17.728 175.761 18.784 174.865 19.392C173.969 20 173.025 20.24 172.033 20.112C172.001 18.736 171.633 17.536 170.929 16.512C170.225 15.488 169.089 14.976 167.521 14.976C165.985 14.976 164.769 15.728 163.873 17.232C162.977 18.704 162.529 20.784 162.529 23.472C162.529 29.424 164.817 32.4 169.393 32.4C171.537 32.4 173.585 31.536 175.537 29.808C175.857 30 176.113 30.32 176.305 30.768C176.497 31.216 176.593 31.6 176.593 31.92C176.593 32.944 175.649 34 173.761 35.088C171.905 36.176 169.761 36.72 167.329 36.72C163.937 36.72 161.265 35.632 159.313 33.456C157.393 31.248 156.433 28.16 156.433 24.192C156.433 20.224 157.521 17.04 159.697 14.64C161.873 12.24 164.769 11.04 168.385 11.04ZM205.066 36H194.458V35.616C194.458 33.856 195.162 32.912 196.57 32.784L197.962 32.688V20.88C197.962 18.992 197.578 17.68 196.81 16.944C196.042 16.208 194.81 15.84 193.114 15.84C191.418 15.84 189.706 16.576 187.978 18.048V32.592L191.386 32.88C191.578 34.96 190.858 36 189.226 36H178.522V35.616C178.522 33.856 179.226 32.912 180.634 32.784L182.122 32.688V5.952L180.25 5.76C178.938 5.632 178.346 4.64 178.474 2.784L187.978 1.728V13.968C190.25 12.016 192.602 11.04 195.034 11.04C197.466 11.04 199.53 11.872 201.226 13.536C202.954 15.168 203.818 17.696 203.818 21.12V32.592L207.226 32.88C207.418 34.96 206.698 36 205.066 36ZM219.99 36H209.286V35.616C209.286 33.856 209.99 32.912 211.398 32.784L212.886 32.688V15.264L211.014 15.072C209.702 14.944 209.11 13.952 209.238 12.096L218.742 11.04V32.592L222.15 32.88C222.342 34.96 221.622 36 219.99 36ZM218.982 5.328C218.982 6.32 218.646 7.168 217.974 7.872C217.302 8.544 216.454 8.88 215.43 8.88C214.438 8.88 213.59 8.544 212.886 7.872C212.214 7.168 211.878 6.32 211.878 5.328C211.878 4.336 212.214 3.504 212.886 2.832C213.59 2.128 214.438 1.776 215.43 1.776C216.422 1.776 217.254 2.128 217.926 2.832C218.63 3.504 218.982 4.336 218.982 5.328ZM232.366 13.824C234.446 11.968 236.798 11.04 239.422 11.04C242.078 11.04 244.35 11.984 246.238 13.872C248.126 15.728 249.102 18.704 249.166 22.8C249.23 26.896 248.238 30.24 246.19 32.832C244.174 35.424 241.198 36.72 237.262 36.72C235.502 36.72 233.982 36.448 232.702 35.904V43.056H232.75L236.11 43.344C236.302 45.424 235.582 46.464 233.95 46.464H223.246V46.08C223.246 44.32 223.95 43.376 225.358 43.248L226.846 43.152V15.552L224.782 15.312C223.79 15.184 223.294 14.224 223.294 12.432L231.934 11.328L232.366 13.824ZM237.646 32.832C241.262 32.832 243.07 29.84 243.07 23.856C243.07 21.104 242.59 18.976 241.63 17.472C240.702 15.968 239.374 15.216 237.646 15.216C235.918 15.216 234.27 15.936 232.702 17.376V30.912C234.238 32.192 235.886 32.832 237.646 32.832ZM267.618 12.816C268.418 13.52 268.818 14.432 268.818 15.552C268.818 16.672 268.45 17.536 267.714 18.144C267.01 18.752 266.098 18.976 264.978 18.816C264.978 17.632 264.514 16.64 263.586 15.84C262.658 15.008 261.618 14.592 260.466 14.592C259.346 14.592 258.482 14.816 257.874 15.264C257.266 15.68 256.962 16.24 256.962 16.944C256.962 17.648 257.394 18.288 258.258 18.864C259.154 19.408 260.402 20 262.002 20.64C263.634 21.28 264.802 21.792 265.506 22.176C266.21 22.528 266.962 23.008 267.762 23.616C269.298 24.768 270.066 26.48 270.066 28.752C270.066 30.992 269.154 32.88 267.33 34.416C265.506 35.952 263.074 36.72 260.034 36.72C257.794 36.72 255.826 36.304 254.13 35.472C252.466 34.64 251.634 33.392 251.634 31.728C251.634 30.608 252.034 29.744 252.834 29.136C253.634 28.496 254.578 28.176 255.666 28.176C256.082 31.44 257.938 33.072 261.234 33.072C263.89 33.072 265.218 32.192 265.218 30.432C265.218 29.28 264.514 28.352 263.106 27.648C262.338 27.232 261.41 26.816 260.322 26.4C259.234 25.984 258.37 25.632 257.73 25.344C257.122 25.024 256.45 24.624 255.714 24.144C254.978 23.664 254.37 23.168 253.89 22.656C252.834 21.472 252.306 20.032 252.306 18.336C252.306 16.032 253.234 14.24 255.09 12.96C256.946 11.68 259.17 11.04 261.762 11.04C264.354 11.04 266.306 11.632 267.618 12.816Z" fill="black"/>
<path d="M382.387 11.184C382.387 12.304 382.019 13.2 381.283 13.872C380.547 14.512 379.587 14.736 378.403 14.544C378.403 12.72 378.019 11.376 377.251 10.512C376.483 9.616 375.347 9.168 373.843 9.168C372.371 9.168 371.251 9.52 370.483 10.224C369.747 10.896 369.379 11.68 369.379 12.576C369.379 13.44 369.491 14.128 369.715 14.64C369.971 15.12 370.451 15.584 371.155 16.032C372.115 16.672 373.843 17.552 376.339 18.672C378.867 19.792 380.691 20.928 381.811 22.08C382.963 23.2 383.539 24.928 383.539 27.264C383.539 29.6 382.755 31.648 381.187 33.408C379.619 35.136 377.507 36.192 374.851 36.576L375.331 41.52C374.851 41.776 374.115 41.904 373.123 41.904C372.131 41.904 371.427 41.776 371.011 41.52L371.443 36.672C369.331 36.48 367.523 35.936 366.019 35.04C364.515 34.112 363.763 32.832 363.763 31.2C363.763 30.048 364.131 29.136 364.867 28.464C365.603 27.76 366.739 27.408 368.275 27.408C368.275 29.488 368.691 30.976 369.523 31.872C370.387 32.736 371.747 33.168 373.603 33.168C377.027 33.168 378.739 31.92 378.739 29.424C378.739 27.824 378.195 26.56 377.107 25.632C376.051 24.672 374.819 23.904 373.411 23.328C372.035 22.72 371.139 22.32 370.723 22.128C370.307 21.936 369.699 21.632 368.899 21.216C368.099 20.8 367.507 20.416 367.123 20.064C366.771 19.68 366.371 19.232 365.923 18.72C365.091 17.728 364.675 16.432 364.675 14.832C364.675 12.528 365.299 10.656 366.547 9.216C367.795 7.776 369.443 6.784 371.491 6.24L371.011 1.056C371.427 0.799997 372.131 0.671997 373.123 0.671997C374.115 0.671997 374.851 0.799997 375.331 1.056L374.899 5.808C376.819 5.808 378.547 6.24 380.083 7.104C381.619 7.936 382.387 9.296 382.387 11.184ZM399.449 12.528C399.449 10.32 398.409 9.216 396.329 9.216C394.921 9.216 393.881 9.68 393.209 10.608C392.569 11.504 392.217 12.576 392.153 13.824C389.561 13.824 388.265 12.816 388.265 10.8C388.265 9.328 389.001 8.128 390.473 7.2C391.977 6.24 394.009 5.76 396.569 5.76C399.161 5.76 401.257 6.368 402.857 7.584C404.489 8.768 405.305 10.416 405.305 12.528C405.305 16.08 403.177 18.544 398.921 19.92C401.353 20.176 403.289 20.976 404.729 22.32C406.201 23.664 406.937 25.376 406.937 27.456C406.937 30.016 405.849 32.208 403.673 34.032C401.529 35.824 398.681 36.72 395.129 36.72C392.537 36.72 390.521 36.24 389.081 35.28C387.673 34.288 386.969 33.056 386.969 31.584C386.969 30.624 387.273 29.824 387.881 29.184C388.521 28.512 389.417 28.176 390.569 28.176C390.569 29.616 391.001 30.784 391.865 31.68C392.761 32.544 393.977 32.976 395.513 32.976C397.049 32.976 398.329 32.544 399.353 31.68C400.377 30.784 400.873 29.536 400.841 27.936C400.809 25.888 399.929 24.496 398.201 23.76C396.505 23.024 394.393 22.752 391.865 22.944L391.817 18.768C393.961 18.768 395.849 18.128 397.481 16.848C398.793 15.792 399.449 14.352 399.449 12.528ZM420.723 9.6C416.723 9.6 414.723 13.648 414.723 21.744C414.723 25.776 415.219 28.656 416.211 30.384C417.203 32.08 418.691 32.928 420.675 32.928C422.691 32.928 424.099 32.032 424.899 30.24C425.731 28.416 426.147 25.488 426.147 21.456C426.147 17.424 425.715 14.448 424.851 12.528C423.987 10.576 422.611 9.6 420.723 9.6ZM420.627 5.76C428.019 5.504 431.715 10.64 431.715 21.168C431.715 26.224 430.771 30.08 428.883 32.736C426.995 35.392 424.211 36.72 420.531 36.72C416.851 36.72 414.035 35.392 412.083 32.736C410.131 30.048 409.155 26.288 409.155 21.456C409.155 16.592 410.131 12.8 412.083 10.08C414.067 7.328 416.915 5.888 420.627 5.76Z" fill="black"/>
<line x1="0.303711" y1="48.5" x2="557" y2="48.5" stroke="black"/>
</svg>
