<svg width="543" height="58" viewBox="0 0 543 58" fill="none" xmlns="http://www.w3.org/2000/svg">
<g filter="url(#filter0_d_629_1042)">
<path d="M4 0H539V30C539 41.0457 530.046 50 519 50H24C12.9543 50 4 41.0457 4 30V0Z" fill="#D9D9D9" fill-opacity="0.03" shape-rendering="crispEdges"/>
</g>
<path d="M90.6826 26H85.3786V25.808C85.3786 24.928 85.7306 24.456 86.4346 24.392L87.1306 24.344V18.44C87.1306 17.512 86.9466 16.864 86.5786 16.496C86.2106 16.112 85.6986 15.92 85.0426 15.92C84.3866 15.92 83.8506 16.008 83.4346 16.184C83.0186 16.36 82.5866 16.64 82.1386 17.024V24.296L83.8426 24.44C83.9386 25.48 83.5786 26 82.7626 26H77.4106V25.808C77.4106 24.928 77.7626 24.456 78.4666 24.392L79.2106 24.344V15.776L78.2746 15.68C77.6186 15.616 77.3226 15.12 77.3866 14.192L81.7306 13.664L81.8986 15.128H81.9706C82.5626 14.616 83.1306 14.224 83.6746 13.952C84.2346 13.664 84.8906 13.52 85.6426 13.52C86.8746 13.52 87.9146 13.936 88.7626 14.768C89.6266 15.584 90.0586 16.848 90.0586 18.56V24.296L91.7626 24.44C91.8586 25.48 91.4986 26 90.6826 26ZM99.5005 15.392C99.5005 14.384 99.8525 13.88 100.557 13.88H104.301V24.392H104.829C105.373 24.408 105.645 24.912 105.645 25.904L102.237 26.24L101.733 24.896C100.597 25.872 99.4205 26.36 98.2045 26.36C97.0045 26.36 95.9725 25.952 95.1085 25.136C94.2445 24.304 93.8125 23.032 93.8125 21.32V15.584H92.0605V15.392C92.0605 14.384 92.4125 13.88 93.1165 13.88H96.7405V21.44C96.7405 22.432 96.9325 23.136 97.3165 23.552C97.7005 23.968 98.2925 24.176 99.0925 24.176C99.8925 24.176 100.653 23.904 101.373 23.36V15.584H99.5005V15.392ZM110.819 15.56V22.208C110.819 23.504 111.235 24.152 112.067 24.152C112.675 24.152 113.179 24.072 113.579 23.912C113.995 23.752 114.435 23.48 114.899 23.096C114.979 23.096 115.083 23.2 115.211 23.408C115.339 23.616 115.403 23.84 115.403 24.08C115.403 24.704 114.963 25.24 114.083 25.688C113.203 26.136 112.347 26.36 111.515 26.36C110.683 26.36 110.027 26.24 109.547 26C109.067 25.776 108.707 25.44 108.467 24.992C108.083 24.256 107.891 23.28 107.891 22.064V15.56H105.899C105.899 14.44 106.291 13.88 107.075 13.88H107.891V10.808L110.819 10.496V13.88H115.139C115.171 14.12 115.147 14.392 115.067 14.696C114.923 15.272 114.555 15.56 113.963 15.56H110.819ZM120.614 15.632C120.998 15.12 121.542 14.64 122.246 14.192C122.966 13.744 123.582 13.52 124.094 13.52C124.622 13.52 125.062 13.688 125.414 14.024C125.766 14.36 125.942 14.92 125.942 15.704C125.942 16.472 125.678 17.088 125.15 17.552C124.878 17.76 124.422 17.824 123.782 17.744C123.782 17.216 123.734 16.816 123.638 16.544C123.542 16.256 123.438 16.088 123.326 16.04C123.214 15.976 123.062 15.944 122.87 15.944C122.07 15.944 121.35 16.464 120.71 17.504V24.296L122.654 24.44C122.75 25.48 122.39 26 121.574 26H116.03C116.03 26 116.03 25.936 116.03 25.808C116.03 24.928 116.382 24.456 117.086 24.392L117.782 24.344V15.752L116.726 15.632C116.23 15.584 115.982 15.104 115.982 14.192L120.326 13.64L120.542 15.632H120.614ZM131.709 26H126.357V25.808C126.357 24.928 126.709 24.456 127.413 24.392L128.157 24.344V15.632L127.221 15.536C126.565 15.472 126.269 14.976 126.333 14.048L131.085 13.52V24.296L132.789 24.44C132.885 25.48 132.525 26 131.709 26ZM131.205 10.664C131.205 11.16 131.037 11.584 130.701 11.936C130.365 12.272 129.941 12.44 129.429 12.44C128.933 12.44 128.509 12.272 128.157 11.936C127.821 11.584 127.653 11.16 127.653 10.664C127.653 10.168 127.821 9.752 128.157 9.416C128.509 9.064 128.933 8.888 129.429 8.888C129.925 8.888 130.341 9.064 130.677 9.416C131.029 9.752 131.205 10.168 131.205 10.664ZM137.837 15.56V22.208C137.837 23.504 138.253 24.152 139.085 24.152C139.693 24.152 140.197 24.072 140.597 23.912C141.013 23.752 141.453 23.48 141.917 23.096C141.997 23.096 142.101 23.2 142.229 23.408C142.357 23.616 142.421 23.84 142.421 24.08C142.421 24.704 141.981 25.24 141.101 25.688C140.221 26.136 139.365 26.36 138.533 26.36C137.701 26.36 137.045 26.24 136.565 26C136.085 25.776 135.725 25.44 135.485 24.992C135.101 24.256 134.909 23.28 134.909 22.064V15.56H132.917C132.917 14.44 133.309 13.88 134.093 13.88H134.909V10.808L137.837 10.496V13.88H142.157C142.189 14.12 142.165 14.392 142.085 14.696C141.941 15.272 141.573 15.56 140.981 15.56H137.837ZM148.401 26H143.049V25.808C143.049 24.928 143.401 24.456 144.105 24.392L144.849 24.344V15.632L143.913 15.536C143.257 15.472 142.961 14.976 143.025 14.048L147.777 13.52V24.296L149.481 24.44C149.577 25.48 149.217 26 148.401 26ZM147.897 10.664C147.897 11.16 147.729 11.584 147.393 11.936C147.057 12.272 146.633 12.44 146.121 12.44C145.625 12.44 145.201 12.272 144.849 11.936C144.513 11.584 144.345 11.16 144.345 10.664C144.345 10.168 144.513 9.752 144.849 9.416C145.201 9.064 145.625 8.888 146.121 8.888C146.617 8.888 147.033 9.064 147.369 9.416C147.721 9.752 147.897 10.168 147.897 10.664ZM157.961 16.64C157.513 15.792 156.873 15.368 156.041 15.368C155.209 15.368 154.561 15.784 154.097 16.616C153.649 17.448 153.425 18.584 153.425 20.024C153.425 21.448 153.649 22.56 154.097 23.36C154.561 24.144 155.209 24.536 156.041 24.536C156.873 24.536 157.513 24.152 157.961 23.384C158.425 22.6 158.657 21.496 158.657 20.072C158.657 18.632 158.425 17.488 157.961 16.64ZM150.377 20.144C150.377 18.096 150.881 16.48 151.889 15.296C152.913 14.112 154.329 13.52 156.137 13.52C157.945 13.52 159.321 14.088 160.265 15.224C161.225 16.36 161.705 17.936 161.705 19.952C161.705 21.952 161.193 23.52 160.169 24.656C159.145 25.792 157.713 26.36 155.873 26.36C154.049 26.36 152.673 25.832 151.745 24.776C150.833 23.72 150.377 22.176 150.377 20.144ZM176.176 26H170.872V25.808C170.872 24.928 171.224 24.456 171.928 24.392L172.624 24.344V18.44C172.624 17.512 172.44 16.864 172.072 16.496C171.704 16.112 171.192 15.92 170.536 15.92C169.88 15.92 169.344 16.008 168.928 16.184C168.512 16.36 168.08 16.64 167.632 17.024V24.296L169.336 24.44C169.432 25.48 169.072 26 168.256 26H162.904V25.808C162.904 24.928 163.256 24.456 163.96 24.392L164.704 24.344V15.776L163.768 15.68C163.112 15.616 162.816 15.12 162.88 14.192L167.224 13.664L167.392 15.128H167.464C168.056 14.616 168.624 14.224 169.168 13.952C169.728 13.664 170.384 13.52 171.136 13.52C172.368 13.52 173.408 13.936 174.256 14.768C175.12 15.584 175.552 16.848 175.552 18.56V24.296L177.256 24.44C177.352 25.48 176.992 26 176.176 26Z" fill="black"/>
<defs>
<filter id="filter0_d_629_1042" x="0" y="0" width="543" height="58" filterUnits="userSpaceOnUse" color-interpolation-filters="sRGB">
<feFlood flood-opacity="0" result="BackgroundImageFix"/>
<feColorMatrix in="SourceAlpha" type="matrix" values="0 0 0 0 0 0 0 0 0 0 0 0 0 0 0 0 0 0 127 0" result="hardAlpha"/>
<feOffset dy="4"/>
<feGaussianBlur stdDeviation="2"/>
<feComposite in2="hardAlpha" operator="out"/>
<feColorMatrix type="matrix" values="0 0 0 0 0 0 0 0 0 0 0 0 0 0 0 0 0 0 0.25 0"/>
<feBlend mode="normal" in2="BackgroundImageFix" result="effect1_dropShadow_629_1042"/>
<feBlend mode="normal" in="SourceGraphic" in2="effect1_dropShadow_629_1042" result="shape"/>
</filter>
</defs>
</svg>
