<svg width="201" height="63" viewBox="0 0 201 63" fill="none" xmlns="http://www.w3.org/2000/svg">
<g style="mix-blend-mode:plus-darker">
<rect x="0.5" y="0.5" width="200" height="62" rx="31" stroke="black"/>
</g>
<path d="M48.704 38H44.096V37.808C44.096 37.392 44.208 37.12 44.432 36.992C44.544 36.944 44.68 36.912 44.84 36.896L45.944 36.848L44.672 32.456H39.584L38.312 36.8L40.112 36.944C40.176 37.648 39.96 38 39.464 38H35.264V37.808C35.264 37.392 35.376 37.12 35.6 36.992C35.712 36.944 35.848 36.912 36.008 36.896L36.968 36.848L41.6 21.728C42.112 21.664 42.632 21.664 43.16 21.728L47.792 36.8L49.352 36.944C49.416 37.648 49.2 38 48.704 38ZM39.944 31.256H44.312L42.152 23.744L39.944 31.256ZM60.4004 38.36C59.3444 38.36 58.7764 37.776 58.6964 36.608C57.5284 37.776 56.2724 38.36 54.9284 38.36C53.5844 38.36 52.4644 37.872 51.5684 36.896C50.6884 35.904 50.2244 34.432 50.1764 32.48C50.1284 30.512 50.6084 28.928 51.6164 27.728C52.6404 26.512 54.0644 25.904 55.8884 25.904C56.8644 25.904 57.7924 26.112 58.6724 26.528V22.856L57.4244 22.712C57.0404 22.68 56.8484 22.336 56.8484 21.68L60.3284 21.248V37.04L61.8644 37.232C61.8324 37.984 61.3444 38.36 60.4004 38.36ZM58.6724 28.376C57.8084 27.592 56.7604 27.2 55.5284 27.2C54.3124 27.2 53.4084 27.672 52.8164 28.616C52.2404 29.544 51.9524 30.712 51.9524 32.12C51.9524 33.528 52.2404 34.688 52.8164 35.6C53.3924 36.496 54.2724 36.944 55.4564 36.944C56.0484 36.944 56.5764 36.824 57.0404 36.584C57.5044 36.344 58.0484 35.96 58.6724 35.432V28.376ZM73.0471 38.36C71.9911 38.36 71.4231 37.776 71.3431 36.608C70.1751 37.776 68.9191 38.36 67.5751 38.36C66.2311 38.36 65.1111 37.872 64.2151 36.896C63.3351 35.904 62.8711 34.432 62.8231 32.48C62.7751 30.512 63.2551 28.928 64.2631 27.728C65.2871 26.512 66.7111 25.904 68.5351 25.904C69.5111 25.904 70.4391 26.112 71.3191 26.528V22.856L70.0711 22.712C69.6871 22.68 69.4951 22.336 69.4951 21.68L72.9751 21.248V37.04L74.5111 37.232C74.4791 37.984 73.9911 38.36 73.0471 38.36ZM71.3191 28.376C70.4551 27.592 69.4071 27.2 68.1751 27.2C66.9591 27.2 66.0551 27.672 65.4631 28.616C64.8871 29.544 64.5991 30.712 64.5991 32.12C64.5991 33.528 64.8871 34.688 65.4631 35.6C66.0391 36.496 66.9191 36.944 68.1031 36.944C68.6951 36.944 69.2231 36.824 69.6871 36.584C70.1511 36.344 70.6951 35.96 71.3191 35.432V28.376ZM81.0277 21.752H94.5397V24.632C94.5397 25.144 94.1877 25.368 93.4837 25.304L93.3157 22.976H88.6837V36.8L90.5077 36.944C90.5717 37.648 90.3477 38 89.8357 38H85.0597C85.0597 38 85.0597 37.936 85.0597 37.808C85.0597 37.392 85.1717 37.12 85.3957 36.992C85.5077 36.944 85.6437 36.912 85.8037 36.896L86.9557 36.848V22.976H82.2517L82.0837 25.304C81.3797 25.368 81.0277 25.144 81.0277 24.632V21.752ZM100.721 27.152C99.6326 27.152 98.7926 27.624 98.2006 28.568C97.6086 29.512 97.3126 30.72 97.3126 32.192C97.3126 33.648 97.6006 34.84 98.1766 35.768C98.7526 36.68 99.5846 37.136 100.673 37.136C101.761 37.12 102.601 36.656 103.193 35.744C103.785 34.832 104.081 33.656 104.081 32.216C104.081 30.76 103.793 29.552 103.217 28.592C102.657 27.616 101.825 27.136 100.721 27.152ZM100.865 25.904C102.081 25.904 103.177 26.288 104.153 27.056C104.665 27.472 105.073 28.08 105.377 28.88C105.697 29.68 105.857 30.64 105.857 31.76C105.889 33.744 105.425 35.344 104.465 36.56C103.505 37.76 102.209 38.36 100.577 38.36C98.9446 38.36 97.7046 37.848 96.8566 36.824C96.0086 35.8 95.5686 34.32 95.5366 32.384C95.5206 30.448 95.9926 28.888 96.9526 27.704C97.9286 26.504 99.2326 25.904 100.865 25.904ZM114.122 21.704H119.162C121.13 21.704 122.618 22.128 123.626 22.976C124.634 23.808 125.138 24.896 125.138 26.24C125.138 28.064 124.538 29.392 123.338 30.224C122.154 31.056 120.562 31.472 118.562 31.472C118.034 31.472 117.506 31.448 116.978 31.4V36.8L118.802 36.944C118.866 37.648 118.642 38 118.13 38H113.402C113.402 38 113.402 37.936 113.402 37.808C113.402 37.392 113.514 37.12 113.738 36.992C113.85 36.944 113.986 36.912 114.146 36.896L115.25 36.848V22.904L113.498 22.76C113.45 22.056 113.658 21.704 114.122 21.704ZM118.346 30.344C121.642 30.344 123.29 29.072 123.29 26.528C123.29 23.824 121.618 22.576 118.274 22.784L116.978 22.856V30.296C117.298 30.328 117.754 30.344 118.346 30.344ZM130.821 38H126.309V37.808C126.309 37.296 126.565 37.016 127.077 36.968L128.109 36.92V22.832L126.861 22.712C126.477 22.664 126.285 22.328 126.285 21.704L129.765 21.248V36.872L131.469 37.016C131.533 37.672 131.317 38 130.821 38ZM143.28 37.256C143.28 38.008 142.784 38.384 141.792 38.384C140.8 38.384 140.224 37.88 140.064 36.872C139.04 37.864 137.808 38.36 136.368 38.36C135.264 38.36 134.384 38.08 133.728 37.52C133.088 36.944 132.768 36.168 132.768 35.192C132.768 34.216 133.128 33.392 133.848 32.72C134.568 32.048 135.76 31.712 137.424 31.712C138.4 31.712 139.264 31.824 140.016 32.048V30.152C140.016 29.24 139.784 28.512 139.32 27.968C138.872 27.408 138.208 27.128 137.328 27.128C136.448 27.128 135.816 27.368 135.432 27.848C135.064 28.312 134.856 28.856 134.808 29.48C134.424 29.512 134.104 29.432 133.848 29.24C133.592 29.048 133.464 28.736 133.464 28.304C133.464 27.616 133.816 27.048 134.52 26.6C135.224 26.136 136.136 25.904 137.256 25.904C138.232 25.904 139.16 26.144 140.04 26.624C140.536 26.88 140.936 27.304 141.24 27.896C141.544 28.488 141.696 29.208 141.696 30.056V37.064L143.28 37.256ZM140.016 33.488C139.28 33.088 138.424 32.888 137.448 32.888C136.472 32.888 135.752 33.072 135.288 33.44C134.84 33.808 134.616 34.312 134.616 34.952C134.616 35.592 134.816 36.104 135.216 36.488C135.616 36.856 136.168 37.04 136.872 37.04C137.992 37.04 139.04 36.608 140.016 35.744V33.488ZM156.767 38H152.303V37.808C152.303 37.424 152.415 37.184 152.639 37.088C152.751 37.024 152.887 36.984 153.047 36.968L154.103 36.92V30.704C154.103 28.464 153.215 27.344 151.439 27.344C150.783 27.344 150.191 27.472 149.663 27.728C149.135 27.984 148.535 28.392 147.863 28.952V36.872L149.567 37.016C149.631 37.672 149.415 38 148.919 38H144.407V37.808C144.407 37.296 144.663 37.016 145.175 36.968L146.207 36.92V27.464L144.959 27.32C144.575 27.288 144.383 26.96 144.383 26.336L147.479 25.928L147.791 27.752H147.863C149.159 26.52 150.495 25.904 151.871 25.904C152.943 25.904 153.855 26.28 154.607 27.032C155.375 27.784 155.759 28.944 155.759 30.512V36.872L157.439 37.016C157.503 37.672 157.279 38 156.767 38ZM161.382 37.064C161.382 36.696 161.502 36.392 161.742 36.152C161.998 35.912 162.302 35.792 162.654 35.792C163.022 35.792 163.326 35.912 163.566 36.152C163.806 36.392 163.926 36.696 163.926 37.064C163.926 37.432 163.806 37.744 163.566 38C163.326 38.24 163.022 38.36 162.654 38.36C162.286 38.36 161.982 38.24 161.742 38C161.502 37.744 161.382 37.432 161.382 37.064ZM158.766 24.248C158.766 23.416 159.19 22.664 160.038 21.992C160.886 21.304 162.03 20.96 163.47 20.96C164.926 20.96 166.07 21.32 166.902 22.04C167.734 22.744 168.15 23.728 168.15 24.992C168.15 26.256 167.67 27.352 166.71 28.28C165.75 29.208 164.646 29.816 163.398 30.104L163.254 33.512C162.902 33.56 162.51 33.56 162.078 33.512L161.958 29.216C163.238 28.896 164.286 28.36 165.102 27.608C165.934 26.856 166.35 25.968 166.35 24.944C166.35 24.16 166.086 23.496 165.558 22.952C165.046 22.392 164.302 22.112 163.326 22.112C162.35 22.112 161.59 22.448 161.046 23.12C160.502 23.776 160.23 24.536 160.23 25.4C159.254 25.4 158.766 25.016 158.766 24.248Z" fill="black"/>
</svg>
