<svg width="28" height="26" viewBox="0 0 28 26" fill="none" xmlns="http://www.w3.org/2000/svg">
<path d="M13.9996 1.99995C11.6262 1.99995 9.30613 2.70373 7.33274 4.02231C5.35935 5.34089 3.82128 7.21503 2.91302 9.40774C2.00477 11.6005 1.76713 14.0133 2.23016 16.341C2.69318 18.6688 3.83607 20.807 5.5143 22.4852C7.19253 24.1635 9.33072 25.3063 11.6585 25.7694C13.9863 26.2324 16.3991 25.9947 18.5918 25.0865C20.7845 24.1782 22.6586 22.6402 23.9772 20.6668C25.2958 18.6934 25.9996 16.3733 25.9996 13.9999C25.9959 10.8185 24.7305 7.76833 22.4808 5.51868C20.2312 3.26904 17.1811 2.00358 13.9996 1.99995ZM13.9996 23.9999C12.0218 23.9999 10.0884 23.4135 8.44388 22.3146C6.79939 21.2158 5.51766 19.654 4.76078 17.8268C4.00391 15.9995 3.80587 13.9889 4.19173 12.049C4.57758 10.1092 5.52999 8.3274 6.92851 6.92888C8.32704 5.53035 10.1089 4.57795 12.0487 4.19209C13.9885 3.80624 15.9992 4.00427 17.8264 4.76115C19.6537 5.51803 21.2155 6.79975 22.3143 8.44424C23.4131 10.0887 23.9996 12.0221 23.9996 13.9999C23.9966 16.6512 22.9421 19.193 21.0674 21.0677C19.1926 22.9424 16.6508 23.997 13.9996 23.9999ZM5.70708 1.70745L1.70708 5.70745C1.51944 5.89509 1.26494 6.0005 0.99958 6.0005C0.734216 6.0005 0.47972 5.89509 0.29208 5.70745C0.104439 5.51981 -0.00097656 5.26531 -0.000976562 4.99995C-0.000976565 4.73458 0.104439 4.48009 0.29208 4.29245L4.29208 0.292446C4.47972 0.104805 4.73422 -0.000610352 4.99958 -0.000610352C5.26494 -0.000610352 5.51944 0.104805 5.70708 0.292446C5.89472 0.480086 6.00014 0.734582 6.00014 0.999946C6.00014 1.26531 5.89472 1.5198 5.70708 1.70745ZM27.7071 5.70745C27.6142 5.80042 27.5039 5.87418 27.3825 5.92451C27.2611 5.97483 27.131 6.00073 26.9996 6.00073C26.8682 6.00073 26.738 5.97483 26.6166 5.92451C26.4952 5.87418 26.385 5.80042 26.2921 5.70745L22.2921 1.70745C22.1044 1.5198 21.999 1.26531 21.999 0.999946C21.999 0.734582 22.1044 0.480086 22.2921 0.292446C22.4797 0.104805 22.7342 -0.000610346 22.9996 -0.000610352C23.2649 -0.000610357 23.5194 0.104805 23.7071 0.292446L27.7071 4.29245C27.8001 4.38532 27.8738 4.49561 27.9241 4.61701C27.9745 4.7384 28.0004 4.86853 28.0004 4.99995C28.0004 5.13136 27.9745 5.26149 27.9241 5.38289C27.8738 5.50428 27.8001 5.61457 27.7071 5.70745ZM20.9996 12.9999C21.2648 12.9999 21.5192 13.1053 21.7067 13.2928C21.8942 13.4804 21.9996 13.7347 21.9996 13.9999C21.9996 14.2652 21.8942 14.5195 21.7067 14.7071C21.5192 14.8946 21.2648 14.9999 20.9996 14.9999H13.9996C13.7344 14.9999 13.48 14.8946 13.2925 14.7071C13.1049 14.5195 12.9996 14.2652 12.9996 13.9999V6.99995C12.9996 6.73473 13.1049 6.48038 13.2925 6.29284C13.48 6.1053 13.7344 5.99995 13.9996 5.99995C14.2648 5.99995 14.5192 6.1053 14.7067 6.29284C14.8942 6.48038 14.9996 6.73473 14.9996 6.99995V12.9999H20.9996Z" fill="#343330"/>
</svg>
